<?xml version="1.0" encoding="iso-8859-1"?>
<!-- Generator: Adobe Illustrator 22.1.0, SVG Export Plug-In . SVG Version: 6.00 Build 0)  -->
<svg version="1.1" id="_x31_" xmlns="http://www.w3.org/2000/svg" xmlns:xlink="http://www.w3.org/1999/xlink" x="0px" y="0px"
	 viewBox="0 0 512 512" style="enable-background:new 0 0 512 512;" xml:space="preserve">
<g>
	<path style="fill:#A38A77;" d="M80.577,190.884c2.137-2.486-1.746-45.978-1.746-53.744c0-7.766,3.883-15.533,8.543-14.756
		c4.66,0.776,6.213,9.32,6.213,11.65c0,2.33,0,73.781,0,73.781s2.33,49.705,2.33,52.812c0,3.106,3.883,226.779,3.106,232.992
		c-0.776,6.213-5.436,6.99-7.766,4.66c-2.33-2.33-3.107-6.213-3.107-8.543s-3.883-235.322-3.883-235.322L80.577,190.884z"/>
	<path style="fill:#A38A77;" d="M378.615,122.384c16.383,0,31.065-1.553,43.491,3.883c12.427,5.437,20.193,21.746,19.416,27.183
		c-0.777,5.436-2.33,37.279-2.33,37.279s-0.777,79.217-0.777,93.973c0,14.757,1.554,31.842-4.66,41.162
		c-6.213,9.32-25.629,15.533-31.065,10.873c-5.436-4.66-26.406-40.386-26.406-46.598c0-6.213,16.31-76.111,16.31-76.111
		l-17.087-81.547C375.507,132.48,374.731,122.384,378.615,122.384z"/>
	<path style="fill:#EFD0A3;" d="M248.83,145.716c23.361,2.767,47.258-0.524,70.317-4.284c13.397-2.184,26.874-4.807,39.923-8.581
		c4.383-1.268,8.717-2.726,13.058-4.166v-4.499c0-6.253-4.864-28.484-2.779-34.041c2.084-5.558,6.947-21.536,4.863-34.736
		c-2.084-13.2-12.505-34.735-30.567-44.461c-18.063-9.726-44.461-6.253-60.44,1.389c-15.978,7.642-28.483,24.315-34.736,35.431
		c0,0-16.673,86.144-16.673,89.617c0,0.683-0.595,2.23-1.543,4.265C236.229,143.861,242.71,144.991,248.83,145.716z"/>
	<path style="fill:#94C85C;" d="M218.278,120.153c-3.762,0-27.089-17.307-27.841-27.089c-0.752-9.782,0.753-9.782,10.535-9.03
		c9.782,0.753,30.851,3.01,31.603-0.753c0.752-3.762,5.267-23.326,12.039-27.841c6.772-4.515,13.544-1.505,15.049,5.267
		c1.505,6.772,4.515,14.296,4.515,14.296l32.355,6.772c0,0,9.03-18.059,15.802-18.812c6.772-0.753,12.039,12.792,12.039,17.307
		c0,4.515,27.089,15.802,38.376,26.336c11.287,10.535,13.471,21.439,14.976,27.459c1.505,6.02,9.102,22.203,24.905,33.49
		c15.801,11.287,41.385,44.395,39.128,60.197c-2.258,15.801-25.584,39.881-32.356,50.415c-6.772,10.535-15.802,12.792-12.792,26.337
		c3.01,13.544-3.01,15.049-3.01,18.811c0,3.762-8.277,14.297-4.515,24.831c3.762,10.535-10.535,119.642-10.535,119.642
		s5.267,3.762,18.059,4.515c12.792,0.752,25.584-1.505,36.871,2.257c11.287,3.762,2.257,7.525-12.792,6.772
		c-15.049-0.753,15.801,3.01,19.564,7.525c3.762,4.515-6.772,2.257-21.069,0.753c-14.297-1.505,8.277,3.762,7.525,7.525
		c-0.753,3.762-3.762,1.505-19.564,3.762c-15.802,2.258-28.594-2.257-42.138-6.02c-13.544-3.762-19.564-27.088-21.069-35.365
		c-1.505-8.278-3.01-54.178-17.307-69.979c-14.296-15.802-29.346-25.584-50.415-18.812c-21.069,6.772-43.643,42.138-42.89,57.187
		c0.752,15.049,3.762,33.861,1.505,47.405c-2.257,13.544-16.554,21.821-24.831,25.584c-8.277,3.762-20.316,13.544-24.831,10.535
		c-4.515-3.01,13.544-18.059,13.544-18.059s-24.079,15.049-32.356,14.296c-8.277-0.752,17.307-19.564,17.307-19.564
		s-26.336,10.535-32.356,8.277c-6.02-2.257,15.049-9.782,20.316-14.297c5.267-4.514,24.079-9.03,28.594-14.296
		c4.515-5.267,4.515-161.027,4.515-161.027l-5.267-72.989c0,0-50.415,36.118-59.444,36.118c-9.03,0-43.643-18.812-43.643-18.812
		s-11.287,2.257-24.079,0c-12.792-2.258-12.04-13.544-7.525-20.317c-9.03-5.267-1.505-13.544-1.505-13.544
		s-2.257-5.267,0.753-15.049c3.01-9.782,12.792-12.039,16.554-11.287c3.762,0.753,6.772,4.515,6.772,4.515s1.505-6.02,10.534-6.02
		s12.039,6.02,11.287,12.039c-0.753,6.02,0,9.782,3.01,10.535c3.01,0.752,17.307,12.039,17.307,12.039l18.812,15.801l60.949-46.652
		l26.336-48.91L218.278,120.153z"/>
	<path style="fill:#D8B88D;" d="M381.158,89.45c-11.81-6.947-51.408-28.483-59.745-30.568c-8.336-2.084-59.05-18.063-66.692-18.757
		c-7.642-0.695-38.904,1.39-40.294,9.031c-1.335,7.343,8.235,12.761,20.079,18.105c2.688-5.166,6.266-10.473,10.108-11.819
		c8.023-2.812,13.045-2.632,15.049,5.267c2.004,7.899,4.783,12.067,8.257,14.151c3.474,2.084,28.614,6.918,28.614,6.918
		s6.725-19.59,15.801-18.812c9.077,0.779,10.834,15.077,12.04,17.307c1.206,2.23,2.596,4.313,4.68,4.313
		c2.084,0,18.762,9.31,33.696,22.023c3.411,2.903,6.217,5.758,8.494,8.495c6.201-0.739,12.179-2.061,15.472-4.119
		C392.273,107.512,392.968,96.397,381.158,89.45z"/>
	<path style="fill:#EFD0A3;" d="M449.24,206.856c-4.863-12.505-19.452-22.925-26.399-31.262
		c-6.947-8.337-22.23-16.673-29.178-22.231c-6.947-5.557-10.421-11.81-10.421-11.81l-11.115-6.252c0,0,0-0.082,0-0.199
		c-3.246,2.589-6.616,5.024-10.056,7.352c-6.201,4.195-12.784,8.991-19.745,11.829c-2.967,1.209-11.65,5.52-14.582,7.71
		c-5.243,3.916-16.143,7.668-16.309,3.495c-6.604,1.272,5.933-22.548-0.736-21.592c-12.928,1.852-26.107,3.682-39.177,3.94
		c-9.794,0.193-19.675-0.195-29.331-1.931c-4.158-0.747-8.386-1.763-12.415-3.252c-4.15,8.581-13.264,23.91-13.264,23.91
		s-19.452,13.2-21.536,13.2s-16.673,11.116-20.146,18.063c-3.474,6.947-18.063,22.23-24.315,27.788
		c-6.252,5.557-7.642,4.863-11.115,1.389c-3.473-3.473-15.978-11.116-15.978-11.116s-1.389,11.116-6.252,27.788
		c-4.292,14.716-7.5,14.279-8.195,13.974c1.662,0.926,18.818,10.51,22.783,13.815c4.168,3.474,14.589,8.337,21.536,4.863
		c6.947-3.474,19.452-15.978,26.399-22.231c6.947-6.253,13.894-11.81,16.673-13.2c2.779-1.389,2.084-0.695,0.695,4.863
		c-9.031,34.736,4.168,63.219,4.168,63.219s-20.146,22.23-18.757,26.399c1.39,4.168,15.284,9.031,15.284,9.031
		s-15.284,22.926-16.673,36.125c-1.389,13.2-1.389,38.209,9.031,52.798c10.421,14.589,6.947,29.177,6.947,29.177
		s3.159,5.281,16.673,10.421c13.514,5.139,21.099,2.385,21.099,2.385s3.91-19.058,2.521-28.784
		c-1.389-9.726,2.084-14.589,6.252-29.177c4.168-14.589,20.147-29.873,29.873-34.041c9.726-4.168,18.063-4.863,32.652-1.39
		c14.589,3.474,22.231,20.841,24.315,36.125c2.084,15.284,8.337,42.377,10.421,45.851c2.084,3.474,2.084,10.42,6.252,11.115
		c4.168,0.695,31.957-3.474,31.957-3.474s3.474-7.642,5.558-13.199c2.084-5.558,18.757-61.829,13.894-76.419
		c-4.863-14.589-9.439-33.774-9.439-33.774s3.881-2.351,8.745-3.741c4.862-1.389,4.168-4.863,4.168-4.863s-5.558-11.81-8.398-16.228
		c-2.84-4.418,2.146-6.004-4.107-6.004c-6.253,0-10.421-3.473-14.589-9.726c-4.168-6.253-4.862-13.894,0.695-22.926
		c5.557-9.031,6.947-14.589,11.81-8.336c4.863,6.252,13.894,11.81,13.894,11.81s2.779,2.084,5.557-2.779
		c2.779-4.863,33.346-32.652,39.598-40.293C452.713,237.423,454.103,219.361,449.24,206.856z"/>
	<path style="fill:#FFFFFF;" d="M222.898,120.442c13.591,10.485,70.674,16.31,85.042,15.145c14.368-1.165,15.533,1.165,13.203,6.602
		c-2.33,5.436,2.33,18.639,4.66,19.804c2.33,1.165-50.87,30.289-55.918,28.347c-5.048-1.941-38.444-36.114-40.774-37.279
		c-2.33-1.165-5.437-0.388-6.602-0.776c-1.165-0.389-3.106-1.554-2.33-3.106c0.777-1.554,4.66-10.485,4.272-13.98
		S222.898,120.442,222.898,120.442z"/>
	<path style="fill:#A38A77;" d="M393.37,217.134c3.831,0.639,17.086,15.533,17.863,20.969c0.776,5.437-18.639,19.416-19.416,17.086
		c-0.776-2.33-0.776-13.203-2.33-21.746C389.487,233.443,388.711,216.358,393.37,217.134z"/>
	<path style="fill:#A38A77;" d="M383.274,144.13c-10.873,6.99-14.757,31.065-14.757,47.375c0,16.31,9.32,41.939,16.309,48.152
		c6.99,6.213,13.203,14.756,6.99,15.533c-6.213,0.776-22.522-6.213-32.619-17.863c-10.096-11.65-18.639-39.609-18.639-51.258
		s16.309-42.715,16.309-42.715l11.147-7.199c0,0,4.623-0.206,8.106,0.963c3.483,1.17,6.328,5.477,7.121,4.435
		C384.827,139.47,383.274,144.13,383.274,144.13z"/>
	<path style="fill:#A38A77;" d="M209.695,151.508c-12.038,8.543-15.921,29.124-17.474,39.997c-1.553,10.873,0,36.114,3.495,42.327
		c3.495,6.213,2.33,9.32,4.272,10.096c1.942,0.777,3.883,1.165,4.272-2.33c0.388-3.495,6.601-52.423,11.261-61.743
		c4.66-9.32,6.99-27.57,6.99-27.57L209.695,151.508z"/>
	<path style="fill:#231815;" d="M242.631,62.864c-1.969,3.912-2.934,6.568-3.445,8.406c-0.514,1.823-0.713,3.072-1.183,3.807
		c-0.469,0.727-1.268,0.819-2.162-0.093c-0.865-0.876-1.555-2.944-1.064-5.199c0.457-2.242,1.249-4.206,2.076-6.067
		c0.857-1.85,1.716-3.573,2.746-5.286c1.026-1.697,2.223-3.352,3.809-4.745c1.556-1.39,3.633-2.471,5.78-2.713
		c2.142-0.3,4.393,0.197,6.198,1.15c1.836,0.944,3.27,2.291,4.41,3.753c1.139,1.469,1.997,3.08,2.594,4.776
		c0.282,0.845,0.527,1.742,0.669,2.593c0.151,0.844,0.245,1.684,0.293,2.511c0.24,3.366-0.536,7.939-1.023,10.804
		c-0.259,1.442-0.471,2.493-0.768,2.714c-0.28,0.222-0.692-0.414-1.032-2.359c-0.628-3.877-1.051-6.555-1.744-9.197
		c-0.736-2.652-1.401-5.185-3.651-8.055c-1.121-1.402-2.613-2.499-4.04-2.738c-1.431-0.288-2.966,0.225-4.286,1.21
		c-1.326,0.972-2.376,2.251-3.079,3.179C243.021,62.255,242.631,62.864,242.631,62.864z"/>
	<path style="fill:#231815;" d="M270.51,77.554c-9.425-1.004-7.107-7.327-3.44-5.825c3.668,1.502,7.76,1.231,10.808,1.959
		c3.048,0.729,6.096,1.459,9.002,2.778c2.906,1.32,8.434,5.144,4.484,4.825c-3.95-0.319-5.759,0.499-10.328-0.594
		C276.464,79.604,270.51,77.554,270.51,77.554z"/>
	<path style="fill:#231815;" d="M303.485,72.832c-1.904,3.487-2.991,6.377-4.139,8.291c-1.105,1.937-2.128,2.943-2.956,3.171
		c-1.631,0.464-2.518-2.081-1-5.617c1.539-3.506,3.005-7.195,5.332-10.416c2.343-3.284,5.7-5.761,9.249-6.641
		c1.766-0.446,3.675-0.604,5.594-0.307c1.909,0.288,3.823,1.072,5.35,2.257c3.109,2.376,4.704,5.807,5.28,9.109
		c0.303,1.689,0.291,3.746,0.009,5.679c-0.276,1.936-0.787,3.742-1.286,5.097c-1.017,2.705-1.884,3.699-1.834,0.025
		c0.02-3.655-0.456-6.142-1.269-8.479c-0.415-1.139-0.929-2.262-1.624-3.396c-0.693-1.127-1.574-2.282-2.803-3.174
		c-1.224-0.869-2.769-1.389-4.54-1.254c-1.752,0.099-3.565,0.764-5.005,1.62c-1.459,0.877-2.505,1.839-3.241,2.674
		C303.875,72.292,303.485,72.832,303.485,72.832z"/>
	<path style="fill:#231815;" d="M340.925,91.574c-4.834-2.161-8.358-3.605-10.764-4.882c-2.413-1.231-3.719-2.246-4.089-3.12
		c-0.376-0.853,0.172-1.469,1.404-1.673c1.222-0.187,3.165-0.051,5.332,0.911c4.359,1.806,8.692,3.602,12.678,5.659
		c0.503,0.249,1.003,0.496,1.498,0.741c0.482,0.271,0.961,0.539,1.435,0.805c0.944,0.542,1.892,1.05,2.786,1.602
		c1.749,1.158,3.47,2.225,4.909,3.461c5.895,4.746,11.175,10.367,14.941,16.934c0.46,0.826,1.006,1.733,1.478,2.747
		c0.469,1.016,0.944,2.087,1.399,3.152c0.452,1.067,0.79,2.183,1.136,3.203c0.348,1.022,0.623,1.993,0.788,2.868
		c0.732,3.464,0.56,4.927-1.561,0.977c-0.508-0.999-1.06-1.881-1.606-2.694c-0.538-0.817-1.038-1.584-1.547-2.302
		c-1.101-1.387-2.046-2.694-3.148-3.949c-1.104-1.254-2.166-2.59-3.493-4.026c-1.256-1.491-2.76-3.084-4.511-5.039
		c-3.551-3.871-8.147-7.969-12.068-10.803c-1.987-1.37-3.688-2.596-4.979-3.332C341.676,92.037,340.925,91.574,340.925,91.574z"/>
	<path style="fill:#231815;" d="M190.369,95.726c-0.776-2.068-1.139-4.159-1.09-6.296c0.043-1.071,0.183-2.151,0.522-3.234
		c0.351-1.08,0.903-2.16,1.715-3.09c0.806-0.954,1.901-1.613,2.995-2.057c1.127-0.415,2.188-0.514,3.093-0.543
		c0.918-0.021,1.669,0.026,2.389,0.051c0.728,0.031,1.441,0.061,2.139,0.089c5.587,0.247,10.238,0.557,14.041,0.904
		c7.608,0.695,11.828,1.535,13.376,2.308c3.096,1.545-4.498,2.819-17.058,2.107c-3.141-0.178-6.283-0.328-9.416-0.455
		c-1.554-0.056-3.106-0.112-4.654-0.168c-0.708-0.013-1.325,0.017-1.805,0.126c-0.24,0.06-0.447,0.113-0.629,0.222l-0.285,0.142
		l-0.244,0.188c-0.631,0.497-1.086,1.433-1.255,2.609c-0.19,1.159-0.075,2.481,0.183,3.736c0.152,0.626,0.318,1.254,0.559,1.835
		c0.23,0.593,0.585,1.252,0.867,1.871c0.274,0.641,0.636,1.234,0.997,1.826c0.359,0.592,0.684,1.199,1.115,1.742
		c1.541,2.283,3.464,4.263,5.507,6.038c0.999,0.912,2.112,1.695,3.172,2.508c1.127,0.743,2.209,1.515,3.369,2.174
		c4.545,2.753,9.343,4.766,13.904,6.571c2.305,0.874,4.607,1.728,6.985,2.51c2.36,0.808,4.722,1.603,7.101,2.342
		c4.741,1.535,9.529,2.885,14.327,4.192c9.617,2.517,19.349,4.514,29.184,5.809c4.919,0.572,11.095,1.299,17.236,1.42
		c6.131,0.148,12.234,0.039,16.916-0.415c2.357-0.126,4.343-0.384,5.833-0.508c1.49-0.125,2.476-0.151,2.783-0.051
		c0.308,0.101-0.063,0.329-1.286,0.714c-0.612,0.192-1.436,0.424-2.495,0.698c-1.057,0.284-2.352,0.6-3.92,0.853
		c-12.509,2.284-21.512,2.645-31.082,2.413c-9.568-0.323-19.827-1.396-34.657-5.114c-7.406-1.892-15.303-4.346-22.926-7.044
		c-7.661-2.672-15.158-5.884-21.227-9.868c-3.037-1.977-5.701-4.132-7.902-6.288c-2.17-2.197-3.877-4.368-5.108-6.301
		c-1.221-1.939-2.046-3.576-2.516-4.738c-0.25-0.576-0.443-1.019-0.572-1.32C190.43,95.9,190.369,95.726,190.369,95.726z"/>
	<path style="fill:#231815;" d="M333.444,138.287c-1.238,0.944-2.357,1.43-3.26,1.755c-0.909,0.316-1.632,0.457-2.249,0.513
		c-1.219,0.098-2.093-0.121-2.745-0.544c-0.642-0.429-0.966-1.112-0.753-1.899c0.203-0.773,0.976-1.569,2.094-1.908
		c1.112-0.343,2.106-0.694,2.961-1.127c0.834-0.42,1.608-0.965,1.973-1.445c0.441-0.514,0.733-1.151,0.896-1.678
		c0.143-0.536,0.149-0.956,0.126-1.146c-0.032-0.195-0.031-0.249-0.155-0.403c-0.119-0.156-0.485-0.435-1.055-0.713
		c-1.241-0.59-2.702-1.157-4.131-1.696c-1.433-0.571-3.746-1.402-5.384-1.981c-1.61-0.569-2.486-1.207-0.288-1.804
		c2.2-0.516,3.827-0.888,5.621-1.061c1.803-0.125,3.733-0.1,6.534,1.016c0.74,0.318,1.588,0.748,2.436,1.464
		c0.852,0.702,1.636,1.784,2.018,2.962c0.4,1.185,0.401,2.403,0.202,3.407c-0.199,1.015-0.571,1.858-0.978,2.571
		C335.654,137.364,333.336,138.309,333.444,138.287z"/>
	<path style="fill:#231815;" d="M220.316,127.214c-1.097-2.209-1.768-3.796-2.048-5.097c-0.28-1.288-0.181-2.269,0.242-2.947
		c0.41-0.668,1.099-0.976,1.862-0.808c0.753,0.166,1.622,0.794,2.094,1.948c0.971,2.269,2.088,4.408,2.93,6.59
		c0.84,2.164,1.572,4.321,1.685,6.307c0.351,3.934-0.16,8.017-1.87,11.599c-0.482,0.905-1.124,2.017-1.966,2.968
		c-0.77,0.985-1.747,1.785-2.477,2.327l-0.602,0.447l-0.166-0.284c-0.877-1.501-0.936-2.419,0.998-1.443l-1.724,0.364l0.008-0.023
		c0.382-1.014,0.682-1.869,0.81-2.717c0.182-0.822,0.241-1.604,0.315-2.388c0.13-1.576,0.283-3.18,0.539-5.569
		c0.279-2.387,0.312-5.227,0.042-7.452c-0.032-0.563-0.15-1.069-0.213-1.535c-0.072-0.464-0.129-0.878-0.218-1.21
		C220.405,127.615,220.316,127.214,220.316,127.214z"/>
	<path style="fill:#231815;" d="M215.15,51.134c0.055,1.415,0.946,2.871,2.078,4.128c1.129,1.265,2.478,2.3,3.801,3.3
		c2.614,1.954,4.944,3.387,6.888,4.535c3.904,2.263,6.239,3.501,6.99,4.46c0.764,0.932-0.05,1.523-2.096,1.486
		c-2.027-0.042-5.29-0.819-8.862-2.846c-1.777-1.018-3.5-2.118-5.157-3.298c-0.831-0.595-1.629-1.196-2.437-1.843
		c-0.819-0.662-1.613-1.372-2.363-2.16c-1.476-1.567-2.887-3.486-3.454-5.986c-0.584-2.49,0.064-5.293,1.638-7.309
		c1.575-2,3.6-3.133,5.507-3.92c1.931-0.778,3.845-1.232,5.719-1.519c1.855-0.255,3.489-0.399,5.184-0.582
		c1.674-0.132,3.307-0.225,4.892-0.308c12.674-0.452,25.456,0.712,37.686,3.991c3.051,0.836,6.829,2.004,10.452,3.439
		c3.641,1.38,7.122,3.009,9.736,4.371c5.192,2.829,6.998,4.382-0.275,1.841c-7.339-2.382-12.657-3.403-18.32-4.376
		c-5.676-0.927-11.717-1.807-20.807-2.688c-4.552-0.395-9.497-0.651-14.354-0.675c-1.214,0.009-2.423,0.018-3.618,0.027
		c-1.195,0.041-2.376,0.081-3.536,0.121c-1.162,0.026-2.299,0.116-3.409,0.188c-1.092,0.077-2.242,0.128-3.165,0.231
		c-1.918,0.218-3.645,0.633-5.001,1.187c-1.342,0.567-2.306,1.243-2.806,1.883c-0.511,0.635-0.739,1.201-0.814,1.651
		C215.146,50.893,215.15,51.134,215.15,51.134z"/>
	<path style="fill:#231815;" d="M339.114,68.739c-8.865-3.572-15.336-6.104-19.745-8.139c-4.416-2.008-6.79-3.457-7.526-4.465
		c-0.739-0.996,0.146-1.49,2.182-1.384c2.037,0.096,5.22,0.822,8.984,2.333c7.522,3.028,15.076,5.933,22.163,8.961
		c7.09,3.014,13.732,6.097,19.408,9.263c5.675,3.164,11.241,6.528,16.637,10.147c2.648,1.769,5.531,3.671,8.042,6.28
		c1.254,1.297,2.415,2.818,3.27,4.594c0.87,1.764,1.341,3.82,1.245,5.851c-0.067,2.046-0.807,4.269-2.086,6.114
		c-1.258,1.871-3.001,3.406-4.923,4.512c-3.959,2.239-8.204,2.374-11.237,2.226c-3.069-0.184-5.156-0.623-5.514-0.927
		c-0.364-0.347,1.083-0.528,4.995-0.867c3.879-0.373,7.051-1.363,9.311-2.957c2.255-1.623,3.814-3.813,4.333-6.068
		c0.51-2.25-0.036-4.501-1.846-6.743c-0.893-1.131-2.122-2.253-3.598-3.394c-1.474-1.14-3.257-2.279-5.277-3.594
		c-7.956-5.253-17.546-10.914-25.288-14.991c-3.859-2.06-7.251-3.733-9.664-4.914C340.552,69.424,339.114,68.739,339.114,68.739z"/>
	<path style="fill:#231815;" d="M257.987,28.441c-5.491,5.248-7.62,10.195-7.008,11.246c0.318,0.557,1.37,0.235,3.177-1.217
		c1.832-1.432,4.453-3.974,8.344-7.525c3.962-3.614,7.967-6.883,12.254-9.894c4.287-3.006,8.864-5.758,14.031-8.079
		c5.16-2.306,10.915-4.248,17.459-5.259c3.277-0.451,6.741-0.741,10.393-0.646c3.644,0.123,7.481,0.477,11.438,1.352
		c3.953,0.879,7.83,2.116,11.54,3.692c3.704,1.597,7.198,3.595,10.445,5.846c6.49,4.532,11.752,10.357,15.409,16.635
		c0.449,0.79,0.894,1.574,1.337,2.353c0.389,0.806,0.776,1.606,1.159,2.399l0.568,1.186l0.483,1.212
		c0.319,0.804,0.636,1.601,0.949,2.391c1.067,3.224,2.001,6.363,2.464,9.437c1.072,6.118,1.007,11.747,0.335,16.402
		c-0.382,2.265-0.625,4.241-0.947,5.871c-0.145,0.818-0.202,1.578-0.312,2.233c-0.112,0.654-0.181,1.234-0.211,1.733
		c-0.116,1.993,0.399,2.712,1.472,1.632c0.526-0.543,1.238-1.527,1.994-3.049c0.67-1.545,1.502-3.604,2.039-6.295
		c0.601-2.676,0.917-5.967,0.837-9.819c-0.137-3.849-0.799-8.256-2.28-13.024c-1.625-5.088-3.48-9.336-5.655-13.272
		c-2.198-3.919-4.643-7.576-7.819-11.233c-3.188-3.639-7.125-7.258-12.452-10.65c-0.67-0.416-1.353-0.841-2.051-1.275
		c-0.722-0.39-1.46-0.789-2.214-1.196c-0.378-0.203-0.759-0.408-1.145-0.615c-0.397-0.183-0.799-0.367-1.204-0.553
		c-0.813-0.37-1.645-0.747-2.494-1.133c-3.455-1.404-7.321-2.664-11.668-3.584c-6.953-1.4-14.156-1.867-21.175-1.17
		c-7.036,0.611-13.801,2.399-20.016,4.782C275.005,14.183,265.006,21.649,257.987,28.441z"/>
	<path style="fill:#231815;" d="M410,172.174c-4.103-4.124-8.986-7.527-13.499-10.929c-4.515-3.378-8.654-6.867-11.226-10.565
		c-2.518-3.751-0.852-4.337,1.75-3.644c2.568,0.748,6.267,2.518,8.16,4.282c1.936,1.743,4.695,4.142,7.807,6.592
		c3.109,2.452,6.527,4.995,9.544,7.232c1.5,1.124,5.253,3.847,10.059,7.572c2.39,1.886,5.054,4,7.744,6.4
		c2.702,2.391,5.477,5.064,7.974,7.943c2.524,2.862,4.88,5.878,6.854,8.944c1.039,1.495,1.888,3.068,2.762,4.535
		c0.786,1.525,1.577,2.967,2.197,4.396c2.554,5.689,3.605,10.409,3.855,12.133c0.073,0.431,0.206,1.039,0.308,1.82
		c0.069,0.787,0.152,1.74,0.248,2.835c0.135,2.196,0.081,4.989-0.329,8.148c-0.107,0.788-0.306,1.589-0.465,2.416
		c-0.177,0.824-0.317,1.678-0.589,2.521c-0.457,1.709-1.105,3.433-1.841,5.165c-1.491,3.46-3.551,6.844-5.9,9.993
		c-4.723,6.293-10.663,11.569-15.697,15.773c-5.056,4.212-9.139,7.614-11.129,9.745c-4.01,4.202-7.444,6.065-9.73,6.467
		c-2.269,0.39-3.334-0.864-1.66-3.092c0.844-1.09,2.468-2.871,4.551-4.846c2.079-1.98,4.604-4.154,7.099-6.218
		c5.021-4.101,9.722-7.958,10.89-9.027c0.592-0.527,2.758-2.146,5.523-4.62c2.757-2.472,6.147-5.81,8.947-9.792
		c2.809-3.954,5.028-8.559,5.888-12.762c0.551-2.076,0.668-4.04,0.804-5.684c-0.036-1.652,0.015-3.007-0.204-3.924
		c-0.515-3.68-1.964-10.747-5.288-17.295c-3.137-6.621-7.775-12.587-10.641-15.744c-2.851-3.223-8.207-6.88-13.343-9.787
		C416.313,176.207,411.525,173.724,410,172.174z"/>
	<path style="fill:#231815;" d="M391.017,216.642c-5.984-3.791-8.051-6.518-7.925-8.186c0.107-1.625,2.492-1.973,4.898,0.007
		c4.749,3.926,10.284,6.849,13.953,10.23c1.826,1.675,3.601,3.41,5.263,5.248c1.62,1.808,3.33,3.812,4.561,6.212
		c0.614,1.189,1.257,2.794,1.515,4.503c0.28,1.699,0.119,3.455-0.374,4.634c-0.482,1.192-1.15,1.79-1.47,1.801
		c-0.169,0.006-0.282-0.137-0.328-0.431c-0.031-0.292-0.026-0.742-0.027-1.382c-0.048-1.29-0.466-2.339-0.975-3.238
		c-0.517-0.901-1.133-1.662-1.807-2.421c-0.677-0.758-1.431-1.509-2.297-2.376c-0.44-0.436-0.908-0.899-1.414-1.401
		c-0.542-0.522-1.096-1.109-1.713-1.738c-2.433-2.549-5.335-5.471-7.704-7.689C392.807,218.194,391.017,216.642,391.017,216.642z"/>
	<path style="fill:#231815;" d="M399.206,245.952c4.609-4.983,8.12-5.518,9.433-4.738c1.367,0.821,0.908,2.943-1.331,4.275
		c-2.263,1.352-4.171,3.195-5.792,5.088c-1.639,1.883-3.011,3.799-4.356,5.379c-2.71,3.159-5.141,6.507-7.793,9.795
		c-1.361,1.621-3.49,4.069-5.028,5.579c-1.529,1.505-2.584,1.979-1.71-0.65c0.889-2.619,1.411-4.539,2.127-6.544
		c0.724-1.997,1.653-4.084,3.609-6.84c1.961-2.754,4.61-5.689,6.845-7.821c1.133-1.052,2.109-1.957,2.844-2.555
		C398.777,246.312,399.206,245.952,399.206,245.952z"/>
	<path style="fill:#231815;" d="M384.697,278.884c-2.072-1.99-3.307-4.504-2.946-4.846c0.063-0.581-0.115-0.722-0.256-1.081
		c-0.15-0.327-0.323-0.688-0.431-1.052c-0.23-0.729-0.123-1.468,0.845-1.962c0.473-0.248,1.145-0.436,1.956-0.535l0.309-0.034
		l0.158-0.013l0.085,0.099c0.104,0.151,0.208,0.316,0.312,0.493c0.208,0.353,0.413,0.754,0.605,1.189l0.571,1.249l0.375,0.683
		c0.266,0.446,0.517,0.901,0.855,1.294c0.325,0.401,0.647,0.8,0.995,1.167c0.37,0.348,0.737,0.692,1.099,1.031
		c1.522,1.282,3.092,2.273,4.422,3.209c2.659,1.911,5.593,3.289,8.633,4.7c1.512,0.737,3.916,1.79,5.588,2.561
		c1.649,0.744,2.485,1.496,0.097,1.824c-2.376,0.258-4.131,0.491-6.015,0.45c-1.886-0.014-3.936-0.307-6.675-1.561
		c-2.741-1.257-5.594-3.355-7.518-5.295c-0.502-0.463-0.922-0.944-1.299-1.372c-0.372-0.432-0.722-0.79-0.965-1.134
		C384.994,279.279,384.697,278.884,384.697,278.884z"/>
	<path style="fill:#231815;" d="M369.103,287.252c0.724-2.643,1.877-4.748,3.064-6.329c1.189-1.592,2.391-2.713,3.457-3.503
		c2.15-1.572,3.713-1.892,4.558-1.664c0.852,0.234,1.028,1.042,0.648,2.048c-0.379,1.018-1.294,2.237-2.651,3.523
		c-2.743,2.593-4.449,6.002-4.923,9.379c-0.51,3.408,0.026,6.651,0.701,9.37c0.72,2.727,1.968,5.291,3.71,7.428
		c1.728,2.155,3.967,3.951,6.503,5.348c1.267,0.699,2.94,1.49,4.727,2.055c1.781,0.58,3.663,0.914,5.177,1.098
		c1.513,0.183,2.647,0.219,2.918,0.505c0.133,0.134,0.042,0.308-0.343,0.531c-0.384,0.225-1.061,0.515-2.12,0.739
		c-2.113,0.454-3.978,0.594-5.72,0.597c-1.747,0.01-3.367-0.191-5.027-0.548c-1.661-0.357-3.348-0.952-5.146-1.926
		c-1.788-0.98-3.704-2.367-5.539-4.5c-1.854-2.125-3.321-4.825-4.247-7.598c-0.952-2.774-1.303-5.633-1.287-8.125
		c0.01-2.499,0.414-4.63,0.784-6.11c0.22-0.735,0.389-1.319,0.522-1.715C369.022,287.464,369.103,287.252,369.103,287.252z"/>
	<path style="fill:#231815;" d="M190.832,316.339c2.934-4.742,5.7-5.746,7.138-5.229c1.459,0.526,1.718,2.529,0.062,4.039
		c-3.34,3.048-5.066,7.366-7.091,10.264c-2.043,2.912-3.981,5.878-6.336,8.622c-2.381,2.682-7.939,7.945-6.312,3.661
		c1.681-4.28,1.574-6.509,4.563-11.185c1.508-2.328,3.479-4.9,5.1-6.857C189.581,317.698,190.832,316.339,190.832,316.339z"/>
	<path style="fill:#231815;" d="M204.973,349.789c-6.013-1.36-10.196-3.095-12.939-4.591c-2.737-1.531-4.037-2.865-4.344-3.755
		c-0.302-0.902,0.403-1.415,1.727-1.441c1.331-0.036,3.253,0.474,5.535,1.44c4.542,2.014,9.353,3.347,13.972,4.265
		c2.299,0.511,4.576,0.818,6.734,1.204c2.169,0.323,4.245,0.633,6.199,0.924c7.807,1.228,15.673,1.851,23.6,2.347
		c3.963,0.329,9.961,0.675,13.791,1.012c3.82,0.322,5.469,0.896,0.45,1.785c-2.507,0.462-4.655,0.764-6.644,1.133
		c-1.995,0.278-3.837,0.633-5.755,0.835c-3.832,0.464-7.966,0.744-14.129,0.328c-6.166-0.426-13.29-1.616-18.79-2.913
		c-2.743-0.685-5.108-1.274-6.763-1.792C205.957,350.08,204.973,349.789,204.973,349.789z"/>
	<path style="fill:#231815;" d="M268.09,348.112c-1.318,2.858-3.325,3.089-4.62,2.411c-1.311-0.682-2.024-2.2-1.055-2.947
		c1.968-1.529,2.347-4.213,3.353-5.798c1.024-1.604,1.978-3.229,3.41-4.633c1.44-1.346,5.305-3.941,4.804-1.431
		c-0.54,2.521,0.062,4.013-1.475,6.701c-0.777,1.337-1.868,2.783-2.781,3.869C268.812,347.372,268.09,348.112,268.09,348.112z"/>
	<path style="fill:#231815;" d="M278.509,336.32c-4.692-4.967,1.218-8.151,2.238-5.473c1.021,2.679,3.57,4.361,4.795,6.238
		c1.224,1.877,2.448,3.755,3.163,5.964c0.715,2.209,1.124,7.292-0.915,5.279c-2.039-2.014-3.671-2.289-5.507-5.104
		C280.447,340.408,278.509,336.32,278.509,336.32z"/>
	<path style="fill:#231815;" d="M318.795,361.625c-2.228,0.114-4.314,0.002-6.254-0.069c-0.969-0.047-1.902-0.092-2.8-0.135
		c-0.897-0.071-1.759-0.193-2.585-0.291c-1.652-0.214-3.162-0.418-4.534-0.661c-1.368-0.315-2.598-0.626-3.697-0.931
		c-1.096-0.325-2.073-0.559-2.904-0.94c-0.834-0.359-1.544-0.7-2.138-1.02c-1.188-0.641-1.915-1.197-2.254-1.658
		c-0.677-0.92,0.18-1.463,1.997-1.534c0.91-0.035,2.063,0.05,3.407,0.273c1.358,0.181,2.952,0.369,4.686,0.764
		c7.003,1.38,14.26,1.602,21.097,1.271c6.847-0.377,13.303-1.095,19.034-1.794c11.474-1.323,22.853-3.431,34.144-5.95
		c5.661-1.216,14.097-3.313,19.412-4.796c5.26-1.564,7.683-1.835,1.061,1.522c-1.643,0.869-3.236,1.482-4.695,2.183
		c-0.735,0.34-1.447,0.669-2.142,0.991c-0.704,0.293-1.39,0.58-2.063,0.861c-1.348,0.568-2.643,1.113-3.921,1.651
		c-1.286,0.521-2.573,0.978-3.878,1.47c-5.217,1.963-10.919,3.703-19.645,5.437c-8.734,1.71-19.062,2.924-27.221,3.253
		c-2.032,0.158-3.943,0.115-5.645,0.173c-1.706,0.018-3.209,0.096-4.466,0.035C320.281,361.664,318.795,361.625,318.795,361.625z"/>
	<path style="fill:#231815;" d="M392.23,326.655c-2.228-2.582-1.945-4.578-0.932-5.687c1.005-1.098,2.764-1.201,3.297,0.214
		c1.049,2.797,3.549,4.743,4.656,6.856c1.102,2.094,2.145,4.237,2.546,6.639c0.444,2.428-0.169,7.596-1.786,5.152
		c-1.636-2.412-3.192-2.945-4.628-5.966c-0.729-1.509-1.496-3.314-2.105-4.738C392.672,327.695,392.23,326.655,392.23,326.655z"/>
	<path style="fill:#231815;" d="M359.343,141.801c0.122,1.812,0.776,3.217,0.977,4.459c0.102,0.621,0.089,1.195-0.147,1.762
		c-0.213,0.588-0.65,1.165-1.44,1.78c-3.125,2.443-6.844,7.016-8.874,13.548c-0.974,3.258-2.549,7.59-3.618,12.571
		c-1.09,4.96-1.658,10.553-1.179,15.786c0.442,5.221,0.994,11.175,2.157,16.663c1.114,5.485,2.817,10.435,4.249,13.495
		c1.369,3.089,4.926,8.422,9.54,13.231c4.586,4.856,10.214,8.995,14.083,11.782c3.909,2.733,4.336,3.605,3.055,3.58
		c-0.631-0.024-1.674-0.298-2.854-0.725c-1.176-0.432-2.424-1.133-3.552-1.812c-2.196-1.424-8.289-5.584-13.307-11.075
		c-2.571-2.676-4.836-5.65-6.696-8.225c-0.908-1.303-1.676-2.533-2.374-3.559c-0.644-1.06-1.177-1.937-1.562-2.569
		c-0.196-0.316-0.423-0.68-0.678-1.088c-0.23-0.422-0.485-0.888-0.76-1.393c-0.546-1.013-1.212-2.17-1.794-3.498
		c-0.306-0.659-0.625-1.346-0.953-2.052c-0.322-0.711-0.59-1.468-0.897-2.228c-0.634-1.515-1.153-3.139-1.664-4.777
		c-2.099-6.555-2.708-13.607-2.627-16.936c0.081-3.334,0.31-7.443,1.174-11.678c0.828-4.233,2.067-8.624,3.774-12.493
		c1.638-3.886,4.813-10.567,8.554-15.672c1.825-2.575,3.675-4.804,5.075-6.376C358.444,142.763,359.343,141.801,359.343,141.801z"/>
	<path style="fill:#231815;" d="M367.353,168.63c1.401-8.918,3.943-15.109,6.095-19.104c2.185-4.007,4.034-5.869,5.077-6.348
		c1.054-0.475,1.409,0.457,1.081,2.247c-0.178,0.89-0.499,2.009-0.949,3.314c-0.49,1.287-1.045,2.785-1.803,4.396
		c-1.434,3.259-2.577,6.647-3.458,10.056c-0.867,3.414-1.431,6.852-1.815,10.208c-0.372,3.362-0.477,6.65-0.506,9.793
		c0.044,3.145,0.135,6.148,0.363,8.964c0.789,11.284,3.818,22.323,8.297,32.788c1.13,2.614,2.583,5.887,4.253,9.026
		c1.648,3.147,3.409,6.224,4.861,8.553c1.407,2.364,2.465,4.007,2.419,4.485c-0.009,0.446-1.109-0.294-3.601-3.044
		c-4.917-5.554-8.035-9.795-11.031-14.568c-2.934-4.798-5.78-10.219-8.224-18.957c-1.2-4.372-2.116-9.214-2.594-14.007
		c-0.489-4.793-0.541-9.519-0.328-13.654c0.224-4.138,0.719-7.679,1.118-10.182C367.052,170.099,367.353,168.63,367.353,168.63z"/>
	<path style="fill:#231815;" d="M387.283,226.465c-0.072-7.08,2.074-10.039,3.568-10.439c1.557-0.406,2.7,1.517,1.997,4.177
		c-0.709,2.688-0.826,5.478-0.712,8.105c0.092,2.63,0.402,5.099,0.492,7.288c0.171,4.39,0.654,8.732,0.923,13.174
		c0.092,2.227,0.174,5.634,0.048,7.882c-0.12,2.238-0.586,3.326-1.709,0.652c-1.105-2.677-2.016-4.545-2.839-6.61
		c-0.817-2.064-1.537-4.335-1.965-7.836c-0.423-3.505-0.476-7.631-0.303-10.851c0.107-1.611,0.202-2.998,0.326-3.98
		C387.217,227.046,387.283,226.465,387.283,226.465z"/>
	<path style="fill:#231815;" d="M207.94,150.116c0.949,3.182,3.456,4.995,0.888,7.004c-2.519,2.05-5.337,5.784-6.959,11.042
		c-0.693,2.67-2.164,6.067-3.313,10.01c-0.688,1.93-1.126,4.041-1.618,6.147c-0.549,2.094-0.719,4.296-0.957,6.404
		c-0.06,0.527-0.12,1.064-0.181,1.61c-0.036,0.549-0.083,1.104-0.139,1.664c-0.111,1.12-0.26,2.258-0.437,3.404
		c-0.32,2.294-0.53,4.638-0.899,6.887c-0.22,2.271-0.431,4.444-0.619,6.387c-0.073,1.951-0.144,3.684-0.158,5.049
		c-0.027,0.684,0.043,1.509,0.182,2.443c0.125,0.935,0.285,1.983,0.468,3.11c0.096,0.563,0.179,1.15,0.3,1.745
		c0.145,0.591,0.295,1.198,0.447,1.817c0.306,1.236,0.624,2.52,0.946,3.822c1.546,5.138,3.45,10.407,4.725,14.038
		c1.209,3.661,0.871,4.51-0.009,3.921c-0.878-0.583-2.307-2.616-3.189-4.524c-0.437-0.954-1.105-2.82-2.024-5.1
		c-0.491-1.131-0.864-2.426-1.292-3.768c-0.407-1.348-0.913-2.736-1.283-4.164c-0.679-2.869-1.492-5.737-1.861-8.239
		c-0.236-1.245-0.45-2.379-0.633-3.346c-0.175-0.97-0.252-1.782-0.36-2.362c-0.166-1.164-0.558-3.057-0.78-5.346
		c-0.094-1.149-0.197-2.392-0.303-3.684c-0.048-0.648-0.097-1.31-0.146-1.977c-0.006-0.668-0.013-1.344-0.019-2.019
		c-0.005-1.357-0.01-2.718-0.015-4.037c0.038-1.318,0.162-2.59,0.243-3.78c0.095-1.188,0.176-2.293,0.284-3.258
		c0.154-0.958,0.299-1.784,0.429-2.429c0.859-5.193,3.084-12.606,6.106-18.591c0.775-1.486,1.687-3.592,2.961-5.755
		c0.601-1.097,1.226-2.24,1.852-3.383c0.7-1.1,1.399-2.2,2.07-3.256c1.281-2.151,2.697-3.961,3.687-5.304
		C207.321,150.955,207.94,150.116,207.94,150.116z"/>
	<path style="fill:#231815;" d="M225.41,160.596c1.962-4.25,2.312-7.624,1.352-8.43c-0.927-0.788-3.24,1.021-6.27,7.387
		c-0.746,1.629-1.441,3.247-2.1,4.869c-0.633,1.633-1.191,3.283-1.752,4.944c-0.273,0.833-0.546,1.668-0.822,2.51
		c-0.242,0.852-0.485,1.709-0.731,2.574c-0.476,1.736-0.979,3.495-1.437,5.323c-1.823,7.321-3.555,15.526-5.719,25.896
		c-2.156,10.379-3.779,20.945-4.741,30.514c-0.978,9.568-1.306,18.128-1.368,24.465c0.055,6.202,1.729,8.997,2.988,7.176
		c1.31-1.834,1.9-8.114,1.206-20.367c-0.195-3.287-0.117-6.151-0.04-8.941c0.194-2.782,0.404-5.495,0.777-8.469
		c0.766-5.948,1.831-12.976,3.861-23.824c1.648-8.663,3.997-17.353,6.681-25.201C219.983,173.173,222.913,166.145,225.41,160.596z"
		/>
	<path style="fill:#231815;" d="M213.895,153.719c-2.182,0.968-3.514,0.051-4.263-1.252c-0.727-1.278-0.535-2.96,0.73-2.98
		c1.232-0.01,2.35-0.377,3.457-0.739c1.099-0.372,2.184-0.739,3.164-0.744c1.945-0.018,3.944,0.165,5.709,1.151
		c0.891,0.472,2.061,1.59,2.605,2.577c0.554,0.994,0.546,1.795-0.527,1.749c-2.176-0.049-3.175,0.974-5.433,0.701
		c-1.143-0.115-2.483-0.278-3.562-0.358C214.687,153.764,213.895,153.719,213.895,153.719z"/>
	<path style="fill:#231815;" d="M236.761,163.007c-14.98-11.786-9.335-15.709-3.839-9.969c5.498,5.741,12.213,10.123,16.936,14.353
		c4.723,4.23,9.446,8.461,13.763,13.144c4.317,4.683,12.137,14.954,5.829,10.121c-6.308-4.834-9.484-6.046-16.566-12.389
		C245.799,171.921,236.761,163.007,236.761,163.007z"/>
	<path style="fill:#231815;" d="M298.491,182.592c-17.823,9.102-27.082,10.717-29.457,10.182c-1.217-0.304-0.797-1.26,0.885-2.47
		c1.679-1.222,4.645-2.634,8.478-4.09c7.706-2.836,15.134-6.377,21.994-10.075c3.458-1.796,6.725-3.734,9.901-5.503
		c3.14-1.833,6.147-3.588,8.977-5.24c11.345-6.566,22.319-13.726,33.21-21.068c5.486-3.664,13.716-9.159,18.866-12.6
		c5.193-3.434,7.601-4.49,1.494,1.125c-3.039,2.824-5.698,5.142-8.101,7.373c-2.466,2.151-4.68,4.214-7.076,6.218
		c-4.759,4.048-9.986,8.213-18.321,13.733c-8.345,5.515-18.478,11.32-26.622,15.512c-4.093,2.057-7.62,3.843-10.179,5.007
		C299.998,181.885,298.491,182.592,298.491,182.592z"/>
	<path style="fill:#231815;" d="M372.518,138.53c-1.58,0.299-2.661,0.32-3.561,0.053c-0.882-0.246-1.554-0.748-1.973-1.387
		c-0.416-0.629-0.546-1.362-0.307-1.979c0.234-0.606,0.839-1.147,1.74-1.148c1.77-0.059,3.452-0.32,5.124-0.431
		c1.661-0.136,3.305-0.138,4.672,0.267c2.715,0.773,5.364,2.114,7.163,4.347c0.943,1.073,1.82,3.111,1.917,4.511
		c0.11,1.421-0.315,2.12-1.401,1.174c-1.106-0.942-2.135-1.288-3.135-1.645c-1.013-0.348-2.004-0.699-3.357-1.419
		c-1.361-0.716-3.038-1.419-4.431-1.808c-0.696-0.167-1.306-0.345-1.747-0.403C372.781,138.579,372.518,138.53,372.518,138.53z"/>
	<path style="fill:#231815;" d="M231.19,183.079c-1.516-25.73,3.55-23.699,3.346-12.961c-0.204,10.74,0.959,21.448,1.161,30.032
		l0.013,0.573h0l-0.001,0.002l0.003,0.006l1.952-0.807l5.057-2.057c3.379-1.353,6.777-2.662,10.206-3.895
		c8.091-2.911,24.621-7.888,14.909-3.305c-9.713,4.582-13.321,7.091-25.187,12.085c-3.66,1.519-7.595,3.154-11.285,4.686
		c-0.04-2.448-0.079-4.882-0.118-7.267c-0.01-1.315-0.019-2.603-0.028-3.845c-0.01-2.484-0.019-4.784-0.027-6.746
		C231.19,185.654,231.19,183.079,231.19,183.079z"/>
	<path style="fill:#231815;" d="M285.187,198.698c-6.83-2.339-9.693-4.159-10.099-5.467c-0.418-1.258,1.704-1.82,4.57-0.575
		c5.689,2.466,11.708,4.191,16.138,6.525c4.413,2.309,8.711,4.887,12.538,8.092c1.935,1.575,4.565,4.268,6.001,6.151
		c1.438,1.89,1.769,2.89-0.735,1.166c-2.513-1.715-4.428-2.691-6.438-3.759c-2.016-1.063-4.132-2.212-7.204-4.084
		c-3.076-1.869-6.727-3.953-9.659-5.487C287.366,199.735,285.187,198.698,285.187,198.698z"/>
	<path style="fill:#231815;" d="M319.132,202.046c-3.13,8.152-5.879,11.275-7.226,11.612c-1.371,0.329-1.434-2.104,0.305-5.247
		c3.49-6.307,5.494-13.28,7.623-18.598c2.141-5.326,4.154-10.693,6.454-15.977c2.35-5.243,7.453-15.769,5.755-8.731
		c-1.755,7.032-1.818,10.092-4.821,18.28c-1.521,4.088-3.507,8.774-5.156,12.415C320.414,199.439,319.132,202.046,319.132,202.046z"
		/>
	<path style="fill:#231815;" d="M180.058,375.082c2.078-9.983,5.892-16.64,8.926-20.741c3.098-4.122,5.573-5.761,6.74-6.109
		c1.198-0.332,1.297,0.723,0.488,2.55c-0.795,1.847-2.438,4.515-4.519,7.856c-4.22,6.681-6.663,14.419-7.709,21.842
		c-1.075,7.451-0.757,14.587-0.075,20.861c0.656,6.286,2.035,12.506,3.906,18.592c1.846,6.125,4.234,11.986,6.862,17.975
		c1.29,3.019,2.885,6.916,3.912,11.001c0.53,2.031,0.842,4.133,0.955,6.104c0.144,1.975-0.107,3.843-0.405,5.398
		c-0.229,0.772-0.389,1.485-0.646,2.093c-0.266,0.606-0.489,1.138-0.726,1.568c-0.532,0.841-0.919,1.337-1.13,1.431
		c-0.211,0.094-0.247-0.216-0.076-0.986c0.081-0.387,0.251-0.877,0.346-1.536c0.065-0.322,0.137-0.679,0.217-1.072
		c0.043-0.399,0.089-0.836,0.14-1.31c0.292-3.819-0.638-7.078-1.742-9.948c-1.124-2.884-2.476-5.444-3.93-8.097
		c-2.92-5.258-6.421-11.196-9.5-20.794c-1.56-4.802-2.807-10.16-3.588-15.491c-0.754-5.336-0.999-10.642-0.809-15.296
		c0.199-4.664,0.789-8.656,1.343-11.458c0.282-1.401,0.548-2.508,0.712-3.27C179.95,375.491,180.058,375.082,180.058,375.082z"/>
	<path style="fill:#231815;" d="M188.224,477.08c4.034-0.717,4.575-5.575-1.572-4.706c-6.259,0.957-10.914,4.458-19.722,7.365
		c-8.832,2.914-17.818,5.889-23.02,7.896c-2.539,0.988-3.032,2.931-1.775,3.815c1.267,0.891,4.192,0.702,8.719-2.375
		c2.434-1.644,4.429-2.443,6.919-3.292c2.496-0.843,5.485-1.744,10.023-3.445C175.054,479.601,182.969,478.044,188.224,477.08z"/>
	<path style="fill:#231815;" d="M197.946,485.379c3.862-0.603,4.563-5.474-1.517-4.721c-6.189,0.921-10.71,4.465-19.018,8.012
		c-4.172,1.809-8.326,3.749-11.999,5.659c-3.675,1.903-6.865,3.77-9.175,5.239c-2.243,1.478-2.274,3.457-0.865,4.059
		c1.432,0.611,4.096-0.159,7.824-3.868c2.021-1.982,3.811-3.049,6.078-4.189c2.276-1.134,5.024-2.354,9.23-4.387
		c3.368-1.615,6.968-2.888,10.353-3.823C192.247,486.433,195.414,485.823,197.946,485.379z"/>
	<path style="fill:#231815;" d="M211.64,490.125c3.475-0.906,3.449-5.746-1.937-4.564c-5.479,1.286-9.203,4.998-16.643,8.418
		c-7.469,3.431-15.038,7.028-19.367,9.416c-2.112,1.176-2.194,3.088-0.896,3.83c1.31,0.747,3.883,0.32,7.389-3.006
		c1.891-1.78,3.543-2.706,5.628-3.712c2.092-1,4.613-2.087,8.4-4.044C200.274,493.315,207.107,491.34,211.64,490.125z"/>
	<path style="fill:#231815;" d="M255.497,390.824c4.451-3.098,8.517-6.639,12.693-9.658c4.195-2.929,8.353-5.513,12.307-6.406
		c3.922-0.954,3.962,0.795,2.668,2.935c-0.648,1.075-1.637,2.23-2.696,3.251c-1.027,1.097-2.14,2.03-3.154,2.546
		c-1.036,0.474-2.162,1.26-3.468,2.011c-1.317,0.737-2.663,1.693-4.059,2.678c-1.431,0.936-2.786,2.069-4.14,3.157
		c-1.389,1.046-2.597,2.26-3.782,3.327c-0.293,0.27-0.693,0.639-1.188,1.094c-0.462,0.488-1.012,1.067-1.638,1.726
		c-0.613,0.67-1.357,1.369-2.064,2.222c-0.708,0.852-1.474,1.773-2.286,2.75c-3.145,3.983-6.549,9.245-9.06,14.897
		c-2.556,5.633-4.164,11.597-4.916,16.453c-0.708,4.848-0.732,8.641-0.729,10.035c-0.032,1.382-0.052,5.146,0.066,10.329
		c0.072,5.175,0.297,11.828-0.645,18.757c-0.456,3.419-1.28,7.03-2.586,10.287c-1.281,3.264-2.939,6.237-4.741,8.801
		c-1.815,2.56-3.821,4.663-5.647,6.352c-0.958,0.8-1.792,1.584-2.644,2.162c-0.823,0.611-1.533,1.164-2.182,1.556
		c-2.479,1.77-5.133,2.345-7.17,2.444c-1.046-0.033-1.953-0.16-2.705-0.352c-0.756-0.237-1.363-0.577-1.817-0.906
		c-1.797-1.345-1.292-2.981,0.837-3.354c1.086-0.208,2.961-0.586,5.09-1.374c2.133-0.792,4.447-2.166,6.487-3.823
		c4.151-3.297,6.842-7.83,7.457-8.984c0.162-0.294,0.591-0.902,1.088-1.833c0.546-0.908,1.158-2.135,1.817-3.594
		c1.295-2.901,2.34-6.954,2.932-11.28c0.576-4.318,0.743-8.854,0.751-12.7c0.007-3.849-0.071-7.013-0.266-8.683
		c-0.185-1.671-0.326-4.129-0.233-7.001c0.051-1.434,0.118-2.975,0.346-4.556c0.225-1.58,0.332-3.234,0.737-4.845
		c1.262-6.517,3.739-12.825,5.45-16.255c0.196-0.438,0.39-0.91,0.582-1.412c0.224-0.486,0.452-0.999,0.679-1.538
		c0.461-1.072,0.894-2.26,1.385-3.478c0.525-1.209,1.069-2.461,1.616-3.72c0.522-1.289,1.209-2.489,1.8-3.73
		c0.308-0.616,0.614-1.224,0.913-1.821c0.338-0.573,0.67-1.136,0.993-1.683c0.658-1.092,1.279-2.136,1.89-3.051
		C253.565,392.792,254.692,391.432,255.497,390.824z"/>
	<path style="fill:#231815;" d="M286.419,380.46c2.296-2.575,3.795-3.978,5.17-4.828c0.702-0.375,1.412-0.606,2.311-0.704
		c0.9-0.109,1.973,0.08,3.411,0.354c0.709,0.182,1.554,0.408,2.509,0.625c0.957,0.209,1.97,0.578,3.076,0.884
		c1.084,0.36,2.213,0.794,3.362,1.247c1.109,0.53,2.299,0.985,3.375,1.62c4.439,2.329,8.161,5.549,9.591,7.461
		c0.36,0.477,0.993,1.165,1.703,2.128c0.359,0.476,0.779,0.982,1.198,1.559c0.404,0.587,0.838,1.217,1.297,1.882
		c1.794,2.737,3.514,6.132,4.865,9.659c2.742,7.055,3.772,14.308,4.138,16.278c0.696,3.936,4.493,8.679,2.904,12.134
		c-0.79,1.717-0.791,5.068-0.369,8.284c0.419,3.225,1.323,6.309,2.176,7.586c1.654,2.543,0.623,7.28,1.874,9.464
		c1.198,2.166,2.559,4.141,2.997,5.369c0.208,0.622,0.223,1.923,0.498,3.198c0.155,0.625,0.37,1.241,0.697,1.738
		c0.345,0.485,0.812,0.841,1.422,0.971c1.201,0.272,1.742,1.443,1.993,2.639c0.297,1.15,0.312,2.329,0.312,2.329
		s-0.784,0.275-1.793,0.363c-0.993,0.081-2.283-0.004-3.091-0.759c-0.829-0.739-1.461-1.825-1.821-2.741
		c-0.395-0.899-0.537-1.616-0.537-1.616s-0.268-0.951-0.638-1.99c-0.329-1.059-0.815-2.187-1.273-2.588
		c-0.966-0.751-3.13-3.16-2.321-5.257c0.38-1.03-0.221-2.793-0.916-4.572c-0.704-1.773-1.488-3.562-1.638-4.452
		c-0.326-1.784-0.406-7.573-0.497-8.641c-0.142-1.064-2.883-9.46-3.229-12.268c-0.155-1.418-0.863-4.465-1.65-7.27
		c-0.769-2.816-1.684-5.352-1.836-6.023c-0.173-0.664-0.468-4.226-1.338-7.904c-0.806-3.696-2.309-7.461-3.125-8.808
		c-0.821-1.321-3.087-4.099-5.789-6.289c-2.67-2.23-5.594-3.927-6.745-4.594c-0.553-0.38-1.232-0.629-1.954-0.804
		c-0.716-0.189-1.46-0.335-2.214-0.384c-1.479-0.194-2.893-0.146-3.905-0.523c-1.044-0.263-1.799,0.143-2.771,0.365
		c-0.49,0.119-1.031,0.167-1.717,0.005c-0.344-0.052-0.724-0.131-1.16-0.287c-0.436-0.148-0.931-0.397-1.503-0.6
		c-0.573-0.228-1.114-0.497-1.621-0.753c-0.501-0.212-0.971-0.443-1.411-0.681c-0.884-0.512-1.617-0.91-2.216-1.313
		C287.015,381.15,286.419,380.46,286.419,380.46z"/>
	<path style="fill:#231815;" d="M360.41,494.039c-5.548-3.028-8.813-6.614-10.489-9.361c-1.701-2.771-1.919-4.699-1.631-5.58
		c0.296-0.894,1.184-0.866,2.228-0.171c1.02,0.722,2.341,2.014,3.738,3.862c2.902,3.661,6.908,6.425,10.987,8.318
		c4.079,1.944,8.227,3.08,11.879,4.077c7.361,1.942,15.105,2.573,22.946,3.229c7.826,0.698,23.945,2.192,13.993,3.304
		c-4.974,0.525-8.47,1.091-12.257,1.486c-3.784,0.375-7.874,0.665-14.019,0.053c-3.07-0.32-6.395-0.866-9.612-1.648
		c-3.235-0.779-6.335-1.822-8.984-2.937c-2.646-1.122-4.864-2.246-6.383-3.155c-0.773-0.425-1.361-0.818-1.769-1.076
		C360.631,494.18,360.41,494.039,360.41,494.039z"/>
	<path style="fill:#231815;" d="M395.581,488.366c-2.084,0.247-3.258,1.613-3.129,2.794c0.13,1.205,1.465,2.214,4.292,2.037
		c2.89-0.169,5.508-0.745,8.576-1.319c3.057-0.506,6.591-0.922,10.972-0.277c4.373,0.648,8.665,1.932,12.335,3.47
		c3.68,1.53,6.734,3.296,8.93,4.659c2.085,1.384,3.95,0.684,4.018-0.82c0.026-0.754-0.423-1.722-1.552-2.74
		c-1.148-0.968-2.998-1.973-5.701-2.576c-1.443-0.321-2.669-0.627-3.825-1.023c-1.179-0.331-2.28-0.783-3.523-1.204
		c-2.473-0.858-5.459-1.895-10.276-2.474c-3.841-0.44-7.756-0.779-11.405-0.864C401.648,487.956,398.277,488.092,395.581,488.366z"
		/>
	<path style="fill:#231815;" d="M394.591,480.58c-1.142,0.101-2.069,0.586-2.658,1.146c-0.592,0.559-0.85,1.207-0.761,1.798
		c0.088,0.592,0.519,1.129,1.281,1.473c0.766,0.345,1.829,0.465,3.378,0.394c3.116-0.197,6.026-0.827,9.41-1.396
		c3.374-0.589,7.23-1.1,12.081-0.775c9.695,0.63,19.395,3.137,24.353,5.564c0.308,0.137,0.605,0.241,0.89,0.316
		c0.266,0.097,0.522,0.164,0.766,0.202c0.489,0.078,0.934,0.048,1.313-0.065c0.756-0.228,1.252-0.786,1.198-1.552
		c-0.053-0.741-0.674-1.804-2.11-2.73c-0.716-0.423-1.624-0.895-2.732-1.223c-1.11-0.283-2.411-0.618-3.913-0.677
		c-1.605-0.105-2.962-0.282-4.277-0.458c-0.656-0.099-1.299-0.217-1.952-0.351c-0.654-0.12-1.32-0.242-2.018-0.37
		c-2.785-0.557-6.113-1.183-11.334-1.388c-4.167-0.162-8.401-0.32-12.345-0.342C401.219,480.111,397.569,480.197,394.591,480.58z"/>
	<path style="fill:#231815;" d="M395.146,356.481c-0.984-2.623-2.372-4.615-3.647-5.826c-1.264-1.227-2.437-1.67-3.095-1.431
		c-0.682,0.251-0.912,1.199-0.581,2.848c0.321,1.662,1.141,4.053,2.292,7.525c1.16,3.543,2.007,6.758,2.789,9.878
		c0.771,3.118,1.487,6.147,2.096,9.349c1.264,6.381,2.387,13.45,1.928,23.408c-0.477,9.953-2.279,19.459-4.597,27.983
		c-2.39,8.521-5.353,16.054-8.161,22.366c-1.341,3.095-2.053,5.485-2.055,7.035c-0.013,1.542,0.617,2.204,1.733,1.647
		c0.558-0.279,1.237-0.864,2.019-1.796c0.783-0.931,1.678-2.207,2.557-3.907c0.45-0.845,0.916-1.788,1.395-2.831
		c0.462-1.05,0.899-2.216,1.361-3.478c0.471-1.259,0.916-2.635,1.314-4.133c0.403-1.497,0.858-3.083,1.18-4.817
		c1.49-7.342,2.341-11.529,3.351-16.506c0.243-1.243,0.496-2.535,0.77-3.939c0.228-1.411,0.473-2.934,0.746-4.63
		c0.242-1.7,0.438-3.584,0.679-5.701c0.154-2.125,0.376-4.486,0.444-7.154c0.285-8.518,0.172-16.523-0.395-24.13
		C398.744,370.659,397.719,363.294,395.146,356.481z"/>
	<path style="fill:#231815;" d="M389.341,469.525c-4.51-0.37-6.388,4.173,0.313,4.957c6.816,0.795,12.73-1.384,22.849-0.966
		c5.055,0.226,10.125,0.754,14.601,1.553c4.481,0.785,8.338,1.881,11.056,2.895c1.348,0.448,2.392,0.543,3.159,0.221
		c0.751-0.299,1.164-0.915,1.007-1.679c-0.158-0.75-0.892-1.708-2.42-2.523c-1.525-0.785-3.839-1.453-6.946-1.481
		c-3.316-0.06-5.669-0.321-8.584-0.763c-2.907-0.382-6.37-0.889-11.748-0.959C404.044,470.678,395.216,470.004,389.341,469.525z"/>
	<path style="fill:#231815;" d="M357.009,478.395c-2.952,0.39-5.139,0-6.561-0.588c-1.428-0.615-2.113-1.456-2.283-2.201
		c-0.308-1.526,1.265-2.76,3.394-2.248c2.172,0.522,4.431,0.4,6.505,0.03c2.085-0.34,3.99-0.923,5.697-1.265
		c3.431-0.692,6.739-1.733,10.169-2.713c1.738-0.436,4.414-1.138,6.275-1.488c1.841-0.357,2.929-0.189,1.124,1.441
		c-1.819,1.601-3.085,2.83-4.568,3.998c-1.481,1.166-3.204,2.257-6.039,3.22c-2.841,0.954-6.296,1.548-9.015,1.739
		c-1.363,0.075-2.535,0.127-3.371,0.097C357.501,478.407,357.009,478.395,357.009,478.395z"/>
	<path style="fill:#231815;" d="M205.225,472.659c-2.563-1.247-4.076-2.775-4.829-4.047c-0.751-1.293-0.76-2.355-0.438-3.035
		c0.33-0.69,1.016-1.053,1.746-1.063c0.74-0.013,1.485,0.355,2.165,1.114c1.329,1.564,3.124,2.655,4.924,3.392
		c1.796,0.762,3.568,1.237,5.079,1.777c3.03,1.118,6.156,1.805,9.372,2.598c1.602,0.453,4.104,1.119,5.808,1.68
		c1.687,0.552,2.546,1.208,0.319,1.799c-1.11,0.313-2.073,0.506-2.973,0.774c-0.902,0.191-1.749,0.44-2.634,0.577
		c-1.767,0.298-3.716,0.437-6.52-0.127c-2.803-0.572-5.93-1.795-8.216-3.048c-1.135-0.645-2.109-1.2-2.758-1.671
		C205.613,472.927,205.225,472.659,205.225,472.659z"/>
	<path style="fill:#231815;" d="M379.532,122.012c5.348,6.919,10.859,6.787,12.25,4.656c0.692-1.066,3.353-1.104,6.664-0.856
		c3.325,0.234,7.237,0.786,10.758,0.715c3.559-0.097,6.175,1.053,8.038,2.172c1.865,1.152,3.022,2.224,4.071,2.339
		c1.067,0.091,2.81,0.783,4.435,1.683c1.606,0.921,3.109,2.01,3.848,2.681c0.795,0.614,2.215,1.761,3.41,2.828
		c0.556,0.562,1.109,1.063,1.464,1.464c0.359,0.402,0.584,0.654,0.584,0.654s0.92,1.009,1.825,2.447
		c0.461,0.713,0.857,1.552,1.187,2.379c0.29,0.836,0.509,1.663,0.575,2.344c0.097,0.673,0.254,1.878,0.318,3.503
		c0.067,1.624,0.022,3.663,0.121,5.898c0.332,4.447,0.65,9.712,0.412,14.383c-0.474,10.497,0.121,12.659,0.799,16.183
		c0.442,2.24,1.339,3.178,1.904,2.757c0.59-0.407,0.882-2.064,0.898-6.294c0.058-8.431,0.989-13.511,1.019-17.848
		c0.025-2.178,0.031-3.882,0.016-5.597c-0.02-1.85-0.06-3.101,0.074-5.152c0.127-2.043,0.253-3.32,0.284-5.116
		c0.003-0.913,0.011-1.965-0.166-3.41c-0.172-1.425-0.529-3.265-1.403-5.405c-0.53-1.298-1.028-2.184-1.452-2.837
		c-0.425-0.664-0.756-1.158-1.129-1.543c-0.361-0.395-0.708-0.729-1.12-1.107c-0.432-0.347-0.928-0.746-1.592-1.279
		c-1.342-1.011-2.181-1.857-3.214-2.811c-1.038-0.928-2.27-1.981-4.412-2.998c-2.13-1.018-3.474-1.71-4.62-2.422
		c-1.154-0.681-2.118-1.344-3.535-1.925c-1.416-0.576-2.287-0.977-3.722-1.501c-1.422-0.533-3.445-1.225-7.149-1.965
		c-7.452-1.39-13.402-0.729-17.033-0.796c-3.656-0.024-6.526,0.778-8.712,0.13C383.027,119.716,379.532,122.012,379.532,122.012z"/>
	<path style="fill:#231815;" d="M436.859,282.719c-0.715-35.298,5.931-32.26,5.115-17.572c-0.408,7.346-0.361,14.699-0.232,21.684
		c0.072,3.493,0.141,6.894,0.208,10.158c0.051,3.258,0.118,6.382-0.02,9.423c-0.139,3.028-0.418,6.13-1.082,9.239
		c-0.343,1.553-0.732,3.104-1.362,4.628c-0.308,0.756-0.542,1.546-0.92,2.267l-1.127,2.167c-3.257,5.631-8.228,10.115-13.955,12.791
		c-2.849,1.361-6.654,2.551-10.493,2.875c-3.845,0.341-7.622-0.242-10.309-1.141c-0.664-0.243-1.278-0.469-1.831-0.672
		c-0.534-0.247-0.988-0.519-1.373-0.737c-0.766-0.449-1.228-0.789-1.317-0.989c-0.09-0.2,0.192-0.261,0.912-0.154
		c0.728,0.083,1.853,0.473,3.602,0.686c0.431,0.069,0.855,0.138,1.271,0.206c0.422,0.017,0.837,0.034,1.245,0.051
		c0.814,0.021,1.593,0.102,2.355,0.003c0.76-0.065,1.493-0.104,2.203-0.188c0.704-0.135,1.39-0.268,2.062-0.397
		c2.654-0.639,5.023-1.491,7.273-2.733c1.16-0.545,2.224-1.307,3.368-2.013c0.558-0.377,1.086-0.824,1.654-1.24
		c0.278-0.216,0.573-0.416,0.849-0.65c0.267-0.243,0.539-0.49,0.815-0.74c2.209-1.97,4.509-4.44,6.423-7.881
		c0.944-1.737,1.717-3.594,2.321-5.621c0.563-2.046,0.947-4.216,1.188-6.429c0.481-4.414,0.5-9.013,0.659-13.063
		C436.647,288.597,436.859,282.719,436.859,282.719z"/>
	<path style="fill:#231815;" d="M178.434,187.991c3.648-4.672,7.201-7.432,9.878-8.89c0.645-0.399,1.287-0.657,1.87-0.852
		c0.577-0.202,1.09-0.348,1.541-0.443c0.902-0.192,1.554-0.184,1.986-0.031c0.862,0.306,0.855,1.187,0.186,2.233
		c-0.661,1.075-2.061,2.164-3.883,3.523c-3.772,2.557-6.882,6.069-9.469,9.666c-2.631,3.567-4.834,7.202-7.031,10.316
		c-4.402,6.192-8.748,12.739-14.676,18.099c-0.746,0.66-1.585,1.396-2.497,2.135c-0.966,0.693-1.985,1.402-3,2.087l-0.761,0.506
		l-0.807,0.436c-0.534,0.28-1.06,0.555-1.569,0.821c-0.509,0.254-1.002,0.5-1.471,0.734c-0.47,0.227-0.967,0.362-1.404,0.519
		c-3.551,1.183-4.996,1.147-1.158-1.438c0.474-0.335,0.958-0.608,1.365-0.967c0.408-0.356,0.801-0.701,1.183-1.035
		c0.748-0.685,1.482-1.273,2.101-1.949c0.609-0.681,1.194-1.336,1.772-1.982l0.852-0.961c0.263-0.344,0.526-0.687,0.792-1.034
		c0.536-0.681,1.08-1.373,1.65-2.095c0.565-0.725,1.114-1.53,1.739-2.342c1.262-1.61,2.602-3.529,4.303-5.762
		c3.36-4.512,7.225-9.992,10.515-14.201c1.684-2.088,3.112-3.898,4.243-5.122C177.782,188.725,178.434,187.991,178.434,187.991z"/>
	<path style="fill:#231815;" d="M190.356,250.066c8.531-7.36,7.993-14.168-4.74-3.559c-6.482,5.4-10.932,10.116-15.74,15.272
		c-2.423,2.575-4.826,5.293-7.885,7.883c-1.535,1.282-3.247,2.516-5.229,3.549c-1.985,1.017-4.257,1.796-6.807,2.023
		c-5.127,0.495-10.176-1.091-14.683-3.204c-4.542-2.125-8.703-4.787-12.786-7.245c-8.129-4.948-15.541-9.538-21.961-13.375
		c-12.537-7.497-15.507-0.337,11.335,11.925c7.199,3.279,11.1,5.429,15.797,8.084c2.362,1.309,4.945,2.729,8.419,4.161
		c1.748,0.692,3.726,1.386,6.058,1.895c2.325,0.499,5.035,0.811,8.082,0.485c4.919-0.489,9.259-2.703,12.854-5.192
		c3.637-2.511,6.742-5.316,9.793-7.886C178.971,259.694,184.821,254.842,190.356,250.066z"/>
	<path style="fill:#231815;" d="M68.091,247.88c3.062,1.537,5.579,1.692,7.357,1.851c1.8,0.143,3.041,0.205,3.783,0.65
		c0.738,0.433,0.883,1.193,0.205,2.122c-0.665,0.88-2.268,1.826-4.407,1.848c-4.213,0.063-8.285-1.206-11.483-3.759
		c-1.592-1.266-2.89-2.918-3.739-4.654c-0.861-1.737-1.317-3.554-1.43-5.267c-0.216-3.42,0.594-6.906,2.526-9.848
		c0.963-1.462,2.237-2.77,3.709-3.743c1.467-0.976,3.103-1.623,4.762-1.94c1.658-0.329,3.781-0.29,5.703,0.249
		c1.931,0.516,3.622,1.519,4.651,2.529c1.042,1.01,1.464,1.928,1.375,2.247c-0.048,0.168-0.233,0.21-0.569,0.108
		c-0.168-0.05-0.372-0.139-0.618-0.263c-0.262-0.102-0.566-0.241-0.916-0.417c-1.458-0.623-2.813-0.785-4.02-0.746
		c-1.211,0.043-2.295,0.291-3.319,0.677c-1.023,0.386-1.999,0.895-2.957,1.592c-0.955,0.708-1.886,1.563-2.722,2.912
		c-0.858,1.321-1.457,3.068-1.622,4.837c-0.191,1.775,0.096,3.533,0.617,4.936c0.541,1.398,1.332,2.417,1.984,3.088
		c0.332,0.329,0.605,0.587,0.818,0.738C67.982,247.79,68.091,247.88,68.091,247.88z"/>
	<path style="fill:#231815;" d="M62.553,220.386c-0.049,0.15-0.098,0.299-0.145,0.445c-0.022,0.123-0.049,0.239-0.081,0.352
		c-0.029,0.247-0.069,0.481-0.075,0.726c-0.015,0.482-0.005,0.954,0.062,1.383c0.114,0.868,0.327,1.538,0.499,2.077
		c0.179,0.54,0.36,0.957,0.575,1.393c0.218,0.41,0.466,0.793,0.623,1.163c0.329,0.735,0.192,1.522-0.991,1.867
		c-0.57,0.136-1.4,0.094-2.213-0.318c-0.833-0.387-1.606-1.123-2.104-2.048c-1.001-1.853-1.35-3.747-1.299-5.684
		c0.05-0.965,0.244-1.97,0.592-2.907c0.318-0.862,0.744-1.664,1.214-2.407c1.952-2.965,4.494-4.767,6.58-6.021
		c2.074-1.188,4.226-2.485,6.833-3.384c1.29-0.448,2.702-0.762,4.16-0.853c1.466-0.083,3.084,0.108,4.461,0.645
		c1.312,0.473,2.819,1.406,3.925,2.729c1.129,1.311,1.702,3.012,1.677,4.305l-0.016,0.806l-0.362,0.066
		c-2.643,0.482-4.116,0.308-1.472-1.457c0.196-0.131,0.388-0.261,0.513-0.356l-0.642,1.483c-0.458-0.998-1.165-1.622-1.919-2.024
		c-0.747-0.411-1.548-0.607-2.361-0.703c-0.811-0.096-1.659-0.083-2.522,0.064c-0.922,0.147-2.004,0.424-3.346,0.924
		c-1.406,0.519-2.987,1.313-4.62,2.183c-1.668,0.883-3.202,1.692-4.372,2.483c-1.183,0.784-1.995,1.543-2.479,2.118
		C62.766,220.011,62.553,220.386,62.553,220.386z"/>
	<path style="fill:#231815;" d="M63.792,204.05c-0.33,2.786-0.299,4.73-0.498,6.21c-0.177,1.47-0.507,2.487-1.075,3.067
		c-0.562,0.577-1.319,0.658-2.057,0.134c-0.755-0.505-1.386-1.669-1.47-3.226c-0.049-1.551-0.033-3.066,0.069-4.564
		c0.13-1.493,0.349-2.961,0.679-4.389c0.7-2.829,1.928-5.505,3.713-7.399c3.497-3.882,8.877-5.894,13.813-5.219
		c1.233,0.162,2.747,0.561,4.094,1.247c1.352,0.669,2.544,1.532,3.287,2.378c0.766,0.808,1.103,1.558,1.026,1.863
		c-0.097,0.339-0.609,0.273-1.756-0.187c-2.339-0.872-4.149-0.721-5.883-0.48c-1.741,0.284-3.513,0.68-5.927,1.635
		c-1.204,0.49-2.422,1.184-3.475,2.057c-1.059,0.867-1.967,1.926-2.656,2.954c-0.71,1.022-1.134,2.038-1.459,2.746
		C63.951,203.609,63.792,204.05,63.792,204.05z"/>
	<path style="fill:#231815;" d="M106.965,190.765c1.505,1.52,2.618,3.396,3.241,5.133c0.633,1.714,0.947,3.366,1.088,4.867
		c0.269,3.014-0.089,5.426-0.503,7.316c-0.889,3.776-2.032,5.628-2.861,6.259c-0.849,0.619-1.477-0.047-1.73-1.588
		c-0.265-1.543-0.126-3.928,0.224-6.76c0.344-2.834,0.204-5.653-0.654-8.132l-0.35-0.911l-0.399-0.808l-0.482-0.77
		c-0.174-0.248-0.373-0.482-0.554-0.724c-0.782-0.932-1.727-1.721-2.733-2.308c-2.019-1.202-4.259-1.47-5.757-0.841
		c-0.751,0.287-1.435,0.799-1.984,1.446c-0.546,0.637-0.978,1.416-1.327,2.289c-1.414,3.594-1.143,8.458-1.276,13.371
		c-0.048,2.43-0.118,4.9-0.21,7.297c-0.113,2.245,0.109,4.351,0.808,5.228c0.377,0.483,0.752,0.776,1.603,0.813
		c0.838,0.025,1.965-0.445,2.839-1.201c0.439-0.378,0.837-0.823,1.125-1.312c0.31-0.534,0.56-1.126,0.753-1.729
		c0.39-1.209,0.538-2.481,0.623-3.604c0.146-2.26,0.135-3.932,0.42-4.25c0.238-0.306,0.803,0.62,1.365,3.757
		c0.468,3.15,0.455,6.233-1.277,8.907c-0.834,1.249-1.912,2.27-3.254,2.985c-1.321,0.712-3.028,1.118-4.84,0.693
		c-1.803-0.45-3.347-1.718-4.229-3.26c-0.901-1.529-1.27-3.133-1.469-4.682c-0.098-0.779-0.15-1.557-0.176-2.333
		c-0.018-0.73-0.036-1.487-0.055-2.273c-0.028-1.558-0.039-3.235-0.032-5.064c0.012-1.851,0.016-3.689,0.061-5.717
		c0.058-2.025,0.208-4.147,0.653-6.313c0.453-2.151,1.212-4.405,2.653-6.374c1.415-1.97,3.509-3.452,5.749-4.089
		c2.247-0.606,4.373-0.364,6.048,0.131c1.697,0.496,3.014,1.248,4.017,1.956c1.016,0.697,1.724,1.367,2.188,1.842
		C106.745,190.478,106.965,190.765,106.965,190.765z"/>
	<path style="fill:#231815;" d="M121.328,218.627c-5.542-2.375-7.411-4.751-7.343-6.349c0.062-1.576,2.12-2.271,4.276-0.818
		c4.281,2.886,9.332,4.395,12.855,6.581c3.51,2.171,6.966,4.461,9.965,7.351c3.063,2.871,7.925,9.817,3.555,7.181
		c-4.384-2.581-6.71-2.772-11.669-6.123c-2.487-1.681-5.388-3.642-7.668-5.183C123,219.739,121.328,218.627,121.328,218.627z"/>
	<path style="fill:#231815;" d="M118.317,228.236c0.062-3.794,0.15-6.508,0.512-8.456c0.324-1.939,0.874-3.099,1.565-3.597
		c0.677-0.497,1.439-0.313,2.039,0.457c0.585,0.766,1.081,2.12,0.959,3.849c-0.151,3.443-0.17,6.853-0.399,10.121
		c-0.06,1.64-0.283,3.22-0.447,4.753c-0.28,1.506-0.482,2.977-0.916,4.296c-1.553,5.307-3.804,10.494-7.27,14.834
		c-1.656,2.225-4.787,5.023-7.015,6.366c-2.254,1.343-3.41,1.483-1.474-1.093c0.499-0.633,0.899-1.267,1.263-1.871
		c0.364-0.604,0.713-1.161,1.008-1.724c0.554-1.153,1.108-2.168,1.563-3.284c0.978-2.188,1.963-4.494,3.521-7.892
		c1.548-3.409,3.007-7.549,3.865-10.902c0.392-1.681,0.754-3.136,0.915-4.188C118.201,228.857,118.317,228.236,118.317,228.236z"/>
	<path style="fill:#231815;" d="M83.359,171.573c1.048,11.9-0.492,17.382-1.917,18.588c-1.461,1.213-2.928-1.746-2.659-6.638
		c0.532-9.823-1.194-19.573-1.846-27.355c-0.302-3.908-0.748-7.752-1.005-11.805c-0.235-4.025-0.23-8.25,0.768-12.435
		c0.245-1.045,0.606-2.189,1.118-3.434c0.541-1.212,1.236-2.416,2.086-3.499c0.844-1.083,1.861-2.044,2.993-2.728
		c1.119-0.687,2.402-1.068,3.5-0.949c1.101,0.119,1.865,0.644,2.248,1.118c0.396,0.469,0.504,0.871,0.475,1.033
		c-0.039,0.175-0.265,0.182-0.65,0.018c-0.385-0.167-0.97-0.429-1.768-0.37c-0.812,0.098-1.574,0.617-2.186,1.24
		c-0.622,0.621-1.093,1.38-1.471,2.131c-0.758,1.526-1.141,3.064-1.313,4.684c-0.372,3.369-0.266,6.99,0.188,12.723
		c0.224,2.862,0.549,6.075,0.767,9.244c0.224,3.162,0.384,6.265,0.484,8.996C83.37,167.599,83.359,171.573,83.359,171.573z"/>
	<path style="fill:#231815;" d="M90.424,142.471c-1.142-10.036-0.279-14.738,1.089-15.933c1.338-1.189,3.1,1.213,3.123,5.489
		c0.048,8.524,1.601,16.974,1.698,23.811c0.105,6.821,0.044,13.658-0.816,20.448c-0.79,6.825-4.233,20.143-4.249,11.666
		c-0.087-8.463-1.15-11.87-0.987-21.94c0.05-5.042,0.11-10.924,0.156-15.547C90.429,145.838,90.424,142.471,90.424,142.471z"/>
	<path style="fill:#231815;" d="M82.398,313.54c-2.963-77.875,3.87-71.526,3.99-39.06c0.12,32.473,2.064,64.906,2.646,90.871
		c0.583,25.968,1.165,51.935,1.139,77.915c-0.026,25.981-1.295,77.954-2.63,45.518c-1.336-32.438-2.843-45.411-3.716-84.346
		C82.953,365.487,82.398,313.54,82.398,313.54z"/>
	<path style="fill:#231815;" d="M92.621,291.706c-0.131-3.95-0.256-7.706-0.374-11.273c-0.113-3.565-0.216-6.971-0.196-10.226
		c0.006-6.502,0.604-12.393,1.79-17.434c0.6-2.489,1.111-4.567,1.33-6.532c0.242-1.943,0.15-3.658-0.314-4.904
		c-0.447-1.251-1.259-2.064-2.349-2.587l-0.392-0.209l-0.436-0.137c-0.234-0.079-0.305-0.13-0.503-0.198
		c-0.181-0.043-0.358-0.086-0.53-0.127l-0.274-0.065c-0.086-0.012-0.213-0.083-0.218,0.023c-0.079,0.169-0.169,0.341-0.273,0.511
		l-0.163,0.258c-0.072,0.11-0.143,0.218-0.212,0.324c-0.384,0.622-0.796,1.15-1.216,1.589c-0.829,0.888-1.67,1.419-2.345,1.725
		c-1.382,0.59-2.057,0.383-2.054,0.073c-0.022-0.353,0.575-0.872,1.311-1.852c0.365-0.493,0.772-1.099,1.131-1.866
		c0.092-0.19,0.179-0.39,0.262-0.6c0.046-0.102,0.082-0.212,0.122-0.321c0.052-0.148,0.105-0.298,0.159-0.452
		c0.329-0.878,0.539-2.013,0.818-3.122c0.785-0.07,1.784,0.039,2.756,0.062c0.932-0.014,2.219,0.295,2.825,0.406
		c1.529,0.462,3.269,1.344,4.529,2.944c1.266,1.582,1.858,3.569,2.036,5.422c0.179,1.872,0.023,3.709-0.269,5.523
		c-0.194,1.2-0.442,2.366-0.706,3.497c-0.265,1.157-0.506,2.148-0.71,3.243c-0.417,2.143-0.716,4.315-0.914,6.503
		c-0.391,4.379-0.396,8.816-0.298,13.263c0.245,8.936,0.529,17.794,0.839,26.402c0.615,17.227,1.285,33.544,1.61,48.055
		c0.651,29.022,1.302,58.044,1.345,87.079c0.043,29.036-1.089,87.116-2.51,50.862c-1.422-36.255-2.963-50.757-3.939-94.273
		C93.313,349.762,92.621,291.706,92.621,291.706z"/>
	<path style="fill:#231815;" d="M89.369,501.185c-1.178-0.465-1.69-1.458-1.62-2.205c0.066-0.774,0.632-1.326,1.263-1.652
		c0.639-0.334,1.371-0.51,1.892-0.635c0.533-0.117,0.803-0.182,0.766,0.001c-0.099,0.411,0.312,0.603,0.719,0.559
		c0.409-0.019,0.789-0.201,1.046-0.149c0.549,0.114,1.012,0.134,1.688,0.529c0.352,0.227,1.099,0.67,1.964,0.906
		c0.821,0.25,1.698,0.435,1.288,1.292c-0.42,0.824-0.78,1.558-1.335,2.198c-0.552,0.637-1.341,1.168-2.581,1.237
		c-1.238,0.06-2.616-0.356-3.569-0.913c-0.477-0.294-0.866-0.556-1.121-0.799C89.518,501.322,89.369,501.185,89.369,501.185z"/>
	<path style="fill:#231815;" d="M192.025,258.094c0.983-5.87,2.755-9.922,4.29-12.504c1.595-2.572,3.011-3.699,3.885-3.915
		c0.899-0.206,1.37,0.525,1.349,1.779c-0.002,1.267-0.605,2.997-1.535,5.101c-1.05,2.06-1.724,4.279-2.382,6.459
		c-0.524,2.222-1.009,4.421-1.225,6.607c-0.34,2.164-0.338,4.311-0.49,6.337c0.033,2.044-0.104,3.985-0.025,5.817
		c0.031,7.333,1.096,14.613,2.877,21.779c0.215,0.903,0.457,1.92,0.712,2.99c0.303,1.056,0.608,2.176,0.9,3.304
		c0.279,1.133,0.692,2.205,0.991,3.265c0.307,1.057,0.6,2.052,0.908,2.898c1.134,3.431,1.268,5.159-1.465,1.11
		c-0.708-0.997-1.287-1.965-1.833-2.882c-0.548-0.915-1.106-1.759-1.591-2.599c-0.466-0.852-0.915-1.671-1.357-2.479
		c-0.454-0.808-0.892-1.614-1.258-2.468c-0.777-1.689-1.588-3.45-2.229-5.562c-0.738-2.085-1.285-4.519-1.805-7.457
		c-0.992-5.898-1.02-12.91-0.392-18.326c0.385-2.703,0.7-5.031,1.109-6.657C191.815,259.06,192.025,258.094,192.025,258.094z"/>
	<path style="fill:#231815;" d="M246.557,325.573c-13.903-1.919-23.864-4.402-30.648-6.449c-6.774-2.113-10.373-3.866-11.592-4.905
		c-1.213-1.063-0.027-1.519,2.834-1.312c2.87,0.185,7.38,1.155,12.982,2.54c5.575,1.513,11.246,2.619,16.842,3.708
		c5.625,0.939,11.182,1.84,16.635,2.436c5.434,0.731,10.766,1.084,15.857,1.584c5.111,0.296,9.988,0.761,14.595,0.958
		c18.412,1.115,36.872,1.011,55.319,0.068c2.309-0.11,4.906-0.233,7.639-0.362c2.734-0.167,5.604-0.342,8.455-0.517
		c2.857-0.15,5.683-0.44,8.353-0.614c1.336-0.092,2.629-0.181,3.86-0.266c1.229-0.105,2.396-0.204,3.482-0.296
		c8.693-0.717,12.305-0.564,0.871,1.703c-2.854,0.596-5.508,1.063-8.013,1.498c-2.504,0.452-4.855,0.876-7.118,1.284
		c-2.272,0.361-4.453,0.708-6.608,1.051c-2.156,0.35-4.286,0.696-6.463,0.95c-4.35,0.557-8.85,1.15-14.031,1.507
		c-5.174,0.465-11.024,0.683-18.043,0.808c-14.05,0.192-30.432-0.784-43.216-2.239c-6.384-0.803-11.896-1.477-15.787-2.152
		C248.866,325.94,246.557,325.573,246.557,325.573z"/>
	<path style="fill:#231815;" d="M393.065,299.858c0.46-2.566,1.632-4.225,2.69-5.065c1.097-0.839,2.107-0.904,2.787-0.636
		c0.696,0.277,1.145,0.907,1.306,1.561c0.166,0.669-0.013,1.301-0.527,1.936c-1.117,1.229-1.623,2.907-1.731,4.485
		c-0.113,0.779-0.027,1.569-0.046,2.289c0.084,0.736,0.055,1.42,0.109,2.069c0.061,2.607,0.59,5.129,1.256,7.721
		c0.255,1.337,0.841,3.389,1.277,4.909c0.436,1.482,0.462,2.563-1.23,1.349c-0.435-0.29-0.801-0.597-1.154-0.89
		c-0.352-0.292-0.716-0.551-1.035-0.828c-0.598-0.577-1.262-1.077-1.781-1.708c-1.113-1.217-2.119-2.744-2.773-5.286
		c-0.642-2.548-0.643-5.632-0.234-7.968c0.247-1.166,0.456-2.161,0.716-2.847C392.928,300.264,393.065,299.858,393.065,299.858z"/>
	<path style="fill:#231815;" d="M294.98,213.559c-11.922-0.817-16.351,2.588-16.351,5.822c0,0.631-0.024,1.286-0.063,1.932
		c-0.179,2.997,1.808,5.671,4.67,6.26l4.197,0.863v7.116c0,0-8.176,0.647-10.062,1.941c-0.354,0.242-0.619,1.96-0.816,4.63
		c-3.299,0.146-6.821,0.361-9.948,0.568c0.01-0.832,0.02-1.598,0.028-2.275c0.024-1.967-1.518-3.569-3.43-3.569h-5.33v-6.469
		c0,0,8.805-0.647,10.063-3.881c1.258-3.234,1.258-5.175,1.258-5.175s-3.773-7.115-13.206-7.762
		c-11.923-0.817-16.352,2.588-16.352,5.822c0,0.631-0.024,1.286-0.063,1.932c-0.179,2.997,1.808,5.671,4.67,6.26l4.197,0.863v7.116
		c0,0-8.176,0.647-10.062,1.941c-1.887,1.294-1.258,44.632-1.258,50.453s10.062,12.937,18.867,9.702
		c8.804-3.234,10.062-5.821,10.062-8.409c0-0.525,0.026-3.007,0.068-6.613l9.962,0.359c0.018,2.327,0.032,4.078,0.032,4.96
		c0,5.821,10.062,12.937,18.866,9.702c8.805-3.234,10.063-5.821,10.063-8.409c0-2.164,0.44-37.371,0.584-48.824
		c0.025-1.967-1.518-3.569-3.43-3.569h-5.329v-6.469c0,0,8.804-0.647,10.063-3.881c1.258-3.234,1.258-5.175,1.258-5.175
		S304.414,214.206,294.98,213.559z"/>
	<path style="fill:#231815;" d="M336.903,22.224c-2.742-8.214-4.683-11.702-4.432-12.952c0.076-0.592,0.548-0.514,1.232,0.15
		c0.665,0.669,1.635,1.882,2.341,3.652c0.802,1.723,1.42,3.514,2.106,5.254c0.576,1.778,1.197,3.519,1.62,5.272
		c0.524,1.729,0.786,3.469,1.13,5.123c0.194,1.672,0.48,3.275,0.48,4.801c0.243,6.073-0.461,12.246-2.568,17.958
		c-0.271,0.709-0.551,1.515-0.915,2.335c-0.392,0.805-0.805,1.651-1.214,2.491c-0.405,0.837-0.937,1.61-1.377,2.354
		c-0.447,0.743-0.89,1.42-1.341,1.968c-1.731,2.237-2.581,2.949-0.889-0.284c0.446-0.798,0.774-1.577,1.069-2.317
		c0.297-0.738,0.597-1.421,0.833-2.098c0.406-1.381,0.876-2.609,1.166-3.942c0.317-1.323,0.681-2.671,0.952-4.25
		c0.352-1.558,0.594-3.342,0.905-5.474c0.576-4.279,0.574-9.348,0.114-13.291c-0.292-1.96-0.506-3.665-0.807-4.848
		C337.052,22.932,336.903,22.224,336.903,22.224z"/>
	<path style="fill:#231815;" d="M292.865,31.461c-4.06,6.847-5.572,10.184-6.657,10.703c-0.495,0.272-0.737-0.124-0.672-1.001
		c0.08-0.868,0.387-2.255,1.233-3.783c0.767-1.563,1.657-3.053,2.466-4.565c0.904-1.456,1.733-2.936,2.685-4.287
		c0.882-1.402,1.896-2.655,2.821-3.899c1.016-1.164,1.936-2.34,2.964-3.289c3.97-3.917,8.518-7.333,13.63-9.59
		c2.51-1.228,6.557-2.365,9.118-2.718c2.578-0.333,3.606-0.228,0.423,0.829c-0.803,0.245-1.519,0.547-2.19,0.84
		c-0.671,0.294-1.306,0.547-1.897,0.842c-1.161,0.635-2.26,1.134-3.317,1.81c-1.073,0.643-2.183,1.287-3.401,2.113
		c-1.25,0.768-2.592,1.737-4.206,2.881c-3.219,2.317-6.646,5.46-9.068,8.189c-1.183,1.387-2.211,2.584-2.858,3.5
		c-0.339,0.447-0.609,0.803-0.794,1.047C292.956,31.322,292.865,31.461,292.865,31.461z"/>
	<path style="fill:#231815;" d="M350.752,156.76c8.718-19.49,12.611-28.474,14.179-30.26c0.749-0.905,0.806-0.047,0.245,2.073
		c-0.572,2.115-1.708,5.516-3.531,9.601c-3.575,8.198-7.178,16.38-10.792,24.072c-1.763,3.867-3.616,7.566-5.345,11.142
		c-1.818,3.528-3.501,6.943-5.251,10.065c-6.861,12.565-14.247,24.859-22.467,36.58c-8.022,11.9-26.414,33.77-15.899,19.364
		c5.2-7.234,8.586-12.477,12.174-18.108c3.581-5.636,7.35-11.673,12.899-20.782c5.543-9.119,11.647-19.976,16.183-28.647
		c2.237-4.351,4.184-8.102,5.487-10.808C349.964,158.356,350.752,156.76,350.752,156.76z"/>
	<path style="fill:#231815;" d="M218.764,173.41c0.152-2.136,0.294-4.128,0.427-5.982c0.167-1.851,0.48-3.547,0.703-5.118
		c0.125-0.783,0.244-1.534,0.358-2.254c0.148-0.713,0.315-1.39,0.465-2.037c0.307-1.293,0.597-2.46,0.871-3.505
		c0.25-1.051,0.579-1.959,0.872-2.758c0.291-0.798,0.558-1.485,0.8-2.065c0.485-1.162,0.872-1.9,1.161-2.273
		c0.578-0.746,0.768-0.036,0.569,1.682c-0.169,1.728-0.89,4.42-1.591,7.84c-0.871,3.387-1.294,6.865-1.763,10.282
		c-0.128,1.721-0.256,3.431-0.382,5.125l-0.089,1.266l-0.011,1.264c-0.006,0.84-0.012,1.675-0.018,2.505
		c-0.021,1.659-0.034,3.295,0.09,4.902c0.086,1.605,0.171,3.184,0.254,4.73c0.165,1.538,0.327,3.044,0.484,4.513
		c0.077,0.734,0.153,1.458,0.228,2.172c0.11,0.71,0.218,1.41,0.324,2.098c1.594,11.036,4.639,21.861,9.13,32.095
		c0.574,1.273,1.162,2.736,1.864,4.236c0.736,1.485,1.509,3.045,2.276,4.594c0.743,1.568,1.67,3.018,2.434,4.45
		c0.393,0.71,0.773,1.398,1.135,2.053c0.369,0.651,0.769,1.236,1.111,1.802c2.792,4.489,3.762,6.471-0.537,0.813
		c-0.529-0.713-1.076-1.374-1.54-2.058c-0.461-0.686-0.907-1.348-1.339-1.99c-0.857-1.291-1.712-2.475-2.458-3.663
		c-0.721-1.204-1.413-2.359-2.097-3.501c-0.343-0.572-0.683-1.141-1.024-1.709c-0.331-0.575-0.618-1.172-0.931-1.764
		c-0.612-1.192-1.233-2.404-1.883-3.671c-0.666-1.262-1.184-2.656-1.825-4.107c-1.301-2.897-2.447-6.291-3.72-10.386
		c-0.542-2.076-1.19-4.219-1.683-6.433c-0.438-2.225-0.969-4.469-1.328-6.718c-0.309-2.258-0.689-4.484-0.913-6.65
		c-0.179-2.169-0.351-4.262-0.512-6.22c-0.103-3.93-0.217-7.32-0.055-9.728C218.71,174.837,218.764,173.41,218.764,173.41z"/>
	<path style="fill:#231815;" d="M306.571,103.501c-5.759-0.741-6.618-9.424-1.527-19.371c3.749-7.325,9.163-3.665,9.672,3.142
		C315.224,94.077,310.643,104.024,306.571,103.501z"/>
	<path style="fill:#231815;" d="M242.433,113.449c-1.795-0.231-3.01-0.968-3.752-1.911c-2.226-2.829-0.192-7.513,3.243-5.942
		C246.505,107.689,246.505,113.972,242.433,113.449z"/>
	<path style="fill:#231815;" d="M258.213,118.684c-4.885-1.159-1.018-6.807,4.072-5.759c3.243,0.667,3.387,3.458,1.353,4.991
		C262.48,118.79,260.614,119.254,258.213,118.684z"/>
	<path style="fill:#231815;" d="M244.469,87.794c-5.369-0.691-2.546-16.23,2.545-17.801c5.09-1.571,6.617,2.094,5.6,7.33
		C251.596,82.559,248.542,88.318,244.469,87.794z"/>
	<path style="fill:#231815;" d="M329.596,5.308c3.689-5.42,7.905-7.589,11.067-2.168c3.161,5.42,1.581,7.589-1.054,7.589
		C336.974,10.728,329.596,5.308,329.596,5.308z"/>
</g>
</svg>
