<?xml version="1.0" encoding="iso-8859-1"?>
<!-- Generator: Adobe Illustrator 22.1.0, SVG Export Plug-In . SVG Version: 6.00 Build 0)  -->
<svg version="1.1" id="_x36_" xmlns="http://www.w3.org/2000/svg" xmlns:xlink="http://www.w3.org/1999/xlink" x="0px" y="0px"
	 viewBox="0 0 512 512" style="enable-background:new 0 0 512 512;" xml:space="preserve">
<g>
	<path style="fill:#FFFFFF;" d="M0.954,208.848c0.061,0.204,0.118,0.406,0.176,0.61c0.149,0.525,0.302,1.068,0.519,1.535l0.17,0.406
		c0.096,0.241,0.18,0.443,0.264,0.609l0.489,0.909c1.325,2.345,2.856,3.921,3.976,5.073l3.875,3.045l0.5,1.729
		c0.301,0.881,0.92,2.217,2.189,3.685c1.196,1.412,2.893,2.797,5.025,4.105c1.23,0.742,2.428,1.375,3.561,1.883l0.07,0.032
		c0.546,0.263,1.124,0.498,1.674,0.723l0.457,0.185c0.775,0.273,1.617,0.484,2.272,0.648c3.017,0.726,6.497,1.398,10.948,2.116
		c2.275,0.362,4.268,0.639,5.922,0.824c0.986,0.108,1.693,0.169,2.294,0.199c0.215,0.011,0.422,0.018,0.621,0.018
		c0.107,0,0.211-0.003,0.275-0.004l0.087-0.005c0.137-0.009,0.235-0.016,0.366-0.046l0.034-0.01c0.046-0.012,0.071-0.02,0.094-0.031
		l0.469-0.214l3.455-0.287l0.981,1.124c0.119,0.137,0.236,0.275,0.341,0.402c0.213,0.253,0.422,0.501,0.632,0.719l1.029,1.036
		c0.3,0.306,0.61,0.623,0.942,0.891c0.219,0.183,0.428,0.368,0.634,0.548l0.059,0.05c0.387,0.342,0.753,0.665,1.146,0.943
		l0.636,0.47c0.352,0.262,0.688,0.512,1.018,0.745c0.233,0.145,0.796,0.503,0.796,0.503c0.749,0.475,1.395,0.885,2.024,1.193
		l1.273,0.67c0.243,0.113,0.48,0.214,0.723,0.318l0.467,0.201c0.613,0.268,1.247,0.546,1.857,0.728
		c0.22,0.068,0.436,0.143,0.677,0.225c0.408,0.141,0.831,0.288,1.274,0.386c0.234,0.052,0.471,0.109,0.719,0.169
		c0.447,0.11,0.952,0.233,1.498,0.326l2.135,0.295l0.829,0.037l1.451,0.059l0.076,0.001c0.286,0,0.578-0.018,0.926-0.04
		c0.157-0.01,0.315-0.02,0.474-0.026l0.091-0.003c0.765-0.01,1.567-0.142,2.426-0.283l0.071-0.012
		c0.286-0.047,0.577-0.094,0.861-0.136l0.649-0.169c0.999-0.257,2.032-0.523,3.078-0.974l0.05-0.022l1.011-0.393l3.317-1.728
		l1.4,2.494c0.114,0.202,0.218,0.383,0.34,0.55l0.055,0.079c0.688,1.009,1.582,1.987,2.731,2.986
		c2.069,1.793,4.692,3.403,7.787,4.781c3.317,1.46,6.649,2.415,9.889,2.841c1.121,0.143,2.21,0.215,3.238,0.215
		c0.781,0,1.549-0.042,2.285-0.124c2.107-0.234,3.921-0.807,5.39-1.703l0.102-0.06c0.284-0.158,0.55-0.364,0.82-0.572l0.277-0.212
		c0.11-0.081,0.212-0.183,0.331-0.3l0.521-0.502l1.743-1.474l3.404,1.351c1.05,0.352,2.135,0.713,3.264,0.862
		c0.914,0.14,1.817,0.211,2.684,0.211c1.143,0,2.229-0.122,3.231-0.365c1.841-0.443,3.403-1.045,4.648-1.791l0.093-0.054
		c1.338-0.737,2.413-1.619,3.376-2.466c1.941-1.797,3.098-3.634,3.803-4.87l0.572-1.071l1.178-2.673l2.573,0.897l1.501,0.507
		c1.331,0.357,2.522,0.608,3.938,0.671c0.154,0.003,0.31,0.006,0.466,0.006c1.717,0,3.135-0.241,4.336-0.735l0.067-0.027
		c1.489-0.571,2.952-1.457,4.331-2.619c1.559-1.331,2.967-2.781,4.21-4.062c0.531-0.547,1.04-1.069,1.532-1.557l2.6-2.576
		l1.967,3.088c0.073,0.115,0.155,0.217,0.264,0.349l0.46,0.573c0.072,0.078,0.144,0.148,0.227,0.23l0.615,0.614l0.416,0.35
		c0.39,0.344,0.532,0.458,1.173,0.783l4.78,2.292l-4.036,2.905c-0.453,0.326-0.87,0.674-1.244,1.039
		c-1.109,1.076-2.105,2.479-2.949,4.145c-1.082,2.189-1.883,4.725-2.451,7.75l-0.432,2.311l-2.348,0.095
		c-0.291,0.012-0.596,0.026-0.931,0.054l-0.549,0.065c-0.482,0.057-0.982,0.114-1.526,0.215c-1.233,0.221-2.188,0.465-2.896,0.646
		l-0.448,0.112l-1.648,0.504l-0.089,0.029c-0.701,0.245-0.993,0.347-1.861,0.784c-0.153,0.09-0.316,0.183-0.488,0.281l-0.13,0.074
		c-0.284,0.161-0.59,0.335-0.949,0.55l-1.393,0.921l-0.525,0.403c-1.381,0.999-2.773,2.315-4.135,3.911l-0.047,0.053
		c-0.593,0.662-1.025,1.315-1.403,1.889l-0.257,0.393c-0.29,0.486-0.512,0.915-0.714,1.313l-0.764,1.505l-1.685,0.106
		c-1.226,0.077-2.497,0.314-3.766,0.704c-1.818,0.564-3.574,1.41-5.214,2.511c-2.187,1.471-3.965,3.269-5.294,5.357
		c-1.736,2.696-2.46,5.896-2.041,8.984c0.275,1.903,0.854,3.6,1.737,5.078c0.926,1.594,2.277,3.08,3.91,4.301
		c2.711,2.029,6.187,3.491,10.631,4.472c1.776,0.395,3.716,0.696,5.911,0.922c1.011,0.097,2.045,0.175,3.03,0.228l1.56,0.061
		l1.461,0.041l2.728,2.305c0.523,0.418,1.015,0.875,1.521,1.345c0.393,0.366,0.789,0.734,1.216,1.094
		c1.93,1.691,3.904,3.22,5.87,4.545c4.428,2.988,8.888,5.113,13.281,6.322c2.814,0.799,5.673,1.205,8.497,1.205
		c1.945,0,3.848-0.195,5.669-0.583c2.162-0.448,4.333-1.216,6.447-2.282c0.962-0.487,1.912-1.038,2.907-1.686l0.672-0.46
		c0.071-0.047,0.148-0.101,0.275-0.191l0.202-0.142l1.538-0.735l4.523,1.532c1.279,0.399,2.607,0.789,4.169,1.224
		c2.331,0.643,4.721,1.212,7.575,1.804l2.652,0.434c1.544,0.217,3.864,0.542,6.493,0.699c1.287,0.097,2.627,0.146,3.98,0.146
		c2.752,0,7.995-0.216,12.221-1.674l1.844-0.612l1.055,0.48c0.92,0.418,2.289,1.015,4.056,1.769l0.48,0.202
		c1.901,0.805,4.267,1.805,7.281,2.924c2.676,0.981,5.12,1.757,7.419,2.359l2.228,0.54l1.648,0.344
		c1.774,0.329,2.437,0.453,4.736,0.63c1.953,0.11,3.834,0.163,5.751,0.163c1.145,0,2.332-0.02,3.51-0.06
		c1.489-0.061,3.746-0.18,6.155-0.518c2.527-0.344,4.775-0.862,6.85-1.574c2.259-0.795,4.122-1.803,5.57-3.025
		c1.186-0.97,2.145-2.104,2.856-3.369l0.159-0.302c0.083-0.156,0.163-0.307,0.234-0.456l0.323-0.764l1.372-3.402l2.476,0.595
		c0.623,0.15,1.316,0.316,2.094,0.48l0.891,0.159c0.702,0.127,1.5,0.273,2.344,0.377c1.948,0.251,3.718,0.382,5.347,0.402
		l0.928-0.008c0.766-0.005,1.37-0.009,1.834-0.065l1.63-0.146c0.36-0.054,0.753-0.147,1.298-0.275l0.43-0.101
		c1.59-0.364,7.252-1.994,13.349-7.712l0.098-0.089c0.651-0.557,1.212-1.122,1.674-1.602l1.436-1.491
		c0.724-0.835,1.37-1.601,1.996-2.367c0.211-0.267,0.399-0.509,0.572-0.739l1.535-2.015l2.357,1.284
		c0.173,0.099,0.335,0.194,0.516,0.265l0.103,0.043c0.992,0.439,2.208,0.671,3.517,0.671c0.555,0,1.126-0.042,1.688-0.124
		c2.134-0.317,3.586-0.92,4.651-1.362l0.116-0.048c1.139-0.488,1.832-0.839,2.355-1.115c0.473-0.245,0.814-0.423,1.175-0.65
		c0.36-0.22,0.767-0.47,1.35-0.906c1.547-1.125,3.075-2.39,4.547-3.763c2.149-1.999,3.999-4.031,5.657-6.213
		c0.891-1.169,1.621-2.308,2.18-3.403c0.203-0.391,0.387-0.789,0.565-1.214l0.887-2.128l0.094-0.371l1.598,0.049l1.745-0.147
		c1.304-0.109,2.813-0.379,4.468-0.796c2.584-0.669,4.041-1.113,5.009-1.408l0.111-0.034c0.299-0.091,0.552-0.168,0.763-0.226
		l0.167-0.051c0.775-0.234,1.129-0.341,2.162-0.778c1.024-0.439,2.573-1.102,4.392-1.981c1.781-0.873,3.86-1.927,5.976-3.39
		c0.62-0.434,1.187-0.899,1.685-1.381l0.389-0.377l0.031-0.047l0.136-0.159l2.311-2.817l2.253,2.511l0.502,0.349l0.331,0.595
		c0.067,0.12,0.136,0.237,0.229,0.39c0.755,1.274,1.746,2.539,2.946,3.76c2.07,2.107,5.868,5.191,12.208,7.911
		c2.211,0.95,4.528,1.75,6.876,2.375l0.215,0.056l-0.393,5.785c-0.601,0.073-1.196,0.156-1.821,0.256
		c-0.386,0.056-0.767,0.136-1.151,0.217l-0.074,0.015c-0.193,0.04-0.386,0.081-0.574,0.116c-0.54,0.105-1.16,0.23-1.694,0.39
		l-1.811,0.495l-1.681,0.577c-2.325,0.851-4.397,1.831-6.16,2.912l-0.066,0.04c-1.914,1.106-3.589,2.421-5.126,3.686l-1.122,1.102
		c-0.32,0.307-0.743,0.723-1.191,1.244c-0.135,0.156-0.279,0.315-0.428,0.478l-0.058,0.063c-0.309,0.339-0.628,0.691-0.935,1.074
		l-1.505,1.899l-1.462,2.062l-3.984,6.194l-2.393-1.259c-0.313-0.164-0.64-0.318-0.987-0.478l-0.057-0.025
		c-1.482-0.586-3.034-0.883-4.617-0.883c-0.232,0-0.47,0.007-0.711,0.019c-2.262,0.118-3.834,0.567-4.958,0.888l-0.055,0.017
		c-0.921,0.284-1.58,0.536-2.074,0.724l-0.318,0.12l-0.267,0.111c-0.972,0.411-1.374,0.582-2.576,1.306
		c-1.648,0.997-3.296,2.185-4.906,3.533c-2.246,1.876-4.272,3.943-6.024,6.139c-1.633,2.057-2.834,4.112-3.55,6.07
		c-0.053,0.149-0.101,0.295-0.151,0.446l-0.028,0.084c-0.061,0.185-0.118,0.354-0.184,0.524l-0.887,2.202l-2.374-0.059
		c-0.656,0-1.36,0.041-2.094,0.122c-2.061,0.227-4.064,0.719-6.119,1.504c-2.543,0.977-4.186,2.03-5.203,2.739
		c-1.211,0.842-1.899,1.452-2.311,1.839l-0.069,0.062c-0.499,0.439-0.797,0.769-1.108,1.125l-0.071,0.079
		c-0.361,0.385-0.72,0.908-1.117,1.503l-0.031,0.05c-0.833,1.395-2.079,3.493-2.673,6.386l-0.017,0.076
		c-0.706,3.037-0.016,6.581,1.864,9.504c0.823,1.308,1.833,2.488,3.136,3.649c0.468,0.435,0.939,0.801,1.377,1.132l0.062,0.047
		c0.327,0.261,0.661,0.484,0.957,0.68l0.48,0.32c0.093,0.065,0.189,0.131,0.308,0.191l1.541,0.427l1.416,0.441l0.551,1.258
		c0.062,0.142,0.123,0.286,0.185,0.444c0.218,0.44,0.496,0.922,0.801,1.393l0.022,0.034c0.693,1,1.627,1.995,2.778,2.958
		c2.547,2.021,5.919,3.642,9.762,4.69c3.653,1.002,7.396,1.51,11.126,1.51c0.726,0,1.457-0.02,2.156-0.058
		c2.707-0.161,4.861-0.557,6.809-1.256c1.117-0.387,2.038-0.854,2.819-1.428l2.371-1.817l1.739,2.43l0.071,0.092l0.065,0.097
		c0.264,0.404,0.598,0.76,0.927,1.109l0.122,0.13l0.268,0.234c0.332,0.293,0.647,0.569,0.989,0.801l0.071,0.05
		c1.975,1.424,4.133,2.277,5.771,2.853c3.605,1.236,7.5,1.975,11.574,2.197l1.379-0.012l0.128-0.005
		c0.922-0.039,2.068-0.086,3.396-0.284c1.69-0.24,3.093-0.589,4.302-1.07c0.511-0.2,1.007-0.447,1.475-0.733l1.615-0.987
		c0.137-0.149,0.277-0.318,0.422-0.508l2.633-3.445l1.827,3.027l0.163-0.099l1.509,2.574c1.014,1.728,2.418,3.412,4.165,5
		c3.268,2.946,7.264,5.171,11.864,6.611c2.442,0.752,4.873,1.216,7.225,1.38c0.763,0.052,1.508,0.079,2.214,0.079
		c1.108,0,2.163-0.064,3.153-0.191c2.878-0.352,4.673-0.987,6.26-1.605l0.492-0.219c0.471-0.21,0.878-0.39,1.241-0.598l0.822-0.447
		c0.15-0.09,0.295-0.185,0.444-0.281l0.844-0.548l0.916-0.508l4.293-2.411l1.617,2.201c0.737,0.985,1.468,1.796,2.26,2.499
		c1.832,1.664,4.043,3.094,6.581,4.256c3.063,1.414,6.483,2.444,10.098,3.141V137.414l-0.652,0.017l-0.873-1.543
		c-0.093-0.163-0.193-0.331-0.329-0.545c-1.266-2.061-3.026-4.022-5.239-5.834c-2.531-2.087-4.535-3.298-6.012-4.189
		c-0.648-0.395-1.209-0.707-1.691-0.975L497,124.23c-0.477-0.274-0.884-0.488-1.228-0.669l-0.115-0.06
		c-0.758-0.406-1.281-0.671-1.853-0.938c-0.577-0.28-1.223-0.56-2.222-0.96c-1.81-0.716-4.631-1.789-8.222-2.84
		c-4.369-1.274-8.222-2.12-12.116-2.659c-1.217-0.164-2.281-0.271-3.217-0.322c-0.433-0.031-0.887-0.048-1.433-0.055
		c0,0-0.369-0.009-0.43-0.009c-0.067,0-0.138,0.003-0.237,0.015l-0.638,0.077c-1.486,0.192-2.859,0.408-4.182,0.661
		c-1.281,0.251-2.389,0.512-3.292,0.778l-1.441,0.423l-1.191-0.916c-1.604-1.236-4.085-2.364-6.988-3.176
		c-2.202-0.619-4.594-1.07-7.112-1.339c-2.163-0.236-4.229-0.351-6.318-0.351c-0.955,0-1.925,0.026-2.882,0.076
		c-2.911,0.151-5.783,0.527-8.776,1.147c-2.19,0.457-4.233,0.984-6.244,1.61c-3.272,1.022-5.43,1.847-7.313,2.6
		c-0.59,0.227-1.107,0.446-1.592,0.652l-1.368,0.576l-6.486,2.235l-2.051-2.799l-1.106-1.218c-0.136-0.159-0.307-0.305-0.506-0.478
		c-0.077-0.066-0.154-0.133-0.229-0.203l-0.324-0.29c-0.178-0.161-0.359-0.325-0.555-0.476c-2.551-1.979-5.716-3.473-9.179-4.328
		c-3.381-0.869-7.182-1.31-11.299-1.31c-4.529,0-9.39,0.531-14.446,1.576c-4.22,0.881-8.255,2.101-11.968,3.616
		c-3.261,1.362-5.812,2.716-7.777,4.119l-0.018,0.013c-2.1,1.586-3.716,2.854-5.049,3.9l-0.144,0.114
		c-0.75,0.589-1.387,1.089-1.944,1.511l-1.204,0.914l-1.445-0.444c-1.301-0.398-3.044-0.618-4.91-0.618
		c-0.879,0-1.811,0.046-2.763,0.136c-2.191,0.214-3.804,0.517-4.979,0.738l-0.268,0.05c-1.258,0.263-2.04,0.431-2.636,0.578
		c-0.626,0.142-1.02,0.237-1.441,0.362l-0.119,0.035c-0.412,0.12-0.879,0.257-1.559,0.513c-2.051,0.735-3.968,1.527-5.848,2.418
		c-1.055,0.517-2.367,1.161-3.698,1.95c-1.459,0.838-2.757,1.702-3.985,2.653c-2.22,1.697-3.839,3.561-4.795,5.504
		c-0.122,0.258-0.219,0.506-0.314,0.75l-0.633,1.599l-2.095,0.422c-1.251,0.221-2.69,1.012-3.946,2.167
		c-1.468,1.352-2.851,3.267-4.116,5.695c-0.584,1.116-1.147,2.389-1.713,3.865c-0.486,1.299-0.969,2.695-1.092,4.23l-0.007,0.082
		c-0.153,1.411,0.376,3.043,1.346,4.159l0.064,0.077c0.459,0.566,0.993,1.042,1.571,1.54l0.879,0.687l0.863,0.619l3.117,3.091
		c0.972,0.894,1.982,1.872,2.79,2.945l0.018,0.024c0.697,0.865,1.306,1.779,1.906,2.68c0.477,0.718,1.037,1.547,1.631,2.305
		l4.07,5.19l-6.583-0.424c-0.913-0.059-1.639-0.064-2.117-0.067c-0.88,0.004-1.454,0.011-1.905,0.028
		c-0.851,0.024-1.169,0.034-2.235,0.213c-2.612,0.461-6.142,1.205-10.287,2.876c-1.307,0.532-2.432,1.129-3.44,1.824l-1.805,1.245
		l-1.713-1.369c-0.949-0.759-2.111-1.473-3.45-2.122c-2.517-1.22-5.694-2.109-9.178-2.567c-2.056-0.266-4.019-0.395-6-0.395
		c-1.099,0-2.061,0.04-2.885,0.08l-1.451,0.095c-0.278,0.023-0.54,0.055-0.804,0.086l-0.4,0.046
		c-0.728,0.079-1.323,0.148-1.768,0.234l-1.474,0.25c-0.283,0.061-0.548,0.126-0.807,0.188l-0.28,0.068
		c-0.105,0.028-0.212,0.054-0.381,0.094c-0.173,0.041-0.375,0.087-0.603,0.158l-2.467,0.772l-1.091-2.343
		c-0.074-0.161-0.156-0.323-0.236-0.469c-0.794-1.437-1.986-2.899-3.747-4.598c-1.616-1.55-3.456-3.051-5.462-4.454
		c-1.003-0.697-2.108-1.421-3.355-1.984c-1.24-0.546-2.582-0.964-3.94-1.231c-1.488-0.267-2.956-0.397-4.487-0.397
		c-0.893,0-1.797,0.044-2.764,0.135c-2.14,0.201-3.849,0.548-5.073,0.821c-1.017,0.237-1.989,0.493-2.973,0.782l-2.079,0.611
		l-1.206-1.799c-0.184-0.274-0.425-0.557-0.695-0.821c-1.09-1.041-2.702-2.066-5.057-3.221c-2.125-1.027-3.74-1.686-4.934-2.173
		l-2.69-1.06l-0.602-0.227c-0.905-0.34-1.402-0.528-2.785-0.871l-0.018-0.005c-2.033-0.439-4.251-0.743-6.596-0.905
		c-1.398-0.099-2.785-0.149-4.121-0.149c-1.808,0-3.608,0.09-5.351,0.27c-2.884,0.291-5.349,0.892-7.534,1.836
		c-0.627,0.272-1.151,0.507-1.599,0.71l-2.128,0.962l-1.425-1.849c-0.453-0.587-1.074-1.16-1.814-1.672
		c-1.431-1.005-3.355-1.909-5.707-2.684c-2.413-0.787-4.221-1.202-5.552-1.507l-0.133-0.03c-1.166-0.26-1.987-0.423-2.614-0.547
		l-0.499-0.097c-1.187-0.225-1.729-0.327-3.381-0.484c-1.548-0.139-3.959-0.331-6.973-0.376l-0.95-0.003
		c-2.567,0-5.646,0.086-8.998,0.717c-1.93,0.383-3.402,0.914-4.491,1.617c-0.565,0.367-1.022,0.795-1.32,1.255
		c-0.089,0.133-0.171,0.298-0.248,0.505l-1.47,3.915l-3.197-2.697c-0.605-0.511-1.645-1.226-3.171-1.739
		c-1.652-0.559-3.563-0.843-5.667-0.843l-0.158,0.001c-2.41,0.011-5.068,0.361-7.88,1.036c-3.399,0.841-6.513,1.967-9.513,3.437
		c-2.66,1.314-4.788,2.685-6.362,4.106c-0.13,0.114-0.25,0.236-0.389,0.377l-0.293,0.292l-3.103,2.859l-2.75-0.507
		c-0.215-0.036-0.437-0.09-0.662-0.152l-0.101-0.027c-0.124-0.033-0.249-0.066-0.371-0.095l-0.385-0.079
		c-0.278-0.056-0.55-0.111-0.816-0.154c-1.294-0.21-2.545-0.32-3.945-0.346c-0.309-0.006-0.605-0.01-0.89-0.01
		c-1.688,0-2.96,0.101-4.331,0.251c-1.454,0.169-2.521,0.337-3.69,0.583c-1.157,0.24-2.61,0.574-4.581,1.225
		c-2.398,0.823-5.565,2.053-8.769,4.26c-1.812,1.267-3.276,2.607-4.455,4.067c-0.718,0.914-1.294,1.811-1.761,2.741l-1.427,3.19
		l-2.63,0.007c-0.03,0-0.057,0.004-0.077,0.006l-1.537,0.195l-1.511,0.271c-1.979,0.406-3.999,1.003-6,1.773
		c-4.515,1.753-8.493,4.137-11.83,7.096c-3.897,3.426-6.387,7.511-7.014,11.522C0.521,205.311,0.571,207.078,0.954,208.848z"/>
	<path d="M406.995,118.73c-0.709,0.307-0.044,0.209,1.975-0.451c1.01-0.323,2.369-0.757,4.087-1.306
		c1.715-0.541,3.786-1.184,6.247-1.813c2.458-0.638,5.062-1.202,7.731-1.593c2.669-0.393,5.403-0.591,8.094-0.598
		c2.691-0.004,5.337,0.178,7.83,0.519c2.47,0.34,4.791,0.9,6.793,1.604c0,0,1.238,0.24,2.772,0.778
		c1.515,0.536,3.366,1.456,4.239,2.666c0.107,0.148,0.226,0.271,0.303,0.393c0.071,0.125,0.138,0.232,0.198,0.32
		c0.121,0.176,0.218,0.28,0.284,0.296c0.119,0.041,0.157-0.292-0.105-1.056c-0.284-0.75-1.071-1.816-2.509-2.828
		c-1.44-0.996-3.488-1.954-6.148-2.692c-2.659-0.732-4.606-1.067-6.047-1.274c-0.719-0.108-1.312-0.197-1.815-0.273
		c-0.505-0.063-0.918-0.114-1.275-0.158c-1.428-0.195-1.956-0.239-3.792-0.22c-1.835,0.073-4.321,0.188-7.296,0.585
		c-2.975,0.392-6.43,1.083-10.179,2.153c-3.751,1.075-6.225,2.253-7.96,3.122C408.689,117.785,407.706,118.427,406.995,118.73z"/>
	<path d="M340.972,119.793c0.752-0.323,1.909-0.97,3.645-1.989c3.505-2.009,6.251-3.038,9.17-3.995
		c2.939-0.917,6.11-1.755,10.868-2.491c5-0.773,10.648-1.063,15.461-0.459c2.404,0.289,4.593,0.759,6.382,1.335
		c1.78,0.599,3.178,1.239,4.053,1.795c1.792,1.06,3.807,2.534,5.301,3.805c0.361,0.33,0.715,0.624,1.055,0.873
		c0.33,0.256,0.603,0.5,0.883,0.661c0.546,0.33,1.021,0.417,1.322,0.095c0.488-0.498-0.2-2.309-1.744-3.968
		c-0.397-0.393-0.804-0.818-1.258-1.185c-0.464-0.352-0.939-0.695-1.405-1.014c-0.977-0.562-1.908-1.049-2.686-1.28
		c-0.383-0.129-0.981-0.386-1.786-0.63c-0.401-0.124-0.836-0.297-1.325-0.429c-0.488-0.133-1.015-0.276-1.576-0.429
		c-2.253-0.553-5.076-0.992-8.031-1.152c-5.921-0.372-12.287,0.441-15.843,0.961c-3.571,0.495-7.418,1.383-10.956,2.459
		c-3.536,1.089-6.748,2.404-9.135,3.572c-0.594,0.299-1.127,0.627-1.595,0.947c-0.456,0.344-0.844,0.683-1.155,0.995
		c-0.604,0.659-0.89,1.21-0.839,1.502C339.831,120.067,340.222,120.114,340.972,119.793z"/>
	<path d="M327.101,125.169c1.422-0.124,3.197-0.075,4.477,0.255c1.242,0.368,1.611,0.249,0.454-0.469
		c-1.152-0.697-4.105-1.557-8.909-1.098c-2.395,0.233-4.075,0.557-5.326,0.777c-1.244,0.247-2.057,0.405-2.67,0.541
		c-1.231,0.256-1.684,0.349-3.181,0.918c-1.493,0.575-3.503,1.386-5.859,2.532c-2.339,1.171-5.068,2.618-7.794,4.723
		c-2.741,2.094-4.143,4.209-4.83,5.78c-0.303,0.724-0.468,1.328-0.573,1.838c-0.393-0.29-1.023-0.474-1.77-0.438
		c-1.267,0.069-2.576,0.783-3.147,1.434c-0.304,0.313-0.993,0.955-1.762,1.849c-0.749,0.912-1.56,2.084-2.279,3.361
		c-1.459,2.547-2.559,5.485-3.229,7.123c-0.345,0.817-0.649,1.708-0.866,2.646c-0.22,0.932-0.308,1.954-0.119,2.94
		c0.18,0.989,0.651,1.869,1.164,2.566c0.51,0.714,1.077,1.246,1.552,1.718c0.981,0.92,2.129,0.988,2.537,0.625
		c0.208-0.184,0.246-0.48,0.024-0.847c-0.224-0.368-0.71-0.802-1.484-1.335c-3.065-2.169-3.108-4.065-1.521-8.373
		c0.855-2.305,2.041-4.766,3.392-6.665c0.68-0.94,1.385-1.74,2.046-2.326c0.333-0.287,0.654-0.521,0.938-0.717
		c0.298-0.169,0.558-0.305,0.773-0.402c0.898-0.338,1.847-0.64,2.622-0.911c0.196-0.059,0.382-0.167,0.557-0.243
		c0.175-0.068,0.337-0.161,0.48-0.275c0.284-0.23,0.501-0.548,0.518-0.979c0.009-0.127-0.028-0.248-0.086-0.364
		c0.065-0.145,0.133-0.294,0.219-0.46c0.747-1.6,2.602-4.038,6.151-6.564c7.09-5.06,17.557-8.581,24.997-8.835
		C324.596,125.497,325.676,125.289,327.101,125.169z"/>
	<path d="M304.843,179.51c-0.235-1.416-2.323-1.338-3.311-1.014c-0.493,0.185-2.262,0.309-4.018-0.353
		c-1.775-0.647-3.171-2.378-3.773-3.413c-0.625-1.043-1.294-2.208-2.028-3.26c-0.352-0.533-0.745-1.019-1.08-1.488
		c-0.37-0.444-0.708-0.856-0.994-1.221c-1.289-1.408-3.453-0.09-1.246,1.419c1.072,0.83,1.759,1.53,2.388,2.358
		c0.649,0.814,1.21,1.77,2.189,3.165c0.508,0.737,1.131,1.499,1.829,2.2c0.736,0.668,1.549,1.286,2.398,1.667
		c1.68,0.824,3.218,1.07,3.986,1.367C302.759,181.525,305.136,181.214,304.843,179.51z"/>
	<path d="M269.809,187.624c0.109-0.041,0.21-0.104,0.305-0.182c1.102-0.649,2.905-1.595,5.614-2.573
		c2.859-1.052,6.132-1.945,9.352-2.44c3.212-0.499,6.395-0.574,8.884-0.057c0,0,0.759-0.023,1.735,0.096
		c0.978,0.104,2.167,0.411,2.978,0.844c0.773,0.457,1.108,0.376,0.489-0.373c-0.603-0.726-2.462-2.031-5.876-2.433
		c-1.694-0.197-2.902-0.219-3.798-0.238c-0.895-0.007-1.479-0.011-1.922-0.015c-0.887-0.002-1.215-0.012-2.321,0.212
		c-2.204,0.465-5.957,1.271-10.402,3.063c-2.223,0.906-3.606,1.948-4.481,2.773c-0.002,0.002-0.004,0.004-0.006,0.006
		c-0.157-0.452-0.507-0.959-0.984-1.439c-0.459-0.405-1-0.793-1.529-1.117c-0.553-0.271-1.095-0.475-1.529-0.59
		c-0.423-0.147-1.373-0.413-2.578-0.817c-0.61-0.178-1.301-0.336-2.025-0.534c-0.726-0.191-1.514-0.31-2.303-0.484
		c-3.184-0.603-6.668-0.775-8.629-0.888c-1.964-0.16-4.12-0.092-6.136,0.063c-1.006,0.109-1.983,0.191-2.878,0.355
		c-0.449,0.073-0.882,0.13-1.289,0.206c-0.406,0.084-0.79,0.163-1.146,0.237c-0.719,0.124-1.292,0.462-1.674,0.8
		c-0.383,0.34-0.575,0.697-0.549,0.974c0.025,0.276,0.264,0.474,0.733,0.496c0.475,0.032,1.152-0.163,2.185-0.508
		c1.015-0.395,1.935-0.598,2.778-0.82c0.853-0.177,1.65-0.31,2.474-0.418c1.654-0.156,3.42-0.292,6.019-0.179
		c2.733,0.098,5.752,0.503,8.274,1.208c1.271,0.323,2.386,0.786,3.329,1.168c0.898,0.472,1.648,0.839,2.081,1.211
		c0.432,0.372,0.955,0.711,1.46,1.053c0.48,0.371,0.997,0.679,1.484,0.917c0.414,0.255,0.836,0.43,1.225,0.48
		c-0.132,0.172-0.244,0.318-0.347,0.431C268.551,188.485,268.823,188.223,269.809,187.624z"/>
	<path d="M223.036,170.226c1.378,0.808,2.701,1.788,3.873,2.735c2.357,1.905,4.09,3.816,4.761,4.932
		c0.691,1.114,1.54,2.4,2.123,3.321c0.297,0.462,0.562,0.834,0.826,1.113c0.269,0.272,0.589,0.502,1.026,0.466
		c0.346-0.027,0.655-0.382,0.764-0.968c0.107-0.576,0.008-1.331-0.258-2.04c-0.527-1.442-1.635-2.676-2.444-3.289
		c-0.407-0.312-1.232-1.07-2.348-1.987c-1.117-0.918-2.524-1.998-4.047-3.048c-1.53-1.035-3.132-2.114-4.776-2.826
		c-1.625-0.721-3.171-1.083-4.279-1.349c-2.231-0.489-4.737-0.618-7.058-0.495c-2.324,0.121-4.472,0.441-6.102,0.704
		c-1.639,0.263-2.693,1.145-2.717,1.706c-0.021,0.579,0.934,0.807,3.356,0.081c2.436-0.711,4.221-0.998,6.115-1.144
		c0.947-0.063,1.927-0.095,3.029-0.034c1.105,0.043,2.336,0.176,3.76,0.482C220.139,168.907,221.664,169.445,223.036,170.226z"/>
	<path d="M199.312,170.611c0.119,0.132,0.295,0.199,0.532,0.196c0.118-0.005,0.25-0.012,0.397-0.066
		c0.148-0.069,0.312-0.166,0.483-0.292c0.176-0.114,0.316-0.335,0.47-0.552c0.144-0.224,0.216-0.511,0.281-0.807
		c0.01-0.295,0.033-0.649-0.066-0.945c-0.04-0.154-0.088-0.312-0.144-0.469c-0.057-0.127-0.119-0.243-0.184-0.367
		c-0.535-0.952-1.264-1.545-1.951-2.03c-0.693-0.481-1.374-0.799-1.92-1.006c-0.549-0.198-1.712-0.726-3.245-1.336
		c-1.532-0.612-3.436-1.313-5.441-1.989c-2.014-0.659-4.092-1.36-6.085-1.794c-1.971-0.409-3.753-0.651-5.039-0.824
		c-2.573-0.365-5.417-0.482-8.082-0.404c-2.667,0.084-5.153,0.408-7.04,0.772c-1.91,0.355-3.083,1.446-3.054,2.002
		c0.007,0.285,0.294,0.462,0.889,0.43c0.296-0.018,0.671-0.088,1.149-0.189c0.471-0.12,1.042-0.274,1.73-0.48
		c2.76-0.811,4.848-1.047,7.039-1.179c2.198-0.097,4.547-0.084,7.963,0.314c1.786,0.221,3.694,0.536,5.454,1.056
		c1.799,0.555,3.577,1.219,5.199,1.882c3.251,1.327,5.878,2.751,7.048,3.701c0.59,0.468,1.26,0.967,1.851,1.457
		c0.585,0.463,1.132,1.018,1.298,1.202c0.141,0.075,0.33,0.2,0.287,0.588C199.061,169.85,199.02,170.288,199.312,170.611z"/>
	<path d="M135.762,154.664c4.722,0.607,9.261,1.623,12.703,3.115c0,0,1.078,0.271,2.407,0.809c1.326,0.522,2.895,1.416,3.656,2.48
		c0.384,0.517,0.549,0.868,0.681,0.897c0.104,0.04,0.203-0.273-0.023-0.957c-0.231-0.671-0.876-1.656-2.099-2.617
		c-1.219-0.96-2.973-1.911-5.268-2.73c-2.298-0.812-3.973-1.24-5.212-1.569c-1.243-0.313-2.053-0.516-2.668-0.671
		c-1.233-0.298-1.682-0.42-3.29-0.573c-1.607-0.145-3.783-0.325-6.419-0.427c-2.637-0.092-5.735-0.133-9.18,0.161
		c-3.444,0.305-5.832,1.106-7.338,2.017c-1.535,0.911-2.049,1.918-2.266,2.512c-0.112,0.313-0.076,0.342,0.08,0.109
		c0.148-0.232,0.474-0.7,1.189-1.169c1.438-0.952,4.479-1.691,8.917-1.936C126.074,153.862,131.032,154.064,135.762,154.664z"/>
	<path d="M74.621,165.332c0.45-0.211,1.073-0.671,1.983-1.46c1.847-1.57,3.408-2.45,5.072-3.281
		c1.685-0.806,3.526-1.573,6.325-2.418c2.939-0.903,6.313-1.541,9.239-1.59c2.936-0.093,5.335,0.551,6.376,1.16
		c1.073,0.594,2.221,1.337,3.112,1.969c0.212,0.169,0.43,0.314,0.65,0.431c0.223,0.115,0.4,0.241,0.606,0.307
		c0.397,0.139,0.8,0.138,1.137-0.136c0.55-0.417,0.261-1.704-0.769-2.813c-1.007-1.121-2.619-1.853-3.652-1.969
		c-0.516-0.087-1.636-0.329-3.082-0.45c-1.447-0.126-3.217-0.103-5.03,0.094c-3.638,0.363-7.408,1.452-9.534,2.038
		c-2.132,0.585-4.406,1.421-6.475,2.363c-2.066,0.949-3.921,2.01-5.293,2.925c-1.404,0.912-1.868,2.286-1.569,2.744
		C73.859,165.488,74.174,165.543,74.621,165.332z"/>
	<path d="M60.326,167.557c0,0,0.924-0.157,2.141-0.243c1.216-0.097,2.728-0.087,3.848,0.074c1.105,0.187,1.388-0.013,0.363-0.517
		c-1.017-0.481-3.451-1.207-7.543-1.029c-2.039,0.097-3.485,0.269-4.557,0.4c-1.071,0.145-1.77,0.24-2.3,0.312
		c-1.06,0.152-1.455,0.197-2.75,0.633c-1.292,0.442-3.035,1.061-5.071,1.983c-2.033,0.919-4.371,2.14-6.713,3.907
		c-2.344,1.782-3.53,3.559-4.182,4.855c-0.663,1.308-0.809,2.18-1.035,2.699c-0.21,0.534,0.093,0.113,0.952-1.152
		c0.886-1.242,2.49-3.277,5.508-5.369c3.004-2.095,6.753-3.813,10.55-4.933C53.334,168.052,57.172,167.506,60.326,167.557z"/>
	<path d="M3.477,198.519c2.035-3.561,5.538-6.723,8.918-8.849c3.38-2.17,6.63-3.337,8.337-3.732c1.72-0.399,3.812-0.912,5.434-1.419
		c0.812-0.253,1.504-0.53,1.972-0.826c0.465-0.31,0.704-0.675,0.573-1.096c-0.204-0.682-1.747-0.904-3.541-0.671
		c-1.793,0.222-3.768,0.945-4.925,1.573c-1.158,0.626-5.345,2.461-9.309,5.418c-1.985,1.464-3.909,3.187-5.457,4.934
		c-1.56,1.738-2.713,3.504-3.457,4.827c-0.747,1.326-1.328,2.834-1.691,4.411c-0.383,1.578-0.396,3.243-0.222,4.814
		c0.15,1.59,0.686,3.044,1.195,4.361c0.319,0.629,0.594,1.254,0.912,1.81c0.335,0.547,0.65,1.063,0.943,1.541
		c1.279,1.868,2.914,2.626,3.42,2.418c0.268-0.108,0.295-0.466-0.034-1.073c-0.162-0.306-0.426-0.665-0.775-1.106
		c-0.314-0.465-0.767-0.977-1.273-1.614c-0.478-0.653-0.956-1.25-1.286-1.877c-0.174-0.308-0.368-0.6-0.512-0.903
		c-0.137-0.307-0.269-0.605-0.4-0.899c-0.064-0.147-0.128-0.293-0.191-0.438l-0.139-0.447c-0.091-0.297-0.182-0.59-0.271-0.881
		c-0.118-0.594-0.252-1.184-0.302-1.79c-0.116-1.214-0.041-2.478,0.237-3.883C1.956,201.731,2.505,200.199,3.477,198.519z"/>
	<path d="M46.654,236.726c-0.014-0.041-0.058-0.129-0.103-0.234c-0.045-0.101-0.055-0.212-0.094-0.331
		c-0.021-0.05-0.092-0.084-0.203-0.12c-0.444-0.138-1.352-0.254-2.733-0.289c-2.779-0.088-4.771-0.316-6.861-0.615
		c-2.091-0.311-4.298-0.704-7.527-1.363c-0.848-0.176-1.717-0.363-2.586-0.571c-0.858-0.21-1.762-0.434-2.519-0.72
		c-1.658-0.664-3.261-1.432-4.673-2.259c-1.413-0.826-2.638-1.709-3.579-2.549c-0.918-0.859-1.602-1.626-1.938-2.225
		c-0.739-1.17-1.478-2.559-1.983-3.683c-0.247-0.564-0.512-1.063-0.765-1.428c-0.275-0.36-0.624-0.585-1.053-0.512
		c-0.35,0.06-0.599,0.412-0.756,0.98c-0.095,0.286-0.08,0.611-0.084,0.976c-0.008,0.369,0.061,0.754,0.162,1.151
		c0.37,1.62,1.522,3.159,2.405,3.87c0.449,0.357,1.345,1.247,2.658,2.172c1.301,0.939,2.987,1.944,4.814,2.82
		c0.914,0.438,1.861,0.849,2.802,1.231c0.474,0.182,0.945,0.363,1.408,0.541c0.481,0.185,0.967,0.311,1.427,0.432
		c1.853,0.463,3.514,0.791,4.705,1.08c4.774,1.129,10.48,2.067,14.045,2.57c0.894,0.124,1.705,0.057,2.315-0.146
		c0.303-0.102,0.562-0.237,0.727-0.406c0.07-0.069,0.128-0.17,0.097-0.225l0.016-0.008
		C46.763,236.867,46.732,236.845,46.654,236.726z"/>
	<path d="M53.828,240.817c0.469,0.472,1.005,0.979,1.596,1.533c0.6,0.543,1.313,1.061,2.063,1.649
		c3.089,2.238,7.023,3.955,11.009,4.769c3.989,0.871,8,0.623,11.194-0.048c0,0,0.225-0.092,0.596-0.243
		c0.365-0.166,0.895-0.324,1.446-0.624c0.55-0.288,1.162-0.608,1.765-0.923c0.589-0.328,1.128-0.719,1.611-1.005
		c0.96-0.592,0.975-0.894-0.075-0.625c-0.262,0.067-0.59,0.17-0.985,0.312c-0.392,0.148-0.854,0.334-1.422,0.481
		c-0.563,0.155-1.183,0.401-1.912,0.591c-0.367,0.087-0.756,0.178-1.167,0.276c-0.412,0.093-0.836,0.237-1.304,0.284
		c-0.464,0.069-0.895,0.133-1.296,0.191c-0.2,0.029-0.393,0.057-0.579,0.084c-0.188,0.007-0.368,0.014-0.542,0.02
		c-0.693,0.018-1.276,0.034-1.773,0.047c-0.993-0.078-1.636-0.151-2.122-0.207c-0.968-0.17-1.308-0.285-2.558-0.379
		c-2.464-0.275-6.796-1.392-11.291-4.516c-0.548-0.403-1.065-0.762-1.543-1.096c-0.455-0.365-0.88-0.692-1.278-0.99
		c-0.2-0.147-0.393-0.288-0.576-0.423c-0.175-0.145-0.342-0.284-0.502-0.417c-0.327-0.261-0.625-0.497-0.895-0.712
		c-0.565-0.411-0.963-0.798-1.312-1.091c-0.343-0.3-0.604-0.536-0.785-0.748c-0.36-0.421-0.203,0.032,0.657,1.338
		C52.253,239.023,52.956,239.801,53.828,240.817z"/>
	<path d="M107.448,258.685c2.129,0.485,4.536,0.727,6.806,0.582c2.269-0.157,4.392-0.733,5.88-1.534
		c0.757-0.378,1.275-0.953,1.549-1.447c0.254-0.525,0.291-0.951,0.149-1.189c-0.142-0.238-0.458-0.299-0.894-0.112
		c-0.109,0.047-0.226,0.11-0.35,0.191c-0.135,0.07-0.284,0.152-0.44,0.255c-0.298,0.225-0.693,0.451-1.138,0.786
		c-1.905,1.191-3.626,1.562-5.401,1.706c-1.793,0.118-3.736,0.04-6.535-0.529c-2.946-0.591-6.129-1.715-8.698-3.061
		c-2.587-1.321-4.536-2.846-5.359-3.792c-0.839-0.946-1.864-2.026-2.708-2.811c-0.845-0.766-1.603-1.309-2.345-0.826
		c-0.292,0.203-0.382,0.593-0.314,1.112c0.087,0.498,0.338,1.117,0.731,1.68c0.769,1.159,2.006,2.153,2.887,2.588
		c0.875,0.463,3.683,2.26,7.002,3.593C101.565,257.282,105.316,258.229,107.448,258.685z"/>
	<path d="M127.884,255.762c0.18,0.118,0.421,0.253,0.73,0.403c0.307,0.154,0.681,0.328,1.147,0.435
		c0.463,0.117,0.995,0.28,1.615,0.368c0.623,0.046,1.326,0.154,2.107,0.123c0.779-0.065,1.457-0.033,2.025-0.152
		c0.573-0.086,1.055-0.158,1.466-0.219c0.804-0.199,1.336-0.316,1.743-0.401c0.791-0.227,1.092-0.307,2.018-0.803
		c1.813-1.04,4.784-3.137,7.352-6.713c1.297-1.783,1.736-3.304,2.006-4.349c0.248-1.064,0.228-1.736,0.377-2.133
		c0.134-0.405-0.15-0.105-0.695,0.918c-0.554,1.015-1.459,2.736-3.122,4.872c-1.64,2.15-3.904,4.15-6.426,5.496
		c-2.51,1.387-5.321,1.896-7.58,1.724c0,0-0.169,0.022-0.447,0.058c-0.278,0.021-0.676,0.118-1.121,0.102
		c-0.452-0.008-0.956-0.016-1.45-0.024c-0.496-0.036-0.974-0.142-1.391-0.214C127.413,255.094,127.166,255.291,127.884,255.762z"/>
	<path d="M177.062,232.991l2.007-2.076l-2.668,0.797c-0.141,0.042-0.279,0.105-0.408,0.178l-0.185-0.359
		c-0.151,0.144-0.312,0.309-0.48,0.495c-2.734,3.018-3.836,4.3-7.152,7.516c-1.731,1.687-3.885,3.246-6.012,3.86
		c-2.12,0.64-4.051,0.426-4.988,0.124c-0.471-0.109-1-0.317-1.532-0.423c-0.266-0.057-0.534-0.101-0.797-0.129
		c-0.262-0.041-0.519-0.089-0.765-0.102c-0.98-0.067-1.812,0.191-1.983,1.043c-0.14,0.696,0.593,1.276,1.578,1.683
		c0.481,0.224,1.066,0.301,1.602,0.368c0.544,0.045,1.041,0.098,1.452-0.007c0.202-0.041,0.526-0.076,0.941-0.106
		c0.206-0.012,0.437-0.026,0.687-0.041c0.25-0.017,0.523-0.08,0.81-0.119c0.574-0.091,1.213-0.159,1.874-0.377
		c0.331-0.096,0.675-0.176,1.015-0.289c0.332-0.137,0.671-0.278,1.013-0.42c0.348-0.125,0.674-0.303,0.996-0.491
		c0.321-0.186,0.656-0.35,0.962-0.549c0.594-0.427,1.211-0.804,1.721-1.254c0.264-0.213,0.522-0.42,0.77-0.619
		c0.237-0.212,0.464-0.415,0.68-0.609c0.442-0.378,0.824-0.729,1.148-1.018c1.319-1.142,2.643-2.489,3.915-3.7
		c0.5-0.486,0.989-0.94,1.464-1.369c0.23,0.051,0.496,0.097,0.795,0.141c0.151,0.024,0.313,0.05,0.487,0.077
		c0.076,0.023,0.111,0.041,0.162,0.063l0.027,0.08c0.015,0.046-0.004,0.019,0.038,0.124c0.103,0.241,0.189,0.508,0.356,0.75
		c0.299,0.502,0.561,0.928,0.847,1.251c0.133,0.169,0.256,0.325,0.369,0.469c0.121,0.136,0.242,0.249,0.346,0.362
		c0.212,0.222,0.387,0.407,0.535,0.563c0.158,0.144,0.287,0.262,0.399,0.363c0.439,0.423,0.609,0.575,1.308,0.888
		c1.397,0.629,3.798,1.412,6.823,1.981c3.039,0.558,4.324-0.105,4.922-0.023c0.301,0.03,0.064-0.17-0.739-0.448
		c-0.8-0.29-2.167-0.646-4.074-1.112c-1.906-0.458-3.964-1.035-5.756-1.934c-1.76-0.919-3.19-2.256-3.694-3.691l-0.051-0.063
		l-0.061-0.075c-0.04-0.065-0.085-0.139-0.135-0.221c-0.098-0.153-0.215-0.337-0.345-0.542c-0.033-0.136-0.193-0.111-0.332-0.115
		c-0.135-0.002-0.275-0.004-0.419-0.006c-0.092,0.003-0.183,0.007-0.274,0.011c0.012-0.008,0.022-0.01,0.034-0.018
		c0.079-0.054,0.161-0.126,0.228-0.179c0.07-0.057,0.089-0.035,0.128-0.052c0.081-0.019,0.094-0.016,0.213-0.058l-0.144-0.28
		c0.001-0.001,0.002-0.002,0.003-0.003C176.847,233.199,176.959,233.096,177.062,232.991z"/>
	<path d="M162.27,263.661c2.61-1.392,5.443-2.121,7.812-2.392c0,0,0.17-0.056,0.45-0.147c0.282-0.084,0.672-0.235,1.126-0.339
		c0.457-0.109,0.965-0.231,1.465-0.351c0.357-0.074,0.702-0.126,1.032-0.173c-0.017,0.851,0.04,1.551,0.114,2.113
		c0.133,1.016,0.326,1.611,0.332,2.01c0.011,0.401,0.165,0.056,0.366-1.028c0.214-1.082,0.482-2.905,1.004-5.449
		c0.532-2.535,1.259-5.307,2.483-7.717c0.609-1.202,1.334-2.308,2.164-3.215c0.834-0.901,1.769-1.592,2.696-2.027
		c0,0,0.12-0.099,0.318-0.261c0.211-0.139,0.5-0.359,0.86-0.554c0.705-0.429,1.7-0.757,2.476-0.891
		c0.771-0.119,0.933-0.387,0.137-0.596c-0.398-0.106-1.048-0.185-1.963-0.066c-0.909,0.115-2.108,0.44-3.388,1.251
		c-1.276,0.813-2.031,1.584-2.586,2.142c-0.551,0.568-0.875,0.966-1.135,1.26c-0.492,0.604-0.694,0.821-1.098,1.722
		c-0.813,1.799-1.91,4.93-2.56,8.952c-0.094,0.581-0.151,1.109-0.185,1.598c-0.992-0.161-2.698-0.263-5.246,0.177
		c-3.07,0.563-4.343,1.047-5.15,1.236c-0.789,0.246-1.089,0.326-2.015,0.835c-0.449,0.277-0.978,0.604-1.579,0.974
		c-0.289,0.201-0.595,0.414-0.917,0.639c-0.328,0.215-0.66,0.457-0.99,0.734c-1.379,1.027-2.841,2.424-4.285,4.114
		c-0.744,0.831-1.224,1.652-1.648,2.333c-0.39,0.704-0.648,1.321-0.866,1.828c-0.025,0.066-0.04,0.117-0.063,0.18
		c-0.726-0.199-1.652-0.291-2.643-0.211c-1.121,0.08-2.305,0.352-3.359,0.734c-1.06,0.372-1.976,0.882-2.649,1.318
		c-0.664,0.453-2.213,1.368-3.952,2.925c-1.728,1.546-3.654,3.781-4.818,6.573c-1.211,2.767-1.398,6.057-0.67,8.773
		c0.658,2.75,2.09,4.942,3.335,6.255c0.15,0.17,0.287,0.358,0.452,0.518l0.51,0.469c0.348,0.306,0.675,0.649,1.053,0.93
		c0.762,0.55,1.522,1.135,2.368,1.578c1.643,0.978,3.432,1.679,5.18,2.264c3.518,1.128,6.925,1.655,9.515,1.973
		c2.605,0.318,4.584-0.238,4.857-0.762c0.14-0.266-0.136-0.538-0.944-0.735c-0.809-0.197-2.15-0.317-4.155-0.415
		c-4.012-0.197-6.842-0.727-9.697-1.654c-0.703-0.258-1.439-0.475-2.149-0.82c-0.361-0.16-0.728-0.325-1.106-0.493
		c-0.359-0.199-0.728-0.403-1.108-0.613c-1.485-0.873-3.126-1.976-4.534-3.766c-1.514-1.844-2.465-4.274-2.707-6.75
		c-0.236-2.479,0.386-4.954,1.5-6.963c1.099-2.03,2.643-3.591,4.062-4.719c1.439-1.123,2.785-1.809,3.729-2.176
		c1.891-0.759,4.269-1.447,6.146-1.792c0.939-0.185,1.751-0.307,2.344-0.503c0.583-0.168,0.969-0.443,0.947-0.886
		c-0.014-0.257-0.267-0.543-0.71-0.77c0.724-0.954,1.741-2.259,3.158-3.818C157.248,266.946,159.641,265.015,162.27,263.661z"/>
	<path d="M167.65,312.926c2.679,1.951,4.66,3.202,6.777,4.501c2.13,1.273,4.417,2.606,8.044,4.034
		c3.815,1.498,8.338,2.463,12.341,2.479c4.01,0.072,7.382-0.764,9.131-1.156c1.766-0.377,3.861-1.306,5.248-2.384
		c0.705-0.523,1.224-1.088,1.491-1.579c0.269-0.489,0.283-0.904-0.044-1.205c-0.546-0.504-1.808-0.001-3.215,0.657
		c-1.41,0.657-2.979,1.501-3.989,2.076c-0.495,0.307-1.685,0.829-3.334,1.307c-1.648,0.473-3.776,0.819-6.03,0.842
		c-2.252,0.034-4.617-0.249-6.712-0.734c-2.099-0.478-3.925-1.147-5.2-1.71c-2.557-1.119-5.226-2.599-7.603-4.176
		c-2.377-1.577-4.458-3.25-5.96-4.611c-1.499-1.357-2.986-1.993-3.525-1.747C164.548,309.744,164.977,310.947,167.65,312.926z"/>
	<path d="M314.115,324.69c1.052-0.952,1.685-2.069,1.965-2.946c0.3-0.876,0.229-1.537,0.056-1.755
		c-0.192-0.23-0.555-0.069-1.044,0.56c-0.537,0.605-1.207,1.684-2.58,3.063c-1.38,1.378-2.88,2.284-4.336,2.963
		c-1.464,0.678-2.904,1.147-4.417,1.52c-3.036,0.719-6.367,1.115-11.302,1.168c-2.593,0.017-5.357-0.069-8.039-0.312
		c-2.69-0.253-5.33-0.728-7.741-1.357c-4.824-1.263-8.749-2.988-10.738-3.982c-1.983-1.013-4.54-2.133-6.651-2.744
		c-0.891-0.26-1.688-0.42-2.33-0.459c0.221-0.126,0.423-0.236,0.593-0.31c0.552-0.238,0.003-0.192-1.56,0.268
		c-0.194,0.059-0.405,0.123-0.632,0.192c-0.231,0.061-0.486,0.105-0.753,0.167c-0.531,0.124-1.131,0.263-1.801,0.419
		c-0.683,0.105-1.432,0.228-2.247,0.373c-0.82,0.124-1.726,0.191-2.691,0.317c-7.796,0.747-17.357-0.498-23.856-2.31
		c0,0-0.249-0.028-0.659-0.075c-0.41-0.056-0.98-0.134-1.625-0.221c-1.289-0.187-2.873-0.456-4.043-0.727
		c-1.172-0.266-1.446-0.075-0.413,0.491c1.032,0.566,3.377,1.526,7.498,2.513c2.062,0.48,3.54,0.808,4.641,1.034
		c1.1,0.239,1.816,0.396,2.36,0.514c1.092,0.222,1.481,0.367,2.906,0.434c1.418,0.09,3.341,0.209,5.672,0.239
		c2.328,0.064,5.07-0.046,8.098-0.384c0.756-0.107,1.453-0.218,2.096-0.329c0.636-0.16,1.218-0.317,1.749-0.469
		c0.534-0.143,1.015-0.298,1.44-0.492c0.425-0.184,0.81-0.351,1.161-0.502c0.218-0.088,0.412-0.184,0.596-0.281
		c0.207,0.697,1.611,1.547,3.343,2.357c1.921,0.9,4.254,1.733,5.792,2.109c1.54,0.338,6.726,2.293,12.681,3.475
		c5.958,1.25,12.543,1.207,16.218,1.23c3.691,0.012,7.752-0.304,11.474-1.226c1.855-0.471,3.625-1.084,5.181-1.863
		C311.731,326.572,313.073,325.645,314.115,324.69z"/>
	<path d="M348.638,312.472c0.657-0.484,1.176-1.028,1.693-1.491c0.501-0.48,0.98-0.904,1.361-1.351
		c0.785-0.873,1.416-1.61,1.916-2.244c0.963-1.303,1.483-2.126,1.917-2.598c0.434-0.472-0.061-0.192-1.394,0.965
		c-0.328,0.293-0.712,0.638-1.154,1.033c-0.448,0.386-0.953,0.822-1.518,1.309c-0.556,0.493-1.164,1.043-1.868,1.595
		c-0.699,0.556-1.417,1.216-2.272,1.812c-0.417,0.312-0.84,0.628-1.266,0.948c-0.427,0.318-0.891,0.584-1.339,0.885
		c-0.886,0.623-1.857,1.116-2.82,1.642c-1.969,0.944-4.038,1.788-6.196,2.16c-0.267,0.056-0.531,0.124-0.799,0.17l-0.809,0.098
		c-0.538,0.059-1.07,0.145-1.604,0.182c-1.073,0.016-2.124,0.12-3.157,0.033c-0.516-0.025-1.025-0.05-1.525-0.074
		c-0.501-0.041-0.993-0.112-1.477-0.167c-0.483-0.061-0.956-0.122-1.419-0.181c-0.462-0.086-0.912-0.171-1.352-0.253
		c0,0-0.265-0.012-0.702-0.031c-0.438-0.012-1.048-0.055-1.737-0.129c-0.69-0.072-1.46-0.152-2.216-0.231
		c-0.753-0.107-1.493-0.219-2.125-0.328c-1.264-0.218-1.541-0.015-0.402,0.509c1.142,0.501,3.676,1.461,8.177,2.149
		c1.132,0.138,2.102,0.257,2.939,0.359c0.846,0.058,1.557,0.106,2.163,0.147c1.213,0.08,2.015,0.04,2.621,0.074
		c0.607,0.035,1.022-0.021,1.478-0.054c0.454-0.051,0.954-0.091,1.712-0.259c1.504-0.389,3.564-0.886,5.843-1.999
		C343.589,316.082,346.142,314.555,348.638,312.472z"/>
	<path d="M385.954,290.541c0.962-1.264,1.669-2.431,2.175-3.479c0.131-0.259,0.25-0.51,0.348-0.76
		c0.053-0.13,0.106-0.258,0.158-0.383c0.068-0.159,0.133-0.315,0.182-0.464c0.183-0.598,0.352-1.08,0.431-1.501
		c-0.049-0.134,0.001-0.295-0.088-0.402c-0.191-0.077-0.372-0.134-0.546-0.174c-0.35-0.075-0.685-0.003-0.91,0.179
		c-0.438,0.414-0.589,0.818-0.831,0.978c-0.146,0.112-0.234,0.17-0.186,0.18c0.039,0.009,0.231-0.044,0.373-0.125
		c0.165-0.077,0.304-0.252,0.528-0.291c0.115-0.019,0.253,0.053,0.354,0.161l0.136,0.174c-0.047,0.087-0.095,0.179-0.145,0.275
		c-0.107,0.208-0.229,0.375-0.323,0.508c-0.019-0.001-0.182,0.288-0.313,0.515c-0.135,0.234-0.299,0.469-0.453,0.718
		c-0.641,0.985-1.433,2.081-2.389,3.268c-2.589,3.17-5.829,6.397-9.366,8.941c-1.769,1.266-3.613,2.357-5.452,3.144
		c-1.833,0.793-3.676,1.262-5.319,1.276c0,0-0.241,0.038-0.638,0.1c-0.201,0.039-0.436,0.026-0.707,0.044
		c-0.271,0.017-0.572,0.028-0.886-0.013c-1.275-0.052-2.822-0.605-3.82-1.331c-0.957-0.747-1.34-0.741-0.576,0.274
		c0.18,0.27,0.477,0.552,0.875,0.882c0.193,0.173,0.415,0.351,0.688,0.501c0.27,0.151,0.549,0.356,0.887,0.493
		c1.317,0.636,3.274,1.005,5.587,0.671c2.31-0.344,3.83-0.991,4.946-1.438c1.115-0.464,1.827-0.8,2.359-1.066
		c0.536-0.262,0.904-0.438,1.283-0.673c0.382-0.23,0.796-0.488,1.39-0.957c1.199-0.918,2.779-2.206,4.553-3.9
		C382.032,295.176,384.015,293.091,385.954,290.541z"/>
	<path d="M391.518,281.71c-1.069,0.305-1.809,0.67-1.826,1.544c0.003,0.727,1.155,1.168,2.404,1.147
		c1.259,0.002,2.628-0.366,3.437-0.763c0.82-0.388,3.718-1.327,6.794-2.546c3.089-1.193,6.357-2.666,8.214-3.475
		c1.862-0.803,3.849-1.81,5.595-3.006c0.872-0.599,1.686-1.244,2.366-1.966c0.68-0.711,1.236-1.542,1.447-2.463
		c0.1-0.463,0.042-0.944-0.114-1.32c-0.155-0.383-0.406-0.649-0.641-0.819c-0.484-0.337-0.922-0.316-1.147-0.171
		c-0.237,0.154-0.28,0.456-0.187,0.816c0.039,0.145,0.089,0.331,0.153,0.57c0.043,0.197,0.083,0.383,0.052,0.74
		c-0.088,0.745-0.674,1.542-1.236,2.144c-0.584,0.622-1.215,1.143-1.903,1.632c-1.384,0.974-2.975,1.869-5.412,3.012
		c-2.567,1.201-5.522,2.325-8.146,3.113c-2.624,0.795-4.912,1.249-6.119,1.288C394.04,281.233,392.594,281.421,391.518,281.71z"/>
	<path d="M422.938,274.025c0.744,1.325,1.868,2.809,3.427,4.305c3.045,2.944,7.071,5.283,11.113,7.031
		c4.056,1.749,8.165,2.892,11.64,3.588c0,0,1.05,0.065,2.41,0.061c1.36,0.007,3.023-0.09,4.254-0.228
		c1.238-0.164,1.394-0.436,0.229-0.605c-1.163-0.194-3.65-0.333-7.771-1.174c-4.114-0.895-5.775-1.679-6.789-2.094
		c-1.01-0.444-1.367-0.621-2.69-1.089c-1.319-0.475-3.089-1.196-5.12-2.29c-2.022-1.097-4.325-2.571-6.5-4.625
		c-2.668-2.56-3.983-4.492-4.743-5.807c0.001-0.013,0.002-0.022,0.003-0.035c0.007-0.08,0.014-0.164,0.021-0.252l0.015-0.121
		l0.009-0.03l-0.11-0.015l-0.206-0.03l-0.002-0.001c-0.011-0.02-0.025-0.044-0.035-0.063l-0.001-0.001l-0.006-0.011l-0.079-0.026
		l-0.029,0.033l-0.009,0.05l0.001,0.016l-0.349,0.105C421.829,271.549,422.187,272.701,422.938,274.025z"/>
	<polygon points="422.445,270.658 422.444,270.661 422.446,270.661 	"/>
	<path d="M416.967,312.512c0.374,0.439,1.264-0.058,2.587-2.324c0.693-1.116,1.304-2.067,1.954-2.881
		c0.319-0.412,0.614-0.821,0.937-1.195c0.332-0.366,0.66-0.728,0.992-1.095c1.353-1.444,2.902-2.88,5.427-4.652
		c2.652-1.871,5.911-3.467,8.906-4.369c0.737-0.261,1.477-0.415,2.167-0.582c0.346-0.08,0.681-0.158,1.005-0.232
		c0.329-0.051,0.647-0.1,0.951-0.147c0.608-0.087,1.16-0.171,1.65-0.215c0.493-0.026,0.92-0.036,1.267-0.03
		c0.693,0.006,1.462-0.024,2.23-0.049c0.767-0.031,1.518-0.161,2.187-0.258c1.329-0.235,2.302-0.732,2.163-1.595
		c-0.114-0.706-1.269-1.037-2.659-1.127c-1.387-0.027-2.996,0.169-3.969,0.556c-0.977,0.328-4.457,1.085-8.039,2.521
		c-1.801,0.686-3.593,1.602-5.184,2.474c-0.791,0.445-1.51,0.922-2.184,1.315c-0.65,0.432-1.233,0.82-1.722,1.146
		c-3.971,2.574-7.699,6.821-9.772,9.542C416.82,310.688,416.61,312.085,416.967,312.512z"/>
	<path d="M381.59,331.724c0.891-1.384,2.474-3.683,5.191-6.569c2.72-2.87,6.073-5.736,9.734-7.777
		c3.633-2.047,7.64-3.2,10.864-2.829c0,0,0.238-0.006,0.632-0.015c0.4-0.031,0.942,0.034,1.575,0.08
		c1.249,0.152,2.764,0.651,3.809,1.24c1.022,0.604,1.38,0.534,0.537-0.345c-0.208-0.226-0.498-0.495-0.906-0.766
		c-0.201-0.139-0.42-0.299-0.672-0.453c-0.262-0.135-0.547-0.281-0.854-0.439c-1.248-0.579-3.027-1.098-5.277-1.086
		c-2.245,0.03-3.801,0.412-4.934,0.695c-0.574,0.131-1.032,0.282-1.426,0.398c-0.396,0.11-0.715,0.214-0.987,0.312
		c-1.096,0.371-1.507,0.504-2.774,1.251c-2.513,1.502-6.653,4.349-10.768,8.982c-2.041,2.332-3.095,4.266-3.701,5.687
		c-0.614,1.424-0.78,2.345-1.013,2.903C380.408,333.563,380.715,333.12,381.59,331.724z"/>
	<path d="M357.361,352.136c0.037-0.196,0.073-0.396,0.111-0.599c0.088-0.405,0.123-0.837,0.259-1.266
		c0.443-1.841,1.374-3.653,2.469-5.298c1.128-1.623,2.573-2.997,4.069-4.057c1.493-1.071,3.041-1.826,4.395-2.333
		c1.349-0.527,2.519-0.786,3.318-0.913c1.613-0.232,3.574-0.51,5.112-0.802c1.526-0.3,2.681-0.674,2.578-1.56
		c-0.085-0.706-1.514-1.162-3.23-1.129c-1.712,0.011-3.653,0.494-4.782,1.036c-1.114,0.527-5.275,1.934-8.846,5.01
		c-1.78,1.51-3.363,3.414-4.395,5.354c-0.576,0.937-0.931,1.923-1.314,2.785c-0.142,0.451-0.277,0.879-0.402,1.279
		c-0.064,0.2-0.126,0.393-0.185,0.578c-0.04,0.191-0.078,0.373-0.115,0.548c-0.663,2.77-0.55,6.045,0.559,8.806
		c0.486,1.405,1.262,2.632,2.028,3.721c0.833,1.042,1.691,1.944,2.554,2.588c0.427,0.328,0.846,0.614,1.288,0.765
		c0.434,0.16,0.813,0.313,1.18,0.332c0.726,0.057,1.215-0.059,1.389-0.282c0.173-0.223,0.044-0.553-0.445-0.916
		c-0.122-0.091-0.267-0.183-0.439-0.276c-0.167-0.103-0.346-0.24-0.559-0.363c-0.207-0.135-0.458-0.244-0.71-0.41
		c-0.249-0.172-0.528-0.351-0.841-0.539c-0.315-0.185-0.57-0.435-0.846-0.639c-0.134-0.107-0.267-0.213-0.397-0.317
		c-0.117-0.119-0.232-0.237-0.345-0.353c-0.225-0.234-0.455-0.454-0.66-0.686c-0.188-0.247-0.372-0.488-0.552-0.724
		c-0.389-0.456-0.619-0.991-0.921-1.472c-0.264-0.503-0.458-1.033-0.688-1.556c-0.148-0.551-0.348-1.1-0.462-1.694
		c-0.081-0.599-0.248-1.213-0.244-1.887c-0.016-0.335-0.033-0.68-0.05-1.036c0.025-0.357,0.05-0.725,0.076-1.108
		C357.332,352.53,357.336,352.334,357.361,352.136z"/>
	<path d="M410.125,377.77c-0.235-0.281-0.408-0.558-0.642-0.775c-0.189-0.236-0.372-0.448-0.577-0.624
		c-0.337-0.369-0.692-0.647-0.988-0.685c-0.288-0.038-0.504,0.183-0.491,0.836c0.009,0.637,0.415,1.688,1.468,2.685
		c1.05,0.988,2.046,1.597,2.975,2.108c0.461,0.266,0.913,0.492,1.363,0.701c0.443,0.228,0.894,0.411,1.347,0.608
		c1.819,0.755,3.771,1.49,6.748,2.141c3.129,0.701,6.67,1.066,9.78,1.051c3.113,0,5.789-0.457,7.24-0.8
		c0.362-0.094,0.75-0.182,1.139-0.336c0.385-0.179,0.79-0.324,1.164-0.583c0.374-0.258,0.751-0.495,1.058-0.85
		c0.158-0.165,0.308-0.331,0.449-0.496c0.124-0.189,0.236-0.381,0.338-0.567c0.223-0.357,0.321-0.755,0.378-1.104
		c0.026-0.174,0.055-0.333,0.045-0.486c-0.018-0.155-0.045-0.296-0.082-0.422c-0.148-0.506-0.443-0.732-0.887-0.714
		c-0.362,0.015-0.691,0.228-0.94,0.497c-0.301,0.257-0.57,0.56-0.903,0.87c-0.632,0.629-1.67,1.303-2.391,1.796
		c-0.332,0.277-1.235,0.679-2.508,1.055c-1.282,0.357-2.948,0.617-4.714,0.711c-3.539,0.218-7.426-0.325-9.521-0.918
		c-2.102-0.581-4.355-1.358-6.329-2.334C412.66,380.182,411.018,378.925,410.125,377.77z"/>
	<path d="M446.498,383.016c0.735,1.715,2.432,4.592,6.022,7.479c3.57,2.892,8.235,5.057,12.967,6.133
		c4.736,1.108,9.53,1.029,13.367,0.197c0,0,0.273-0.097,0.724-0.258c0.44-0.192,1.061-0.429,1.734-0.756
		c1.365-0.616,2.904-1.61,3.997-2.395c1.088-0.815,1.1-1.136-0.084-0.649c-0.295,0.123-0.661,0.299-1.132,0.483
		c-0.23,0.1-0.481,0.21-0.756,0.33c-0.279,0.107-0.581,0.223-0.907,0.349c-1.303,0.492-3.012,1.065-5.236,1.453
		c-2.226,0.381-3.857,0.365-5.051,0.322c-1.198-0.071-1.972-0.179-2.556-0.284c-1.167-0.211-1.583-0.309-3.078-0.531
		c-1.489-0.24-3.508-0.698-5.842-1.601c-2.322-0.912-4.97-2.273-7.529-4.302c-2.537-2.046-4.108-3.715-5.176-4.975
		c-1.076-1.257-1.633-2.116-1.92-2.72c-0.141-0.302-0.194-0.312-0.135-0.024C445.978,381.548,446.104,382.159,446.498,383.016z"/>
	<path d="M398.669,379.982c0,0,0.279-0.089,0.736-0.235c0.459-0.133,1.09-0.368,1.789-0.648c1.399-0.57,3.042-1.497,4.03-2.487
		c0.953-1.053,0.81-1.343-0.184-0.621c-1.02,0.669-3.413,1.896-7.959,2.46c-2.265,0.28-3.917,0.221-5.127,0.175
		c-1.215-0.058-2-0.171-2.596-0.247c-1.188-0.189-1.615-0.262-3.137-0.417c-1.518-0.167-3.584-0.479-5.994-1.2
		c-2.398-0.72-5.188-1.836-7.77-3.803c-1.269-1.003-2.2-1.995-2.934-2.898c-0.679-0.935-1.191-1.769-1.495-2.527
		c-0.668-1.503-0.776-2.554-0.78-3.222c-0.001-0.337-0.045-0.37-0.112-0.082c-0.033,0.144-0.073,0.37-0.115,0.68
		c-0.02,0.157-0.041,0.334-0.066,0.532c-0.006,0.198,0.009,0.417,0.017,0.659c0.013,0.243,0.027,0.508,0.042,0.793
		c0.057,0.281,0.119,0.583,0.185,0.906c0.037,0.163,0.073,0.33,0.112,0.503c0.061,0.166,0.124,0.336,0.188,0.512
		c0.144,0.345,0.245,0.742,0.464,1.099c0.736,1.512,2.042,3.134,3.904,4.56c3.748,2.867,8.67,4.477,13.426,5.286
		C390.077,380.56,394.781,380.568,398.669,379.982z"/>
	<path d="M468.373,116.27c2.117,0.363,5.696,1.03,10.703,2.38c5.001,1.359,10.434,3.18,15.389,5.56
		c4.951,2.358,9.431,5.324,12.329,8.524c0,0,0.994,0.802,2.091,2.046c1.116,1.224,2.254,2.956,2.827,4.4
		c0.107,0.298,0.199,0.51,0.288,0.699v-2.059c-0.198-0.591-0.478-1.278-0.871-2.059c-0.802-1.565-2.148-3.442-4.212-5.372
		c-2.072-1.92-3.704-3.094-4.919-3.947c-1.221-0.844-2.027-1.382-2.647-1.773c-0.615-0.401-1.037-0.673-1.52-0.936
		c-0.481-0.267-1.011-0.553-1.868-0.923c-3.402-1.525-9.314-3.909-17.011-5.815c-3.853-0.941-6.638-1.191-8.618-1.256
		c-1.986-0.053-3.172,0.076-3.956,0.051C465.591,115.777,466.253,115.923,468.373,116.27z"/>
	<path d="M496.479,394.459c-0.397-0.399-0.816-0.722-1.185-1.03c-0.359-0.316-0.715-0.574-1.04-0.785
		c-0.602-0.457-1.134-0.693-1.435-0.64c-0.298,0.054-0.359,0.408-0.005,1.148c0.341,0.744,1.196,1.811,2.759,2.992
		c1.57,1.172,3.03,1.931,4.374,2.625c0.684,0.323,1.331,0.652,1.995,0.918c0.328,0.141,0.653,0.281,0.978,0.42
		c0.331,0.125,0.661,0.251,0.995,0.378c2.26,0.847,4.737,1.621,8.085,2.272v-1.262c-2.8-0.615-5.703-1.464-8.329-2.592
		C500.7,397.618,498.138,395.986,496.479,394.459z"/>
</g>
</svg>
