<?xml version="1.0" encoding="iso-8859-1"?>
<!-- Generator: Adobe Illustrator 22.1.0, SVG Export Plug-In . SVG Version: 6.00 Build 0)  -->
<svg version="1.1" id="_x36_" xmlns="http://www.w3.org/2000/svg" xmlns:xlink="http://www.w3.org/1999/xlink" x="0px" y="0px"
	 viewBox="0 0 512 512" style="enable-background:new 0 0 512 512;" xml:space="preserve">
<g>
	<path style="fill:#FFFFFF;" d="M233.482,311.283c0.233,0.097,0.532,0.241,0.801,0.361l-0.459-0.366
		c-0.049,0-0.103,0.008-0.151,0.008C233.607,311.287,233.547,311.284,233.482,311.283z"/>
	<path style="fill:#FFFFFF;" d="M1.557,306.694c0.739-0.271,1.196-0.482,1.632-0.634c0.439-0.148,0.829-0.298,1.404-0.518
		c0.289-0.107,0.623-0.234,1.014-0.424c0.391-0.188,0.87-0.385,1.404-0.7c1.093-0.584,2.534-1.479,4.211-3.086
		c1.641-1.642,2.611-3.215,3.235-4.488c0.283-0.649,0.543-1.204,0.687-1.697c0.09-0.243,0.171-0.463,0.243-0.66
		c0.057-0.202,0.108-0.381,0.152-0.538c0.013-0.041,0.021-0.05,0.034-0.088l0.313-2.725c-0.286-0.211-0.533-0.415-0.704-0.598
		c-0.537-0.556-0.596-0.906-0.341-1.057c0.527-0.31,2.18,0.229,4.116,1.236c1.932,1.025,4.736,1.971,7.83,1.912
		c3.094-0.021,6.319-1.139,8.963-2.691c1.33-0.764,3.076-2.024,4.784-3.693c1.722-1.653,3.418-3.679,4.879-5.734
		c0.73-1.028,1.411-2.055,2.016-3.047c0.399-0.658,0.785-1.296,1.156-1.907c0.111-0.187,0.222-0.371,0.331-0.552l0.165-0.276
		c0.067-0.007,0.151,0.103,0.226,0.149c0.314,0.247,0.619,0.487,0.916,0.721c0.292,0.238,0.66,0.508,0.871,0.649
		c0.176,0.126,0.366,0.224,0.536,0.331c0.342,0.212,0.68,0.374,0.974,0.526c0.601,0.289,1.079,0.476,1.386,0.565
		c1.213,0.38,3.091,1.001,4.741,1.59c1.586,0.584,2.916,1.21,3.004,1.904l1.597,0.277c0.37-0.912,0.839-1.698,1.476-2.233
		c0.176-0.134,0.356-0.253,0.535-0.346c0.202-0.074,0.371-0.166,0.564-0.184c0.374-0.073,0.693-0.006,0.935,0.063
		c0.476,0.184,0.667,0.418,0.76,0.529c0.087,0.115,0.051,0.146-0.083,0.084c-0.246-0.125-0.814-0.193-1.349,0.142
		c-0.517,0.34-0.913,1.112-1.368,2.396c-0.456,1.285-0.613,2.564-0.701,3.634c-0.079,1.079-0.053,1.979-0.007,2.639
		c0.049,0.662,0.004,0.846-0.078,1.362c-0.066,0.515-0.199,1.368-0.101,3.345c0.109,1.974,0.113,3.134,0.004,3.709
		c-0.102,0.574-0.369,0.574-0.595,0.012c-0.106-0.267-0.224-0.582-0.343-0.906l-1.267-0.466c0.049,0.049,0.134,0.103,0.179,0.15
		c0.583,0.636,0.786,1.16,0.888,1.397c0.094,0.241,0.041,0.241-0.132,0.008c-0.676-0.903-2.739-2.639-8.318-2.378
		c-2.793,0.158-5.266,0.877-7.264,1.678c-2.007,0.798-3.553,1.696-4.641,2.412c-1.082,0.729-1.401,0.908-2.281,1.431
		c-0.429,0.275-1.002,0.634-1.804,1.281c-0.781,0.66-1.863,1.567-2.989,3.123c-1.118,1.558-1.716,2.949-2.063,4.059
		c-0.049,0.184-0.091,0.347-0.136,0.514c0.047-0.001,0.1-0.004,0.144-0.004c0.871-0.002,1.186,0.201,1.094,0.49
		c-0.107,0.327-0.689,0.715-1.566,1.123c-0.014,0.13-0.029,0.258-0.04,0.363c-0.145,1.043-0.397,0.976-0.579-0.092
		c-0.619,0.256-1.334,0.517-2.124,0.774c-0.296,0.097-0.604,0.199-0.922,0.304c-0.316,0.111-0.629,0.26-0.959,0.395
		c-0.326,0.142-0.669,0.276-1.008,0.437c-0.333,0.174-0.673,0.353-1.02,0.535c-0.713,0.338-1.371,0.827-2.09,1.261
		c-0.343,0.241-0.675,0.507-1.02,0.764l-0.518,0.392l-0.486,0.438c-2.653,2.286-4.788,5.543-5.534,8.903
		c-0.464,1.658-0.503,4.096,0.082,6.703c0.588,2.609,1.773,5.357,3.276,7.74c1.494,2.391,3.3,4.41,4.941,5.775
		c1.628,1.393,3.067,2.122,3.715,2.39c0.662,0.251,1.484,0.6,2.378,0.897c0.893,0.296,1.846,0.554,2.743,0.754
		c1.146,0.253,2.211,0.38,2.909,0.616c-0.33-1.058-0.337-1.403-0.14-1.007c0.218,0.429,0.681,1.007,1.386,1.988
		c0.721,0.971,1.634,2.371,2.942,4.341c2.586,3.987,5.548,6.421,7.405,7.474c0.951,0.501,1.172,0.716,1.874,1.181
		c0.727,0.393,1.864,1.296,5.025,2.05c0.797,0.151,1.514,0.286,2.153,0.408c0.65,0.069,1.222,0.145,1.723,0.223
		c1.003,0.145,1.725,0.188,2.183,0.316c0.333,0.08,0.484,0.164,0.551,0.245c0.614-0.063,1.185-0.147,1.681-0.23
		c0,0,0.43-0.072,0.588-0.096l1.916-0.337c-0.075-0.703-0.044-1.391,0.191-1.937c0.311-0.767,0.802-1.212,1.172-1.445
		c0.377-0.247,0.673-0.294,0.861-0.283c0.19,0.015,0.281,0.111,0.301,0.259c0.047,0.299-0.23,0.764-0.448,1.357
		c-0.234,0.591-0.323,1.264-0.223,2.163c0.096,0.906,0.561,1.995,1.245,3.082c0.69,1.089,1.587,2.195,2.603,3.265
		c2.031,2.145,4.508,4.158,6.878,5.852c2.347,1.72,6.918,4.275,11.433,5.722c2.247,0.738,4.454,1.219,6.236,1.399
		c1.785,0.194,3.127,0.117,3.708-0.002c1.175-0.203,2.939-0.475,4.371-0.885c1.446-0.364,2.63-0.882,3.202-0.426
		c0.126,0.105,0.156,0.246,0.189,0.387l0.044-0.033l0.212-0.107c0.766-0.387,1.579-0.803,2.611-1.339l1.986-1.031l3.81,4.392
		c-0.037-0.104,0.003-0.101,0.194,0.126c0.522,0.619,1.413,1.471,3.039,2.645c1.619,1.18,3.95,2.711,7.532,4.433
		c3.596,1.702,7.073,2.688,10.066,3.242c2.996,0.565,5.514,0.707,7.356,0.7c0.921-0.002,1.513-0.003,2.055-0.004
		c0.542,0.018,1.033,0.022,1.756,0.02c0.723,0.007,1.677-0.026,3.128-0.187c1.449-0.156,3.409-0.481,6.001-1.378
		c2.578-0.935,4.461-2.045,5.847-2.996c0.665-0.51,1.264-0.917,1.706-1.329c0.235-0.194,0.447-0.369,0.637-0.525
		c0.181-0.166,0.342-0.314,0.482-0.443c0.244-0.218,0.412-0.344,0.558-0.442c0.683-0.863,1.32-1.641,1.881-2.32l1.859-2.247
		l2.196,1.919c0.269,0.234,0.542,0.46,0.842,0.693l0.151,0.117l0.133,0.136c0.141,0.143,0.435,0.345,0.669,0.506
		c0.209,0.137,0.531,0.344,0.936,0.585c0.501,0.193,1.073,0.401,1.788,0.642c1.759,0.585,4.206,1.388,7.788,2.151
		c3.586,0.765,6.913,0.911,9.708,0.782c2.802-0.139,5.083-0.557,6.727-0.964c0.822-0.204,1.351-0.334,1.834-0.454
		c0.487-0.108,0.932-0.193,1.576-0.358c0.647-0.151,1.496-0.38,2.76-0.838c1.264-0.453,2.949-1.162,5.102-2.494
		c4.263-2.75,6.157-5.18,7.165-6.169c0.129-0.135,0.201-0.187,0.3-0.276c0.245-0.417,0.46-0.796,0.621-1.093l0.366-0.677
		c-0.031-0.015-0.094-0.022-0.122-0.038c-0.519-0.301-0.604-0.592-0.441-0.825c0.168-0.242,0.553-0.398,1.048-0.522
		c0.5-0.121,1.12-0.178,1.852-0.15c2.946,0.2,7.831-0.836,11.784-2.129c1.989-0.613,5.399-2.156,8.159-4.108
		c1.381-0.967,2.6-2.017,3.449-2.96c0.853-0.941,1.368-1.733,1.524-2.122c0.333-0.709,0.852-1.813,1.301-2.769
		c0.124-0.227,0.218-0.449,0.313-0.657c0.099-0.206,0.237-0.396,0.326-0.568c0.207-0.339,0.487-0.598,0.839-0.658
		c0.116-0.02,0.204,0.026,0.304,0.042l0.024-0.136l1.205-0.659c0.707-0.387,1.388-0.77,2.069-1.164
		c0.525-0.303,0.967-0.565,1.347-0.791c0.253-0.15,1.114-0.652,1.114-0.652l0.436-0.079c0.294-0.126,1.208-0.721,1.654-1.011
		c0.364-0.342,0.77-0.73,1.276-1.206c0.316-0.301,0.665-0.631,1.049-0.995c0.374-0.369,0.781-0.773,1.228-1.213
		c0.866-0.896,1.87-1.954,2.786-3.344c0.913-1.393,1.392-2.908,1.446-4.359c0.029-1.459-0.328-2.81-0.758-4.01
		c-0.236-0.595-0.519-1.148-0.758-1.68c-0.286-0.517-0.581-0.997-0.846-1.453c-0.554-0.9-1.117-1.641-1.622-2.246
		c-1.019-1.204-1.296-1.554-2.088-2.515c-0.417-0.46-0.954-1.086-1.891-1.934c-0.941-0.838-2.25-1.952-4.309-3.162
		c-4.139-2.395-6.944-3.057-8.196-3.52c-0.204-0.069-0.306-0.123-0.434-0.181l-0.704-0.068c-0.01,0.132-0.019,0.265-0.037,0.378
		c-0.05,0.31-0.129,0.548-0.226,0.72c-0.194,0.343-0.46,0.418-0.719,0.32c-0.26-0.097-0.515-0.359-0.689-0.702
		c-0.086-0.172-0.152-0.365-0.186-0.574c-0.027-0.209-0.036-0.435-0.046-0.679c-0.015-0.485,0.055-1.06-0.077-1.669
		c-0.047-0.307-0.096-0.628-0.147-0.956c-0.092-0.322-0.186-0.652-0.284-0.988l-0.147-0.509l-0.207-0.495
		c-0.143-0.331-0.27-0.672-0.424-1.001c-0.359-0.631-0.658-1.299-1.069-1.864c-0.359-0.6-1.001-1.335-1.785-2.073
		c-0.807-0.715-1.77-1.418-2.774-1.929c-2.01-1.043-4.026-1.359-4.599-1.184c-0.291,0.068-0.643,0.032-1.015,0.059
		c-0.371,0.017-0.757-0.012-1.121-0.1c-0.714-0.069-1.38-0.372-1.569-1.057c-0.176-0.632,0.111-1.083,0.674-1.382
		c-0.677-0.172-0.868-0.311-0.582-0.311c0.633-0.014,1.923-0.646,5.071-0.726c3.156-0.091,5.617-0.659,6.939-1.181
		c0.662-0.26,0.859-0.279,1.399-0.393c0.271-0.057,0.621-0.147,1.134-0.346c0.503-0.206,1.183-0.522,1.936-1.165
		c1.453-1.318,1.753-2.519,2.081-3.055c0.284-0.526,0.519-0.462,0.553,0.129l1.03-3.092l2.267,2.187
		c0.779,0.596,2.444,1.508,5.336,4.182c3.223,2.995,6.196,4.843,8.023,5.662c0.927,0.387,1.144,0.58,1.826,0.971
		c0.692,0.36,1.792,1.085,4.698,1.929c2.911,0.803,4.697,1.186,5.494,1.558c0.112,0.049,0.161,0.09,0.236,0.135
		c0.131,0.017,0.258,0.034,0.372,0.034c0.037,0,0.225-0.01,0.225-0.01s2.529-0.086,2.889-0.096l1.354-0.038
		c0.014-0.131,0.024-0.272,0.044-0.379c0.131-0.704,0.381-0.92,0.652-0.81c0.272,0.111,0.571,0.539,0.799,1.146
		c0.092,0.308,0.277,0.646,0.386,1.03c0.067,0.189,0.101,0.396,0.175,0.6c0.077,0.203,0.147,0.416,0.209,0.64
		c0.235,0.901,0.733,1.873,1.412,2.843c0.695,0.966,1.651,1.862,2.721,2.693c1.101,0.799,2.331,1.511,3.612,2.122
		c1.291,0.589,2.606,1.122,3.902,1.542c2.566,0.921,7.371,1.771,11.821,2.031c4.45,0.294,8.523,0.141,9.687-0.039
		c2.307-0.353,7.291-0.339,7.626,1.034c0.112-0.011,0.217-0.025,0.333-0.043c0,0,1.392-0.209,1.48-0.221l0.504-0.072
		c-0.526-0.578-0.953-1.134-1.267-1.633c-0.699-1.082-0.959-1.884-1.077-2.258c-0.114-0.378-0.057-0.36,0.146,0.044
		c0.399,0.809,1.22,1.953,2.918,3.377c1.71,1.406,4.396,2.989,8.617,4.323c4.233,1.322,8.26,1.767,11.665,2.014
		c1.708,0.115,3.271,0.167,4.671,0.187c1.398,0.011,2.579-0.024,3.601-0.143c2.028-0.224,2.603-0.294,4.198-0.5
		c0.792-0.135,1.844-0.297,3.421-0.731c1.569-0.443,3.686-1.11,6.475-2.463c2.786-1.357,4.898-2.657,6.518-3.681
		c0.809-0.515,1.497-0.96,2.065-1.347c0.579-0.375,1.046-0.678,1.407-0.913c0.877-0.551,1.151-0.591,0.991-0.306l0.306-0.194
		l1.311,0.478c0.52,0.19,1.065,0.415,1.666,0.667l1.179,0.515l0.238,0.061c0.542-0.325,1.719-0.436,3.185-0.172
		c1.726,0.325,4.045,0.559,6.54,0.588c2.495,0.048,5.161-0.111,7.595-0.362c2.429-0.238,6.721-1.158,10.359-2.754
		c3.684-1.527,6.508-3.763,7.148-4.538c0.664-0.779,1.766-1.848,2.749-2.747c0.911-0.845,1.758-1.509,2.411-1.357
		c0.257-0.371,0.514-0.742,0.732-1.048l1.014-1.421c-0.004-0.002-0.01-0.005-0.014-0.007c-0.782-0.483-1.201-0.918-1.391-1.128
		c-0.188-0.21-0.138-0.227,0.127-0.047c1.077,0.709,3.563,1.635,9.773,1.724c3.121,0.031,5.924-0.441,8.249-0.986
		c2.33-0.558,4.183-1.257,5.503-1.844c0.666-0.283,1.083-0.483,1.478-0.64c0.396-0.152,0.759-0.284,1.279-0.506
		c0.528-0.206,1.207-0.515,2.21-1.06c0.986-0.562,2.316-1.37,3.844-2.842c1.521-1.477,2.399-2.909,2.902-4.084
		c0.213-0.598,0.444-1.107,0.53-1.562c0.063-0.227,0.119-0.43,0.17-0.614c0.05-0.185,0.063-0.352,0.098-0.498
		c0.074-0.363,0.148-0.558,0.219-0.674l-0.005-0.135l0.506-4.661c-0.149-0.404-0.046-0.635,0.169-0.694
		c0.282-0.084,0.72,0.058,1.236,0.232c0.523,0.18,1.132,0.371,1.874,0.596c1.496,0.481,3.784,0.321,6.111-0.275
		c2.344-0.585,4.779-1.54,6.944-2.541c1.085-0.496,2.519-1.327,4.013-2.399c1.486-1.083,2.99-2.455,4.251-3.91
		c1.266-1.453,2.273-2.992,2.934-4.29c0.638-1.314,0.961-2.36,1.038-2.841c0.153-0.972,0.463-2.39,0.734-3.618
		c0.244-1.221,0.48-2.3,1.179-2.511c0.151-0.043,0.279-0.004,0.409,0.027l-0.003-0.071l-0.072-3.671l0.661-0.079
		c-0.947-0.068-1.151-0.168-0.581-0.181c0.406-0.018,0.912-0.082,1.562-0.174c0.324-0.052,0.681-0.155,1.081-0.243
		c0.397-0.105,0.844-0.166,1.318-0.34c0.475-0.162,1.006-0.295,1.568-0.509c0.279-0.111,0.57-0.228,0.874-0.351
		c0.307-0.114,0.624-0.241,0.938-0.411c0.319-0.157,0.652-0.32,0.999-0.49c0.337-0.187,0.674-0.406,1.034-0.617
		c0.369-0.198,0.711-0.465,1.076-0.73c0.183-0.132,0.369-0.266,0.559-0.403c0.177-0.153,0.356-0.309,0.54-0.469
		c2.964-2.544,4.479-5.945,4.834-8.861c0.134-0.729,0.118-1.44,0.152-2.108c-0.049-0.669-0.04-1.308-0.154-1.898
		c-0.098-0.592-0.176-1.149-0.338-1.649c-0.133-0.507-0.261-0.974-0.441-1.383c-0.298-0.839-0.561-1.346-0.767-1.827
		c-0.184-0.492-0.431-0.901-0.739-1.533c-0.143-0.323-0.384-0.653-0.651-1.074c-0.139-0.206-0.276-0.443-0.457-0.681
		c-0.189-0.233-0.395-0.487-0.621-0.764c-0.927-1.08-2.286-2.512-4.624-3.947c-2.338-1.435-4.421-2.192-6.005-2.822
		c-0.811-0.269-1.499-0.518-2.079-0.729c-0.588-0.175-1.061-0.331-1.426-0.467c-0.324-0.12-0.53-0.217-0.686-0.303
		c-0.096-0.017-0.205-0.038-0.299-0.054c-1.465-0.224-2.715-0.408-3.788-0.568l-0.339-0.05c-1.201-0.178-2.168-0.321-2.955-0.448
		l-0.829-0.134c0.024,0.094,0.053,0.194,0.066,0.275c0.159,1.079-0.161,0.927-0.62,0.038c-0.504-0.895-1.469-1.888-2.335-2.581
		c-0.869-0.697-1.594-1.151-1.594-1.151c-4.217-3.969-12.06-7.579-18.729-8.707c-3.341-0.575-5.684-0.331-6.993,0.071
		c-0.665,0.185-1.074,0.39-1.299,0.454c-0.007,0.002-0.004-0.001-0.011,0.001l-0.555,0.325c0.024,0.546-0.046,0.965-0.295,1.113
		c-0.371,0.22-0.796,0.042-1.209-0.332c-0.191-0.194-0.43-0.424-0.68-0.691c-0.123-0.134-0.24-0.281-0.366-0.432
		c-0.143-0.145-0.286-0.298-0.429-0.459c-1.127-1.289-2.756-2.859-4.197-4.091c-1.406-1.246-4.587-3.219-8.724-4.695
		c-4.118-1.503-9.106-2.558-13.651-2.908c-4.321-0.317-7.271-0.176-10.013,0.166c-2.727,0.382-5.313,0.928-8.613,2.402
		c-0.831,0.354-1.498,0.688-2.068,0.922c-0.578,0.219-1.012,0.423-1.374,0.519c-0.717,0.203-1.075,0.103-1.104-0.185
		c0-0.001,0.002-0.004,0.002-0.005l-0.05,0.031l-0.818,0.378c0.471,0.332,0.902,0.668,1.284,0.957
		c0.566,0.44,1.034,0.83,1.373,1.223c0.352,0.374,0.624,0.686,0.823,0.935c0.794,0.999,0.436,1.03-0.593,0.257
		c-0.259-0.191-0.54-0.398-0.832-0.614c-0.147-0.106-0.297-0.214-0.449-0.323c-0.163-0.094-0.329-0.189-0.495-0.284
		c-0.668-0.375-1.338-0.759-1.949-1.079c-1.27-0.543-2.247-0.961-2.247-0.961c-0.786-0.427-1.648-0.813-2.531-1.24
		c-0.91-0.366-1.869-0.717-2.855-1.071c-1.013-0.274-2.037-0.615-3.11-0.848c-1.079-0.203-2.159-0.496-3.283-0.614
		c-4.461-0.667-9.164-0.652-13.371-0.151c-4.214,0.506-7.086,1.345-8.793,1.81c-1.694,0.51-2.277,0.57-1.679,0.316
		c0.299-0.127,0.654-0.325,1.115-0.592c0.192-0.11,0.415-0.242,0.648-0.374l-2.08,0.884l-11.895,2.879l-0.619-1.261
		c-0.357,0.23-0.78,0.032-1.23-0.382c-0.478-0.419-1.037-1.045-1.741-1.72c-1.376-1.367-3.481-2.85-5.347-3.927
		c-0.919-0.549-2.362-1.223-4.215-1.827c-1.854-0.601-4.11-1.129-6.59-1.486c-4.961-0.724-10.794-0.732-15.965-0.07
		c-4.914,0.635-8.183,1.498-11.134,2.583c-1.471,0.557-2.861,1.192-4.272,2.018c-1.396,0.833-2.84,1.868-4.138,3.345
		c-1.27,1.494-1.821,2.599-2.245,3.259c-0.4,0.665-0.7,0.896-0.934,0.704c-0.106-0.09-0.196-0.291-0.24-0.577l-0.14,0.509
		l-2.924,5.245l-3.356-1.307l-0.02-0.015c-0.009,0.158-0.324,0.092-0.927-0.243c-0.501-0.266-1.066-0.604-1.679-0.866
		c-0.627-0.221-1.266-0.444-1.839-0.646c-0.278-0.11-0.555-0.174-0.81-0.215c-0.251-0.048-0.474-0.092-0.661-0.128
		c-0.371-0.071-0.596-0.114-0.596-0.114c-2.901-1.004-6.793-1.263-10.501-0.103c-3.715,1.084-7.21,3.272-9.737,5.914
		c-2.557,2.615-3.922,4.869-4.699,6.202c-0.779,1.344-1.131,1.735-0.909,1.208c0.111-0.262,0.209-0.605,0.331-1.059
		c0.007-0.025,0.016-0.059,0.022-0.085c-0.031,0.074-0.074,0.143-0.105,0.217l-0.434,1.115l-0.347,0.692l-1.287,2.52l-2.524-1.28
		l-0.999-0.51c-0.41-0.208-0.818-0.427-1.207-0.649c-0.437,0.578-1.206,0.598-2.019,0.304c-0.921-0.281-1.951-0.87-2.801-1.398
		c-0.824-0.569-2.641-1.253-4.881-1.654c-2.239-0.413-4.887-0.49-7.251-0.274c-2.251,0.183-3.752,0.53-5.152,0.874
		c-1.376,0.423-2.677,0.866-4.319,1.826c-0.835,0.446-1.392,0.715-1.819,0.727c-0.406,0.027-0.644-0.133-0.723-0.383
		c-1.096,0.567-2.106,1.082-2.956,1.507l-2.24,1.116c0.045,0.22,0.1,0.463,0.121,0.623c0.13,1.017-0.188,0.903-0.623-0.005
		c-0.22-0.456-0.461-0.988-0.834-1.468c-0.361-0.484-0.654-1.004-1.047-1.396c-0.365-0.4-0.687-0.755-0.919-1.01
		c-0.222-0.256-0.39-0.388-0.39-0.388c-1.624-2.284-4.175-4.644-7.113-6.626c-2.936-1.993-6.252-3.626-9.38-4.715
		c-3.132-1.108-5.437-1.397-6.806-1.578c-1.374-0.109-1.84-0.253-1.327-0.285c0.255-0.016,0.568-0.079,0.983-0.169
		c0.208-0.046,0.441-0.097,0.701-0.154c0.262-0.041,0.554-0.054,0.881-0.081c0.238-0.013,0.499-0.027,0.773-0.043
		c-0.026-0.015-0.059-0.03-0.083-0.044c-0.51-0.321-0.327-0.553,0.194-0.559c0.533-0.013,1.206-0.219,1.632-0.512
		c0.214-0.155,0.384-0.29,0.492-0.415c0.111-0.111,0.171-0.184,0.171-0.184c1.119-0.555,2.085-2.088,2.653-3.821
		c0.596-1.739,0.931-3.665,1.245-5.419c0.587-3.514,1.139-4.989,1.169-4.44c-0.011,0.292,0.191,0.788,0.335,1.594l2.929-0.591
		l1.561-0.33c0.009-0.002,0.024-0.01,0.033-0.013c0.001-0.002-0.005-0.003-0.004-0.005c0.041-0.154,0.581-0.417,1.444-0.936
		c0.878-0.493,1.794-1.244,2.574-2.117c0.779-0.877,1.411-1.889,1.8-2.866c0.383-0.979,0.62-1.873,0.702-2.532
		c0.063-0.324,0.085-0.589,0.097-0.772c0.016-0.182,0.024-0.281,0.024-0.281c0.463-2.677,0.063-5.829-1.19-8.818
		c-1.232-2.982-3.329-5.874-6.174-7.747c-0.711-0.475-1.447-0.83-2.293-1.206c-0.819-0.38-1.646-0.743-2.487-1.075
		c-1.668-0.697-3.381-1.288-5.088-1.846c-3.424-1.093-6.887-1.884-10.216-2.481c-6.668-1.162-11.443-1.463-14.246-1.743
		c-2.811-0.241-3.671-0.403-2.644-0.4c1.028,0.007,2.568-0.166,5.145-0.233c0.391-0.008,0.816-0.014,1.258-0.017
		c-0.174-0.138-0.319-0.347-0.435-0.612c-0.18-0.498-0.395-1.176-0.56-1.943c-0.38-1.532-1.116-3.419-1.891-4.967
		c-0.73-1.549-2.876-4.286-6.161-6.727c-3.245-2.475-7.433-4.742-11.38-6.363c-3.746-1.561-6.391-2.362-8.903-3.008
		c-2.515-0.6-4.945-1.084-8.331-1.146c-1.686-0.016-2.783-0.051-3.456-0.16c-0.671-0.105-0.944-0.341-0.865-0.616
		c0.006-0.021,0.048-0.045,0.058-0.067c-0.021,0.003-0.041,0.002-0.062,0.005l-0.704,0.238l-2.207,0.735
		c0.066,0.522,0.078,0.981,0.044,1.321c-0.19,1.643-0.459,1.28-0.589-0.296c-0.082-0.391-0.204-0.808-0.316-1.24
		c-0.144-0.423-0.369-0.839-0.552-1.264c-0.233-0.406-0.513-0.79-0.758-1.172c-0.292-0.357-0.601-0.687-0.876-1.004
		c-0.625-0.582-1.166-1.093-1.626-1.392c-0.439-0.314-0.704-0.505-0.704-0.505c-3.415-2.898-8.694-4.998-14.228-6.513
		c-5.566-1.52-11.495-2.492-16.899-3.176c-8.89-1.117-13.374-1.184-13.815-1.293c-0.323,0.041-0.701,0.064-0.991,0.114l-0.066,0.011
		c-0.86,0.128-1.587,0.241-2.236,0.343l-1.237,0.189c0.328,0.748,0.428,1.313,0.201,1.582c-0.283,0.334-0.768,0.24-1.344-0.112
		c-0.556-0.368-1.303-0.938-2.114-1.633c-1.64-1.38-3.836-3.067-5.673-4.408c-1.814-1.353-5.72-3.495-10.67-5.163
		c-4.929-1.717-10.856-2.943-16.253-3.406c-5.131-0.449-8.636-0.291-11.89,0.09c-3.23,0.436-6.329,1.065-10.115,2.984
		c-0.474,0.235-0.875,0.501-1.266,0.703c-0.395,0.199-0.73,0.408-1.032,0.597c-0.306,0.184-0.584,0.34-0.839,0.471
		c-0.249,0.135-0.45,0.273-0.644,0.368c-0.758,0.396-1.168,0.392-1.234,0.103c-0.035-0.154,0.045-0.401,0.206-0.703l-0.501,0.401
		L0,119.542v187.701C0.569,307.059,1.101,306.873,1.557,306.694z"/>
	<path style="fill:#FFFFFF;" d="M186.086,217.347l0.241-0.334c-0.215,0.101-0.428,0.187-0.635,0.246
		C185.81,217.276,185.964,217.325,186.086,217.347z"/>
	<path d="M498.351,236.297c0.558,0.244,1.148,0.503,1.756,0.78l1.26,0.688c0.313,0.17,0.59,0.321,0.854,0.508l1.142,0.762
		c0.231,0.156,0.45,0.336,0.682,0.527c0.126,0.105,0.259,0.213,0.395,0.318l0.537,0.434l0.546,0.527
		c0.105,0.106,0.214,0.21,0.324,0.313c0.224,0.212,0.453,0.429,0.645,0.66l0.087,0.1c2.601,2.849,4.178,6.481,4.442,10.224
		c0.135,1.679-0.034,3.404-0.501,5.154c-0.474,1.711-1.129,3.2-1.937,4.396c-0.934,1.397-1.86,2.467-2.841,3.283l-0.066,0.055
		l-0.063,0.059c-0.331,0.312-0.691,0.565-1.071,0.833c-0.166,0.118-0.337,0.238-0.503,0.363l-0.007,0.005
		c-0.561,0.362-1.181,0.704-1.679,0.98l-0.051,0.026c-1.911,0.95-3.985,1.575-6.109,1.831l-1.887,0.227
		c0.394,0.028,0.88,0.052,1.549,0.06c1.131-0.047,2.691-0.131,4.581-0.711c1.881-0.556,4.135-1.565,6.281-3.467
		c0.283-0.22,0.521-0.491,0.774-0.75c0.246-0.265,0.513-0.516,0.743-0.8c0.444-0.582,0.929-1.145,1.299-1.797
		c0.819-1.25,1.413-2.666,1.841-4.129c0.454-1.463,0.594-3.011,0.627-4.539c-0.008-1.536-0.244-3.058-0.632-4.521
		c-0.832-2.917-2.415-5.51-4.301-7.563c-1.891-2.064-4.08-3.586-6.163-4.715c0,0-0.08-0.036-0.226-0.1
		c-0.143-0.07-0.362-0.148-0.634-0.242c-0.55-0.177-1.287-0.49-2.156-0.724c-0.871-0.227-1.82-0.528-2.785-0.689
		c-0.476-0.097-0.948-0.195-1.401-0.287c-0.456-0.068-0.894-0.132-1.297-0.192c-1.256-0.189-1.68-0.101-1.132,0.199
		c1.824,0.32,4.102,0.743,6.713,1.756L498.351,236.297z"/>
	<path d="M493.384,235.153c0.58,0.212,1.269,0.46,2.079,0.729c1.584,0.63,3.667,1.387,6.005,2.822
		c2.339,1.435,3.697,2.867,4.624,3.947c0.226,0.278,0.431,0.531,0.621,0.764c0.181,0.238,0.318,0.475,0.457,0.681
		c0.267,0.421,0.508,0.751,0.651,1.074c0.308,0.631,0.554,1.041,0.739,1.533c0.206,0.481,0.469,0.988,0.767,1.827
		c0.18,0.41,0.309,0.876,0.441,1.383c0.161,0.501,0.24,1.057,0.338,1.649c0.114,0.59,0.105,1.228,0.154,1.898
		c-0.034,0.669-0.018,1.379-0.152,2.108c-0.356,2.917-1.871,6.318-4.834,8.861c-0.184,0.16-0.363,0.316-0.54,0.469
		c-0.19,0.137-0.376,0.271-0.559,0.403c-0.364,0.265-0.707,0.532-1.076,0.73c-0.36,0.211-0.697,0.43-1.034,0.617
		c-0.347,0.17-0.68,0.334-0.999,0.49c-0.314,0.171-0.631,0.297-0.938,0.411c-0.304,0.123-0.596,0.239-0.874,0.351
		c-0.561,0.214-1.093,0.347-1.568,0.509c-0.474,0.174-0.921,0.234-1.318,0.34c-0.4,0.088-0.757,0.191-1.081,0.243
		c-0.65,0.092-1.156,0.157-1.562,0.174c-0.57,0.013-0.366,0.113,0.581,0.181l1.887-0.227c2.124-0.256,4.199-0.881,6.109-1.831
		l0.051-0.026c0.497-0.275,1.118-0.618,1.679-0.98l0.007-0.005c0.166-0.125,0.336-0.245,0.503-0.363
		c0.38-0.269,0.74-0.522,1.071-0.833l0.063-0.059l0.066-0.055c0.981-0.816,1.907-1.886,2.841-3.283
		c0.808-1.195,1.463-2.684,1.937-4.396c0.467-1.751,0.636-3.476,0.501-5.154c-0.264-3.744-1.841-7.375-4.442-10.224l-0.087-0.1
		c-0.192-0.231-0.421-0.447-0.645-0.66c-0.11-0.103-0.219-0.208-0.324-0.313l-0.546-0.527l-0.537-0.434
		c-0.136-0.105-0.269-0.214-0.395-0.318c-0.232-0.19-0.451-0.37-0.682-0.527l-1.142-0.762c-0.264-0.187-0.541-0.338-0.854-0.508
		l-1.26-0.688c-0.608-0.278-1.199-0.536-1.756-0.78l-0.366-0.158c-2.611-1.012-4.889-1.435-6.713-1.756
		c0.156,0.086,0.362,0.182,0.686,0.303C492.323,234.822,492.797,234.979,493.384,235.153z"/>
	<path d="M493.733,275.046l-0.005,0.066c-0.011,0.156-0.024,0.316-0.031,0.483l-0.001,0.023c-0.024,0.318-0.094,0.706-0.169,1.116
		c-0.019,0.107-0.063,0.358-0.09,0.516c-0.041,0.15-0.106,0.385-0.134,0.494c-0.116,0.445-0.249,0.952-0.453,1.464l-0.029,0.076
		c-0.619,1.689-1.529,3.363-2.704,4.975c-1.666,2.254-3.579,4.176-5.836,5.864c-1.996,1.5-4.141,2.75-6.563,3.827
		c-1.991,0.886-3.886,1.55-5.639,1.976c-1.411,0.343-2.713,0.517-3.868,0.517c-0.182,0-0.359-0.004-0.532-0.013
		c-0.569-0.027-1.118-0.112-1.632-0.253l-3.209-0.877l-0.01,0.096c0.037,0.101,0.078,0.204,0.151,0.328
		c0.349,0.597,1.374,1.46,3.003,1.68c1.604,0.207,2.871,0.004,4.014-0.195c1.141-0.214,2.156-0.492,3.185-0.809
		c2.051-0.651,4.177-1.425,7.138-2.962c1.539-0.851,3.139-1.809,4.595-2.943c1.462-1.123,2.824-2.353,4-3.597
		c2.336-2.509,3.868-5.063,4.626-6.445c0.8-1.356,1.39-3.336,1.301-4.927c-0.026-0.397-0.071-0.762-0.141-1.082
		c-0.1-0.322-0.219-0.596-0.354-0.81c-0.174-0.276-0.389-0.405-0.624-0.462l0.043,1.047
		C493.778,274.48,493.754,274.781,493.733,275.046z"/>
	<path d="M492.132,275.655c-0.271,1.228-0.581,2.647-0.734,3.618c-0.078,0.48-0.4,1.527-1.038,2.841
		c-0.661,1.298-1.668,2.837-2.934,4.29c-1.261,1.454-2.766,2.826-4.251,3.91c-1.494,1.071-2.928,1.902-4.013,2.399
		c-2.166,1.001-4.601,1.957-6.944,2.541c-2.328,0.596-4.616,0.756-6.111,0.275c-0.742-0.225-1.351-0.416-1.874-0.596
		c-0.516-0.175-0.954-0.317-1.236-0.232c-0.215,0.059-0.319,0.29-0.169,0.694l0.01-0.096l3.209,0.877
		c0.514,0.141,1.063,0.225,1.632,0.253c0.173,0.008,0.35,0.013,0.532,0.013c1.155,0,2.456-0.174,3.868-0.517
		c1.753-0.425,3.649-1.09,5.639-1.976c2.423-1.076,4.568-2.326,6.563-3.827c2.257-1.688,4.17-3.61,5.836-5.864
		c1.175-1.612,2.085-3.285,2.704-4.975l0.029-0.076c0.204-0.512,0.337-1.018,0.453-1.464c0.029-0.109,0.093-0.344,0.134-0.494
		c0.027-0.158,0.071-0.409,0.09-0.516c0.075-0.41,0.145-0.798,0.169-1.116l0.001-0.023c0.008-0.167,0.02-0.327,0.031-0.483
		l0.005-0.066c0.021-0.265,0.045-0.566,0.03-0.828l-0.043-1.047c-0.13-0.031-0.258-0.07-0.409-0.027
		C492.612,273.356,492.376,274.434,492.132,275.655z"/>
	<path d="M462.324,301.708c-0.017,0.131-0.029,0.236-0.038,0.344c-0.176,1.433-0.748,2.875-1.654,4.17
		c-0.882,1.266-2.031,2.436-3.514,3.58c-1.29,0.983-2.615,1.739-3.739,2.347c-2.435,1.253-4.555,2.005-6.124,2.518
		c-0.711,0.225-1.267,0.39-1.766,0.496l-0.068,0.015c-0.443,0.101-0.863,0.196-1.482,0.295l-0.069,0.012
		c-0.72,0.133-1.615,0.268-2.735,0.413c-0.936,0.11-2.734,0.322-5.169,0.322l-0.408-0.002c-2.154-0.021-4.141-0.305-5.894-0.846
		l-2.132-0.67l-0.183,0.256c1.542,0.98,4.565,2.045,8.918,2.096c4.357,0.06,9.106-0.811,13.433-2.399
		c4.322-1.583,8.269-3.915,10.839-6.794c0,0,0.041-0.058,0.114-0.164c0.076-0.104,0.181-0.257,0.294-0.467
		c0.232-0.41,0.574-0.961,0.847-1.649c0.607-1.344,0.931-3.126,0.893-4.431c-0.059-0.913-0.201-1.219-0.361-0.959l0.033,0.926
		C462.371,301.342,462.348,301.52,462.324,301.708z M462.286,302.057l-0.006,0.05l0.006-0.052
		C462.286,302.056,462.286,302.056,462.286,302.057z"/>
	<polygon points="462.286,302.057 462.286,302.054 462.28,302.107 	"/>
	<path d="M462.106,300.865c-0.035,0.146-0.048,0.313-0.098,0.498c-0.051,0.184-0.107,0.387-0.17,0.614
		c-0.086,0.455-0.317,0.964-0.53,1.562c-0.503,1.174-1.381,2.607-2.902,4.084c-1.527,1.472-2.858,2.281-3.844,2.842
		c-1.003,0.545-1.682,0.854-2.21,1.06c-0.52,0.221-0.883,0.354-1.279,0.506c-0.394,0.157-0.811,0.357-1.478,0.64
		c-1.32,0.587-3.173,1.286-5.503,1.844c-2.325,0.545-5.129,1.017-8.249,0.986c-6.209-0.089-8.696-1.015-9.773-1.724
		c-0.265-0.181-0.315-0.163-0.127,0.047c0.189,0.21,0.609,0.645,1.391,1.128c0.004,0.002,0.01,0.005,0.014,0.007l0.183-0.256
		l2.132,0.67c1.753,0.541,3.741,0.825,5.894,0.846l0.408,0.002c2.436,0,4.233-0.212,5.169-0.322c1.12-0.145,2.015-0.28,2.735-0.413
		l0.069-0.012c0.619-0.098,1.039-0.194,1.482-0.295l0.068-0.015c0.499-0.106,1.055-0.272,1.766-0.496
		c1.568-0.512,3.689-1.265,6.124-2.518c1.124-0.608,2.449-1.364,3.739-2.347c1.484-1.144,2.632-2.315,3.514-3.58
		c0.906-1.295,1.478-2.736,1.654-4.17c0.009-0.107,0.021-0.213,0.038-0.344c0.024-0.189,0.046-0.366,0.034-0.591l-0.033-0.926
		C462.253,300.307,462.179,300.502,462.106,300.865z"/>
	<path d="M422.079,321.526c-1.763,1.548-3.865,2.911-6.24,4.043c-2.928,1.398-6.305,2.474-10.038,3.198
		c-3.549,0.679-7.178,1.024-10.779,1.024c-0.277,0-0.555-0.003-0.83-0.006c-1.865-0.03-3.648-0.158-5.288-0.38
		c-0.756-0.097-1.538-0.234-2.48-0.435c-0.136-0.028-0.262-0.061-0.388-0.093l-0.422-0.108c-0.093,0.056-0.21,0.105-0.261,0.174
		c-0.164,0.234-0.043,0.532,0.501,0.841c0.542,0.304,1.512,0.594,2.98,0.688c2.928,0.173,4.971,0.117,7.144,0.074
		c2.169-0.079,4.469-0.168,7.823-0.664c3.529-0.518,7.383-1.495,10.62-2.741c3.253-1.209,5.842-2.726,7.224-3.492
		c1.393-0.748,2.95-2.059,3.816-3.375c0.214-0.331,0.395-0.648,0.532-0.945c0.121-0.311,0.2-0.597,0.229-0.848
		c0.059-0.505-0.086-0.868-0.486-1.043c-0.041-0.018-0.092,0.001-0.136-0.009c-0.09,0.131-0.163,0.231-0.259,0.371
		C424.438,319.168,423.378,320.376,422.079,321.526z"/>
	<path d="M423.19,318.782c-0.983,0.899-2.086,1.969-2.749,2.747c-0.639,0.776-3.464,3.012-7.148,4.538
		c-3.639,1.596-7.931,2.517-10.359,2.754c-2.434,0.25-5.1,0.41-7.595,0.362c-2.495-0.028-4.814-0.263-6.54-0.588
		c-1.466-0.264-2.643-0.154-3.185,0.172l0.422,0.108c0.126,0.032,0.253,0.065,0.388,0.093c0.942,0.201,1.724,0.338,2.48,0.435
		c1.639,0.222,3.423,0.35,5.288,0.38c0.275,0.004,0.553,0.006,0.83,0.006c3.601,0,7.231-0.345,10.779-1.024
		c3.733-0.724,7.11-1.8,10.038-3.198c2.375-1.131,4.477-2.494,6.24-4.043c1.299-1.151,2.358-2.358,3.263-3.73
		c0.096-0.14,0.169-0.24,0.259-0.371C424.949,317.274,424.101,317.937,423.19,318.782z"/>
	<path d="M370.836,333.365c-1.549,0.834-2.704,1.405-3.842,1.901c-1.104,0.486-2.094,0.868-3.429,1.326l-0.179,0.059
		c-0.684,0.222-1.439,0.467-2.361,0.696l-0.098,0.026c-0.491,0.141-1.049,0.255-1.626,0.371l-0.081,0.017
		c-0.626,0.145-1.343,0.241-2.036,0.335l-0.576,0.081l-1.92,0.131l-0.559-0.002c-0.753-0.002-1.566-0.004-2.383-0.057
		c-2.083-0.105-4.558-0.259-7.448-0.628c-5.405-0.684-9.996-2.002-13.279-3.812c-1.006-0.551-1.931-1.172-2.756-1.85l-0.966-0.794
		l-0.734,0.105c0.622,0.682,1.388,1.396,2.349,2.101c1.781,1.287,4.168,2.494,7.107,3.41c2.939,0.921,6.109,1.498,9.328,1.853
		c1.611,0.177,3.235,0.302,4.856,0.389c0.809,0.035,1.619,0.071,2.426,0.106c0.818,0.007,1.653,0.027,2.471-0.009
		c3.284-0.144,6.463-0.764,9.366-1.662c2.904-0.909,5.541-2.065,7.856-3.254c0,0,1.299-0.826,2.894-2.002
		c1.599-1.178,3.447-2.752,4.788-3.966c0.536-0.495,0.802-0.806,0.909-0.997l-4.266,2.697
		C374.562,331.239,372.602,332.395,370.836,333.365z"/>
	<path d="M379.922,327.546c-0.362,0.235-0.828,0.538-1.407,0.913c-0.568,0.387-1.256,0.832-2.065,1.347
		c-1.621,1.024-3.733,2.324-6.518,3.681c-2.789,1.353-4.906,2.021-6.475,2.463c-1.576,0.434-2.629,0.596-3.421,0.731
		c-1.596,0.206-2.171,0.276-4.198,0.5c-1.022,0.118-2.202,0.154-3.601,0.143c-1.4-0.02-2.964-0.073-4.671-0.187
		c-3.406-0.247-7.433-0.692-11.665-2.014c-4.221-1.334-6.907-2.917-8.617-4.323c-1.698-1.424-2.518-2.568-2.918-3.377
		c-0.203-0.404-0.26-0.422-0.146-0.044c0.118,0.374,0.378,1.176,1.077,2.258c0.314,0.499,0.741,1.055,1.267,1.633l0.734-0.105
		l0.966,0.794c0.825,0.677,1.749,1.299,2.756,1.85c3.283,1.811,7.874,3.129,13.279,3.812c2.889,0.368,5.365,0.523,7.448,0.628
		c0.817,0.053,1.63,0.055,2.383,0.057l0.559,0.002l1.92-0.131l0.576-0.081c0.693-0.093,1.409-0.19,2.036-0.335l0.081-0.017
		c0.576-0.115,1.135-0.23,1.626-0.371l0.098-0.026c0.921-0.229,1.676-0.474,2.361-0.696l0.179-0.059
		c1.335-0.458,2.326-0.84,3.429-1.326c1.138-0.495,2.293-1.067,3.842-1.901c1.766-0.97,3.726-2.126,5.811-3.428l4.266-2.697
		C381.072,326.955,380.799,326.995,379.922,327.546z"/>
	<path d="M323.507,331.651c-1.461,0.072-3.076,0.143-5.166,0.143c-0.994,0-2.023-0.017-3.061-0.05
		c-9.048-0.261-14.846-1.269-16.918-1.69c-0.862-0.16-1.392-0.298-1.906-0.438c-0.491-0.125-0.935-0.269-1.598-0.493
		c-0.574-0.185-1.446-0.481-2.815-1.043l-0.356-0.15c-0.227-0.095-0.456-0.19-0.693-0.298l-1.219-0.591
		c-0.274-0.145-0.559-0.307-0.857-0.477l-0.517-0.291c-0.161-0.11-0.324-0.216-0.491-0.323c-0.348-0.227-0.695-0.452-1.031-0.719
		c-1.853-1.407-3.254-3.18-3.891-4.902l-0.029-0.074c-0.091-0.226-0.152-0.449-0.216-0.686c-0.013-0.049-0.026-0.097-0.039-0.143
		l-0.349-2.303l-1.154,0.032c-0.031,0.295-0.043,0.627,0.029,1.041c0.044,0.298,0.086,0.631,0.179,0.988
		c0.117,0.352,0.256,0.734,0.417,1.142c0.735,1.608,1.671,2.775,2.6,3.748c0.98,0.918,1.924,1.706,2.987,2.355
		c2.095,1.343,4.48,2.449,8.126,3.508c7.712,2.198,17.357,2.532,20.688,3.05c3.359,0.526,8.379,0.346,8.036-1.358
		c-0.002-0.008-0.013-0.013-0.014-0.021c-0.023,0.002-0.046,0.007-0.069,0.009L323.507,331.651z"/>
	<path d="M316.62,330.573c-1.164,0.18-5.237,0.333-9.687,0.039c-4.45-0.26-9.255-1.11-11.821-2.031
		c-1.296-0.42-2.611-0.953-3.902-1.542c-1.281-0.611-2.511-1.323-3.612-2.122c-1.071-0.831-2.026-1.727-2.721-2.693
		c-0.679-0.97-1.177-1.942-1.412-2.843c-0.062-0.224-0.132-0.438-0.209-0.64c-0.074-0.204-0.108-0.411-0.175-0.6
		c-0.109-0.384-0.294-0.722-0.386-1.03c-0.229-0.607-0.527-1.035-0.799-1.146c-0.271-0.111-0.521,0.106-0.652,0.81
		c-0.02,0.108-0.03,0.249-0.044,0.379l1.154-0.032l0.349,2.303c0.013,0.047,0.026,0.095,0.039,0.143
		c0.064,0.237,0.125,0.46,0.216,0.686l0.029,0.074c0.638,1.722,2.039,3.495,3.891,4.902c0.336,0.267,0.684,0.493,1.031,0.719
		c0.167,0.108,0.33,0.214,0.491,0.323l0.517,0.291c0.299,0.17,0.583,0.332,0.857,0.477l1.219,0.591
		c0.237,0.109,0.466,0.204,0.693,0.298l0.356,0.15c1.369,0.562,2.241,0.857,2.815,1.043c0.663,0.225,1.107,0.368,1.598,0.493
		c0.515,0.14,1.044,0.278,1.906,0.438c2.073,0.421,7.87,1.429,16.918,1.69c1.039,0.033,2.068,0.05,3.061,0.05
		c2.09,0,3.705-0.071,5.166-0.143l0.671-0.036c0.023-0.002,0.046-0.007,0.069-0.009C323.912,330.234,318.927,330.22,316.62,330.573z
		"/>
	<path d="M275.946,317.217l-1.254-0.141c-1.793-0.264-3.582-0.561-5.715-1.252c-2.714-0.86-5.154-2.052-7.481-3.648
		c-2.723-1.832-5.025-3.923-7.342-6.083c-0.844-0.79-1.654-1.57-2.436-2.325l-0.974-0.939c-0.089-0.068-0.174-0.135-0.24-0.197
		c-0.316-0.308-0.173,0.072,0.561,1.061c0.738,0.984,2.05,2.593,4.188,4.664c2.134,2.07,4.744,4.155,7.555,5.747
		c2.796,1.626,5.77,2.633,8.231,3.349c0,0,0.191,0.016,0.505,0.041c0.314,0.031,0.749,0.066,1.244,0.077
		c0.489,0.022,1.036,0.048,1.571,0.072c0.537,0.005,1.059,0.015,1.504,0.035c0.768,0.036,0.958-0.141,0.496-0.415
		c-0.032-0.004-0.057-0.004-0.092-0.008C276.149,317.239,276.046,317.226,275.946,317.217z"/>
	<path d="M270.629,315.571c-2.906-0.843-4.006-1.568-4.698-1.929c-0.683-0.391-0.899-0.584-1.826-0.971
		c-1.826-0.819-4.8-2.667-8.023-5.662c-2.892-2.674-4.558-3.586-5.336-4.182l0.974,0.939c0.782,0.755,1.592,1.535,2.436,2.325
		c2.317,2.16,4.619,4.251,7.342,6.083c2.326,1.597,4.767,2.789,7.481,3.648c2.133,0.691,3.922,0.988,5.715,1.252l1.254,0.141
		c0.1,0.009,0.204,0.022,0.321,0.038c0.034,0.004,0.059,0.004,0.092,0.008c-0.074-0.045-0.124-0.085-0.236-0.135
		C275.326,316.757,273.54,316.374,270.629,315.571z"/>
	<path d="M245.585,307.193c-0.617,0.599-1.372,1.108-2.305,1.55c-0.871,0.411-1.705,0.676-2.254,0.839
		c-0.486,0.137-0.967,0.256-1.435,0.355l-5.884,1.248l0.117,0.093c2.117-0.008,4.451-0.238,6.685-0.803
		c2.274-0.572,4.477-1.549,5.97-3.037c0,0,0.081-0.135,0.2-0.364c0.129-0.22,0.269-0.551,0.407-0.92
		c0.273-0.75,0.374-1.683,0.371-2.346c-0.001-0.033-0.009-0.047-0.01-0.077l-0.393,1.179
		C246.708,305.951,246.065,306.726,245.585,307.193z"/>
	<path d="M240.057,316.432c1.35,1.367,2.183,2.837,2.759,3.968l0.019,0.04c0.569,1.207,0.944,2.436,1.122,3.707l0.311,2.215
		l1.096,0.106c0.004-0.049,0.011-0.089,0.014-0.141c-0.003-0.19-0.039-0.398-0.076-0.622c-0.084-0.448-0.137-0.862-0.225-1.243
		c-0.107-0.375-0.207-0.728-0.303-1.067c-0.046-0.169-0.091-0.334-0.136-0.497c-0.06-0.157-0.119-0.313-0.179-0.467
		c-0.113-0.309-0.224-0.613-0.337-0.923c-0.527-1.193-1.067-2.491-2.324-4.095c-1.296-1.701-3.089-3.286-4.854-4.374
		c-0.964-0.606-1.859-1.036-2.663-1.395l4.129,3.289C238.981,315.387,239.535,315.891,240.057,316.432z"/>
	<path d="M246.895,303.604c-0.329,0.536-0.628,1.737-2.081,3.055c-0.754,0.643-1.434,0.959-1.936,1.165
		c-0.512,0.198-0.863,0.288-1.134,0.346c-0.54,0.114-0.737,0.133-1.399,0.393c-1.321,0.522-3.782,1.09-6.939,1.181
		c-3.148,0.081-4.438,0.712-5.071,0.726c-0.286,0-0.095,0.139,0.582,0.311c-0.562,0.3-0.849,0.75-0.674,1.382
		c0.189,0.685,0.855,0.988,1.569,1.057c0.364,0.088,0.75,0.117,1.121,0.1c0.372-0.027,0.724,0.009,1.015-0.059
		c0.574-0.175,2.589,0.141,4.599,1.184c1.004,0.511,1.967,1.214,2.774,1.929c0.784,0.738,1.426,1.473,1.785,2.073
		c0.411,0.565,0.711,1.233,1.069,1.864c0.154,0.328,0.281,0.67,0.424,1.001l0.207,0.495l0.147,0.509
		c0.097,0.336,0.191,0.666,0.284,0.988c0.051,0.328,0.1,0.648,0.147,0.956c0.132,0.609,0.062,1.184,0.077,1.669
		c0.009,0.244,0.019,0.47,0.046,0.679c0.034,0.209,0.101,0.402,0.186,0.574c0.174,0.342,0.429,0.605,0.689,0.702
		c0.258,0.097,0.524,0.023,0.719-0.32c0.097-0.172,0.176-0.409,0.226-0.72c0.018-0.113,0.027-0.246,0.037-0.378l-1.096-0.106
		l-0.311-2.215c-0.179-1.271-0.554-2.5-1.122-3.707l-0.019-0.04c-0.576-1.131-1.409-2.601-2.759-3.968
		c-0.522-0.541-1.076-1.045-1.645-1.499l-4.129-3.289c-0.269-0.12-0.568-0.263-0.801-0.361c0.065,0.001,0.125,0.003,0.191,0.004
		c0.048,0,0.102-0.008,0.151-0.008l-0.117-0.093l5.884-1.248c0.468-0.099,0.949-0.219,1.435-0.355
		c0.549-0.163,1.383-0.427,2.254-0.839c0.933-0.443,1.688-0.951,2.305-1.55c0.479-0.467,1.123-1.242,1.469-2.28l0.393-1.179
		C247.413,303.142,247.179,303.078,246.895,303.604z"/>
	<path d="M246.826,326.612c1.421,0.191,3.219,0.614,4.643,1.099l0.039,0.014c0.192,0.073,0.422,0.157,0.639,0.236
		c0.416,0.152,0.799,0.291,1.079,0.42l0.741,0.32c1.914,1.032,3.722,2.26,5.388,3.657c1.899,1.606,3.564,3.4,4.941,5.323l0.04,0.054
		c0.212,0.281,0.429,0.626,0.66,0.99c0.117,0.186,0.226,0.358,0.339,0.528l0.911,1.664c0.19,0.395,0.35,0.77,0.51,1.146l0.249,0.575
		c0.224,0.661,0.405,1.255,0.557,1.823l0.239,1.413l0.013,0.464l0.022,0.949l-0.139,1.112c-0.011,0.084-0.024,0.18-0.039,0.276
		l-0.216,0.754c-0.056,0.201-0.11,0.39-0.176,0.573c-0.063,0.13-0.126,0.274-0.189,0.418l-0.027,0.06
		c-0.174,0.395-0.339,0.767-0.561,1.092l-0.062,0.095c-1.311,2.106-2.946,3.458-4.029,4.352c-1.256,1.021-2.326,1.738-3.106,2.262
		l-0.076,0.051c-0.009,0.006-0.024,0.015-0.032,0.021c-0.553,0.52-0.981,0.911-1.324,1.159c-0.566,0.41,0.008,0.213,1.681-0.776
		c0.83-0.505,1.946-1.194,3.273-2.222c1.309-1.033,2.924-2.361,4.275-4.511c0.365-0.516,0.595-1.135,0.876-1.727
		c0.115-0.308,0.196-0.634,0.294-0.954l0.139-0.484l0.071-0.501l0.126-1.011l-0.021-1.018l-0.016-0.511l-0.082-0.498l-0.172-1
		c-0.171-0.645-0.371-1.286-0.587-1.915c-0.266-0.603-0.513-1.219-0.801-1.807l-0.943-1.708c-0.358-0.542-0.688-1.102-1.075-1.616
		c-3.016-4.193-7.004-7.246-10.594-9.21c0,0-1.128-0.458-2.626-0.908c-1.504-0.443-3.384-0.799-4.795-0.951
		c-1.196-0.105-1.487,0.048-0.818,0.35l0.427,0.041C246.599,326.586,246.709,326.598,246.826,326.612z"/>
	<path d="M254.699,330.236c2.059,1.21,3.369,2.324,4.309,3.162c0.937,0.848,1.474,1.474,1.891,1.934
		c0.791,0.96,1.069,1.31,2.088,2.515c0.505,0.605,1.068,1.347,1.622,2.246c0.266,0.456,0.561,0.936,0.846,1.453
		c0.239,0.532,0.522,1.085,0.758,1.68c0.43,1.2,0.787,2.551,0.758,4.01c-0.054,1.452-0.534,2.966-1.446,4.359
		c-0.916,1.39-1.921,2.448-2.786,3.344c-0.446,0.44-0.854,0.844-1.228,1.213c-0.384,0.364-0.732,0.695-1.049,0.995
		c-0.506,0.477-0.913,0.864-1.276,1.206c0.009-0.006,0.024-0.015,0.032-0.021l0.076-0.051c0.781-0.524,1.851-1.241,3.106-2.262
		c1.083-0.894,2.718-2.246,4.029-4.352l0.062-0.095c0.221-0.325,0.386-0.698,0.561-1.092l0.027-0.06
		c0.063-0.144,0.126-0.287,0.189-0.418c0.066-0.182,0.119-0.371,0.176-0.573l0.216-0.754c0.015-0.096,0.028-0.193,0.039-0.276
		l0.139-1.112l-0.022-0.949l-0.013-0.464l-0.239-1.413c-0.152-0.568-0.333-1.162-0.557-1.823l-0.249-0.575
		c-0.16-0.376-0.32-0.751-0.51-1.146l-0.911-1.664c-0.112-0.17-0.221-0.342-0.339-0.528c-0.231-0.364-0.448-0.708-0.66-0.99
		l-0.04-0.054c-1.376-1.923-3.041-3.717-4.941-5.323c-1.666-1.397-3.475-2.626-5.388-3.657l-0.741-0.32
		c-0.28-0.13-0.663-0.269-1.079-0.42c-0.217-0.079-0.447-0.163-0.639-0.236l-0.039-0.014c-1.424-0.485-3.221-0.908-4.643-1.099
		c-0.117-0.013-0.227-0.025-0.33-0.035l-0.427-0.041c0.129,0.058,0.231,0.112,0.434,0.181
		C247.755,327.178,250.56,327.841,254.699,330.236z"/>
	<path d="M250.998,364.763c-0.036,0.102-0.07,0.207-0.103,0.315c-0.089,0.287-0.163,0.527-0.269,0.754
		c-0.581,1.317-1.431,2.528-2.624,3.762c-0.899,0.923-1.926,1.802-3.046,2.605c-2.013,1.471-3.822,2.435-5.144,3.139
		c-1.29,0.655-1.711,0.813-2.729,1.195l-0.113,0.042c-0.436,0.163-1.171,0.431-2.428,0.851c-1.021,0.33-2.608,0.841-4.875,1.372
		c-2.08,0.479-3.981,0.723-5.641,0.723c-0.258,0-0.508-0.006-0.749-0.018l-1.787-0.092l-0.486,0.897
		c0.524,0.249,1.39,0.448,2.602,0.319c2.558-0.289,4.25-0.712,6.067-1.136c1.804-0.449,3.708-0.948,6.426-1.95
		c2.848-1.079,5.915-2.526,8.423-4.122c2.531-1.559,4.462-3.297,5.484-4.261c1.039-0.927,2.071-2.535,2.243-4.026
		c0.072-0.739,0.016-1.38-0.235-1.801c-0.166-0.308-0.402-0.441-0.675-0.486l-0.208,1.219
		C251.093,364.284,251.049,364.514,250.998,364.763z"/>
	<path d="M250.196,363.462c-0.089,0.172-0.228,0.361-0.326,0.568c-0.095,0.207-0.188,0.43-0.313,0.657
		c-0.449,0.957-0.969,2.061-1.301,2.769c-0.156,0.389-0.671,1.181-1.524,2.122c-0.849,0.943-2.067,1.994-3.449,2.96
		c-2.759,1.953-6.17,3.496-8.159,4.108c-3.953,1.293-8.838,2.329-11.784,2.129c-0.732-0.027-1.352,0.029-1.852,0.15
		c-0.495,0.123-0.88,0.279-1.048,0.522c-0.164,0.233-0.079,0.524,0.441,0.825c0.029,0.015,0.091,0.023,0.122,0.038l0.486-0.897
		l1.787,0.092c0.241,0.012,0.491,0.018,0.749,0.018c1.659,0,3.561-0.244,5.641-0.723c2.267-0.53,3.854-1.042,4.875-1.372
		c1.257-0.421,1.991-0.689,2.428-0.851l0.113-0.042c1.018-0.382,1.439-0.54,2.729-1.195c1.322-0.704,3.131-1.668,5.144-3.139
		c1.12-0.804,2.148-1.683,3.046-2.605c1.192-1.234,2.042-2.445,2.624-3.762c0.106-0.227,0.18-0.467,0.269-0.754
		c0.033-0.107,0.067-0.213,0.103-0.315c0.051-0.249,0.096-0.479,0.133-0.698l0.208-1.219c-0.1-0.017-0.188-0.062-0.304-0.042
		C250.683,362.864,250.403,363.123,250.196,363.462z"/>
	<path d="M455.184,220.022l0.074-0.012c0.609-0.113,1.323-0.172,2.066-0.172c0.437,0,0.893,0.021,1.354,0.062
		c2.928,0.26,5.461,0.991,7.112,1.518c1.951,0.624,3.514,1.262,4.787,1.803c1.045,0.456,1.394,0.659,2.089,1.063l0.298,0.174
		l0.351,0.214c0.38,0.23,0.846,0.511,1.454,0.903l0.239,0.156c0.857,0.559,1.912,1.247,3.269,2.336
		c1.997,1.598,3.097,3.009,3.668,3.913l0.684,1.082l0.435,0.07c-0.29-1.141-1.439-3.191-4.167-5.412
		c-2.974-2.347-4.393-3.127-5.207-3.69c-0.828-0.543-1.131-0.747-2.296-1.232c-1.164-0.48-2.749-1.108-4.706-1.744
		c-1.962-0.616-4.29-1.289-6.976-1.631c-2.688-0.36-4.652,0.058-5.906,0.565c-1.268,0.537-1.841,1.128-2.264,1.42
		c-0.21,0.141-0.196,0.181,0.006,0.123l1.303-0.763C453.666,220.378,454.384,220.149,455.184,220.022z"/>
	<path d="M452.858,221.076c1.309-0.403,3.652-0.646,6.993-0.071c6.669,1.128,14.512,4.738,18.729,8.707c0,0,0.725,0.455,1.594,1.151
		c0.866,0.693,1.831,1.686,2.335,2.581c0.459,0.889,0.779,1.041,0.62-0.038c-0.013-0.081-0.041-0.181-0.066-0.275l-0.435-0.07
		l-0.684-1.082c-0.571-0.903-1.671-2.315-3.668-3.913c-1.357-1.088-2.412-1.776-3.269-2.336l-0.239-0.156
		c-0.609-0.392-1.074-0.673-1.454-0.903l-0.351-0.214l-0.298-0.174c-0.694-0.404-1.044-0.607-2.089-1.063
		c-1.273-0.541-2.836-1.179-4.787-1.803c-1.651-0.527-4.184-1.257-7.112-1.518c-0.461-0.041-0.916-0.062-1.354-0.062
		c-0.743,0-1.457,0.059-2.066,0.172l-0.074,0.012c-0.8,0.126-1.518,0.356-2.333,0.746l-1.303,0.763
		c0.006-0.002,0.004,0.001,0.011-0.001C451.784,221.466,452.193,221.261,452.858,221.076z"/>
	<path d="M400.483,211.89c2.619-1.369,5.534-2.313,8.907-2.886c2.603-0.429,5.249-0.639,8.078-0.639
		c1.078,0,2.166,0.031,3.325,0.093c2.652,0.147,5.256,0.465,7.956,0.973c1.937,0.373,2.524,0.553,3.944,0.987l0.083,0.025
		c0.34,0.097,0.71,0.224,1.151,0.374l0.179,0.061c0.504,0.165,1.145,0.382,1.899,0.674c1.586,0.603,3.539,1.344,6.141,2.803
		c2.383,1.343,4.369,2.863,5.739,4.394c0.38,0.421,0.716,0.846,1.01,1.276l1.494,2.185l0.604-0.354
		c-0.006-0.118,0.016-0.2-0.001-0.334c-0.082-0.354-0.213-0.758-0.384-1.197c-0.189-0.421-0.448-0.846-0.721-1.295
		c-1.166-1.733-3.057-3.182-4.358-3.813c-0.644-0.34-2.044-1.143-3.94-2.015c-1.894-0.877-4.296-1.797-6.859-2.547
		c-5.124-1.545-10.876-2.287-14.123-2.527c-3.246-0.284-6.836-0.287-10.166,0.156c-3.334,0.415-6.396,1.223-8.66,2.061
		c-2.288,0.827-3.57,2.28-3.508,2.837l1.538-0.94L400.483,211.89z"/>
	<path d="M399.375,213.372c0.362-0.096,0.796-0.3,1.374-0.519c0.57-0.234,1.237-0.568,2.068-0.922
		c3.299-1.475,5.886-2.021,8.613-2.402c2.741-0.342,5.691-0.484,10.013-0.166c4.546,0.351,9.533,1.405,13.651,2.908
		c4.137,1.476,7.318,3.449,8.724,4.695c1.441,1.232,3.07,2.802,4.197,4.091c0.143,0.161,0.286,0.314,0.429,0.459
		c0.126,0.151,0.243,0.298,0.366,0.432c0.25,0.267,0.488,0.497,0.68,0.691c0.413,0.374,0.839,0.552,1.209,0.332
		c0.249-0.148,0.319-0.567,0.295-1.113l-0.604,0.354l-1.494-2.185c-0.294-0.43-0.63-0.855-1.01-1.276
		c-1.369-1.531-3.356-3.052-5.739-4.394c-2.603-1.459-4.555-2.201-6.141-2.803c-0.754-0.292-1.395-0.509-1.899-0.674l-0.179-0.061
		c-0.441-0.15-0.811-0.277-1.151-0.374l-0.083-0.025c-1.42-0.434-2.007-0.614-3.944-0.987c-2.701-0.508-5.304-0.825-7.956-0.973
		c-1.159-0.062-2.247-0.093-3.325-0.093c-2.828,0-5.475,0.21-8.078,0.639c-3.374,0.573-6.288,1.517-8.907,2.886l-0.673,0.352
		l-1.538,0.94c0,0.001-0.002,0.004-0.002,0.005C398.3,213.476,398.658,213.575,399.375,213.372z"/>
	<path d="M361.932,210.414c0.225-0.073,0.451-0.147,0.676-0.224l0.309-0.102c0.195-0.065,0.382-0.128,0.569-0.184l1.621-0.406
		c0.402-0.102,0.793-0.201,1.182-0.286l0.027-0.005c2.764-0.517,4.981-0.783,6.938-0.833c0.666-0.028,1.336-0.041,1.984-0.041
		c3.254,0,6.496,0.346,9.637,1.027c1.401,0.275,2.716,0.681,3.876,1.039l0.653,0.2c0.294,0.115,0.58,0.223,0.86,0.329l0.144,0.054
		c0.997,0.377,1.851,0.699,2.632,1.106l0.6,0.289c0.338,0.161,0.659,0.312,0.962,0.471l1.936,1.143l0.868-0.401
		c-0.234-0.165-0.458-0.333-0.729-0.484c-0.805-0.473-1.684-1.055-2.756-1.509c-4.229-1.942-6.199-2.353-7.341-2.778
		c-1.176-0.31-1.599-0.481-3.139-0.674c-3.071-0.382-8.39-0.77-14.921,0.169c-0.812,0.144-1.561,0.288-2.251,0.429
		c-0.687,0.163-1.306,0.366-1.878,0.536c-1.15,0.319-2.046,0.767-2.797,1.093c-0.442,0.185-0.804,0.379-1.131,0.565l0.256-0.109
		C361.155,210.67,361.545,210.542,361.932,210.414z"/>
	<path d="M358.698,211.904c-0.599,0.254-0.016,0.194,1.679-0.316c1.707-0.465,4.578-1.305,8.793-1.81
		c4.208-0.501,8.91-0.516,13.371,0.151c1.124,0.118,2.204,0.411,3.283,0.614c1.073,0.233,2.097,0.574,3.11,0.848
		c0.986,0.354,1.945,0.705,2.855,1.071c0.882,0.427,1.745,0.813,2.531,1.24c0,0,0.977,0.418,2.247,0.961
		c0.611,0.319,1.281,0.703,1.949,1.079c0.166,0.095,0.332,0.19,0.495,0.284c0.152,0.109,0.302,0.218,0.449,0.323
		c0.292,0.216,0.573,0.423,0.832,0.614c1.029,0.773,1.386,0.742,0.593-0.257c-0.199-0.25-0.471-0.561-0.823-0.935
		c-0.339-0.393-0.806-0.783-1.373-1.223c-0.382-0.288-0.813-0.625-1.284-0.957l-0.868,0.401l-1.936-1.143
		c-0.304-0.158-0.624-0.31-0.962-0.471l-0.6-0.289c-0.781-0.407-1.635-0.729-2.632-1.106l-0.144-0.054
		c-0.28-0.107-0.566-0.214-0.86-0.329l-0.653-0.2c-1.16-0.359-2.475-0.764-3.876-1.039c-3.141-0.681-6.383-1.027-9.637-1.027
		c-0.647,0-1.317,0.014-1.984,0.041c-1.957,0.05-4.173,0.317-6.938,0.833l-0.027,0.005c-0.389,0.085-0.78,0.184-1.182,0.286
		l-1.621,0.406c-0.187,0.056-0.374,0.118-0.569,0.184l-0.309,0.102c-0.225,0.077-0.451,0.151-0.676,0.224
		c-0.387,0.128-0.777,0.256-1.215,0.415l-0.256,0.109c-0.233,0.133-0.456,0.264-0.648,0.374
		C359.351,211.579,358.996,211.777,358.698,211.904z"/>
	<path d="M287.971,214.879l0.042-0.112c0.089-0.254,0.159-0.423,0.232-0.572l0.037-0.08c0.323-0.713,0.757-1.413,1.291-2.081
		c2.185-2.712,5.113-4.281,7.421-5.342c2.294-1.03,4.78-1.86,7.576-2.527c2.188-0.52,4.371-0.909,6.671-1.186
		c3.213-0.383,5.442-0.448,7.371-0.462c2.121,0.001,3.861,0.083,6.006,0.283c2.226,0.244,5.053,0.552,9.09,1.703
		c2.381,0.734,4.459,1.512,6.684,2.874c1.006,0.634,2.346,1.556,3.513,2.911c0.565,0.636,1.054,1.353,1.443,2.109
		c0.053,0.1,0.094,0.177,0.134,0.261l0.384,0.781c0.007-0.005,0.015-0.003,0.022-0.008c0.279-0.198,0.372-0.804,0.144-1.611
		c-0.216-0.807-0.743-1.81-1.516-2.718c-0.766-0.915-1.756-1.734-2.749-2.356c-0.993-0.623-1.986-1.058-2.769-1.331
		c-0.788-0.264-2.511-0.928-4.825-1.501c-2.309-0.582-5.2-1.085-8.236-1.339c-3.036-0.264-6.21-0.3-9.078-0.18
		c-2.871,0.115-5.434,0.391-7.281,0.609c-3.694,0.438-7.698,1.304-11.296,2.666c-3.589,1.356-6.766,3.265-8.703,5.373
		c-0.984,1.033-1.548,2.217-1.719,3.142c-0.091,0.478-0.094,0.875-0.046,1.177l0.011-0.043
		C287.863,215.171,287.918,215.022,287.971,214.879z"/>
	<path d="M288.989,215.233c0.424-0.66,0.975-1.765,2.245-3.259c1.298-1.477,2.741-2.512,4.138-3.345
		c1.411-0.826,2.801-1.46,4.272-2.018c2.951-1.085,6.22-1.948,11.134-2.583c5.171-0.663,11.004-0.654,15.965,0.07
		c2.48,0.357,4.736,0.886,6.59,1.486c1.853,0.604,3.296,1.278,4.215,1.827c1.866,1.077,3.971,2.559,5.347,3.927
		c0.704,0.674,1.263,1.301,1.741,1.72c0.45,0.414,0.874,0.612,1.23,0.382l-0.384-0.781c-0.041-0.084-0.081-0.161-0.134-0.261
		c-0.389-0.756-0.878-1.474-1.443-2.109c-1.167-1.354-2.506-2.277-3.513-2.911c-2.224-1.362-4.303-2.141-6.684-2.874
		c-4.037-1.151-6.864-1.459-9.09-1.703c-2.145-0.2-3.885-0.281-6.006-0.283c-1.929,0.014-4.159,0.079-7.371,0.462
		c-2.3,0.277-4.483,0.666-6.671,1.186c-2.796,0.667-5.281,1.497-7.576,2.527c-2.307,1.062-5.236,2.63-7.421,5.342
		c-0.534,0.668-0.969,1.368-1.291,2.081l-0.037,0.08c-0.073,0.15-0.143,0.318-0.232,0.572l-0.042,0.112
		c-0.053,0.143-0.109,0.291-0.144,0.438l-0.011,0.043c0.044,0.286,0.134,0.487,0.24,0.577
		C288.289,216.129,288.589,215.898,288.989,215.233z"/>
	<path d="M259.61,218.336c2.866-1.555,6.032-2.437,9.159-2.553c0.266-0.011,0.525-0.016,0.783-0.016c2.736,0,5.478,0.595,7.931,1.72
		c1.362,0.623,2.575,1.327,3.607,2.093l0.286,0.212c0.006-0.101-0.087-0.274-0.395-0.589c-0.198-0.202-0.467-0.449-0.814-0.743
		c-0.347-0.294-0.762-0.651-1.328-0.943c-0.556-0.306-1.184-0.696-1.946-1.031c-0.393-0.142-0.808-0.292-1.248-0.451
		c-0.446-0.139-0.898-0.357-1.417-0.43c-0.51-0.102-0.984-0.198-1.424-0.287c-0.22-0.045-0.433-0.088-0.637-0.13
		c-0.206-0.025-0.406-0.035-0.598-0.053c-0.768-0.066-1.414-0.122-1.965-0.169c-1.102,0.028-1.826,0.032-2.377,0.031
		c-1.086,0.105-1.503,0.118-2.846,0.495c-0.655,0.249-1.436,0.501-2.298,0.842c-0.418,0.199-0.861,0.411-1.329,0.633
		c-0.234,0.11-0.472,0.223-0.717,0.338c-0.239,0.126-0.471,0.281-0.714,0.423c-0.484,0.291-0.989,0.595-1.514,0.911
		c-0.489,0.366-0.997,0.746-1.521,1.139c-0.546,0.367-1.016,0.857-1.535,1.319c-0.257,0.235-0.518,0.472-0.781,0.713
		c-0.255,0.25-0.483,0.533-0.731,0.802c-2.014,2.151-2.833,4.096-3.375,5.426c-0.151,0.329-0.239,0.646-0.311,0.935
		c-0.068,0.253-0.126,0.473-0.182,0.681c0.701-1.655,1.595-3.254,2.669-4.703C254.056,222.209,256.672,219.923,259.61,218.336z"/>
	<path d="M249.019,230.801c-0.223,0.527,0.13,0.136,0.909-1.208c0.776-1.333,2.141-3.587,4.699-6.202
		c2.527-2.642,6.022-4.83,9.737-5.914c3.708-1.16,7.6-0.9,10.501,0.103c0,0,0.225,0.043,0.596,0.114
		c0.187,0.036,0.411,0.079,0.661,0.128c0.255,0.042,0.532,0.106,0.81,0.215c0.573,0.201,1.211,0.425,1.839,0.646
		c0.613,0.262,1.178,0.6,1.679,0.866c0.603,0.336,0.918,0.402,0.927,0.243l-0.286-0.212c-1.032-0.766-2.245-1.47-3.607-2.093
		c-2.452-1.125-5.195-1.72-7.931-1.72c-0.258,0-0.517,0.005-0.783,0.016c-3.126,0.116-6.292,0.998-9.159,2.553
		c-2.939,1.588-5.554,3.873-7.57,6.618c-1.074,1.449-1.968,3.048-2.669,4.703c-0.007,0.026-0.016,0.06-0.022,0.085
		C249.228,230.195,249.13,230.539,249.019,230.801z"/>
	<path d="M224.187,228.267c1.455-0.199,2.954-0.302,4.425-0.302c0.666,0,1.348,0.021,2.029,0.063
		c2.756,0.18,5.246,0.702,7.601,1.596l1.004,0.389l1.036,0.505c0.488,0.219,0.968,0.515,1.432,0.802
		c0.163,0.101,0.329,0.203,0.499,0.305c0.079,0.048,0.174,0.09,0.256,0.138c0.04-0.054,0.094-0.083,0.129-0.147
		c0.329-0.615-0.214-1.38-1.061-2.04c-0.439-0.291-0.949-0.552-1.443-0.756c-0.491-0.212-0.996-0.286-1.385-0.336
		c-0.772-0.133-3.362-0.72-6.187-0.934c-2.832-0.244-5.881-0.043-7.598,0.073c-1.725,0.071-3.594,0.385-5.319,0.795
		c-0.43,0.111-0.853,0.219-1.264,0.326c-0.411,0.111-0.801,0.251-1.182,0.368c-0.766,0.222-1.445,0.501-2.046,0.717
		c-1.205,0.45-1.77,1.438-1.623,1.943c0.002,0.007,0.011,0.009,0.013,0.016c0.514-0.266,1.004-0.518,1.581-0.824
		C217.817,229.661,220.879,228.755,224.187,228.267z"/>
	<path d="M214.227,232.168c0.427-0.013,0.984-0.282,1.819-0.727c1.642-0.96,2.943-1.403,4.319-1.826
		c1.4-0.345,2.901-0.691,5.152-0.874c2.363-0.216,5.012-0.139,7.251,0.274c2.24,0.4,4.057,1.084,4.881,1.654
		c0.851,0.528,1.88,1.117,2.801,1.398c0.813,0.294,1.581,0.274,2.019-0.304c-0.083-0.047-0.177-0.09-0.256-0.138
		c-0.169-0.102-0.336-0.204-0.499-0.305c-0.464-0.287-0.944-0.583-1.432-0.802l-1.036-0.505l-1.004-0.389
		c-2.355-0.894-4.845-1.415-7.601-1.596c-0.681-0.042-1.363-0.063-2.029-0.063c-1.471,0-2.97,0.103-4.425,0.302
		c-3.309,0.487-6.371,1.394-9.102,2.693c-0.577,0.306-1.068,0.558-1.581,0.824C213.583,232.035,213.82,232.195,214.227,232.168z"/>
	<path d="M189.454,218.859c3.186,1.15,6.25,2.699,9.108,4.604c0.75,0.485,1.071,0.76,1.48,1.109l0.07,0.06
		c0.126,0.107,0.264,0.224,0.423,0.354l0.051,0.041c0.159,0.124,0.419,0.372,0.694,0.635c0.23,0.219,0.471,0.45,0.758,0.712
		l0.571,0.53l0.893,0.945c0.402,0.418,0.841,0.875,1.281,1.444l0.829,1.024l0.634,0.965l0.559,0.877l1.218,2.39l0.284-0.141
		c-0.096-0.476-0.244-1.034-0.588-1.74c-0.119-0.262-0.248-0.544-0.385-0.845c-0.164-0.285-0.352-0.58-0.549-0.897
		c-0.202-0.313-0.416-0.646-0.643-0.998c-0.261-0.325-0.536-0.666-0.826-1.027c-0.566-0.735-1.128-1.29-1.592-1.79
		c-0.233-0.249-0.446-0.48-0.644-0.691c-0.209-0.199-0.401-0.382-0.578-0.549c-0.71-0.667-1.14-1.145-1.511-1.453
		c-0.726-0.633-0.953-0.925-2.008-1.562c-2.085-1.296-5.731-3.416-10.723-5.022c-0.806-0.212-1.504-0.367-2.176-0.486l-0.17,0.236
		L189.454,218.859z"/>
	<path d="M190.673,205.494c-0.016,0.199-0.038,0.403-0.061,0.613c-0.388,3.21-0.995,5.359-1.238,6.133
		c-0.182,0.565-0.277,0.729-0.507,1.128l-0.026,0.046c-0.137,0.229-0.308,0.51-0.586,0.924l-1.929,2.675
		c0.274-0.128,0.55-0.284,0.822-0.496c0.866-0.695,1.308-1.32,1.651-1.76c0.321-0.454,0.522-0.753,0.675-0.981
		c0.296-0.457,0.422-0.623,0.596-1.288c0.34-1.331,0.79-3.547,1.123-6.314c0.147-1.278,0.064-2.176-0.059-2.86l-0.283,0.057
		L190.673,205.494z"/>
	<path d="M189.631,206.16c-0.314,1.754-0.649,3.68-1.245,5.419c-0.568,1.733-1.534,3.266-2.653,3.821c0,0-0.06,0.073-0.171,0.184
		c-0.107,0.125-0.278,0.259-0.492,0.415c-0.426,0.293-1.099,0.499-1.632,0.512c-0.521,0.005-0.704,0.238-0.194,0.559
		c0.024,0.015,0.057,0.029,0.083,0.044c-0.274,0.015-0.535,0.03-0.773,0.043c-0.327,0.027-0.619,0.04-0.881,0.081
		c-0.261,0.057-0.493,0.108-0.701,0.154c-0.414,0.09-0.728,0.153-0.983,0.169c-0.513,0.031-0.047,0.176,1.327,0.285
		c1.369,0.182,3.674,0.471,6.806,1.578c3.128,1.089,6.443,2.722,9.38,4.715c2.938,1.983,5.489,4.342,7.113,6.626
		c0,0,0.168,0.132,0.39,0.388c0.232,0.254,0.554,0.609,0.919,1.01c0.393,0.391,0.686,0.912,1.047,1.396
		c0.373,0.48,0.614,1.012,0.834,1.468c0.435,0.908,0.753,1.022,0.623,0.005c-0.021-0.161-0.076-0.403-0.121-0.623l-0.284,0.141
		l-1.218-2.39l-0.559-0.877l-0.634-0.965l-0.829-1.024c-0.441-0.569-0.879-1.026-1.281-1.444l-0.893-0.945l-0.571-0.53
		c-0.286-0.262-0.528-0.493-0.758-0.712c-0.275-0.263-0.535-0.511-0.694-0.635l-0.051-0.041c-0.159-0.131-0.296-0.247-0.423-0.354
		l-0.07-0.06c-0.409-0.349-0.73-0.623-1.48-1.109c-2.859-1.905-5.923-3.454-9.108-4.604l-3.538-1.276l0.17-0.236
		c-0.122-0.022-0.276-0.071-0.394-0.088c0.206-0.059,0.42-0.145,0.635-0.246l1.929-2.675c0.279-0.415,0.449-0.696,0.586-0.924
		l0.026-0.046c0.23-0.399,0.325-0.563,0.507-1.128c0.243-0.774,0.85-2.923,1.238-6.133c0.023-0.21,0.044-0.413,0.061-0.613
		l0.179-2.124l0.283-0.057c-0.144-0.806-0.346-1.302-0.335-1.594C190.77,201.171,190.218,202.646,189.631,206.16z"/>
	<path d="M126.251,141.445c1.904,0.062,4.011,0.332,6.244,0.802c3.479,0.747,6.904,1.769,10.46,3.123
		c2.417,0.917,4.773,1.957,7.006,3.092c0.749,0.366,1.237,0.652,1.669,0.903l0.206,0.119c0.425,0.243,0.79,0.487,1.296,0.824
		l0.238,0.159c0.323,0.211,0.685,0.449,1.112,0.762c0.131,0.095,0.276,0.198,0.428,0.305c0.349,0.246,0.714,0.503,1.101,0.813
		l0.052,0.041c1.393,1.059,2.933,2.315,4.749,4.326c1.701,1.947,2.903,4.019,3.447,5.956c0.234,0.831,0.371,1.635,0.407,2.395
		l0.124,2.578l2.578,0.121c2.155,0.101,3.707,0.231,3.722,0.232l0.053,0.006c3.664,0.469,6.938,1.069,9.951,1.829
		c3.751,0.939,7.367,2.155,10.752,3.616l1.334,0.608c0.453,0.204,0.869,0.392,1.278,0.616l0.097,0.051
		c0.294,0.147,0.569,0.323,0.86,0.51l0.358,0.225c0.124,0.094,0.249,0.184,0.373,0.275c0.286,0.208,0.546,0.397,0.786,0.612
		l0.068,0.059c1.429,1.197,2.701,2.71,3.783,4.496c2.071,3.454,3.061,7.365,2.782,11.001c-0.155,1.835-0.624,3.545-1.354,4.923
		c-0.673,1.295-1.566,2.416-2.665,3.352c-0.964,0.842-2.008,1.387-2.911,1.811l-0.784,0.32c-0.102,0.044-0.146,0.06-0.196,0.075
		c-0.032,0.125,0.381,0.085,1.332-0.218c0.924-0.369,2.479-1.032,4.081-2.763c1.617-1.678,3.075-4.629,3.101-8.421
		c0.016-3.788-0.986-6.349-1.716-8.169c-0.807-1.809-1.49-2.921-2.049-3.734c-0.554-0.817-0.979-1.348-1.479-1.902
		c-0.509-0.544-1.095-1.124-2.134-1.866c-0.516-0.373-1.11-0.74-1.772-1.091c-0.68-0.359-1.379-0.64-2.125-0.961
		c-1.491-0.646-3.194-1.289-5.071-1.943c-3.766-1.278-8.292-2.46-13.403-3.257c-3.846-0.587-6.852-0.737-9.201-0.751
		c0.203-0.176,0.384-0.478,0.536-0.906c0.137-0.328,0.172-0.718,0.208-1.153c0.04-0.435,0.052-0.913-0.033-1.397
		c-0.207-1.982-1.298-4.034-2.223-5.059c-0.454-0.525-1.403-1.739-2.828-3.099c-1.414-1.373-3.302-2.881-5.392-4.254
		c-2.086-1.38-4.363-2.634-6.468-3.678c-2.109-1.042-4.05-1.865-5.438-2.484c-2.791-1.213-5.941-2.3-8.96-3.104
		c-3.022-0.797-5.914-1.292-8.158-1.509c-0.562-0.053-1.096-0.038-1.575-0.005c-0.483,0.057-0.914,0.152-1.274,0.259
		c-0.669,0.23-1.059,0.524-1.181,0.782c1.059-0.169,2.111-0.257,3.21-0.257C125.841,141.438,126.043,141.44,126.251,141.445z"/>
	<path d="M123.243,142.378c0.674,0.108,1.771,0.143,3.456,0.16c3.386,0.062,5.816,0.547,8.331,1.146
		c2.511,0.646,5.157,1.447,8.903,3.008c3.946,1.622,8.135,3.888,11.38,6.363c3.285,2.441,5.431,5.178,6.161,6.727
		c0.775,1.549,1.511,3.435,1.891,4.967c0.165,0.767,0.38,1.446,0.56,1.943c0.116,0.266,0.261,0.475,0.435,0.612
		c-0.442,0.003-0.867,0.009-1.258,0.017c-2.577,0.067-4.117,0.241-5.145,0.233c-1.027-0.003-0.166,0.16,2.644,0.4
		c2.803,0.279,7.578,0.581,14.246,1.743c3.329,0.597,6.792,1.388,10.216,2.481c1.707,0.558,3.42,1.149,5.088,1.846
		c0.841,0.332,1.669,0.695,2.487,1.075c0.846,0.376,1.582,0.73,2.293,1.206c2.845,1.873,4.941,4.765,6.174,7.747
		c1.253,2.988,1.653,6.141,1.19,8.818c0,0-0.008,0.099-0.024,0.281c-0.012,0.183-0.034,0.448-0.097,0.772
		c-0.082,0.659-0.319,1.553-0.702,2.532c-0.389,0.977-1.021,1.989-1.8,2.866c-0.779,0.873-1.696,1.624-2.574,2.117
		c-0.863,0.519-1.402,0.782-1.444,0.936c-0.001,0.003,0.004,0.003,0.004,0.005c0.05-0.015,0.094-0.031,0.196-0.075l0.784-0.32
		c0.903-0.424,1.947-0.968,2.911-1.811c1.099-0.936,1.992-2.056,2.665-3.352c0.73-1.378,1.199-3.089,1.354-4.923
		c0.279-3.636-0.711-7.548-2.782-11.001c-1.083-1.786-2.355-3.299-3.783-4.496l-0.068-0.059c-0.24-0.215-0.5-0.404-0.786-0.612
		c-0.124-0.091-0.249-0.181-0.373-0.275l-0.358-0.225c-0.291-0.187-0.566-0.363-0.86-0.51l-0.097-0.051
		c-0.409-0.224-0.825-0.412-1.278-0.616l-1.334-0.608c-3.385-1.461-7.001-2.677-10.752-3.616c-3.013-0.759-6.287-1.36-9.951-1.829
		l-0.053-0.006c-0.015-0.001-1.567-0.131-3.722-0.232l-2.578-0.121l-0.124-2.578c-0.036-0.76-0.173-1.564-0.407-2.395
		c-0.544-1.937-1.746-4.009-3.447-5.956c-1.816-2.01-3.355-3.267-4.749-4.326l-0.052-0.041c-0.388-0.31-0.753-0.567-1.101-0.813
		c-0.152-0.107-0.297-0.209-0.428-0.305c-0.427-0.314-0.789-0.551-1.112-0.762l-0.238-0.159c-0.507-0.338-0.872-0.581-1.296-0.824
		l-0.206-0.119c-0.431-0.252-0.92-0.537-1.669-0.903c-2.233-1.135-4.589-2.175-7.006-3.092c-3.556-1.354-6.981-2.376-10.46-3.123
		c-2.234-0.47-4.34-0.74-6.244-0.802c-0.208-0.006-0.41-0.007-0.606-0.007c-1.099,0-2.151,0.087-3.21,0.257
		c-0.01,0.022-0.052,0.046-0.058,0.067C122.299,142.037,122.571,142.272,123.243,142.378z"/>
	<path d="M78.031,126.023c8.783,0.594,15.92,1.953,20.361,2.988c2.059,0.495,2.644,0.692,4.21,1.219l0.285,0.099
		c0.725,0.255,1.724,0.604,3.121,1.159l0.134,0.054c1.525,0.622,3.621,1.477,6.283,3.098c1.294,0.806,2.448,1.694,3.408,2.624
		c0.859,0.844,1.567,1.742,2.089,2.657c0.106,0.187,0.206,0.375,0.299,0.565l1.089,2.234l0.151-0.05
		c-0.092-0.726-0.304-1.592-0.779-2.589c-0.804-1.713-2.431-3.625-4.878-5.323c-2.457-1.688-4.394-2.524-5.799-3.188
		c-1.413-0.654-2.358-1.01-3.063-1.319c-1.429-0.556-1.944-0.79-3.837-1.261c-3.784-0.932-10.29-2.296-18.525-3.162
		c-4.118-0.437-7.034-0.372-9.101-0.232c-2.071,0.152-3.296,0.377-4.114,0.452c-0.29,0.039-0.319,0.064-0.223,0.088
		c1.292-0.162,2.77-0.269,4.47-0.269C74.963,125.869,76.448,125.921,78.031,126.023z"/>
	<path d="M99.858,130.608c5.533,1.515,10.813,3.615,14.228,6.513c0,0,0.265,0.191,0.704,0.505c0.46,0.299,1.001,0.81,1.626,1.392
		c0.275,0.317,0.584,0.648,0.876,1.004c0.245,0.382,0.526,0.767,0.758,1.172c0.184,0.425,0.409,0.84,0.552,1.264
		c0.111,0.432,0.234,0.848,0.316,1.24c0.13,1.576,0.399,1.938,0.589,0.296c0.034-0.339,0.022-0.799-0.044-1.321l-0.151,0.05
		l-1.089-2.234c-0.093-0.19-0.193-0.379-0.299-0.565c-0.522-0.915-1.229-1.813-2.089-2.657c-0.961-0.93-2.115-1.818-3.408-2.624
		c-2.662-1.621-4.758-2.477-6.283-3.098l-0.134-0.054c-1.397-0.555-2.396-0.905-3.121-1.159l-0.285-0.099
		c-1.566-0.528-2.151-0.725-4.21-1.219c-4.441-1.035-11.578-2.394-20.361-2.988c-1.582-0.102-3.068-0.153-4.416-0.153
		c-1.7,0-3.178,0.106-4.47,0.269c0.441,0.109,4.925,0.176,13.815,1.293C88.363,128.116,94.292,129.088,99.858,130.608z"/>
	<path d="M3.675,117.016c0.203-0.129,0.407-0.26,0.609-0.395l0.236-0.128c0.539-0.292,1.076-0.583,1.625-0.849
		c2.503-1.163,5.487-2.029,8.827-2.554c2.529-0.395,5.13-0.587,7.948-0.587c0.477,0,0.951,0.006,1.42,0.016
		c2.736,0.064,5.478,0.299,8.384,0.716c4.664,0.68,9.11,1.767,13.587,3.323c3.531,1.262,6.716,2.725,9.441,4.338
		c2.137,1.262,4.024,2.648,5.61,4.118c0.141,0.137,0.791,0.774,0.955,0.934l0.983,1.048l1.314-0.2
		c-0.006-0.013-0.005-0.021-0.011-0.033c-0.161-0.393-0.443-0.77-0.739-1.203c-0.294-0.439-0.665-0.866-1.076-1.284
		c-1.62-1.716-3.907-3.2-5.454-3.876c-0.769-0.354-2.452-1.204-4.711-2.163c-2.257-0.966-5.115-1.98-8.15-2.841
		c-3.036-0.865-6.251-1.564-9.19-2.049c-2.94-0.486-5.598-0.774-7.518-0.955c-3.841-0.379-8.085-0.36-12.034,0.112
		c-3.943,0.513-7.58,1.518-10.19,2.751c-0.641,0.331-1.248,0.637-1.737,1.014c-0.488,0.382-0.909,0.741-1.233,1.088
		c-0.286,0.348-0.484,0.65-0.625,0.914l0.659-0.526C2.942,117.482,3.298,117.256,3.675,117.016z"/>
	<path d="M2.974,118.868c0.194-0.096,0.394-0.233,0.644-0.368c0.254-0.131,0.533-0.287,0.839-0.471
		c0.302-0.189,0.637-0.398,1.032-0.597c0.391-0.203,0.791-0.469,1.266-0.703c3.786-1.919,6.885-2.548,10.115-2.984
		c3.254-0.381,6.76-0.539,11.89-0.09c5.398,0.463,11.325,1.689,16.253,3.406c4.95,1.668,8.856,3.81,10.67,5.163
		c1.837,1.341,4.033,3.028,5.673,4.408c0.811,0.696,1.558,1.265,2.114,1.633c0.576,0.352,1.061,0.447,1.344,0.112
		c0.227-0.268,0.126-0.833-0.201-1.582l-1.314,0.2l-0.983-1.048c-0.164-0.16-0.814-0.798-0.955-0.934
		c-1.586-1.471-3.473-2.856-5.61-4.118c-2.726-1.613-5.911-3.076-9.441-4.338c-4.477-1.556-8.923-2.643-13.587-3.323
		c-2.906-0.417-5.649-0.652-8.384-0.716c-0.469-0.01-0.943-0.016-1.42-0.016c-2.818,0-5.419,0.192-7.948,0.587
		c-3.34,0.525-6.324,1.391-8.827,2.554c-0.549,0.266-1.086,0.557-1.625,0.849l-0.236,0.128c-0.201,0.135-0.406,0.266-0.609,0.395
		c-0.377,0.24-0.733,0.466-1.07,0.726l-0.659,0.526c-0.161,0.302-0.241,0.549-0.206,0.703
		C1.806,119.259,2.216,119.264,2.974,118.868z"/>
	<path d="M219.219,383.333c-0.216,0.306-0.439,0.622-0.695,0.948c-0.111,0.129-0.224,0.265-0.339,0.405
		c-0.26,0.315-0.557,0.675-0.9,1.011l-0.076,0.077c-1.053,1.113-2.341,2.174-3.828,3.151c-2.803,1.834-5.912,3.209-9.499,4.203
		c-2.341,0.636-4.697,1.068-7.191,1.317c-1.023,0.095-1.686,0.134-2.35,0.134c-0.371,0-0.746-0.011-1.219-0.024l-0.282-0.007
		c-0.193-0.001-0.456-0.019-0.755-0.038l-0.441-0.028c-0.5-0.023-1.087-0.07-1.846-0.147c-1.589-0.164-3.506-0.39-6.071-0.997
		c-4.333-1.055-7.026-2.43-8.461-3.283c-0.731-0.282-1.284-0.526-1.668-0.746c-0.64-0.378-0.218,0.108,1.523,1.251
		c1.747,1.103,4.927,2.824,9.896,3.909c4.955,1.1,10.635,1.172,15.938,0.193c5.311-0.973,10.199-3.061,13.795-5.536
		c0,0,0.237-0.219,0.629-0.58c0.399-0.348,0.917-0.877,1.491-1.477c1.14-1.214,2.354-2.845,3.147-4.123
		c0.674-1.13,0.649-1.459-0.003-0.866c-0.166,0.284-0.339,0.576-0.55,0.909L219.219,383.333z"/>
	<path d="M212.55,388.523c-2.154,1.332-3.838,2.041-5.102,2.494c-1.264,0.457-2.113,0.686-2.76,0.838
		c-0.644,0.165-1.089,0.25-1.576,0.358c-0.484,0.12-1.012,0.25-1.834,0.454c-1.644,0.406-3.925,0.825-6.727,0.964
		c-2.795,0.128-6.121-0.017-9.708-0.782c-3.583-0.763-6.03-1.566-7.788-2.151c-0.714-0.241-1.286-0.449-1.788-0.642
		c1.435,0.853,4.128,2.227,8.461,3.283c2.566,0.607,4.482,0.833,6.071,0.997c0.759,0.077,1.346,0.124,1.846,0.147l0.441,0.028
		c0.299,0.019,0.561,0.038,0.755,0.038l0.282,0.007c0.473,0.013,0.848,0.024,1.219,0.024c0.664,0,1.327-0.038,2.35-0.134
		c2.494-0.249,4.851-0.681,7.191-1.317c3.587-0.993,6.696-2.369,9.499-4.203c1.486-0.977,2.775-2.038,3.828-3.151l0.076-0.077
		c0.343-0.336,0.64-0.696,0.9-1.011c0.115-0.139,0.227-0.275,0.339-0.405c0.256-0.326,0.479-0.642,0.695-0.948l0.246-0.345
		c0.211-0.333,0.384-0.625,0.55-0.909c-0.099,0.09-0.171,0.141-0.3,0.276C218.707,383.343,216.814,385.773,212.55,388.523z"/>
	<path d="M166.259,391.099c-0.241,0.314-0.499,0.65-0.796,0.941l-0.714,0.745c-0.172,0.163-0.336,0.303-0.501,0.446l-0.305,0.267
		c-0.35,0.325-0.755,0.615-1.183,0.921c-0.182,0.13-0.359,0.256-0.534,0.387c-0.213,0.138-0.429,0.267-0.648,0.399l-0.41,0.249
		c-0.316,0.203-0.717,0.403-0.99,0.536l-0.066,0.033c-1.519,0.789-3.238,1.428-5.109,1.9c-2.006,0.516-4.149,0.842-6.383,0.973
		c-0.783,0.047-1.583,0.07-2.382,0.07c-3.395,0-6.847-0.411-10.553-1.255c-3.896-0.926-7.506-2.264-10.704-3.972
		c-1.376-0.717-2.729-1.57-4.284-2.699c-1.198-0.897-2.352-1.922-3.399-3.021l-1.055-1.216c0.013,0.038,0.001,0.041,0.047,0.124
		c0.184,0.296,0.536,0.96,1.276,1.82c1.423,1.741,4.289,4.51,9.271,6.895c4.968,2.376,10.925,3.862,16.754,4.168
		c5.828,0.32,11.529-0.565,15.921-2.408c0,0,0.079-0.036,0.218-0.118c0.137-0.083,0.336-0.204,0.584-0.353
		c0.247-0.149,0.542-0.328,0.872-0.529c0.315-0.223,0.665-0.47,1.036-0.732c1.471-1.064,3.049-2.628,4.051-3.924
		c0.769-1.048,0.868-1.446,0.329-1.081c-0.004,0.005-0.008,0.009-0.012,0.015C166.474,390.819,166.366,390.959,166.259,391.099z"/>
	<path d="M165.56,391.55c-0.19,0.157-0.402,0.331-0.637,0.525c-0.442,0.411-1.041,0.819-1.706,1.329
		c-1.386,0.951-3.269,2.061-5.847,2.996c-2.592,0.897-4.551,1.222-6.001,1.378c-1.451,0.161-2.406,0.194-3.128,0.187
		c-0.723,0.002-1.214-0.001-1.756-0.02c-0.542,0.001-1.134,0.002-2.055,0.004c-1.842,0.007-4.36-0.134-7.356-0.7
		c-2.992-0.554-6.469-1.54-10.066-3.242c-3.582-1.722-5.913-3.254-7.532-4.433c-1.626-1.174-2.517-2.026-3.039-2.645
		c-0.191-0.227-0.231-0.23-0.194-0.126l1.055,1.216c1.047,1.099,2.201,2.124,3.399,3.021c1.554,1.129,2.907,1.983,4.284,2.699
		c3.198,1.708,6.808,3.046,10.704,3.972c3.706,0.844,7.158,1.255,10.553,1.255c0.799,0,1.599-0.023,2.382-0.07
		c2.234-0.131,4.376-0.457,6.383-0.973c1.871-0.472,3.59-1.111,5.109-1.9l0.066-0.033c0.273-0.133,0.674-0.333,0.99-0.536
		l0.41-0.249c0.219-0.132,0.436-0.261,0.648-0.399c0.176-0.13,0.352-0.257,0.534-0.387c0.428-0.306,0.833-0.595,1.183-0.921
		l0.305-0.267c0.166-0.143,0.329-0.283,0.501-0.446l0.714-0.745c0.296-0.291,0.554-0.627,0.796-0.941
		c0.107-0.141,0.215-0.28,0.329-0.419c0.004-0.006,0.008-0.009,0.012-0.015c-0.146,0.099-0.314,0.224-0.558,0.442
		C165.902,391.236,165.742,391.384,165.56,391.55z"/>
	<path d="M107.088,385.282l-0.258,0.16c-0.172,0.107-0.366,0.232-0.592,0.346c-0.636,0.341-1.318,0.613-2.141,0.862
		c-1.298,0.37-2.64,0.548-4.178,0.548c-1.01,0-2.096-0.082-3.229-0.243c-4.216-0.622-8.841-2.27-13.731-4.898
		c-5.099-2.783-9.424-6.053-12.49-9.45c-1.382-1.548-2.33-2.934-2.887-4.227l-0.93-2.109l-0.794,0.14
		c0.029,0.272,0.024,0.54,0.104,0.813c0.279,0.983,0.7,1.75,1.124,2.431c0.431,0.676,0.869,1.27,1.318,1.81
		c0.89,1.086,1.783,1.994,2.723,2.9c1.894,1.79,3.991,3.579,7.364,5.805c3.553,2.329,7.767,4.477,11.648,5.874
		c1.935,0.71,3.788,1.222,5.393,1.576c1.607,0.348,2.968,0.524,3.913,0.645c1.873,0.279,4.409,0.001,6.148-0.956
		c0.872-0.449,1.507-1.047,1.824-1.55c0.192-0.333,0.219-0.601,0.164-0.839l-0.214,0.159
		C107.261,385.158,107.172,385.224,107.088,385.282z"/>
	<path d="M104.188,384.96c-1.432,0.41-3.196,0.682-4.371,0.885c-0.581,0.119-1.923,0.196-3.708,0.002
		c-1.783-0.18-3.989-0.662-6.236-1.399c-4.516-1.447-9.086-4.003-11.433-5.722c-2.37-1.694-4.846-3.707-6.878-5.852
		c-1.016-1.07-1.913-2.176-2.603-3.265c-0.684-1.087-1.148-2.176-1.245-3.082c-0.1-0.9-0.011-1.572,0.223-2.163
		c0.218-0.593,0.494-1.059,0.448-1.357c-0.021-0.148-0.111-0.244-0.301-0.259c-0.188-0.011-0.484,0.036-0.861,0.283
		c-0.37,0.233-0.861,0.678-1.172,1.445c-0.236,0.546-0.266,1.233-0.191,1.937l0.794-0.14l0.93,2.109
		c0.557,1.293,1.505,2.679,2.887,4.227c3.066,3.396,7.391,6.666,12.49,9.45c4.891,2.628,9.516,4.276,13.731,4.898
		c1.133,0.161,2.219,0.243,3.229,0.243c1.538,0,2.88-0.178,4.178-0.548c0.823-0.249,1.505-0.522,2.141-0.862
		c0.226-0.115,0.42-0.239,0.592-0.346l0.258-0.16c0.084-0.058,0.173-0.124,0.277-0.203l0.214-0.159
		c-0.033-0.141-0.064-0.282-0.189-0.387C106.818,384.078,105.634,384.596,104.188,384.96z"/>
	<path d="M59.691,367.184c-0.059,0.004-0.151,0.006-0.245,0.006c-0.185,0-0.375-0.01-0.569-0.026l-1.016-0.068
		c-2.448-0.208-4.921-0.826-7.108-1.784l-1.418-0.676l-1.74-1.03l-1.361-0.968c-0.388-0.278-0.645-0.512-0.871-0.719l-0.281-0.255
		l-0.136-0.129c-0.211-0.197-0.416-0.386-0.653-0.664l-0.643-0.719c-0.236-0.256-0.516-0.559-0.82-0.952l-0.054-0.068
		c-0.642-0.782-1.516-1.884-2.57-3.487l-0.211-0.325c-0.182-0.278-0.356-0.544-0.517-0.804l-0.64-1.114
		c-0.287-0.486-0.514-0.929-0.682-1.263l-0.831-1.656l-1.851,0.095c-0.166,0.009-0.337,0.013-0.513,0.013
		c-1.65,0-3.604-0.366-5.101-0.955c-0.76-0.281-1.522-0.631-2.256-1.03l-0.647-0.367c-0.107-0.059-0.162-0.094-0.189-0.113
		l-0.094-0.078l0.036,0.036c-4.466-3.073-8.253-8.373-10.131-14.179c-0.754-2.334-1.463-5.897-0.556-9.612
		c0.769-2.967,2.454-5.845,4.735-8.066c1.816-1.762,3.891-3.18,6.34-4.33l1.394-0.583c0.284-0.125,0.586-0.219,0.828-0.294
		c0.181-0.057,0.31-0.098,0.435-0.142c0.291-0.102,0.583-0.193,0.904-0.281l1.785-0.486l0.276-1.829
		c0.08-0.53,0.196-1.041,0.336-1.482l0.07-0.2c0.174-0.493,0.337-0.958,0.496-1.265l0.297-0.629
		c3.567-5.716,12.346-10.591,19.991-11.092c0.347-0.02,0.69-0.031,1.023-0.031c1.452,0,2.752,0.187,3.864,0.556l0.05,0.021
		c0.081,0.033,0.163,0.066,0.246,0.097l2.626,0.966c-0.587-0.586-1.457-1.252-2.731-1.701c-1.371-0.495-3.121-0.746-5.129-0.646
		c-4.028,0.209-8.239,1.645-11.899,3.7c-3.666,2.055-6.799,4.814-8.683,7.761c0,0-0.098,0.24-0.259,0.635
		c-0.179,0.382-0.344,0.96-0.532,1.594c-0.201,0.75-0.308,1.606-0.341,2.428c-0.176,0.031-0.361,0.068-0.557,0.121
		c-0.354,0.085-0.745,0.189-1.172,0.313c-0.424,0.136-0.873,0.329-1.364,0.529c-0.493,0.192-0.954,0.413-1.391,0.644
		c-0.438,0.228-0.872,0.424-1.272,0.656c-0.789,0.485-1.556,0.889-2.227,1.394c-0.341,0.239-0.677,0.473-1.009,0.704
		c-0.313,0.255-0.623,0.507-0.93,0.759c-0.633,0.476-1.174,1.048-1.754,1.589c-0.566,0.554-1.081,1.182-1.63,1.817
		c-0.481,0.692-1.052,1.362-1.489,2.195c-0.508,0.788-0.886,1.71-1.316,2.693c-0.158,0.514-0.321,1.047-0.492,1.601
		c-0.163,0.556-0.226,1.16-0.348,1.775c-0.379,2.624-0.029,5.446,0.748,8.025c0.771,2.599,1.926,5.033,3.224,7.16
		c1.311,2.122,2.769,3.938,4.16,5.351c1.388,1.417,2.688,2.445,3.606,3.126c0.914,0.686,2.049,1.345,3.274,1.806
		c1.221,0.469,2.531,0.718,3.681,0.728c1.15,0.024,2.129-0.185,2.746-0.489c0.168-0.087,0.304-0.177,0.418-0.27
		c0.492,1.267,1.284,2.992,2.592,5.086c1.721,2.778,4.171,5.565,7.068,7.623c2.866,2.123,6.201,3.24,8.961,3.814
		c0,0,0.21,0.004,0.558,0.009c0.346,0.005,0.824,0.031,1.365-0.024c0.536-0.034,1.132-0.071,1.718-0.107
		c0.577-0.073,1.144-0.144,1.629-0.206c0.618-0.066,0.85-0.197,0.731-0.34c-0.091,0.009-0.154,0.026-0.248,0.034L59.691,367.184z"/>
	<path d="M61.121,366.83c-0.458-0.128-1.18-0.172-2.183-0.316c-0.501-0.078-1.073-0.154-1.723-0.223
		c-0.64-0.122-1.356-0.257-2.153-0.408c-3.161-0.755-4.298-1.657-5.025-2.05c-0.702-0.465-0.923-0.681-1.874-1.181
		c-1.857-1.053-4.818-3.487-7.405-7.474c-1.308-1.971-2.221-3.37-2.942-4.341c-0.704-0.98-1.167-1.559-1.386-1.988
		c-0.197-0.396-0.19-0.051,0.14,1.007c-0.698-0.236-1.763-0.363-2.909-0.616c-0.898-0.2-1.851-0.458-2.743-0.754
		c-0.894-0.296-1.716-0.646-2.378-0.897c-0.648-0.268-2.086-0.997-3.715-2.39c-1.641-1.365-3.448-3.384-4.941-5.775
		c-1.503-2.382-2.687-5.131-3.276-7.74c-0.585-2.607-0.546-5.045-0.082-6.703c0.746-3.36,2.881-6.617,5.534-8.903l0.486-0.438
		l0.518-0.392c0.345-0.257,0.677-0.523,1.02-0.764c0.719-0.435,1.377-0.923,2.09-1.261c0.347-0.182,0.687-0.36,1.02-0.535
		c0.339-0.16,0.682-0.294,1.008-0.437c0.33-0.135,0.643-0.283,0.959-0.395c0.318-0.105,0.626-0.207,0.922-0.304
		c0.791-0.257,1.505-0.518,2.124-0.774c0.182,1.068,0.434,1.135,0.579,0.092c0.011-0.105,0.026-0.233,0.04-0.363
		c0.878-0.408,1.459-0.796,1.566-1.123c0.092-0.29-0.224-0.492-1.094-0.49c-0.044,0-0.097,0.003-0.144,0.004
		c0.044-0.168,0.087-0.331,0.136-0.514c0.347-1.11,0.945-2.501,2.063-4.059c1.126-1.556,2.208-2.463,2.989-3.123
		c0.802-0.648,1.375-1.006,1.804-1.281c0.879-0.523,1.199-0.702,2.281-1.431c1.087-0.716,2.634-1.613,4.641-2.412
		c1.997-0.801,4.471-1.521,7.264-1.678c5.579-0.261,7.642,1.475,8.318,2.378c0.173,0.234,0.226,0.234,0.132-0.008
		c-0.102-0.236-0.305-0.761-0.888-1.397c-0.045-0.048-0.129-0.101-0.179-0.15l-2.626-0.966c-0.083-0.03-0.165-0.063-0.246-0.097
		l-0.05-0.021c-1.112-0.369-2.412-0.556-3.864-0.556c-0.334,0-0.676,0.01-1.023,0.031c-7.645,0.501-16.424,5.376-19.991,11.092
		l-0.297,0.629c-0.159,0.307-0.322,0.772-0.496,1.265l-0.07,0.2c-0.14,0.441-0.256,0.953-0.336,1.482l-0.276,1.829l-1.785,0.486
		c-0.321,0.088-0.614,0.179-0.904,0.281c-0.125,0.044-0.254,0.086-0.435,0.142c-0.242,0.076-0.544,0.17-0.828,0.294l-1.394,0.583
		c-2.449,1.151-4.524,2.568-6.34,4.33c-2.281,2.221-3.966,5.1-4.735,8.066c-0.907,3.715-0.199,7.279,0.556,9.612
		c1.878,5.806,5.666,11.106,10.131,14.179l-0.036-0.036l0.094,0.078c0.027,0.019,0.082,0.054,0.189,0.113l0.647,0.367
		c0.734,0.399,1.496,0.749,2.256,1.03c1.497,0.589,3.451,0.955,5.101,0.955c0.176,0,0.346-0.004,0.513-0.013l1.851-0.095
		l0.831,1.656c0.168,0.334,0.395,0.777,0.682,1.263l0.64,1.114c0.162,0.26,0.335,0.526,0.517,0.804l0.211,0.325
		c1.054,1.603,1.928,2.706,2.57,3.487l0.054,0.068c0.304,0.393,0.584,0.697,0.82,0.952l0.643,0.719
		c0.237,0.278,0.441,0.467,0.653,0.664l0.136,0.129l0.281,0.255c0.226,0.207,0.484,0.442,0.871,0.719l1.361,0.968l1.74,1.03
		l1.418,0.676c2.186,0.958,4.66,1.575,7.108,1.784l1.016,0.068c0.194,0.017,0.384,0.026,0.569,0.026
		c0.094,0,0.186-0.002,0.245-0.006l1.734-0.076c0.094-0.008,0.157-0.025,0.248-0.034C61.605,366.994,61.455,366.91,61.121,366.83z"
		/>
	<path d="M62.909,291.539c-0.026-1.358-0.01-2.571,0.048-3.708c0.053-0.943,0.143-2.208,0.371-3.506l0.489-2.8l-0.482-0.084
		c-0.018,0.044-0.044,0.078-0.061,0.123c-0.739,1.954-0.956,4.138-1.055,6.224c-0.088,2.09-0.017,4.092,0.013,5.772
		c0,0,0.378,1.109,0.751,2.128l0.004,0.002L62.909,291.539z"/>
	<path d="M63.921,296.582c0.109-0.575,0.106-1.735-0.004-3.709c-0.097-1.977,0.035-2.83,0.101-3.345
		c0.082-0.516,0.127-0.7,0.078-1.362c-0.046-0.66-0.071-1.561,0.007-2.639c0.088-1.07,0.245-2.349,0.701-3.634
		c0.455-1.285,0.851-2.056,1.368-2.396c0.534-0.335,1.102-0.267,1.349-0.142c0.134,0.062,0.17,0.031,0.083-0.084
		c-0.093-0.111-0.284-0.345-0.76-0.529c-0.242-0.069-0.561-0.136-0.935-0.063c-0.193,0.018-0.362,0.11-0.564,0.184
		c-0.179,0.093-0.359,0.212-0.535,0.346c-0.636,0.534-1.106,1.321-1.476,2.233l0.482,0.084l-0.489,2.8
		c-0.227,1.298-0.318,2.563-0.371,3.506c-0.058,1.137-0.074,2.35-0.048,3.708l0.079,4.151l-0.004-0.002
		c0.119,0.324,0.237,0.639,0.343,0.906C63.551,297.157,63.819,297.157,63.921,296.582z"/>
	<path d="M57.771,280.332c-1.852-0.516-3.911-1.2-6.203-2.635l-2.352-1.532l-1.577,2.312c-1.084,1.587-2.14,3.005-3.156,4.241
		c-2.23,2.739-4.199,4.579-5.461,5.642c-0.739,0.62-1.238,1.003-1.715,1.318c-0.521,0.361-0.986,0.636-1.629,1.002l-0.136,0.075
		c-0.683,0.369-1.536,0.832-2.907,1.356c-1.677,0.631-3.634,1.219-6.479,1.219c-2.989-0.036-5.22-0.879-6.634-1.509l-3.535-1.575
		l-0.102,0.892c0.156,0.115,0.308,0.23,0.504,0.35c0.536,0.362,1.251,0.71,2.124,1.074c1.766,0.697,3.361,1.073,4.848,1.28
		c1.489,0.202,2.881,0.233,4.299,0.113c2.813-0.293,5.822-1.111,9.479-3.505c3.846-2.533,7.279-6.29,9.905-9.754
		c0.663-0.865,1.279-1.713,1.846-2.523c0.363-0.518,0.371-0.514,0.481-0.66l0.132-0.162l0.16,0.169l0.141,0.146l0.076,0.075
		l0.239,0.198c0.325,0.24,0.623,0.488,0.918,0.689c0.583,0.42,1.102,0.756,1.521,1.036c1.677,1.13,4.037,2.029,5.923,2.332
		c1.893,0.309,3.295,0.111,3.289-0.758c0-0.024-0.029-0.046-0.031-0.069l-0.721-0.125C60.297,280.915,59.178,280.707,57.771,280.332
		z"/>
	<path d="M58.733,279.261c-1.651-0.59-3.528-1.21-4.741-1.59c-0.307-0.088-0.785-0.276-1.386-0.565
		c-0.294-0.152-0.632-0.314-0.974-0.526c-0.171-0.106-0.361-0.204-0.536-0.331c-0.211-0.141-0.579-0.411-0.871-0.649
		c-0.297-0.233-0.603-0.474-0.916-0.721c-0.075-0.045-0.159-0.155-0.226-0.149l-0.165,0.276c-0.109,0.181-0.22,0.365-0.331,0.552
		c-0.371,0.611-0.756,1.249-1.156,1.907c-0.604,0.992-1.286,2.019-2.016,3.047c-1.461,2.055-3.156,4.081-4.879,5.734
		c-1.708,1.669-3.454,2.929-4.784,3.693c-2.644,1.552-5.869,2.67-8.963,2.691c-3.094,0.059-5.898-0.887-7.83-1.912
		c-1.936-1.007-3.589-1.546-4.116-1.236c-0.255,0.151-0.196,0.5,0.341,1.057c0.171,0.183,0.418,0.387,0.704,0.598l0.102-0.892
		l3.535,1.575c1.414,0.63,3.645,1.473,6.634,1.509c2.845,0,4.802-0.589,6.479-1.219c1.371-0.524,2.224-0.987,2.907-1.356
		l0.136-0.075c0.643-0.366,1.107-0.641,1.629-1.002c0.477-0.315,0.976-0.698,1.715-1.318c1.261-1.062,3.231-2.902,5.461-5.642
		c1.016-1.236,2.071-2.654,3.156-4.241l1.577-2.312l2.352,1.532c2.293,1.436,4.351,2.119,6.203,2.635
		c1.406,0.375,2.526,0.583,3.245,0.708l0.721,0.125C61.648,280.471,60.319,279.845,58.733,279.261z"/>
	<path d="M14.005,298.767c-1.19,2.092-3.042,4.014-5.362,5.569c-2.454,1.668-5.369,2.923-8.643,3.799v0.961
		c0.509-0.137,1.029-0.239,1.529-0.398c4.802-1.515,9.138-4.085,11.903-7.213c0,0,0.171-0.257,0.436-0.689
		c0.13-0.218,0.299-0.466,0.461-0.762c0.151-0.302,0.317-0.637,0.494-0.992c0.679-1.436,1.14-3.316,1.259-4.723
		c0.08-1.379-0.142-1.583-0.509-0.457l-0.026,0.227C15.356,295.762,14.852,297.293,14.005,298.767z"/>
	<path d="M15.388,294.488c-0.072,0.197-0.153,0.417-0.243,0.66c-0.144,0.493-0.404,1.048-0.687,1.697
		c-0.624,1.273-1.594,2.847-3.235,4.488c-1.677,1.607-3.118,2.502-4.211,3.086c-0.534,0.315-1.013,0.512-1.404,0.7
		c-0.391,0.19-0.725,0.317-1.014,0.424c-0.576,0.22-0.966,0.37-1.404,0.518c-0.436,0.152-0.894,0.362-1.632,0.634
		c-0.456,0.179-0.989,0.365-1.557,0.549v0.892c3.275-0.875,6.189-2.131,8.643-3.799c2.32-1.555,4.172-3.477,5.362-5.569
		c0.847-1.474,1.351-3.005,1.542-4.678l0.026-0.227c-0.012,0.038-0.021,0.047-0.034,0.088
		C15.496,294.107,15.445,294.285,15.388,294.488z"/>
</g>
</svg>
