<?xml version="1.0" encoding="iso-8859-1"?>
<!-- Generator: Adobe Illustrator 21.1.0, SVG Export Plug-In . SVG Version: 6.00 Build 0)  -->
<svg version="1.1" id="_x31_" xmlns="http://www.w3.org/2000/svg" xmlns:xlink="http://www.w3.org/1999/xlink" x="0px" y="0px"
	 viewBox="0 0 512 512" style="enable-background:new 0 0 512 512;" xml:space="preserve">
<g>
	<path style="fill:#DDC1A8;" d="M59.854,277.178c-4.467,1.276-44.43,7.485-51.045,12.123c-6.615,4.638-8.295,7.019-7.657,15.314
		c0.638,8.295,4.466,82.31,8.933,90.605c4.466,8.295,63.168,61.892,80.396,68.911c17.228,7.019,29.989,5.743,43.388,1.276
		c13.399-4.466,204.181-54.874,208.009-58.064c3.828-3.19,5.742-16.59,5.104-24.246c-0.638-7.657-4.467-88.053-3.828-93.796
		c0.638-5.743-3.828-14.037-3.828-14.037s-61.308-43.83-65.083-45.303s-29.989-6.381-35.094-3.828
		c-5.104,2.552-111.661,31.903-114.213,32.541C122.385,259.312,59.854,277.178,59.854,277.178z"/>
	<path style="fill:#AADEF2;" d="M59.854,321.842c-5.511-2.678-4.467-3.828,1.914-5.743c6.381-1.914,82.948-23.608,82.948-23.608
		s70.187-20.418,76.568-22.332c6.381-1.914,37.646-15.314,49.769-7.657c12.123,7.657,36.37,28.075,36.37,28.075
		s-102.09,33.179-107.833,33.818c-5.743,0.638-45.303,10.209-49.131,11.485c-3.828,1.276-26.161,11.485-31.903,14.038
		c-5.743,2.552-9.571,3.19-17.866,0c-8.295-3.19-19.142-10.847-21.056-12.123C77.72,336.518,59.854,321.842,59.854,321.842z"/>
	<path style="fill:#34AD37;" d="M47.731,206.353c-8.295-1.276-17.866-1.276-19.142-6.381c-1.276-5.105,3.19-8.295,9.571-10.847
		c6.381-2.552,28.713-10.847,28.713-10.847s3.828-4.467,6.381-10.209c2.552-5.743,5.743-10.847,9.571-8.295
		c3.828,2.552,8.933,15.314,12.123,17.228s9.571,3.828,12.761-1.914s12.123-14.676,16.59-10.847
		c4.466,3.828,10.209,12.123,14.675,14.038c4.466,1.914,11.485,0.638,20.418-5.105c8.933-5.743,38.284-25.523,49.769-22.332
		c11.485,3.19,32.541,7.019,58.064,26.799c25.523,19.78,23.608,25.523,19.142,37.008c-4.466,11.485-10.209,17.228-12.123,19.78
		c-1.914,2.552-18.504,21.056-13.399,32.541c5.105,11.485,15.314,16.59,20.418,21.056c5.104,4.466,6.739,13.252,1.276,21.056
		c-5.463,7.804-20.418,12.123-25.522,18.504c-5.105,6.381-12.123,13.399-13.399,17.228c-1.276,3.828,0-5.742,1.276-10.847
		c1.276-5.105-1.914-8.295-5.105-1.276c-3.19,7.019-8.295,10.847-8.295,10.847s-1.373-8.989,3.828-16.59
		c5.202-7.601-5.105,0.638-8.295,2.552c-3.19,1.914,3.828-9.571,3.828-9.571s8.295-8.295,17.228-12.761
		c8.933-4.466,11.485-12.123,8.933-17.228c-2.552-5.104-15.952-13.399-26.799-18.504c-10.847-5.105-17.228-13.399-18.504-17.228
		c-1.276-3.828-21.694,11.485-30.627,8.295c-8.933-3.19-9.571-7.019-11.485-2.552c-1.914,4.466-15.314,46.579-3.19,57.426
		c12.123,10.847,22.97,14.037,20.418,37.008c-0.638-13.399-11.485-13.399-11.485-13.399s6.381,11.485,3.19,19.142
		c-1.914-9.571-8.933-14.037-11.485-14.675c0.638,12.123,2.552,17.228-1.276,19.78c-3.828,2.552-4.466-22.332-14.675-23.608
		c-10.209-1.276-15.952,6.381-19.78,9.571c-3.828,3.19-5.104-1.914,0-8.295c5.105-6.381,14.037-10.209,14.037-21.056
		c0-10.847,0.638-24.884-1.914-41.474c-2.552-16.59-6.381-28.075-6.381-28.075s-11.485-11.485-13.399-13.399
		s-24.246-8.295-24.246-8.295s-5.743,10.847-8.295,18.504c-2.552,7.657-5.104,29.351-8.295,32.541
		c-3.19,3.19-8.295,1.276-8.295,1.276s-13.311,8.191-15.313,10.209c-2.003,2.018,3.791-6.371,3.828-9.571
		c0.038-3.2-3.273-4.617-7.657-5.105c-4.384-0.487-19.142-1.276-11.485-2.552c7.657-1.276,25.431-7.401,28.713-12.761
		c3.282-5.36,7.019-19.78,8.933-24.885c1.914-5.104,4.466-12.123-0.638-17.228C75.806,215.924,47.731,206.353,47.731,206.353z"/>
	<path style="fill:#FFFFFF;" d="M76.444,209.543c9.571,0.638,26.161,3.19,35.732,6.381c9.571,3.19,20.418,9.571,17.866,15.314
		c-2.552,5.743,7.019,12.123,7.019,12.123l1.914,19.78c0,0-20.418-10.209-30.627-16.59c-10.209-6.381-26.799-19.78-33.817-24.247
		c-7.019-4.466-9.571-6.381-17.228-8.933c-7.657-2.552-13.399-8.295-5.743-7.019S76.444,209.543,76.444,209.543z"/>
	<path style="fill:#FFFFFF;" d="M167.687,253.569c0,0-3.19,12.123,0,14.037c3.19,1.914,19.78,4.466,29.351,3.828
		c9.571-0.638,19.78-6.381,19.78-8.295c0-1.914-3.828-3.19-5.104-8.933c-1.276-5.743-1.276-5.743-1.276-5.743
		S193.21,253.569,167.687,253.569z"/>
	<path style="fill:#FFFFFF;" d="M424.827,54.493c-1.914-7.657-17.84-46.442-24.885-34.455c-6.381,16.59-12.123,23.608-5.743,35.732
		c6.381,12.123,14.037,47.217,14.037,47.217s-7.657,1.914-13.399,10.847c-0.919,1.43-14.516,26.017-12.123,29.351
		c7.778,10.837,11.365,6.403,17.866,10.847s1.914,7.019,0,14.676c-1.914,7.657-6.43,18.747-10.209,17.866
		s-21.056-23.608-31.903-14.037c-8.295-10.847-15.952-17.228-27.437-14.038c-11.485,3.19-15.952,7.657-12.123,12.761
		c3.828,5.105,13.399,10.209,17.228,13.399c3.828,3.19,10.847,5.104,13.399,7.019c2.552,1.914,9.571,10.847,15.952,14.676
		c6.381,3.828,15.313,3.828,17.866-0.638c9.712,2.261,11.485,12.761,21.056,14.676c9.571,1.914,13.399-1.276,13.399-1.276
		s3.828,10.847,3.828,15.952c0,5.104-14.676-10.209-26.799,5.743c-12.123,15.952-10.209,26.161-2.552,35.732
		c7.657,9.571,19.142,12.761,26.799,25.523c7.657,12.761,4.466,20.418-1.914,22.332c-6.381,1.914-18.393,2.171-24.246,5.743
		c-5.853,3.572-8.295,8.933-3.828,13.399c4.466,4.466,7.657,4.466,7.657,4.466s8.933,0.638,10.209-1.276
		c5.743,0.638,8.933-5.104,13.399-7.019c4.467-1.914,20.418-12.761,25.523-11.485c5.104,1.276,14.676,7.019,15.952,12.761
		c1.276,5.742,5.743,8.295-2.552,14.037c-8.295,5.743-17.866,7.657-21.694,10.847s-13.399,9.571-8.295,15.952
		c5.105,6.381,8.933,3.828,8.933,3.828s3.415,6.746,10.209,3.19c7.019,0,7.019-2.552,9.571-4.466
		c2.552-1.914,5.743-5.743,14.038-10.847c8.295-5.105,15.313-17.228,9.571-31.903c-5.742-14.676-7.019-21.694-10.209-28.075
		c-3.19-6.381-7.96-21.449-0.638-29.351c7.322-7.902,19.78-7.019,23.608-12.123c3.828-5.105,7.657-2.552,10.847-4.466
		c3.19-1.914,0-9.571,0-9.571l-9.571-18.504c0,0,2.552-21.056-0.638-36.37c-3.19-15.314-15.314-38.922-21.694-46.579
		c-6.381-7.657-14.037-11.485-15.314-15.314c-1.276-3.828,5.743-10.847-3.19-19.142c-8.933-8.295-15.314-14.037-15.314-14.037
		s17.866-29.989,20.418-47.855c2.552-17.866,7.019-36.37-2.552-40.198c-9.571-3.828-11.485,0-19.142,8.295
		c-7.657,8.295-10.209,28.075-10.209,28.075L424.827,54.493z"/>
	<path style="fill:#DBDCDC;" d="M202.143,441.16c-0.742,4.45-1.914,29.989,1.914,37.646c3.828,7.657,8.295,20.418,45.303,20.418
		c37.008,0,68.911-11.485,74.654-20.418c5.742-8.933,5.742-25.523,5.742-25.523s-1.914-28.713-3.19-30.627
		c-1.276-1.914-8.295-9.571-24.884-12.761c-16.59-3.19-72.739,4.466-72.739,4.466S203.419,433.504,202.143,441.16z"/>
	<path style="fill:#C8C9CA;" d="M214.904,449.455c0,0-14.037-2.552-15.952-10.209c-1.914-7.657,3.19-21.056,24.885-29.351
		c21.694-8.295,46.579-14.037,69.549-9.571c22.97,4.466,32.541,17.228,33.818,25.523c1.276,8.295-13.399,14.037-13.399,14.037
		L214.904,449.455z"/>
	<path style="fill:#FFFFFF;" d="M205.971,449.455c-3.828-3.19,1.276-6.381,3.19-10.847c1.914-4.466,8.295-8.933,8.295-8.933
		l7.657-0.638l11.485-3.828c0,0,8.739-3.793,10.847-3.828s3.68,5.748,7.019,2.552c3.339-3.195,7.657-4.467,7.657-4.467l9.571,1.276
		l10.209-3.828c0,0,3.19-1.914,5.104-1.914c1.914,0,7.657,6.381,10.209,6.381c2.552,0,7.019,0.638,7.019,0.638l2.552,1.914
		c0,0,12.761,3.828,16.59,6.381c3.828,2.552,5.104,4.466,1.276,8.933c-3.828,4.467-15.952,21.694-56.788,22.332
		c-25.523-0.638-36.37-1.914-43.388-3.828C217.456,455.836,205.971,449.455,205.971,449.455z"/>
	<g>
		<path style="fill:#231815;" d="M110.231,218.9c1.884,0.889,10.342,5.807,10.149,1.243c-0.167-3.946-7.885-7.392-10.815-8.569
			c-11.13-4.471-23.978-3.815-35.752-4.714c-12.105-0.924-24.678-0.889-36.44-4.27c-5.576-1.603-8.193-3.321-3.741-7.167
			c8.076-6.975,19.212-10.268,29.35-12.791c3.182-0.792,10.686-1.342,12.811-4.239c2.419-3.296-1.713-3.169-4.552-3.069
			c-8.279,0.293-55.524,18.085-41.331,28.276c4.692,3.369,12.183,3.932,17.704,4.651c7.495,0.977,15.048,1.454,22.554,2.338
			C83.199,212.125,98.319,212.999,110.231,218.9z"/>
		<path style="fill:#231815;" d="M105.919,172.573c-3.345,2.436-0.198,6.296,3.242,4.985c5.084-1.938,4.73-9.204,8.995-11.76
			c4.634-2.777,8.148,1.382,10.601,4.779c2.014,2.789,8.429,12.698,12.833,11.324c6.23-1.943-3.078-6.986-4.914-8.176
			c-4.186-2.712-5.661-7.882-9.871-10.471C117.122,157.299,112.663,167.998,105.919,172.573z"/>
		<path style="fill:#231815;" d="M67.59,170.398c-2.972,4.02,2.842,5.007,5.356,2.932c2.825-2.332,3.694-11.438,8.019-12.046
			c7.993-1.123,9.219,18.731,15.481,17.445c6.241-1.281-7.626-16.73-9.998-18.602C78.456,153.82,71.842,164.67,67.59,170.398z"/>
		<path style="fill:#231815;" d="M163.467,172.843c12.335-6.555,24.348-14.958,38.511-17.025c12.753-1.86,26.577,3.04,37.913,8.615
			c11.015,5.417,22.036,12.53,31.313,20.562c3.847,3.331,7.618,7.033,10.487,11.255c3.812,5.608,3.307,8.813,1.972,14.716
			c0.191-0.224,0.373-0.456,0.544-0.695c-2.427,2.458-3.647,11.019-4.889,14.417c-1.759,4.813-3.734,9.668-4.606,14.742
			c4.171-4.395,9.847-9.127,12.496-14.576c1.627-3.348,2.417-7.662,3.691-11.178c3.182-8.784-0.058-16.345-6.22-23.12
			c-13.715-15.077-30.877-26.307-49.357-34.679c-8.279-3.751-17.278-7.525-26.442-8.28c-10.617-0.876-19.947,3.206-28.944,8.436
			c-9.601,5.582-17.971,13.211-28.845,16.252c-2.474,0.692-8.368,1.344-3.956,3.719C151.675,178.45,159.533,174.911,163.467,172.843
			z"/>
		<path style="fill:#231815;" d="M172.415,270.984c14.897,5.174,33.538,2.632,46.218-6.293c-5.009-5.258-8.855-0.219-13.81,2.128
			c-4.538,2.149-10.41,3.212-15.395,2.773c-4.667-0.411-9.729-0.758-14.336-1.555c-1.068-0.185-4.789-1.891-5.71-1.052
			C167.504,268.697,171.153,270.533,172.415,270.984z"/>
		<path style="fill:#231815;" d="M243.396,276.8c-10.504-5.968-26.772-10.198-28.792-23.822
			c-1.626-10.962,1.128-22.757,6.726-32.225c2.629-4.446,5.604-7.898,9.905-10.771c6.109-4.081,0.848-6.189-4.299-4.485
			c-10.786,3.571-14.035,16.841-15.663,26.739c-1.747,10.623-2.886,25.647,6.198,33.349c8.966,7.602,21.159,10.724,30.629,17.72
			c4.132,3.053,9.369,7.433,7.66,13.16c-1.348,4.52-6.523,7.791-10.256,10.105c-4.581,2.839-10.031,4.687-13.982,8.445
			c-0.88,0.837-8.001,11.938-3.915,12.502c1.805,0.249,7.9-9.929,9.628-11.274c5.326-4.144,11.674-6.653,16.595-11.41
			C265.872,293.193,254.421,283.048,243.396,276.8z"/>
		<path style="fill:#231815;" d="M236.003,326.512c2.413-2.69,5.327-5.186,8.502-6.939c1.995-1.101,6.695-1.79,7.393-4.315
			c2.133-7.72-10.589,3.374-11.375,4.088c-3.967,3.605-12.389,10.363-12.943,16.237c-0.459,4.865,2.077,2.651,3.174,0.057
			C232.234,332.147,233.355,329.413,236.003,326.512z"/>
		<path style="fill:#231815;" d="M255.28,321.699c-11.245,5.108-14.854,16.834-22.162,25.534c0.059-0.07-0.449-3.947-0.327-4.745
			c0.299-1.953,1.092-3.73,2.007-5.468c2.091-3.975,4.979-8.148,7.971-11.483c2.076-2.313,4.563-4.004,7.201-5.669
			c0.072-0.045,12.325-6.153,11.504-2.434C261.294,318.245,256.321,320.594,255.28,321.699z"/>
		<path style="fill:#231815;" d="M279.72,228.996c-2.335,3.134-6.245-3.894-9.251-0.508c-1.013,1.141-1.265,4.193-1.843,5.656
			c-1.118,2.834-2.471,5.576-3.739,8.345c-3.862,8.437-9.454,19.47-5.181,28.787c4.655,10.151,17.069,11.812,22.589,20.905
			c5.999,9.882-0.033,17.542-8.581,23.002c-8.777,5.606-17.823,10.589-24.257,19.048c-1.158,1.523-7.882,10.646-5.302,12.787
			c1.634,1.356,4.614-5.512,5.354-6.716c6.85-11.137,17.089-16.356,27.566-23.418c10.118-6.819,15.177-16.938,7.816-28.231
			c-5.736-8.8-20.277-11.693-20.96-23.642c-0.385-6.732,2.957-13.843,6.057-19.616C271.807,242.01,281.059,232.934,279.72,228.996z"
			/>
		<path style="fill:#231815;" d="M72.887,222.623c-4.326-2.881-8.982-4.952-13.719-7.032c-2.088-0.917-8.437-2.493-5.676-4.548
			c2.748-2.046,12.032,3.271,14.394,4.444c4.994,2.479,9.13,5.66,13.392,9.222c8.752,7.313,18,14.07,27.731,20.021
			c2.035,1.244,24.241,14.862,25.363,13.751c-1.577,1.562-13.596-3.796-15.817-4.643c-5.98-2.28-11.663-5.131-17.097-8.512
			C90.928,238.774,82.63,230.064,72.887,222.623z"/>
		<path style="fill:#231815;" d="M140.609,241.833c-2.089,8.263,1.53,16.935,2.278,25.308c0.923,10.327,1.748,20.138,4.391,30.165
			c2.536,9.619,1.955,19.899-1.944,29.089c-3.753,8.846-11.1,15.699-15.512,24.21c-1.71-2.182-3.421-4.363-5.131-6.545
			c6.618-0.553,1.005,3.06,0.834,4.923c-0.885-4.781,3.948-8.816,6.862-11.917c4.952-5.271,8.756-10.235,10.85-17.287
			c3.508-11.813,1.198-22.382-0.862-34.103c-1.143-6.503-2.098-13.036-3.037-19.57c-0.821-5.711-3.792-9.442-6.79-14.28
			c-3.062-4.941-2.624-10.025,2.373-13.523C140.764,234.213,138.23,238.206,140.609,241.833z"/>
		<path style="fill:#231815;" d="M134.666,351.882c2.466-4.077,9.445-11.088,14.628-7.335c2.175,1.575,4.433,10.383,7.316,5.532
			c3.361-5.656-8.736-10.883-12.99-10.277c-4.715,0.672-8.203,2.784-10.446,6.892c-0.671,1.229-2.958,5.008-2.255,6.213
			C131.907,354.603,134.023,352.956,134.666,351.882z"/>
		<path style="fill:#231815;" d="M157.937,341.039c4.881,2.83,8.44,8.303,7.899,13.967c-0.218,2.282-2.457,9.67,2.458,7.162
			c3.378-1.724,1.112-12.886,0.002-16.107c-1.37-3.977-2.708-5.785-6.68-7.326c-0.912-0.354-3.545-1.818-4.501-1.223
			C155.671,338.413,156.868,340.456,157.937,341.039z"/>
		<path style="fill:#231815;" d="M170.622,334.485c6.031,5.857,15.171,17.647,7.46,26.228c0.646-0.719-0.11-6.677-0.195-7.872
			c-0.195-2.74-0.594-5.19-2.007-7.629c-1.182-2.039-11.175-13.425-10.716-13.665C165.796,331.219,169.699,334.024,170.622,334.485z
			"/>
		<path style="fill:#231815;" d="M177.012,323.824c5.653,3.183,9.613,9.29,11.262,15.462c1.208,4.522,1.978,13.043-2.365,16.377
			c0.417-0.32-0.557-8.406-0.637-9.339c-0.332-3.898-1.359-7.195-3.298-10.578c-1.155-2.017-2.555-4.521-4.234-6.156
			c-0.836-0.815-8.807-4.045-8.782-4.78C169.02,322.969,175.769,323.567,177.012,323.824z"/>
		<path style="fill:#231815;" d="M171.536,256.205c0.965-4.936-2.723-9.705-5.971-4.023c-3.637,6.363-2.279,15.71-2.11,22.705
			c0.354,14.694-5.447,34.218,1.208,48.011c0.92,1.906,3.79,6.415,6.711,5.14c3.01-1.314,0.143-5.362-0.674-7.336
			c-2.534-6.123-4.592-11.996-4.681-18.671C165.811,286.411,168.594,271.451,171.536,256.205z"/>
		<path style="fill:#231815;" d="M82.702,237.389c-0.082-1.97-1.521-5.176-3.938-4.238c-2.549,0.989-2.011,5.404-2.306,7.544
			c-0.785,5.703-2.233,14.107-4.768,19.197c-2.626,5.274-10.952,6.918-15.924,9.137c-2.681,1.196-4.552,1.981-7.468,2.252
			c-2.147,0.199-7.347-0.799-9.09,0.952c-4.646,4.667,6.553,4.621,8.932,4.091c5.784-1.29,11.489-4.909,16.913-7.314
			c5.744-2.547,8.861-5.389,10.844-11.23C78.181,251.055,83.059,244.764,82.702,237.389z"/>
		<path style="fill:#231815;" d="M76.956,284.261c1.99-0.558,0.604-3.437-0.594-3.947c-2.329-0.991-5.321,2.677-6.715,3.815
			c-1.672,1.365-15.518,8.859-12.434,11.018c1.599,1.12,3.026-0.604,4.253-1.647C66.104,289.556,70.913,286.036,76.956,284.261z"/>
		<path style="fill:#231815;" d="M64.606,283.702c-0.724,1.645-7.603,15.421-7.965,8.803c-0.064-1.183,4.844-11.829,6.441-12.147
			C64.53,280.07,64.013,283.202,64.606,283.702z"/>
		<path style="fill:#231815;" d="M55.626,280.666c-4.257-0.301-14.361-0.065-15.668-5.809c0.46,2.021,9.228,2.905,11.045,3.11
			c1.087,0.122,8.462,1.101,8.175,1.546C58.767,280.154,56.384,280.454,55.626,280.666z"/>
		<path style="fill:#231815;" d="M78.522,280.5c-4.781-0.335-3.7,5.976,0.942,6.03c4.061,0.047,6.353-3.594,7.068-7.13
			c1.225-6.056,0.429-12.003,2.323-18.072c1.613-5.17,4.286-9.423,7.079-13.984c2.872-4.69-0.222-7.593-4.05-3.683
			c-2.793,2.852-3.81,9.465-5.196,13.206C85.145,261.034,83.577,281.121,78.522,280.5z"/>
		<path style="fill:#231815;" d="M403.985,104.139c-13.278,5.813-18.027,17.213-22.398,30.172
			c-1.594,4.727-1.904,9.415,1.374,13.483c1.938,2.405,5.042,4.474,7.532,6.227c0.775,0.546,3.506,1.73,3.941,2.544
			c-0.01-0.018-0.433-0.43-0.186-0.398c3.797,0.488,8.748,5.032,12.833,2.308c-3.098-0.944-4.972-4.876-7.754-6.412
			c-3.572-1.973-7.727-2.79-11.085-5.243c-5.999-4.383-2.52-11.475,0.046-17.211c2.917-6.522,8.208-14.679,13.743-19.316
			c1.252-1.049,8.947-3.944,9.275-5.195C412.157,101.846,405.554,103.464,403.985,104.139z"/>
		<path style="fill:#231815;" d="M446.987,111.596c4.142,2.579,13.381,10.709,10.712,16.703c0.329-0.738-7.021-8.877-8.065-9.927
			c-1.253-1.261-7.714-5.542-7.411-6.498C442.498,111.006,446.183,111.517,446.987,111.596z"/>
		<path style="fill:#231815;" d="M444.138,102.971c5.499-13.973,12.997-27.126,17.287-41.584c2.943-9.921,4.911-26.337,2.158-36.598
			c0.002,0.007-0.109,0.573-0.166,0.542c-1.044-0.564-1.623-7.609-1.999-8.832c-0.677-2.201-1.508-4.346-2.812-6.255
			c-0.625,2.468-1.601,5.048-1.917,7.568c-0.653,5.215,1.676,11.045,2.491,16.319c1.55,10.041,0.163,21.682-3.844,31.071
			c-3.905,9.149-9.133,16.972-12.007,26.627c-1.099,3.691-6.472,14.053-5.108,17.459
			C439.863,113.392,443.58,104.409,444.138,102.971z"/>
		<path style="fill:#231815;" d="M425.833,100.624c2.108-8.195,4.176-16.398,4.492-24.893c0.288-7.723-1.332-15.494-0.498-23.19
			c0.632-5.832,2.217-11.854,5.439-16.806c2.706-4.159,8.342-7.279,10.459-11.492c-0.017,0.033-0.526,0.284-0.54,0.222
			c-0.353-1.537,8.423-10.267,9.441-13.149c-2.731,1.203-6.612,2.08-9.014,3.817c-2.406,1.739-4.587,5.281-6.433,7.606
			c-3.03,3.817-5.88,7.874-8.368,12.062c-5.259,8.854-5.489,17.899-5.751,27.879c-0.27,10.273-0.961,21.16-2.236,31.362
			c-0.278,2.227-3.958,12.304-2.333,14.259C422.824,111.105,425.497,101.923,425.833,100.624z"/>
		<path style="fill:#231815;" d="M407.062,14.932c-8.361-1.33-11.416,10.739-14.164,17.093c-3.579,8.278-4.746,17.152-2.25,25.934
			c2.255,7.936,6.416,15.825,9.688,23.387c1.687,3.9,3.964,7.248,4.956,11.449c0.492,2.083,0.225,9.928,2.488,11.394
			c1.986,1.286-0.087-10.928-0.096-10.968c-0.797-3.633-1.594-7.084-2.948-10.571c-3.479-8.957-8.031-17.175-9.978-26.648
			c-1.537-7.481-2.167-13.673,0.172-21.163C397.458,26.739,402.476,21.752,407.062,14.932z"/>
		<path style="fill:#231815;" d="M409.736,24.35c2.332,6.063,6.04,10.989,8.556,16.834c0.562,1.306,4.646,12.667,2.617,13.423
			c1.18-0.44,1.3,9.843,5.358,3.168c2.121-3.49-1.61-12.401-3.134-16.631c-1.784-4.951-3.481-10.089-6.708-14.238
			c-0.93-1.195-3.199-6.078-4.186-6.485C409.632,19.345,408.943,22.105,409.736,24.35z"/>
		<path style="fill:#231815;" d="M463.339,149.763c6.568,5.97,10.919,14.281,15.21,21.928c4.235,7.548,8.629,15.154,11.123,23.491
			c2.103,7.03,3.617,14.638,3.753,21.992c0.115,6.169-2.809,14.397-1.086,20.227c0.05-0.214,0.091-0.43,0.123-0.647
			c-0.734,2.293,1.933,7.746,3.286,9.531c2.423,3.196,6.261,5.195,10.29,5.267c-8.775-7.965-8.206-19.893-8.351-30.863
			c-0.169-12.87-2.552-24.359-7.039-36.397c-4.55-12.208-9.83-22.708-18.954-32.192c-2.551-2.652-10.237-11.549-14.608-10.218
			C453.477,142.981,461.957,148.488,463.339,149.763z"/>
		<path style="fill:#231815;" d="M446.05,234.555c-15.281,12.889-26.204,30.782-24.882,51.368
			c1.258,19.582,17.99,34.442,31.179,47.041c6.866,6.559,14.908,15.158,4.182,22.371c-8.43,5.669-19.997,5.367-26.312,14.264
			c-2.096,2.953-6.326,13.643-3.253,16.48c2.941,2.716,6.333,1.091,6.966-1.689c-0.026,0.129-0.046,0.259-0.061,0.39
			c-0.519-1.51-2.776-1.835-3.128-2.996c-0.718-2.372,5.943-10.685,7.726-12.209c7.411-6.333,18.423-6.371,25.156-14.061
			c13.654-15.596-18.298-32.374-27.004-42.373c-7.455-8.563-12.998-18.551-12.386-30.171c0.432-8.195,2.273-18.124,7.83-24.452
			c6.172-7.028,15.433-9.06,21.527-16.036c1.408-1.612,4.751-6.626,3.403-9.119C455.626,230.836,448.65,234.061,446.05,234.555z"/>
		<path style="fill:#231815;" d="M439.366,379.655c-1.77,2.372-0.688,9.255,2.757,9.703c-3.569-0.748-6.31-1.902-6.007-6.846
			c0.036-0.588,3.396-7.533,4.194-5.451C440.379,377.241,439.47,379.48,439.366,379.655z"/>
		<path style="fill:#231815;" d="M445.826,381.857c-1.308,3.456,3.438,8.476,6.767,6.621c-3.387,1.738-7.158,2.055-8.839-2.688
			c-0.451-1.274,0.994-8.44,2.306-6.819C446.372,379.356,445.1,381.592,445.826,381.857z"/>
		<path style="fill:#231815;" d="M454.737,382.214c-0.116,0.974,8.011-0.172,8.897-0.471c-2.315,0.777-5.51,4.27-8.404,3.54
			c-2.6-0.655-3.003-5.851-1.506-5.371C453.969,379.991,454.553,382.341,454.737,382.214z"/>
		<path style="fill:#231815;" d="M479.686,332.264c-0.765-1.06-3.286-3.516-4.729-2.02c-1.556,1.614,1.025,4.814,1.878,6.133
			c3.518,5.436,6.242,9.125,6.449,15.963c0.211,6.947-3.5,12.799-8.372,17.508c-2.396,2.316-5.126,4.336-8.034,5.959
			c-1.315,0.734-7.155,2.529-7.276,4.396c-0.388,5.994,11.624-2.98,12.836-4.123c3.942-3.719,8.051-7.495,10.688-12.297
			C488.769,353.506,486.229,341.331,479.686,332.264z"/>
		<path style="fill:#231815;" d="M488.869,276.357c-4.674,1.6-9.879,2.531-13.541,6.118c-2.758,2.701-3.053,6.535-5.438,9.277
			c0.359-0.413-0.185-6.241,0.623-7.993c1.455-3.157,4.537-5.86,7.576-7.464c1.877-0.991,14.504-5.543,15.036-4.824
			C493.848,272.447,489.66,275.746,488.869,276.357z"/>
		<path style="fill:#231815;" d="M418.673,225.501c-0.999-1.678-3.994-7.04-0.493-8.162c2.539-0.814,5.427,7.461,6.178,9.318
			c1.767,4.371,2.388,9.652,0.792,14.191c-0.196,0.556-3.969,7.541-4.819,5.987c-0.861-1.574,0.078-8.218-0.033-10.155
			C420.075,232.818,419.77,229.22,418.673,225.501z"/>
		<path style="fill:#231815;" d="M403.236,234.344c-11.518,4.756-19.838,16.759-19.152,29.371
			c0.66,12.152,10.865,21.335,20.082,28.024c7.357,5.34,18.737,11.525,17.927,22.291c-0.914,12.143-14.548,9.723-22.73,12.135
			c0.112-0.033,0.992,0.053,0.759,0.118c-5.471,1.653-9.845,1.936-13.049,7.425c-2.503,4.287-2.744,12.112,4.363,10.816
			c-8.872-2.415-0.205-10.686,4.502-12.678c6.033-2.553,13.114-1.426,19.166-4.182c9.983-4.547,13.068-15.258,7.357-24.662
			c-8.71-14.343-30.338-18.145-33.165-37.014c-1.258-8.392,1.592-17.416,7.567-23.47c2.961-3.001,6.658-5.219,10.732-6.327
			c2.896-0.787,8.139,0.086,10.641-1.436c1.136-0.691-5.524-2.049-5.319-2.033C409.648,232.473,406.27,233.149,403.236,234.344z"/>
		<path style="fill:#231815;" d="M396.109,341.018c-0.662,2.355,3.027,8.886,5.762,6.33c-2.707,2.436-5.85,1.683-7.498-2.041
			c-0.729-1.647,0.729-8.327,1.757-6.852C396.205,338.563,396.136,340.876,396.109,341.018z"/>
		<path style="fill:#231815;" d="M405.038,343.08c-0.1,2.731,6.838,2.467,8.181,1.666c-2.226,0.865-5.832,3.592-8.663,2.057
			c-1.781-0.965-2.144-6.626-0.6-6.133C404.242,340.763,404.975,342.801,405.038,343.08z"/>
		<path style="fill:#231815;" d="M417.263,342.232c6.185,0.167,10.085-3.404,15.189-6.194c1.069-0.584,9.526-5.095,10.294-4.134
			c-1.245-1.557,6.961-1.949,1.744-4.58c-2.93-1.478-9.609,3.609-12.846,5.123c-3.815,1.784-7.732,4-11.559,5.558
			c-0.477,0.194-4.837,0.842-4.964,1.054C414.003,340.915,415.132,341.975,417.263,342.232z"/>
		<path style="fill:#231815;" d="M498.617,252.179c3.923,3.511,9.442,1.373,13.269,3.916c1.019,0.678-5.132,2.201-5.095,2.199
			c-2.25,0.127-4.789-0.234-6.81-1.118C496.367,255.596,491.882,250.911,498.617,252.179z"/>
		<path style="fill:#231815;" d="M497.962,260.623c0.742,1.292,8.577,3.954,9.696,3.643c-1.668,0.185-3.174,1.704-5.385,1.745
			c-1.954,0.036-3.218-0.078-4.759-1.113C494.643,262.969,493.503,257.613,497.962,260.623z"/>
		<path style="fill:#231815;" d="M494.13,265.402c2.625,4.388,8.394,2.687,12.004,5.054c0.858,0.562-3.835,1.93-4.121,1.953
			c-2.061,0.169-5.542-0.663-7.321-1.727C491.521,268.785,488.565,260.724,494.13,265.402z"/>
		<path style="fill:#231815;" d="M408.54,127.357c-7.209,1.645-8.973,13.543,0.172,12.316c-0.319,0-0.638,0-0.957,0
			C414.034,136.444,415.684,130.952,408.54,127.357z"/>
		<path style="fill:#231815;" d="M416.66,156.913c3.906,2.424,8.167,0.971,11.959,2.615c1.022,0.443-3.585,2.088-3.429,2.053
			c-1.502,0.342-4.184,0.048-5.619-0.343c-1.348-0.367-7.08-2.989-6.052-4.368C413.766,156.538,416.314,156.816,416.66,156.913z"/>
		<path style="fill:#231815;" d="M429.327,151.141c1.982,0.664,4.051,0.279,6.068,0.6c0.825,0.131,3.53,1.264,3.858,1.209
			c-2.637,0.2-5.332,1.918-8.341,1.264C428.853,153.766,424.371,151.63,429.327,151.141z"/>
		<path style="fill:#231815;" d="M438.605,143.857c0.586,0.38,6.927,2.482,7.361,2.391c-2.044,0.116-3.835,1.941-6.519,0.943
			C436.979,146.273,434.915,144.323,438.605,143.857z"/>
		<path style="fill:#231815;" d="M373.112,125.394c-4.409-4.504-10.663-7.209-16.395-9.555c-0.79-0.323-11.963-5-12.148-4.722
			c1.915-2.884,17.681,4.595,20.139,5.797c2.68,1.311,5.005,2.854,7.33,4.747c0.636,0.518,7.332,8.394,6.017,8.447
			C377.387,130.136,374.155,126.103,373.112,125.394z"/>
		<path style="fill:#231815;" d="M364.803,134.449c-6.998-0.885-14.04-1.392-21.053-2.138c-1.905-0.203-12.241-3.027-13.514-2.064
			c1.808-1.368,7.99-0.399,9.94-0.283c4.661,0.279,9.428,0.492,14.072,0.964c2.378,0.242,4.732,0.681,7.107,0.979
			c0.798,0.1,10.965,2.073,10.945,2.091C371.239,134.917,366.205,134.362,364.803,134.449z"/>
		<path style="fill:#231815;" d="M367.639,141.973c-5.183,0.229-12.336,5.565-17.176,4.561c-2.121-0.44,22.174-10.427,20.917-5.874
			C371.2,141.313,368.499,141.663,367.639,141.973z"/>
		<path style="fill:#231815;" d="M9.901,285.086c7.5-3.595,16.666-4.62,24.826-5.732c1.823-0.248,21.88-2.364,20.298,1.198
			c-1.923,4.331-15.101,4.289-18.772,4.679c-6.366,0.676-19.299,0.689-23.855,5.846c-7.693,8.708,13.557,20.375,19.396,24.981
			c11.886,9.376,23.574,19.004,35.565,28.248c13.903,10.718,29.034,22.662,47.561,19.734c7.505-1.186,14.743-3.612,21.934-5.985
			c1.841-0.607,19.32-5.403,16.746,0.125c-0.77,1.653-9.221,2.911-10.79,3.368c-4.148,1.209-8.278,2.483-12.434,3.665
			c-6.987,1.987-14.172,3.99-21.493,3.963c-17.133-0.062-30.945-13.283-44.095-22.622c-11.393-8.091-22.02-17.13-32.877-25.919
			c-6.677-5.405-14.707-9.352-21.018-15.099C5.293,300.438,1.132,289.628,9.901,285.086z"/>
		<path style="fill:#231815;" d="M301.084,311.764c13.988-4.454,55.858-14.914,38.621-37.195
			c-5.398-6.977-13.246-11.608-20.239-16.788c-2.979-2.206-5.922-4.46-8.907-6.657c-1.292-0.951-6.659-6.28-8.468-6.109
			c0.054-0.005,0.494,0.461,0.507,0.544c-0.146-0.926-7.151-4.255-7.941-4.701c-3.435-1.943-7.082-3.853-10.935-4.809
			c2.67,2.833,5.209,6.517,8.22,8.982c2.881,2.358,6.76,3.962,9.956,5.882c5.127,3.079,10.303,6.085,15.125,9.627
			c6.668,4.896,26.48,15.946,22.226,26.495c-2.12,5.255-9.088,7.952-13.796,10.279c-6.212,3.071-12.437,6.091-18.872,8.674
			c-2.013,0.808-17.241,4.454-17.512,6.893C288.758,315.694,299.762,312.178,301.084,311.764z"/>
		<path style="fill:#231815;" d="M1.076,321.907c1.153,12.77,2.461,25.566,2.805,38.391c0.321,11.971-0.916,24.499,2.823,36.089
			c3.776,11.7,12.798,17.216,22.063,24.391c8.066,6.247,16.009,12.652,23.888,19.133c15.224,12.521,32.406,30.094,53.031,32.236
			c11.842,1.23,23.535-2.899,34.8-5.935c3.088-0.832,11.531-4.88,14.653-4.007c-0.234-0.065-1.668,0.266-1.473,0.247
			c2.832-0.269,6.696-2.283,9.658-3.019c5.517-1.371,11.06-2.616,16.554-4.084c6.551-1.75,13.293-3.541,19.425-6.486
			c-14.646,1.336-28.469,1.34-42.654,5.647c-7.915,2.403-15.759,5.08-23.63,7.627c-8.576,2.775-17.218,5.993-26.381,5.172
			c-12.831-1.15-23.496-9.819-33.29-17.431c-10.036-7.801-19.902-15.856-29.639-24.027c-8.428-7.073-19.67-13.906-26.169-22.834
			c-6.867-9.434-6.282-23.136-6.805-34.222c-0.674-14.283-2.848-28.39-4.525-42.575c-0.303-2.565-2.253-32.468-4.016-32.28
			C-1.837,294.369,0.882,319.849,1.076,321.907z"/>
		<path style="fill:#231815;" d="M346.516,364.624c-1.144-13.798,0.111-28.178,0.13-42.042c0.007-5.046,0.225-10.036,0.482-15.069
			c0.202-3.941,1.417-13.918-1.666-17.116c-6.891-7.148-4.806,17.237-4.303,20.677c1.698,11.609,2.207,23.553,2.353,35.27
			c0.164,13.163,1.241,26.229,1.41,39.369c0.065,5.029,1.211,11.095-1.759,15.536c-1.856,2.774-11.592,6.452-11.588,9.692
			c0.005,3.806,5.949,0.547,7.993-0.67c3.797-2.262,7.106-5.602,8.472-9.885c1.726-5.409,0.396-12.113,0.17-17.688
			C347.964,376.626,347.036,370.669,346.516,364.624z"/>
		<path style="fill:#231815;" d="M58.929,314.308c-1.375,0.685-5.917,2.957-4.585,4.856c1.462,2.085,7.297-1.264,8.903-1.829
			c7.74-2.721,15.498-5.805,23.393-8.044c17.035-4.83,34.057-9.691,51.205-14.108c8.097-2.086,4.609-4.721-1.675-3.659
			c-8.115,1.372-16.199,5.324-23.995,7.947c-8.712,2.931-17.41,5.261-26.374,7.31C77.219,308.744,66.884,310.419,58.929,314.308z"/>
		<path style="fill:#231815;" d="M198.633,276.634c-4.812,1.793-9.369,3.882-14.375,5.155c-3.353,0.852-10.515,0.492-13.109,2.949
			c-3.246,3.075-0.281,4.588,3.045,4.18c3.787-0.465,8.109-3.289,11.633-4.668c5.534-2.166,10.843-4.79,16.512-6.584
			c4.598-1.455,10.084-2.281,14.352-4.468c1.271-0.651,4.058-1.974,2.638-3.827c-1.039-1.356-5.169,1.324-6.067,1.721
			C208.477,273.211,203.547,274.846,198.633,276.634z"/>
		<path style="fill:#231815;" d="M274.125,270.004c-1.13-2.206-12.442-6.849-3.704-8.892c3.437-0.803,9.611,5.279,12.263,7.286
			c3.456,2.617,6.901,5.244,10.436,7.753c4.015,2.851,9.551,4.88,13.165,8.103c1.504,1.341,4.465,5.084,0.188,5.815
			c-3.16,0.54-10.772-7.791-12.979-9.481c-3.256-2.494-6.907-5.216-10.365-7.422C281.389,272.058,274.876,271.456,274.125,270.004z"
			/>
		<path style="fill:#231815;" d="M199.138,340.889c-2.287-0.625-6.696,2.39-7.084-1.115c-0.359-3.246,5.312-3.041,7.223-3.396
			c4.088-0.759,8.125-1.741,12.17-2.695c3.298-0.778,8.07-3.633,11.106-3.815c3.953-0.237,3.917,1.82,0.525,3.663
			c-2.768,1.503-5.704,1.313-8.711,1.913c-2.589,0.516-5.255,1.235-7.803,1.953C205.287,337.758,199.913,341.109,199.138,340.889z"
			/>
		<path style="fill:#231815;" d="M105.162,397.807c0.927-3.28-1.804-10.464,0.21-13.134c1.802-2.389,4.461-0.433,5.553,1.955
			c2.039,4.461,0.71,13.37,1.023,18.355c0.456,7.244,1.18,14.472,1.469,21.725c0.319,8.011,2.051,16.97,1.583,24.883
			c-0.094,1.584-0.868,5.279-3.522,4.484c-1.974-0.592-1.544-4.034-1.674-5.689c-0.453-5.766-0.046-11.147,0.236-16.921
			c0.321-6.54-0.764-12.917-1.057-19.45c-0.137-3.055-0.368-5.544-1.363-8.466C106.946,403.567,104.563,399.964,105.162,397.807z"/>
		<path style="fill:#231815;" d="M216.903,458.874c-8.819-3.774-17.684-10.302-19.23-20.385c-1.752-11.432,5.6-20.961,14.917-26.63
			c20.594-12.531,50.133-14.964,73.646-12.618c18.096,1.806,55.131,14.542,40.747,39.848c-5.601,9.855-17.513,15.075-27.875,18.173
			c-8.167,2.442-19.149,5.665-27.72,4.425c3.018,0.437,7.875-1.485,10.885-2.227c4.938-1.217,9.825-2.663,14.601-4.413
			c8.557-3.135,17.845-7.27,23.782-14.46c7.013-8.493,5.043-19.036-3.238-25.882c-8.871-7.333-21.463-9.726-32.615-10.62
			c-19.551-1.568-39.948,1.177-58.497,7.531c-8.145,2.79-17.179,6.854-21.559,14.741c-4.78,8.608-1.666,17.764,5.929,23.35
			c9.509,6.994,22.402,9.282,33.883,10.435c5.53,0.555,11.087,0.754,16.642,0.782c1.661,0.009,9.544,0.906,9.993,0.451
			c-2.141,1.943-9.207,1.607-11.86,1.799c-5.564,0.403-11.15,0.542-16.723,0.283C233.887,463.052,225.164,461.785,216.903,458.874z"
			/>
		<path style="fill:#231815;" d="M206.087,475.592c2.259,12.158,18.342,16.945,28.658,18.982c13.984,2.762,28.514,2.306,42.56,0.285
			c12.527-1.803,25.58-4.583,36.77-10.732c4.721-2.594,9.403-5.931,12.24-10.618c0.87-1.437,4.62-10.996,2.504-12.046
			c1.854,0.92,1.055,8.077,0.707,9.738c-0.795,3.789-2.881,7.094-5.44,9.929c-5.794,6.421-14.048,10.231-22.104,12.946
			c-16.876,5.688-35.437,8.098-53.204,7.62c-13.963-0.376-30.559-3.902-40.997-13.865c-6.885-6.571-7.238-14.904-8.164-23.807
			c-0.155-1.489-0.42-20.233-0.619-20.354c2.517,1.531,3.345,14.807,3.964,17.757C203.949,466.138,204.773,470.965,206.087,475.592z
			"/>
		<path style="fill:#231815;" d="M330.496,441.013c-0.763,3.115,2.12,26.143-2.029,26.562c-2.321,0.235-3.983-18.199-3.874-20.527
			c0.125-2.672,0.325-9.627,2.629-11.029C330.53,434.006,329.536,438.366,330.496,441.013z"/>
		<path style="fill:#231815;" d="M208.777,436.304c1.094-2.656,2.532-6.374,5.41-7.56c2.166-0.893,6.467-0.178,5.985,3.216
			c-0.059,0.418-1.809-1.308-2.244-1.211c-2.189,0.49-2.225-0.354-4.109,1.549c-0.948,0.958-3.696,7.65-4.4,7.516
			C208.674,439.672,208.748,437.082,208.777,436.304z"/>
		<path style="fill:#231815;" d="M224.303,428.185c2.697-2.016,6.497-2.803,9.712-3.843c3.494-1.13,12.026-5.364,15.538-2.996
			c-1.389-0.936-12.494,4.556-14.607,5.313c-1.788,0.641-3.75,1.093-5.495,1.764c-0.653,0.251-7.841,5.202-6.636,5.645
			C221.352,433.529,223.725,428.927,224.303,428.185z"/>
		<path style="fill:#231815;" d="M251.707,421.88c4.295-5.548,14.175-3.676,19.813-0.512c-0.091-0.051-4.984,0.791-5.802,0.682
			c-2.631-0.349-5.196-1.851-7.916-1.314c-1.665,0.329-7.11,5.763-7.233,5.666C250.04,425.98,251.473,422.589,251.707,421.88z"/>
		<path style="fill:#231815;" d="M271.281,421.299"/>
		<path style="fill:#231815;" d="M277.011,415.964c4.421-1.573,12.556-0.702,15.68,3.467c-0.117-0.156-9.229-1.671-10.332-1.727
			c-1.466-0.074-7.726,1.348-7.853,1.033C274.233,418.063,276.374,416.477,277.011,415.964z"/>
		<path style="fill:#231815;" d="M303.733,421.844c-0.576,0.803,5.075,0.27,5.312,0.292c1.877,0.175,3.936,1.302,5.59,2.088
			c3.185,1.513,7.833,3.903,8.81,7.667c-0.666-2.567-11.678-6.576-14.147-7.015c-1.822-0.324-3.768,0.542-5.499-0.18
			c-0.555-0.232-4.642-5.472-4.386-5.96C300.435,416.788,303.549,421.089,303.733,421.844z"/>
		<path style="fill:#231815;" d="M268.577,442.569c0.527-4.677,7.588-9.295,12.099-9.361c3.625-0.052,0.602-1.417,3.095,1.199
			c1.011,1.061,2.53,3.753,2.437,5.195c0.008-0.119-3.64-3.846-4.208-4.051c-1.29-0.466-3.499,0.831-5.014,1.593
			c-1.608,0.81-4.336,2.131-5.332,3.728c-0.497,0.797-0.932,6.599-0.996,6.607C269.578,447.614,268.661,442.559,268.577,442.569z"/>
		<path style="fill:#231815;" d="M248.965,451.3c-1.09-1.304-4.046-5.964-6.02-5.895c-1.626,0.057-2.186,1.549-3.549,2.12
			c-0.061,0.026,0.538-2.929,1.097-3.431c1.863-1.671,3.891-0.688,5.709,0.554c1.368,0.935,6.894,6.489,6.293,7.639
			C252.149,452.952,249.411,451.579,248.965,451.3z"/>
		<path style="fill:#231815;" d="M249.488,433.844c1.718-4.092,11.095-4.763,12.661-0.038c-0.057-0.171-7.07-0.795-7.63-0.649
			c-1.568,0.409-3.754,3.794-3.954,3.793C249.796,436.945,249.466,434.555,249.488,433.844z"/>
		<path style="fill:#231815;" d="M219.674,445.055c0.044-4.952,9.041-8.242,11.796-3.602c-0.125-0.21-7.066,0.771-7.573,1.101
			c-1.578,1.026-1.604,4.774-2.037,4.932C221.415,447.649,219.557,445.228,219.674,445.055z"/>
		<path style="fill:#231815;" d="M291.824,442.794c1.171-1.938,3.878-3.608,5.866-1.689c2.092,2.02-0.243,0.914-1.149,1.633
			c-0.057,0.045-1.727,0.383-2.084,0.427c-0.639,0.079-0.676,1.646-1.679,1.285C292.543,444.366,291.484,443.128,291.824,442.794z"
			/>
		<path style="fill:#231815;" d="M301.4,433.951c2.559-1.635,8.888,0.176,5.312,1.868c-0.108,0.051-2.873-0.052-3.276-0.149
			C303.84,435.767,298.551,435.032,301.4,433.951z"/>
		<path style="fill:#231815;" d="M119.536,183.867c-2.179-0.991-2.872-5.744,0-5.744C122.408,178.123,124.8,186.26,119.536,183.867z
			"/>
		<path style="fill:#231815;" d="M77.419,173.338c-1.436-4.786,0.479-6.221,2.393-3.35S77.419,173.338,77.419,173.338z"/>
		<path style="fill:#231815;" d="M179.36,167.117c1.966-1.072,5.594-3.428,7.605-1.414c0.523,0.524,1.445,6.217,1.156,6.761
			C185.91,176.62,180.239,169.532,179.36,167.117z"/>
		<path style="fill:#231815;" d="M209.991,166.16c4.147,1.508,5.265,5.743,0.479,7.178
			C205.683,174.773,199.461,162.33,209.991,166.16z"/>
		<path style="fill:#231815;" d="M223.87,162.33c2.034,1.831,13.008,6.172,9.577-0.132C230.467,156.72,215.49,154.789,223.87,162.33
			z"/>
		<path style="fill:#231815;" d="M247.8,167.595c-2.356-0.295-5.017,2.432-4.596,4.812c0.682,3.856,7.735,3.5,10.603,3.518
			C264.967,175.994,251.727,169.165,247.8,167.595z"/>
		<path style="fill:#231815;" d="M222.913,180.517c0.835-0.07,7.016-1.568,7.598-0.572c0.6,1.027-2.001,4.496-2.889,5.058
			C223.283,187.749,219.95,184.438,222.913,180.517z"/>
		<path style="fill:#231815;" d="M184.147,184.824c4.337,0.394,17.995,1.631,7.728,7.463
			C183.517,197.034,180.298,184.474,184.147,184.824z"/>
		<path style="fill:#231815;" d="M161.652,180.517c0.597-0.1,8.736-2.284,9.22-1.029c0.36,0.935-3.495,6.425-4.339,7.216
			C161.369,191.549,155.573,181.53,161.652,180.517z"/>
		<path style="fill:#231815;" d="M256.414,188.652c8.683,0.789,1.273,9.178-4.896,3.19
			C246.375,186.85,253.249,183.236,256.414,188.652z"/>
		<path style="fill:#231815;" d="M271.73,186.26c-0.299,1.793-1.476,4.526-0.552,6.306c1.195,2.301,6.152,2.613,8.209,1.367
			C283.945,191.171,274.586,187.427,271.73,186.26z"/>
		<path style="fill:#231815;" d="M227.699,225.983c2.079,0.624,9.133,2.046,8.408,4.91c-0.374,1.476-9.03,4.433-10.439,4.476
			C216.15,235.66,216.654,222.67,227.699,225.983z"/>
		<path style="fill:#231815;" d="M220.998,246.085c1.722,0.253,12.077-0.631,12.332,0.319c1.117,4.161-11.379,9.635-14.188,9.183
			c-2.514-0.404-6.59-3.049-7.099-5.79C211.122,244.84,217.807,245.615,220.998,246.085z"/>
		<path style="fill:#231815;" d="M145.38,263.792c1.797-0.449,9.75-2.228,10.116,1.294c0.2,1.928-7.411,7.802-9.177,8.415
			C140.797,275.416,140.25,265.074,145.38,263.792z"/>
		<path style="fill:#231815;" d="M146.337,281.022c3.487,0.41,7.084,0.156,10.529-0.479c-1.435,3.965-4.822,6.992-9.022,5.578
			C145.223,285.239,140.334,280.316,146.337,281.022z"/>
		<path style="fill:#231815;" d="M52.054,197.268c-5.375,2.481-4.786-2.871-1.436-3.828
			C53.968,192.482,58.276,194.396,52.054,197.268z"/>
		<path style="fill:#231815;" d="M113.946,225.462c-6.208-3.949-3.634,3.981,2.471,4.795c5.942,0.792,10.565-3.381,11.3-9.063
			c1.734-13.416-11.429-17.41-21.81-20.698c-7.044-2.231-4.189,2.097,0.513,3.727c5.606,1.943,12.081,1.727,16.467,6.48
			C128.967,217.294,123.988,231.906,113.946,225.462z"/>
		<path style="fill:#231815;" d="M39.859,293.561c1.512-0.29,8.216-0.918,8.956-2.803c0.883-2.142-12.95-0.209-14.04-0.024
			c-1.206,0.205-4.219,0.118-5.1,0.98c-5.894,5.771,18.595,23.128,22.334,26.038c12.067,9.389,23.812,20.648,37.12,28.205
			c6.454,3.665,13.751,6.76,21.279,6.952c2.711,0.069,16.803-2.033,15.055-7.349c-0.15-0.458-8.53,3.227-9.688,3.499
			c-4.748,1.116-9.883,0.677-14.566-0.5c-10.001-2.514-18.027-8.846-25.815-15.258c-8.54-7.032-17.604-13.387-25.991-20.615
			c-5.116-4.408-14.518-11.031-16.219-17.965C35.428,294.459,37.64,293.976,39.859,293.561z"/>
		<path style="fill:#231815;" d="M190.042,323.646c-2.764,0.813-2.606,2.958-0.186,3.642c2.763,0.78,7.795-2.577,10.198-3.56
			c4.673-1.91,9.511-2.97,14.464-3.891c1.789-0.333,11.122-0.702,12.148-2.34c3.216-5.136-8.97-0.567-11.013-0.078
			C207.114,319.464,198.497,321.223,190.042,323.646z"/>
		<path style="fill:#231815;" d="M297.661,292.87c-2.878,0.719-9.601,2.37-3.522,3.965c3.561,0.935,8.529-1.5,11.665-3.042
			c4.595-2.26,15.617-7.194,16.757-12.787c1.384-6.79-9.908-15.523-14.379-18.992c-7.945-6.164-16.805-11.039-24.985-16.871
			c-0.847-0.604-8.57-7.089-9.655-5.679c-1.023,1.329,1.935,3.75,2.706,4.503c6.855,6.701,16.85,10.161,24.74,15.531
			c6.063,4.126,16.018,10.355,18.537,17.835C322.014,284.721,303.754,291.35,297.661,292.87z"/>
		<path style="fill:#231815;" d="M94.431,265.38c-2.743,0.305-2.397,2.449-0.606,3.525c2.14,1.286,6.93-1.555,8.865-2.432
			c3.764-1.706,7.446-3.265,11.407-4.477c3.236-0.99,9.092-0.975,11.787-2.759c2.185-1.446,2.696-2.712-0.405-3.196
			c-2.547-0.397-5.857,1.942-8.2,2.768C109.896,261.411,102.233,264.39,94.431,265.38z"/>
		<path style="fill:#231815;" d="M94.957,273.807c-4.963,1.29-1.956,3.634,1.376,3.488c3.83-0.168,8.1-2.464,11.756-3.481
			c5.446-1.514,11.06-2.115,16.643-2.901c3.441-0.484,10.176-0.255,12.958-2.499c2.748-2.217,1.369-2.733-1.38-2.883
			c-3.336-0.182-7.379,2.446-10.779,3.083C115.389,270.515,105.006,271.371,94.957,273.807z"/>
		<path style="fill:#231815;" d="M424.901,189.267c-4.095,5.832-9.743,10.266-17.197,10.188c-8.632-0.091-14.337-5.727-19.73-11.751
			c-4.685-5.231-9.143-10.421-15.615-13.436c-2.612-1.217-5.747-2.633-8.655-2.792c-0.417-0.023-7.735,2.105-5.016,3.577
			c-1.057-0.573,0.473-3.417,0.909-3.91c1.325-1.497,3.183-1.51,5.07-1.548c4.472-0.09,9.499,1.961,13.27,4.256
			c8.125,4.946,12.564,14.234,20.607,19.145c6.6,4.03,14.945,3.92,20.537-1.741c2.899-2.935,4.739-6.74,7.095-10.087
			c0.27-0.384,7.597-7.796,7.591-6.671c0.037,1.246-4.422,5.916-5.153,7.257C427.276,184.205,426.178,186.785,424.901,189.267z"/>
		<path style="fill:#231815;" d="M356.053,180.886c-0.257,0.039,4.852,4.39,4.358,5.297c-1.193,2.188-6.267-1.173-6.969-2.293
			C350.928,179.883,356.586,176.144,356.053,180.886z"/>
		<path style="fill:#231815;" d="M364.242,181.677c-0.844,0.125,1.829,4.639,1.264,5.354c-1.509,1.907-4.914-2.839-5.057-3.711
			c-0.224-1.359,0.487-3.951,1.98-4.301C365.639,178.267,362.925,181.151,364.242,181.677z"/>
		<path style="fill:#231815;" d="M371.968,184.429c-0.023,3.065,5.279,2.482,5.42,3.734c0.3,2.659-3.91,2.256-5.267,1.709
			C367.437,187.986,369,179.797,371.968,184.429z"/>
		<path style="fill:#231815;" d="M366.92,190.998c3.187,4.503,9.699,5.76,14.335,8.18c4.415,2.305,8.262,5.333,11.81,8.797
			c3.436,3.355,6.833,6.769,10.276,10.095c1.929,1.863,3.21,2.574,6.022,1.938c7.813-1.768,11.395-8.715,18.38-13.14
			c5.051-3.2,9.858-7.006,15.638-8.844c3.448-1.097,10.251-0.185,4.797,3.302c-1.648,1.054-5.034,1.216-6.97,1.992
			c-2.831,1.135-5.5,2.654-8.098,4.238c-4.048,2.468-7.136,5.193-10.412,8.62c-5.669,5.932-13.354,9.63-20.833,4.635
			c-6.796-4.539-12.285-10.95-19.459-15.212c-4.799-2.851-9.839-5.583-13.969-9.404c-0.626-0.579-3.918-3.26-3.776-4.355
			C364.765,191.04,366.021,189.56,366.92,190.998z"/>
		<path style="fill:#231815;" d="M346.466,165.307c-6.772-5.45-13.69-6.105-21.619-2.627c-9.435,4.138-5.269,8.915,1.586,13.802
			c-0.772-0.629-4.96-0.95-6.314-1.748c-2.264-1.335-4.358-3.435-4.907-6.074c-1.398-6.723,8.266-10.344,13.257-11.968
			c5.54-1.803,10.21-0.613,15.284,2.033c3.034,1.582,12.914,7.476,12.204,12.01C355.981,170.583,347.85,165.907,346.466,165.307z"/>
		<path style="fill:#231815;" d="M329.863,173.602c-0.874,1.47,4.718,2.46,3.306,4.204c-1.329,1.64-5.149,0.128-6.039-1.205
			c-0.712-1.066-1.249-4.786,0.704-4.82C328.924,171.761,329.04,173.759,329.863,173.602z"/>
		<path style="fill:#231815;" d="M336.376,172.381c0.188-0.054,4.385,2.208,4.561,2.856c0.629,2.314-4.048,1.59-4.945,1.183
			C332.388,174.788,333.166,168.928,336.376,172.381z"/>
		<path style="fill:#231815;" d="M345.869,187.192c7.218,4.124,13.26,10.43,20.015,15.27c2.945,2.11,6.208,4.535,9.924,4.928
			c2.315,0.245,4.684-1.49,6.698-1.245c-0.215-0.026-2.673,2.592-3.191,2.872c-1.686,0.91-3.438,1.206-5.337,1.035
			c-5.648-0.509-10.814-5.306-15.3-8.368c-3.654-2.493-6.6-5.401-9.986-8.195c-2.301-1.899-12.362-5.805-12.005-9.296
			C336.645,184.598,345.274,187.035,345.869,187.192z"/>
		<path style="fill:#231815;" d="M409.778,178.058c1.457,4.007,5.469,12.348,3.257,16.593c-0.338,0.648-4.198-8.307-4.457-9.183
			c-0.524-1.773-3.782-8.928-2.219-9.766C407.239,175.23,409.03,177.43,409.778,178.058z"/>
		<path style="fill:#231815;" d="M401.645,169.069c-2.018,3.234-7.116,24.4-15.052,16.622c0.578,0.567,4.874-2.36,5.431-2.924
			c2.385-2.416,2.493-5.489,3.54-8.5c0.521-1.497,6.395-12.469,7.589-9.989C403.436,164.867,401.727,168.002,401.645,169.069z"/>
		<path style="fill:#231815;" d="M467.76,293.754c-1.389,7.398,7.812,10.512,8.305,16.895c0.023,0.305-4.068-2.102-4.308-2.295
			c-2.18-1.749-5.458-5.241-6.61-7.926c-0.515-1.201-1.046-12.829,1.829-11.106C467.457,289.609,467.001,293.721,467.76,293.754z"/>
		<path style="fill:#231815;" d="M469.117,309.794c1.558,6.348,8.727,8.229,10.667,13.576c0.164,0.453-4.056-0.628-4.416-0.79
			c-2.306-1.04-5.46-3.601-6.924-5.715c-0.927-1.339-4.618-10.186-2.099-10.342C467.319,306.462,468.342,309.02,469.117,309.794z"/>
		<path style="fill:#231815;" d="M405.616,38.876c-0.148,1.039-8.527,0.633-9.392-0.071c-1.356-1.105-0.789-1.476-1.007-2.752
			c-0.621-3.634,1.962-10.086,3.363-13.341c8.157-18.959,19.144,15.313,20.477,14.101C415.442,40.099,406.83,30.371,405.616,38.876z
			"/>
		<path style="fill:#231815;" d="M435.28,34.09c3.931-3.494,13.428-23.93,19.582-21.428c4.303,1.749,4.937,14.989,5.228,18.532
			c0.204,2.493,0.531,5.49-0.888,7.682c-1.869-1.869-4.121-5.352-6.459-6.459c-3.156-1.495-2.166,1.398-5.847,2.245
			c-3.557,0.818-0.523-2.06-4.573-1.793C440.013,33.02,438.001,34.09,435.28,34.09z"/>
	</g>
</g>
</svg>
