<?xml version="1.0" encoding="iso-8859-1"?>
<!-- Generator: Adobe Illustrator 18.1.1, SVG Export Plug-In . SVG Version: 6.00 Build 0)  -->
<svg version="1.1" id="_x38_" xmlns="http://www.w3.org/2000/svg" xmlns:xlink="http://www.w3.org/1999/xlink" x="0px" y="0px"
	 viewBox="0 0 512 512" style="enable-background:new 0 0 512 512;" xml:space="preserve">
<g>
	<path style="fill:#94C85C;" d="M70.388,336.068c-7.232-11.195-17.9-47.645-3.435-54.755c14.467-7.11,62.918-17.336,67.037-10.629
		c4.121,6.711,6.749,24.283,6.141,40.65c-0.605,16.366,9.618,64.817,19.962,80.493c10.346,15.676,74.068,35.516,124.295,36.284
		c50.228,0.767,119.686-16.322,144.82-45.982c25.134-29.663,4.203-54.467-9.333-72.452c-13.538-17.982-30.184-40.448-30.184-40.448
		l32.81-0.969c0,0,1.897,37.211,12.202,53.984c10.305,16.767,13.781,40.935,39.923,42.994
		c-19.112-14.912-19.719-28.044-19.719-28.044s13.779,11.438,33.336,14.345c-24.448-18.388-20.932-24.81-20.932-24.81
		s21.215,17.176,39.843,15.679c-32.084-18.67-35.196-23.157-37.902-38.551c-2.709-15.394,0.483-42.588,1.007-56.77
		c0.526-14.182,10.629-21.458-4.404-28.569c-15.03-7.113-15.03-7.113-34.749-5.655c-19.719,1.452-49.015-4.004-62.108-4.487
		c-13.092-0.486-28.406,0.038-38.185-1.414c-9.779-1.456-3.232-1.212-4.08-7.798c-0.849-6.586,12.121-32.327,13.454-38.833
		c1.334-6.506,0.846-22.914-16.285-32.286c-17.131-9.371-16.85-17.009-22.143-21.577c-5.293-4.564-18.545-30.184-22.911-30.348
		c-4.364-0.16-19.639,28.774-19.639,28.774s-27.274-1.011-34.912-1.292c-7.638-0.285,0.808,7.676-7.638-0.285
		c-8.444-7.961-16.525-25.741-23.071-25.981c-6.547-0.243-5.536,1.98-15.721,11.435c-10.182,9.455-24.929,53.703-26.263,60.208
		c-1.334,6.506-14.062,55.197-16.365,58.389c-2.303,3.192-5.737,7.433-13.496,10.424c-7.759,2.991-25.294,4.526-52.772,8.972
		c-27.478,4.446-58.469,15.314-63.116,22.792c-4.648,7.471,4.647,22.018,9.295,44.043c4.644,22.022,17.899,47.642,17.899,47.642
		s-8.645,26.992,8.366,39.639c-0.444,12.001,14.547,49.701,14.547,49.701s8.811-31.355,4.849-42.428
		c8.001,19.962,18.75,24.724,24.528,45.7c7.353-21.577,1.535-41.459-5.86-48.288c-7.395-6.829,12.041-0.643,18.305,7.235
		c6.263,7.878,25.214,27.152,25.214,27.152s-1.374-21.897-20.365-40.083c-18.993-18.187-24.852-36.975-24.852-36.975L70.388,336.068
		z"/>
	<path style="fill:#FFFFFF;" d="M183.994,174.212c-8.364,4.606-7.739,12.023,11.82,34.851
		c18.849,22.002,27.638,50.187,16.971,72.734c-11.655,24.638-23.819,112.194-8.182,132.437
		c15.638,20.243,205.412,28.911,217.715-37.822c-12.97-48.006-25.031-76.31-61.702-103.887
		c-24.592-18.493-46.49-27.942-50.792-44.488c-4.305-16.549,25.455-67.885,7.333-65.281c-18.123,2.607-34.548,3.64-46.065,4.849
		c-11.516,1.215-36.124,1.941-47.579,1.516C212.056,168.698,183.994,174.212,183.994,174.212z"/>
	<g>
		<path style="fill:#231815;" d="M222.301,165.876c-2.58,0.349-5.182,0.669-7.707,0.905c-3.299,0.31-9.101,0.796-15.055,0.681
			c-2.999,0-5.567-0.166-8.187-0.525c-2.946-0.32-5.361-0.285-6.857-0.441l-4.734-0.493l5.007,5.322
			c-0.488-0.518-0.897-2.098-1.195-3.755l-0.104-0.627l-0.046-0.362l-0.027-0.042l-0.078-0.08c-1.462-0.841-4.606-1.407-6.906-0.758
			c-2.389,0.64-4.315,2.469-4.558,6.285c-0.329,6.231,7.202,7.35,11.673,5.281c0.201-0.089,0.497-0.182,0.998-0.32l0.974-0.278
			c0.304-0.099,0.43-0.131,0.902-0.323l0.681-0.32c0.43-0.234,0.856-0.537,1.225-0.886l-2.772,1.257
			c1.393-0.416,3.338-0.934,5.54-1.145c2.48-0.156,5.733-0.454,8.601-0.889c5.805-0.745,11.74-1.89,14.711-2.607
			c3.654-0.854,7.097-1.513,9.486-1.602c1.811,0.032,12.698-1.878,26.202-0.787c6.798,0.282,14.371,0.336,21.58-0.764
			c3.597-0.528,7.072-1.299,10.306-2.178l2.379-0.675c0.669-0.15,1.867-0.588,2.319-0.783c1.236-0.422,2.528-0.656,3.796-0.774
			c5.033-0.416,9.349,0.307,12.797,0.563c3.469,0.323,6.173,0.448,8.316,0.346c4.305-0.224,6.183-0.876,7.897-1.522
			c1.767-0.71,2.827-2.278,2.97-3.714c0.197-1.433-0.437-2.738-1.281-3.544c-0.857-0.822-1.989-1.283-2.924-1.292
			c-1.017-0.042-1.682,0.272-2.789,1.321c-1.169,0.989-2.303,1.779-5.559,2.239c-1.641,0.224-3.856,0.288-7.014,0.166
			c-3.179-0.045-7.245-0.598-13.04,0.01c-1.545,0.195-3.219,0.521-4.942,1.148c-1.065,0.425-1.167,0.496-2.063,0.755l-2.242,0.681
			c-3.043,0.886-6.288,1.66-9.642,2.204c-6.701,1.126-13.878,1.171-20.662,0.96c-3.379-0.087-6.654-0.281-9.854-0.237
			c-3.146,0.032-6.012,0.237-8.491,0.47C226.967,165.211,223.513,165.723,222.301,165.876z"/>
		<path style="fill:#231815;" d="M334.708,178.367c0.585-1.078,1.247-2.156,1.935-3.202c0.966-1.465,2.864-4.292,4.611-7.216
			c1.782-2.859,3.227-6.154,4.045-7.408c1.223-1.395,1.535-4.692-0.117-6.419c-1.588-1.82-4.297-1.529-7.259,0.704
			c-2.418,1.797-3.573,2.824-4.128,3.109c-0.523,0.272-0.072,0.25,0.822,0.963c0.633,0.272,0.936,2.581,0.245,5.61
			c-0.608,2.958-1.811,6.259-2.311,7.913c-0.539,1.75-1.235,3.31-1.983,4.241c-0.248,0.323-1.161,1.721-2.114,3.854
			c-1.076,1.868-2.437,4.884-3.504,8.028c-2.228,6.378-3.71,14.291-3.237,20.202c0.377,5.812,2.429,9.295,3.953,11.112
			c1.58,1.839,2.416,2.408,3.143,3.013c1.668,1.199,3.736-0.966,4.355-3.25c0.643-2.328,0.713-4.491-0.659-4.145
			c-0.729,0.096-1.364,0.176-2.348-0.493c-0.911-0.691-2.415-2.3-3.01-6.768c-0.68-4.74,0.44-12.157,2.415-18.152
			c0.483-1.507,1.001-2.927,1.532-4.203l0.796-1.794c0.243-0.557,0.526-0.972,0.886-1.804
			C333.598,180.276,334.449,178.882,334.708,178.367z"/>
		<path style="fill:#231815;" d="M317.472,120.343c-0.91-0.717-1.782-1.487-2.607-2.271l-2.351-2.405
			c-1.07-1.033-2.021-2.031-2.952-3.122c-1.855-2.136-2.981-4.279-2.763-5.178c0.317-2.735-0.053-2.453-7.651-1.228
			c-3.045,0.643-4.26,2.597-4.022,4.392c0.206,1.794,1.61,3.051,2.957,3.224c0.892,0.205,3.478,2.213,6.254,3.825
			c2.816,1.683,5.637,3.179,7.098,4.021c1.564,0.796,2.923,1.692,3.658,2.527c0.515,0.643,4.606,3.816,9.375,7.638
			c1.159,0.985,2.405,1.98,3.57,3.058l0.883,0.79l0.668,0.729c0.499,0.57,0.953,1.19,1.407,1.798
			c1.781,2.476,3.219,5.13,4.414,7.366c4.633,8.936,5.799,10.453,6.456,11.78c1.937,2.93,9.618-4.695,6.05-5.626
			c-1.783-0.812-2.895-0.723-7.766-8.863c-1.335-2.188-2.952-4.935-5.062-7.702c-0.545-0.684-1.083-1.378-1.694-2.044
			c-0.278-0.298-0.68-0.816-1.091-1.119l-0.988-0.841c-1.276-1.123-2.588-2.127-3.832-3.131L317.472,120.343z"/>
		<path style="fill:#231815;" d="M266.504,86.202c-0.848,1.119-1.74,2.229-2.647,3.275c-2.545,2.971-9.81,11.297-12.134,11.805
			c-3.106,0.835-5.015,3.896,0.707,8.921c4.734,4.11,7.785,0.819,7.489-1.874c-0.06-1.766,5.925-12.052,7.589-15.532
			c0.902-1.833,1.913-3.442,2.867-4.334c0.349-0.326,1.457-1.679,3.066-3.643l2.808-3.407c0.867-1.251,2.066-2.463,2.796-2.581
			c0.278-0.019,0.489-0.013,1.012,0.393c0.482,0.368,1.022,1.023,1.528,1.718c1.02,1.433,1.973,3.134,3.029,4.801
			c2.085,3.074,3.796,6.371,5.242,8.972c5.508,10.485,6.097,12.228,6.628,13.747c1.155,3.128,11.16-1.222,6.945-4.484
			c-2.047-1.638-3.056-2.181-8.836-11.981c-1.625-2.61-3.374-5.757-5.687-9.007c-1.016-1.51-2.005-3.205-3.306-4.97
			c-0.68-0.879-1.396-1.798-2.551-2.69c-1.043-0.879-3.143-1.724-5.046-1.238c-1.818,0.454-2.882,1.411-3.706,2.201
			c-0.785,0.787-1.477,1.721-1.892,2.316l-2.733,3.461L266.504,86.202z"/>
		<path style="fill:#231815;" d="M230.185,101.692c-0.544,0.019-1.103,0.026-1.654-0.022c-1.527-0.217-6.026-0.23-7.187-1.343
			c-1.542-1.619-3.186-0.486-0.87,6.778c1.881,5.962,2.984,5.767,3.157,3.781c0.029-1.344,3.781-3.528,5.153-4.308
			c0.688-0.445,1.372-0.653,1.855-0.451c0.694,0.15,8.834,0.374,13.328,1.071c4.411,0.573,5.038,1.036,5.623,1.382
			c1.219,0.688,2.167-10.088,0.269-8.258c-0.935,0.883-1.363,1.423-5.578,1.423l-8.326-0.157
			C233.121,101.549,230.696,101.66,230.185,101.692z"/>
		<path style="fill:#231815;" d="M175.276,85.38c-0.983,1.529-1.922,3.08-2.827,4.59c-1.292,2.121-3.533,6.301-5.399,10.383
			c-1.898,4.055-3.416,8.079-4.359,9.269c-1.308,1.555-1.996,3.944-1.231,5.972c0.752,2.069,2.963,3.377,6.739,2.843
			c3.106-0.422,4.619-1.324,5.289-2.463c0.656-1.145,0.449-2.671-0.273-3.87c-0.499-0.749-0.406-4.472,0.411-8.62
			c0.763-4.145,2.183-8.581,2.923-10.744c0.747-2.293,1.783-4.33,2.813-5.466c0.387-0.4,1.532-2.168,3.61-4.101
			c2.058-2.018,5.225-3.873,8.788-2.536c3.579,1.241,6.992,4.67,9.832,8.118c2.869,3.493,5.329,7.174,7.334,10.235l10.168,15.941
			c1.247,1.894,4.388,1.132,5.882-0.736c0.79-0.895,1.327-1.938,1.475-2.77c0.138-0.844-0.16-1.542-1.4-2.226
			c-2.415-1.436-3.712-1.967-11.618-13.293c-2.153-3.013-4.76-6.71-7.915-10.411c-3.195-3.611-6.84-7.577-12.228-9.467
			c-2.669-0.934-5.857-0.816-8.267,0.195c-2.424,0.956-4.185,2.504-5.418,3.72C176.971,82.572,175.778,84.689,175.276,85.38z"/>
		<path style="fill:#231815;" d="M237.925,159.368c-2.14-1.171-4.243-3.435-4.121-6.707c1.092,0.038,3.274,0.121,5.455,0.201
			c-0.038,1.091,0.969,3.314,0.969,3.314c-1.171,2.143-3.393,3.15-3.393,3.15L237.925,159.368z"/>
		<path style="fill:#231815;" d="M267.545,156.096c-2.141-1.171-4.243-3.435-4.121-6.707c1.091,0.042,3.272,0.122,5.455,0.202
			c-0.04,1.091,0.969,3.314,0.969,3.314c-1.172,2.143-3.395,3.15-3.395,3.15L267.545,156.096z"/>
		<path style="fill:#231815;" d="M463.779,292.543c0.069-2.981,0.513-10.734,1.451-18.401l2.3-18.327
			c0.186-1.529,0.659-5.255,0.908-9.97c0.221-4.676,0.208-10.484-1.391-15.33c-0.8-2.44-1.954-4.449-3.544-6.16
			c-1.626-1.775-3.493-3.227-5.298-4.366c-3.632-2.268-6.904-3.365-8.118-3.909c-2.442-1.104-7.092-2.303-11.75-2.731
			c-4.644-0.486-9.203-0.326-11.297-0.205c-2.156,0.089-4.647,0.361-7.651,0.649c-2.928,0.249-5.901,0.342-8.374,0.352
			c-4.961,0.147-16.188-0.614-18.598-0.905c-2.429-0.166-13.681-0.314-18.479-0.992l-15.821-1.887l-10.251-1.139
			c-3.206-0.377-5.676-0.393-7.995-0.47c-4.552-0.089-9.16-0.825-11.959-1.753c-2.866-0.918-4.257-1.909-3.259-2.805
			c1.989-1.83,3.528-2.047,5.263-3.422c1.698-1.433,3.531,1.436,9.248,1.158c1.417-0.073,3.229-0.157,5.359-0.122
			c2.165,0.045,4.444,0.272,6.827,0.448c4.777,0.39,9.963,0.832,14.574,0.899c9.223,0.15,15.703,2.127,20.878,3.265
			c5.137,1.174,14.544,4.216,19.874,3.723c2.645-0.211,6.347-0.205,9.859-0.406c3.483-0.189,6.848-0.652,8.797-1.03
			c1.927-0.419,7.182-0.995,12.802-0.976c5.618-0.064,11.572,0.729,14.831,0.953c3.219,0.125,9.586,2.738,14.416,7.548
			c2.373,2.29,4.478,5.262,5.597,7.99c1.148,2.696,1.593,4.961,1.913,6.272c1.011,5.236,2.456,0.208,0.86,5.242
			c-1.878,4.833-3.122,6.109-3.237,9.525c-0.048,1.682,0.022,7.644-0.314,13.533c-0.315,5.882-0.762,11.652-1.228,13.04
			c-0.963,2.779-0.09,4.826-0.886,6.659c-0.785,1.83-1.423,2.252-1.19,5.645c0.269,3.378-0.205,1.919,0.648,6.26
			c0.955,4.289,1.023,0.537,0.939,7.065c0.017,3.234-1.521,5.185-3.253,4.826C465.541,301.937,463.552,299.004,463.779,292.543z"/>
		<path style="fill:#231815;" d="M141.129,268.005c1.698,2.795,3.39,7.104,3.931,10.74c0.632,3.662,0.491,6.643,0.209,7.718
			c-0.564,2.152-0.254,3.979,0.029,5.834c0.075,0.461,0.517,4.35,0.737,9.765l0.553,19.354c0.304,7.12,0.393,14.025,1.151,19.411
			c0.673,5.393,1.603,9.343,2.056,10.344c1.878,3.918,3.098,19.402,3.034,19.408c0.002-0.013-7.027-3.026-7.299-4.286
			c-0.264-1.276-0.158-5.741-2.015-9.368c-0.902-1.801-3-8.575-4.179-15.871c-1.227-7.302-1.395-14.688-1.121-17.246
			c0.681-5.354-4.316-21.657-4.708-24.382c-0.142-1.442-0.971-4.391-2.016-7.235c-1.043-2.872-2.353-5.453-3.026-6.998
			c-0.672-1.612-2.119-1.926-3.071-2.207c-0.985-0.294-1.481-0.486-1.011-2.29c0.488-1.775,2.295-5.69,3.601-9.448
			c1.321-3.697,2.357-7.075,2.37-7.069c1.772-0.109,3.641-0.096,5.569,0.141C135.872,264.291,139.443,265.113,141.129,268.005z"/>
		<path style="fill:#231815;" d="M372.15,250.893l-8.054-4.74c-3.678-2.201-10.75-6.365-17.009-10.683
			c-6.291-4.293-11.671-8.828-12.928-10.651c-3.483-4.842-10.065-9.819-14.799-3.848c-3.902,4.961,3.281,11.249,7.883,12.167
			c1.482,0.348,7.796,4.126,14.884,7.772c7.075,3.688,14.87,7.334,18.707,9.049c4.046,1.81,7.763,3.701,10.032,5.354l2.847,1.964
			c0.71,0.502,1.503,1.1,2.325,1.804c0.8,0.659,1.577,1.577,2.599,2.616c3.878,4.062,8.858,9.426,14.048,15.567
			c5.199,6.119,10.596,12.983,15.429,19.815c4.924,6.771,8.965,13.645,12.594,19.303c6.992,11,9.876,17.672,11.507,21.897
			c1.605,4.225,1.996,5.959,2.456,7.612c1.678,6.663,13.176,6.81,7.544-3.419c-1.417-2.44-2.471-4.219-4.574-8.259
			c-2.114-4.011-5.401-10.36-12.349-20.797c-3.656-5.431-7.91-12.429-12.982-19.245c-4.987-6.88-10.531-13.814-15.9-20.023
			c-5.342-6.221-10.555-11.741-14.617-15.893c-0.94-0.96-2.082-2.175-3.183-3.032c-1.071-0.877-2.042-1.522-2.895-2.101
			C374.012,251.999,372.783,251.267,372.15,250.893z"/>
		<path style="fill:#231815;" d="M150.949,157.234c0.43-1.523,0.937-3.039,1.487-4.491c0.781-2.037,2.338-5.936,4.211-9.282
			c1.847-3.374,4.041-6.074,5.17-6.534c2.973-1.353,4.763-4.321-0.956-9.362c-4.78-4.126-8.545,0.329-8.06,3.397
			c0.08,0.988-1.394,4.817-2.511,8.972c-1.162,4.148-2.056,8.62-2.379,10.833c-0.342,2.332-0.793,4.472-1.414,5.84
			c-0.493,0.982-2.349,7.744-4.684,15.737c-0.654,1.97-1.15,4.142-2.052,5.876l-2.77,6.055c-1.813,4.011-3.534,7.859-4.828,11.198
			c-0.632,1.65-1.161,3.176-1.514,4.705c-0.358,1.506-0.459,3.125-0.304,4.433c0.357,2.575,0.713,3.838,0.819,5.002
			c0.253,2.233,0.126,3.122,0.072,3.982c-0.355,3.32,10.62,4.993,8.178-1.232c-0.649-1.468-1.15-2.556-1.962-4.929
			c-0.384-1.148-1.009-2.728-1.241-3.973c-0.262-1.142,0.077-3.183,1.091-6.141c1.057-3.118,2.642-6.966,4.347-10.964l2.629-6.071
			l0.736-1.708l0.533-1.711l0.926-3.154L150.949,157.234z"/>
		<path style="fill:#231815;" d="M400.316,266.015c-0.569-0.006-1.145-0.06-1.689-0.182c-0.768-0.173-2.25-0.512-3.424-1.107
			c-1.193-0.592-1.956-1.401-1.825-2.134c0.019-1.011,0.281-1.254-0.317-0.582c-0.544,0.685-2.084,2.089-4.609,4.945
			c-2.052,2.322-2.529,4.091-1.964,5.124c0.525,1.049,1.911,1.199,2.78,0.505c0.635-0.384,2.652-0.425,4.462-0.768
			c1.839-0.31,3.608-0.771,4.475-1.087c0.911-0.333,1.734-0.486,2.303-0.256c0.409,0.16,3.077,0.294,6.261,0.208l9.472-0.355
			c5.073-0.128,5.689,0.378,6.317,0.666c1.037,0.636,2.432-10.159-0.254-8.259c-1.148,0.963-1.7,1.487-6.541,2.152
			C410.596,265.708,401.341,266.175,400.316,266.015z"/>
		<path style="fill:#231815;" d="M436.16,325.9c1.967,5.226,5.058,11.265,9.095,16.863c4.014,5.62,9.055,10.664,14.323,14.223
			c5.257,3.589,9.528,5.185,12.041,6.224c2.541,0.979,3.347,1.456,2.353,1.302c-0.985-0.173-2.533,0.003-5.089-0.329
			c-2.53-0.333-6.178-1.142-10.622-3.854c-8.812-5.543-14.02-12.183-17.077-15.871c-1.512-1.893-1.785-2.543-2.636-4.228
			c-0.795-1.721-2.293-4.423-5.204-10.939c-2.844-6.554-3.613-10.773-3.721-12.759c-0.082-2.005,0.584-1.852,1.386-0.013
			C432.573,320.239,436.139,325.929,436.16,325.9z"/>
		<path style="fill:#231815;" d="M422.833,254.964c-0.261,8.793,1.512,21.113,2.744,31.345c1.238,10.235,0.808,14.608,0.427,13.091
			c-0.307-1.522-2.586-4.257-3.835-12.036c-1.217-7.763-2.192-13.981-2.888-17.617c-0.627-3.643,0.084-2.121-0.334-13.133
			c-0.197-11.064,2.129-13.059,2.341-9.928C421.568,249.821,422.824,254.967,422.833,254.964z"/>
		<path style="fill:#231815;" d="M452.627,333.753c0.851,3.438,2.601,7.382,4.999,11.06c2.389,3.694,5.418,7.078,8.38,9.954
			l6.467,6.122c1.283,1.27,1.587,1.868,1.017,1.555c-1.062-0.678-4.329-0.403-9.49-4.743c-5.057-4.379-8.396-8.645-10.365-11.147
			c-0.98-1.264-1.113-1.721-1.554-2.888c-0.411-1.184-1.249-3.035-2.79-7.472c-1.478-4.475-1.42-7.347-1.129-8.665
			c0.313-1.331,0.934-1.19,1.35,0.035C450.305,330.068,452.608,333.784,452.627,333.753z"/>
		<path style="fill:#231815;" d="M467.673,320.793c-0.409-2.115-1.884-3.387-3.483-3.493c-1.51-0.118-3.336,1.568-2.637,5.662
			c0.785,4.091,2.706,6.672,4.847,9.147c2.181,2.485,4.655,4.894,7.606,8.607c5.922,7.401,11.746,14.188,16.917,18.612
			c2.554,2.162,4.999,1.286,5.207-0.662c0.219-1.989-1.529-4.814-7.177-7.852c-3.038-1.657-4.504-2.975-6.088-4.638
			c-1.569-1.692-3.291-3.726-6.472-7.363C471.349,332.959,468.764,326.39,467.673,320.793z"/>
		<path style="fill:#231815;" d="M452.539,333.305c2.49,3.192,6.683,6.24,11.308,8.812c4.638,2.594,9.727,4.788,14.371,6.707
			c9.287,3.79,13.155,5.463,11.639,5.319c-1.465-0.291-4.954,0.803-12.372-1.826c-7.345-2.671-13.055-5.275-16.439-6.845
			c-1.69-0.793-2.092-1.164-3.226-2.098c-1.086-1.005-3.09-2.297-7.136-6.288c-4.052-4.117-4.785-8.086-4.5-9.666
			c0.294-1.644,0.909-1.324,1.356,0.045C448.463,330.423,452.536,333.378,452.539,333.305z"/>
		<path style="fill:#231815;" d="M480.134,319.455c5.695,5.418,15.075,11.406,22.633,16.661c7.571,5.242,10.181,8.243,8.936,7.612
			c-1.199-0.694-4.468-0.63-10.44-4.385c-5.93-3.777-10.718-6.746-13.597-8.402c-2.84-1.711-1.36-1.337-8.991-7.59
			c-7.537-6.439-7.369-9.304-5.105-7.635C475.859,317.357,480.136,319.462,480.134,319.455z"/>
		<path style="fill:#231815;" d="M476.018,329.463c5.377,4.177,14.956,7.475,22.511,10.728c7.596,3.263,10.4,5.438,9.208,5.15
			c-1.183-0.329-4.103,0.499-10.053-1.695c-5.92-2.201-10.699-3.889-13.565-4.801c-1.431-0.461-1.775-0.739-2.76-1.395
			c-0.972-0.688-2.626-1.615-6.487-4.03c-3.837-2.411-5.668-5.268-5.482-6.966c0.073-0.819,0.444-1.049,0.659-0.976
			c0.25,0.08,0.401,0.378,0.682,0.825C471.903,328.248,476.088,329.47,476.018,329.463z"/>
		<path style="fill:#231815;" d="M473.242,317.322l0.281,0.665c0.174,0.665,0.854,2.552,0.361,3.31
			c-0.681,1.043,0.058,1.433,3.771-1.241c3.039-2.188,2.754-2.719,1.644-2.322c-0.733,0.275-2.501-0.809-3.184-1.155
			c-0.363-0.169-0.601-0.397-0.594-0.652c0.002-0.179-0.395-1.11-1.049-2.252c-0.659-1.145-1.605-2.351-2.253-3.179
			c-1.294-1.615-1.329-1.98-1.39-2.313c-0.144-0.665-4.779,3.874-3.405,3.605c0.659-0.125,1.055-0.243,2.407,0.953
			C471.377,313.957,473.014,316.807,473.242,317.322z"/>
		<path style="fill:#231815;" d="M143.181,217.449c-2.339,0.266-8.618,2.469-14.919,3.8c-6.298,1.41-12.564,2.258-14.812,2.524
			c-4.446,0.601-10.286,4.289-13.09,3.182c-2.765-1.078-5.648,0.662-8.84,1.305c-7.509,1.481-14.331,3.627-17.572,2.898
			c-3.245-0.723-11.28,1.475-14.446,1.234c-3.183-0.256-13.143,0.665-16.824,1.145c-1.898,0.205-6.02,0.844-10.139,1.954
			c-4.113,1.046-7.977,2.517-9.489,3.368c-1.527,0.825-4.435,1.974-7.105,3.589c-2.703,1.58-5.034,3.697-6.253,5.534
			c-1.339,1.756-2.861,5.847-2.757,10.197c-0.013,4.305,1.087,8.495,1.523,9.554c0.433,1.071,0.523,2.207,0.751,3.787
			c0.112,0.787,0.269,1.686,0.531,2.735l0.307,1.343l0.192,0.896c0.144,0.617,0.326,1.283,0.547,2.002
			c1.794,5.738,2.001,10.152,3.709,14.112c1.742,3.94-1.615,3.416-0.769,6.051l1.388,4.101c0,0,2.002-1.996,2.811,0.313
			c0.777,2.328,4.123,9.509,5.383,12.221c1.247,2.722-0.71,2.332,2.428,7.478c3.253,4.967,1.895,5.78,5.185,10.597
			c1.663,2.373,4.657,5.348,6.64,6.627c0.984,0.685,1.676,1.049,1.858,1.28c0.176,0.211-0.123,0.358-1.335,0.08
			c-2.461-0.678-4.077-1.436-5.391-2.047c-1.324-0.656-2.418-1.318-3.925-2.863c-2.984-3.134-4.859-5.62-6.234-7.798
			c-5.498-9.161-6.179-11.681-6.992-13.37c-0.726-1.743-1.442-3.493-2.555-6.442c-1.107-2.943-2.41-5.162-3.016-6.954
			c-0.601-1.794-1.679-3.445-1.935-6.013c-0.26-2.565,0.355-6.001,0.362-5.994c-0.009-0.016,0.301-4.606-1.398-7.376
			c-1.734-2.744-2.891-6.461-3.709-9.464c-0.355-1.526-1.239-3.899-1.93-6.285c-0.71-2.38-1.198-4.785-1.192-6.084
			c0.049-2.495-0.996-7.379,1.606-13.152c1.339-2.808,2.903-4.507,4.771-6.326c1.909-1.794,4.174-3.765,8.041-6.394
			c3.938-2.552,5.601-2.44,6.691-2.466c1.132,0.022,1.775,0.029,4.289-1.746c5.062-3.493,10.2-5.473,14.748-5.991
			c4.478-0.554,9.151,1.545,12.877,0.691c3.732-0.857,11.236-1.986,14.316-2.76c3.099-0.748,14.286-1.797,16.124-2.037
			c1.842-0.199,7.54,0.157,10.977-1.91c3.43-1.954,13.955-1.881,16.77-3.208c2.853-1.168,8.825-4.027,11.315-5.556
			c2.602-1.407,8.151-4.043,9.864-3.275c1.722,0.732,3.427,2.846,8.276,4.577C145.872,212.76,143.259,217.404,143.181,217.449z"/>
		<path style="fill:#231815;" d="M93.545,272.61c-1.698,0.297-3.427,0.556-5.114,0.758c-4.753,0.573-18.318,2.127-20.832,1.007
			c-1.724-0.713-3.704-0.774-4.99,0.214c-0.31,0.246-0.595,0.56-0.801,0.944c-0.261,0.377-0.115,0.864-0.353,1.401
			c-0.323,1.119-0.803,2.409-1.052,4.318c-0.205,1.599,0.045,2.879,0.967,3.745c1.06,0.867,1.798,1.334,2.752,1.539
			c1.823,0.397,3.637-0.307,4.676-1.417c1.423-1.392,15.446-5.265,19.923-6.816c2.37-0.799,4.641-1.362,6.247-1.427
			c2.344-0.061,29.476-4.807,44.2-6.813c14.486-1.961,16.501-1.507,18.388-1.395c1.881,0.154,3.035-2.364,3.424-4.737
			c0.443-2.361-1.175-4.718-4.438-3.467c-3.075,1.25-4.478,1.807-18.235,4.209L93.545,272.61z"/>
		<path style="fill:#231815;" d="M61.383,302.583c-0.018-1.1,0.008-2.217,0.152-3.295c0.166-1.513,0.603-4.423,1.443-7.001
			c0.813-2.591,1.993-4.798,2.88-5.271c2.337-1.299,2.778-3.861-4.222-6.899c-5.756-2.453-7.446,1.328-6.047,3.541
			c0.4,0.726,0.259,3.742,0.342,6.921c0.059,3.189,0.392,6.55,0.703,8.175c0.314,1.715,0.493,3.301,0.314,4.395
			c-0.144,0.793-0.125,5.959,1.094,12.077c1.129,6.135,3.72,13.072,6.163,17.665c2.393,4.526,4.117,6.938,5.121,8.479
			c1.007,1.545,1.398,2.169,1.74,2.808c1.657,2.597,9.795-4.536,5.895-5.799c-0.953-0.355-1.687-0.611-2.869-1.615
			c-1.155-1.023-2.837-2.77-5.118-6.531c-2.44-4.005-4.998-10.309-6.183-16.018C61.515,308.526,61.407,303.604,61.383,302.583z"/>
		<path style="fill:#231815;" d="M47.09,389.166c1.756,8.595,5.084,20.051,6.963,29.951c1.871,9.848,1.347,14.102,0.979,12.647
			c-0.354-1.458-2.61-4.017-4.305-11.364c-1.689-7.344-3.391-13.13-4.561-16.459c-1.183-3.32-0.042-2.073-2.485-12.263
			c-0.296-1.334-0.531-2.188-0.903-2.866c0.075-0.409-1.878-1.497-1.934-2.565c-0.075-1.19,0.733-2.079,1.238-2.728
			c0.486-0.547,0.825-0.809,1.148-1.052c1.257-0.902,1.596-0.355,0.928,0.995c-0.374,0.755-0.608,1.353-0.629,1.83
			c-0.054,0.25,0.15,0.518,0.465,0.573l0.374,0.115l0.438,0.24C46.534,387.711,47.033,389.17,47.09,389.166z"/>
		<path style="fill:#231815;" d="M62.24,399.159c-0.408,6.128,0.523,15.001-0.996,22.431c-1.586,7.462-4.609,9.589-4.104,8.553
			c0.352-1.072-0.291-3.525,0.555-8.726c0.795-5.281,0.477-9.634,0.165-12.145c-0.352-2.527,0.451-1.404,0.456-9.029
			c0.005-7.68,2.135-9.081,2.423-6.88C61.065,395.541,62.24,399.159,62.24,399.159z"/>
		<path style="fill:#231815;" d="M85.002,392.24c3.854,8.563,5.46,21.369,4.734,31.751c-0.768,10.366-2.615,14.31-2.512,12.8
			c0.033-1.535-1.291-4.721-1.03-12.378c0.241-7.667-0.59-13.731-1.463-17.128c-0.438-1.702-0.43-2.197-0.533-3.566
			c-0.171-1.334-0.229-3.675-2.135-8.454c-2.005-4.705-3.752-7.168-4.356-8.581c-0.633-1.391-0.098-1.692,1.175-0.701
			c1.239,0.998,2.861,2.454,4.075,3.794C84.151,391.115,84.999,392.24,85.002,392.24z"/>
		<path style="fill:#231815;" d="M70.527,396.881c4.179,8.163,13.143,18.564,16.8,29.602c1.849,5.437,2.117,9.506,2.085,11.847
			c-0.073,2.367-0.384,3.093-0.495,2.268c-0.32-1.648-1.99-4.756-4.702-12.35c-2.869-7.625-6.835-12.96-9.154-16.011
			c-2.367-3.08-0.9-1.97-7.08-11.943c-3.027-5.073-4.009-8.582-4.134-10.261c-0.125-1.689,0.537-1.631,1.351-0.195
			C66.81,392.752,70.513,396.901,70.527,396.881z"/>
		<path style="fill:#231815;" d="M103.71,375.442c-0.992-1.04-1.97-2.114-2.883-3.186c-2.61-3.026-9.888-11.508-10.083-13.917
			c-0.385-3.218-3.352-5.712-9.017-0.605c-4.631,4.2-1.869,7.561,0.86,7.696c1.756,0.195,11.19,7.737,14.4,9.928
			c1.692,1.183,3.136,2.45,3.87,3.544c0.502,0.822,4.763,5.239,8.967,11.157c4.297,5.869,7.758,13.632,9.015,19.415
			c1.318,5.658,1.372,9.02,1.412,11.067c-0.008,2.063-0.168,2.866-0.283,3.646c-0.529,3.045,10.334,4.734,8.24-0.688
			c-0.541-1.286-0.953-2.217-1.454-4.309c-0.534-2.076-1.009-5.354-2.643-11.143c-1.66-6.202-5.62-14.624-10.346-20.825
			C109.131,380.956,104.599,376.443,103.71,375.442z"/>
		<path style="fill:#231815;" d="M97.707,388.818c8.116,6.336,16.725,17.454,22.778,27.139c6.002,9.682,7.71,14.032,6.648,12.736
			c-1.046-1.327-4.436-3.147-9.248-10.28c-4.784-7.123-9.079-12.42-11.869-15.206c-1.385-1.401-1.671-1.884-2.567-3.134
			c-0.931-1.199-2.343-3.387-6.773-7.101c-4.476-3.62-7.483-5.118-8.834-6.131c-1.367-0.976-1.01-1.484,0.749-1.155
			C92.09,386.246,97.742,388.744,97.707,388.818z"/>
		<path style="fill:#231815;" d="M33.145,358.458c-0.107-0.813-0.131-1.651-0.11-2.466c0.014-2.3,0.645-8.904,2.119-10.043
			c1.924-1.542,1.379-3.908-6.25-4.052c-6.24-0.115-6.445,2.488-4.551,3.71c1.18,0.813,2.76,8.204,3.765,10.504
			c0.476,1.228,0.764,2.379,0.646,3.211c-0.067,0.598,0.186,4.42,1.42,8.972c1.16,4.567,3.749,9.704,6.375,12.8
			c2.534,3.067,4.35,4.513,5.406,5.466c1.065,0.963,1.473,1.363,1.852,1.791c1.802,1.676,7.051-7.766,3.953-7.261
			c-0.766,0.07-1.382,0.166-2.415-0.211c-1.019-0.39-2.548-1.177-4.683-3.371c-2.309-2.322-4.66-6.538-5.834-10.6
			C33.606,362.872,33.244,359.213,33.145,358.458z"/>
		<path style="fill:#231815;" d="M276.838,111.643c-7.635-1.135-9.496-9.09-1.858-8.808
			C282.616,103.119,286.616,113.095,276.838,111.643z"/>
		<path style="fill:#231815;" d="M198.972,119.687c-10.685,2.252-11.759-6.992-4.041-8.892
			C202.649,108.896,207.781,117.829,198.972,119.687z"/>
		<path style="fill:#231815;" d="M157.298,387.868c0.486,1.398,3.665,5.597,9.827,9.602c6.069,4.068,14.65,7.99,23.61,11.124
			c17.943,6.362,37.235,9.704,42.075,10.577c14.881,2.725,28.927,1.478,32.244,1.769c3.347,0.297,4.828,0.918,4.632,3.493
			c-0.194,2.562-0.897,3.566-4.62,3.24c-1.86-0.163-8.038-0.944-14.567-1.964c-6.533-0.995-13.41-2.252-16.803-2.713
			c-17.733-2.316-37.637-6.659-53.338-12.669c-7.855-2.978-14.646-6.394-19.619-9.803c-5.001-3.362-8.07-6.848-9.173-8.259
			c-2.277-2.789-2.556-4.961-2.183-6.013c0.392-1.107,1.402-1.347,2.394-1.631c1.014-0.265,2.156,0.134,3.169,0.704
			C155.954,385.917,156.814,386.717,157.298,387.868z"/>
		<path style="fill:#231815;" d="M446.002,368.911c-0.603,1.247-1.886,3.838-4.211,6.88c-2.306,3.058-5.616,6.586-9.757,10.187
			c-8.255,7.241-19.8,14.774-32.102,21.091c-12.287,6.359-25.321,11.489-36.213,14.892c-10.891,3.432-19.597,5.207-23.122,5.866
			c-10.755,2.047-21.196,3.615-29.691,4.299c-8.482,0.71-14.972,0.601-17.483,0.288c-5.028-0.656-7.197-1.682-6.698-4.19
			c0.499-2.559,1.532-3.307,6.679-2.578c2.568,0.384,11.218,1.539,20.525,1.375c9.298-0.051,19.125-1.33,23.845-2.348
			c24.74-5.034,51.374-16.139,70.789-28.492c9.724-6.125,17.662-12.525,22.829-18.017c5.266-5.492,7.336-9.928,7.71-11.419
			c0.86-3.087,0.822-3.893,1.458-4.698c0.547-0.755,1.472-1.171,2.46-1.5c0.934-0.361,2.349,0.24,3.189,1.99
			C447.071,364.247,447.049,366.879,446.002,368.911z"/>
		<path style="fill:#231815;" d="M259.318,89.944c2.141,0.403,3.878,0.662,4.988,0.838c1.064,0.099,1.653,0.345,2.156,0.345
			c0.419,0.022,1.199-1.017-0.211-2.552c-1.299-1.369-3.732-2.412-7.169-3.042c-7.016-1.187-12.332-0.822-18.07-0.477l-4.404,0.304
			l-1.132,0.064c-0.467-0.003-0.921,0.093-1.272,0.125l-2.4,0.262c-3.253,0.291-7.145,0.442-11.284,0.675
			c-2.021-0.157-4.155-1.052-6.557-0.694c-2.454,0.4-4.246,2.2-5.262,4.235c-1.103,2.101-0.636,4.907,0.809,6.627
			c1.38,1.782,3.191,2.933,4.966,3.877c7.264,3.537,14.48,4.542,20.541,5.431c5.973,0.729,8.833-0.554,7.211-1.795
			c-0.803-0.636-2.716-1.279-5.876-1.858c-3.157-0.598-7.571-1.052-13.315-1.938c-3.067-0.499-5.412-1.167-7.363-2.015
			c-1.922-0.854-3.54-1.903-4.58-3.349c-1.03-1.423-1.214-3.298,0.32-5.239c0.787-0.956,1.791-1.785,3.141-1.922
			c1.403-0.224,3.24,0.409,5.786,0.665c0.24,0.007,0.566,0.058,0.912,0.01l0.665-0.054l1.323-0.093l2.637-0.105l5.241-0.086
			c1.669,0.01,3.6-0.195,5.018-0.09l4.95,0.163C247.546,88.524,253.716,88.934,259.318,89.944z"/>
		<path style="fill:#231815;" d="M201.042,74.051c-1.089,0.413-2.272,1.289-2.852,2.428c-0.591,1.116-0.595,2.114-0.505,2.821
			c0.238,1.423,0.867,2.066,1.376,2.162c0.544,0.093,0.995-0.464,1.463-1.465c0.245-0.473,0.531-1.065,0.889-1.372
			c0.35-0.266,0.748-0.496,1.881-0.813l13.81-2.872c4.555-0.911,9.535-1.772,16.616-1.807c7.008,0.029,14.038,0.445,19.579,2.924
			c2.788,1.228,5.19,2.917,7.118,4.772c0.534,0.534,0.752,0.854,1.5,1.554c0.448,0.419,0.894,0.889,1.305,1.356
			c0.816,0.934,1.548,1.919,1.996,2.811c0.214,0.425,0.361,0.809,0.4,0.985c0.057,0.102-0.066,0.07,0.233,0.134l-0.021-0.067
			c0.051,0.083-0.571,0.531-0.958,0.742c-0.844,0.502-1.206,1.104-0.461,1.695c0.388,0.269,0.988,0.617,2.22,0.486
			c0.566-0.064,1.628-0.419,2.252-1.628c0.569-1.199,0.35-2.357,0.086-3.208c-0.587-1.762-1.644-3.183-3.061-4.673
			c-0.7-0.767-1.667-1.458-2.3-2.044c-0.872-0.799-1.885-1.551-3.019-2.226c-4.894-2.776-7.932-3.636-11.547-4.468
			c-3.585-0.726-7.788-1.327-15.332-1.184c-6.004,0.125-11.66,0.291-17.024,0.675c-2.682,0.185-5.3,0.409-7.862,0.726
			C206.222,72.89,203.895,73.024,201.042,74.051z"/>
		<path style="fill:#231815;" d="M231.291,93.565c4.561,0.125,10.286-0.438,15.932-1.407l-0.179,0.038
			c1.26-0.307,2.074-0.23,2.984-0.23c0.881,0.026,1.729,0.083,2.564,0.147l4.82,0.425c4.152,0.393,7.141,0.461,8.234-0.221
			c0.545-0.288,0.672-0.796,0.742-1.046c0.089-0.252,0.154-0.252,0.173,0.054c0.035,0.301,0.058,0.684-0.144,1.19
			c-0.208,0.499-0.745,1.027-1.516,1.411c-1.558,0.787-3.947,1.151-7.19,0.985l-5.626-0.332c-1.654-0.07-3.413-0.119-4.299,0.157
			l-0.025,0.01l-0.115,0.022l-4.199,0.867c-2.994,0.55-1.751,0.121-10.817,0.528c-9.09,0.096-10.722-1.484-8.153-1.606
			C227.055,94.406,231.298,93.575,231.291,93.565z"/>
		<path style="fill:#231815;" d="M163.368,303.457c-1.982-5.534-1.417-20.809,2.786-16.284c4.203,4.526,13.901,8.159,10.427,13.494
			C173.106,306.002,165.348,308.99,163.368,303.457z"/>
		<path style="fill:#231815;" d="M157.872,333.845c-3.11-4.487-5.858-18.791,0.445-12.001
			C164.619,328.632,157.872,333.845,157.872,333.845z"/>
		<path style="fill:#231815;" d="M171.045,361.643c-2.211-7.555-7.315-9.007-1.657-14.262c5.658-5.252,8.85-2.949,8.607,3.598
			C177.752,357.524,172.017,364.957,171.045,361.643z"/>
		<path style="fill:#231815;" d="M164.782,383.265c-1.858-8.812-2.666-16.492,2.588-10.833
			C172.621,378.09,164.782,383.265,164.782,383.265z"/>
		<path style="fill:#231815;" d="M114.957,224.099c8.689,1.414,3.557,21.98,10.467,12.404c6.909-9.576,11.476-14.87,3.878-16.245
			C121.705,218.885,114.957,224.099,114.957,224.099z"/>
		<path style="fill:#231815;" d="M94.593,243.011c5.295,4.564,8.647,2.505,9.939-2.911c1.294-5.415,10.425-16.002,1.699-16.325
			c-8.729-0.323-24.085,1.292-20.893,3.595C88.532,229.677,94.593,243.011,94.593,243.011z"/>
		<path style="fill:#231815;" d="M350.576,204.418c10.907,0.403,14.224-0.566,12.849,7.03c-1.374,7.596,3.96,11.073-4.809,11.841
			c-8.769,0.768-8.484-6.87-8.484-6.87s-15.766-12.526-3.298-12.103L350.576,204.418z"/>
		<path style="fill:#231815;" d="M374.374,210.764c1.9,7.715,1.495,18.628,8.244,13.414c6.749-5.214,7.03-12.852,7.03-12.852
			L374.374,210.764z"/>
	</g>
</g>
</svg>
