<?xml version="1.0" encoding="iso-8859-1"?>
<!-- Generator: Adobe Illustrator 18.1.1, SVG Export Plug-In . SVG Version: 6.00 Build 0)  -->
<svg version="1.1" id="_x31_1" xmlns="http://www.w3.org/2000/svg" xmlns:xlink="http://www.w3.org/1999/xlink" x="0px" y="0px"
	 viewBox="0 0 512 512" style="enable-background:new 0 0 512 512;" xml:space="preserve">
<g>
	<path style="fill:#7694A3;" d="M218.047,287.562c-28.457-4.065-144.994-28.457-166.675-70.465
		c-21.682-42.008,31.167-67.755,67.754-78.595s199.198-33.876,260.176-18.971s92.467,39.259,83.498,68.412
		c-8.969,29.154-29.295,65.741-29.295,65.741L218.047,287.562z"/>
	<path style="fill:#DAE8EF;" d="M93.38,177.8c24.892-9.442,63.689-20.326,77.24-21.682c13.551-1.356,172.095-25.747,219.523-13.551
		c47.428,12.196,73.174,43.364,60.979,66.4c-12.196,23.036-105.696,73.174-261.531,65.044
		C96.09,263.17,81.183,253.684,74.408,241.488C67.633,229.292,54.082,192.707,93.38,177.8z"/>
	<path style="fill:#85A3B5;" d="M55.352,232.857c-1.429,11.134,1.805,33.627,5.078,55.107c3.272,21.48-5.455,37.427-2.821,48.712
		c2.632,11.285,0.752,34.606,6.319,49.051c5.567,14.445,13.692,14.744,33.402,31.748c19.711,17.001,24.564,23.284,80.16,32.461
		c55.595,9.178,49.426,10.983,55.595,9.178c6.169-1.806,42.882-4.516,55.106-5.079c12.225-0.564,40.888-5.606,57.251-8.049
		c16.363-2.445,47.282-13.504,55.67-20.312c8.389-6.809,43.559-22.796,47.057-34.87c3.499-12.075,9.028-24.074,9.366-33.215
		c0.338-9.141,7.824-46.492,3.385-63.946c-4.439-17.454,2.707-73.125,0.941-80.309c-1.769-7.185,0.939-25.39,0.939-25.39
		s-25.878,39.721-47.582,49.089c-21.704,9.365-93.85,35.17-116.27,36.373c-22.418,1.205-82.603,6.096-100.846,4.403
		c-18.244-1.693-35.283-8.426-53.489-11.134c-18.206-2.707-54.392-14.218-66.354-20.763
		C66.298,239.366,55.352,232.857,55.352,232.857z"/>
	<path style="fill:#F0895F;" d="M26.39,337.555c17.228,10.806,23.245,31.371,17.603,37.262c-5.641,5.895-18.632,8.803-20.237-2.783
		c-1.605-11.584-1.229-3.438-5.466,1.153c-4.238,4.591-15.07,22.496-2.607,33.804c12.463,11.309,28.813,9.202,30.393,21.466
		c1.58,12.261-0.601,16.247-8.601,12.563c-8.001-3.684-6.846-16.527-11.134-10.582c-4.289,5.943-14.17,16.424-7.825,28.185
		c6.345,11.763,45.389,19.312,62.943,3.011c7.574,15.195,33.93,17.525,41.554,13.063c2.432,7.549,19.835,13.617,36.612,0.002
		c1.304,1.403-0.852,4.714,1.655,10.231c2.507,5.516,1.78,25.15,41.1,6.945c26.256,5.04,37.14,4.089,37.14,4.089
		s-2.608,15.495,15.773,13.464c18.381-2.03,20.838-13.466,20.838-13.466s-4.389,8.651,15.171,11.41
		c19.562,2.757,33.151,1.904,32.876-8.954c14.47,12.063,36.787,13.569,44.512,6.396c7.724-7.172,10.506-27.407,16.551-25.829
		c6.043,1.578,3.234,4.188,14.669,6.646c11.435,2.457,57.803,13.667,71.946-57.001c0.276,10.858,8.526,7.773,8.526,7.773
		s49.252-30.041,5.768-64.194c5.917,4.962-8.476,27.482-19.008,18.957c-1.856-4.816-1.405-35.309,15.221-44.863
		c-4.564-4.915-27.635,13.893-26.757,26.807c0.877,12.914-3.687,26.307-11.962,30.068c-8.275,3.762-8.349,5.792-7.396-1.632
		c0.951-7.424,0.676-36.589-15.525-38.544c-16.199-1.953-22.067-8.273-22.067-8.273s-0.979,8.099,11.61,16.023
		c12.589,7.926,15.949,27.035,9.004,31.524c-6.947,4.488-19.711,1.302-12.388-13.341c-4.439-8.301-11.962-6.547-12.414,5.641
		c-0.451,12.188-3.46,20.215-1.003,27.083c2.457,6.872-6.042,16.725-15.772,23.145c-9.73,6.423-17.051,2.761-11.787-11.282
		c5.266-14.044,26.107-64.123-38.141-68.536c-6.822,1.105-2.132,2.634,3.233,4.188c5.367,1.554,36.989,26.456,18.859,40.021
		c-18.131,13.567-32.474-1.88-23.221-13.74c-18.006,10.181-17.027,20.386-9.128,26.781c7.899,6.394,22.443,16.424,10.382,30.894
		c-12.061,14.471-21.616,16.148-32.198,8.978c-10.582-7.172,0.526-32.526-0.878-49.525c-1.404-17.004-4.966-12.39-4.966-12.39
		s-1.655,26.382-12.111,34.13c-10.458,7.749-28.036,6.421-21.29-10.957c6.745-17.379,11.635-39.571-5.016-47.646
		c-0.803,3.359-0.075,20.336-7.473,18.707c-7.398-1.63-26.406-19.282-14.268-35.783c-17.881,6.794-20.163,13.49-21.767,20.211
		c-1.605,6.719-5.943,14.016,2.007,19.058c7.949,5.042,19.735,16.327,17.504,21.668c-2.232,5.339-1.605,6.719-0.401,10.832
		c1.203,4.113,0.577,2.733-1.755,10.782c-2.332,8.049,4.038,19.133-16.777,13.617c-20.814-5.516-13.341-5.919-12.339-14.695
		c1.004-8.776-3.912-22.52-11.811-28.913c-7.9-6.396-12.615-7.247-8.176,1.054c4.439,8.299-8.349,24.096-8.601,30.868
		c-0.25,6.771-6.294,5.191-12.99,2.91c-6.695-2.283-5.617-13.091-5.617-13.091s-4.714-0.854-6.87,2.457
		c-2.157,3.311-7.422-0.953,0.727-19.635c8.15-18.683,12.513-26.658-17.228-47.421c3.811,6.924,0.026,17.629-11.209,28.062
		c-11.235,10.435-17.053,21.066-17.053,21.066s-5.592,4.538-13.767-12.716c-8.175-17.252-7.699-11.811-7.699-11.811l-3.585,5.292
		l-9.204-7.799c0,0-0.401-25.779-3.561-31.998c-3.16-6.219-11.035-13.289-19.034-16.978C32.482,337.78,26.39,337.555,26.39,337.555z
		"/>
	<g>
		<path style="fill:#94C85C;" d="M371.846,166.956c3.387,2.71,16.261,9.486,23.715,8.809c-2.71-0.677-13.552-8.809-18.294-12.196
			c-4.742-3.386-4.743-6.777-8.13-16.94c-3.387-10.163,0.677-28.457,3.387-42.006c2.71-13.549-22.359-18.972-37.942-18.294
			c-15.583,0.679-39.976,10.84-52.171,8.807c-12.196-2.033-8.131-13.551-9.485-21.682c-1.355-8.131-16.939-42.006-26.424-52.848
			c-9.485-10.842-17.616,5.421-17.616,5.421s-8.131-10.163-14.228-18.97c-6.098-8.807-11.518-7.454-18.294,2.033
			c-6.775,9.486-22.359,48.104-22.359,48.104s-4.065-5.419-12.873,2.712c-8.808,8.131,5.42,27.778,5.42,27.778
			s-0.678,13.551-2.71,24.392c0,0-40.653-3.386-44.04-4.065c-3.387-0.679-20.326-3.386-31.167,4.744
			c-10.841,8.13-4.065,25.068-3.387,29.133c0.678,4.065,7.453,20.326,14.228,32.522c-4.065,12.873,5.42,23.715,5.42,23.715
			s4.065,12.873,6.776,23.713c2.71,10.84,3.387,8.809,4.743,5.421c1.355-3.388,2.71-12.196,0.677-22.359
			c3.387,2.71,15.584,23.715,15.584,23.715s0-23.715-4.065-26.424c10.84-2.71,10.84,7.452,26.424,21.68
			c-1.355-12.196-9.486-23.713-17.616-31.166c-8.131-7.454-7.453-11.519-11.518-18.294c-4.065-6.775-11.518-30.489-8.808-31.845
			c2.71-1.356,48.783,7.454,48.783,7.454s4.065,27.78,4.065,37.943s8.13,18.971,12.196,23.713
			c4.065,4.742,31.167,16.261,86.726,19.649c81.306-0.677,106.373-37.943,106.373-37.943l0.678-10.163c0,0,1.266,0.843,2.033,1.356
			c-2.034-1.358-10.163-14.905-10.841-18.294C366.425,162.891,371.846,166.956,371.846,166.956z M340.002,135.113l-6.776-5.421
			l7.453-2.71L340.002,135.113z"/>
		<path style="fill:#FFFFFF;" d="M200.429,96.493c0.532-7.434,4.743-23.036,10.841-30.489c6.098-7.454,10.84-16.261,12.873-23.715
			c2.033-7.454,5.42-21.003,13.551-23.036c8.13-2.033,7.453,0,16.938,16.261c9.485,16.261,19.648,36.585,19.648,42.006
			s2.709,13.553,8.131,21.005c5.421,7.452,6.776,9.484,21.004,14.905c14.228,5.421,46.072,24.393,60.979,52.171
			c14.906,27.778,14.906,26.422,2.033,37.941c-12.874,11.519-69.109,29.136-93.501,29.136s-50.815-3.388-57.591-5.421
			c-6.776-2.033-14.228-29.813-7.453-60.979c6.775-31.166,8.808-20.328,4.065-33.878
			C207.204,118.852,199.751,105.979,200.429,96.493z"/>
		<path style="fill:#94C85C;" d="M378.065,184.652c-0.041-0.026-0.078-0.052-0.121-0.079l0,0
			C377.994,184.604,378.023,184.624,378.065,184.652z"/>
		<path style="fill:#94C85C;" d="M378.065,184.652C378.55,184.977,378.737,185.101,378.065,184.652L378.065,184.652z"/>
	</g>
	<path style="fill:#FFFFFF;" d="M169.939,74.811c-6.247,0-9.485-10.84-4.743-8.807C169.939,68.036,175.359,74.811,169.939,74.811z"
		/>
	<path style="fill:#ED7342;" d="M199.073,86.33c-2.71-6.098-13.551-40.653-3.388-73.174c4.743-9.486,9.486-16.938,18.971-6.098
		c9.486,10.84,14.228,18.97,14.228,18.97s-7.453,18.296-7.453,23.715c0,5.419-10.163,12.875-12.196,18.294
		c-2.033,5.419-9.486,25.745-9.486,25.745L199.073,86.33z"/>
	<g>
		<path style="fill:#231815;" d="M58.275,248.495c0.046-7.386-0.812-12.666-2.414-13.341c-0.776-0.33-1.715,0.508-2.576,2.89
			c-0.836,2.378-1.664,6.312-1.672,12.176c0.004,5.967,0.87,11.312,2.154,16.116c1.28,4.822,2.847,9.085,4.091,13.597
			c1.26,4.506,2.238,9.3,2.738,14.818c0.249,2.757,0.382,5.689,0.381,8.829c-0.007,3.144-0.121,6.491-0.661,10.018
			c-0.275,1.759-0.652,3.482-1.199,5.125c-0.524,1.659-1.313,3.186-1.986,4.972c-0.679,1.798-0.929,3.759-0.943,5.588
			c-0.02,1.844,0.129,3.632,0.321,5.389c0.196,1.759,0.449,3.486,0.719,5.195c0.27,1.743,0.601,3.356,0.758,4.972
			c0.338,3.263,0.409,6.552,0.459,9.776c0.179,12.895-0.333,25.025,3.118,35.513c0.87,2.545,2.104,4.669,3.46,6.203
			c1.361,1.538,2.803,2.453,3.934,2.852c2.328,0.762,3.055-0.113,2.392-1.501c-0.627-1.485-2.273-3.65-3.77-8.23
			c-1.548-4.566-2.815-11.65-4.037-21.492c-1.334-10.578-1.251-16.743-2.178-24.227c-0.27-1.955-0.669-3.744-0.965-5.737
			c-0.31-1.993-0.623-4.147-0.788-6.483c-0.142-2.376-0.197-4.74,0.78-7.156c0.49-1.272,1.245-2.872,1.792-4.637
			c0.562-1.765,0.966-3.658,1.25-5.639c0.839-6.34,0.875-12.293,0.837-18.172c-0.093-5.866-0.597-11.622-1.585-17.134
			c-0.965-5.522-2.343-10.701-3.193-15.658C58.615,258.158,58.26,253.313,58.275,248.495z"/>
		<path style="fill:#231815;" d="M163.703,447.22c-0.29-0.143-0.522-0.314-0.73-0.494c-0.458,1.647-1.934,2.896-3.952,2.013
			c-8.533-3.726-17.903-5.004-25.328-10.79c-0.167,1.437-1.175,2.787-2.689,3.021c-0.005,0.042-0.019,0.079-0.022,0.125
			c-0.013,0.216-0.049,0.427-0.1,0.633l4.478,1.393c6.396,1.971,13.281,4.075,20.749,6.159c5.225,1.443,10.771,2.884,16.646,4.091
			C169.948,451.011,167.046,448.893,163.703,447.22z"/>
		<path style="fill:#231815;" d="M240.629,452.758c-4.12-0.212-8.226-0.413-12.303-0.546c-5.671-0.191-11.328-0.254-16.874-0.145
			c-5.498,0.077-10.921-0.022-16.239-0.413c-0.482-0.034-0.958-0.082-1.437-0.125c0.709,0.977,0.871,2.281,0.1,3.577
			c-0.184,0.308-0.438,0.568-0.689,0.822c-0.054,0.054-0.108,0.087-0.163,0.135c4.654,0.29,9.086,0.369,13.245,0.306l11.041-0.314
			c2.857-0.056,5.615-0.054,8.325-0.026c0.245-1.433,1.324-2.622,3.249-2.443c4.207,0.395,8.416,0.572,12.626,0.639
			C241.252,453.714,240.947,453.232,240.629,452.758z"/>
		<path style="fill:#231815;" d="M266.513,453.923c0.013-0.012,0.048-0.054,0.087-0.097c-1.229-0.018-2.456-0.038-3.681-0.071
			c-5.078-0.133-10.115-0.375-15.124-0.631c-0.042,0.393-0.152,0.776-0.324,1.132c6.339-0.032,12.679-0.228,19.021-0.304
			C266.499,453.943,266.505,453.931,266.513,453.923z"/>
		<path style="fill:#231815;" d="M345.476,445.624c5.063-0.78,10.266-1.199,14.187-4.357c-2.11,0.486-4.23,0.953-6.342,1.437
			c-2.481,0.544-4.96,1.044-7.44,1.541c-0.02,0.016-0.046,0.024-0.068,0.038C345.818,444.748,345.703,445.207,345.476,445.624z"/>
		<path style="fill:#231815;" d="M338.438,445.957c-0.037-0.089-0.049-0.186-0.081-0.276c-1.143,0.208-2.285,0.433-3.427,0.635
			c-12.246,2.15-24.425,3.877-36.453,5.546c-8.089,1.237-16.151,1.8-24.148,1.945c-0.023,0.042-0.046,0.087-0.07,0.131
			c2.947,0.036,5.893,0.127,8.84,0.302c1.256,0.074,2.118,0.701,2.606,1.54c0.591-0.449,1.322-0.716,2.108-0.687l4.063,0.151
			c0.691,0.024,1.33,0.27,1.852,0.663c0.975-0.121,1.931-0.222,2.926-0.365l12.182-1.733c8.081-1.181,16.985-2.527,26.867-4.302
			c0.251-0.641,0.735-1.221,1.544-1.622c0.635-0.315,1.294-0.578,1.964-0.814C338.868,446.733,338.59,446.346,338.438,445.957z"/>
		<path style="fill:#231815;" d="M410.509,420.119c-2.137,1.267-4.312,2.517-6.564,3.742c-9.666,5.221-20.378,10.133-32.372,14.09
			c-2.831,0.923-5.679,1.763-8.544,2.507c1.204,0.391,2.186,1.441,2.455,2.624c2.331-0.645,4.682-1.342,7.069-2.132
			c8.648-2.876,16.921-6.354,24.893-10.205c0.147-0.86,0.622-1.681,1.541-2.269c4.009-2.561,8.025-5.147,12.101-7.638
			C410.889,420.599,410.69,420.365,410.509,420.119z"/>
		<path style="fill:#231815;" d="M424.855,411.623c-0.103-0.222-0.23-0.431-0.34-0.651c-0.062,0.04-0.118,0.083-0.182,0.123
			c-2.592,1.876-5.316,3.704-8.121,5.502c0.046,0.054,0.087,0.107,0.133,0.159c0.19,0.214,0.339,0.451,0.468,0.695
			c2.924-1.679,5.894-3.275,8.914-4.768C425.365,412.407,425.058,412.056,424.855,411.623z"/>
		<path style="fill:#231815;" d="M463.176,321.864c-0.012-2.332-0.07-4.663-0.186-6.987c-0.118-2.303-0.23-4.522-0.297-6.763
			c-0.176-4.496,0.021-8.73,0.225-13.341c0.159-4.601,0.042-9.143-0.139-13.611c-0.163-4.224-0.062-8.748-0.062-13.085
			c0.033-4.373,0.098-8.718,0.244-13.018c0.211-6.626,0.598-12.7,0.848-18.236c0.25-5.528,0.325-10.425,0.259-14.53
			c-0.134-8.212-0.745-13.281-1.514-14.216c-0.783-0.937-1.712,2.273-2.789,10.598c-0.544,4.165-1.141,9.595-1.864,16.436
			c-0.733,6.814-1.562,15.243-1.755,25.178c-0.119,5.05-0.146,9.939-0.133,14.701l0.018,3.585c-0.002,0.607,0.012,1.223,0.053,1.852
			l0.08,1.729c0.104,2.289,0.187,4.542,0.226,6.757c0.129,4.428-0.151,8.637-0.185,13.204c-0.009,4.494,0.272,8.853,0.574,13.057
			c1.132,16.475-0.494,32.444-1.014,49.257l-0.083,3.166l-0.032,1.59c-0.01,0.48-0.03,0.951-0.066,1.431
			c-0.149,1.91-0.542,3.835-1.137,5.743c-1.192,3.815-3.171,7.527-5.598,11.064c-3.805,5.498-8.644,10.604-14.149,15.433
			c-0.057,0.189-0.127,0.373-0.17,0.566c-0.011,0.054-0.017,0.083-0.025,0.121c-0.003,0.02-0.004,0.044-0.007,0.068
			c1.21,0.183,2.216,1.02,2.635,2.132c4.941-4.15,9.545-8.658,13.561-13.704c3.127-3.968,5.881-8.303,7.725-13.129
			c0.912-2.414,1.59-4.947,1.89-7.559c0.079-0.649,0.125-1.308,0.16-1.963l0.084-1.776l0.198-3.551
			c0.577-9.454,1.497-18.823,2.022-28.181C463.039,331.203,463.202,326.531,463.176,321.864z"/>
		<path style="fill:#231815;" d="M98.615,424.093c0.407-2.118,0.643-3.74,1.281-5.24c-8.556-5.614-14.578-10.52-17.636-14.199
			c-2.205-2.559-2.786-4.458-3.213-5.111c-0.228-0.322-0.457-0.318-0.681,0.155c-0.22,0.465-0.391,1.435-0.141,2.811
			c0.45,2.785,2.727,6.809,6.977,11.175c3.291,3.412,7.732,7.128,13.354,11.05C98.562,424.525,98.574,424.313,98.615,424.093z"/>
		<path style="fill:#231815;" d="M128.823,373.325c-0.957-3.466-3.175-5.572-4.803-6.616c-1.68-1.07-2.953-1.242-3.433-0.917
			c-0.505,0.353-0.217,1.221,0.752,2.704c0.888,1.5,2.684,3.654,3.176,7.019c0.442,3.438-0.895,6.743-2.493,9.728
			c-1.646,2.999-3.649,5.763-5.905,8.535c-2.271,2.789-4.831,5.506-7.849,8.615c-2.97,3.2-5.932,7.033-8.707,11.924
			c-2.762,4.893-4.788,10.119-5.772,15.451c-0.975,5.306-0.91,10.8,0.836,15.727c1.682,4.943,5.193,9.03,9.258,11.497
			c4.062,2.517,8.431,3.716,12.42,4.303c3.923,0.568,6.819,0.147,8.387-0.389c1.577-0.564,1.863-1.26,0.765-1.852
			c-1.09-0.603-3.575-1.014-7.473-1.683c-1.942-0.355-4.254-0.752-6.83-1.531c-2.572-0.77-5.456-1.878-8.247-3.922
			c-2.991-2.197-4.655-4.778-5.704-7.229c-1.034-2.481-1.487-4.897-1.594-7.531c-0.097-2.632,0.137-5.516,0.945-9.046
			c0.824-3.517,2.213-7.721,4.933-12.708c2.185-3.972,4.874-7.517,7.894-10.522c3.07-2.934,6.437-5.794,9.368-8.833
			c2.962-3.041,5.726-6.231,7.826-9.941c1.037-1.858,1.897-3.863,2.369-6.038C129.404,377.904,129.433,375.54,128.823,373.325z"/>
		<path style="fill:#231815;" d="M140.242,413.787c-1.616,2.809-2.344,4.859-1.792,5.901c0.284,0.486,1.027,0.667,2.195,0.073
			c1.153-0.586,2.674-1.979,4.078-4.403c2.78-4.974,3.481-9.302,3.795-13.879c0.131-2.299,0.106-4.695-0.146-7.362
			c-0.156-1.332-0.29-2.731-0.744-4.258c-0.452-1.469-1.111-2.969-2-4.462c-1.789-2.993-4.165-5.435-6.5-7.67
			c-2.349-2.235-4.706-4.279-6.802-6.354c-2.097-2.066-3.939-4.163-5.272-6.314c-1.338-2.15-2.138-4.333-2.439-6.4
			c-0.298-2.007-0.522-3.523-0.955-4.47c-0.407-0.937-1.054-1.286-1.759-0.687c-0.678,0.589-1.531,2.193-1.445,5.082
			c0.043,2.839,1.534,7.011,5.147,10.471c3.844,3.619,6.153,5.219,8.659,7.486c1.259,1.106,2.604,2.297,4.208,3.831
			c1.573,1.544,3.497,3.392,5.258,6.154c0.689,1.108,1.225,2.267,1.582,3.458c0.369,1.145,0.451,2.356,0.502,3.639
			c0.065,2.521-0.242,5.008-0.735,7.38C144.074,405.741,142.378,410.112,140.242,413.787z"/>
		<path style="fill:#231815;" d="M174.999,466.28c2.583,2.092,5.08,2.171,5.771,1.284c0.756-0.947-0.274-2.638-3.352-5.352
			c-3.049-2.848-5.182-5.086-7.073-8.122c-0.919-1.522-1.725-3.233-2.304-5.332c-0.657-2.084-0.962-4.423-0.379-7.182
			c1.203-5.51,4.593-10.058,7.162-14.566c1.309-2.263,2.49-4.549,3.249-6.934c0.773-2.372,1.076-4.841,0.858-7.102
			c-0.212-2.221-1.135-3.66-1.917-4.256c-0.814-0.602-1.492-0.441-1.855,0.308c-0.372,0.752-0.396,2.062-0.367,3.916
			c0.012,1.87,0.062,4.284-0.715,7.926c-0.9,3.918-2.177,6.08-3.557,8.583c-0.713,1.26-1.52,2.612-2.43,4.411
			c-0.881,1.798-1.966,4.046-2.591,7.261c-0.497,2.549-0.503,5.218-0.047,7.598c0.326,2.309,0.895,4.667,1.735,6.82
			C168.851,459.898,171.696,463.596,174.999,466.28z"/>
		<path style="fill:#231815;" d="M187.116,412.095c-2.432-3.571-6.765-2.066-3.526,3.126c1.606,2.662,3.248,4.357,4.983,6.306
			c1.705,1.945,3.578,4.159,4.945,7.858c1.352,3.694,1.841,7.511,1.673,10.951c-0.153,3.45-0.911,6.509-1.693,9.059
			c-0.78,2.459,0.139,4.121,1.598,3.791c0.716-0.175,1.572-0.885,2.253-2.344c0.676-1.447,1.187-3.678,0.929-6.636l-0.671-6.956
			c-0.227-2.056-0.422-4.538-2.011-8.621C192.99,422.191,190.187,416.764,187.116,412.095z"/>
		<path style="fill:#231815;" d="M162.052,474.821c3.719-3.478,5.047-6.892,4.372-7.835c-0.729-1.01-3.154,0.496-8.325,5.119
			c-2.669,2.32-5.076,4.26-7.455,5.943c-2.383,1.667-4.745,3.111-7.391,4.081c-0.605,0.224-1.459,0.488-1.915,0.572
			c-0.74,0.109-1.497,0.197-2.269,0.244c-1.544,0.097-3.16,0.065-4.833-0.214c-3.308-0.518-7.03-2.249-9.46-6.012
			c-2.396-3.772-2.961-8.404-2.551-12.662c0.415-4.297,1.759-8.355,3.574-11.93c3.637-7.188,9.251-12.357,14.725-14.939
			c2.672-1.272,4.667-2.112,5.794-2.878c1.124-0.73,1.354-1.473,0.324-1.918c-1.012-0.445-3.4-0.633-6.971,0.665
			c-3.517,1.284-8.186,4.31-11.993,9.953c-2.005,3.017-3.24,5.546-4.252,7.837c-1.002,2.303-1.755,4.391-2.407,6.717
			c-0.622,2.328-1.188,4.903-1.265,8.228c-0.008,3.261,0.276,7.541,3.163,12.118c2.341,3.624,6.09,6.04,9.894,7.086
			c1.908,0.55,3.835,0.822,5.723,0.913c0.945,0.04,1.882,0.052,2.807,0.016c1.169-0.032,1.994-0.268,2.938-0.476
			c3.658-0.911,6.888-2.565,9.815-4.413C157.016,479.168,159.646,477.056,162.052,474.821z"/>
		<path style="fill:#231815;" d="M28.786,375.379c-2.644-3.289-2.607-6.681-3.661-7.342c-0.475-0.298-1.334,0.139-1.906,2.058
			c-0.257,0.951-0.397,2.296-0.041,3.944c0.351,1.636,1.21,3.583,2.925,5.336c1.739,1.776,3.937,2.932,6.218,3.358
			c2.283,0.437,4.618,0.087,6.549-0.81c0.969-0.445,1.845-1.012,2.616-1.654l0.563-0.492l0.267-0.256l0.131-0.131l0.066-0.063
			l-0.039,0.03c0.323-0.298,0.705-0.657,1.023-1.018c1.322-1.443,2.308-3.2,2.848-5.062c1.099-3.756,0.598-7.666-0.635-11.549
			c-1.26-3.904-3.299-7.924-6.251-12.216c-0.724-1.048-1.565-2.16-2.294-3.057c-0.667-0.824-1.301-1.546-1.979-2.261
			c-1.343-1.413-2.742-2.654-4.172-3.609c-0.713-0.478-1.433-0.881-2.159-1.181c-0.362-0.153-0.728-0.27-1.089-0.363l-0.544-0.109
			l-0.089-0.018h0.184l0.367,0.004c1.949,0.01,3.792,0.298,5.449,0.736c1.659,0.445,3.13,1.052,4.411,1.697
			c0.639,0.329,1.238,0.655,1.786,0.998l0.798,0.504l1.045,0.691c3.344,2.257,6.305,4.708,9.082,6.977
			c5.421,4.504,9.068,5.215,8.156,3.009c-0.439-1.094-1.91-2.916-4.736-5.522c-1.423-1.3-3.188-2.801-5.427-4.424
			c-1.117-0.81-2.352-1.65-3.734-2.481c-0.705-0.425-1.384-0.814-2.211-1.257c-1.174-0.639-2.398-1.266-3.593-1.769
			c-2.573-1.1-4.554-1.644-6.235-2.017c-1.68-0.371-3.1-0.568-4.446-0.703c-2.654-0.21-5.022-0.199-8.069-0.018l-0.282,0.016
			l0.176,0.022l0.406,0.052c0.259,0.04,0.512,0.083,0.746,0.139c0.467,0.113,0.909,0.25,1.276,0.425
			c0.733,0.345,1.342,0.802,1.263,1.421c-0.112,0.314-0.337,0.671-1.61,1.13l-0.552,0.179l-0.28,0.089l-0.057,0.028l0.419,0.171
			l0.841,0.341l6.667,2.733l1.635,1.046c0.472,0.329,0.74,0.603,1.128,0.913c1.329,1.173,2.492,2.428,3.547,3.678l0.654,0.796
			l0.567,0.719l1.137,1.532c2.419,3.406,4.299,7.07,5.376,10.79c1.077,3.69,1.301,7.557,0.027,10.626
			c-0.627,1.528-1.618,2.811-2.858,3.803l-0.574,0.466l-0.461,0.367c-0.315,0.226-0.634,0.435-0.962,0.619
			c-0.659,0.359-1.341,0.629-2.036,0.772C33.381,378.847,30.483,377.541,28.786,375.379z"/>
		<path style="fill:#231815;" d="M13.003,390.64c1.048-3.144,1.376-5.661,0.485-6.459c-0.435-0.377-1.17-0.284-2.139,0.578
			c-0.945,0.862-2.169,2.511-3.064,5.342c-1.79,5.794-0.743,11.05,1.822,15.318c1.303,2.148,2.996,4.095,5.095,5.943
			c2.094,1.834,4.659,3.621,7.858,5.161c3.189,1.578,6.498,2.67,9.637,3.755c3.129,1.084,6.151,2.201,8.462,3.932
			c2.334,1.703,3.719,4.051,4.377,6.527c0.669,2.475,0.772,4.996,0.721,7.323c-0.172,4.528,0.884,6.912,2.32,5.685
			c0.684-0.625,1.445-2.174,1.771-4.911c0.151-1.37,0.199-3.037-0.082-5.024c-0.284-1.967-0.883-4.319-2.362-6.68
			c-1.602-2.513-3.459-4.018-5.128-5.078c-1.688-1.06-3.249-1.761-4.925-2.442c-1.679-0.675-3.494-1.29-5.728-2.025
			c-2.224-0.752-4.893-1.568-8.087-3.047c-2.578-1.177-4.758-2.698-6.612-4.568c-1.85-1.838-3.293-3.922-4.218-6.124
			C11.314,399.421,11.647,394.739,13.003,390.64z"/>
		<path style="fill:#231815;" d="M22.217,438.115c2.606-3.68,4.609-6.336,4.162-7.483c-0.215-0.54-1.067-0.663-2.609,0.075
			c-1.511,0.75-3.797,2.374-6.047,5.725c-4.483,6.878-4.641,14.419-1.623,20.531c1.518,3.071,3.867,5.796,6.957,8.029
			c1.574,1.123,3.236,2.1,5.268,3.005c2.023,0.679,4.113,1.33,6.437,1.945c9.266,2.483,18.778,2.721,27.236,1.076
			c8.484-1.598,15.833-4.857,21.68-8.256c5.721-3.41,7.16-6.584,4.945-6.455c-1.119,0.026-3.142,0.832-6.215,2.426
			c-3.089,1.574-7.189,3.998-12.91,6.719c-6.172,2.841-10.099,3.581-14.668,4.04c-4.58,0.3-10.017,0.534-19.505-1.685
			c-1.885-0.48-3.728-1.02-5.501-1.679l-0.631-0.226c-0.124-0.044-0.305-0.151-0.525-0.26c-0.401-0.21-0.8-0.427-1.185-0.659
			c-0.774-0.461-1.515-0.957-2.213-1.493c-2.797-2.136-4.893-4.915-5.997-7.946C17.003,449.405,18.823,442.869,22.217,438.115z"/>
		<path style="fill:#231815;" d="M83.885,462.367c-2.142-2.585-6.26-0.583-3.148,3.496c1.604,2.066,3.356,3.206,5.319,4.305
			c1.987,1.084,4.126,2.181,7.004,3.823c5.798,3.305,12.049,4.734,16.624,5.352c2.263,0.282,3.355-1.185,2.768-2.461
			c-0.595-1.314-2.761-2.324-7.115-1.856c-2.352,0.218-3.675-0.006-5.157-0.451c-1.475-0.476-3.143-1.084-6.038-2.511
			C89.496,469.656,86.706,465.658,83.885,462.367z"/>
		<path style="fill:#231815;" d="M223.038,412.403c-1.242-1.217-2.753-2.406-4.34-3.67l-1.206-0.967l-0.328-0.264
			c-0.199-0.149-0.34-0.345-0.404-0.397l-0.526-0.564l-2.203-2.275c-1.507-1.53-3.104-3.093-4.655-4.839
			c-1.541-1.741-3.061-3.728-4.048-6.13c-1.003-2.388-1.282-5.111-0.977-7.624c0.286-2.531,1.015-4.911,1.9-7.15
			c0.089-0.224,0.287-0.724,0.232-0.585l0.164-0.818c0.129-0.594,0.269-1.187,0.434-1.773c0.314-1.177,0.733-2.318,1.198-3.432
			c0.947-2.219,2.193-4.288,3.696-6.068c3.009-3.583,6.51-5.627,9.451-6.824c2.969-1.201,5.451-1.638,7.273-1.862
			c3.662-0.367,4.768-0.06,3.468,0.05c-1.297,0.175-3.241,0.675-6.253,1.862c-2.928,1.27-7.217,3.079-11.418,7.749
			c-2.072,2.346-3.466,5.034-4.345,7.686c-0.439,1.332-0.76,2.644-0.975,3.95c-0.155,0.663-0.28,0.804-0.387,1.147
			c-0.117,0.302-0.229,0.602-0.326,0.901c-0.21,0.6-0.391,1.191-0.552,1.769c-0.647,2.319-0.883,4.474-0.695,6.308
			c0.184,1.838,0.768,3.339,1.453,4.524c1.445,2.342,1.997,2.975,3.414,4.796c0.734,0.899,1.759,2.06,3.43,3.817l2.987,3.17
			l0.416,0.453l0.402,0.333l1.106,0.881l2.515,2.005c1.797,1.475,3.422,2.956,4.514,4.756c1.135,1.775,1.345,3.998,0.815,5.548
			c-0.487,1.574-1.296,2.626-1.98,3.434c-0.701,0.8-1.338,1.35-1.849,1.749c-2.105,1.507-2.002,0.877-0.328-1.054
			c0.805-0.991,1.658-2.245,2.109-3.601c0.469-1.362,0.365-2.724-0.184-3.756C224.896,413.556,222.969,412.425,223.038,412.403z"/>
		<path style="fill:#231815;" d="M229.468,364.549c1.552-2.035,2.588-3.841,2.127-4.945c-0.234-0.516-0.881-0.814-2.012-0.53
			c-1.103,0.292-2.778,1.197-4.36,3.38c-1.596,2.227-2.306,4.645-2.499,6.876c-0.187,2.251,0.125,4.359,0.723,6.394
			c1.276,4.052,3.43,8.004,7.545,12.472c2.287,2.412,4.972,4.383,7.894,5.701c3.019,1.308,5.699,2.013,9.846,1.842l0.878-2.168
			l0.715-1.916c0.389-1.106,0.724-2.217,0.973-3.339c0.488-2.233,0.653-4.579,0.026-6.796c-0.689-2.434-2.404-3.647-3.404-3.831
			c-1.062-0.21-1.54,0.308-1.504,1.125c0.027,0.838,0.526,1.934,0.846,3.482c0.33,1.538,0.494,3.954-0.073,7.811
			c-0.298,1.739-0.288,2.027-0.472,2.811c-0.301,0.109-0.668,0.129-1.01,0.149c-0.177,0.002-0.339,0.014-0.533-0.002
			c-0.265-0.02-0.544-0.032-0.81-0.071c-1.079-0.133-2.132-0.385-3.28-0.786c-2.254-0.855-5.057-2.152-8.491-5.532
			c-3.305-3.327-5.24-7.585-5.737-11.62C226.349,370.996,227.375,367.215,229.468,364.549z"/>
		<path style="fill:#231815;" d="M265.697,386.402c-1.396-2.565-3.502-3.944-5.024-4.514c-1.558-0.582-2.658-0.454-3.045-0.036
			c-0.403,0.449-0.095,1.203,0.821,2.33c0.886,1.145,2.449,2.65,3.507,5.207c1.04,2.626,0.97,5.419,0.625,8.139
			c-0.364,2.733-1.038,5.417-1.888,8.204c-0.855,2.791-1.927,5.685-3.219,8.932c-1.273,3.224-2.89,6.912-3.61,11.511
			c-0.382,2.285-0.462,4.639-0.071,6.94c0.393,2.291,1.37,4.546,3.008,6.259c1.617,1.733,3.858,2.793,6.116,3.122
			c2.27,0.347,4.547,0.018,6.593-0.705c4.121-1.479,7.323-4.434,9.48-7.65c2.188-3.235,3.429-6.737,4.116-9.998
			c0.672-3.206,0.357-5.627-0.124-6.93c-0.512-1.31-1.197-1.548-1.824-0.677c-0.635,0.871-1.153,2.857-1.912,5.933
			c-0.391,1.54-0.851,3.355-1.583,5.393c-0.733,2.033-1.717,4.321-3.351,6.608c-1.751,2.453-3.742,3.898-5.655,4.76
			c-1.927,0.847-3.844,1.104-5.765,0.79c-1.901-0.341-3.885-1.304-5.332-3.474c-1.446-2.148-2.181-5.57-1.516-10.02
			c0.506-3.601,1.838-6.86,3.406-10.076c1.534-3.216,3.132-6.348,4.509-9.536c1.371-3.186,2.569-6.431,3.147-9.893
			C267.681,393.607,267.522,389.733,265.697,386.402z"/>
		<path style="fill:#231815;" d="M226.726,434.784c0.788-1.83,0.604-3.299-0.197-4.143c-0.41-0.389-1.055-0.534-1.877-0.113
			c-0.813,0.415-1.756,1.417-2.482,3.041c-2.829,6.612-0.667,10.616-3.27,18.569c-0.332,0.939-0.789,2.001-1.156,2.67l-0.325,0.488
			l-0.564,0.216c-0.35,0.125-0.809,0.27-1.285,0.399c-1.859,0.496-3.731,0.619-5.459,0.409c-3.492-0.413-6.268-2.12-8.293-3.851
			c-1.92-1.693-3.816-1.78-4.201-0.3c-0.161,0.732,0.119,1.899,1.308,3.229c1.169,1.296,3.346,2.839,6.658,3.345
			c3.512,0.439,5.441,0.268,7.726,0.042c1.137-0.143,2.36-0.383,3.824-0.879c0.83-0.415,2.254-0.51,2.585-1.892l0.401-0.85
			l0.303-0.724c0.192-0.486,0.383-1.007,0.56-1.556c1.124-3.517,1.951-6.777,2.866-9.818
			C224.747,440.04,225.666,437.201,226.726,434.784z"/>
		<path style="fill:#231815;" d="M297.192,421.133c0.84-3.752,1.202-7.037,1.122-9.464c-0.069-2.428-0.57-3.948-1.12-4.222
			c-1.147-0.476-2.221,3.39-4.911,14.216c-1.322,5.544-2.39,10.532-3.039,15.4c-0.625,4.861-0.958,9.607-0.335,14.603
			c0.327,2.485,0.911,5.064,2.156,7.541c1.227,2.465,3.273,4.78,5.981,6.15c2.704,1.385,5.813,1.901,9.056,1.927
			c3.314-0.01,6.736-0.935,10.082-2.523c6.659-3.247,12.161-8.508,15.416-14.875c1.603-3.184,2.556-6.737,2.407-10.304
			c-0.072-1.773-0.426-3.535-1.031-5.183c-0.301-0.814-0.679-1.641-1.073-2.362c-0.278-0.647-0.731-1.532-1.188-2.235
			c-1.863-3.019-4.902-5.002-7.67-6.396c-2.78-1.423-5.372-2.686-6.668-4.72c-1.331-1.993-1.534-4.655-1.366-7.166
			c0.172-2.418,1.05-4.633,2.307-6.538c2.519-3.702,5.282-5.937,6.589-7.503c1.367-1.52,1.455-2.344-0.109-2.116
			c-0.773,0.131-1.956,0.532-3.5,1.413c-1.529,0.893-3.464,2.245-5.414,4.548c-1.902,2.263-3.902,5.757-4.036,10.276
			c-0.042,2.078,0.074,4.468,1.128,7.003c0.526,1.251,1.342,2.493,2.384,3.507c1.035,1.028,2.249,1.808,3.46,2.432
			c2.61,1.302,4.767,2.031,6.506,3.057c1.741,0.988,3.057,2.168,4.036,3.529c0.246,0.337,0.466,0.689,0.677,1.044l0.294,0.542
			c0.089,0.169,0.169,0.365,0.345,0.673c0.417,0.706,0.754,1.439,1.033,2.187c0.557,1.493,0.854,3.069,0.87,4.72
			c0.036,3.301-0.967,6.949-3.426,10.889c-2.487,3.863-6.425,8.303-12.923,11.584c-2.591,1.262-5.349,2.092-8.06,2.233
			c-2.698,0.077-5.548-0.32-7.867-1.366c-2.36-1.03-4.156-2.835-5.245-5.062c-1.091-2.235-1.557-4.798-1.703-7.36
			c-0.259-5.165,0.576-10.334,1.541-15.326C294.888,430.879,296.106,425.998,297.192,421.133z"/>
		<path style="fill:#231815;" d="M333.934,410.015c-1.761-2.044-2.421-4.704-3.605-5.032c-0.537-0.151-1.218,0.28-1.585,1.753
			c-0.155,0.733-0.238,1.743,0.057,3.023c0.286,1.264,1.01,2.836,2.454,4.182c1.463,1.375,3.197,2.14,4.825,2.525
			c1.642,0.389,3.217,0.409,4.693,0.25c2.926-0.367,5.588-1.445,7.846-3.081c2.238-1.568,4.385-3.631,5.933-6.453
			c1.536-2.821,2.269-6.427,1.72-10.401c-0.535-3.988-2.131-7.626-4.037-10.872c-1.935-3.247-4.242-6.13-6.719-8.647
			c-4.952-5.022-10.608-8.65-16.169-10.302c-2.722-0.814-4.93-0.588-6.067-0.082c-1.159,0.536-1.298,1.229-0.555,1.838
			c1.509,1.334,6.238,1.796,15.241,6.554c4.763,2.676,7.072,5,9.434,7.855c1.165,1.457,2.328,3.107,3.545,5.292
			c1.175,2.183,2.535,4.931,3.136,8.651c0.455,2.962-0.004,5.893-1.385,8.246c-1.369,2.364-3.524,4.131-5.897,5.361
			c-2.285,1.245-4.866,1.779-7.222,1.687C337.216,412.27,335.108,411.41,333.934,410.015z"/>
		<path style="fill:#231815;" d="M356.983,369.736c4.903,2.787,9.994,6.678,13.935,12.097c3.95,5.389,6.397,12.337,6.546,19.516
			c0.186,7.196-1.792,14.286-4.383,20.747c-1.294,3.245-2.755,6.384-4.199,9.411c-1.42,3.007-2.745,6.001-3.901,8.956
			c-1.149,2.954-2.09,5.729-2.675,8.289c-0.571,2.503-0.817,5.044-0.078,6.461c0.599,1.35,2.582,1.334,4.19,0.979
			c1.637-0.351,3.072-0.921,4.272-1.427c2.402-1.038,3.942-1.85,4.696-2.189c0.757-0.345,0.73-0.242-0.089,0.272l-3.149,2.043
			c-1.345,0.82-2.996,1.872-5.364,2.67c-1.177,0.355-2.608,0.748-4.287,0.22c-0.828-0.286-1.609-0.943-2.069-1.78
			c-0.459-0.836-0.677-1.771-0.766-2.714c-0.278-3.787,0.855-7.898,2.477-12.505c1.666-4.597,3.595-8.835,5.412-12.736
			c1.79-3.905,3.314-7.603,4.435-11.078c2.296-6.943,2.78-12.968,2.282-17.247c-0.226-2.148-0.52-3.497-0.776-4.734
			c-0.26-1.237-0.541-2.356-1.064-3.966c-0.558-1.6-1.322-3.722-3.189-6.616c-1.875-2.858-4.906-6.56-10.4-10.224
			c-5.52-3.617-10.542-5.485-14.433-6.709c-3.918-1.197-6.786-1.719-8.591-2.088c-3.633-0.611-3.021-1.064,0.897-0.871
			c3.898,0.244,9.081,1.153,13.168,2.473C353.98,368.245,356.98,369.756,356.983,369.736z"/>
		<path style="fill:#231815;" d="M390.581,420.639c0.284,2.164,1.667,3.382,2.794,3.237c1.144-0.149,2.009-1.516,1.754-4.472
			c-0.238-3.025-0.89-5.272-1.542-7.789c-0.627-2.503-1.286-5.304-0.971-9.216c0.329-3.89,1.318-7.616,2.946-10.546
			c1.608-2.962,3.92-4.849,6.094-5.538c1.05-0.357,1.798-0.804,2.247-1.386c0.439-0.564,0.55-1.266,0.077-1.846
			c-0.464-0.568-1.582-1.084-3.392-0.74c-1.767,0.302-4.281,1.753-5.797,4.599c-1.527,3.011-1.974,4.681-2.711,6.654
			c-0.651,1.975-1.411,4.309-1.666,8.615C390.096,409.043,389.886,415.041,390.581,420.639z"/>
		<path style="fill:#231815;" d="M406.086,395.39c0.388-1.485,0.799-2.435,1.226-3.394c0.409-0.933,0.748-1.737,0.552-2.297
			c-0.18-0.53-0.893-0.871-2.297-0.349c-0.683,0.28-1.563,0.806-2.385,1.806c-0.836,0.983-1.525,2.453-1.85,4.113
			c-0.419,2.186-0.365,4.034-0.314,5.709l0.121,2.412l0.05,1.84l0.027,1.898c1.164,0.6,2.368,1.126,3.59,1.507
			c0.707,0.216,1.003,0.248,1.515,0.345c0.468,0.069,0.937,0.127,1.41,0.149c1.895,0.109,3.844-0.183,5.704-0.903
			c3.724-1.461,7.088-4.462,9.465-9.139c1.554-3.46,2.591-7.21,2.198-10.989c-0.365-3.787-2.343-7.138-4.607-9.691
			c-4.614-5.107-9.855-8.442-12.798-12.231c-1.447-1.801-2.371-3.061-3.158-3.811c-0.769-0.73-1.499-0.893-1.905,0.026
			c-0.398,0.872-0.352,3.059,1.37,5.735c1.682,2.686,4.948,5.36,9.211,8.051c4.51,2.928,6.713,5.042,8.285,8.033
			c1.447,2.946,2.299,7.061-0.596,13.938c-1.559,3.307-4.394,6.052-7.521,7.118c-1.566,0.546-3.197,0.693-4.742,0.464
			c-0.756-0.105-1.566-0.325-2.209-0.578c-0.365-0.171-0.794-0.345-1.023-0.607l0.07-0.649l0.03-0.304l0.022-0.663l0.067-2.747
			C405.64,398.411,405.726,396.74,406.086,395.39z"/>
		<path style="fill:#231815;" d="M431.789,367.405c2.676,3.073,4.474,7.204,5.421,11.62c0.971,4.43,1.155,9.177,0.883,13.931
			c-0.602,9.52-3.011,19.135-6.547,27.355c-0.601,1.384-1.221,2.68-1.856,3.887c-0.32,0.602-0.641,1.181-0.965,1.741
			c-0.139,0.214-0.246,0.359-0.347,0.486c0.131,0.149,0.167,0.202,0.514,0.427c0.52,0.31,1.034,0.562,1.535,0.752
			c1.001,0.379,1.954,0.498,2.824,0.431c1.753-0.153,3.119-0.939,4.077-1.483c1.908-1.193,2.428-1.534,1.634-0.774
			c-0.796,0.665-1.716,1.842-3.714,2.968c-0.998,0.532-2.37,0.992-4.029,0.851c-1.729-0.195-3.181-0.607-5.817-2.479l1.114-2.027
			c0.341-0.643,0.526-1.026,0.796-1.586c0.502-1.044,1.015-2.168,1.538-3.38c5.056-12.017,6.187-22.609,6.193-28.552l0.001-6.183
			c-0.033-1.165-0.083-2.71-0.463-5.03c-0.438-2.275-1.076-5.483-3.418-9.129c-2.391-3.611-5.4-5.48-7.838-6.555
			c-2.475-1.056-4.401-1.477-5.607-1.784c-2.44-0.548-2.044-0.991,0.645-0.893c2.662,0.113,6.289,0.828,8.995,2.271
			C430.083,365.659,431.797,367.421,431.789,367.405z"/>
		<path style="fill:#231815;" d="M458.912,356.998c-0.785,1.451-0.002,2.835,1.072,3.142c1.112,0.331,2.378-0.07,3.277-1.37
			c0.984-1.328,1.461-2.569,2.198-4.028c0.742-1.427,1.765-3.023,3.867-4.411c4.242-2.763,8.944-3.869,12.305-5.074
			c3.304-1.169,0.588-6.767-5.035-1.971c-1.502,1.308-2.446,1.852-3.621,2.422c-1.164,0.582-2.594,1.141-4.863,2.777
			C464.566,351.091,460.98,353.292,458.912,356.998z"/>
		<path style="fill:#231815;" d="M477.1,407.752c1.899,0.891,3.701,1.014,4.941,0.8c1.255-0.218,1.987-0.76,2.128-1.312
			c0.147-0.57-0.29-1.147-1.272-1.741c-0.983-0.603-2.517-1.205-4.463-2.303c-3.869-2.324-6.16-5.31-8.14-9.065
			c-1.87-3.79-3.293-8.577-2.968-15.338c0.743-13.468,7.249-25.779,14.764-30.305c1.795-1.096,3.088-1.87,3.823-2.608
			c0.725-0.717,0.866-1.433,0.035-1.892c-0.806-0.443-2.725-0.605-5.389,0.635c-2.632,1.215-5.808,3.986-8.114,8.462
			c-2.389,4.796-3.317,7.587-4.519,10.904c-1.07,3.331-2.447,7.265-2.807,14.683c-0.191,5.909,0.254,11.539,1.946,16.743
			c0.857,2.59,2.053,5.07,3.732,7.229C472.463,404.803,474.641,406.613,477.1,407.752z"/>
		<path style="fill:#231815;" d="M483.021,384.55c-2.186,3.815-4.17,6.167-3.892,7.335c0.138,0.558,1.003,0.814,2.641,0.083
			c1.583-0.754,3.947-2.503,5.889-6.203c1.338-2.618,2.015-5.514,1.603-8.385c-0.209-1.423-0.711-2.809-1.457-3.998
			c-0.373-0.597-0.807-1.135-1.265-1.634c-0.31-0.31-0.276-0.246-0.409-0.361l-0.274-0.179c-0.056-0.262-0.066-0.568-0.105-0.879
			l-2.503,1.902c3.287,0.524,6.552,1.848,9.55,4.522c2.995,2.66,5.607,6.626,7.581,11.888c1.473,4.347,2.108,9.03,1.79,13.409
			c-0.308,4.409-1.661,8.538-3.613,12.13c-3.968,7.207-9.699,12.422-14.468,16.904c-4.749,4.339-6.016,7.47-3.788,7.136
			c1.106-0.171,3.077-1.199,5.868-3.46c2.749-2.283,6.489-5.738,10.276-11.372c3.93-6.09,5.626-9.967,7.009-14.723
			c0.637-2.394,1.138-5.064,1.153-8.432c-0.024-3.386-0.409-7.356-2.159-12.366c-1.746-4.45-3.901-8.666-6.942-12.168
			c-3.002-3.513-7.053-6.098-11.36-7.219l-2.136-0.558l-0.115,2.267c-0.046,0.913-0.121,1.828-0.145,2.735
			c0.355,0.333,0.741,0.663,1.074,0.998l0.471,0.478l0.228,0.294c0.312,0.385,0.529,0.818,0.734,1.246
			c0.376,0.87,0.549,1.812,0.544,2.791C484.776,380.693,484.057,382.732,483.021,384.55z"/>
		<path style="fill:#231815;" d="M204.237,489.284c-5.805-1.886-9.237,1.669-0.685,4.684c4.37,1.517,7.942,2.023,11.828,2.386
			c3.898,0.331,8.083,0.619,13.936,1.02c5.858,0.377,11.606,0.115,16.811-0.999c5.207-1.09,9.824-2.969,13.475-5.077
			c3.595-2.106,4.105-4.536,2.454-4.824c-0.828-0.169-2.185,0.141-4.087,1.018c-1.917,0.869-4.358,2.307-7.718,4.188
			c-3.638,1.969-6.006,2.549-8.774,2.997c-2.793,0.385-6.048,0.685-12.026,0.488C219.84,494.728,211.751,491.655,204.237,489.284z"
			/>
		<path style="fill:#231815;" d="M471.967,436.981c0.949-5.425-0.058-9.246-1.145-9.619c-1.196-0.401-2.211,2.493-3.66,9.917
			c-1.61,7.541-3.116,13.254-5.455,19.308c-1.187,3.015-2.63,6.094-4.661,9.33c-2.031,3.231-4.661,6.638-8.369,9.961
			c-7.414,6.682-16.636,10.592-25.352,11.523c-8.752,0.998-16.778-0.645-23.246-2.844c-3.168-1.086-5.556-1.747-7.047-1.846
			c-1.486-0.099-2.078,0.387-1.427,1.366c0.65,0.967,2.539,2.489,6.147,4.018c3.581,1.497,8.995,3.063,16.257,2.922
			c3.871-0.091,6.874-0.492,9.542-0.929c2.665-0.453,5-0.99,7.492-1.729c2.483-0.756,5.144-1.693,8.288-3.293
			c3.134-1.596,6.773-3.867,10.816-7.539c6.419-5.905,11.201-12.648,14.743-19.542C468.431,451.074,470.729,443.98,471.967,436.981z
			"/>
		<path style="fill:#231815;" d="M283.691,497.874c-1.1-3.174-1.335-6.042-2.457-6.558c-0.52-0.238-1.233,0.135-1.853,1.556
			c-0.549,1.368-1.152,4.063,0.35,7.662c1.605,3.617,4.403,5.788,6.982,7.204c2.639,1.425,5.281,2.209,7.998,2.83
			c1.361,0.308,2.748,0.564,4.185,0.8c0.696,0.119,1.5,0.254,2.281,0.312l2.342,0.183c3.201,0.163,6.82,0.369,10.982-0.613
			c2.063-0.514,4.082-1.453,5.674-2.916c1.601-1.451,2.706-3.337,3.422-5.246c1.421-3.863,1.717-7.769,2.086-11.4
			c0.334-3.642,0.624-7.092,1.254-10.211c0.613-3.114,1.59-5.879,2.99-8.019c1.352-2.078,2.517-3.458,3.081-4.524
			c0.568-1.036,0.484-1.774-0.57-1.834c-0.995-0.038-3.176,0.637-5.449,3.368c-2.299,2.694-3.943,7.501-3.961,13.321
			c-0.031,6.205,0.107,9.595-0.471,13.542c-0.299,1.939-0.697,4.046-1.763,6.286c-1.06,2.217-3.003,4.48-6.836,5.492
			c-3.043,0.808-6.322,0.699-9.427,0.314c-1.554-0.216-3.123-0.445-4.514-0.838c-1.497-0.409-2.95-0.858-4.347-1.356
			C290.131,505.292,285.127,502.174,283.691,497.874z"/>
		<path style="fill:#231815;" d="M331.979,499.963c-3.679-2.124-5.706-3.698-6.895-3.522c-0.552,0.115-0.895,0.945-0.224,2.537
			c0.657,1.568,2.469,3.726,5.695,5.55c3.285,1.856,6.411,2.821,9.401,3.478c2.999,0.635,5.894,0.911,8.894,0.985
			c3.002,0.058,6.119-0.074,9.58-0.552c3.428-0.469,7.355-1.397,11.296-3.672c4.003-2.279,6.961-5.971,8.824-9.859
			c1.916-3.897,3.067-7.91,4.277-11.634c1.192-3.728,2.44-7.225,4.166-10.103c1.702-2.89,3.915-5.044,6.345-6.392
			c2.36-1.318,4.258-2.132,5.303-2.922c1.05-0.75,1.238-1.489,0.241-1.921c-0.975-0.393-3.248-0.643-6.699,0.798
			c-1.701,0.726-3.663,1.987-5.441,3.954c-1.784,1.955-3.275,4.603-4.286,7.658c-1.067,3.277-1.604,5.814-2.18,8.053
			c-0.561,2.239-1.089,4.186-1.773,6.243c-0.694,2.044-1.494,4.232-2.855,6.709c-1.373,2.446-3.347,5.254-7.033,7.507
			c-1.473,0.851-3.113,1.604-4.688,2.07c-1.617,0.474-3.296,0.748-4.967,0.907c-3.353,0.294-6.676,0.121-9.859-0.31
			C342.754,504.623,336.778,502.776,331.979,499.963z"/>
		<path style="fill:#231815;" d="M362.729,475.704c-0.853,1.943-0.04,3.595,1.044,3.877c1.132,0.31,2.366-0.453,3.455-2.493
			c1.172-2.074,1.875-3.787,2.933-5.699c1.064-1.864,2.537-3.946,5.493-5.643c2.955-1.681,6.192-2.553,9.153-2.815
			c2.973-0.262,5.659,0.079,7.828,0.604c2.056,0.516,3.519-0.453,3.277-1.878c-0.143-0.703-0.8-1.521-2.164-2.078
			c-1.348-0.552-3.434-0.818-6.008-0.185c-2.724,0.711-4.178,1.108-5.968,1.52c-1.753,0.463-3.89,0.921-7.21,2.91
			C369.391,467.02,364.982,470.712,362.729,475.704z"/>
		<path style="fill:#231815;" d="M271.232,504.306c1.494-1.769,1.005-3.7-0.014-4.141c-1.074-0.508-2.368,0.044-3.875,1.489
			c-1.616,1.457-2.904,2.682-4.666,3.942c-1.756,1.199-4.041,2.374-7.466,2.513c-6.882,0.272-13.087-2.904-15.716-6.155
			c-0.665-0.772-1.315-1.169-1.994-1.284c-0.657-0.113-1.34,0.079-1.698,0.709c-0.366,0.619-0.39,1.755,0.454,3.107
			c0.826,1.336,2.574,2.811,5.191,3.553l6.06,1.522c1.783,0.405,3.901,0.993,7.782,0.756c3.086-0.224,5.982-0.635,8.719-1.515
			C266.721,507.93,269.332,506.525,271.232,504.306z"/>
		<path style="fill:#231815;" d="M201.652,493.855c2.619-1.971,3.253-4.436,2.523-5.28c-0.784-0.923-2.58-0.327-5.902,1.963
			c-3.455,2.277-6.15,3.984-9.385,5.542c-3.209,1.459-7.151,2.894-12.673,2.186c-2.731-0.389-5.334-1.328-7.447-2.801
			c-2.127-1.455-3.675-3.474-4.531-5.628c-1.705-4.393-0.84-8.914,0.204-12.476c1.092-3.47,0.533-5.667-1.077-5.105
			c-0.777,0.304-1.828,1.334-2.717,3.442c-0.83,2.082-1.695,5.359-0.82,9.698c1.06,4.573,2.533,6.932,4.532,9.332
			c1.044,1.167,2.322,2.33,4.157,3.368c1.826,1.038,4.22,1.961,7.379,2.356c5.041,0.599,9.765,0.056,14.102-1.078
			C194.327,498.218,198.293,496.37,201.652,493.855z"/>
		<path style="fill:#231815;" d="M261.257,44.06c-0.746-1.453-1.476-2.936-2.151-4.393c-0.948-2.053-2.784-6.009-4.324-9.766
			c-1.556-3.756-2.745-7.307-2.733-8.482c-0.01-1.588-0.459-3.363-1.194-4.236l-0.295-0.274l-0.34-0.01
			c-0.237-0.071-0.52-0.23-0.811-0.387c-0.616-0.351-1.068-0.608-2.278-0.921c-0.477-0.103-1.068-0.24-1.542-0.161
			c-0.482,0.062-0.876,0.329-1.199,0.707c-0.313,0.361-0.531,0.885-0.619,1.634c-0.098,0.512-0.126,1.026-0.095,1.505
			c0.126,1.905,1.067,3.525,2.039,4.369c0.63,0.574,2.538,3.97,4.707,7.557c2.156,3.607,4.516,7.491,5.724,9.373
			c1.272,1.981,2.37,3.902,2.938,5.304c0.338,0.846,2.558,5.268,5.456,11.072c1.444,2.902,3.059,6.153,4.625,9.49
			c0.776,1.669,1.55,3.361,2.235,5.038c0.34,0.84,0.665,1.677,0.918,2.483c0.162,0.639,0.463,1.294,0.072,1.856l-0.083,0.209
			c-0.566,1.671-0.574,3.269-0.504,4.72c0.089,1.459,0.32,2.809,0.6,4.046c1.761,7.086,4.378,10.562,5.972,12.664
			c1.705,2.066,2.585,2.767,3.412,3.452c0.863,0.689,1.944,0.812,2.781,0.534c0.848-0.27,1.443-0.921,1.707-1.612
			c0.266-0.697,0.248-1.429-0.014-1.997c-0.276-0.582-0.775-0.963-1.876-1.354c-1.062-0.417-1.926-0.794-3.388-2.273
			c-0.721-0.756-1.586-1.812-2.535-3.432c-0.933-1.616-1.995-3.807-2.766-6.777c-0.524-2.114-0.973-4.863-0.326-6.959l0.177-0.417
			c0.561-1.123,0.154-2.489-0.196-3.625c-0.316-0.953-0.672-1.834-1.042-2.713c-0.741-1.751-1.546-3.458-2.355-5.147
			c-1.625-3.368-3.283-6.626-4.779-9.558L261.257,44.06z"/>
		<path style="fill:#231815;" d="M366.876,144.591c0.056-2.003,0.386-7.212,1.025-12.333l1.461-12.204
			c0.101-1.008,0.378-3.486,0.372-6.544c-0.008-3.027-0.416-6.735-2.092-9.188c-0.208-0.32-0.414-0.58-0.678-0.891l-0.917-1.024
			c-0.628-0.675-1.278-1.334-1.924-1.959c-1.296-1.255-2.591-2.39-3.777-3.366c-2.375-1.955-4.315-3.261-5.027-3.841
			c-1.42-1.163-4.169-2.847-7.003-3.954c-2.823-1.147-5.677-1.632-6.981-1.735c-1.313-0.131-2.968-0.171-4.675,0.04
			c-1.79,0.202-3.619,0.524-5.141,0.846c-3.039,0.556-10.05,2.68-11.61,3.168c-1.505,0.479-8.474,3.502-11.871,4.107
			c-0.827,0.173-2.366,0.498-4.342,0.8c-0.988,0.151-2.086,0.288-3.257,0.389c-0.587,0.048-1.19,0.093-1.806,0.119
			c-0.716,0.032-0.944,0.05-1.521,0.115c-2.122,0.254-4.683,0.655-7.025,0.808c-2.356,0.175-4.595,0.127-6.291-0.101
			c-1.69-0.222-3.402-0.611-4.956-1.298c-1.55-0.667-2.906-1.622-3.814-2.61c-0.905-0.994-1.407-1.931-1.509-2.567
			c-0.117-0.635,0.085-0.935,0.623-0.907c2.082,0.076,3.074,0.455,4.56-0.018c0.728-0.262,1.006,0.101,1.659,0.677
			c0.628,0.568,1.707,1.34,3.52,1.417c1.79,0.088,4.525,0.05,7.59-0.393c1.541-0.21,3.128-0.512,4.829-0.812
			c1.934-0.298,3.331-0.399,4.768-0.782c5.592-1.415,9.927-1.838,13.448-2.364c3.481-0.558,10.178-0.85,13.52-2.098
			c3.355-1.35,9.895-2.045,12.637-2.11c1.351-0.177,5.031,0.058,8.729,1.094c3.718,0.969,7.397,2.588,9.476,3.152
			c2.104,0.534,5.528,3.092,8.352,6.07c1.426,1.483,2.725,3.045,3.786,4.45c0.497,0.661,1.066,1.437,1.483,2.142
			c0.412,0.693,0.701,1.292,0.923,1.731c0.828,1.765,1.182,1.733,1.431,1.703c0.202-0.042,0.286,0.022-0.119,1.894
			c-0.456,1.836-1.01,2.908-1.35,3.865c-0.353,0.953-0.528,1.765-0.516,2.896c0.05,1.125,0.321,5.127,0.181,9.087
			c-0.113,3.958-0.385,7.829-0.73,8.752c-0.71,1.85-0.015,3.239-0.613,4.45c-0.596,1.211-1.081,1.485-0.883,3.76
			c0.224,2.263-0.143,1.285,0.524,4.19c0.748,2.864,0.798,0.371,0.725,4.706c0.003,2.138-1.203,3.442-2.544,3.214
			C368.213,150.911,366.699,148.938,366.876,144.591z"/>
		<path style="fill:#231815;" d="M167.108,129.861c1.054,1.737,2.104,4.409,2.441,6.666c0.391,2.273,0.304,4.123,0.129,4.79
			c-0.35,1.336-0.158,2.469,0.018,3.62c0.047,0.286,0.322,2.7,0.457,6.06l0.344,12.011c0.188,4.419,0.245,8.706,0.714,12.045
			c0.418,3.347,0.995,5.8,1.278,6.424c1.164,2.43,1.922,12.039,1.882,12.041c0,0-4.361-1.876-4.53-2.658
			c-0.163-0.792-0.098-3.563-1.251-5.814c-0.559-1.117-1.862-5.324-2.593-9.85c-0.762-4.53-0.867-9.115-0.696-10.703
			c0.423-3.323-2.678-13.44-2.922-15.131c-0.088-0.895-0.602-2.726-1.252-4.49c-0.646-1.785-1.459-3.385-1.877-4.345
			c-0.417-0.998-1.316-1.195-1.906-1.366c-0.612-0.185-0.92-0.304-0.627-1.425c0.302-1.1,1.424-3.529,2.234-5.862
			c0.82-2.293,1.464-4.391,1.471-4.387c1.1-0.069,2.26-0.059,3.456,0.085C163.846,127.556,166.062,128.066,167.108,129.861z"/>
		<path style="fill:#231815;" d="M317.595,119.034l-5.759-2.856c-2.64-1.298-7.582-3.887-11.863-6.864
			c-4.304-2.938-7.962-6.153-8.84-7.39c-2.41-3.309-7.027-6.908-9.921-3.154c-2.384,3.097,2.418,7.376,5.484,8.198
			c0.991,0.284,5.227,3.049,10.106,5.659c4.855,2.658,10.384,5.016,13.113,6.02c2.876,1.064,5.487,2.219,7.174,3.224
			c1.202,0.756,9.489,4.794,18.574,11.084c4.516,3.152,9.236,6.906,12.93,11.179c0.917,1.07,1.77,2.166,2.523,3.287
			c0.709,1.125,1.535,2.374,2.285,3.47c1.527,2.241,2.971,4.311,4.195,6.223c4.889,7.485,6.139,12.333,6.597,15.267
			c0.395,2.965,0.207,4.111,0.104,5.214c-0.227,2.174,0.938,4.085,2.351,4.681c0.702,0.276,1.45,0.153,2.049-0.621
			c0.587-0.762,1.008-2.223,0.734-4.391c-0.303-2.08-0.582-3.591-1.45-6.769c-0.901-3.132-2.633-8.007-7.558-15.249
			c-1.296-1.933-2.789-4.002-4.318-6.181c-0.787-1.124-1.478-2.128-2.299-3.404c-0.849-1.227-1.785-2.414-2.78-3.555
			c-4.012-4.548-8.922-8.377-13.616-11.608C327.979,124.07,319.37,119.961,317.595,119.034z"/>
		<path style="fill:#231815;" d="M187.935,26.167c0.439-0.921,0.92-1.834,1.417-2.706c1.359-2.489,5.603-9.315,7.126-10.004
			c1.978-1.02,3.163-3.499-0.836-6.026c-3.294-2.064-5.102,0.566-4.801,2.388c0.09,1.183-3.298,9.256-4.068,11.985
			c-0.45,1.427-0.967,2.723-1.5,3.521c-0.39,0.582-2.385,4.575-4.6,9.496c-2.228,4.919-4.669,10.766-6.348,14.889
			c-3.286,8.121-3.869,9.22-4.457,10.26c-1.142,2.156,4.878,5.302,4.913,1.481c0.058-1.86-0.065-2.779,2.707-10.528
			c1.49-4.131,3.797-9.939,5.941-14.881C185.559,31.096,187.519,27.024,187.935,26.167z"/>
		<path style="fill:#231815;" d="M332.386,126.442l-0.401-0.153c-0.375-0.212-1.038-1.082-0.594-1.886
			c0.573-1.048,0.185-0.875-3.11,2.529c-2.685,2.797-1.969,3.535-0.927,2.827c0.342-0.232,1.131-0.171,1.942-0.202
			c0.811-0.016,1.603-0.155,1.97-0.306c0.395-0.155,0.704-0.212,0.903-0.054c0.139,0.123,1.17,0.272,2.306,0.201
			c1.139-0.056,2.369-0.204,3.201-0.193c1.63,0.024,1.805,0.367,2.011,0.546c0.329,0.403,0.941-6.297-0.014-5.129
			c-0.417,0.59-0.641,0.879-2.395,1.219c-0.932,0.185-2.184,0.444-3.141,0.564C333.166,126.534,332.521,126.458,332.386,126.442z"/>
		<path style="fill:#231815;" d="M341.85,119.388c-0.363,3.245,0.184,7.717,0.496,11.443c0.3,3.732-0.246,5.433-0.387,4.873
			c-0.098-0.562-1.341-1.491-1.759-4.385c-0.409-2.882-0.759-5.201-1.044-6.564c-0.265-1.36,0.177-0.8,0.246-4.857
			c0.122-4.045,1.385-4.75,1.579-3.597C341.181,117.46,341.848,119.392,341.85,119.388z"/>
		<path style="fill:#231815;" d="M360.48,171.492c-0.332,1.717,0.094,3.871,1.266,5.766c1.14,1.919,2.887,3.585,4.536,5.052
			c3.379,2.862,4.728,4.423,4.075,4.135c-0.583-0.363-2.364-0.093-5.249-2.271c-2.848-2.188-4.828-4.417-5.865-5.911
			c-0.517-0.746-0.573-1.022-0.733-1.721c-0.103-0.701-0.547-1.836-0.505-4.538c0.157-2.719,1.2-4.057,1.737-4.548
			c0.582-0.494,0.854-0.208,0.696,0.459C360.047,169.3,360.424,171.527,360.48,171.492z"/>
		<path style="fill:#231815;" d="M368.181,167.51c0.496,2.386,1.921,5.123,3.813,7.654c1.886,2.549,4.172,4.947,6.306,7.075
			c4.298,4.214,5.986,6.181,5.181,5.715c-0.732-0.54-2.914-0.736-6.437-3.893c-3.478-3.168-6.014-5.995-7.487-7.706
			c-0.732-0.861-0.855-1.173-1.237-1.975c-0.342-0.824-1.096-2.07-2.217-5.306c-1.058-3.307-0.522-5.522-0.104-6.362
			c0.446-0.874,0.781-0.615,0.793,0.278C366.778,164.87,368.148,167.547,368.181,167.51z"/>
		<path style="fill:#231815;" d="M359.896,170.434c1.175,2.049,3.293,4.169,5.742,6.005c2.453,1.848,5.222,3.452,7.78,4.794
			c5.115,2.634,7.4,3.533,6.513,3.48c-0.826-0.185-2.947,0.538-7.172-1.366c-4.155-1.933-7.259-3.902-9.107-5.068
			c-0.922-0.589-1.117-0.846-1.691-1.485c-0.55-0.665-1.579-1.61-3.569-4.25c-1.971-2.709-2.162-4.951-1.976-5.858
			c0.195-0.943,0.59-0.776,0.837,0.04C357.766,168.454,359.874,170.477,359.896,170.434z"/>
		<path style="fill:#231815;" d="M377.495,161.789c3.534,3.367,9.355,7.08,14.046,10.342c4.698,3.255,6.318,5.115,5.546,4.724
			c-0.744-0.431-2.773-0.391-6.479-2.721c-3.68-2.344-6.652-4.186-8.438-5.215c-1.763-1.062-0.844-0.83-5.58-4.71
			c-4.678-3.996-4.573-5.774-3.168-4.738C374.842,160.487,377.496,161.795,377.495,161.789z"/>
		<path style="fill:#231815;" d="M374.941,168.002c3.336,2.592,9.281,4.641,13.969,6.657c4.715,2.025,6.454,3.375,5.715,3.196
			c-0.734-0.202-2.547,0.31-6.239-1.052c-3.674-1.365-6.64-2.414-8.418-2.981c-0.887-0.284-1.102-0.457-1.713-0.863
			c-0.603-0.427-1.629-1.002-4.024-2.503c-2.382-1.497-3.518-3.267-3.403-4.323c0.046-0.506,0.276-0.647,0.409-0.603
			c0.156,0.05,0.249,0.234,0.423,0.512C372.386,167.248,374.984,168.006,374.941,168.002z"/>
		<path style="fill:#231815;" d="M371.949,155.367c0.113,0.381,0.21,0.772,0.291,1.161c0.195,1.084,0.934,4.192,0.741,4.986
			c-0.411,1,0.718,2.443,2.975,0.647c1.852-1.385,1.632-1.874,0.769-2.124c-0.573-0.03-2.153-2.942-2.698-3.915
			c-0.299-0.5-0.507-0.996-0.531-1.37c-0.057-0.536-1.657-6.648-2.849-9.947c-1.191-3.237-1.567-3.745-1.739-4.25
			c-0.659-1.149-3.504,1.727-2.422,1.894c0.556,0.268,1.012,0.286,2.269,3.1C370.081,148.577,371.718,154.659,371.949,155.367z"/>
		<path style="fill:#231815;" d="M167.701,119.112c-0.569,0.159-1.402,0.423-2.523,0.506c-1.262,0.113-2.111-0.038-3.111-0.194
			c-1.899-0.355-3.804-0.935-5.683-1.538c-3.727-1.221-7.298-2.533-8.604-2.977c-2.592-0.905-6.725-0.248-8.022-1.517
			c-1.298-1.272-3.336-0.905-5.28-1.199c-4.599-0.711-8.908-0.591-10.668-1.548c-1.777-0.993-6.816-0.822-8.635-1.314
			c-0.917-0.264-2.879-0.548-4.877-0.685c-1.999-0.141-4.016-0.101-5.092-0.018c-0.563,0.044-1.395,0.115-2.451,0.334
			c-1.092,0.218-2.386,0.51-3.637,0.854c-2.522,0.667-4.879,1.608-5.794,2.148c-0.928,0.52-2.69,1.259-4.293,2.287
			c-1.624,1.008-3.001,2.352-3.711,3.51c-0.783,1.106-1.632,3.676-1.518,6.374c0.041,2.672,0.757,5.254,1.025,5.905
			c0.282,0.661,0.337,1.362,0.485,2.336l0.135,0.784l0.253,1.11c0.155,0.895,0.297,1.479,0.584,2.42
			c1.123,3.539,1.248,6.257,2.309,8.696c1.079,2.426-1.001,2.108-0.477,3.73l0.859,2.525c0-0.004,1.24-1.233,1.743,0.187
			c0.481,1.433,2.55,5.852,3.328,7.523c0.771,1.673-0.439,1.437,1.499,4.603c2.012,3.055,1.17,3.561,3.202,6.523
			c1.026,1.459,2.872,3.285,4.093,4.073c0.606,0.419,1.034,0.643,1.145,0.786c0.108,0.131-0.077,0.22-0.825,0.054
			c-1.517-0.413-2.515-0.878-3.326-1.251c-0.818-0.401-1.494-0.806-2.424-1.755c-1.845-1.926-3.004-3.454-3.854-4.794
			c-3.398-5.64-3.821-7.192-4.323-8.23c-0.45-1.074-0.891-2.152-1.58-3.964c-0.684-1.814-1.494-3.178-1.868-4.283
			c-0.373-1.104-1.038-2.12-1.198-3.7c-0.161-1.584,0.222-3.702,0.225-3.7c-0.005-0.004,0.185-2.839-0.869-4.542
			c-1.104-1.679-1.769-3.982-2.295-5.826c-0.514-1.83-2.065-5.947-2.017-7.596c0.004-1.538-0.698-4.518,0.778-8.118
			c0.763-1.755,1.687-2.837,2.8-3.998c1.139-1.147,2.495-2.414,4.844-4.097c2.395-1.636,3.428-1.576,4.101-1.604
			c0.699,0.004,1.094,0.002,2.629-1.12c1.547-1.112,3.12-1.965,4.637-2.588c1.504-0.615,2.968-1.064,4.554-1.199
			c3.025-0.268,5.806,1.413,8.183,1.267c2.414-0.179,7.179,0.131,9.174,0.157c2.021-0.038,8.976,1.32,10.112,1.59
			c1.156,0.238,4.451,1.608,6.938,1.205c2.5-0.407,8.635,2.32,10.573,2.424c1.95,0.121,6.183,0.371,8.024,0.349
			c0.928,0.004,2.364,0.149,3.55,0.345c1.196,0.194,2.043,0.417,2.262,0.864c0.27,0.458,0.457,1.064,0.831,1.848
			c0.408,0.709,1.347,1.699,2.641,1.745c0.648,0.097,0.867,0.109,1.249,0.468c0.337,0.328,0.671,0.931,0.939,1.65
			C168.656,117.998,167.717,119.136,167.701,119.112z"/>
		<path style="fill:#231815;" d="M134.742,145.427c-0.865-0.095-1.74-0.218-2.589-0.365c-2.38-0.454-9.227-1.483-10.569-2.326
			c-0.879-0.613-2.017-0.838-3.194-0.165c-0.638,0.342-1.163,0.945-1.237,1.743c-0.112,0.776,0.44,1.906,0.797,2.876
			c0.307,0.814,0.598,1.336,0.868,1.824c0.269,0.468,0.339,0.802,0.552,0.961c0.5,0.31,1.324,0.036,1.873-0.54
			c0.647-0.84,7.915-1.211,10.31-1.37c1.258-0.107,2.435-0.079,3.213,0.145c1.141,0.288,14.857,2.082,22.287,3.202
			c7.31,1.074,8.34,1.399,9.327,1.691c2.107,0.542,3.248-6.106,0.267-5.123c-1.521,0.431-2.245,0.742-9.188,0.069
			C150.055,147.299,136.371,145.57,134.742,145.427z"/>
		<path style="fill:#231815;" d="M117.618,151.32c-0.01-0.683,0.006-1.375,0.094-2.044c0.104-0.939,0.375-2.745,0.896-4.345
			c0.504-1.608,1.237-2.979,1.788-3.269c1.45-0.808,1.723-2.398-2.621-4.283c-3.572-1.523-4.621,0.824-3.752,2.197
			c0.248,0.451,0.16,2.323,0.212,4.294c0.036,1.981,0.243,4.065,0.437,5.074c0.193,1.066,0.304,2.051,0.193,2.729
			c-0.089,0.49-0.077,3.698,0.679,7.495c0.7,3.809,2.309,8.113,3.825,10.963c1.484,2.809,2.555,4.305,3.178,5.262
			c0.625,0.959,0.867,1.346,1.08,1.743c1.028,1.612,6.079-2.814,3.659-3.599c-0.591-0.22-1.048-0.379-1.782-1.001
			c-0.716-0.637-1.76-1.721-3.175-4.055c-1.514-2.485-3.102-6.398-3.837-9.941C117.7,155.008,117.632,151.952,117.618,151.32z"/>
		<path style="fill:#231815;" d="M107.892,200.8c0.031,1.411,0.399,2.948,0.91,4.726l1.387,5.518
			c0.94,3.773,1.879,7.678,2.575,11.261c1.388,7.16,1.172,10.213,0.905,9.153c-0.258-1.062-1.734-2.964-2.96-8.309
			c-1.221-5.344-2.423-9.556-3.243-11.985c-0.41-1.215-0.434-1.582-0.578-2.576c-0.072-0.498-0.174-1.157-0.368-2.13
			c-0.165-0.949-0.63-2.305-0.931-4.317c-0.307-2.019-0.071-3.825,0.578-5.062c0.647-1.242,1.512-1.814,2.047-2.031
			c1.132-0.381,1.056,0.07,0.352,0.778c-0.733,0.751-1.09,2.068-1.005,3.118C107.618,200,107.903,200.802,107.892,200.8z"/>
		<path style="fill:#231815;" d="M118.15,211.255c-0.253,3.803,0.325,9.309-0.619,13.921c-0.984,4.631-2.861,5.951-2.546,5.308
			c0.219-0.665-0.18-2.188,0.344-5.415c0.494-3.277,0.296-5.979,0.102-7.537c-0.219-1.568,0.28-0.871,0.283-5.602
			c0.003-4.768,1.325-5.637,1.504-4.272C117.42,209.01,118.15,211.255,118.15,211.255z"/>
		<path style="fill:#231815;" d="M132.276,206.959c2.392,5.316,3.388,13.264,2.938,19.707c-0.477,6.431-1.623,8.881-1.559,7.944
			c0.021-0.953-0.801-2.93-0.639-7.682c0.149-4.76-0.367-8.524-0.908-10.632c-0.273-1.054-0.267-1.362-0.331-2.211
			c-0.107-0.826-0.142-2.281-1.325-5.246c-1.245-2.92-2.327-4.448-2.703-5.326c-0.393-0.865-0.06-1.048,0.729-0.433
			c0.768,0.617,1.775,1.52,2.529,2.35C131.748,206.26,132.274,206.963,132.276,206.959z"/>
		<path style="fill:#231815;" d="M123.293,209.841c2.593,5.066,8.157,11.521,10.427,18.371c1.147,3.373,1.313,5.899,1.294,7.354
			c-0.046,1.467-0.238,1.918-0.308,1.405c-0.197-1.022-1.234-2.952-2.917-7.664c-1.781-4.732-4.242-8.045-5.681-9.937
			c-1.469-1.912-0.559-1.223-4.394-7.412c-1.879-3.148-2.488-5.326-2.566-6.368c-0.077-1.05,0.335-1.012,0.839-0.121
			C120.986,207.279,123.285,209.853,123.293,209.841z"/>
		<path style="fill:#231815;" d="M143.885,196.536c-0.615-0.645-1.222-1.312-1.789-1.977c-1.62-1.88-6.136-7.144-6.258-8.637
			c-0.239-1.997-2.079-3.545-5.594-0.375c-2.875,2.606-1.161,4.693,0.533,4.776c1.089,0.121,6.944,4.802,8.937,6.16
			c1.05,0.734,1.947,1.52,2.401,2.201c0.312,0.51,2.956,3.251,5.565,6.924c2.667,3.642,4.815,8.46,5.595,12.049
			c0.817,3.511,0.852,5.596,0.876,6.87c-0.006,1.278-0.105,1.776-0.176,2.261c-0.328,1.888,6.413,2.936,5.114-0.427
			c-0.336-0.798-0.592-1.378-0.902-2.674c-0.331-1.288-0.626-3.321-1.641-6.916c-1.03-3.849-3.488-9.075-6.421-12.924
			C147.251,199.958,144.438,197.157,143.885,196.536z"/>
		<path style="fill:#231815;" d="M140.16,204.837c5.038,3.932,10.38,10.832,14.137,16.843c3.725,6.006,4.785,8.708,4.125,7.904
			c-0.648-0.822-2.752-1.953-5.739-6.38c-2.969-4.421-5.635-7.708-7.367-9.437c-0.859-0.87-1.037-1.169-1.593-1.945
			c-0.577-0.746-1.454-2.102-4.203-4.407c-2.778-2.247-4.644-3.176-5.483-3.805c-0.849-0.605-0.627-0.921,0.464-0.716
			C136.674,203.241,140.182,204.792,140.16,204.837z"/>
		<path style="fill:#231815;" d="M100.094,185.996c-0.067-0.504-0.082-1.026-0.068-1.53c0.008-1.427,0.399-5.526,1.314-6.233
			c1.195-0.957,0.856-2.426-3.879-2.515c-3.872-0.07-4,1.544-2.824,2.303c0.732,0.504,1.714,5.092,2.337,6.519
			c0.296,0.76,0.473,1.477,0.401,1.993c-0.042,0.371,0.114,2.743,0.88,5.568c0.721,2.835,2.327,6.023,3.956,7.944
			c1.572,1.904,2.699,2.801,3.355,3.395c0.661,0.595,0.914,0.843,1.149,1.109c1.119,1.038,4.376-4.819,2.454-4.504
			c-0.476,0.044-0.859,0.103-1.499-0.135c-0.633-0.238-1.582-0.729-2.906-2.092c-1.434-1.439-2.893-4.055-3.621-6.576
			C100.38,188.733,100.155,186.464,100.094,185.996z"/>
		<path style="fill:#231815;" d="M181.286,265.052c5.454,2.539,13.706,4.319,21.912,5.447c8.206,1.149,16.348,1.651,21.624,2.227
			c10.576,1.229,25.109,0.729,32.838,1.098c3.865,0.226,16.464-0.32,29.109-1.723c12.655-1.332,25.315-3.527,29.608-4.246
			c4.302-0.691,11.911-2.186,18.967-3.919c7.063-1.713,13.564-3.644,15.831-4.543c4.533-1.82,1.746-1.006,11.024-3.637
			c9.241-2.735,11.216-2.862,13.973-3.768c2.768-0.881,11.623-4.792,11.602-4.825l8.806-4.526c4.565-2.358,9.4-4.99,11.008-5.363
			c7.636-1.792,5.725-3.559,9.897-5.816c4.114-2.35,8.121-3.132,15.629-9.064c3.71-2.987,7.903-6.457,11.659-10.155
			c3.77-3.68,7.061-7.608,9.23-11.098c2.168-3.48,3.681-6.187,4.939-8.756c1.237-2.565,2.225-5.01,2.782-7.976
			c0.462-2.969,0.221-1.487,0.127-0.742c-0.063,0.369-0.092,0.554,0.014-0.093c0.078-0.649,0.378-2.14,0.318-5.121
			c-0.101-2.978-0.428-5.151-0.569-6.751c-0.157-1.596-0.147-2.616,0.079-3.186c0.411-1.141,1.741-0.423,2.624,1.36
			c0.887,1.755,1.637,4.887,1.746,8.176c0.15,3.295-0.336,6.665-0.64,9.111c-0.272,2.452-1.189,6.108-2.972,9.794
			c-1.759,3.694-4.329,7.374-7.06,10.189c-5.517,5.572-8.479,8.017-11.029,11.064c-1.288,1.505-3.668,4.03-6.328,6.443
			c-2.648,2.423-5.562,4.736-7.634,6.062c-4.14,2.65-7.356,4.655-10.126,6.038c-6.152,3.057-10.465,4.782-13.61,6.108
			c-3.154,1.316-5.159,2.195-6.838,3.253c-3.376,2.072-1.763,0.83-9.724,4.637c-8.008,3.72-11.565,5.514-17.148,7.344
			c-5.596,1.786-8.267,3.18-12.039,4.256c-3.772,1.064-7.426,2.644-11.237,3.593c-3.798,0.971-12.293,3.508-17.013,5.036
			c-2.356,0.78-7.404,1.91-12.374,2.741c-4.969,0.846-9.852,1.403-11.831,1.378c-3.964-0.071-5.947-0.365-13.637,1.691
			c-7.712,1.999-6.711,2.481-12.595,2.978c-5.896,0.451-7.909-0.647-11.824-0.433c-3.924,0.222-11.759-0.107-15.694,1.128
			c-3.942,1.26-7.905,1.886-13.822,1.8c-5.92-0.101-8.839-0.822-11.788-0.943c-2.948-0.121-8.012,1.407-11.962,1.123
			c-3.935-0.266-11.05,0.941-16.894-0.318c-5.838-1.227-13.413-4.069-17.707-7.783C178.195,270.634,173.271,261.264,181.286,265.052
			z"/>
		<path style="fill:#231815;" d="M455.84,154.591c-2.021-2.217-3.868-3.519-5.85-4.76c-1.999-1.235-4.146-2.39-7.082-4.113
			c-5.879-3.378-6.939-6.999-14.629-11.394c-7.751-4.284-13.061-4.55-13.033-4.569c2.6,2.056,5.115,4.184,7.549,6.364
			c0.012-0.004,4.761,3.188,9.132,5.197c4.38,2.031,6.316,6.042,12.927,9.599c6.505,3.676,10.605,6.586,12.748,10.719
			c1.018,2.051,2.187,2.712,2.518,1.606C460.404,162.178,459.804,159.038,455.84,154.591z"/>
		<path style="fill:#231815;" d="M411.952,132.217c-3.869-2.956-1.79-5.369-7.255-7.472c-5.465-2.092-12.971-4.335-16.914-4.673
			l-9.199-1.173c-3.376-0.401-6.263-0.564-6.238-0.552c0.01,0.002-0.316,0.717,0.389,1.471c0.713,0.772,2.448,1.546,6.686,2.052
			l7.214,1c1.31,0.181,2.277,0.262,5.127,0.76c5.745,0.983,11.629,4.448,11.606,4.45C406.275,129.38,409.138,130.76,411.952,132.217
			z"/>
		<path style="fill:#231815;" d="M71.534,169.449c0.453-0.339,2.45-0.804,4.665-1.532c2.223-0.744,4.649-1.723,6.183-3.496
			c3.079-3.454,2.346-3.7,3.126-4.7c0.781-0.969,1.177-4.569,0.129-5.139c-0.534-0.284-2.752-0.574-5.174-0.604
			c-2.419-0.05-5.021,0.157-6.191,0.3c-2.352,0.246-6.054,1.888-6.272,3.134c-0.236,1.231,0.277,3.754-0.936,4.637
			c-0.497,0.385-3.739,2.642-7.876,6.553c-4.115,3.898-9.141,9.566-12.632,16.57c-1.744,3.486-3.071,7.291-3.724,11.104
			c-0.671,3.807-0.642,7.591-0.128,10.888c1.045,6.652,3.706,11.12,4.593,12.712c1.807,3.269,5.775,8.641,10.43,12.765
			c4.594,4.2,9.555,7.357,11.889,8.309c4.683,1.876,6.258,2.358,9.274,3.65c1.506,0.637,4.855,2.348,8.308,3.952
			c3.448,1.62,6.99,3.152,8.689,3.827c1.688,0.687,7.431,2.987,13.177,4.972c5.738,2.009,11.452,3.75,12.815,4.143
			c1.359,0.395,7.082,2.1,13.215,3.634c6.127,1.549,12.655,2.932,15.482,3.236c5.655,0.625,11.758,0.907,12.041-0.552
			c0.286-1.463,0.111-2.678-6.093-4.254c-3.187-0.818-6.704-1.124-9.497-1.457c-2.795-0.326-9.481-1.56-16.979-2.96
			c-3.747-0.685-13.037-3.184-21.943-6.31c-8.935-3.067-17.376-6.892-20.169-8.391c-5.604-2.977-7.156-2.535-10.113-3.797
			c-1.464-0.639-5.289-2.811-8.905-5.361c-3.645-2.517-6.994-5.463-8.289-6.675c-1.312-1.191-4.364-4.316-6.769-7.914
			c-2.477-3.563-4.081-7.577-4.645-9.375c-0.304-0.893-0.928-3.13-1.096-6.064c-0.194-2.928,0.18-6.523,1.241-9.933
			c2.042-6.906,6.743-12.65,7.749-14.217c0.995-1.62,4.153-4.712,7.435-7.096C67.796,171.581,71.06,169.8,71.534,169.449z"/>
		<path style="fill:#231815;" d="M184.414,209.262c0.302,0.867,2.275,3.474,6.1,5.961c3.765,2.523,9.091,4.957,14.65,6.902
			c11.137,3.95,23.11,6.023,26.112,6.566c9.235,1.691,17.954,0.913,20.012,1.094c2.077,0.188,2.996,0.572,2.875,2.169
			c-0.123,1.592-0.559,2.213-2.868,2.009c-1.154-0.099-4.989-0.584-9.04-1.215c-4.054-0.619-8.322-1.399-10.429-1.681
			c-11.005-1.441-23.357-4.135-33.102-7.866c-4.874-1.846-9.087-3.968-12.175-6.084c-3.103-2.086-5.009-4.25-5.694-5.123
			c-1.413-1.733-1.584-3.081-1.354-3.734c0.244-0.685,0.87-0.834,1.485-1.008c0.629-0.169,1.339,0.081,1.969,0.435
			C183.581,208.051,184.115,208.551,184.414,209.262z"/>
		<path style="fill:#231815;" d="M375.966,194.47c-0.483,0.786-1.509,2.4-3.235,4.264c-1.717,1.88-4.109,4.031-7.032,6.235
			c-5.837,4.423-13.795,9.036-22.168,12.952c-8.368,3.94-17.148,7.168-24.458,9.355c-7.309,2.201-13.126,3.39-15.483,3.837
			c-7.188,1.375-14.159,2.469-19.83,2.966c-5.664,0.516-10.005,0.464-11.689,0.258c-3.375-0.411-4.837-1.084-4.526-2.636
			c0.31-1.592,0.993-2.036,4.438-1.566c1.721,0.25,7.527,0.945,13.765,0.75c6.233-0.121,12.813-1.032,15.977-1.709
			c16.584-3.402,34.563-10.421,48.007-18.069c6.729-3.797,12.339-7.739,16.126-11.162c3.851-3.412,5.609-6.263,5.983-7.249
			c0.831-2.053,0.789-2.501,1.215-2.974c0.349-0.445,0.919-0.715,1.533-0.913c0.571-0.234,1.496,0.195,1.951,1.427
			C377.011,191.445,376.796,193.205,375.966,194.47z"/>
		<path style="fill:#231815;" d="M184.292,233.254c-0.421-0.548-0.584-0.86-0.638-1.58c-0.365-2.33-0.633-9.262,0.247-10.469
			c1.063-1.707,0.711-3.809-4.014-3.889c-3.898-0.024-3.971,2.956-2.692,4.085c0.734,0.822,2.416,8.248,3.411,10.564
			c0.21,0.568,0.475,1.394,0.848,1.926c0.342,0.586,0.703,1.02,0.954,1.415c0.176,0.282,1.049,1.193,2.313,2.191
			c1.211,1.044,2.89,2.225,3.406,4.129c0.851,2.063,1.062,4.472,2.307,7.069c0.17,0.318,0.359,0.627,0.575,0.925
			c0.179,0.258,0.367,0.427,0.448,0.623c0.268,0.49,0.632,1.072,0.969,1.548c0.688,0.993,1.41,1.846,2.075,2.592
			c2.667,2.87,4.171,4.295,4.914,5.314c0.757,0.988,0.916,1.415,1.088,1.812c0.304,0.746,1.922,0.518,3.352,0.071
			c0.699-0.252,1.302-0.651,1.514-1.25c0.211-0.582,0.001-1.364-0.83-1.985c-0.798-0.587-1.393-0.935-2.463-1.798
			c-1.043-0.867-2.692-2.112-5.107-4.486c-0.631-0.641-1.288-1.365-1.889-2.171c-0.313-0.421-0.565-0.788-0.87-1.306
			c-0.186-0.377-0.453-0.621-0.637-0.86c-0.121-0.163-0.242-0.337-0.35-0.534c-0.873-1.564-1.322-4.335-2.279-6.638
			c-0.113-0.294-0.23-0.584-0.356-0.863c-0.13-0.359-0.324-0.724-0.575-1.048c-0.398-0.59-0.829-1.056-1.252-1.497
			c-0.856-0.844-1.669-1.461-2.324-1.979C185.096,234.15,184.47,233.495,184.292,233.254z"/>
		<path style="fill:#231815;" d="M389.712,206.004c-0.079-0.625-0.137-1.268-0.174-1.904c-0.049-0.895-0.173-2.628-0.415-4.357
			c-0.209-1.721-0.685-3.476-0.62-4.208c0.143-0.971-0.381-2.066-1.393-2.348c-1.031-0.304-2.3,0.361-3.7,2.259
			c-2.245,3.172-2.125,3.359-0.781,3.329c0.42-0.066,1.331,0.685,2.106,1.963c0.785,1.243,1.412,2.844,1.759,3.623
			c0.368,0.824,0.573,1.642,0.505,2.223c-0.028,0.395,0.135,3.13,0.577,6.352c0.188,1.578,0.262,3.309,0.442,5.068
			c0.176,1.757,0.508,3.426,0.808,4.772l0.216,0.937l0.123,0.587l-0.117,1.195l-0.136,2.041c-0.041,1.056-0.061,1.529-0.038,2.037
			c0.037,0.526,0.537,0.867,1.183,0.877c0.634,0.032,1.422-0.26,2.052-0.607c0.643-0.353,1.2-0.778,1.546-1.058
			c0.345-0.314,0.51-0.407,0.17-0.552c-0.335-0.202-0.62-0.488-0.837-1.231c-0.105-0.383-0.192-0.893-0.239-1.624
			c-0.041-0.306,0.002-0.917-0.065-1.636l-0.579-1.824c-0.367-1.238-0.729-2.715-0.947-4.299c-0.218-1.576-0.349-3.398-0.595-5.077
			C390.032,209.298,389.814,206.63,389.712,206.004z"/>
		<path style="fill:#231815;" d="M76.973,240.345c3.321,2.71,6.308,3.2,6.872,2.626c0.306-0.3,0.055-0.889-0.848-1.779
			c-0.89-0.907-2.458-2.092-4.51-3.94c-4.112-3.809-6.292-7.557-7.992-12.1c-1.571-4.575-2.94-9.909-2.43-17.43
			c0.267-3.74,1.253-7.337,3.06-10.391c1.804-3.039,4.119-5.707,6.651-7.811c5.097-4.371,10.194-7.86,14.89-9.927
			c2.285-1.01,3.941-1.717,4.87-2.309c0.923-0.576,1.106-1.102,0.27-1.396c-0.823-0.282-2.736-0.306-5.571,0.693
			c-2.82,0.992-6.482,3.057-10.477,6.61c-2.135,1.906-3.737,3.448-5.183,4.82c-1.463,1.336-2.746,2.739-3.955,4.22
			c-1.226,1.514-2.517,3.228-3.702,5.653c-1.187,2.412-2.172,5.605-2.427,9.711c-0.172,3.299-0.186,6.36,0.123,9.5
			c0.332,3.027,0.778,5.983,1.523,8.833c0.742,2.842,1.81,5.588,3.31,8.051C72.938,236.444,74.852,238.592,76.973,240.345z"/>
		<path style="fill:#231815;" d="M131.449,166.243c-1.083,0.967-0.926,2.327-0.243,2.732c0.723,0.441,1.638,0.32,2.773-0.512
			c1.208-0.867,2.11-1.739,3.21-2.694c1.1-0.941,2.422-1.927,4.55-2.62c4.273-1.374,8.519-1.54,11.618-1.816
			c3.043-0.187,2.302-4.696-3.745-2.165c-3.152,1.459-3.757,0.887-8.36,2.479C137.645,163.028,134.218,163.847,131.449,166.243z"/>
		<path style="fill:#231815;" d="M379.37,139.777c-5.742-1.27-9.788-1.739-10.414-1.066c-0.612,0.605,2.267,2.604,10.904,4.589
			c4.377,0.975,8.157,1.729,11.761,2.604c3.57,0.812,6.964,1.898,10.541,2.888c3.553,1.034,7.233,2.154,11.269,3.7
			c4.024,1.554,8.428,3.523,13.186,6.499c1.191,0.74,2.35,1.519,3.482,2.325l1.65,1.211l1.538,1.38
			c2.044,1.856,4.031,3.722,5.882,5.657c3.711,3.851,6.877,8.023,8.921,12.497c2.059,4.464,2.955,9.153,2.968,13.564
			c0.04,4.426-0.742,8.535-2.084,12.087c-1.308,3.468-2.578,5.895-3.127,7.404c-0.571,1.491-0.41,2.078,0.607,1.425
			c0.978-0.665,2.917-2.59,4.807-6.622c1.844-3.982,3.435-10.351,2.036-18.367c-0.797-4.27-2.057-7.458-3.397-10.165
			c-1.36-2.702-2.811-4.954-4.544-7.257c-1.745-2.295-3.792-4.637-6.556-7.34c-1.379-1.352-2.94-2.799-4.721-4.377
			c-0.475-0.421-0.833-0.754-1.448-1.262l-1.6-1.15c-1.103-0.774-2.289-1.558-3.574-2.346c-8.209-5.052-16.635-8.373-24.625-11.255
			l-5.933-2.09c-1.972-0.724-3.995-1.266-5.942-1.816C387.02,141.403,383.108,140.603,379.37,139.777z"/>
		<path style="fill:#231815;" d="M209.663,66.442l-2.903,4.661c-1.349,2.162-3.818,6.445-5.754,10.705
			c-1.98,4.236-3.39,8.414-4.118,9.613c-2.067,3.261-2.367,8.893,2.412,8.994c3.844,0.101,4.598-4.617,4.033-7.108
			c-0.212-0.814,0.298-4.819,1.565-9.119c1.216-4.309,3.206-8.847,4.221-11.064c1.05-2.346,2.25-4.47,3.249-5.796
			c0.364-0.486,1.611-2.352,3.449-5.082c1.796-2.759,4.341-6.292,6.366-10.787c1.807-4.607,3.048-9.508,4.699-14.133
			c1.589-4.609,3.451-8.887,5.576-11.914c2.061-3.001,4.307-4.657,6.221-5.318c1.924-0.681,3.475-0.566,4.627-0.379
			c2.32,0.455,3.158,1.038,3.978,1.445c1.608,0.891,3.631,0.306,4.612-0.846c0.942-1.094,0.716-3.089-2.989-4.032
			c-1.798-0.351-3.113-0.671-6.176-0.728c-1.515,0.032-3.581,0.196-6.002,1.35c-2.415,1.132-4.95,3.343-7.079,6.61
			c-2.311,3.482-4.169,7.999-5.747,12.74c-1.602,4.684-2.897,9.843-4.477,13.986c-1.788,4.105-4.305,7.718-6.125,10.568
			L209.663,66.442z"/>
		<path style="fill:#231815;" d="M189.08,53.167l0.356,6.912c0.165,3.2,0.628,9.361,1.418,15.142
			c0.729,5.782,1.965,11.191,2.134,12.952c0.168,2.372,1.125,5.292,2.829,7.164c1.7,1.919,3.927,2.441,5.526,0.685
			c1.333-1.433,1.244-3.049,0.739-4.788c-0.534-1.717-1.582-3.636-2.604-4.809c-0.699-0.723-2.639-5.445-4.025-11.019
			c-1.443-5.542-2.439-11.779-2.915-14.834c-0.516-3.223-0.784-6.3-0.735-8.4l-0.039-7.753c0.056-4.125,0.144-9.599,0.984-15.407
			c0.112-0.719,0.242-1.441,0.395-2.156c0.119-0.721,0.407-1.34,0.555-2.285l0.819-4.619c0.575-3.067,1.27-6.13,2.335-8.927
			c1.052-2.773,2.556-5.346,4.603-6.668c1.012-0.657,2.133-0.987,3.258-1.024c1.017-0.048,2.065,0.3,3.026,0.788
			c1.899,0.996,3.438,2.424,4.715,3.746c1.282,1.338,2.317,2.636,3.199,3.811c1.753,2.36,2.892,4.24,3.73,5.689
			c1.653,2.916,2.121,4.129,2.621,5.284c0.983,2.321,3.109,3.408,4.6,3.172c1.478-0.206,2.281-2.322-0.252-5.923l-4.109-5.683
			c-0.992-1.366-2.241-3.114-4.116-5.377c-0.944-1.128-2.046-2.384-3.434-3.732c-1.407-1.326-3.049-2.811-5.444-4.022
			c-1.277-0.615-2.85-1.161-4.666-1.076c-1.652,0.074-3.411,0.609-4.887,1.6c-2.987,2.017-4.617,5.177-5.779,8.23
			c-1.153,3.1-1.845,6.32-2.417,9.478l-0.79,4.657c-0.086,0.504-0.062,0.427-0.223,0.965c-0.108,0.409-0.207,0.818-0.292,1.219
			c-0.169,0.8-0.306,1.588-0.42,2.362c-0.849,6.173-0.888,11.763-0.903,16.124C188.883,48.994,189.035,52.087,189.08,53.167z"/>
		<path style="fill:#231815;" d="M167.229,85.004c1.26,3.315,1.604,7.458,1.24,11.414c-0.339,3.982-1.155,7.851-1.934,11.243
			c-0.802,3.386-1.454,5.683-1.913,7.108c-0.454,1.413-0.804,1.898-0.837,1.362c-0.02-0.993-1.82-3.295-0.91-8.734
			c0.968-5.34,1.441-9.536,1.204-11.918c-0.098-1.185,0.015-1.497,0.188-2.398c0.1-0.863,0.535-2.455-0.431-5.606
			c-1.087-3.053-2.282-4.724-2.576-5.84c-0.348-1.066,0.151-1.453,1.107-0.832c0.936,0.613,2.231,1.511,3.204,2.44
			C166.557,84.146,167.229,85.008,167.229,85.004z"/>
		<path style="fill:#231815;" d="M188.264,106.749l-0.144-1.429c-0.041-0.425-0.065-0.844-0.072-1.28
			c-0.058-1.221,0.096-3.64-0.268-6.334c-0.187-1.342-0.619-2.805-1.351-4.024c-0.731-1.225-1.664-2.037-2.036-2.491
			c-1.037-1.278-2.992-1.882-4.179-1.348c-1.241,0.502-1.794,1.886-1.483,4.218c0.253,1.927,0.87,2.864,1.279,3.251
			c0.437,0.391,0.662,0.181,1.101-0.268c0.155-0.147,0.419-0.244,0.832-0.117c0.399,0.131,0.958,0.635,1.388,1.514
			c0.887,1.735,1.308,4.349,1.653,5.564c0.342,1.346,0.645,2.521,0.563,3.356c-0.013,0.314,0.026,1.443,0.192,3.14
			c0.089,0.85,0.215,1.844,0.496,2.96c0.281,1.068,0.785,2.473,1.918,3.521c1.073,1.052,2.817,1.493,4.236,1.465
			c1.444-0.012,2.793-0.292,4.064-0.633c1.405-0.375,2.778-1.201,3.688-2.229c0.937-1.016,1.523-2.086,2.005-3.001
			c1.718-3.652,2.748-5.181,3.645-5.987c0.846-0.802,1.288-0.939,1.672-1.128c0.744-0.324,0.556-1.989,0.006-3.382
			c-0.524-1.358-1.888-2.338-3.286-0.566c-0.605,0.865-1.012,1.514-1.858,2.834c-0.853,1.269-1.884,3.525-3.225,6.737
			c-0.776,1.711-1.727,3.178-3.504,3.674c-1.097,0.329-2.222,0.564-3.222,0.597c-1.013,0.014-1.632-0.159-2.216-0.653
			c-0.99-0.82-1.374-3.095-1.56-4.659L188.264,106.749z"/>
		<path style="fill:#231815;" d="M160.815,60.821c0.339-0.55,0.795-0.965,1.236-1.163c0.54-0.327,2.371-0.449,4.329,0.087
			c1.923,0.484,3.831,1.278,4.365,1.818c0.705,0.748,1.789,1.163,2.829,0.758c1.052-0.397,1.87-1.666,1.823-4.034
			c-0.025-1.939-0.39-2.94-0.984-3.39c-0.59-0.441-1.487-0.339-2.166,0.127c-0.435,0.324-2.488,0.272-4.915,0.314
			c-1.206,0.026-2.512,0.117-3.691,0.369c-1.183,0.244-2.222,0.709-2.83,1.153c-1.305,0.951-1.967,2.128-2.528,2.837
			c-0.217,0.254-0.836,1.346-1.234,3.025c-0.398,1.676-0.542,3.91-0.296,6.298c0.432,4.806,2.602,10.066,4.708,13.4
			c2.064,3.297,3.63,4.925,4.526,5.987c0.933,1.036,1.286,1.461,1.633,1.876c1.563,1.703,6.013-3.337,3.116-4.075
			c-0.715-0.214-1.251-0.379-2.205-1.048c-0.934-0.681-2.329-1.874-4.227-4.581c-2.021-2.876-4.092-7.624-4.554-11.896
			c-0.26-2.118-0.156-4.055,0.146-5.439C160.203,61.857,160.671,61.083,160.815,60.821z"/>
		<path style="fill:#231815;" d="M166.153,74.811c-0.388-0.34-1.413-1.219-2.075-2.598c-0.347-0.709-0.645-1.439-0.82-2.45
			c-0.176-1.08-0.125-2.316,0.577-3.214c0.703-0.933,1.964-1.143,3.048-0.941c1.191,0.214,1.92,0.562,2.648,0.961
			c1.427,0.822,2.211,1.985,2.444,2.491c0.383,0.733,0.679,1.665,0.646,2.622c-0.033,0.947-0.404,1.848-0.958,2.535
			c-1.177,1.38-2.24,1.781-2.646,1.896c-0.837,0.143-1.192-0.151-1.26-1.485c-0.068-1.358,0.012-1.886,0.547-1.961
			c0.248-0.036,1.249-0.109,1.791-0.613c0.643-0.536,0.575-1.546,0.278-1.947c-0.641-1.082-2.074-1.83-3.268-2.013
			c-0.396-0.036-0.743,0.002-0.966,0.226c-0.221,0.23-0.197,0.576-0.127,0.798l0.132,0.294c0.077,0.18,0.173,0.429,0.281,0.621
			c0.213,0.405,0.46,0.741,0.681,0.973c0.465,0.482,0.712,0.471,0.724,0.407c-0.217,0.447-0.207,0.709-0.208,0.683l0.062,1.183
			c0.039,0.536-0.056,1.086-0.399,1.433C166.966,75.043,166.434,75.113,166.153,74.811z"/>
		<path style="fill:#231815;" d="M177.079,146.193c-1.715-3.218-2.745-12.652,0.244-10.248c2.989,2.4,9.271,3.758,7.618,7.344
			C183.288,146.88,178.794,149.413,177.079,146.193z"/>
		<path style="fill:#231815;" d="M176.443,165.346c-2.315-2.473-5.291-11.009-0.809-7.408
			C180.116,161.539,176.443,165.346,176.443,165.346z"/>
		<path style="fill:#231815;" d="M187.036,181.23c-2.039-4.44-5.304-4.871-2.303-8.607c3-3.738,5.168-2.61,5.609,1.433
			C190.784,178.096,187.931,183.177,187.036,181.23z"/>
		<path style="fill:#231815;" d="M185.138,195.069c-1.935-5.242-3.122-9.885,0.613-6.884
			C189.486,191.187,185.138,195.069,185.138,195.069z"/>
		<path style="fill:#231815;" d="M148.921,114.751c5.243,1.532,0.515,13.808,5.5,8.434c4.985-5.367,8.202-8.281,3.627-9.707
			C153.474,112.053,148.921,114.751,148.921,114.751z"/>
		<path style="fill:#231815;" d="M131.706,121.911c2.735,3.37,5.009,2.479,6.39-0.691c1.382-3.166,8.117-8.635,2.821-9.784
			c-5.297-1.153-14.854-1.846-13.155-0.089C129.46,113.105,131.706,121.911,131.706,121.911z"/>
		<path style="fill:#231815;" d="M295.113,94.447c5.634-1.957,7.131-3.109,7.938,1.034c0.805,4.141,4.211,4.855-0.102,6.981
			c-4.313,2.128-5.683-1.814-5.683-1.814s-10.513-3.255-4.078-5.51L295.113,94.447z"/>
		<path style="fill:#231815;" d="M310.149,92.049c2.836,4.033,5.059,10.437,7.788,5.901c2.729-4.536,1.173-9.014,1.173-9.014
			L310.149,92.049z"/>
	</g>
</g>
</svg>
