<?xml version="1.0" encoding="iso-8859-1"?>
<!-- Generator: Adobe Illustrator 21.1.0, SVG Export Plug-In . SVG Version: 6.00 Build 0)  -->
<svg version="1.1" id="_x31_1" xmlns="http://www.w3.org/2000/svg" xmlns:xlink="http://www.w3.org/1999/xlink" x="0px" y="0px"
	 viewBox="0 0 512 512" style="enable-background:new 0 0 512 512;" xml:space="preserve">
<g>
	<path style="fill:#2CA6E0;" d="M182.519,60.513c0,0-13.724-5.278-27.448-5.278c-13.724,0-58.063,6.334-67.565,10.557
		c-9.501,4.223-12.668,15.835-14.78,26.392c-2.111,10.557-1.056,38.005-1.056,38.005S41.055,242.093,40,251.594
		c-1.056,9.501-2.111,21.114-4.223,31.671c-2.111,10.557,1.056,35.894,20.058,43.284c19.003,7.39,48.562,7.39,70.732,1.056
		c22.17-6.334,39.061-24.281,39.061-24.281L182.519,60.513z"/>
	<path style="fill:#94C85C;" d="M465.445,491.237c-15.835-3.167-33.782-4.223-33.782-4.223s21.114-8.446,32.727-8.446
		c11.612,0,10.557-6.334-2.112-6.334c-11.069,0-26.164,0.001-32.617,2.818c3.881-2.955,10.728-7.902,15.726-9.152
		c8.445-2.111,5.278-9.501-15.835-1.056c-21.114,8.446-41.172,12.668-54.896,4.223c-13.724-8.445-34.838-32.726-42.228-47.506
		c-7.39-14.779-21.114-111.904-38.005-127.739c-2.871-21.531,24.019-52.816,44.187-73.63c15.475,3.445,22.958,3.954,34.991,3.954
		c15.044,0,25.243-0.571,24.545-15.835c-0.698-15.264-14.252-15.835-28.504-23.753c-2.77-1.539-5.931-3.469-9.224-5.577
		c-2.014-7.04-9.893-31.447-21.655-28.733c-13.724,3.167-36.949-22.17-40.116-38.005c-3.167-15.836-5.278-40.117-4.223-44.339
		c1.056-4.223,25.337-6.334,40.117-10.557c14.78-4.223,25.337-8.445,2.111-20.058c-23.225-11.613-35.894-14.78-38.005-20.058
		c-2.111-5.279-4.223-14.78-10.557-15.835c-6.334-1.056-10.557,9.501-13.724,12.668c-3.167,3.167-18.501,4.089-27.448,4.222
		c-8.948,0.135-20.496-16.744-25.774-15.688c-9.544,1.909-5.897,1.964-10.119,11.466c-4.223,9.501-9.501,21.113-12.668,22.17
		c-3.167,1.056-22.65,11.878-27.448,16.891c-3.827,3.998-14.304,26.455-19.997,38.065c-6.574,6.14-18.008,26.861-18.008,26.861
		s-13.46,5.542-21.378,16.627c-7.918,11.085-30.087,42.756-38.797,64.925c-8.709,22.17-6.334,24.545-3.167,31.671
		c3.167,7.126,15.091,18.58,36.422,6.334c14.252-8.182,18.475-13.988,18.475-18.739c0-1.955-2.068,3.156,0,0
		c1.85,2.971,2.174,10.09,2.111,12.668c-1.056,43.284,7.39,64.398,7.39,64.398s1.056,71.787-5.278,83.4
		c-6.334,11.613-19.003,14.78-35.894,23.225c-16.891,8.446-43.284,32.727-51.729,52.785c-8.445,20.058,3.167,34.838,13.724,40.117
		c7.928,3.964,6.925-2.789,5.934-6.398c1.407,3.477,5.611,10.396,17.291,12.733c15.835,3.167-2.112-15.836-2.112-15.836
		s19.003,8.445,21.114,6.334c2.111-2.112-34.838-16.892-26.393-32.727c8.445-15.836,17.947-11.612,41.172-19.003
		c23.225-7.39,48.562-7.39,66.509-22.17c17.947-14.779,34.442-49.868,38.005-57.008s6.334-10.557,13.724-5.278
		c7.39,5.278,28.504,35.894,45.395,54.896c16.891,19.003,32.727,49.618,47.506,66.509c14.78,16.891,29.56,32.726,49.618,31.671
		c20.058-1.055,46.451-15.835,70.732-14.78C467.557,495.461,481.281,494.404,465.445,491.237z"/>
	<path style="fill:#FFFFFF;" d="M211.022,80.571c-12.668,5.279-1.056,17.947-1.056,17.947s24.281,33.782,12.668,61.23
		c-11.613,27.448-39.061,79.177-34.838,112.96c4.223,33.782,50.673,53.841,79.177,47.506c28.504-6.334,50.673-30.615,57.008-50.673
		s6.334-69.676,0-76.01s-5.279-15.835-5.279-15.835c-7.39,3.167-4.223-8.446-4.223-8.446l3.167-11.613c0,0-1.056-14.78-5.279-24.281
		c-4.223-9.501-13.724-21.114-13.724-21.114l16.891-48.562L211.022,80.571z"/>
	<path style="fill:#2CA6E0;" d="M302.868,113.298c13.724,4.223,31.671,19.003,35.894,36.95c-8.446-1.056-21.114,7.39-21.114,7.39
		S311.314,122.799,302.868,113.298z"/>
	<path style="fill:#2CA6E0;" d="M323.982,193.531c0,0,10.557,28.504,9.501,39.061c-1.056,10.557,12.668-33.782,9.501-38.005
		C339.818,190.364,323.982,193.531,323.982,193.531z"/>
	<path style="fill:#2CA6E0;" d="M127.622,116.465c-7.39-3.167,3.167-14.78,8.446-14.78c5.278,0,39.061,1.056,35.894,41.172
		c-0.697,2.078-14.78,9.501-14.78,9.501S151.903,104.852,127.622,116.465z"/>
	<path style="fill:#2CA6E0;" d="M155.07,199.865c0,0-5.278,30.615-11.613,40.117c-6.334,9.501-19.002,6.334-19.002,6.334
		l6.334,6.334c0,0,23.225-6.334,32.727-24.281c9.501-17.947,10.557-35.894,10.557-35.894l-20.058,3.167L155.07,199.865z"/>
	<g>
		<path style="fill:#231815;" d="M325.022,27.682c-1.811-0.659-13.517-4.093-14.716,0.049c0.005-0.018,33.161,13.464,35.552,18.778
			c4.85,10.778-19.076,11.889-27.349,13.939c-19.881,4.927-40.059,8.538-60.205,12.185c-7.272,1.316-53.707,5.274-56.644,12.363
			c-1.342,3.238,48.7-7.444,50.275-7.789c18.195-3.983,36.626-6.737,54.805-10.853c9.37-2.122,41.041-3.568,44.821-13.206
			C356.398,40.821,333.476,30.754,325.022,27.682z"/>
		<path style="fill:#231815;" d="M310.133,70.911c1.233-1.922,6.879-8.649,10.477-6.656c-5.611-3.214-16.38,41.585-18.022,42.355
			c-0.717,0.337-0.784-15.822-0.695-16.387C302.995,83.223,305.847,76.554,310.133,70.911z"/>
		<path style="fill:#231815;" d="M169.978,51.788c2.022-2.313,9.93-11.068,14.407-9.934c-0.519-0.135-22.614,29.091-25.815,33.551
			c-4.071,5.673-10.31,19.234-16.62,21.164c1.161-0.47,6.817-17.83,8.943-21.395C156.052,66.52,162.54,58.602,169.978,51.788z"/>
		<path style="fill:#231815;" d="M357.121,165.181c0.476,1.47,5.4,17.243,4.394,18.328c-3.537,3.814-13.514-26.329-17.177-28.621
			c-12.429-7.777-24.144,3.311-31.934,9.964c-0.923,0.887,0.635-7.529,0.572-7.443c4.154-5.684,10.15-9.122,17.037-10.507
			C344.034,144.082,354.148,151.51,357.121,165.181z"/>
		<path style="fill:#231815;" d="M319.984,162.982c8.249-4.485-1.121,11.128-8.807,10.253
			C306.862,172.744,317.631,163.327,319.984,162.982z"/>
		<path style="fill:#231815;" d="M323.839,173.993c11.139-3.293-5.425,9.514-9.376,10.642
			C315.011,184.479,314.552,173.638,323.839,173.993z"/>
		<path style="fill:#231815;" d="M321.094,193.489c-10.194,1.397,7.174-14.599,14.537-4.448
			C338.022,192.337,323.041,193.958,321.094,193.489z"/>
		<path style="fill:#231815;" d="M347.762,194.158c6.05,0.612,4.331,5.126-0.38,5.525c-3.857,0.327-14.993-4.933-14.476-9.65
			C333.326,186.199,346.696,193.397,347.762,194.158z"/>
		<path style="fill:#231815;" d="M388.356,198.773c-1.086-0.888-23.683-14.788-23.635-14.849
			c7.164-9.121,52.634,21.661,34.121,39.65c-8.386,8.148-52.154,7.193-57.977-5.063
			C344.119,226.003,422.781,229.512,388.356,198.773z"/>
		<path style="fill:#231815;" d="M317.007,125.285c-1.848-1.247-10.018-7.63-4.221-9.749c2.124-0.776,11.318,8.014,12.937,9.665
			c5.598,5.707,11.978,15.366,7.969,24.086C335.158,146.137,319.39,127.556,317.007,125.285z"/>
		<path style="fill:#231815;" d="M304.759,124.034c-7.202-8.774-4.238-11.298,3.044-4.92c4.433,3.882,16.282,28.078,8.562,31.847
			C315.415,151.424,305.758,126.075,304.759,124.034z"/>
		<path style="fill:#231815;" d="M327.765,231.61c0.07-1.636-2.493-34.224-4.109-34.295c17.689,0.461,7.237,62.071,3.883,71.275
			c-4.431,12.163-11.959,23.954-21.116,33.129c-5.293,5.303-18.257,18.209-25.606,19.958c2.734-1.037,11.264-12.612,14.147-15.614
			c6.717-6.993,12.517-14.475,17.599-22.769C322.493,267.086,325.695,250.275,327.765,231.61z"/>
		<path style="fill:#231815;" d="M340.062,211.283c-0.815-9.826,5.265-10.487,5.419,1.624c0.09,7.032-4.42,19.718-12.694,20.945
			C333.25,233.784,339.519,213.96,340.062,211.283z"/>
		<path style="fill:#231815;" d="M145.873,170.462c-4.161,4.714-10.742,11.18-17.462,11.928c-0.216,0.024-11.133,1.007-8.859-2.036
			c2.214-2.964,10.404-3.853,13.577-5.81c4.524-2.792,7.963-6.948,11.447-10.862c7.354-8.263,10.979-16.491,22.299-20.149
			c8.787-2.839,24.904-2.333,31.875,5.353c6.993,7.71-0.18,22.326-7.305,14.7c1.345,1.717,11.265-3.574,3.621-10.955
			c-5.699-5.503-21.139-4.615-27.479-2.201C157.932,154.107,152.923,163.327,145.873,170.462z"/>
		<path style="fill:#231815;" d="M190.956,167.822c-0.75-0.336-6.818-2.95-4.481-5.394c3.442-3.787,12.879,5.711,15.068,8.64
			c-2.1,1.656-12.386,8.858-15.641,4.518c-0.899-1.199,7.422-4.687,7.225-5.493C192.491,169.255,191.767,168.498,190.956,167.822z"
			/>
		<path style="fill:#231815;" d="M187.603,179.841c-5.704-2.805,12.018-4.969,2.898,4.648
			C184.733,190.572,174.988,183.267,187.603,179.841z"/>
		<path style="fill:#231815;" d="M173.05,189.98c12.076-5.976,9.056,1.931,0.233,5.697c-4.289,1.831-25.234,3.022-27.522-3.687
			C145.235,190.449,169.844,190.441,173.05,189.98z"/>
		<path style="fill:#231815;" d="M131.298,210.073c0.847-0.871,28.912-18.764,27.106-13.942
			c-2.123,5.667-19.302,13.932-23.745,18.275c-9.14,8.936-17.382,19.575-28.814,25.804c-8.429,4.593-17.779,6.839-27.125,3.553
			c-4.774-1.678-23.931-17.483-11.816-21.839c-0.915,0.214-0.641,6.308-0.16,6.823c6.152,6.594,9.292,10.202,19.793,10.178
			C104.787,238.883,118.838,221.45,131.298,210.073z"/>
		<path style="fill:#231815;" d="M112.319,129.737c4.436-5.363,10.457-11.704,17.381-13.765c1.5-0.447,14.568-1.466,12.498,0.845
			c-4.9,5.47-16.604,7.166-22.731,13.159c-7.53,7.366-13.908,16.715-19.78,25.438c-7.748,11.51-14.411,23.805-21.081,35.961
			c-2.942,5.362-9.11,23.982-15.218,25.957c2.769-0.774,16.418-41.742,19.579-47.488
			C91.065,155.119,101.058,142.166,112.319,129.737z"/>
		<path style="fill:#231815;" d="M169.009,139.461c-0.48,2.453,0.272,4.278,2.255,5.474c12.626,1.676-4.51-30.905-8.096-34.334
			c-5.8-5.546-13.291-10.972-21.375-12.44c-2.957-0.537-19.852,3.114-15.037,5.202c8.851,3.82,17.177-2.688,27.581,4.167
			C166.813,115.751,170.231,124.497,169.009,139.461z"/>
		<path style="fill:#231815;" d="M159.637,138.564c0.382,2.76,0.418,11.478-4.61,9.029c-1.677-0.817-2.807-18.649-4.344-21.51
			c-1.321-2.46-8.007-8.245-8.072-10.051c-0.154-4.261,13.352,5.987,14.291,7.397C159.576,127.443,159.972,133.868,159.637,138.564z
			"/>
		<path style="fill:#231815;" d="M167.874,213.105c0.679-2.145,2.267-10.973,4.754-12.452c2.906-1.909-3.598,21.549-5.723,25.075
			c-2.332,3.869-16.99,23.346-23.977,18.586C146.643,246.846,166.226,216.286,167.874,213.105z"/>
		<path style="fill:#231815;" d="M150.814,213.424c0.188-1.726,0.662-9.398,3.317-10.816c6.274-3.328-6.357,51.41-19.095,39.047
			C138.167,244.693,150.836,213.342,150.814,213.424z"/>
		<path style="fill:#231815;" d="M317.042,374.013c-2.075-12.931-4.268-25.941-8.155-38.474c-0.909-2.932-6.015-22.274-7.539-22.992
			c17.733,8.35,19.403,50.607,21.946,66.475c4.354,27.169,7.135,39.333,25.359,59.091c11.565,12.539,21.899,30.762,40.461,33.123
			c19.337,2.46,42.615-15.366,61.804-6.611c-8.276-4.48-31.462,5.212-39.999,7.911c-17.688,5.591-31.24,6.173-46.211-6.563
			c-12.597-10.716-30.421-28.483-38.302-42.993C318.977,409.304,319.022,389.313,317.042,374.013z"/>
		<path style="fill:#231815;" d="M432.412,474.907c-3.282,0.821-9.275,3.123-12.851,3.033c-1.153-0.042,58.379-17.393,52.341-3.159
			C472.968,472.221,434.388,474.585,432.412,474.907z"/>
		<path style="fill:#231815;" d="M436.713,486.922c-1.371,0.213-11.324,2.923-13.849,1.679c1.169,0.519,24.081-5.374,28.814-5.212
			c1.787,0.061,26.841,5.579,27.692,4.889C473.191,493.293,445.087,486.448,436.713,486.922z"/>
		<path style="fill:#231815;" d="M270.866,411.342c-10.089-11.801-20.44-23.036-31.253-34.156
			c-2.681-2.758-17.545-22.34-20.423-22.165c10.291-0.81,25.087,19.097,30.938,24.91c10.569,10.501,20.596,22.085,29.691,33.89
			c11.683,15.163,19.073,32.66,31.048,47.79c15.206,19.211,38.968,44.818,65.576,45.546c25.094,0.686,55.311-18.708,80.401-9.492
			c-13.999-5.531-46.922,7.571-60.855,11.335c-20.504,5.54-33.957,3.584-52.253-7.327
			C306.838,479.667,296.19,442.52,270.866,411.342z"/>
		<path style="fill:#231815;" d="M213.515,354.379c2.865-8.196,6.556-16.303,13.24-22.095c0.652-0.565,13.555-8.545,13.233-6.067
			c-0.54,4.157-7.243,7.06-9.841,9.934c-5.159,5.707-8.061,11.577-10.993,18.535c-5.698,13.521-9.463,27.797-16.013,40.992
			c-5.922,11.931-12.858,22.017-24.332,29.203c-6.535,4.093-29.607,14.73-37.559,7.628c3.235,3.016,21.13-4.631,24.235-6.159
			c9.693-4.771,17.96-11.961,24.238-20.712C200.439,390.702,206.787,371.369,213.515,354.379z"/>
		<path style="fill:#231815;" d="M129.383,313.874c0.135-2.826,1.488-26.966,5.304-23.724c3.711,3.153,0.128,21.145,0.058,25.405
			c-0.172,10.595,5.303,69.803-8.577,71.575C130.1,386.657,128.464,322.481,129.383,313.874z"/>
		<path style="fill:#231815;" d="M101.26,441.664c6.593-2.256,21.812-8.588,28.814-5.45c0.579,0.256-27.288,10.606-31.225,12.019
			c-6.071,2.179-21.596,4.921-24.509,11.239c-7.951,17.243,24.525,26.8,32.589,31.558c-5.843-2.734-16.312-0.22-23.936-5.201
			c-7.185-4.694-16.963-14.776-15.976-24.134C68.52,447.438,90.091,444.744,101.26,441.664z"/>
		<path style="fill:#231815;" d="M68.87,483.376c-2.507-1.608-3.975-3.79-4.404-6.548c-0.101,0.341,21.43,16.173,23.56,20.24
			C86.267,493.711,72.796,487.697,68.87,483.376z"/>
		<path style="fill:#231815;" d="M56.621,480.751c-0.734-1.785-2.993-8.499-0.84-10.548c-0.596,0.511,8.715,18.221,9.59,19.395
			c1.953,2.62,13.083,10.1,13.531,13.076c0.067,0.446-12.095-6.129-12.645-6.613C61.688,492.034,58.551,486.483,56.621,480.751z"/>
		<path style="fill:#231815;" d="M81.196,405.636c6.512-4.996,13.821-9.855,21.912-11.729c0.679-0.157,15.981-1.074,14.035,1.097
			c-3.039,3.389-11.835,3.48-15.994,5.181c-6.753,2.761-12.43,6.671-18.271,10.992c-11.482,8.494-25.107,17.832-33.626,29.528
			c-5.424,7.447-9.639,16.704-9.762,26.08c-0.17,12.934,8.868,20.853,11.428,32.059c0.068,0.279-9.98-10.894-9.344-9.906
			c-3.009-4.671-5.856-11.209-6.943-16.691c-1.382-6.961-0.85-13.561,1.288-20.362C42.694,430.326,63.756,417.891,81.196,405.636z"
			/>
		<path style="fill:#231815;" d="M83.553,329.745c4.52-0.419,41.034-2.809,41.29-3.47c-3.568,9.138-38.45,9.16-47.086,9.249
			c-17.504,0.18-32.51-4.728-40.67-21.336c-5.565-11.325-5.62-23.973-1.812-35.825c2.253-7.013,12.221-32.425,19.049-34.601
			c-2.288,0.515-8.746,21.636-10.21,25.601c-3.633,9.836-6.16,20.022-4.424,30.539C43.481,322.88,62.194,330.808,83.553,329.745z"/>
		<path style="fill:#231815;" d="M75.129,85.967c-0.547,4.432-0.863,34.985-3.572,35.076c-6.098,0-2.601-23.783-2.341-27.115
			c1.187-15.216,3.573-27.999,19.421-33.4c11.535-3.931,67.228-13.057,76.8-1.614c-4.85-5.963-49.729,5.03-56.378,5.765
			C92.021,66.562,78.175,65.921,75.129,85.967z"/>
		<path style="fill:#231815;" d="M115.918,79.869c8.418,1.512,13.845,5.647,13.197,14.281c-0.193,2.571-6.393-0.106-1.808-2.313
			c-0.553,0.604-1.106,1.207-1.659,1.811c-2.092-5.59-26.187-16.065-29.179-9.461c-3.336,5.684-7.738,10.274-9.811,16.559
			c-0.145,0.44-3.067,21.205-4.96,15.868c-0.019-0.041,1.17-0.427,1.25-0.173c-0.048,0.147-0.09,0.295-0.126,0.445
			c0.16-1.111-0.883-0.346-0.51,0.13c-1.117-12.549-2.954-25.741,7.793-35.146c2.757-2.413-0.883-2.397,3.446-4.231
			C98.777,75.425,111.116,78.733,115.918,79.869z"/>
		<path style="fill:#231815;" d="M76.201,118.708c1.779-2.354,9.708-12.671,14.38-10.188c0.499,0.241-18.469,25.209-19.854,27.695
			c-2.573,4.618-6.566,30.625-8.746,31.835c-0.423,0.235-2.718-22.537-1.889-25.657C62.436,133.573,70.065,125.173,76.201,118.708z"
			/>
		<path style="fill:#231815;" d="M50.781,184.853c1.049-4.75,3.773-18.345,10.03-19.907c-0.819,0.203-10.383,42.035-11.516,46.198
			c-1.067,3.921-5.105,39.065-12.272,38.487C32.66,249.191,49.16,190.099,50.781,184.853z"/>
		<path style="fill:#231815;" d="M127.021,263.519c0.489-2.411,2.749-9.485,6.548-9.498c-2.479,0.017,0.937,41.478-4.857,43.547
			C124.771,298.975,125.933,266.593,127.021,263.519z"/>
		<path style="fill:#231815;" d="M199.521,73.847c4.523-1.585,13.677-3.479,17.971-0.719c-5.196-3.448-27.97,5.932-26.154,14.684
			c2.597,12.519,22.794,3.851,30.145,7.56c-7.861-3.386-24.673,9.077-32.121-2.484C184.166,84.823,191.836,75.909,199.521,73.847z"
			/>
		<path style="fill:#231815;" d="M282.453,55.703c-6.163-2.055-5.136-9.245,1.028-6.164
			C289.643,52.621,282.453,55.703,282.453,55.703z"/>
		<path style="fill:#231815;" d="M302.996,52.621c-4.109-1.027,0-8.218,3.081-7.189C309.159,46.459,302.996,52.621,302.996,52.621z"
			/>
		<path style="fill:#231815;" d="M218.119,31.314c0-15.855,19.184-4.373,12.88,6.936c-4.689,8.413-16.311,0.826-7.027-4.595
			C222.136,32.922,220.051,31.709,218.119,31.314z"/>
		<path style="fill:#231815;" d="M282.874,24.085c0-14.511,16.854-1.923,9.521,8.117c-5.371,7.353-9.2,0.305-4.367-5.712
			C286.31,25.688,284.592,24.886,282.874,24.085z"/>
		<path style="fill:#231815;" d="M199.677,28.953c-0.703,2.208-0.176,3.938,1.581,5.188c4.071,1.237,6.699-26.228,15.691-28.266
			c6.781-1.536,27.686,16.709,27.928,15.766c1.643-6.615-18.001-18.44-23.735-19.044C206.891,1.095,202.284,17.926,199.677,28.953z"
			/>
		<path style="fill:#231815;" d="M272.31,14.948c-3.299,12.35,11.45-11.678,9.709-10.534c12.995-8.539,9.988,20.462,18.4,17.802
			c3.926-1.042-7.765-20.505-10.633-21.539C280.569-2.642,274.441,6.889,272.31,14.948z"/>
		<path style="fill:#231815;" d="M244.183,15.586c-1.909,0.334-1.846,2.952-1.197,4.213c1.7,3.304,6.681-0.795,8.629-0.795
			c2.395-0.001,22.077-1.063,23.21-1.882C283.532,10.822,247.399,15.061,244.183,15.586z"/>
		<path style="fill:#231815;" d="M179.09,364.507c-1.289-0.967-12.829-7.724-11.28-10.564c2.22-4.07,23.373-2.764,28.799-3.349
			c8.662-0.934,14.218-3.742,16.062,7.5C215.583,375.847,188.179,371.325,179.09,364.507z"/>
		<path style="fill:#231815;" d="M170.63,409.224c-5.699-1.221-13.254-9.318-9.263-15.519c2.804-4.356,19.817-1.636,23.124,0.468
			c3.13,1.992,4.832-2.31,2.717,5.771C185.364,406.986,177.277,410.647,170.63,409.224z"/>
		<path style="fill:#231815;" d="M307.195,335.502c-7.684,2.306-21.077,5.808-27.058,11.292
			c-11.309,10.367-1.463,9.378,7.905,10.008c8.211,0.552,17.59,6.711,22.212-3.454C312.41,348.606,309.091,339.884,307.195,335.502z
			"/>
		<path style="fill:#231815;" d="M314.447,380.219c2.229,3.566,10.054,12.012,6.458,16.706c-2.924,3.818-17.098,2.446-20.697,0.062
			C285.133,387,303.822,380.608,314.447,380.219z"/>
		<path style="fill:#231815;" d="M112.62,143.346c22.348,0,3.773,21.328-6.84,23.46C86.255,170.729,103.273,143.346,112.62,143.346z
			"/>
		<path style="fill:#231815;" d="M83.616,179.602c17.87,3.971,0.406,29.512-6.043,25.378
			C70.555,200.481,80.836,184.227,83.616,179.602z"/>
		<path style="fill:#231815;" d="M180.298,64.79c-0.982,3.927-1.4,11.763-5.387,14.411c-2.429,1.613-12.741,2.941-13.912-0.682
			C158.173,69.775,180.551,63.781,180.298,64.79z"/>
		<path style="fill:#231815;" d="M145.251,273.867c8.773,6.579,8.625,8.402,7.251,18.127c-0.592,4.19-2.476,18.859-7.5,18.763
			C132.611,310.521,140.998,270.677,145.251,273.867z"/>
	</g>
</g>
</svg>
