<?xml version="1.0" encoding="utf-8"?>
<!-- Generator: Adobe Illustrator 22.1.0, SVG Export Plug-In . SVG Version: 6.00 Build 0)  -->
<svg version="1.1" id="_x39_" xmlns="http://www.w3.org/2000/svg" xmlns:xlink="http://www.w3.org/1999/xlink" x="0px" y="0px"
	 viewBox="0 0 720 655.313" style="enable-background:new 0 0 720 655.313;" xml:space="preserve">
<style type="text/css">
	.st0{fill:#94C85C;}
	.st1{fill:#F4E487;}
	.st2{fill:#DBDCDC;}
	.st3{fill:#B4B4B5;}
	.st4{fill:#C6FA8E;}
	.st5{fill:#E9FFB1;}
	.st6{fill:#FFFFFF;}
	.st7{fill:#020202;}
</style>
<g>
	<path class="st0" d="M719.934,648.586H81.797c-81.619,0-78.367-52.264-63.409-140.669C33.346,419.509,112.968,342.3,112.968,342.3
		s11.334,1.44,0-37.027C101.586,266.808,223.11,49.624,225.386,37.266c2.276-12.358,17.327-30.569,42.272-30.29
		c24.946,0.279,36.792,49.569,36.792,49.569s68.519-6.921,113.626-1.068c26.711-63.83,68.147-29.221,77.345-15.191
		c9.151,14.03,28.477,36.748,77.903,97.141c44.596,40.649,59.972,79.858,59.694,115.025c-0.325,35.214-30.799,62.344-30.799,62.344
		s-3.298,3.207,8.501,18.769c6.132,8.085,35.073,42.276,57.928,85.527c21.137,39.998,36.281,88.594,41.622,110.103
		C721.421,574.024,719.934,648.586,719.934,648.586z"/>
	<path class="st1" d="M248.981,572.847c0,0,0,34.947,0,47.885s6.521,22.014,19.721,19.221c13.201-2.793,18.432-11.868,17.562-16.755
		c-0.871-4.887,0-50.351,0-50.351H248.981z"/>
	<path class="st1" d="M248.969,411.749c-3.469-13.264,3.584-25.978,19.604-24.435s25.838-0.848,32.796,6.208
		s6.261,18.226,6.261,18.226l-44.128,1.284L248.969,411.749z"/>
	<polygon class="st2" points="248.981,387.083 243.897,353.022 269,341.852 289.04,360.701 286.264,391.292 	"/>
	<path class="st3" d="M310.843,355.708c-29.382,6.781-62.686,5.296-105.512-8.237c-42.825-13.533-117.565-62.244-112.328-153.597
		C98.943,90.277,168.815,28.561,272.831,37.266s157.351,91.682,153.861,158.005c-1.572,29.876-12.101,73.651-29.801,102.625
		C375.297,333.244,335.779,349.954,310.843,355.708z"/>
	<path class="st4" d="M240.399,62.356c-56.189,6.007-114.171,42.829-116.963,133.586c-2.792,90.757,75.074,140.889,135.27,137.465
		s115.345-45.312,130.005-92.087S382.428,109.99,319.6,79.662C278.412,63.297,240.399,62.356,240.399,62.356z"/>
	<path class="st5" d="M125.911,212.209L288.134,71.292l31.466,8.37L133.754,243.583C133.754,243.583,125.04,218.31,125.911,212.209z
		"/>
	<path class="st5" d="M248.635,329.955c4.374,1.154,142.887-142.826,142.887-142.826s-2.992-37.191-12.3-42.658
		c-9.308-5.467-184.047,170.273-184.047,170.273S232.799,330.921,248.635,329.955z"/>
	<path class="st6" d="M586.193,648.586H135.127c-0.326-1.531-0.511-2.416-0.511-2.416s88.681-46.781,94.116-77.071
		c11.009-5.948,16.491-0.417,18.721-0.975c2.23-0.558,4.459,64.76,4.459,64.76l35.397-3.346l-1.022-56.676
		c0,0,35.676-26.109,34.423-33.96c10.869-10.081,11.102-26.805,6.55-37.816c8.733-13.193-8.408-39.209-16.398-40.044
		c21.833-9.663,16.398-32.567,16.398-32.567l-19.65-16.725c0,0-7.154-20.44-14.262-20.44c-7.061,0-5.388-7.805-5.388-7.805
		l1.068-22.809c0,0,57.416-2.509,84.453-35.818c27.036-33.311,37.768-57.329,37.768-57.329s22.345-1.903,64.849,6.83
		c42.505,8.781,43.62,26.665,33.679,45.946C487.386,374.678,575.927,442.646,586.193,648.586z"/>
	<path d="M154.994,335.043c19.493,14.894,39.803,21.475,54.406,23.732c14.789,2.225,24.003,0.213,25.531-1.189
		c0.794-0.778-0.245-1.663-3.212-2.615c-1.479-0.474-3.443-0.966-5.897-1.465c-2.441-0.658-5.362-1.515-8.801-2.341
		c-3.421-0.925-7.295-2.311-11.691-3.693c-4.296-1.799-9.214-3.418-14.363-6.084c-10.398-4.961-22.501-12.029-34.995-22.75
		c-25.373-21.969-40.851-48.564-49.117-75.562c-8.556-27.019-10.466-54.854-4.645-82.521c5.857-27.595,19.766-55.106,43.283-79.151
		c11.74-11.918,26.393-22.371,43.759-30.106c8.61-4.042,18.064-6.898,27.936-9.38c9.971-2.105,20.446-3.704,31.415-3.99
		c43.864-1.32,87.205,13.665,119.514,40.166c32.368,26.483,52.106,65.667,52.732,104.457c0.304,19.336-1.166,38.624-5.625,56.571
		c-4.341,17.927-10.434,35.121-19.802,49.773c-9.137,14.738-20.473,27.343-33.266,37.206c-13.115,9.443-27.251,16.239-41.568,20.663
		c-3.489,1.071-7.004,1.663-10.311,2.509c-3.348,0.662-6.465,1.826-9.649,2.053c-6.306,0.719-12.053,1.883-17.361,2.259
		c-5.312,0.265-10.098,0.583-14.335,0.937c-4.242,0.397-7.921,0.093-11.024,0.306c-12.398,0.442-15.578,2.155-7.05,4.689
		c2.132,0.635,4.999,1.32,8.638,2.048c1.828,0.34,3.842,0.715,6.043,1.123c2.214,0.315,4.645,0.377,7.267,0.56
		c2.636,0.129,5.466,0.27,8.497,0.42c1.52,0.057,3.094,0.118,4.713,0.179c1.624-0.111,3.294-0.227,5.013-0.345
		c3.457-0.274,7.113-0.567,10.983-0.876c0.966-0.084,1.946-0.17,2.944-0.256c0.98-0.195,1.973-0.392,2.98-0.592
		c2.014-0.411,4.078-0.832,6.197-1.266c16.803-3.466,37.208-10.559,56.575-25.998c19.339-15.23,36.759-38.812,47.125-68.684
		c4.913-16.149,8.234-30.82,9.427-44.46c0.354-3.4,0.699-6.723,1.034-9.979c0.322-3.255,0.222-6.463,0.354-9.595
		c0.095-6.281,0.544-12.27,0.023-18.226c-1.039-23.725-7.104-44.472-17.774-64.638c-5.594-9.942-12.276-19.821-20.882-29.405
		c-8.697-9.468-19.13-18.746-31.991-27.255c-12.847-8.488-28.135-16.219-46.322-22.04c-4.541-1.459-9.309-2.64-14.19-3.913
		c-4.958-0.925-9.989-2.259-15.306-2.842c-10.538-1.747-21.871-2.194-33.811-1.917c-19.085,0.758-37.794,4.421-55.187,10.993
		c-17.402,6.562-33.275,16.328-46.88,28.221c-13.541,11.945-25.114,25.615-34.26,40.634c-9.105,15.021-15.828,31.245-19.888,47.929
		c-7.916,33.511-4.831,68.237,6.406,98.924C109.489,289.215,129.644,316.093,154.994,335.043z"/>
	<path d="M176.788,304.694c27.89,19.211,64.232,28.838,99.481,25.587c17.588-1.742,34.895-6.626,50.142-14.933
		c15.42-8.012,28.367-19.599,38.774-32.104c10.42-12.583,18.305-26.506,23.422-40.506c5.076-14.03,7.549-28.033,8.034-40.928
		c0.513-12.916-0.93-24.696-3.076-34.799c-0.953-5.09-2.504-9.677-3.57-13.991c-1.384-4.219-2.831-8.019-4.015-11.467
		c-5.33-13.556-13.854-28.003-25.155-39.978C349.652,89.509,336.051,79.891,323,73.964c-13.042-6.034-25.418-8.282-33.743-8.3
		c-4.142-0.27-7.358,0.49-9.273,0.928c-1.928,0.547-2.613,1.241-1.919,2.098c1.148,1.477,7.181,2.382,15.801,4.702
		c8.601,2.414,19.747,6.583,30.821,13.143c11.105,6.483,21.898,15.47,30.612,25.195c8.796,9.675,15.442,20.093,19.779,28.563
		c1.143,2.094,2.645,4.85,4.001,8.409c0.726,1.758,1.52,3.673,2.368,5.73c0.776,2.089,1.411,4.392,2.191,6.805
		c3.08,9.647,5.621,22.042,5.916,36.276c0.395,14.207-1.951,30.281-7.952,46.259c-6.038,15.931-15.751,31.746-28.793,45.086
		c-6.478,6.674-13.628,12.864-21.653,17.841c-7.912,5.12-16.468,9.334-25.386,12.335c-8.873,3.121-18.051,5.276-27.224,6.288
		c-4.564,0.715-9.159,0.755-13.687,1.046c-4.532-0.077-9.032,0.054-13.451-0.402c-17.733-1.152-34.192-5.78-48.223-11.768
		c-14.095-5.964-25.577-13.744-34.337-21.103c-17.615-14.649-31.874-35.178-38.129-58.413c-3.185-11.582-4.4-23.639-3.951-35.632
		c0.286-6.009,0.331-12.018,1.279-17.907c0.367-2.953,0.735-5.898,1.098-8.833c0.617-2.888,1.225-5.766,1.837-8.631
		c2.291-11.514,6.474-22.294,11.069-32.454c5.308-9.786,10.969-19.143,18.241-26.599c13.986-15.427,31.257-24.961,47.044-29.575
		c31.874-9.182,57.655-6.032,61.365-8.309c1.901-0.867-1.66-2.169-12.652-3.72c-2.74-0.508-5.97-0.563-9.695-0.606
		c-1.865-0.02-3.847-0.041-5.956-0.061c-2.114-0.036-4.351-0.045-6.705,0.295c-9.391,0.914-21.031,2.366-33.965,7.567
		c-6.632,2.11-12.357,5.741-18.142,8.604c-2.667,1.833-5.294,3.634-7.88,5.408c-1.266,0.916-2.618,1.704-3.783,2.708
		c-1.157,1.021-2.3,2.032-3.439,3.037c-2.246,2.042-4.573,3.927-6.646,6.013c-1.955,2.2-3.883,4.369-5.789,6.513
		c-0.939,1.08-1.915,2.116-2.804,3.214l-2.418,3.452c-1.597,2.287-3.176,4.55-4.741,6.789
		c-11.559,18.587-17.411,38.188-20.432,58.409c-0.499,5.095-1.429,10.203-1.597,15.427c-0.118,5.233-0.567,10.498-0.422,15.942
		c0.032,10.922,1.914,22.282,5.476,33.831C134.322,262.539,150.068,286.575,176.788,304.694z"/>
	<path d="M239.859,562.6c4.133,2.679,10.938,2.334,16.145,2.436c5.262,0.145,8.674,1.949,7.844,2.357
		c-0.817,0.209-1.588,4.217-6.687,4.925c-4.949,0.594-9.01,0.914-11.541,1.297c-2.486,0.222-1.334-0.758-7.939-3.069
		c-6.605-2.797-5.294-7.25-3.371-6.987c0.98,0.088,2.409-0.127,3.543-0.379C239.002,562.906,239.859,562.6,239.859,562.6z"/>
	<path d="M199.919,436.83c-2.935,2.674-5.371,6.596-6.7,11.442c-1.329,4.843-1.683,10.441-1.307,16.221
		c0.826,11.63,4.369,23.761,7.676,34.772c3.371,11.031,5.634,19.025,6.601,24.013c1.007,4.97,0.685,6.953-0.231,5.399
		c-0.885-1.561-3.411-3.219-6.66-6.692c-3.239-3.462-7.277-8.754-10.552-17.435c-6.546-17.299-10.125-32.02-11.523-41.298
		c-0.708-4.63-0.272-6.034,0.608-9.663c0.472-1.815,1.039-4.219,2.255-7.853c1.238-3.584,2.908-8.624,7.322-14.681
		c4.468-6.061,9.885-9.146,14.004-10.575c4.183-1.481,7.308-1.556,9.304-1.195c3.988,0.696,3.702,2.872,0.64,4.512
		c-3.121,1.665-6.696,4.759-8.638,7.722C200.65,434.389,199.919,436.83,199.919,436.83z"/>
	<path d="M268.797,409.401c7.041-0.388,14.884-0.955,23.349-0.746c8.415,0.252,17.656,1.13,26.557,4.916
		c4.423,1.858,8.538,4.058,12.516,7.309c3.847,3.114,7.717,7.971,8.334,14.177c0.54,6.265-2.404,11.532-5.485,15.298
		c-3.198,3.815-6.877,6.66-10.588,9.058c-15.07,9.232-27.437,10.537-34.428,10.788c-7.113-0.011-9.137-1.204-6.651-1.157
		c2.495-0.057,6.197-1.116,11.922-3.291c5.68-2.234,13.637-5.387,23.735-11.585c4.936-3.176,9.259-6.909,11.691-11.04
		c1.225-2.042,1.928-4.138,1.978-6.061c0.027-1.924-0.594-3.675-1.556-5.254c-1.996-3.171-5.281-5.487-8.361-7.166
		c-1.483-0.916-3.13-1.52-4.527-2.203c-1.452-0.508-2.799-0.98-4.033-1.415c-5.117-1.263-6.514-1.785-10.656-2.779
		c-4.146-0.88-11.146-2.38-28.213-1.082c-17.053,1.488-27.664,1.418-32.459,0.293c-4.804-1.023-3.92-2.271,0.953-2.786
		c4.89-0.569,11.341-1.896,16.59-3.096C264.737,410.349,268.797,409.401,268.797,409.401z"/>
	<path d="M323.653,460.755c4.001,2.282,8.996,5.324,11.741,11.358c1.479,2.942,1.624,6.415,1.365,9.607
		c-0.522,3.167-1.424,6.045-2.899,8.795c-2.89,5.621-7.98,9.96-13.265,12.544c-5.326,2.647-10.838,3.89-15.996,4.494
		c-10.352,1.037-17.361-0.388-21.412-1.395c-4.051-1.098-5.203-2.017-3.738-1.926c1.474,0.082,3.734-0.592,7.39-1.359
		c3.656-0.785,8.701-1.556,15.71-2.488c7.004-0.957,13.02-3.151,17.098-6.059c4.096-2.951,5.993-6.442,6.823-9.049
		c0.703-2.779,1.062-3.359,1.647-5.281c0.082-0.474,0.172-1.023,0.29-1.69c-0.136-0.615,0.077-1.461-0.308-2.33
		c-0.445-1.792-1.942-4.258-5.748-6.617c-7.903-4.43-14.036-5.771-16.481-7.377c-2.595-1.445-2.078-2.62,0.971-2.665
		c3.017-0.005,7.136,0.02,10.593,0.399C320.881,460.044,323.653,460.755,323.653,460.755z"/>
	<path d="M333.311,506.079c1.18,3.79,1.728,7.939,1.506,12.326c-0.245,4.364-1.32,9.06-4.024,13.442
		c-0.549,1.041-1.819,2.359-2.767,3.278c-1.007,0.796-2.064,1.717-3.08,2.273c-2.06,1.316-4.106,2.296-6.142,3.139
		c-4.078,1.697-8.111,2.879-11.985,3.722c-15.524,3.135-22.233,0.22-19.897,0.009c2.314-0.395,6.319-4.174,17.248-6.937
		c10.829-2.715,19.389-7.717,19.534-11.133c0.626-1.976,0.939-2.459,1.769-4.01c0.531-1.522,2.214-4.607,0.735-11.415
		c-1.778-6.687-4.5-8.704-6.079-10.239c-1.651-1.436-1.61-2.677,1.125-2.6c2.613,0.184,6.197,1.817,8.438,3.995
		C332.009,504.022,333.311,506.079,333.311,506.079z"/>
	<path d="M322.083,555.598c-11.359,11.471-31.134,18.242-47.611,18.741c-8.261,0.234-14.022-1.254-17.289-2.5
		c-3.28-1.338-4.133-2.384-2.953-2.3c2.441,0.116,7.304-3.162,18.704-3.956c11.527-0.971,20.265-4.328,24.66-7.043
		c2.277-1.259,2.908-1.452,4.899-1.885c1.016-0.195,2.25-0.612,4.038-1.474c0.907-0.411,1.987-0.898,3.053-1.71
		c1.102-0.776,2.491-1.606,3.656-2.931c4.981-4.945,6.859-8.643,8.642-10.491c1.806-1.819,3.216-1.479,3.139,1.121
		c0.141,2.586-0.345,6.134-1.066,9.185C322.991,553.193,322.151,555.695,322.083,555.598z"/>
	<path d="M253.273,366.544c-0.817,5.274,0.821,12.719,0,18.923c-0.817,6.202-4.092,8.683-4.092,7.753c0-0.932-3.28-2.792-3.28-7.445
		c0-4.652-0.817-8.373-1.633-10.546c-0.821-2.173,0.817-1.241,0.817-7.753c0-6.515,4.096-7.756,4.913-5.893
		C250.819,363.443,253.273,366.544,253.273,366.544z"/>
	<path d="M290.904,367.429c-0.817,6.086,0.817,14.674,0,21.833c-0.817,7.157-4.096,10.019-4.096,8.947
		c0-1.075-3.275-3.221-3.275-8.59s-0.817-9.661-1.638-12.168s0.821-1.431,0.821-8.947c0-7.515,4.092-8.949,4.909-6.801
		C288.445,363.849,290.904,367.429,290.904,367.429z"/>
	<path d="M60.145,420.781C48.709,440.7,38.129,463.969,29.887,489.47c-8.193,25.444-14.376,53.321-14.657,81.535l-0.113,5.285
		l0.34,4.929c0.032,1.656,0.381,3.262,0.653,4.877c0.299,1.611,0.458,3.255,0.984,4.809c1.452,6.395,4.273,12.385,7.739,17.911
		c6.932,11.149,17.751,19.728,29.778,25.41c12.103,5.396,25.781,8.779,38.275,7.656c13.129-1.064,26.439-4.718,39.019-9.019
		c25.228-8.867,45.624-19.785,61.492-29.952c15.9-10.233,27.097-20.175,34.332-28.375c7.186-8.261,10.37-14.729,11.768-17.845
		c1.47-3.133,1.733-2.788,0.608,1.141c-2.364,7.638-7.027,19.776-21.476,35.203c-7.181,7.665-16.69,16.085-29.288,24.678
		c-12.616,8.529-28.226,17.435-47.892,25.068c-9.835,3.786-19.661,6.957-29.501,9.257c-9.881,2.148-19.702,3.824-29.805,3.105
		c-19.471-1.767-37.013-8.484-50.614-18.809c-6.768-5.158-12.507-11.129-17.116-17.487c-4.664-6.354-7.803-13.259-10.203-19.916
		c-1.007-3.396-2.1-6.68-2.59-9.976c-0.29-1.638-0.667-3.246-0.857-4.841c-0.145-1.601-0.29-3.176-0.426-4.72
		c-0.386-3.171-0.227-5.889-0.286-8.64c-0.018-2.727-0.032-5.347-0.05-7.853c0.83-19.971,2.214-25.605,5.734-40.724
		c1.815-7.556,4.419-17.444,9.236-32.297c4.791-14.856,12.076-34.627,25.037-61.029c13.147-26.327,26.756-45.715,38.501-59.57
		c11.89-13.774,21.53-22.348,28.176-26.98c13.292-9.25,12.344-5.589,0.653,5.759c-11.414,11.796-24.139,29.65-32.876,44.998
		c-4.514,7.59-7.975,14.604-10.457,19.617C61.438,417.635,60.145,420.781,60.145,420.781z"/>
	<path d="M141.58,501.801c8.801-9.539,21.013-20.524,32.282-26.885c5.639-3.139,9.926-4.496,12.856-5.081
		c2.881-0.599,4.464-0.236,3.734,0.429c-1.316,1.207-0.844,8.191-9.109,14.064c-8.134,5.71-13.705,11.192-16.245,14.96
		c-1.32,1.853-1.914,2.003-3.552,2.688c-1.538,0.715-4.273,1.953-8.243,6.553c-3.738,4.587-6.256,6.848-8.538,8.001
		c-2.314,1.093-4.214,0.519-4.16-1.742c-0.077-2.241,0.041-5.401,0.295-8.141c0.181-1.359,0.34-2.563,0.458-3.43
		C141.471,502.307,141.58,501.801,141.58,501.801z"/>
	<path d="M248.165,199.117c-28.703,5.199-35.267-81.664,9.903-80.949c21.403,0.34,28.34,20.434,28.34,41.899
		c0,36.668-37.785,56.83-50.659,31.217"/>
	<path d="M453.823,180.961c-16.712,3.026-20.532-47.55,5.766-47.132c12.462,0.195,16.504,11.895,16.504,24.394
		c0,21.35-22.002,33.089-29.496,18.177"/>
	<path d="M317.692,81.052c0.998,3.709,5.793,7.37,8.261,12.041c2.477,4.782,0.78,8.06,0.449,7.327
		c-0.404-0.69-3.452-0.59-5.48-3.491c-2.087-2.953-4.509-4.897-6.12-5.979c-1.588-1.146-0.154-1.105-2.99-5.993
		c-1.365-2.554-1.084-4.584-0.399-5.569c0.68-1.005,1.742-1.141,2.305-0.583C314.802,80.016,317.692,81.052,317.692,81.052z"/>
	<path d="M234.27,11.892c3.838-2.736,8.102-5.195,12.847-7.3c4.786-2.046,9.894-3.929,16.109-4.485
		c1.61-0.129,3.189-0.154,4.677-0.007c1.515,0.088,3.035,0.166,4.609,0.551c1.561,0.293,3.117,0.635,4.65,1.263
		c1.556,0.504,3.03,1.207,4.446,2.035c5.802,3.228,9.654,8.121,12.267,12.279c2.649,4.244,4.201,7.635,5.548,10.351
		c1.311,2.724,2.382,4.757,3.248,6.39c1.801,3.144,2.359,4.87,1.166,4.124c-1.13-0.733-3.602-0.728-7.095-2.497
		c-3.525-1.645-7.726-5.415-11.55-10.952c-3.833-5.573-7.957-8.949-12.04-9.913c-3.992-1.025-7.943-0.549-10.112,0.331
		c-2.413,0.925-3.216,0.821-5.43,0.948c-2.091,0.238-6.269,0.424-13.419,5.195c-6.968,4.981-9.223,7.96-11.16,9.949
		c-1.792,2.064-3.697,2.488-4.228-0.996c-0.299-3.305,0.735-7.948,2.323-11.36C232.641,14.326,234.27,11.892,234.27,11.892z"/>
	<path d="M360.585,49.406c9.654,1.261,23.286-1.261,34.645-0.002c11.359,1.263,15.905,6.32,14.199,6.32
		c-1.706,0-5.113,5.058-13.632,5.058s-15.333,1.261-19.307,2.522c-3.983,1.266-2.273-1.261-14.204-1.261
		c-11.926,0-14.199-6.32-10.788-7.581C354.905,53.197,360.585,49.406,360.585,49.406z"/>
	<path d="M420.439,33.389c3.321-4.262,7.054-9.037,11.954-13.61c4.804-4.555,11.3-8.89,19.158-10.611
		c3.87-0.91,7.971-0.991,11.999-0.476c3.983,0.649,7.857,1.849,11.232,3.638c6.9,3.45,12.117,8.47,16.232,13.542
		c8.107,10.332,10.552,19.041,11.6,24.156c0.93,5.195,0.29,7.043-0.426,5.406c-0.749-1.642-2.985-3.614-6.206-6.873
		c-3.262-3.23-7.295-7.885-12.743-14.298c-5.439-6.41-11.759-10.763-17.311-12.165c-5.535-1.533-10.039-0.49-12.875,0.96
		c-2.817,1.484-3.647,1.622-6.197,2.475c-2.4,1.03-6.932,2.792-14.027,12.236c-6.85,9.586-11.486,15.643-14.753,17.732
		c-3.176,2.169-4.546,0.728-3.371-2.715c1.175-3.446,2.432-8.257,3.561-12.254C419.414,36.549,420.439,33.389,420.439,33.389z"/>
	<path d="M553.1,102.38c-6.56-8.425-12.811-12.812-15.37-11.825c-2.486,0.93-1.284,7.547,8.383,20.343
		c9.858,12.986,20.496,23.691,32.246,35.936c11.6,12.308,25.005,25.943,37.263,46.413c6.061,10.226,10.865,21.248,13.428,32.467
		c2.627,11.197,2.758,22.575,0.404,32.823c-4.564,20.713-16.808,36.011-26.058,46.243c-4.487,5.12-7.662,9.049-8.796,11.963
		c-1.175,2.865-0.558,4.482,1.869,4.09c2.35-0.467,6.827-2.638,12.521-8.137c1.424-1.375,2.949-2.928,4.564-4.668
		c1.574-1.785,3.121-3.877,4.804-6.111c1.737-2.191,3.298-4.798,4.922-7.606c1.719-2.738,3.194-5.902,4.65-9.296
		c6.161-14.515,8.901-26.139,9.4-40.534c0.177-14.273-3.012-32.068-16.54-54.255c-10.711-17.718-23.848-33.869-35.897-48.695
		C572.757,126.765,561.62,113.347,553.1,102.38z"/>
	<path d="M182.781,275.811c2.06,1.157,9.767,2.947,20.759,2.679c10.956-0.066,24.892-2.101,38.982-4.573
		c7.059-1.218,14.177-2.522,21.136-3.473c6.873-0.844,13.433-1.649,19.33-2.373c11.799-1.347,20.986-2.182,24.706-2.486
		c22.642-1.867,43.51-6.964,48.709-6.996c5.163-0.054,7.508,0.891,7.512,5.558c0.005,4.68-0.916,6.558-6.433,6.599
		c-2.758,0.039-11.967-0.2-21.762-0.061c-9.794,0.109-20.169,0.585-25.209,1.257c-13.165,1.71-27.142,3.775-40.833,6
		c-13.492,2.112-26.679,5.437-38.946,7.712c-12.217,2.373-23.427,3.806-32.354,4.017c-8.919,0.259-15.474-0.565-17.978-0.957
		c-5.026-0.558-7.336-2.398-8.043-3.942c-0.721-1.62,0.023-3.341,0.726-5.074c0.721-1.726,2.418-3.119,4.205-3.863
		C179.056,275.158,181.002,274.972,182.781,275.811z"/>
	<path d="M434.87,263.539c9.463,0.522,20.646,3.008,31.524,6.286c10.883,3.251,21.834,6.292,32.037,8.227
		c10.275,1.849,17.497,3.148,21.802,3.924c4.328,0.901,5.675,1.638,4.078,1.597c-3.148-0.213-9.676,3.117-25.817,0.876
		c-16.032-2.529-28.503-6.263-35.761-7.665c-3.634-0.751-4.582-1.193-7.267-2.198c-2.699-0.928-7.095-2.813-17.81-3.865
		c-10.706-0.814-17.239-0.329-20.378-1c-3.139-0.567-2.831-1.667,0.327-2.429c1.574-0.417,3.411-0.907,5.294-1.409
		c1.914-0.422,3.865-0.853,5.621-1.239c1.76-0.46,3.357-0.592,4.5-0.808C434.171,263.65,434.87,263.539,434.87,263.539z"/>
	<path d="M343.858,250.698c-16.722,2.33-11.31-22.927,2.064-15.046c11.609,6.841,1.415,28.105-4.038,9.123"/>
	<path d="M632.626,353.685c13.374,20.447,32.926,43.367,48.042,71.826c14.399,28.046,25.926,58.592,32.713,87.439
		c6.764,28.87,7.122,50.004,6.111,62.219c-1.161,12.265-2.808,15.797-2.749,11.439c0.005-4.385-1.343-10.959-3.793-21.57
		c-2.413-10.625-5.916-25.265-11.083-46.141c-10.702-41.772-26.466-73.051-36.791-89.826c-5.24-8.275-6.519-10.786-10.216-17.668
		c-3.774-6.885-10.42-17.795-28.566-42.46c-9.014-12.394-15.624-22.915-19.947-31.526c-4.31-8.622-6.573-15.114-7.417-19.401
		c-1.701-8.556,0.925-7.84,5.036-0.336c4.305,7.488,11.314,16.645,17.47,23.707C627.554,348.479,632.626,353.685,632.626,353.685z"
		/>
	<path d="M594.7,460.952c6.26,12.853,11.877,28.967,16.209,45.883c1.071,4.258,2.146,8.422,3.08,12.841
		c1.003,4.462,1.556,8.919,2.082,13.329c0.93,8.813,1.238,17.394,1.506,25.476c0.395,16.158,1.012,27.146,1.887,33.685
		c0.88,6.503,1.021,8.708,0.163,6.424c-0.771-2.284-2.804-5.462-4.763-11.374c-2.028-5.877-3.87-14.468-4.555-26.69
		c-0.685-12.199-1.388-23.083-2.967-32.082c-1.588-8.86-4.024-16.244-5.721-21.595c-1.792-5.337-2.01-6.925-2.953-11.226
		c-1.08-4.221-2.273-11.498-9.146-26.663c-7.113-15.005-12.911-22.976-15.084-27.191c-2.246-4.165-0.889-4.489,2.749-1.08
		c3.543,3.434,8.243,8.223,11.622,12.528C592.273,457.461,594.7,460.952,594.7,460.952z"/>
	<path d="M115.445,289.455c-1.742,5.564-1.139,13.74,0.49,21.815c1.624,8.155,4.174,16.453,6.233,23.938
		c2.055,7.517,3.13,12.778,3.67,16.144c0.563,3.264,0.572,4.977-0.327,4.149c-0.844-0.808-3.126-1.266-6.097-3.305
		c-2.908-2.017-6.437-5.605-8.769-11.73c-4.627-12.188-7.825-22.06-10.153-28.035c-1.13-2.99-0.866-3.954-0.59-6.447
		c0.467-2.556,0.349-6.444,1.297-16.205c0.581-4.918,2.3-9.019,4.514-11.766c2.173-2.799,4.854-4.008,6.56-4.144
		c3.57-0.129,3.643,2.341,2.604,3.986c-1.152,1.885-1.202,4.963-0.699,7.352C114.647,287.616,115.445,289.455,115.445,289.455z"/>
	<path d="M242.408,104.435c7.717-6.735,8.696-11.253-2.708-1.511c-11.659,9.865-20.85,19.379-38.157,34.207
		c-17.343,14.79-34.795,29.968-44.653,39.331c-4.809,4.582-6.365,7.413-4.459,6.642c1.919-0.758,7.172-5.179,16.495-14.69
		c10.03-10.153,15.642-14.248,33.67-30.054C217.045,125.778,232.383,113.143,242.408,104.435z"/>
	<path d="M230.028,286.089c-5.421,4.246-9.15,7.132-9.123,8.246c-0.086,0.969,4.282,0.463,12.702-6.086
		c8.474-6.714,14.789-14.413,22.329-22.486c7.644-8.001,16.445-16.825,27.977-27.509c23.141-21.33,47.035-42.498,60.662-55.392
		c13.256-12.646,8.955-15.321-16.536,11.222c-13.741,14.15-21.44,19.887-45.61,42.566c-9.663,9.078-19.489,18.315-28.58,26.858
		C244.976,272.345,237.155,280.618,230.028,286.089z"/>
	<path d="M273.86,311.384c-8.293,8.436-8.61,14.068,3.661,1.892c12.575-12.317,22.147-24.229,41.024-42.53
		c18.913-18.256,38.275-36.596,49.267-47.779c10.643-11.006,6.392-13.615-13.832,9.509c-10.938,12.322-17.293,17.233-36.959,36.702
		C301.279,284.696,284.639,300.48,273.86,311.384z"/>
	<path d="M256.395,384.757c-0.953,0.236-1.946,0.551-2.944,0.889c-1.175,0.399-2.35,0.946-3.411,1.518
		c-1.488,0.833-3.67,2.282-5.312,4.734c-1.86,2.393-2.227,5.771-2.196,9.167c-0.041,5.049-0.104,8.779-1.048,10.178
		c-1.238,1.819-1.443,3.7,0.082,4.693c1.529,0.941,4.845,1.393,10.997,1.42c5.031-0.039,7.535-2.243,8.188-4.165
		c0.68-1.973-0.358-3.743-2.064-4.607c-1.093-0.588-2.976-4.278-4.478-7.973c-0.594-1.248-1.37-2.4-1.157-3.759
		c0.136-1.279,0.785-2.352,1.284-3.019c0.98-1.429,2.949-2.305,4.455-2.284c0.526-0.009,2.436-0.313,5.358-0.495
		c2.853-0.163,7.027-0.234,11.291-0.315c4.269-0.027,8.887,0.197,12.929,1.148c4.11,0.935,7.136,2.731,8.842,4.968
		c1.742,2.162,2.536,4.505,3.139,6.422c0.581,1.955,0.907,3.539,1.17,4.82c0.504,2.776,0.699,3.861,0.894,4.927
		c0.522,2.541,5.258,2.096,8.306-0.229c1.588-1.068,2.976-2.348,3.82-3.226c0.835-0.891,1.102-1.372-0.023-2.082
		c-1.102-0.715-1.973-1.372-3.144-3.498c-0.603-1.073-1.243-2.525-2.259-4.666c-1.057-2.087-2.323-5.034-5.326-8.305
		c-3.13-3.618-8.615-6.27-13.668-7.161c-5.131-1.012-10.257-1.075-14.875-0.939c-2.246,0.104-4.405,0.206-6.401,0.299
		c-1.996,0.093-3.906,0.22-5.594,0.381C259.856,383.929,257.293,384.501,256.395,384.757z"/>
	<path d="M100.053,358.693c7.163,12.517,26.974,12.163,16.173,28.911c-10.801,16.747-9.304,21.291-9.159,29.768
		c0.15,8.475,0.318,11.16-14.095,13.848c-14.417,2.688-9.939,0.962-24.266-13.848C54.375,402.559,100.053,358.693,100.053,358.693z"
		/>
	<path d="M40.044,443.274c11.001-22.593,21.326-4.634,29.047,16.956c6.496,18.161,2.527,21.951-3.171,21.951
		c-11.972,0-1.692,28.328-25.876,28.752C15.864,511.36,32.69,458.38,40.044,443.274z"/>
	<path d="M599.069,343.153c-4.936,8.64-12.194,25.576-2.531,33.951c9.663,8.373,6.641,18.211,17.221,25.383
		c10.579,7.175,14.993,17.081,34.763,0c9.391-8.107-8.52-25.919-20.305-41.691C615.178,343.348,607.23,328.862,599.069,343.153z"/>
	<path d="M657.581,421.006c-12.081,20.397-32.527,43.567-6.433,50.875c26.094,7.313,23.554,44.882,32.137,21.84
		C691.872,470.683,692.335,423.279,657.581,421.006z"/>
	<g>
		<path class="st7" d="M251.123,612.886c0-11.957,0.1-26.495,1.842-31.576c1.737-5.083,1.161-12.707-5.802-12.199
			c-5.693,0.415-5.798,8.132-4.06,11.691c1.737,3.559,3.924,24.911,3.239,33.282c-0.658,8.096-0.776,17.621-1.311,23.564h5.848
			l0.059-0.812c0.581-6.1-9.286-9.151-7.544,0.508l0.068,0.304h8.991C250.787,628.191,251.123,624.105,251.123,612.886z"/>
		<path class="st7" d="M287.483,627.75c0.331-4.814-0.113-8.835-0.313-13.218c-0.231-4.265-0.458-8.495-0.671-12.433
			c-0.331-7.851-0.195-14.502,0.612-17.893c0.785-3.389,1.08-7.538,0.653-10.385c-0.227-1.443-0.631-2.468-1.411-3.155
			c-1.016-0.445-1.211-2.019-2.618-3.094c-0.549-0.456-1.207-0.746-1.996-0.703c-0.817,0.168-1.774,0.846-2.395,1.504
			c-1.352,1.415-2.141,3.246-2.604,5.115c-0.866,3.716-0.426,7.76,0.49,10.235c0.885,2.509,2.246,11.058,3.634,20.316
			c0.676,4.634,1.311,9.466,1.719,13.848c0.354,4.346,0.667,8.411-0.082,10.784c-0.717,2.579-2.005,4.296-4.455,5.233
			c-2.432,0.991-5.453,1.586-8.302,2.341c-4.963,1.42-10.234,0.073-12.929-1.742c-1.338-0.93-2.404-1.343-3.634-1.835
			c-1.184-0.479-2.409-1.191-3.561-1.313c-1.089-0.134-2.191,0.515-2.155,2.792c-0.014,2.23,2.327,5.898,6.478,7.354
			c4.078,1.477,7.354,1.552,10.416,1.452c1.529-0.066,3.008-0.288,4.478-0.603c1.647-0.422,2.627-0.808,3.833-1.173
			c2.368-0.787,4.863-1.295,8.08-2.849c1.583-0.787,3.452-2.157,4.695-4.167C286.689,632.144,287.193,630.001,287.483,627.75z"/>
	</g>
</g>
</svg>
