<?xml version="1.0" encoding="iso-8859-1"?>
<!-- Generator: Adobe Illustrator 22.1.0, SVG Export Plug-In . SVG Version: 6.00 Build 0)  -->
<svg version="1.1" id="_x38_" xmlns="http://www.w3.org/2000/svg" xmlns:xlink="http://www.w3.org/1999/xlink" x="0px" y="0px"
	 viewBox="0 0 512 512" style="enable-background:new 0 0 512 512;" xml:space="preserve">
<g>
	<path style="fill:#518E21;" d="M512,323.908c0,5.686-43.062,18.171-59.181,20.098c-16.558,1.973-13.675,3.353-43,2.663
		c-29.34-0.689-58.868,2.585-85.436,5.216c-20.677,2.037-35.841,3.29-52.273,5.279c-4.699,0.564-9.493,1.206-14.553,1.927
		c-20.803,3.008-39.052,2.162-57.568,2.507c-1.739,0.031-3.478,0.063-5.216,0.126c-14.944,0.486-12.548,1.316-26.066,1.206
		c-4.888-0.031-11.858-0.204-22.494-0.548c-40.024-1.316-60.638-3.29-84.794-6.564c-24.139-3.29-27.429-3.87-47.762-9.149
		c-20.349-5.294-12.203-17.842-8.365-20.411c12.547-8.396,51.819-47.386,57.552-54.874c5.734-7.488,31.314-37.486,31.314-37.486
		s20.348-23.748,43.579-23.215c23.247,0.532,41.903,7.08,41.903,7.08s0.533-0.564,1.441-1.55
		c4.621-4.934,19.205-20.411,26.599-27.006c5.641-5.034,12.675-8.751,20.453-15.502c4.469-3.879,8.407-11.628,14.448-13.885
		c16.573-6.187,42.593-9.508,58.101-9.133c15.493,0.392,28.635,16.527,37.564,24.469c8.929,7.942,48.31,54.356,58.398,64.398
		c10.088,10.041,34.807,34.902,43.47,40.697c8.647,5.796,31.408,20.192,45.146,26.536c13.738,6.329,24.202,11.232,26.646,16.684
		C511.969,323.611,512,323.767,512,323.908z"/>
	<path style="fill:#478417;" d="M199.989,361.598c-1.739,0.031-3.478,0.063-5.216,0.126c-14.944,0.486-12.548,1.316-26.066,1.206
		c-1.253-16.37-0.595-28.76-0.188-35.277C169.004,319.929,189.431,347.03,199.989,361.598z"/>
	<path style="fill:#478417;" d="M512,323.908c0,5.686-43.062,18.171-59.181,20.098c-16.558,1.973-13.675,3.353-43,2.663
		c-29.34-0.689-58.868,2.585-85.436,5.216c-20.677,2.037-35.841,3.29-52.273,5.279c-1.535-9.79-6.955-21.743-15.9-30.907
		c-17.325-17.748-62.095-93.817-66.685-100.38c-3.399-2.694-6.188-5.984-8.443-9.665c4.621-4.934,19.205-20.411,26.599-27.006
		c5.641-5.034,11.981-10.721,19.758-17.473c4.469-3.879,9.101-9.657,15.143-11.915c16.573-6.187,42.593-9.508,58.101-9.133
		c15.493,0.392,28.635,16.527,37.564,24.469c8.929,7.942,48.31,54.356,58.398,64.398c10.088,10.041,34.807,34.902,43.47,40.697
		c8.647,5.796,31.408,20.192,45.146,26.536c13.738,6.329,24.202,11.232,26.646,16.684C511.969,323.611,512,323.767,512,323.908z"/>
	<path d="M144.893,210.134c-1.36,0.079-2.784,0.09-4.163,0.34c-1.381,0.22-2.776,0.443-4.178,0.666
		c-2.806,0.45-5.643,0.905-8.467,1.358c-5.741,0.992-11.006,3.523-15.561,6.175c-4.613,2.662-8.48,5.659-11.899,7.935
		c-0.852,0.573-1.669,1.113-2.454,1.606c-0.389,0.241-0.766,0.475-1.134,0.703c-0.396,0.217-0.805,0.49-1.16,0.756
		c-1.441,1.093-2.382,2.289-3.126,3.212c-2.779,3.779-6.224,8.299-8.997,11.861c-2.741,3.561-4.645,6.206-3.816,6.322
		c0.665,0.086,3.369-2.49,6.261-5.883c2.907-3.375,5.92-7.622,7.598-10.409c0.421-0.672,1.112-1.774,2.209-2.95
		c0.565-0.594,1.198-1.128,2.08-1.667c0.899-0.595,1.82-1.235,2.809-1.938c3.957-2.774,8.542-6.57,13.966-9.571
		c2.689-1.53,5.54-2.918,8.489-3.915c2.937-1.053,5.995-1.478,8.908-1.955c2.907-0.473,5.666-0.921,8.169-1.328
		c2.497-0.418,4.776-0.383,6.676-0.434c2.81-0.021,5.717,0.082,8.626,0.27c1.452,0.095,2.917,0.207,4.348,0.339
		c1.399,0.171,2.786,0.533,4.134,0.948c0.675,0.22,1.343,0.438,2.007,0.655c0.641,0.18,1.23,0.536,1.89,0.791
		c1.277,0.546,2.544,1.025,3.774,1.47c1.23,0.436,2.421,0.858,3.562,1.262c0.543,0.199,1.18,0.41,1.618,0.595
		c0.457,0.204,0.832,0.56,1.42,0.88l-0.133-0.096c0.275,0.262,0.589,0.269,0.737,0.276c0.188,0.005,0.174,0,0.262,0.011l0.22,0.114
		c1.14,0.655,1.976,1.165,2.744,1.772c0.74,0.575,1.35,1.244,1.755,1.827c0.87,1.438,1.638,2.62,2.386,3.698
		c3.213,4.674,6.821,7.105,7.499,7.157c0.364,0.025,0.025-0.512-1.143-1.82c-1.157-1.319-3.14-3.416-5.661-6.944
		c-0.542-0.754-1.044-1.504-1.519-2.23l-0.349-0.542c-0.185-0.277-0.294-0.401-0.454-0.594c-0.295-0.355-0.612-0.672-0.932-0.961
		c-1.27-1.126-2.668-1.898-3.598-2.36c-0.328-0.294-0.698-0.379-1.028-0.363l-0.196-0.001c-0.051,0.304-0.127,0.367-0.107,0.345
		l0.271-0.285l-0.204-0.102c-0.436-0.22-1.133-0.819-1.91-1.043c-0.65-0.221-1.29-0.439-1.924-0.655
		c-1.262-0.433-2.495-0.856-3.719-1.277c-1.213-0.435-2.405-0.892-3.581-1.404c-0.326-0.133-0.516-0.246-0.951-0.407l-0.939-0.308
		c-0.635-0.198-1.276-0.397-1.925-0.599c-1.313-0.376-2.689-0.722-4.182-0.859c-1.446-0.119-2.926-0.227-4.496-0.315
		C152.274,210.091,148.823,209.981,144.893,210.134z"/>
	<path d="M63.732,267.34c1.289-1.563,2.85-3.366,4.52-5.244c1.689-1.805,3.437-3.671,5.1-5.301c3.326-3.257,5.033-4.233,4.549-3.73
		c-0.485,0.505-1.041,1.882-3.469,4.406c-2.421,2.523-4.277,4.634-5.288,5.908c-0.949,1.302-0.793,0.549-3.891,4.266
		c-1.505,1.885-2.378,3.014-2.885,3.486c-0.5,0.476-0.626,0.28-0.327-0.365C62.623,269.478,63.732,267.34,63.732,267.34z"/>
	<path d="M36.494,297.637c-2.97,2.731-6.085,5.77-8.968,8.636c-0.089,0.076-0.092,0.076-0.291,0.144
		c-0.161,0.051-0.518,0.167-0.73,0.372c-1.819,1.496-3.159,3.254-4.857,4.324c-1.732,1.23-3.291,2.502-4.693,3.689
		c-2.793,2.386-4.981,4.41-6.411,5.565c-1.058,0.887-2.24,1.879-3.417,2.867c-1.059,0.921-2.334,1.583-3.502,2.2
		c-2.382,1.166-4.106,2.381-3.503,2.878c0.453,0.347,2.5-0.174,5.074-1.215c0.636-0.276,1.296-0.607,1.934-1.006
		c0.641-0.385,1.283-0.909,1.76-1.364c1.021-0.93,1.907-1.823,2.569-2.553c0.825-0.885,2.939-3.092,5.757-5.766
		c1.416-1.33,3.033-2.754,4.809-4.124c1.96-1.27,3.409-3.256,5.132-4.71c0.103-0.099,0.205-0.13,0.407-0.202
		c0.18-0.06,0.48-0.175,0.641-0.361c3.771-3.877,7.427-7.398,9.894-9.563c1.716-1.514,3.531-3.073,5.385-4.605l1.397-1.142
		l0.704-0.564c0.216-0.2,0.486-0.327,0.744-0.67c0.203-0.268,0.357-0.532,0.509-0.711c0.092-0.103,0.425-0.356,0.625-0.527
		c0.458-0.385,0.913-0.769,1.365-1.149c3.577-3.089,6.563-6.369,8.642-9.023c2.108-2.653,2.983-5.103,2.799-5.603
		c-0.239-0.538-1.311,0.896-4.315,5.132c-3.089,4.198-5.761,6.829-8.723,9.428l-0.567,0.48c-0.21,0.193-0.332,0.242-0.647,0.582
		c-0.209,0.259-0.336,0.483-0.47,0.671l-0.156,0.194l-0.28,0.229c-0.812,0.675-1.659,1.376-2.559,2.123
		C40.765,293.803,38.789,295.523,36.494,297.637z"/>
	<path d="M400.295,242.313c-1.276-1.407-2.545-2.335-3.543-3.249c-1.033-0.906-1.673-1.69-2.249-2.568
		c-1.095-1.7-1.937-2.83-2.308-2.863c-0.348-0.048-0.184,0.761,0.551,2.81c0.197,0.522,0.444,1.098,0.799,1.773
		c0.368,0.693,0.9,1.394,1.53,2.081c1.267,1.421,2.945,2.621,4.355,4.564c1.631,2.045,3.378,3.893,5.281,5.397
		c1.793,1.339,3.413,2.888,5.003,4.312c1.572,1.476,3.105,2.916,4.634,4.352c1.541,1.372,2.881,3.005,4.44,4.499
		c6.113,6.082,13.087,12.315,23.88,19.689c5.396,3.663,10.996,6.918,16.506,9.765c2.714,1.508,5.324,3.111,7.848,4.749
		c1.253,0.835,2.495,1.661,3.726,2.48c1.248,0.802,2.363,1.732,3.723,2.445c1.308,0.71,2.653,1.277,3.951,1.84
		c0.649,0.282,1.288,0.564,1.908,0.863l0.461,0.227c0.21,0.102,0.151,0.07,0.352,0.22c0.297,0.216,0.601,0.419,0.909,0.61
		c0.617,0.38,1.245,0.707,1.857,1.022c0.109,0.064,0.447,0.222,0.687,0.242c0.295,0.037,0.462,0.014,0.529,0.031
		c0.04-0.018,0.425,0.186,0.74,0.321c1.251,0.563,2.504,1.062,3.743,1.527c1.243,0.444,2.467,0.88,3.672,1.311l0.761,0.266
		l0.65,0.507c0.494,0.385,0.985,0.767,1.472,1.145c1.948,1.511,3.827,2.97,5.633,4.371c3.53,2.732,6.231,4.585,7.841,5.498
		c0.685,0.273,0.988,0.878,1.24,0.908c0.212,0.063,0.262-0.182,0.054-0.835c-0.06-0.157-0.132-0.369-0.34-0.608
		c-0.161-0.164-0.34-0.347-0.539-0.549c-0.381-0.38-0.851-0.823-1.412-1.33c-1.123-1.014-2.616-2.284-4.513-3.817
		c-1.895-1.532-4.194-3.328-6.928-5.395c-0.343-0.257-0.691-0.52-1.046-0.787l-0.538-0.404l-0.274-0.203
		c-0.089-0.038-0.31-0.298-0.517-0.327c-0.911-0.293-1.854-0.597-2.83-0.912c-1.859-0.607-3.85-1.274-5.85-2.104
		c-0.089-0.029-0.35-0.17-0.639-0.219c-0.285-0.056-0.536-0.036-0.621-0.035c-0.11,0.005-0.057,0.023-0.406-0.139
		c-0.511-0.239-0.991-0.472-1.44-0.718c-0.223-0.123-0.441-0.249-0.649-0.379c-0.24-0.157-0.478-0.312-0.713-0.465
		c-0.546-0.258-0.973-0.441-1.449-0.643c-1.85-0.766-3.511-1.367-4.974-2.114c-1.431-0.687-2.712-1.719-4.053-2.552
		c-1.331-0.865-2.648-1.721-4.019-2.612c-2.763-1.752-5.781-3.603-9.718-5.672c-3.911-2.025-8.508-4.628-14.194-8.423
		c-9.07-6.068-16.785-12.914-23.36-20.074c-3.202-3.684-6.624-7.099-10.004-10.323c-0.855-0.805-1.718-1.592-2.591-2.362
		l-0.163-0.144l-0.229-0.185l-0.329-0.251l-0.645-0.518c-0.425-0.349-0.834-0.717-1.236-1.089
		C403.092,245.757,401.757,244.121,400.295,242.313z"/>
	<path d="M259.485,154.968c-0.865,0.035-1.646,0.027-2.397,0.096c-0.769,0.064-1.542,0.173-2.314,0.317
		c-0.773,0.146-1.544,0.329-2.312,0.536l-1.15,0.33l-1.049,0.331c-1.438,0.705-3.082,1.286-4.366,1.943l-0.327,0.237l-0.44,0.349
		c-0.302,0.246-0.635,0.522-1,0.782c-0.066,0.042-0.265,0.203-0.421,0.257l-0.281,0.132l-0.498,0.25
		c-0.328,0.171-0.651,0.35-0.966,0.538c-1.257,0.747-2.428,1.655-3.499,2.591c-1.073,1.027-2.121,2.029-3.138,3.001
		c-2.068,1.967-4.078,3.779-6.044,5.268c-3.985,2.925-3.901,1.944-2.23-0.067c1.655-2.039,4.603-5.448,6.793-7.546
		c0.551-0.522,1.156-1.095,1.807-1.711c0.644-0.627,1.433-1.329,2.258-1.957c0.832-0.645,1.753-1.283,2.757-1.861
		c0.502-0.289,1.022-0.564,1.56-0.817l0.355-0.163l0.16-0.112l0.618-0.477l0.716-0.558l0.444-0.313
		c0.288-0.166,0.372-0.19,0.52-0.265c0.552-0.264,1.106-0.501,1.648-0.727l1.577-0.668l0.745-0.345l0.572-0.235l0.421-0.137
		c2.244-0.727,4.541-1.324,6.772-1.594c1.18-0.156,2.924-0.174,5.233-0.552c1.152-0.18,2.428-0.441,3.786-0.818
		c1.323-0.354,2.822-0.978,4.582-1.411c0.87-0.217,1.794-0.4,2.767-0.491c0.544-0.066,0.997-0.034,1.451-0.024
		c0.461,0.012,0.928,0.025,1.398,0.038c1.882,0.051,3.837,0.103,5.84,0.158c3.883,0.212,7.916-0.029,12.118-0.129
		c2.083-0.042,4.234,0.005,6.297,0.198c2.172,0.15,4.316,0.748,6.217,1.57c1.917,0.82,3.626,1.864,5.181,2.928
		c0.384,0.271,0.765,0.541,1.14,0.806l0.551,0.405c0.373,0.278,0.467,0.441,0.626,0.578c0.61,0.61,1.206,1.205,1.782,1.783
		c2.215,1.979,4.906,3.404,6.757,5.043c0.468,0.411,0.903,0.805,1.277,1.215c0.103,0.144,0.534,0.437,0.799,0.603
		c0.613,0.373,1.188,0.647,1.597,0.854c0.407,0.211,1.017,0.494,1.811,1.003c0.87,0.567,1.533,1.223,2.422,1.908
		c1.749,1.413,4.058,3.108,6.654,5.204c0.323,0.266,0.65,0.536,0.982,0.81l0.378,0.373l0.181,0.205l0.396,0.404
		c0.557,0.533,1.227,1.045,1.955,1.588c0.372,0.281,0.747,0.566,1.127,0.854l0.611,0.496l0.529,0.506
		c0.69,0.661,1.394,1.334,2.107,2.017c2.836,2.709,5.87,5.563,8.874,8.534c1.51,1.493,2.98,2.979,4.475,4.55
		c1.384,1.606,2.693,3.229,4.02,4.81c1.319,1.584,2.617,3.141,3.877,4.656c1.247,1.585,2.48,2.788,3.862,4.016
		c1.35,1.208,2.711,2.38,3.902,3.629l0.48,0.515l0.398,0.556c0.232,0.317,0.461,0.628,0.685,0.934
		c0.465,0.608,0.912,1.194,1.341,1.755c1.757,2.237,3.196,4.205,4.119,5.669c0.295,0.47,0.28,0.448,0.5,0.646
		c0.189,0.168,0.525,0.387,0.92,0.747c0.188,0.17,0.407,0.414,0.551,0.613l0.337,0.441c0.217,0.29,0.431,0.573,0.639,0.849
		c0.831,1.128,1.537,2.152,2.161,3.047c1.22,1.75,2.144,3.075,2.772,3.976c0.588,0.884,0.786,1.387,0.48,1.465
		c-0.291,0.067-1.11-0.289-2.262-1.344c-1.173-1.029-2.944-3.107-4.856-5.639c-0.245-0.316-0.494-0.638-0.748-0.966l-0.379-0.492
		l-0.325-0.342c-0.254-0.23-0.646-0.481-1.036-0.887l-0.278-0.327l-0.231-0.357l-0.334-0.556c-0.905-1.483-1.968-2.94-3.062-4.381
		c-0.551-0.726-1.097-1.447-1.635-2.158c-0.267-0.363-0.531-0.722-0.792-1.077l-0.385-0.538l-0.189-0.268l-0.132-0.15
		c-1.113-1.209-2.298-2.256-3.372-3.216c-2.168-1.875-3.778-3.612-4.294-4.312c-0.569-0.709-2.512-3.132-5.189-6.471
		c-2.543-3.472-6.338-7.309-10.317-11.276c-2-1.963-4.027-3.952-5.991-5.878c-1.007-0.932-1.897-1.98-2.925-2.752
		c-1.027-0.805-2.084-1.544-2.977-2.406c-0.828-0.95-1.699-1.615-2.574-2.32c-0.865-0.673-1.674-1.303-2.415-1.881
		c-1.501-1.133-2.724-2.058-3.572-2.698c-0.884-0.607-1.81-1.547-3.124-2.196c-1.264-0.697-3.005-1.26-4.224-2.701
		c-2.544-2.458-6.524-4.217-9.24-7.477c-3.107-2.622-6.852-4.809-10.493-5.608c-3.668-0.662-7.045-0.572-9.451-0.527
		c-2.422,0.054-5.439,0.338-8.721,0.412c-3.243,0.072-6.716,0.148-10.038,0.221c-3.121,0.19-5.832,1.8-8.576,2.54
		C262.927,154.646,260.732,154.917,259.485,154.968z"/>
	<path d="M192.635,202.349c3.145-2.703,6.576-6.376,10.157-10.191c3.56-3.854,7.575-7.579,11.414-10.68
		c7.715-6.162,11.242-8.012,10.055-7.142c-1.152,0.923-3.196,3.111-8.879,7.786c-5.691,4.689-9.704,8.969-11.955,11.577
		c-1.137,1.294-1.502,1.629-2.475,2.572c-0.993,0.926-2.513,2.538-6.294,6.107c-3.817,3.544-6.505,5.178-7.773,5.825
		c-1.282,0.641-1.186,0.324-0.01-0.558c1.17-0.893,2.649-2.181,3.787-3.291C191.804,203.244,192.635,202.349,192.635,202.349z"/>
	<path d="M179.504,211.822c0.646-0.26,1.299-1.02,2.046-1.345c0.747-0.325,1.315-0.035,1.215,0.031
		c-0.1,0.066,0.001,0.663-0.499,0.991c-0.5,0.329-0.825,0.708-0.981,0.976c-0.157,0.269-0.21-0.028-0.91,0.432
		c-0.699,0.46-1.221-0.026-1.097-0.273C179.4,212.387,179.504,211.822,179.504,211.822z"/>
	<path d="M92.182,330.862c0.9-0.797,1.918-1.849,3.101-2.842c1.189-0.977,2.403-1.883,3.515-2.704
		c2.201-1.617,3.258-2.164,3.003-1.837c-0.282,0.294-0.447,1.345-2.106,2.716c-1.651,1.339-2.972,2.424-3.604,3.132
		c-0.633,0.733-0.535,0.19-2.633,2.22c-2.08,2.083-2.985,1.98-2.474,1.291C91.485,332.152,92.182,330.862,92.182,330.862z"/>
	<path d="M83.998,336.378c0.676-0.288,1.413-1.212,2.41-1.51c1.009-0.288,1.506,0.262,1.358,0.272
		c-0.143,0.04-0.262,0.605-0.802,0.847c-0.563,0.254-0.916,0.665-1.086,0.942c-0.174,0.285-0.21-0.026-0.986,0.516
		c-0.821,0.558-1.34,0.015-1.169-0.233C83.88,336.962,83.998,336.378,83.998,336.378z"/>
	<path d="M221.782,276.684c2.087,1.903,3.076,4.821,3.801,7.673c0.46,2.845,2.365,5.177,4.465,7.495
		c1.043,1.146,2.2,2.281,3.229,3.568c1.036,1.272,1.944,2.66,2.731,4.067c0.411,0.703,0.743,1.438,1.133,2
		c0.398,0.594,0.877,1.131,1.41,1.651c0.561,0.526,1.116,1.048,1.666,1.565c0.522,0.494,1.089,0.957,1.664,1.417
		c1.154,0.917,2.282,1.816,3.15,2.86c0.431,0.517,0.809,1.065,1.089,1.635c0.277,0.57,0.454,1.059,0.679,1.498
		c0.888,1.705,2.197,2.807,3.025,3.685c1.756,1.729,2.151,2.409,1.52,1.766c-0.634-0.644-1.777-1.345-3.49-2.809
		c-0.843-0.711-1.823-1.824-2.489-3.312c-0.671-1.39-2.018-2.636-3.783-3.974c-0.872-0.675-1.767-1.376-2.533-2.111
		c-0.772-0.707-1.566-1.391-2.254-2.174c-0.696-0.759-1.232-1.71-1.647-2.49c-0.448-0.8-0.898-1.555-1.364-2.25
		c-1.839-2.797-3.985-4.608-5.417-6.186c-1.432-1.566-1.79-2.086-2.662-3.554c-0.392-0.732-1.005-1.804-1.339-3.495
		c-0.416-1.558-0.782-3.83-2.422-6.268c-0.427-0.595-0.887-1.065-1.412-1.526c-0.52-0.449-1.078-0.997-1.443-1.575
		c-0.734-1.159-1.066-2.19-1.589-2.866c-1.202-1.443-2.018-2.686-2.25-3.56c-0.255-0.877-0.11-1.267-0.038-1.183
		c0.105,0.073,0.194,0.574,0.619,1.326c0.418,0.757,1.095,1.525,1.831,2.278c0.357,0.358,0.783,0.793,1.077,1.26
		c0.306,0.456,0.561,0.909,0.811,1.309c0.484,0.812,0.994,1.326,1.452,1.674C221.487,276.454,221.782,276.684,221.782,276.684z"/>
	<path d="M262.234,329.812c0.701,0.971,1.572,2.088,2.565,3.096c0.247,0.254,0.505,0.496,0.767,0.73
		c0.291,0.257,0.635,0.633,0.848,0.94c0.474,0.647,0.831,1.27,1.185,1.832c0.689,1.131,1.201,1.739,1.624,1.998
		c0.419,0.259,0.642,0.363,0.43,0.363c-0.192-0.021-0.526,0.135-1.095-0.02c-0.569-0.136-1.277-0.629-1.9-1.511
		c-0.618-0.873-1.113-1.684-1.618-2.195c-0.223-0.232-0.517-0.44-0.795-0.668c-0.262-0.216-0.493-0.406-0.691-0.57
		c-0.764-0.657-0.324-0.52-2.138-2.802c-1.793-2.222-1.775-3.017-1.075-2.536C261.018,328.951,262.234,329.812,262.234,329.812z"/>
	<path d="M360.365,281.265c3.029,3.543,7.902,8.164,10.877,12.959c0.751,1.182,1.306,2.24,1.725,3.131
		c0.147,0.298,0.067,0.217,0.279,0.459c0.145,0.174,0.28,0.349,0.398,0.525c0.239,0.351,0.402,0.703,0.489,1.012
		c0.04,0.151,0.019,0.183,0.083,0.255l0.176,0.231c0.109,0.146,0.187,0.261,0.236,0.34c0.095,0.159,0.065,0.178-0.087,0.04
		c-0.153-0.138-0.359-0.278-0.652-0.471c-0.181-0.298-0.402-0.633-0.777-0.967c-0.187-0.173-0.389-0.334-0.649-0.549
		c-0.311-0.348-0.415-0.56-0.651-0.889c-0.412-0.623-0.892-1.346-1.456-2.199c-2.264-3.42-4.573-5.792-5.928-7.149
		c-1.388-1.341-0.606-0.917-4.528-5.182c-3.915-4.299-4.036-5.649-2.87-4.465C358.204,279.514,360.365,281.265,360.365,281.265z"/>
	<path d="M353.252,273.122c0.279,0.545,1.033,1.009,1.38,1.635c0.347,0.626,0.109,1.202,0.04,1.122
		c-0.067-0.08-0.624,0.119-0.965-0.285c-0.341-0.404-0.719-0.636-0.984-0.736c-0.265-0.099,0.015-0.197-0.462-0.763
		c-0.477-0.566-0.037-1.118,0.205-1.046C352.707,273.121,353.252,273.122,353.252,273.122z"/>
	<path d="M392.096,318.28c1.754,1.333,4.111,2.641,6.505,4.172c1.267,0.799,2.334,1.857,3.347,2.77
		c0.968,0.92,2.143,1.626,3.156,2.666c1.013,0.99,1.594,2.196,1.921,2.993c0.372,0.812,0.72,1.345,0.973,1.358
		c0.294,0.034,0.574-0.284,0.696-0.373c0.135-0.105,0.158-0.078,0.051,0.084c-0.111,0.157-0.195,0.392-0.46,0.6
		c-0.251,0.249-0.826,0.155-1.224-0.21c-0.418-0.342-0.795-0.859-1.172-1.473c-0.367-0.594-0.819-1.238-1.476-1.908
		c-0.656-0.673-1.401-1.207-2.118-1.733c-0.738-0.545-1.364-1.108-1.938-1.604c-1.145-1.019-2.081-1.681-2.896-2.096
		c-1.609-0.899-0.803-0.628-5.5-3.658c-2.335-1.576-3.459-2.895-3.87-3.559c-0.413-0.673-0.162-0.718,0.444-0.22
		c0.613,0.495,1.493,1.07,2.233,1.488C391.506,317.997,392.096,318.28,392.096,318.28z"/>
	<path d="M177.971,345.287c-0.48-0.745-1.039-1.545-1.465-2.585c-0.43-1.043-0.542-2.24-0.532-3.336
		c-0.001-1.097,0.07-2.157-0.103-3.065c-0.08-0.457-0.225-0.88-0.424-1.281c-0.236-0.454-0.469-0.902-0.697-1.339
		c-1.779-3.534-2.599-4.885-2.182-4.488c0.389,0.419,1.662,1.037,3.17,3.701c0.372,0.682,0.731,1.237,1.056,1.93
		c0.304,0.674,0.449,1.362,0.52,1.974c0.128,1.232,0.1,2.183,0.181,2.858c0.076,0.663,0.054,0.841,0.067,1.341
		c0.043,0.495,0.03,1.298,1.195,2.998c0.572,0.841,1.055,1.509,1.432,1.924c0.181,0.243,0.356,0.249,0.32,0.409l-0.034-0.024
		l0.041,0.005l0.116-0.139c0.221-0.477,0.479-0.474,0.413,0.237c-0.017,0.155-0.144,0.461-0.493,0.528
		c-0.286,0.017-0.519-0.081-0.697-0.177c-0.372-0.198-0.687-0.438-0.958-0.659C178.355,345.657,177.971,345.287,177.971,345.287z"/>
	<path d="M446.864,320.784c0.658,0.412,1.3,0.949,1.931,1.448c0.636,0.522,1.259,0.889,2.064,1.294
		c1.538,0.759,3.178,1.627,4.607,1.944c1.57,0.337,2.85,0.832,3.388,1.414c0.545,0.559,0.523,0.846,0.358,0.655
		c-0.18-0.184-0.574-0.323-1.166-0.436c-0.605-0.115-1.418-0.154-2.662-0.378c-0.612-0.114-1.25-0.263-1.796-0.479
		c-0.526-0.208-1.019-0.402-1.473-0.581c-0.893-0.372-1.634-0.681-2.188-0.912c-1.033-0.419-0.739-0.504-3.364-2.528
		c-0.65-0.422-1.346-0.767-1.778-1.281c-0.444-0.513-0.496-1.049-0.448-1.315c0.125-0.558,0.336-0.408,0.477,0.002
		C445.107,320.539,446.86,320.706,446.864,320.784z"/>
	<path d="M321.63,335.585c0.39,0.666,1.33,1.336,1.778,2.181c0.448,0.848,0.159,1.466,0.089,1.346
		c-0.078-0.116-0.678-0.041-1.066-0.57c-0.394-0.534-0.841-0.86-1.146-1.01c-0.308-0.151-0.002-0.223-0.62-0.945
		c-0.629-0.736-0.194-1.325,0.083-1.195C321.024,335.515,321.63,335.585,321.63,335.585z"/>
	<path d="M315.666,327.435c0.254,0.621,0.807,1.288,1.42,1.995c0.621,0.729,1.218,1.508,1.7,2.262
		c0.955,1.518,0.904,2.379,0.746,2.167c-0.159-0.214-0.938-0.335-1.716-1.381c-0.785-1.047-1.504-1.814-1.998-2.194
		c-0.479-0.427-0.153-0.3-1.228-1.94c-0.52-0.867-0.496-1.597-0.337-1.883c0.155-0.298,0.372-0.238,0.47-0.012
		C314.922,326.939,315.666,327.435,315.666,327.435z"/>
	<path d="M299.135,296.818c-0.997-1.755-1.661-4.224-1.819-6.309c-0.119-2.07,0.286-2.923,0.333-2.636
		c0.056,0.293,0.692,0.842,0.889,2.366c0.201,1.52,0.571,2.685,0.886,3.309c0.147,0.319,0.152,0.411,0.177,0.683
		c0.034,0.262,0.077,0.733,0.539,1.585c0.488,0.805,0.804,1.18,0.985,1.45c0.167,0.289,0.099,0.482-0.245,0.402
		C300.195,297.582,299.095,296.837,299.135,296.818z"/>
	<path d="M318.282,178.551c0.418,0.468,1.355,0.696,1.948,1.159c0.591,0.464,0.652,1.063,0.555,1.027
		c-0.097-0.039-0.553,0.376-1.093,0.099c-0.531-0.275-1.01-0.392-1.325-0.419c-0.314-0.032-0.07-0.189-0.786-0.663
		c-0.359-0.249-0.473-0.574-0.429-0.806c0.046-0.223,0.231-0.332,0.349-0.312C317.75,178.686,318.282,178.551,318.282,178.551z"/>
	<path d="M329.548,189.995c0.387,0.941,1.749,1.844,2.712,2.645c0.961,0.81,1.271,1.426,1.094,1.377
		c-0.167-0.07-0.818,0.292-1.732-0.301c-0.881-0.592-1.602-1.052-2.064-1.316c-0.442-0.288-0.158-0.245-1.083-1.505
		c-0.439-0.682-0.421-1.29-0.24-1.532c0.156-0.241,0.373-0.182,0.47-0.021C328.896,189.706,329.548,189.995,329.548,189.995z"/>
	<path d="M340.958,203.37c0.519,0.505,1.179,0.997,1.922,1.507c0.772,0.52,1.538,1.127,2.302,1.735
		c1.531,1.232,3.033,2.597,4.294,3.927c2.507,2.669,3.122,4.098,2.743,3.71c-0.389-0.383-1.547-0.778-3.486-2.691
		c-1.94-1.912-3.66-3.245-4.718-3.934c-0.53-0.343-0.646-0.484-1.003-0.827c-0.338-0.374-0.953-0.792-2.538-2.021
		c-0.773-0.627-1.326-1.272-1.625-1.882c-0.312-0.61-0.292-1.176-0.197-1.468c0.282-0.587,0.429-0.33,0.474,0.114
		c0.081,0.485,0.545,0.989,0.991,1.308C340.568,203.172,340.958,203.37,340.958,203.37z"/>
	<path d="M104.813,265.43c0.828-0.924,1.464-2.182,2.49-3.618c0.532-0.655,1.111-1.218,1.506-1.767
		c0.399-0.554,0.638-1.127,0.811-1.795c0.303-1.36,0.776-2.572,1.345-3.021c0.536-0.465,0.799-0.421,0.623-0.281
		c-0.167,0.156-0.304,0.512-0.399,1.042c-0.109,0.539-0.108,1.249-0.317,2.376c-0.194,1.147-0.726,2.214-1.294,2.92
		c-0.553,0.713-1.004,1.245-1.218,1.647c-0.451,0.841-0.373,0.365-2.172,2.975c-0.919,1.3-1.934,1.917-2.535,1.846
		c-0.583-0.152-0.317-0.351-0.037-0.484c0.334-0.182,0.651-0.67,0.86-1.078C104.686,265.774,104.813,265.43,104.813,265.43z"/>
	<path d="M116.738,247.669c0.275-0.754,0.725-1.57,1.227-2.293c0.512-0.786,1.21-1.442,1.779-1.93
		c0.589-0.494,1.003-0.767,1.276-0.948c0.268-0.178,0.429-0.242,0.387-0.131c-0.061,0.172,0.177,0.986-0.716,1.894
		c-0.896,0.884-1.381,1.566-1.563,2.106c-0.148,0.516-0.402,0.142-0.995,1.487c-0.226,0.672-0.379,1.113-0.578,1.335
		c-0.191,0.22-0.399,0.197-0.467-0.053c-0.067-0.247-0.184-0.596-0.248-0.904C116.769,247.925,116.738,247.669,116.738,247.669z"/>
	<path d="M127.434,238.794c0.32-0.151,0.688-0.695,1.199-0.651c0.485,0.057,0.587,0.649,0.539,0.64
		c-0.055,0.002-0.13,0.551-0.274,0.58c-0.168,0.034-0.228,0.221-0.202,0.366c0.027,0.153-0.098-0.117-0.262,0.026
		c-0.137,0.136-0.741-0.195-0.788-0.363C127.587,239.233,127.434,238.794,127.434,238.794z"/>
	<path d="M271.323,334.535c0.951,0.491,1.949,1.042,3.109,1.499c0.554,0.269,1.118,0.542,1.674,0.812
		c0.503,0.238,0.994,0.362,1.573,0.538c1.124,0.328,1.947,0.776,2.334,1.18c0.392,0.404,0.379,0.634,0.246,0.512
		c-0.325-0.253-1.097-0.077-2.76-0.452c-0.834-0.177-1.715-0.423-2.345-0.713c-0.646-0.275-1.143-0.475-1.511-0.562
		c-0.789-0.195-0.431-0.343-2.572-1.405c-0.988-0.466-1.561-0.749-1.871-0.98l-0.254-0.19l0.011-0.044
		c0.109-0.456,0.344-0.465,0.495-0.113l0.004,0.008l-0.169-0.162C270.029,334.418,271.323,334.535,271.323,334.535z"/>
	<path d="M260.134,320.958c0.607,0.593,1.111,0.987,1.894,1.41c0.372,0.204,0.774,0.399,1.193,0.602
		c0.424,0.197,0.867,0.444,1.231,0.584c0.389,0.156,0.829,0.274,1.305,0.417c0.451,0.118,1.062,0.368,1.482,0.62
		c0.906,0.54,1.592,1.051,2.384,1.43c0.759,0.418,1.393,0.804,1.914,1.146c0.48,0.265,1.02,0.499,1.342,0.778
		c0.346,0.269,0.489,0.594,0.486,0.745c0.004,0.151-0.038,0.139-0.094,0.005c-0.307-0.677-1.642-0.138-4.082-1.496
		c-1.27-0.545-2.275-1.354-3.131-1.673c-0.84-0.29-1.788-0.42-2.449-0.677c-0.662-0.252-0.736-0.339-1.175-0.613
		c-0.396-0.311-1.178-0.579-2.781-1.862c-1.313-1.202-2.257-1.519-2.711-1.768c-0.464-0.213-0.424-0.432,0.164-0.454
		c0.573-0.004,1.352,0.132,1.963,0.35C259.681,320.712,260.134,320.958,260.134,320.958z"/>
	<path d="M247.894,309.944c0.236,0.02,0.702,0.404,0.823,0.536c0.162,0.141,0.131,0.109,0.444,0.224
		c0.545,0.19,1.12,0.391,1.706,0.595c0.585,0.207,1.181,0.418,1.768,0.626c0.542,0.251,1.07,0.51,1.565,0.782
		c0.815,0.424,1.785,0.641,2.182,1.088c0.409,0.421,0.354,0.655,0.238,0.522c-0.135-0.122-0.434-0.17-0.854-0.161
		c-0.419-0.026-0.999,0.109-1.915-0.237c-1.553-0.78-2.865-1.103-3.632-1.234c-0.385-0.071-0.476-0.142-0.745-0.299
		c-0.135-0.079-0.314-0.178-0.596-0.31l-0.232-0.106c-0.121-0.04-0.259-0.091-0.405-0.171c-0.311-0.162-0.555-0.448-0.661-0.503
		c-0.122-0.077-0.431-0.119-0.596-0.191l-0.273-0.104c-0.153-0.047-0.255-0.099-0.342-0.147c-0.34-0.193-0.515-0.349-0.624-0.458
		l-0.18-0.272c-0.012-0.086,0.124-0.187,0.328-0.176c0.401,0.014,0.853,0.084,1.197,0.019
		C247.54,309.954,247.894,309.944,247.894,309.944z"/>
	<path d="M236.549,298.112c0.617,0.26,1.491,0.426,2.375,0.981c0.694,0.472,1.424,0.811,2.27,1.152
		c0.832,0.337,1.726,0.659,2.601,1.092c0.867,0.444,1.62,0.802,2.377,1.216c0.717,0.392,1.449,0.796,1.923,1.127
		c0.493,0.326,0.866,0.561,1.16,0.707c0.584,0.279,0.837,0.34,0.579,0.364c-0.245,0.002-0.652,0.112-1.335-0.007
		c-0.703-0.129-1.52-0.433-2.698-0.984c-1.178-0.567-2.274-1.085-3.137-1.442c-0.901-0.349-1.697-0.579-2.293-0.769
		c-0.599-0.19-0.753-0.301-1.176-0.578c-0.21-0.146-0.492-0.325-0.909-0.638c-0.326-0.261-0.791-0.49-1.675-0.746
		c-0.437-0.133-0.86-0.287-1.224-0.485c-0.353-0.211-0.49-0.282-0.772-0.398c-0.506-0.195-0.949-0.457-1.121-0.695
		c-0.333-0.501-0.07-0.53,0.335-0.344c0.438,0.188,1.109,0.099,1.797,0.291C236.174,298.112,236.533,298.102,236.549,298.112z"/>
	<path d="M231.484,291.364c0.453,0.204,1.135,0.331,1.848,0.776c0.527,0.357,1.066,0.601,1.713,0.858
		c0.633,0.252,1.321,0.496,2.001,0.831c0.675,0.345,1.233,0.611,1.808,0.935c0.535,0.302,1.107,0.634,1.455,0.899
		c0.366,0.262,0.632,0.455,0.844,0.582c0.418,0.246,0.618,0.328,0.422,0.345c-0.184,0.002-0.497,0.119-1.037,0.057
		c-0.561-0.074-1.19-0.272-2.093-0.694c-0.902-0.434-1.753-0.827-2.404-1.082c-0.688-0.253-1.302-0.414-1.768-0.545
		c-0.469-0.132-0.586-0.226-0.909-0.451c-0.164-0.12-0.378-0.276-0.701-0.513c-0.234-0.194-0.557-0.362-1.235-0.559
		c-0.335-0.102-0.667-0.224-0.954-0.385c-0.278-0.169-0.342-0.214-0.562-0.314c-0.379-0.163-0.733-0.39-0.857-0.597
		c-0.241-0.428,0.009-0.474,0.314-0.357c0.33,0.124,0.835,0.018,1.404,0.151C231.207,291.394,231.467,291.354,231.484,291.364z"/>
</g>
</svg>
