<?xml version="1.0" encoding="iso-8859-1"?>
<!-- Generator: Adobe Illustrator 22.1.0, SVG Export Plug-In . SVG Version: 6.00 Build 0)  -->
<svg version="1.1" id="_x31_" xmlns="http://www.w3.org/2000/svg" xmlns:xlink="http://www.w3.org/1999/xlink" x="0px" y="0px"
	 viewBox="0 0 512 512" style="enable-background:new 0 0 512 512;" xml:space="preserve">
<g>
	<path style="fill:#AA6357;" d="M74.102,495.613c-7.477,3.434,9.968,3.72,21.977,4.257c12.009,0.537,26.628,1.851,29.564-4.257
		c2.937-6.108,11.68-5.753,16.095-3.878c4.414,1.875,7.572,9.637,14.15,8.135c6.578-1.502,3.051-5.655,12.631,0.5
		c9.58,6.155,11.563,2.389,10.135,0.919c-1.428-1.47,4.594-7.023,13.575,0.466c8.981,7.489,16.798,6.991,20.366,4.521
		c3.568-2.47,9.22-1.572,15.363-1.572c6.143,0,25.53,2.362,22.422-3.414c-3.108-5.777-8.821-16.993-8.639-22.534
		c0.181-5.541,6.059-14.863,0.295-22.135s-7.117-10.98-11.699-16.579s-9.45-12.618-15.89-23.366s-15.201-29.212-15.525-33.436
		c-0.324-4.224-10.09-51.546,3.576-72.545c13.666-20.999,36.457-23.531,41.796-24.125c5.338-0.594,45.569-7.463,53.925-5.507
		c8.356,1.956,40.298-1.598,44.186-9.565c1.944-3.984,4.514-12.412,8.565-19.036c4.05-6.624,9.581-11.445,9.581-11.445
		s27.329-14.268,39.995-15.226c12.666-0.959,16.762-6.148,21.887-11.564c5.124-5.416,3.085-10.571,3.085-10.571
		s-7.445,10.192-12.898,12.432c-5.454,2.239-13.375,0.595-13.375,0.595l3.436-18.555c0,0-8.93,4.448-7.962,6.577
		c0.968,2.129-2.004,11.249-2.004,11.249s-8.836,0.591-16.36,3.279c-7.525,2.688-18.565,6.42-21.347,8.744
		c-2.783,2.323-7.596,5.8-7.596,5.8s-1.61-8.48-1.512-15.819c0.098-7.338,2.222-15.044,4.019-17.636s22.042-21.983,22.042-21.983
		l-9.43-7.092l-12.28,12.403c0,0-10.162,9.161-10.737,10.13c-0.575,0.969-3.069,12.641-6.604,16.346
		c-3.535,3.706-4.663,10.068-4.555,13.731c0.108,3.663,1.228,9.592,0.516,13.016c-0.712,3.423-4.061,13.483-7.405,17.274
		c-3.345,3.791-8.708,9.102-16.418,10.314c-7.71,1.212-41.679,1.966-45.634,1.524c-3.954-0.442-6.117-5.526-11.912-7.026
		c-5.795-1.5-14.516-2.406-18.42-1.001c-3.904,1.404-10.962,5.374-10.962,5.374s2.286-7.509,1.453-12.999
		c-0.833-5.49-4.506-14.111-1.878-19.455c2.628-5.344,5.175-12.013,9.205-14.787c4.03-2.774,10.711-7.546,8.781-12.434
		c-1.93-4.888-5.526-15.741-6.53-17.944c-1.004-2.203-2.866-16.751-3.336-20.171c-0.469-3.42,6.108-11.279,9.414-14.362
		s9.067-9.742,9.067-9.742l-2.22-13.688c0,0-6.002,0.517-6.395,1.825s-1.818,5.779-3.643,8.821
		c-1.825,3.042-2.367,6.946-5.138,6.971c-2.771,0.025-4.051,4.608-4.051,4.608s-4.001,2.334-5.798,4.335
		c-1.797,2.001-2.96,4.77-2.656,6.595c0.304,1.825,0.127,16.134,0.127,16.134l-3.198,9.831c0,0-0.316,6.026-3.18,6.463
		c-2.864,0.437-5.944,2.642-8.365-3.361c-2.421-6.003-6.991-14.608-8.572-16.625c-1.582-2.016-3.943-6.784-3.943-6.784
		l-15.764-14.459c0,0-6.822-7.034-9.871-8.527c-3.05-1.494-9.301-3.249-16.987-4.602c-7.686-1.353-9.616,1.245-11.934-1.978
		c-2.318-3.224-5.051-6.577-5.118-9.913c-0.067-3.336,3.555-15.829,6.549-17.771c2.994-1.943-4.869-3.667-4.869-3.667
		s-1.978,11.174-4.358,12.989c-2.38,1.815-3.195,4.399-4.41,6.975c-1.215,2.576-1.458,8.209-1.458,8.209s-10.884-4.125-13.437-6.004
		c-2.552-1.879-8.193-5.804-12.972-11.3c-4.779-5.496-6.908-9.857-14.513-10.871c-7.604-1.013-7.604,9.958-3.954,12.989
		c3.65,3.032,6.747,10.692,11.739,12.489c4.991,1.797,10.421,9.644,13.638,12.26c3.216,2.617,13.026,5.495,18.464,6.337
		c5.437,0.842,16.523,5.814,21.322,9.26c4.799,3.445,11.073,14.721,15.693,20.642c4.62,5.921,5.88,10.104,2.969,18.507
		c-2.912,8.402-16.88,61.985-19.629,65.46s-8.961,0.958-10.772,2.396c-1.811,1.438-3.85,3.987-7.205,7.448
		c-3.355,3.461-10.052,13.546-11.726,14.842c-1.674,1.296-1.712,3.902-1.676,8.988c0.036,5.086,2.47,10.832,2.47,13.434
		c0,2.602,2.433,6.252,2.433,6.252l-1.996,5.435c0,0-3.629,28.845-2.49,35.887c1.14,7.043,0.841,17.635,4.945,27.091
		c4.104,9.457,14.446,23.753,18.096,33.183c3.65,9.43,9.15,19.772,7.921,30.114s-9.138,14.297-14.917,19.467
		c-5.779,5.171-18.252,13.345-22.921,13.688c-4.669,0.343-9.727,1.841-12.725,4.415c-2.997,2.575-5.419,5.129-5.419,5.129
		S73.674,492.917,74.102,495.613z"/>
	<path style="fill:#5B8449;" d="M204.595,114.223c-4.819-0.024-10.898-5.277-17.043-1.246c-6.144,4.03-15.459,10.721-27.493,9.165
		c-12.034-1.556-29.745-7.257-32.472-7.943c-2.727-0.686-9.37,2.267-15.245,2.892c-5.876,0.625-6.401,3.579-10.605,0
		c-4.205-3.579-4.697,3.268-12.003,2.021c-7.306-1.247-19.163-9.277-21.975-9.804c-2.811-0.527-9.123,3.67-13.847,0
		c-4.724-3.67-4.217-3.473-6.933-3.718c-2.716-0.245-18.621-1.641-20.882-10.784c-2.26-9.142-1.385-10.694-4.212-14.421
		c-2.827-3.728,0.778-1.704-6.874-10.227c-7.652-8.523-1.04-7.625-8.398-13.406s-8.315-4.002-4.158-12.249s7.711-6.532,12.574-7.217
		c4.863-0.686,3.954,1.726,11.171-2.543c7.217-4.269,6.266-3.991,13.523-3.218c7.257,0.773,10.924-5.199,10.924-5.199
		s16.329-9.35,25.499-10.63c9.169-1.28,21.492-0.52,26.872,1.25c5.379,1.771,22.808,9.158,29.689,10.624
		c6.881,1.465,11.147-1.29,16.607-3.125c5.46-1.835,19.892-4.674,25.251-7.499c5.36-2.826,14.726-15.003,20.32-12.782
		c5.593,2.22,11.91,9.362,17.711,10.174c5.803,0.811,15.336,0.537,20.186,3.266c4.85,2.73,18.393,12.73,22.556,17.643
		s2.039,4.43,6.125,5.631c4.086,1.201,16.75,3.473,20.759,7.29c4.009,3.817,8.409,7.809,8.803,12.24
		c0.394,4.432-0.479,4.565-1.334,10.177c-0.855,5.611,0.039,7.713,1.432,10.341c1.392,2.627,7.812,3.305,7.669,6.378
		c-0.143,3.073,0.244,7.062,0.244,7.062s12.805,13.529,17.619,19.854c4.815,6.326,9.782,12.65,7.861,17.089
		c-1.922,4.439-8.824,10.442-8.63,13.142c0.195,2.7,3.761,4.469-1.301,7.135c-5.063,2.668-10.22,3.358-12.097,2.909
		c-1.877-0.45-6.246,0.051-13.75-2.681c-7.505-2.732-9.235-5.369-11.943-5.627c-2.709-0.258-8.027-1.149-10.556-0.208
		c0,0-20.097,2.445-22.376,0c-2.278-2.445-6.071-8.189-8.574-15.101c-2.504-6.912-0.495-12.178-6.079-14.333
		c-5.584-2.155-16.611-2.349-16.611-2.349L204.595,114.223z"/>
	<path style="fill:#5B8449;" d="M385.786,193.777c3.333-1.161,1.863,5.08,4.264,6.543c2.401,1.463-1.618,9.251,7.09,9.804
		c8.71,0.553,8.598-2.379,11.094,1.27c2.497,3.649,2.914,7.747,8.464,7.838c5.549,0.093,5.245-1.723,9.085-1.695
		c0,0,1.844-4.255,6.444-1.451c4.6,2.806,12.925,7.466,18.555,5.332c5.629-2.133,7.239-2.208,11.147-5.464
		c3.907-3.256,6.669-5.168,10.47-5.215c3.802-0.045,21.404,0.351,23.815-0.615c2.411-0.966,9.102-5.583,10.493-6.469
		c1.391-0.887,5.49-3.232,3.129-6.586c-2.362-3.352-1.501-2.598-3.595-6.076c-2.094-3.48-4.855-8.439-7.128-8.39
		c-2.273,0.049-7.917,0-7.917,0s-25.607-8.605-28.773-10.36c-3.165-1.755-6.939-2.436-8.092-6.704
		c-1.153-4.269-5.715-13.787-8.83-14.688c-3.116-0.902-14.358-2.338-14.358-2.338s-8.898-3.573-8.897-5.732
		c0.003-2.159-17.744-8.848-22.529-10.245c-4.785-1.398-19.644,1.003-21.479,2.539c-1.834,1.535-10.072,11.748-16.72,14.897
		c-6.648,3.15-13.46,6.062-15.626,5.997c-2.165-0.066-13.682,1.151-21.357,3.009c-7.675,1.859-9.788,2.065-9.858,6.562
		c-0.07,4.495,0.863,9.408,5.677,11.01c4.814,1.602,16.072,4.115,21.264,3.071c5.193-1.045,9.598-5.865,14.585-3.23
		c4.988,2.634,11.307,5.382,13.607,8.703c2.3,3.32-0.605,0.374,4.427,2.953c5.031,2.579,12.379,2.947,12.379,2.947L385.786,193.777z
		"/>
	<path style="fill:#5B8449;" d="M139.327,258.035c-4.337-0.818-4.72,1.237-10.099-4.91c-5.379-6.146-11.095-5.321-13.755-6.22
		c-2.66-0.899-16.263,2.966-24.717,4.928s-20.14-1.581-20.14-1.581s-2.083-6.956-7.209-9.497
		c-5.126-2.541-34.904-1.096-40.679-2.815c-5.775-1.719-17.986-9.187-19.781-11.76c-1.795-2.572,0.671-15.747,6.904-20.033
		c6.233-4.288,15.722-1.275,22.574-2.493s27.75-7.664,27.75-7.664s8.822-7.397,13.639-9.023c4.816-1.626,26.341-4.027,32.179-3.122
		c5.837,0.904,14.069-0.487,16.775,1.461c2.706,1.947,3.031,3.958,4.483,2.966c1.452-0.99,8.005-4.084,12.077-4.426
		c4.072-0.341,11.378,4.175,14.18,6.55c2.802,2.376,5.522,1.826,5.09,3.382c-0.433,1.556,0.061,11.488-1.925,13.194
		c-1.986,1.705-2.394,3.807-2.196,7.161c0.198,3.352,3.157,12.257,1.865,16.61c-1.292,4.353-3.46,14.358-7.028,17.86
		c-3.568,3.502-7.969,10.355-7.969,10.355L139.327,258.035z"/>
	<path style="fill:#5B8449;" d="M224.623,219.596c0.8,0.093,1.623,0.188,2.452,0.293c4.703,0.598,9.623,1.526,11.93,4.215
		c2.715,3.166,5.706,9.592,9.854,9.671c4.149,0.079,9.854,3.592,15.438,5.016c5.583,1.423,8.935,3.085,6.355,7.804
		c-2.58,4.718-8.87,8.296-9.757,7.414c-0.886-0.88,4.036-0.704-7.334-0.319c-11.369,0.388-14.182-0.079-24.042-0.565
		c-9.86-0.486-9.86-0.486-9.86-0.486s-0.475-8.842-2.611-14.284"/>
	<path d="M105.715,295.124c0.04-1.18,0.052-2.245-0.028-3.523c-0.036-1.285-0.181-2.624,0.219-4.307
		c0.219-0.841,0.712-1.709,1.33-2.331c0.612-0.624,1.259-1.063,1.814-1.459c0.562-0.4,1.061-0.775,1.493-1.192
		c0.467-0.451,0.931-0.951,1.377-1.468c1.761-2.05,3.493-4.598,5.625-6.687c1.006-1.013,2.005-2.019,2.988-3.008
		c0.469-0.491,0.916-0.98,1.339-1.476c0.432-0.531,0.86-1.058,1.283-1.578c0.917-1.108,2.083-2.134,3.333-2.684
		c1.246-0.562,2.349-0.751,3.373-0.892c2.118-0.208,3.618,0.115,4.733,0.284c2.202,0.405,2.862,0.625,2.062,0.629
		c-0.8,0.003-2.046,0.15-4.051,0.377c-1.012,0.131-2.137,0.298-3.459,0.775c-1.348,0.448-2.647,1.121-3.857,2.584
		c-0.605,0.694-1.174,1.547-1.83,2.312c-0.636,0.761-1.284,1.464-1.915,2.128c-1.265,1.321-2.444,2.505-3.417,3.654
		c-1.914,2.296-3.308,4.517-4.605,6.045c-1.232,1.516-1.998,1.964-3.216,2.693c-0.606,0.395-1.381,0.773-1.797,1.662
		c-0.221,0.438-0.326,1.189-0.342,2.171c-0.021,0.98,0.094,2.16,0.129,3.661c0.004,2.87-0.069,5.14-0.206,6.863
		c-0.069,0.858-0.09,1.445,0.047,1.809c0.137,0.398,0.474,0.784,0.699,1.085c0.984,1.201,0.565,1.399-0.819,0.451
		c-0.336-0.251-0.729-0.562-1.036-1.047c-0.295-0.494-0.421-1.066-0.495-1.571c-0.119-0.977-0.24-1.971-0.349-2.861
		C105.898,296.473,105.715,295.124,105.715,295.124z"/>
	<path d="M120.4,299.835c-0.189,1.597-1.394,1.471-2.158,0.517c-0.498-0.622-0.059-2.496-0.051-3.283
		c0.036-3.451-0.321-4.612,2.187-7.184c2.567-2.632,5.153-5.289,7.817-7.817c2.654-2.52,5.667-5.07,7.682-2.133
		c1.487,2.169,2.253,6.25-0.888,8.517c-3.14,2.269-5.461,4.338-7.403,8.129C125.645,300.373,120.4,299.835,120.4,299.835z"/>
	<path d="M142.847,254.283c0.75-1.123,1.392-2.279,2.163-3.652c0.776-1.34,1.645-2.668,2.534-4.005
		c1.779-2.667,3.637-5.383,4.851-8.381c0.618-1.516,1.133-3.118,1.616-4.746c0.44-1.623,1.06-3.376,1.166-4.696
		c0.264-2.87-1.407-5.945-1.809-9.509c-0.104-0.858-0.072-1.847-0.07-2.45c-0.003-0.693-0.042-1.397-0.069-2.086
		c-0.055-1.382-0.083-2.717,0.147-3.99c0.113-0.608,0.295-1.309,0.668-1.878c0.357-0.574,0.783-0.944,1.085-1.237
		c0.61-0.567,0.936-1.02,1.102-1.561c0.167-0.543,0.272-1.204,0.549-1.668c0.276-0.467,0.597-0.687,0.791-0.808
		c0.415-0.208,0.4-0.131,0.03,0.203c-0.388,0.346-0.619,1.004-0.581,1.785c0.056,0.765-0.121,1.888-0.924,2.897
		c-1.834,1.68-0.54,5.063-0.483,9.902c0.171,2.239,1.039,4.339,1.591,6.515c0.279,1.085,0.471,2.203,0.488,3.311
		c0.043,1.096-0.189,2.219-0.422,3.139c-0.908,3.595-1.74,6.613-2.63,8.825c-0.903,2.2-1.341,2.736-2.367,4.234
		c-0.521,0.729-1.208,1.69-2.26,3.163c-1.05,1.49-2.366,3.34-3.96,6.36c-0.854,1.504-1.727,2.803-2.55,3.914
		c-0.412,0.556-0.811,1.066-1.192,1.537c-0.364,0.441-0.629,0.823-0.913,1.261c-1.062,1.724-2.085,3.075-3.036,3.576
		c-0.957,0.503-1.437,0.332-1.377,0.179c0.037-0.195,0.51-0.429,1.094-1.099c0.588-0.679,1.054-1.666,1.504-2.717
		c0.401-1.035,1.066-2.25,1.582-3.092C142.2,255.711,142.847,254.283,142.847,254.283z"/>
	<path d="M120.595,151.86c-2.131-0.668-4.538-1.254-7.105-1.804c-1.29-0.259-2.615-0.525-3.963-0.797
		c-0.677-0.129-1.361-0.259-2.049-0.389l-0.385-0.092l-0.268-0.085l-0.531-0.17c-0.354-0.113-0.711-0.224-1.058-0.367
		c-2.814-1.038-5.475-2.63-7.773-4.501c-2.312-1.867-4.287-3.969-6.055-6.008c-0.877-1.024-1.664-1.985-2.372-2.874l-0.262-0.331
		l-0.167-0.223c0.052,0.014-0.28-0.222-0.453-0.347c-0.415-0.294-0.809-0.574-1.185-0.839c-1.528-1.059-2.758-1.934-3.627-2.649
		c-1.746-1.435-2.087-2.099-1.445-1.61c0.657,0.474,1.807,0.911,3.658,1.693c0.926,0.396,2.034,0.874,3.338,1.566
		c0.162,0.09,0.328,0.18,0.497,0.273c0.161,0.098,0.329,0.175,0.607,0.375c0.292,0.309,0.596,0.63,0.913,0.965
		c0.576,0.63,1.199,1.311,1.871,2.047c2.644,2.97,5.234,5.401,7.694,7.055c2.463,1.65,4.724,2.547,6.432,2.997
		c0.414,0.112,0.753,0.203,1.05,0.283l0.134,0.021l0.225,0.042l0.418,0.087c0.538,0.12,1.021,0.259,1.733,0.452
		c1.42,0.411,3.766,0.932,9.257,2.319c5.496,1.436,8.548,3.084,9.815,4.022c1.27,0.956,0.845,1.19-0.653,0.663
		c-1.51-0.512-3.581-1.005-5.278-1.307C121.912,152.018,120.595,151.86,120.595,151.86z"/>
	<path d="M157.171,189.081c0.018-0.975-0.025-1.991-0.23-2.993c-0.109-0.497-0.234-1-0.416-1.486
		c-0.073-0.251-0.195-0.482-0.298-0.724l-0.106-0.237l-0.233-0.339c-1.377-2.009-2.828-4.124-4.305-6.278
		c-2.932-4.297-6.002-8.644-9.103-12.289c-3.063-3.681-5.528-5.961-6.94-7.403c-1.463-1.374-1.833-1.948-1.23-1.527
		c0.596,0.43,1.672,0.802,3.279,1.764c1.598,0.957,3.793,2.469,6.298,5.249c4.964,5.584,8.271,10.512,10.434,13.191
		c1.061,1.357,1.276,1.804,1.944,2.972c0.334,0.584,0.778,1.354,1.509,2.495l0.286,0.447l0.154,0.238l0.233,0.423
		c0.172,0.415,0.38,0.856,0.528,1.36c0.332,0.994,0.599,2.182,0.712,3.552c0.199,2.744-0.165,4.823-0.422,6.391
		c-0.283,1.568-0.54,2.643-0.756,3.33c-0.404,1.369-0.796,1.146-0.85-0.357c-0.042-1.49-0.066-3.481-0.174-5.056
		C157.386,190.223,157.171,189.081,157.171,189.081z"/>
	<path d="M173.669,152.199c2.932,3.106,7.764,6.778,11.32,10.359c3.568,3.575,4.319,5.759,3.764,5.227
		c-0.549-0.532-2.35-0.798-5.143-3.338c-2.795-2.541-5.208-4.38-6.685-5.381c-1.478-1.005-0.579-0.86-4.47-4.465
		c-3.91-3.643-3.595-5.384-2.377-4.438C171.303,151.055,173.669,152.199,173.669,152.199z"/>
	<path d="M137.075,136.182c1.662,0.533,3.438,0.961,5.432,1.195c1.988,0.252,4.145,0.37,6.392,0.624
		c4.555,0.491,9.167,1.9,12.934,4.074c3.777,2.177,5.792,4.587,6.781,6.039c0.979,1.491,1.071,2.065,0.677,1.584
		c-0.408-0.474-1.202-1.039-2.5-1.893c-1.299-0.857-3.074-2.017-5.705-3.492c-2.646-1.465-5.264-2.327-7.521-2.852
		c-2.27-0.545-4.141-0.667-5.58-0.709c-1.43-0.034-1.836-0.131-2.962-0.342c-0.571-0.096-1.323-0.223-2.475-0.418
		c-1.15-0.19-2.77-0.432-4.937-0.992c-4.291-1.183-6.57-2.224-7.67-2.779c-1.08-0.578-0.826-0.931,0.439-0.795
		c1.252,0.147,2.933,0.346,4.302,0.507C136.033,136.074,137.075,136.182,137.075,136.182z"/>
	<path d="M101.014,122.007c1.399,1.809,3.562,3.596,6.057,5.049c2.476,1.491,5.272,2.656,7.812,3.781
		c5.126,2.179,7.056,3.743,6.225,3.515c-0.805-0.277-2.754,0.251-6.794-1.239c-4.024-1.515-7.213-2.948-9.09-3.861
		c-0.951-0.435-1.141-0.699-1.755-1.234c-0.578-0.586-1.631-1.41-3.794-3.64c-1.068-1.132-1.759-2.171-2.213-3.014
		c-0.182-0.456-0.686-0.839-0.999-1.096c-0.355-0.274-0.483-0.544-0.363-0.664c0.109-0.118,0.322-0.183,0.777-0.123
		c0.45,0.059,1.045,0.225,1.567,0.564c0.427,0.352,0.863,0.712,1.255,1.035C100.41,121.65,101.014,122.007,101.014,122.007z"/>
	<path d="M111.952,382.192c3.706,6.388,8.528,13.783,11.906,19.363c0.81,1.399,3.314,5.345,6.003,10.987
		c2.623,5.521,6.194,12.482,8.214,20.188c1.016,3.838,1.537,7.885,1.294,11.76c-0.226,3.871-1.184,7.521-2.618,10.572
		c-3.006,5.998-6.823,9.586-8.266,11.166c-2.997,3.13-6.755,5.969-11.795,9.08c-1.28,0.775-2.556,1.581-4.066,2.417
		c-1.516,0.872-3.184,1.611-4.956,2.341c-3.543,1.44-7.585,2.611-11.8,4.353c-3.007,1.289-6.367,2.86-8.982,5.321
		c-0.32,0.312-0.674,0.594-0.973,0.929l-1.243,1.43l-0.469,0.546l-0.121,0.126l-0.17,0.003l-0.338,0.005l-1.345,0.028
		c-0.447,0.036-0.871,0.041-1.313,0.108c-1.751,0.2-3.51,0.674-5.188,1.184c-1.707,0.555-3.314,1.075-4.765,1.545
		c-0.749,0.229-1.457,0.446-2.118,0.648c-0.72,0.19-1.388,0.367-1.995,0.529l-0.339,0.022l-0.318-0.002l-0.382-0.009
		c-0.248-0.005-0.482-0.01-0.7-0.016c-0.437-0.012-0.813-0.022-1.119-0.029c-0.614-0.017-0.95-0.027-0.95-0.027
		c-0.061-0.093,0.357-0.208,1.164-0.343c0.408-0.059,0.909-0.131,1.491-0.214c0.273-0.052,0.611-0.045,1.063-0.152
		c0.335-0.133,0.69-0.27,1.062-0.415c2.863-1.108,6.513-3.133,10.849-4.47c1.088-0.317,2.224-0.572,3.392-0.71l0.731-0.064
		l0.272-0.19l0.214-0.284c0.291-0.369,0.68-0.93,1.065-1.34c1.552-1.793,3.449-3.228,5.326-4.393
		c3.799-2.315,7.519-3.492,9.865-4.301c2.368-0.784,5.213-1.652,8.1-2.836c1.45-0.581,2.875-1.292,4.274-2.069
		c1.415-0.829,2.836-1.666,4.206-2.522c2.747-1.704,5.313-3.461,7.421-5.12c2.116-1.649,3.755-3.204,4.849-4.288
		c1.059-1.103,3.465-3.6,5.564-7.375c2.161-3.686,3.372-8.892,3.09-14.021c-0.256-5.142-1.818-10.1-3.355-13.923
		c-1.537-3.836-2.981-6.62-3.501-7.6c-1.059-1.96-2.874-5.326-5.071-9.397c-2.273-3.979-5.261-8.501-8.258-13.115
		c-6.047-9.259-7.025-14.613-7.158-17.18c-0.082-1.306,0.486-0.844,1.063-0.081C111.325,381.131,111.952,382.192,111.952,382.192z"
		/>
	<path d="M110.653,334.379c0.305,1.857-0.187,3.79-0.463,5.235c-0.171,0.708-0.914,4.093-1.257,7.63
		c-0.369,3.528-0.372,7.168-0.095,8.129c0.582,1.928,0.234,4.183,0.909,8.555c0.498,3.151-0.612,8.382-0.612,8.382
		c-0.731,0.112-2.424-7.089-2.492-9.413c-0.067-2.322-0.184-6.52-0.152-7.997c-0.012-0.737-0.055-3.282-0.096-5.781
		c-0.031-2.501,0.074-4.968,0.008-5.513c-0.152-1.087-0.034-3.717,0.292-6.357c0.328-2.658,1.837-3.507,2.78-3.819
		C110.442,333.122,110.653,334.379,110.653,334.379z"/>
	<path d="M255.344,506.013c-1.09-1.742-1.959-3.788-2.779-5.492c-0.419-0.851-0.676-1.643-0.537-2.141
		c0.045-0.258,0.134-0.451,0.211-0.558l0.096-0.148l-0.01-0.079l-0.086-0.212c-0.143-0.284-0.338-0.794-0.544-1.439
		c-0.235-0.773-0.493-1.621-0.766-2.517c-0.761-2.236-2.012-4.276-2.946-5.904c-0.469-0.82-0.856-1.555-1.129-2.214
		c-0.282-0.682-0.418-1.158-0.564-1.945c-0.278-1.438-0.389-2.851-0.417-3.948c-0.041-1.092-0.127-3.132-0.071-5.864
		c0.034-2.73,0.236-6.126,0.234-9.879c-0.04-1.886-0.003-3.783-0.455-6.11c-0.391-2.284-1.78-4.71-3.179-6.164
		c-1.382-1.512-2.578-2.556-3.575-3.645c-0.978-1.027-1.662-1.981-2.272-3.006c-1.214-1.978-2.479-4.668-4.469-7.604
		c-0.984-1.464-2.296-2.947-3.587-4.146c-1.299-1.23-2.616-2.303-3.82-3.349c-1.2-1.04-2.302-2.05-3.172-3.077
		c-0.901-1.04-1.471-1.995-1.959-3.132c-0.941-2.243-1.397-4.698-1.871-6.653c-0.59-2.78-2.029-4.917-3.271-5.866
		c-1.251-0.989-2.187-0.994-2.503-0.587c-0.363,0.45-0.145,1.273,0.382,2.458c0.546,1.182,1.388,2.742,2.498,4.968
		c0.988,1.817,1.726,4.748,3.266,7.559c1.526,2.813,4.355,5.17,6.992,7.574c1.322,1.208,2.599,2.463,3.649,3.8
		c1.048,1.342,1.842,2.713,2.495,3.952c1.286,2.493,2.17,4.422,2.585,5.319c0.199,0.45,0.622,1.261,1.317,2.279
		c0.693,1.027,1.722,2.193,2.899,3.473c1.164,1.285,2.54,2.67,3.258,4.444c0.743,1.774,0.743,3.855,0.656,5.966
		c-0.194,4.207-0.81,8.405-1.118,11.783c-0.348,3.371-0.382,5.935-0.496,6.706c-0.109,0.772-0.115,2.064,0.105,3.662
		c0.119,0.777,0.263,1.702,0.593,2.641c0.304,0.927,0.708,1.836,1.133,2.696c0.86,1.719,1.759,3.275,2.232,4.667
		c0.24,0.693,0.383,1.342,0.448,1.926c0.103,0.742,0.183,1.435,0.229,2.055c0.149,1.251,0.245,2.62,1.516,4.484
		c0.613,0.856,1.409,1.585,2.313,2.057c0.438,0.264,0.918,0.424,1.375,0.6c0.395,0.115,0.834,0.239,1.173,0.305
		C254.073,506.173,255.277,505.966,255.344,506.013z"/>
	<path d="M239.013,286.276c8.433-2.729,18.941-2.913,26.262-3.364c0.46-0.026,1.134-0.065,1.995-0.115
		c0.273-0.019,0.117,0.005,0.302-0.036c0.214-0.057,0.439-0.117,0.673-0.181c0.484-0.146,1.008-0.307,1.568-0.477
		c1.145-0.36,2.492-0.829,4.121-1.203c0.813-0.183,1.714-0.336,2.682-0.379c0.851-0.01,1.734-0.021,2.644-0.033
		c7.151-0.127,15.995,0.672,24.784,0.877c4.396,0.091,8.791-0.01,12.942-0.455c4.161-0.396,8.027-1.328,11.402-2.422
		c0.836-0.298,1.65-0.587,2.436-0.867c0.772-0.317,1.495-0.675,2.203-0.99c1.435-0.596,2.646-1.357,3.75-1.997
		c0.276-0.16,0.543-0.317,0.803-0.467c0.277-0.16,0.226-0.128,0.401-0.317c0.393-0.419,0.756-0.806,1.09-1.161
		c0.654-0.713,1.151-1.307,1.497-1.764c0.693-0.911,1.344-1.845,1.922-2.837l0.415-0.755l0.198-0.388l0.124-0.269
		c0.145-0.567,0.293-1.147,0.443-1.738c0.755-2.722,1.755-5.642,3.181-8.822c1.424-3.178,3.288-6.624,5.97-10.21
		c2.672-3.578,6.219-7.295,11.208-10.413c3.547-2.114,7.767-4.062,12.345-5.485c4.551-1.43,9.37-2.231,13.69-2.391
		c1.08-0.022,2.127-0.05,3.133-0.01c1.111,0.026,1.666,0.065,2.386-0.057c1.339-0.21,2.437-0.887,3.32-1.614
		c0.876-0.746,1.531-1.497,1.974-2.021c0.44-0.537,0.68-0.832,0.68-0.832c0.121,0.01-0.047,0.493-0.499,1.304
		c-0.461,0.798-1.182,1.964-2.402,3.058c-1.206,1.12-3.077,1.9-5.379,1.935c-2.283,0.169-4.759,0.503-7.278,1.039
		c-5.048,1.051-10.225,2.968-14.625,5.128c-2.192,1.085-4.261,2.165-5.949,3.242c-0.852,0.525-1.622,1.061-2.307,1.59
		c-0.71,0.491-1.3,1.01-1.838,1.445c-2.138,1.761-4.472,4.174-6.569,7.059c-2.101,2.882-3.932,6.231-5.403,9.597
		c-0.739,1.683-1.37,3.38-1.933,5.018c-0.258,0.829-0.538,1.63-0.763,2.422c-0.113,0.396-0.224,0.787-0.334,1.171l-0.194,0.677
		l-0.328,0.639c-1.6,2.906-3.556,4.856-4.811,6.165c-0.326,0.327-0.749,0.756-1.261,1.271c-0.153,0.19-0.377,0.355-0.586,0.448
		c-0.174,0.1-0.357,0.203-0.544,0.31c-0.366,0.208-0.757,0.431-1.171,0.667c-1.626,0.994-3.75,1.957-6.15,2.944
		c-4.829,1.936-11.032,3.254-17.187,3.752c-6.16,0.531-12.248,0.403-17.08,0.298c-4.834-0.117-8.443-0.188-9.721-0.133
		c-1.276,0.033-3.011,0.078-5.09,0.133c-1.034,0.012-2.165,0.09-3.363,0.146c-0.584,0.029-1.185,0.06-1.803,0.093
		c-0.538,0.038-1.05,0.117-1.624,0.25c-1.134,0.262-2.365,0.694-3.722,1.185c-0.705,0.243-1.419,0.491-2.144,0.741l-0.575,0.177
		l-0.786,0.217l-1.335,0.116c-3.025,0.243-6.165,0.494-9.307,0.748c-12.436,0.918-17.908,0.856-20.942,0.581
		c-1.495-0.139-0.918-0.706,0.074-1.247C237.616,286.715,239.013,286.276,239.013,286.276z"/>
	<path d="M202.479,391.077c-3.667-4.124-5.814-10.489-6.743-15.004c-0.276-1.13-0.898-4.393-1.401-8.724
		c-0.522-4.332-0.861-9.717-1.307-15.077l-0.183-2.005l-0.042-0.467l-0.012-0.083l-0.059-0.27c-0.078-0.358-0.142-0.718-0.199-1.077
		c-0.226-1.432-0.301-2.848-0.288-4.221c0.024-2.73,0.467-5.366,0.984-7.547c0.904-4.453,1.997-7.84,2.307-9.314
		c0.307-1.48,0.829-2.96,1.374-4.591c0.665-1.583,1.314-3.34,2.296-5.209c1.872-3.773,4.419-8.305,8.651-13.738
		c3.029-3.953,8.122-8.205,12.718-10.758c1.109-0.703,2.258-1.185,3.247-1.686c0.989-0.507,1.902-0.887,2.68-1.17
		c1.536-0.584,2.467-0.939,2.467-0.939c0.343,0.389-4.526,3.049-9.276,7.178c-4.817,4.079-9.23,9.654-11.259,12.391
		c-2.129,2.674-4.725,6.734-6.679,10.777c-1.967,4.034-3.432,7.957-4.059,10.033c-0.363,1.022-1.028,3.344-1.681,6.329
		c-0.291,1.5-0.692,3.158-0.867,4.858c-0.188,1.712-0.231,3.511-0.066,5.264c0.081,0.875,0.215,1.738,0.407,2.563l0.177,0.722
		l0.091,0.734c0.056,0.448,0.113,0.889,0.168,1.327c0.21,1.74,0.408,3.385,0.586,4.848c0.348,2.92,0.649,5.092,0.808,5.857
		c0.648,3.047,1.633,10.61,4.102,17.511c1.225,3.442,2.079,5.91,2.618,7.829c0.501,1.936,0.739,3.278,0.76,4.289
		c0.038,1.004-0.525,0.872-1.118,0.458C203.089,391.756,202.479,391.077,202.479,391.077z"/>
	<path d="M284.261,264.562c6.192,0.048,12.955,0.291,19.794-1.261c3.388-0.779,6.786-1.962,9.785-3.897
		c2.999-1.923,5.587-4.536,7.516-7.649c1.99-3.235,3.865-6.586,5.007-10.098c0.568-1.755,0.931-3.555,1.072-5.366
		c0.119-1.799,0.007-3.692-0.13-5.599c-0.261-3.828-0.75-7.726-0.264-11.764c0.114-1.009,0.34-2.019,0.653-3.035
		c0.363-1.066,0.879-1.997,1.422-2.825c1.085-1.659,2.258-3.047,3.049-4.469c1.531-2.951,2.413-6.258,3.432-9.187
		c0.981-2.985,2.376-5.76,4.096-7.823c1.725-2.077,3.589-3.566,5.22-4.792c1.629-1.195,3.047-2.233,4.254-3.118
		c2.353-1.793,3.748-3.13,4.419-3.771c0.684-0.629,0.677-0.524-0.038,0.294c-0.696,0.835-1.614,1.836-2.856,3.106
		c-1.254,1.254-2.92,2.693-4.96,4.482c-2.01,1.802-4.43,4.014-6.196,7.4c-1.816,3.339-2.501,7.964-4.667,13.142
		c-1.115,2.717-3.093,4.722-4.238,6.827c-1.158,2.002-1.298,4.525-1.356,6.851c-0.009,4.751,0.822,9.23,0.744,13.58
		c-0.1,4.401-1.471,8.257-2.943,11.407c-1.534,3.18-2.966,5.733-4.49,8.004c-1.571,2.177-2.811,3.419-4.016,4.451
		c-1.22,1.016-2.398,1.866-4.24,2.873c-1.828,1.025-4.371,2.177-8.413,3.199c-4.041,0.989-9.619,1.695-17.297,1.621
		c-30.51,0-36.32-1.292-27.602-1.55C269.731,265.337,284.261,264.562,284.261,264.562z"/>
	<path d="M344.193,218.459c0.073-3.464-0.014-7.878,1.39-12.272c1.32-4.388,3.947-8.415,6.739-11.487
		c2.809-3.08,5.094-4.825,6.464-5.829c1.382-0.991,1.924-1.173,1.496-0.737c-0.816,0.894-1.941,3.268-5.926,7.762
		c-3.993,4.534-5.767,9.027-6.229,11.669c-0.234,1.328-0.395,1.678-0.68,2.698c-0.258,1.025-0.717,2.732-0.688,6.939
		c0.249,8.481-1.075,10.196-1.348,7.733c-0.147-1.211-0.462-2.82-0.732-4.134C344.404,219.479,344.193,218.459,344.193,218.459z"/>
	<path d="M361.09,223.696c2.889-0.896,6.185-2.679,9.891-4.227c3.762-1.55,7.828-2.52,11.604-2.844
		c3.766-0.305,6.372,0.012,7.897,0.258c1.527,0.264,1.985,0.522,1.436,0.527c-1.1,0.055-3.315,0.958-8.698,1.481
		c-5.398,0.615-9.477,2.219-11.656,3.402c-2.259,1.183-1.329,0.346-8.527,3.425c-1.834,0.732-3.4,1.127-4.635,1.282l-0.42,0.05
		l-0.215-0.012c-0.163-0.012-0.313-0.021-0.451-0.029c-0.146,0.191-0.266,0.348-0.362,0.472c-0.562,0.939-0.917,0.748-0.794-0.453
		c0.02-0.181,0.041-0.367,0.063-0.562l0.034-0.308l0.115-0.241c0.379-0.122,0.775-0.248,1.175-0.377
		c0.668-0.262,1.209-0.519,1.744-0.801C360.332,224.195,361.09,223.696,361.09,223.696z"/>
	<path d="M71.971,113.238c2.117,1.57,5.466,2.743,8.841,3.116c0.862,0.098,1.524,0.029,2.707,0.077
		c1.059,0.071,2.064,0.288,2.975,0.518c0.91,0.231,1.738,0.451,2.521,0.587c0.775,0.136,1.506,0.164,2.355,0.164
		c3.292-0.013,5.64-0.215,6.82-0.545c0.58-0.166,0.886-0.345,1.015-0.469c0.167-0.122,0.229-0.116,0.136,0.102
		c-0.207,0.823-2.22,2.933-7.534,3.221c-1.301,0.082-2.698,0.041-3.889-0.202c-1.199-0.22-2.239-0.502-3.159-0.637
		c-0.935-0.146-1.687-0.152-2.453-0.075c-0.912,0.059-1.681,0.044-2.329,0.01c-1.299-0.069-1.648-0.217-2.593-0.555
		c-0.93-0.391-2.519-0.752-5.912-2.585c-1.68-0.968-2.854-2.15-3.504-3.254c-0.605-1.152-0.743-2.106-0.607-2.674
		c0.221-1.129,0.646-0.823,0.884,0.062c0.314,0.922,1.222,1.837,2.093,2.356c0.449,0.258,0.832,0.471,1.152,0.585
		C71.789,113.163,71.971,113.238,71.971,113.238z"/>
	<path d="M30.979,101.131c-1.97-1.414-3.927-2.908-5.692-5.136c-0.83-1.105-1.531-2.313-2.072-3.649
		c-0.268-0.669-0.494-1.372-0.645-2.125c-0.163-0.775-0.184-1.58-0.163-2.289c0.049-1.433,0.189-2.696-0.1-3.65
		c-0.336-1.079-0.961-2.252-1.694-3.324c-1.467-2.191-3.5-4.238-5.198-6.799c-0.851-1.237-1.602-2.837-2.009-4.258
		c-0.446-1.394-0.831-2.768-1.459-3.552c-1.335-1.814-4.231-2.594-6.906-4.362c-1.329-0.867-2.708-2.222-3.302-3.979
		c-0.155-0.427-0.254-0.863-0.332-1.296c-0.079-0.49-0.082-0.96-0.06-1.38c0.051-0.842,0.17-1.505,0.152-2.002
		c-0.014-0.506-0.099-0.769-0.404-1.369c-0.276-0.545-0.781-1.405-0.893-2.386c-0.251-1.634-0.007-3.319,0.579-4.773
		c1.205-2.931,3.338-4.85,5.404-6.206c2.093-1.344,4.323-2.124,6.421-2.302c2.058-0.149,3.795,0.09,5.121,0.009
		c1.291-0.125,2.484-0.66,3.529-1.061c2.081-0.899,3.768-1.062,4.487-0.844c0.725,0.188,0.625,0.224-0.201,0.156
		c-0.842-0.022-1.868,0.271-3.029,0.897c-1.191,0.572-2.482,1.612-4.596,2.125c-2.107,0.387-4.59,0.05-7.181,1.02
		c-1.301,0.484-2.657,1.207-3.956,2.219c-1.295,0.998-2.562,2.297-3.424,3.934c-0.89,1.584-1.101,3.554-0.673,5.009
		c0.239,0.698,0.942,1.551,1.161,2.773c0.194,1.173-0.043,2.167-0.062,2.956c-0.054,1.5,0.675,2.891,1.82,3.802
		c1.157,0.956,2.592,1.612,4.005,2.3c1.416,0.693,2.881,1.474,4.028,2.706c0.568,0.595,1.036,1.36,1.338,2.048
		c0.302,0.678,0.529,1.337,0.735,1.947c0.404,1.227,0.766,2.262,1.247,3.093c0.508,0.883,1.084,1.668,1.646,2.381
		c2.309,2.852,3.159,3.657,4.779,6.389c0.401,0.69,0.833,1.537,1.23,2.635c0.206,0.497,0.419,1.307,0.459,2.024
		c0.061,0.744,0.018,1.5-0.034,2.257c-0.144,1.551-0.133,2.884,0.686,4.705c0.382,0.879,0.904,1.806,1.585,2.704
		c0.655,0.884,1.569,1.736,2.615,2.629c4.228,3.465,8.401,5.338,11.513,6.595c3.13,1.137,5.609,1.211,7.145,1.447
		c3.102,0.364,2.579,0.767-0.694,0.86c-1.633,0.027-3.581,0.011-5.554-0.37c-1.989-0.379-3.875-1.084-5.553-1.727
		C33.412,102.606,30.979,101.131,30.979,101.131z"/>
	<path d="M90.812,8.844c1.396,0.04,3.143,0.045,4.755,0.425c1.623,0.35,3.176,0.921,4.654,1.558c1.466,0.624,2.94,1.366,4.305,1.932
		c1.399,0.558,2.892,0.995,4.449,1.383c1.59,0.391,3.196,0.785,4.816,1.183c1.64,0.41,3.348,1.049,4.906,1.595
		c3.19,1.115,6.431,2.249,9.716,3.398c3.343,1.142,6.504,2.829,9.693,3.158c1.596,0.164,3.111-0.044,4.613-0.664
		c1.521-0.61,3.045-1.588,4.865-2.365c3.658-1.376,6.948-2.208,10.309-3.807c3.458-1.456,7.028-2.701,10.684-3.716l2.729-0.723
		c0.837-0.218,1.661-0.503,2.479-0.83c1.631-0.675,3.218-1.545,4.808-2.487c3.173-1.866,6.406-4.106,10.301-5.324
		c1.932-0.61,3.995-0.92,6.055-0.869c2.349,0.123,4.298,1.136,5.973,2.208c3.355,2.166,5.965,5.016,8.934,6.671
		c2.979,1.745,6.434,2.111,10.086,2.117c1.821,0.059,3.539-0.134,5.566-0.099c0.984,0.017,2.065,0.135,3.096,0.438
		c1.016,0.289,1.93,0.703,2.799,1.136c1.731,0.872,3.273,1.886,4.784,2.676c1.669,0.87,3.262,1.849,4.782,2.885
		c1.519,1.037,2.972,2.125,4.389,3.211c1.419,1.119,2.791,2.085,4.239,3.331c2.744,2.458,4.95,5.034,7.081,7.495
		c0.511,0.664,1.016,1.32,1.517,1.971c0.513,0.653,0.989,1.325,1.4,1.788c0.439,0.482,0.65,0.597,1.368,0.84
		c0.68,0.226,1.439,0.435,2.144,0.635c5.765,1.655,11.027,3.166,15.793,4.535c1.309,0.454,2.501,1.343,3.358,2.2
		c0.893,0.894,1.594,1.635,2.416,2.404c1.593,1.508,3.175,3.013,4.363,4.711c2.374,3.441,3.109,7.066,3.082,10.084
		c-0.122,3.047-0.961,5.453-2.178,7.109c-0.663,0.811-1.345,1.283-1.835,1.749c-0.507,0.451-0.841,0.863-1.031,1.221
		c-0.367,0.724-0.276,1.144-0.338,1.059c0.002-0.058-0.152-0.661,0.408-1.531c0.555-0.869,1.563-1.552,2.416-2.631
		c0.798-1.123,1.295-2.596,1.582-4.277c0.288-1.685,0.276-3.615-0.212-5.679c-0.481-2.053-1.345-4.286-2.917-6.322
		c-1.553-2.067-3.858-3.788-6.202-6.041c-1.132-1.123-2.306-2.097-3.914-2.52c-1.681-0.431-3.438-0.881-5.273-1.351
		c-3.706-0.973-7.731-2.008-12.1-3.215c-0.54-0.166-1.208-0.364-1.817-0.815c-0.594-0.444-0.989-0.948-1.37-1.424
		c-0.713-0.91-1.439-1.837-2.181-2.783c-1.548-1.854-3.294-3.729-5.092-5.578c-0.913-0.918-1.848-1.792-2.825-2.568
		c-1.028-0.785-2.051-1.567-3.066-2.342c-2.036-1.55-4.052-3.041-6.133-4.334c-1.044-0.654-2.083-1.236-3.175-1.802
		c-1.127-0.595-2.169-1.234-3.209-1.815c-1.038-0.581-2.071-1.109-3.11-1.482c-1.036-0.375-2.054-0.517-3.186-0.529
		c-4.536,0.103-9.361,0.507-13.815-0.971c-2.208-0.741-4.188-1.953-5.892-3.289c-1.696-1.324-3.24-2.671-4.825-3.825
		c-1.574-1.142-3.205-2.138-4.834-2.501c-0.408-0.11-0.798-0.128-1.204-0.16l-1.322,0.036c-0.871,0.082-1.733,0.178-2.564,0.401
		c-3.356,0.796-6.266,2.621-9.056,4.334c-2.784,1.74-5.555,3.394-8.46,4.41c-1.515,0.484-2.822,0.791-4.082,1.158
		c-1.264,0.364-2.469,0.745-3.615,1.133c-2.293,0.779-4.147,1.498-5.754,2.16c-0.799,0.34-1.541,0.656-2.247,0.957
		c-0.745,0.329-1.465,0.614-2.167,0.871c-1.404,0.513-2.746,0.927-4.172,1.375c-0.697,0.228-1.423,0.465-2.197,0.718
		c-0.702,0.247-1.453,0.599-2.301,1.025c-0.849,0.422-1.797,0.932-2.946,1.4c-1.137,0.471-2.55,0.857-4.082,0.928
		c-3.119,0.17-6.46-1.082-10.008-2.58c-3.598-1.395-7.98-2.866-13.104-4.699c-2.461-0.962-5.252-1.556-8.398-2.328
		c-1.565-0.393-3.212-0.857-4.885-1.534c-1.665-0.705-3.209-1.486-4.877-2.157c-1.652-0.672-3.272-1.159-4.881-1.342
		c-0.792-0.096-1.596-0.088-2.49-0.117c-0.851-0.028-1.69-0.056-2.519-0.084c-1.635-0.046-3.195-0.038-4.655,0.153
		c-1.415,0.185-2.927,0.617-4.45,0.863c-0.767,0.13-1.551,0.209-2.319,0.235c-0.804,0.026-1.468-0.026-2.099,0.019
		c-1.29,0.055-2.5,0.32-3.669,0.719c-1.169,0.395-2.305,0.91-3.442,1.387c-1.127,0.457-2.215,0.899-3.265,1.326
		c-4.066,1.753-7.147,4.028-9.507,6.142c-2.335,2.154-3.977,4.153-5.166,5.754c-2.34,3.236-3.123,4.736-3.121,4.288
		c0.072-0.398,0.956-2.748,3.429-6.225c2.467-3.457,6.035-7.07,10.4-9.734c2.142-1.374,4.607-2.348,6.785-3.353
		c2.189-1.055,4.587-2.131,7.055-2.355c0.601-0.063,1.223-0.085,1.78-0.094c0.519-0.007,1.023-0.04,1.515-0.1
		c0.983-0.116,1.928-0.34,2.865-0.573c1.834-0.505,3.789-0.843,5.267-0.894c1.51-0.085,2.694-0.069,3.5-0.068
		C90.373,8.842,90.812,8.844,90.812,8.844z"/>
	<path d="M139.525,116.833c2.131,1.056,4.676,1.787,7.494,2.236c2.815,0.462,5.873,0.667,9.039,1.019
		c1.554,0.162,3.26,0.435,4.745,0.692c1.413,0.228,2.851,0.204,4.28-0.003c2.865-0.419,5.683-1.563,8.467-2.572
		c2.932-1.071,5.391-1.456,7.218-2.132c1.719-0.589,3.018-1.647,4.115-2.262c1.084-0.652,1.913-0.929,2.31-0.995
		c0.4-0.07,0.384,0.008-0.026,0.193c-0.851,0.379-1.743,1.383-3.335,2.967c-0.783,0.786-2.012,1.662-3.539,2.271
		c-1.518,0.662-3.36,1.175-5.357,1.916c-4.067,1.607-7.961,3.202-11.637,3.322c-1.804,0.126-3.554-0.22-4.818-0.375
		c-1.342-0.163-2.541-0.243-3.566-0.296c-2.053-0.103-2.639-0.218-4.255-0.496c-0.815-0.141-1.888-0.327-3.533-0.612
		c-1.646-0.318-3.91-0.694-6.965-1.811c-3.039-1.154-5.199-2.649-6.703-3.919c-1.506-1.284-2.397-2.355-2.893-3.079
		c-0.974-1.465-0.476-1.499,0.87-0.376c1.355,1.123,3.342,2.372,5.037,3.145C138.164,116.459,139.525,116.833,139.525,116.833z"/>
	<path d="M214.244,112.782c1.661,0.021,3.405,0.042,5.218,0.065c1.851-0.001,3.828,0.049,5.89,0.463
		c1.028,0.218,2.091,0.508,3.138,1.065c0.519,0.283,1.04,0.609,1.51,1.053c0.498,0.416,0.977,1.121,1.197,1.76
		c0.24,0.651,0.32,1.195,0.433,1.607c0.109,0.419,0.216,0.65,0.456,1.072c0.438,0.772,1.105,1.636,1.645,2.718
		c0.134,0.269,0.258,0.552,0.369,0.844l0.276,0.733l0.554,1.457l1.111,2.958c0.363,0.998,0.716,2.009,1.034,3.037
		c0.334,1.042,0.576,2.095,0.877,2.955c0.614,1.814,1.562,3.488,2.657,5.111c0.548,0.812,1.129,1.612,1.716,2.414
		c0.601,0.843,1.092,1.461,1.743,2.133c2.532,2.579,5.359,4.184,7.714,4.386c2.527,0.201,4.816-0.041,6.49,0.206
		c0.824,0.094,1.527,0.277,2.205,0.501c0.811,0.062,0.533,0.855,0.621,1.095c0.026,0.609-0.057,0.533-0.183-0.073
		c-0.036-0.153-0.073-0.314-0.114-0.486c-0.033-0.178-0.331-0.115-0.498-0.183c-0.402-0.069-0.829-0.096-1.304-0.097
		c-0.957,0.005-2.109,0.163-3.553,0.401c-1.45,0.188-3.201,0.636-5.52,0.243c-2.265-0.449-4.646-1.724-6.914-3.782
		c-1.133-1.008-2.119-2.259-2.916-3.354c-0.839-1.118-1.654-2.227-2.37-3.374c-0.725-1.139-1.339-2.32-1.833-3.504
		c-0.497-1.189-0.803-2.409-1.127-3.416c-0.674-2.09-1.438-3.971-2.133-5.662c-0.35-0.849-0.68-1.648-0.987-2.393
		c-0.281-0.727-0.558-1.174-0.928-1.723c-0.73-1.062-1.327-1.836-1.697-2.901c-0.327-1.009-0.317-1.789-0.56-2.269
		c-0.196-0.434-1.139-1.36-3.019-1.854c-0.944-0.271-2.132-0.466-3.584-0.556c-1.437-0.09-3.195-0.051-5.254-0.065
		c-16.414-0.004-19.537-1.296-14.849-1.554C206.441,113.555,214.244,112.782,214.244,112.782z"/>
	<path d="M198.45,182.865c0.375,0.982,0.743,1.997,1.07,3.088c0.308,1.038,0.607,2.047,0.997,3.003
		c0.779,1.969,1.891,3.268,3.917,3.416c0.959,0.098,2.22,0.038,2.991-0.227c0.813-0.281,1.344-0.815,1.717-1.771
		c0.778-1.914,0.699-4.567,1.51-7.316c0.415-1.412,1.108-2.625,1.616-3.72c0.535-1.14,0.823-2.014,0.869-3.184
		c0.066-1.154-0.023-2.401-0.101-3.703c-0.039-0.652-0.074-1.32-0.079-2.015l-0.05-1.872c-0.107-2.518-0.354-5.108-0.21-7.769
		c0.11-1.362,0.165-2.6,0.744-4.137c0.587-1.454,1.63-2.575,2.661-3.413c2.053-1.646,4.182-2.607,5.424-3.752
		c0.622-0.576,1.145-1.31,1.68-2.078c0.587-0.853,1.304-1.617,2.053-2.195c1.5-1.12,2.804-1.764,3.63-2.571
		c0.835-0.829,1.443-1.82,1.922-2.641c0.952-1.68,1.388-2.886,1.609-3.448c0.201-0.571,0.265-0.511,0.127,0.192
		c-0.158,0.698-0.347,1.581-0.713,2.706c-0.387,1.115-0.84,2.518-1.987,4.051c-1.189,1.555-3.349,2.503-4.667,4.484
		c-0.651,0.982-1.386,2.438-2.716,3.551c-1.3,1.083-2.748,1.89-4.154,2.926c-1.397,1.011-2.482,2.195-2.837,3.601
		c-0.355,1.489-0.406,3.153-0.377,4.711c0.035,1.576,0.155,3.121,0.255,4.631c0.124,1.502,0.117,3.034,0.203,4.339
		c0.09,1.358,0.228,2.71,0.214,4.061c0.021,1.326-0.265,2.813-0.749,3.935c-0.459,1.146-0.958,2.084-1.295,2.934
		c-0.351,0.846-0.514,1.593-0.654,2.37c-0.236,1.562-0.334,2.672-0.539,3.7c-0.226,1.03-0.395,2.026-1.223,3.483
		c-0.413,0.701-1.115,1.583-2.264,2.124c-1.152,0.562-2.493,0.677-3.931,0.646c-0.746-0.012-1.598-0.122-2.513-0.419
		c-0.913-0.289-1.898-0.87-2.658-1.721c-1.537-1.717-2.187-4.024-2.924-6.399c-0.759-2.314-1.656-4.399-2.457-6.231
		c-0.419-0.909-0.813-1.763-1.183-2.566c-0.323-0.7-0.779-1.285-1.259-1.886c-1.968-2.308-3.46-4.266-3.715-5.835
		c-0.223-1.586,0.35-2.124,0.405-1.939c0.152,0.172,0.009,0.985,0.63,2.197c0.635,1.21,1.81,2.386,3.05,3.573
		c0.619,0.602,1.26,1.206,1.854,1.91c0.63,0.752,1.026,1.527,1.431,2.192C197.373,180.638,198.45,182.865,198.45,182.865z"/>
	<path d="M234.574,154.951c0.882-0.974,1.692-1.87,2.42-2.674c0.734-0.735,1.616-1.547,2.207-2.466
		c0.617-0.879,0.925-2.02,0.751-2.78c-0.161-0.761-0.576-1.064-0.83-1.089c-0.591-0.019-0.643,0.897-1.678,1.517
		c-0.532,0.405-1.379,0.859-2.696,1.704c-0.171,0.122-0.346,0.246-0.526,0.374c-0.176,0.145-0.356,0.294-0.54,0.445
		c-0.323,0.273-0.655,0.569-0.996,0.888c-0.682,0.639-1.4,1.376-2.122,2.221c-1.492,1.751-2.634,3.429-3.727,5.109
		c-1.079,1.703-2.044,3.5-2.665,5.442c-0.64,1.93-0.877,3.976-0.784,5.921c0.122,2.004,0.511,3.698,0.878,5.488
		c0.773,3.565,1.894,7.333,4.026,11.094c1.972,3.565,3.989,7.81,4.854,13.034c0.219,1.301,0.19,2.586,0.274,3.979
		c0.079,1.347,0.193,2.665,0.096,3.91c-0.096,2.419-1.978,4.374-3.643,6.279l-1.301,1.463c-0.403,0.474-0.81,0.892-1.264,1.309
		c-0.899,0.827-1.907,1.583-2.884,2.432c-0.973,0.818-1.945,1.85-2.667,2.889c-0.744,1.02-1.431,2.057-2.083,3.094
		c-0.652,1.047-1.27,2.052-1.866,3.132c-0.612,1.094-1.109,2.251-1.463,3.44c-0.727,2.375-0.904,4.846-0.706,7.147
		c0.172,2.298,0.699,4.506,1.216,6.469c0.493,1.945,0.877,3.805,1.04,5.561c0.294,2.942,0.017,4.954-0.277,6.277l-0.874,3.945
		l2.641-2.553c1.6-1.545,2.027-3.037-1.581-1.812l1.947,1.535c0.624-0.753,1.264-1.924,1.619-3.457
		c0.363-1.528,0.431-3.376,0.193-5.426c-0.219-2.031-0.828-4.35-1.525-6.653c-0.635-2.269-1.252-4.787-1.203-7.561
		c0.028-3.607,1.506-6.167,2.861-8.648c0.674-1.204,1.352-2.31,2.076-3.351c0.674-1.015,1.48-1.804,2.481-2.672
		c0.986-0.86,2.142-1.728,3.305-2.941c0.614-0.656,1.046-1.208,1.611-1.824c0.55-0.62,1.147-1.282,1.754-2.033
		c0.602-0.756,1.236-1.581,1.779-2.63c0.573-1.001,0.928-2.484,0.928-3.7c0.043-1.258-0.069-2.501-0.158-3.75
		c-0.032-0.627-0.065-1.271-0.1-1.935c-0.031-0.73-0.118-1.464-0.236-2.207c-0.805-4.741-2.481-8.947-4.344-12.926
		c-1.99-3.747-2.926-7.558-3.421-11.524c-0.127-0.984-0.231-1.971-0.324-2.958c-0.062-0.919-0.106-1.824-0.02-2.705
		c0.135-1.765,0.633-3.419,1.393-4.996c0.767-1.576,1.773-3.085,2.847-4.592C232.351,157.649,233.4,156.255,234.574,154.951z"/>
	<path d="M209.154,266.845c2.207-0.863,4.485-1.716,6.482-3.192c0.497-0.369,0.977-0.775,1.447-1.218
		c0.512-0.486,1.119-1.015,1.749-1.459c1.271-0.92,2.704-1.571,4.021-2.15l1.965-0.887c0.693-0.319,1.407-0.612,2.139-0.873
		c1.464-0.522,3.016-0.889,4.544-1.073c1.531-0.193,3.021-0.229,4.455-0.243c1.416-0.002,2.847-0.017,4.29,0.122
		c2.901,0.271,5.217,1.101,7.015,1.831c1.8,0.748,3.144,1.409,4.157,1.878c2.016,0.932,2.646,1.273,1.852,1.101
		c-0.786-0.191-2.036-0.283-4.054-0.717c-2.025-0.382-4.743-1.314-8.614-1.729c-1.934-0.181-3.884-0.083-5.68-0.029
		c-1.791,0.072-3.416,0.258-4.852,0.615c-1.436,0.358-2.693,0.86-3.788,1.399c-1.134,0.574-2.133,1.08-2.981,1.509
		c-1.618,0.875-2.026,1.027-3.177,1.724c-0.279,0.184-0.603,0.4-0.972,0.712c-0.387,0.319-0.922,0.784-1.567,1.259
		c-1.306,0.987-3.223,2.06-5.916,3.168c-2.612,1.073-4.734,1.921-5.631,2.882c-0.854,0.851-0.715,2.243-0.907,3.02
		c-0.33,1.607-0.697,1.292-0.886-0.301c-0.083-0.791-0.332-1.823,0.072-2.989c0.421-1.144,1.333-1.94,2.079-2.527
		c0.765-0.589,1.463-1.028,1.959-1.342C208.853,267.029,209.154,266.845,209.154,266.845z"/>
	<path d="M309.362,104.297c2.003,1.723,3.707,3.825,5.483,5.826c1.793,2.033,3.704,4.153,5.514,6.506
		c1.793,2.359,3.56,4.937,4.673,8.035c0.557,1.547,0.854,3.259,0.892,4.9c0.016,0.859,0.031,1.549-0.064,2.519
		c-0.105,0.922-0.395,1.865-0.841,2.699c-0.906,1.697-2.231,2.823-3.35,3.886c-1.053,1.067-2.6,2.223-3.448,3.055
		c-0.42,0.434-0.595,0.797-0.734,1.348c-0.114,0.545-0.154,1.27-0.101,1.91c0.09,1.514,0.394,3.065,0.115,5.041
		c-0.054,0.269-0.115,0.541-0.244,0.861c-0.128,0.323-0.362,0.693-0.594,0.932c-0.431,0.448-0.803,0.708-1.171,0.959
		c-0.734,0.493-1.441,0.871-2.152,1.245l-2.103,1.046l-0.987,0.487c-0.357,0.183-0.743,0.377-1.141,0.546
		c-0.789,0.343-1.732,0.619-2.732,0.652c-1.004,0.021-1.896-0.199-2.637-0.401c-1.473-0.422-2.809-0.769-4.232-1.089
		c-5.631-1.264-10.555-1.905-14.663-3.239c-1.025-0.348-1.988-0.768-2.854-1.271c-0.875-0.505-1.621-1.128-2.224-1.666
		c-1.216-1.121-2.193-1.88-3.232-2.263c-0.917-0.346-1.99-0.252-2.839-0.463c-0.878-0.177-1.442-0.677-1.678-1.001
		c-0.444-0.699-0.355-0.628,0.269,0.029c0.715,0.697,1.943,0.647,3.335,0.571c1.466-0.086,3.21,0.788,4.944,2.118
		c3.336,2.883,9.642,2.943,18.276,4.671c2.139,0.403,4.351,1.003,6.242,1.482c1.808,0.489,3.25-0.428,5.119-1.373
		c0.876-0.433,1.723-0.859,2.525-1.303c0.778-0.437,1.605-0.93,2.068-1.388c0.234-0.142,0.329-1.027,0.298-1.82
		c-0.018-0.813-0.11-1.648-0.194-2.487c-0.097-0.829-0.152-1.8-0.042-2.695c0.087-0.911,0.43-1.941,1.023-2.721
		c1.239-1.504,2.398-2.159,3.298-3.115c0.997-0.972,1.934-1.83,2.597-2.652c0.661-0.825,1.032-1.603,1.173-2.384
		c0.081-0.393,0.097-0.749,0.105-1.124c-0.001-0.406-0.002-0.779-0.004-1.127c-0.016-0.686-0.052-1.258-0.11-1.797
		c-0.127-1.076-0.295-2.027-0.805-3.425c-0.516-1.393-1.39-3.22-3.221-5.802c-1.8-2.584-4.739-5.86-8.802-10.408
		c-1.016-1.098-2.024-2.047-3.056-2.885c-1.097-0.827-2.165-1.867-2.977-2.822c-0.838-0.975-1.548-1.933-2.179-2.842
		c-0.638-0.956-1.127-1.642-1.753-2.409c-0.588-0.753-1.151-1.476-1.583-2.294c-0.47-0.866-0.572-1.756-0.615-2.465
		c-0.055-1.451,0.129-2.537,0.253-3.379c0.288-1.668,0.463-2.339,0.62-2.181c0.169,0.163,0.246,1.217,0.214,2.956
		c0.021,1.749-0.007,3.78,1.417,5.171c0.643,0.767,1.39,1.488,2.101,2.313c0.688,0.848,1.274,1.582,1.902,2.285
		c1.225,1.395,2.414,2.469,3.309,3.109c0.493,0.345,0.887,0.621,1.159,0.812C309.207,104.182,309.362,104.297,309.362,104.297z"/>
	<path d="M45.729,199.437c5.092-0.756,9.462-2.284,12.184-4.133c2.761-1.798,3.93-3.528,3.89-4.1
		c-0.025-0.301-0.372-0.37-1.04-0.189c-0.334,0.091-0.745,0.248-1.242,0.462c-0.52,0.181-1.12,0.425-1.813,0.72
		c-1.428,0.524-3.251,1.201-5.649,1.781c-2.396,0.593-5.356,1.078-8.982,1.547c-3.711,0.481-7.254,0.873-10.771,1.635
		c-1.817,0.365-3.412,0.963-4.971,1.435c-1.539,0.488-3.052,0.966-4.546,1.44c-1.477,0.441-2.928,0.83-4.385,1.142l-2.229,0.441
		c-0.836,0.212-1.686,0.313-2.496,0.634c-3.287,1.07-6.221,3.173-8.32,5.911c-2.074,2.765-3.333,6.083-3.846,9.578
		c-0.195,1.755-0.301,3.559-0.09,5.383c0.053,0.916,0.245,1.826,0.417,2.746c0.066,0.465,0.237,0.911,0.353,1.371l0.23,0.82
		l0.146,0.46l0.377,0.312c0.758,0.62,1.526,1.249,2.306,1.888c0.729,0.639,1.604,1.109,2.416,1.685
		c0.414,0.277,0.832,0.555,1.253,0.835c0.445,0.24,0.894,0.481,1.346,0.725c0.912,0.469,1.797,1.03,2.787,1.409
		c3.84,1.781,8.185,3.073,12.937,3.893c9.532,1.638,19.021,1.389,28.134,1.363c1.14-0.002,2.276-0.005,3.408-0.009l1.692,0.005
		l0.813,0.003l0.271,0.041l0.392,0.09c2.076,0.524,4.051,1.426,5.657,2.71c0.801,0.643,1.503,1.383,2.062,2.205
		c0.275,0.413,0.529,0.841,0.729,1.29c0.116,0.217,0.196,0.45,0.281,0.68l0.165,0.439l0.215,0.426
		c0.518,1.051,1.435,2.126,2.486,2.754c0.259,0.162,0.485,0.296,0.869,0.494c0.358,0.172,0.775,0.155,0.993,0.217l1.601,0.26
		c8.535,1.285,16.906,1.13,24.642-0.021c3.87-0.584,7.585-1.411,11.116-2.415c0.879-0.264,1.76-0.496,2.614-0.785l1.281-0.415
		c0.258-0.083,0.166-0.072,0.536-0.012c1.577,0.234,3.089,0.68,4.524,1.276c2.797,1.192,5.1,2.684,7.068,3.902
		c1.962,1.237,3.59,2.214,4.835,2.806c2.51,1.185,3.334,0.949,2.118-0.548c-0.605-0.756-1.681-1.859-3.331-3.357
		c-1.668-1.473-3.87-3.43-7.224-5.302c-1.677-0.92-3.677-1.786-6.014-2.305c-0.292-0.062-0.583-0.143-0.888-0.179
		c-0.341-0.052-0.686-0.102-1.035-0.153c-0.26-0.021-0.545-0.112-0.817-0.081l-0.82,0.272l-0.865,0.288
		c-1.075,0.372-2.207,0.708-3.379,1.073c-4.701,1.397-10.197,2.732-16.588,3.504c-6.844,0.823-12.316,0.611-17.158,0.067
		c-0.605-0.083-1.201-0.164-1.79-0.243c-0.353-0.059-0.483-0.043-0.571-0.096c-0.054-0.022-0.384-0.202-0.556-0.315
		c-0.804-0.481-1.326-1.187-1.766-2.062l-0.307-0.787l-0.435-0.882c-0.321-0.572-0.682-1.12-1.086-1.635
		c-0.813-1.027-1.789-1.91-2.868-2.656c-1.082-0.742-2.266-1.349-3.531-1.831c-0.631-0.248-1.286-0.453-1.961-0.632
		c-0.379-0.1-0.579-0.145-1.162-0.265c-0.375,0-0.754,0-1.137,0.002c-2.699,0.019-5.611,0.038-8.854,0.06
		c-3.233,0.029-6.785,0.066-10.76-0.053c-3.972-0.124-8.386-0.35-13.249-1.166c-7.723-1.335-15.02-4.152-20.5-9.025l-1.006-0.872
		c-0.233-0.162-0.236-0.238-0.296-0.539c-0.244-0.846-0.382-1.712-0.499-2.579c-0.19-1.733-0.235-3.485,0.028-5.185
		c0.41-3.411,1.804-6.625,3.891-9.096c1.051-1.239,2.321-2.227,3.671-3.042c1.403-0.718,2.859-1.332,4.433-1.561l1.19-0.21
		l1.346-0.198c0.891-0.14,1.772-0.315,2.646-0.501c1.746-0.383,3.447-0.844,5.102-1.325c1.634-0.475,3.258-0.947,4.873-1.418
		c1.524-0.472,3.078-0.667,4.7-0.958C39.223,200.328,42.492,199.88,45.729,199.437z"/>
	<path d="M107.706,183.091c-0.243-0.067-0.489-0.135-0.738-0.204l-0.374-0.102c-0.053-0.012,0.056-0.005-0.136-0.021
		c-0.523-0.042-1.058-0.084-1.603-0.128c-1.087-0.073-2.216-0.149-3.375-0.227c-2.316-0.14-4.745-0.227-7.209-0.245
		c-4.925-0.03-9.964,0.353-14.385,1.328c-4.42,0.977-7.365,2.219-9.15,2.923c-1.749,0.771-2.407,0.885-1.812,0.504
		c0.613-0.342,1.286-1.238,2.77-2.255c1.432-1.089,3.679-2.369,7.17-3.305c3.493-0.91,6.71-1.314,9.442-1.574
		c2.737-0.265,5-0.35,6.669-0.45c3.331-0.138,1.917,0.258,11.777,0.899l0.405,0.06l0.24,0.06l0.429,0.11
		c0.28,0.072,0.554,0.142,0.82,0.21c0.527,0.134,1.025,0.261,1.496,0.38c0.936,0.232,1.755,0.419,2.472,0.567
		c1.443,0.278,2.463,0.475,3.126,0.603c1.332,0.266,1.181,0.682-0.263,0.882c-1.43,0.183-3.392,0.249-4.979,0.168
		C108.907,183.202,107.706,183.091,107.706,183.091z"/>
	<path d="M127.797,186.181c0.346-0.227,0.701-0.459,1.064-0.697c0.173-0.116,0.418-0.266,0.655-0.401l0.516-0.296
		c0.697-0.418,1.413-0.95,2.227-1.517c0.81-0.558,1.739-1.165,2.857-1.568c1.111-0.439,2.412-0.512,3.433-0.518
		c2.188-0.058,4.588,0.466,6.558,1.434c0.495,0.235,0.976,0.482,1.437,0.742c0.504,0.276,1.028,0.65,1.417,0.956
		c0.829,0.643,1.572,1.282,2.295,1.905c1.263,1.094,2.326,2.047,3.237,2.792c0.218,0.174,0.427,0.341,0.626,0.501l0.204,0.21
		c0.151,0.138,0.397,0.314,0.612,0.326c0.345-0.245,0.491-0.729,0.558-0.999c0.066-0.283,0.134-0.346,0.199-0.048
		c0.049,0.384,0.377,1.015,0.066,2.272c-0.274,0.178-0.721,0.205-1.225,0.105c-0.48-0.041-1.295-0.432-1.765-0.653
		c-1.094-0.538-2.308-1.356-3.675-2.456c-1.119-0.898-2.186-1.773-3.176-2.432c-0.953-0.575-2.091-1.082-3.03-1.388
		c-1.935-0.641-3.599-0.574-4.841-0.422c-1.221,0.178-1.355,0.163-2.23,0.36c-0.417,0.109-0.967,0.315-1.823,0.833
		c-0.43,0.258-0.934,0.6-1.567,1.027c-0.328,0.212-0.682,0.44-1.066,0.688c-0.203,0.119-0.413,0.241-0.632,0.369
		c-0.137,0.083-0.312,0.193-0.515,0.336c-1.603,1.139-3.05,2.043-4.318,2.517c-0.654,0.227-1.246,0.388-1.857,0.362
		c-0.6-0.012-1.265-0.35-1.395-0.784c-0.219-0.396-0.076-0.641-0.054-0.792l0.215-0.177c0.188,0.003,0.326,0.389,0.609,0.532
		c0.274,0.128,0.847-0.079,1.365-0.412c0.528-0.326,1.038-0.777,1.483-1.173C127.147,186.891,127.797,186.181,127.797,186.181z"/>
	<path d="M323.161,176.042c1.483,0.512,3.163,1.016,4.797,1.531c1.611,0.475,3.313,0.819,5.1,1.003
		c1.787,0.191,3.657,0.243,5.588,0.258c1.912,0.08,3.537-0.204,5.4-0.82c0.953-0.317,1.91-0.636,2.871-0.955
		c0.504-0.157,1.016-0.305,1.542-0.437l0.795-0.182l0.41-0.079c0.229-0.053,0.481-0.102,0.723-0.045
		c0.968,0.105,1.728,0.031,2.577-0.176l0.043-0.018l0.362-0.186l0.765-0.355l0.784-0.313l0.397-0.14l0.557-0.177
		c0.212-0.077,0.564-0.013,0.737-0.026c0.177,0.005,0.353,0.035,0.529,0.056c0.351,0.057,0.687,0.149,1.009,0.262
		c0.64,0.234,1.189,0.558,1.668,0.886c0.973,0.677,1.66,1.307,2.42,1.804c1.662,1.177,3.311,2.345,4.934,3.496l-0.124-0.083
		c1.103,0.782,2.155,1.526,3.174,2.248l0.39,0.28l0.515,0.52c0.222,0.281,0.426,0.578,0.605,0.886
		c0.179,0.309,0.338,0.629,0.469,0.956l0.18,0.494c0.053,0.162,0.02,0.071,0.03,0.109l0.002,0.005l-0.011-0.009l0.102,0.103
		l0.242,0.191c0.152,0.134,0.353,0.236,0.523,0.358c0.385,0.214,0.781,0.417,1.21,0.58c0.847,0.338,1.74,0.588,2.619,0.805
		c0.907,0.212,1.774,0.413,2.602,0.605c0.432,0.112,0.854,0.22,1.266,0.327c0.332,0.078,0.646,0.167,0.978,0.195
		c2.678,0.264,4.974-0.787,6.457-1.592c1.514-0.86,2.389-1.633,2.818-1.984c0.432-0.356,0.453-0.28,0.029,0.221
		c-0.87,0.941-2.086,2.631-5.163,4.158c-0.777,0.353-1.676,0.677-2.73,0.851c-0.524,0.093-1.092,0.138-1.69,0.105
		c-0.601-0.012-1.251-0.16-1.788-0.251c-1.152-0.2-2.45-0.369-3.874-0.674c-1.413-0.327-3.009-0.715-4.573-1.799
		c-0.171-0.133-0.347-0.255-0.504-0.398c-0.202-0.195-0.398-0.382-0.582-0.56c-0.172-0.629-0.237-0.787-0.358-1.063
		c-0.116-0.258-0.251-0.502-0.404-0.732c-0.142-0.209-0.357-0.504-0.434-0.546c-0.244-0.168-0.483-0.333-0.717-0.495
		c-0.964-0.663-1.85-1.274-2.622-1.805l-0.079-0.053c-1.995-1.376-3.867-2.668-5.616-3.872c-0.909-0.668-1.652-1.302-2.376-1.653
		c-0.359-0.178-0.7-0.286-1.031-0.326c-0.183-0.022-0.339-0.024-0.345-0.013l-0.456,0.169c-0.389,0.149-0.763,0.314-1.12,0.492
		l-0.523,0.276c-0.252,0.184-0.715,0.274-0.879,0.321c-0.916,0.228-1.83,0.314-2.693,0.288l-0.32-0.015l-0.159-0.01l-0.024,0.002
		c0,0-0.051,0.02-0.259,0.064c-0.322,0.066-0.634,0.162-0.935,0.242c-0.605,0.18-1.173,0.373-1.712,0.573
		c-2.835,1.048-3.836,1.436-6.491,1.617c-1.408,0.051-2.915-0.058-5.436-0.192c-1.25-0.09-2.729-0.209-4.482-0.511
		c-1.729-0.265-3.815-0.867-5.957-1.545c-2.221-0.667-4.25-1.319-6.019-2.153c-1.731-0.801-3.395-1.916-4.215-3.445
		c-0.82-1.506-0.854-2.919-0.825-3.972c0.043-1.072,0.186-1.887,0.295-2.517c0.419-2.503,0.82-2.077,0.849,0.586
		c0.019,1.305,0.066,2.862,0.634,4.153c0.547,1.317,1.683,2.126,2.897,2.658c1.212,0.547,2.403,0.872,3.25,1.103
		C322.638,175.913,323.161,176.042,323.161,176.042z"/>
	<path d="M391.654,202.64c0.096,0.941,0.295,1.712,0.708,2.519c0.401,0.792,0.996,1.511,1.77,2.095
		c1.551,1.178,3.751,1.786,6.034,1.983c1.148,0.098,2.326,0.114,3.489,0.026c1.218-0.062,2.66-0.257,4.293,0.315
		c0.806,0.281,1.583,0.848,2.097,1.461c0.532,0.611,0.885,1.239,1.184,1.802c0.576,1.123,1.055,2.11,1.566,2.601
		c0.618,0.537,1.625,1.158,2.395,1.628c0.812,0.491,1.572,0.916,2.264,1.278c1.381,0.72,2.522,1.208,3.306,1.366
		c0.799,0.155,1.01-0.01,1.171-0.248c0.136-0.219,0.2-0.215,0.15,0.105c-0.068,0.284-0.3,0.667-0.881,0.827
		c-0.559,0.179-1.312,0.196-2.211,0.084c-1.802-0.276-4.224-0.932-7.295-2.954c-1.769-1.339-2.228-3.166-3.034-4.27
		c-0.751-1.183-1.645-1.495-2.848-1.514c-1.158-0.014-2.408,0.231-3.585,0.253c-1.14,0.048-2.155,0.045-3.027-0.016
		c-1.747-0.129-2.249-0.339-3.55-0.872c-0.646-0.274-1.507-0.68-2.701-1.53c-1.157-0.851-2.751-2.327-3.55-5.061
		c-0.609-2.606-0.522-4.649-0.129-6.31c0.215-0.818,0.584-1.549,1.087-2.06c0.532-0.52,1.209-0.687,1.627-0.61
		c0.842,0.15,1.005,0.488,0.91,0.593c-0.101,0.181-0.537,0.11-1.038,0.3c-1.039,0.417-1.022,2.443-0.798,3.774
		C391.273,201.615,391.654,202.64,391.654,202.64z"/>
	<path d="M367.526,143.212c2.315-2.28,4.748-4.889,7.453-7.189c1.369-1.139,2.63-2.376,4.459-3.41
		c1.857-1.037,3.941-1.245,5.674-1.504c3.532-0.498,7.249-1.451,11.316-1.315c1.991,0.057,4.193,0.525,6.007,1.362
		c1.719,0.717,3.524,1.325,5.369,1.937c1.843,0.613,3.734,1.224,5.62,1.963c0.943,0.366,1.885,0.763,2.817,1.208
		c0.923,0.445,1.755,0.835,2.683,1.248c1.819,0.83,3.71,1.633,5.556,2.865c1.864,1.275,3.275,2.872,4.663,4.333
		c1.382,1.436,2.765,2.96,4.198,3.412c1.56,0.551,3.571,0.419,5.637,0.363c2.071-0.037,4.424-0.147,6.744,0.921
		c2.172,1.031,3.874,2.618,5.271,4.409c1.373,1.805,2.4,3.812,3.165,5.891c0.389,1.038,0.694,2.102,0.956,3.174
		c0.257,1.097,0.441,1.946,0.811,2.764c0.646,1.572,2.072,2.545,3.901,3.499c1.916,0.992,3.74,2.104,5.544,3.067
		c3.552,1.969,7.477,3.014,11.576,3.989c2.019,0.476,4.179,1.028,6.139,1.585c1.962,0.515,4.077,0.897,6.208,1.647
		c2.107,0.802,3.79,1.552,5.63,1.686c0.934,0.086,1.859,0.04,2.978,0.019c0.562,0.008,1.133-0.022,1.92,0.159
		c0.817,0.164,1.629,0.768,2.034,1.242c0.87,0.956,1.349,1.784,1.973,2.433c0.634,0.683,1.478,1.522,2.146,2.468
		c1.404,1.941,1.993,4.077,2.861,5.676c0.353,0.674,1.009,1.426,1.661,2.31c0.624,0.877,1.425,1.995,1.495,3.564
		c0.078,1.54-0.708,2.923-1.612,3.804c-0.895,0.872-1.827,1.449-2.718,1.993c-0.886,0.534-1.773,1.018-2.478,1.511
		c-0.737,0.532-1.534,1.173-2.327,1.785c-1.581,1.249-3.47,2.486-5.517,3.173c-2.047,0.739-4.227,0.911-6.154,0.908
		c-1.898-0.012-3.759-0.024-5.583-0.036c-3.632-0.031-7.118-0.06-10.458-0.09c-1.682,0-3.332-0.105-4.722,0.127
		c-1.428,0.21-2.698,0.711-3.838,1.485c-0.572,0.382-1.114,0.825-1.633,1.295c-0.494,0.46-1.142,1.07-1.754,1.516
		c-1.252,0.947-2.577,1.643-3.776,2.296c-1.161,0.653-2.416,1.306-3.144,2.017c-0.403,0.379-0.856,0.982-1.59,1.449
		c-0.733,0.458-1.497,0.648-2.239,0.713c-1.386,0.095-2.584-0.019-3.774-0.115c-1.157-0.091-2.375-0.258-3.455-0.479
		c-2.221-0.469-4.126-0.918-6.078-1.538c-1.91-0.706-3.428-1.709-4.796-2.596c-1.363-0.901-2.57-1.728-3.711-2.355
		c-1.059-0.591-2.194-0.694-3.229-0.705c-2.102,0.028-3.702,0.033-4.842-0.544l-0.372-0.176l-0.048-0.348
		c-0.025-0.21-0.045-0.379-0.061-0.512c-0.027-0.258-0.027-0.357-0.004-0.31c0.024,0.047,0.071,0.24,0.138,0.574l0.055,0.276
		l0.152,0.262c0.228,0.096,0.49,0.203,0.8,0.282c1.197,0.333,2.546,0.186,4.048,0.112c0.751-0.029,1.556-0.031,2.387,0.15
		c0.84,0.16,1.634,0.631,2.476,1.082c1.683,0.923,3.461,2.145,5.613,3.154c1.083,0.52,2.239,0.872,3.558,1.125
		c1.301,0.279,2.668,0.567,4.112,0.796c1.438,0.245,2.96,0.339,4.576,0.393c1.596,0.016,3.363,0.145,4.377-1.059
		c0.524-0.605,1.303-1.437,2.123-1.921c0.798-0.537,1.643-1.027,2.491-1.516c1.73-0.972,3.295-1.997,4.782-3.554
		c1.583-1.525,3.753-2.879,6.233-3.268c1.222-0.229,2.482-0.243,3.673-0.24c1.215-0.005,2.454-0.012,3.719-0.017
		c2.529-0.007,5.161-0.014,7.898-0.021c2.718-0.053,5.645,0.124,8.413-0.146c2.785-0.303,5.26-1.542,7.446-3.294
		c1.137-0.854,2.192-1.804,3.508-2.611c1.243-0.765,2.47-1.414,3.469-2.21c0.493-0.393,0.915-0.827,1.158-1.261
		c0.257-0.488,0.365-0.96,0.303-1.437c-0.131-0.978-0.978-2.003-1.822-3.082c-1.932-2.398-2.33-5.165-3.83-7.039
		c-0.691-0.984-1.657-1.785-2.56-2.911c-0.834-1.058-1.528-2.159-2.198-2.198c-0.941-0.159-2.303,0.011-3.609-0.039
		c-1.321-0.028-2.686-0.268-3.917-0.668c-1.222-0.379-2.392-0.906-3.436-1.258c-1.087-0.362-2.217-0.636-3.358-0.902
		c-1.139-0.264-2.307-0.53-3.444-0.853c-1.092-0.309-2.191-0.58-3.283-0.845c-4.364-1.029-8.729-2.002-12.592-3.881
		c-1.919-0.924-3.661-1.964-5.352-2.887c-1.618-0.916-3.529-1.676-5.086-3.214c-1.609-1.561-2.21-3.725-2.575-5.383
		c-0.383-1.608-0.896-3.127-1.533-4.512c-1.252-2.78-3.011-5.029-5.032-6.411c-1.049-0.725-1.919-1.101-2.892-1.279
		c-0.968-0.184-1.943-0.214-2.889-0.201c-1.902,0.024-3.653,0.187-5.466-0.015c-0.897-0.08-1.826-0.298-2.734-0.66
		c-0.908-0.357-1.804-1.02-2.441-1.594c-1.37-1.209-2.572-2.644-4.016-4.162c-0.724-0.75-1.51-1.524-2.434-2.194
		c-0.917-0.667-2.109-1.297-3.454-1.943c-1.337-0.643-2.915-1.331-4.555-2.15c-1.589-0.773-3.404-1.481-5.45-2.19
		c-2.043-0.718-4.322-1.424-6.8-2.37c-0.618-0.239-1.25-0.497-1.885-0.767c-0.563-0.231-1.152-0.434-1.776-0.59
		c-1.246-0.305-2.613-0.422-4.06-0.39c-2.908,0.046-6.09,0.755-9.678,1.297c-1.806,0.268-3.492,0.448-4.922,1.3
		c-1.432,0.829-2.948,2.253-4.469,3.568c-1.519,1.36-2.95,2.734-4.291,4.126c-1.373,1.417-2.736,2.792-4.142,4.065
		c-2.799,2.55-5.784,4.721-8.972,6.117c-1.661,0.709-3.053,1.14-4.453,1.824c-1.406,0.638-2.798,1.313-4.269,1.809
		c-1.574,0.553-3.151,0.569-4.543,0.544c-1.413-0.036-2.737-0.166-3.973-0.227c-4.887-0.232-9.063,1.174-12.696,1.741
		c-1.832,0.334-3.499,0.406-4.899,0.626c-1.429,0.214-2.681,0.473-3.744,0.767c-2.137,0.566-3.514,1.369-3.922,2.149
		c-0.072,0.195-0.133,0.372-0.169,0.52l-0.006,0.363c-0.015,0.182-0.047,0.235-0.103,0.134c-0.017-0.1-0.221-0.355-0.148-0.784
		c-0.019-0.456,0.333-0.975,0.827-1.473c1.065-0.943,2.869-1.696,5.183-2.271c2.324-0.638,4.907-0.784,7.455-1.4
		c2.58-0.579,5.263-1.372,8.1-1.786c1.413-0.21,2.872-0.314,4.314-0.28c1.427,0.033,2.811,0.12,4.152,0.093
		c1.356-0.03,2.584-0.146,3.711-0.628c1.191-0.462,2.344-1.047,3.494-1.614c1.135-0.569,2.338-1.127,3.463-1.559
		c1.06-0.409,2.032-0.921,2.936-1.431c1.801-1.044,3.291-2.186,4.487-3.207c1.195-1.021,2.114-1.902,2.736-2.523
		C367.187,143.553,367.526,143.212,367.526,143.212z"/>
	<path d="M240.12,218.507c0.656,0.381,1.425,0.777,2.176,1.404c0.739,0.598,1.389,1.387,1.87,2.198
		c0.964,1.664,1.439,3.083,2.504,4.158c1.107,1.187,2.427,2.208,3.924,2.937c1.525,0.756,3.087,1.094,4.985,1.347
		c1.843,0.274,3.76,0.484,5.731,0.894c1.96,0.401,4.037,1.102,5.826,2.401c1.784,1.32,3.042,3.201,3.81,5.077
		c0.775,1.857,1.283,3.785,1.292,5.852c0.016,2.062-0.703,3.976-1.652,5.383c-0.474,0.715-1.003,1.318-1.528,1.855
		c-0.562,0.574-1.168,1.015-1.733,1.387c-1.152,0.729-2.276,1.22-3.361,1.485c-1.073,0.262-2.176,0.277-3.047-0.141
		c-0.872-0.413-1.306-1.152-1.441-1.664c-0.19-0.529-0.166-0.913-0.172-1.159c0.003-0.487,0.077-0.441,0.189,0.093
		c0.077,0.524,0.395,1.237,1.098,1.731c0.732,0.484,1.829,0.439,2.985-0.086c1.152-0.494,2.506-1.38,3.743-2.651
		c1.175-1.347,2.431-3.171,2.573-5.571c0.139-2.384-0.722-4.846-1.76-6.746c-1.06-1.941-2.693-3.185-4.429-3.866
		c-1.749-0.686-3.538-0.951-5.167-1.149c-1.668-0.183-3.138-0.343-4.384-0.481c-2.625-0.341-3.458-0.749-5.309-1.786
		c-0.914-0.562-2.108-1.359-3.6-2.891c-0.727-0.722-1.619-1.878-2.245-3.182c-0.667-1.309-1.169-2.618-2.432-3.544
		c-0.6-0.456-1.393-0.87-2.108-1.257c-0.723-0.377-1.413-0.725-2.074-1.028c-1.322-0.617-2.512-1.103-3.561-1.487
		c-2.1-0.772-3.63-1.156-4.605-1.404c-1.963-0.407-1.698-0.842,0.521-0.83c2.189,0.072,5.078,0.632,7.368,1.32
		C238.405,217.773,240.12,218.507,240.12,218.507z"/>
	<path d="M110.046,495.399c3.781,0.036,7.987,0.713,11.09-1.509c1.59-1.133,3.23-2.742,4.872-4.296
		c1.699-1.599,3.328-3.146,5.553-4.589c0.651-0.355,1.434-0.518,2.148-0.405c0.553,0.086,1.017,0.222,1.42,0.369
		c0.812,0.296,1.499,0.625,2.157,0.949c1.312,0.649,2.506,1.292,3.678,1.843c2.424,1.165,4.505,1.8,6.111,1.697
		c1.609-0.064,2.755-0.842,3.537-1.564c0.795-0.718,1.243-1.335,1.505-1.594c0.266-0.263,0.32-0.205,0.129,0.167
		c-0.392,0.727-0.598,2.076-2.256,3.688c-0.841,0.77-2.219,1.421-3.926,1.506c-1.704,0.086-3.632-0.365-5.647-1.213
		c-1.631-0.689-3.117-1.454-4.483-2.084c-0.68-0.312-1.339-0.598-1.924-0.775c-0.283-0.081-0.568-0.148-0.743-0.146l-0.286,0.093
		c-1.574,1.083-3.004,2.451-4.146,3.602c-1.173,1.215-2.171,2.248-2.995,3.101c-1.457,1.451-1.907,1.786-3.507,2.661
		c-0.795,0.4-1.905,0.891-3.635,1.228c-1.725,0.346-4.029,0.348-6.953,0.26c-2.85-0.076-5.211,0.139-7.133-0.043
		c-0.951-0.076-1.774-0.22-2.451-0.41c-0.299-0.076-0.813-0.251-1.115-0.362c-0.16-0.069-0.31-0.133-0.452-0.195
		c-0.142-0.055-0.277-0.098-0.239-0.288c-0.046-1.182,0.106-1.513,0.299-1.476c0.097,0.021,0.204,0.133,0.31,0.302l0.156,0.296
		c0.051,0.112,0.067,0.27,0.279,0.248c0.368,0.059,0.58,0.05,1.09,0.067c0.459,0.009,0.94-0.016,1.426-0.06
		c0.972-0.091,1.962-0.263,2.86-0.438C108.561,495.666,110.046,495.399,110.046,495.399z"/>
	<path d="M168.005,490.013c0.672,0.386,1.454,0.789,2.265,1.302c0.822,0.498,1.636,1.164,2.344,1.769
		c1.467,1.251,2.867,2.63,3.976,3.995c2.191,2.725,2.442,4.403,2.077,4.043c-0.364-0.365-1.854-0.403-3.652-2.32
		c-1.787-1.917-3.437-3.185-4.488-3.774c-0.524-0.293-0.615-0.46-0.873-0.794c-0.282-0.327-0.721-0.892-2.287-1.662
		c-1.588-0.748-2.531-1.495-2.819-2.05c-0.301-0.546-0.036-0.846,0.481-0.734c0.523,0.112,1.256,0.159,1.868,0.184
		C167.519,489.994,168.005,490.013,168.005,490.013z"/>
	<path d="M199.941,491.649c1.214,1.039,2.469,2.036,3.86,3.261c0.682,0.612,1.379,1.261,2.044,2.012
		c0.693,0.794,1.197,1.476,1.811,2.21c2.346,2.872,4.89,5.686,7.68,7.139c1.381,0.73,2.656,1.099,3.767,1.216
		c0.552,0.124,1.064,0.062,1.524,0.117c0.233,0.031,0.445-0.016,0.649-0.014l0.338,0.036c0.299,0.091,0.373-0.112,0.464-0.255
		l0.249-0.338c0.136-0.164,0.198-0.146,0.148,0.102c-0.067,0.227-0.014,0.603-0.095,1.044c-0.334,0.164-0.932,0.47-1.564,0.698
		c-1.278,0.45-3.473,0.832-6.137-0.358c-2.631-1.175-4.498-2.92-6.023-4.358c-1.502-1.476-2.661-2.751-3.533-3.654
		c-0.884-0.908-1.028-1.247-1.526-1.957c-0.527-0.73-1.471-1.897-4.394-4.196c-1.451-1.211-2.332-1.759-3.326-1.954
		c-1.004-0.222-1.862-0.356-2.36-0.549c-1.022-0.369-0.83-0.753,0.23-0.87c1.046-0.097,2.509-0.467,3.946-0.15
		c0.688,0.145,1.257,0.375,1.641,0.539C199.712,491.544,199.941,491.649,199.941,491.649z"/>
	<path d="M223.024,492.514c0.202,0.612,0.978,1.211,1.92,1.781c0.932,0.586,2.06,1.204,2.92,2.196
		c0.875,0.996,1.063,2.11,0.937,2.682c-0.112,0.596-0.333,0.756-0.382,0.601c-0.062-0.157-0.358-0.35-0.754-0.57
		c-0.413-0.224-0.824-0.474-1.343-0.963c-1.059-0.997-2.356-1.44-3.146-1.716c-0.405-0.131-0.469-0.267-0.668-0.536
		c-0.189-0.314-0.58-0.663-1.445-1.776c-0.868-1.206-0.605-2.274-0.296-2.606c0.309-0.375,0.708-0.289,0.876-0.021
		C221.924,492.243,223.05,492.552,223.024,492.514z"/>
	<path d="M134.884,376.738c-1.436-6.384-2.715-15.556-2.64-23.197c0.054-7.631,0.927-10.655,0.906-9.519
		c0.012,1.14,0.766,3.421,0.876,9.097c0.122,5.68,0.683,10.184,1.19,12.772c0.259,1.294,0.259,1.671,0.32,2.704
		c0.096,1.027,0.177,2.73,1.025,6.582c0.868,3.841,1.403,6.131,1.474,7.254c0.077,1.12-0.261,1.042-0.71-0.016
		C136.372,380.331,134.884,376.738,134.884,376.738z"/>
	<path d="M159.465,422.662c-0.336-1.762-0.873-3.676-1.57-5.657c-0.35-0.99-0.746-1.995-1.171-3.009l-0.328-0.761
		c-0.023-0.103-0.201-0.312-0.338-0.532c-0.293-0.413-0.627-0.81-0.991-1.189c-1.461-1.525-3.419-2.744-5.292-4.186
		c-0.938-0.722-1.857-1.504-2.681-2.381c-0.211-0.214-0.408-0.441-0.598-0.673l-0.301-0.36c-0.186-0.236-0.223-0.369-0.298-0.482
		c-0.286-0.503-0.544-1.013-0.783-1.519c-0.953-2.034-1.495-3.817-1.949-5.263c-0.439-1.437-0.788-2.577-1.048-3.43
		c-0.534-1.685-0.658-2.243-0.346-1.674c0.301,0.57,0.913,1.351,1.717,2.782c0.829,1.419,1.708,3.543,3.041,6.408
		c0.336,0.704,0.723,1.409,1.081,2.005c0.376,0.455,0.926,1.054,1.422,1.495c1.024,0.939,2.099,1.707,3.114,2.41
		c2.045,1.376,3.804,2.641,4.947,3.848c0.575,0.606,0.876,1.04,1.149,1.487c0.233,0.432,0.21,0.503,0.317,0.761
		c0.076,0.224,0.158,0.463,0.256,0.749c0.352,1.156,1.104,2.989,2.286,7.454c1.106,4.496,1.001,7.294,0.842,8.548
		c-0.187,1.266-0.5,1.056-0.687-0.219c-0.197-1.276-0.597-2.954-1.005-4.284C159.849,423.656,159.465,422.662,159.465,422.662z"/>
	<path d="M161.3,330.286c-0.098,1.607-0.053,3.581,0.003,5.566c0.066,1.966,0.315,3.966,0.516,5.819
		c0.435,3.717,0.009,5.39-0.118,4.823c-0.1-0.565-1.134-1.511-1.618-4.353c-0.474-2.842-0.771-5.168-0.967-6.532
		c-0.203-1.352,0.197-0.765,0.196-4.758c0-3.986,0.994-4.748,1.192-3.607C160.704,328.385,161.3,330.286,161.3,330.286z"/>
	<path d="M180.931,408.75c0.513,1.824,1.393,3.743,2.654,5.547c0.637,0.896,1.351,1.778,2.174,2.582
		c0.785,0.823,1.736,1.53,2.705,2.455c0.946,0.891,1.857,1.926,2.57,3.084c0.722,1.152,1.256,2.362,1.733,3.538
		c0.935,2.339,1.783,4.696,2.322,7.053c0.612,2.443,0.434,4.517,0.55,6.077c0.065,1.593,0.274,2.786,0.586,3.614
		c0.308,0.827,0.687,1.287,0.859,1.523c0.169,0.245,0.124,0.272-0.139,0.05c-0.499-0.42-1.421-1.111-2.063-2.839
		c-0.325-0.846-0.579-1.912-0.757-3.185c-0.202-1.275-0.257-2.749-0.662-4.358c-0.811-3.321-2.037-6.272-3.133-8.637
		c-1.107-2.362-2.594-3.781-3.831-4.767c-1.209-0.951-1.668-1.38-2.515-2.381c-0.438-0.513-1-1.204-1.783-2.313
		c-0.751-1.128-1.757-2.679-2.679-5.063c-1.778-4.823-1.396-7.953-1.224-9.282c0.248-1.363,0.551-1.109,0.675,0.274
		c0.143,1.387,0.529,3.202,1.002,4.608C180.427,407.744,180.931,408.75,180.931,408.75z"/>
	<path d="M184.275,263.994c0.655-0.975,1.122-2.212,1.475-3.564c0.261-1.385,0.439-2.873,0.401-4.427
		c-0.019-3.099-0.516-6.348-0.811-9.361c-0.66-6.076,0.35-8.613,0.314-7.666c0.027,0.932,0.816,2.668,1.422,7.134
		c0.619,4.486,1.163,8.136,1.259,10.35c0.074,1.102-0.043,1.426-0.172,2.283c-0.258,0.837-0.296,2.317-1.715,5.411
		c-0.33,0.784-0.854,1.371-1.221,1.94c-0.416,0.538-0.892,0.922-1.263,1.28c-0.756,0.711-1.483,0.961-1.888,1.159
		c-0.859,0.334-0.884-0.024-0.256-0.653c0.309-0.324,0.689-0.677,1.002-1.096c0.277-0.436,0.558-0.884,0.811-1.285
		c0.248-0.391,0.351-0.81,0.472-1.072C184.212,264.157,184.275,263.994,184.275,263.994z"/>
	<path d="M167.486,284.805c0.228-1.747,0.702-3.826,1.643-5.802c0.913-1.979,2.248-3.845,3.762-5.197
		c1.511-1.361,2.808-1.981,3.601-2.253c0.798-0.272,1.1-0.234,0.86-0.072c-0.469,0.355-1.066,1.535-3.061,3.459
		c-2.009,1.966-2.966,4.041-3.313,5.251c-0.181,0.61-0.266,0.761-0.532,1.189c-0.209,0.441-0.66,1.17-0.92,3.053
		c-0.224,1.876-0.269,3.025-0.481,3.604c-0.204,0.575-0.507,0.548-0.679-0.028c-0.196-0.567-0.427-1.347-0.615-2.01
		C167.602,285.327,167.486,284.805,167.486,284.805z"/>
	<path d="M112.009,306.455c-2.132-0.122-5.019-0.24-5.059,0.582c-0.057,0.796,0.219,2.655,0.534,3.421
		c0.138,0.382,0.723,1.337,1.544,2.141c0.803,0.825,1.754,1.516,2.3,2.052c0.544,0.549,1.485,1.02,2.385,1.316
		c0.896,0.329,1.743,0.513,2.194,0.882c1.357,0.979,1.767-2.438,0.45-1.804c-0.573,0.226-1.58,0.05-2.38-0.415
		c-0.812-0.444-1.4-1.09-1.475-1.38c-0.078-0.295-0.829-1.054-1.292-1.957c-0.502-0.884-0.651-1.85-0.525-2.048
		c0.277-0.4-0.204-1.483,0.565-1.941c0.338-0.212,0.548-0.417,0.649-0.577L112.009,306.455z"/>
	<path d="M108.458,325.458c0.24-2.281,0.531-5.654,1.669-8.114c1.094-2.446,2.246-3.097,2.094-2.741
		c-0.137,0.369,0.293,1.389-0.363,3.213c-0.657,1.831-0.836,3.37-0.804,4.264c0.067,0.901-0.364,0.438-0.593,3.09
		c-0.106,2.649-0.998,3.233-1.235,2.441C108.996,326.833,108.458,325.458,108.458,325.458z"/>
	<path d="M142.121,298.042c1.987-1.023,4.364-2.448,5.398-4.711c1.076-2.312,1.157-5.246,1.414-7.914
		c0.226-2.693,0.701-4.646,1.179-5.712c0.487-1.072,0.782-1.321,0.671-0.932c-0.241,0.822,0.135,2.475-0.048,6.475
		c-0.107,2.019-0.174,3.874-0.408,5.481c-0.217,1.609-0.619,2.963-1.051,3.941c-0.436,0.977-0.712,1.213-1.309,1.783
		c-0.618,0.544-1.645,1.454-4.154,2.909c-2.516,1.419-4.043,1.979-4.821,2.202c-0.781,0.203-0.861-0.103-0.232-0.655
		c0.627-0.529,1.474-1.245,2.168-1.831C141.6,298.495,142.121,298.042,142.121,298.042z"/>
	<path d="M149.136,296.235c-0.161,1.318-0.058,3.295-0.833,4.748c-0.78,1.433-1.841,1.495-1.709,1.311
		c0.104-0.205-0.359-0.941,0.009-1.878c0.368-0.966,0.335-1.828,0.211-2.312c-0.153-0.489,0.285-0.224,0.335-1.652
		c-0.017-1.392,0.869-1.824,1.129-1.402C148.531,295.463,149.136,296.235,149.136,296.235z"/>
	<path d="M175.2,204.941c-0.532,4.121-0.168,10.007-0.318,14.925c-0.157,4.927-0.96,6.904-0.96,6.164
		c-0.001-0.742-0.798-2.212-0.829-5.905c-0.031-3.695-0.218-6.658-0.379-8.396c-0.136-1.742,0.158-0.987,0.451-6.191
		c0.4-5.22,1.633-6.046,1.619-4.561C174.788,202.464,175.2,204.941,175.2,204.941z"/>
	<path d="M201.688,190.228c0.773,1.289,2.467,2.723,3.243,5.175c0.669,2.301,0.619,4.45,0.693,6.243
		c0.039,1.793,0.138,2.813,0.338,3.48c0.213,0.646,0.327,1.02,0.096,0.842c-0.207-0.169-0.727-0.212-1.344-0.777
		c-0.625-0.541-1.224-1.618-1.382-3.113c-0.233-2.965-0.562-5.178-1.191-6.107c-0.298-0.427-0.288-0.581-0.421-1.015
		c-0.135-0.441-0.402-1.111-1.705-2.679c-1.354-1.605-1.661-3.151-1.457-3.792c0.176-0.668,0.594-0.615,0.865-0.15
		C199.983,189.33,201.688,190.228,201.688,190.228z"/>
	<path d="M184.073,322.305c0.648-2.794,2.037-5.518,3.014-8.615c1.141-3.132,2.804-6.196,4.658-8.693
		c3.783-4.946,6.158-6.079,5.513-5.435c-0.575,0.713-1.253,2.546-3.87,6.203c-2.606,3.693-3.879,7.09-4.403,9.09
		c-0.258,0.985-0.414,1.318-0.792,2.076c-0.333,0.772-1.108,2.003-1.98,4.915c-0.78,2.91-0.332,4.581-0.247,5.459
		c0.112,0.872-0.191,0.927-0.696,0.098c-0.472-0.824-0.938-2.076-1.075-3.166C184.037,323.155,184.073,322.305,184.073,322.305z"/>
	<path d="M209.438,295.718c1.585-0.188,3.632-0.784,5.246-0.977c1.569-0.183,2.463,0.093,2.269,0.229
		c-0.207,0.095-0.375,1.123-1.751,1.487c-1.334,0.322-2.353,0.653-2.926,0.953c-0.558,0.303-0.398-0.167-2.131,0.186
		c-1.64,0.396-2.312-0.293-1.898-0.691C208.672,296.516,209.438,295.718,209.438,295.718z"/>
	<path d="M188.116,354.908c0.514-2.996,1.319-7.425,3.624-10.458c1.13-1.499,2.283-2.233,2.99-2.548c0.72-0.314,1-0.288,0.8-0.121
		c-0.399,0.374-0.779,1.521-2.208,3.531c-1.411,2.09-1.91,4.114-2.064,5.275c-0.088,1.19-0.513,0.546-1.101,4.057
		c-0.239,1.755-0.496,2.805-0.784,3.295c-0.286,0.493-0.582,0.412-0.667-0.122C188.494,356.767,188.116,354.908,188.116,354.908z"/>
	<path d="M165.421,473.999c2.133-0.041,4.566,0.164,6.951,1.111c2.379,0.937,4.61,2.6,6.316,4.694
		c0.408,0.538,0.807,1.077,1.198,1.637c0.354,0.61,0.723,1.225,0.977,1.841c0.576,1.237,0.992,2.47,1.417,3.692
		c0.819,2.441,1.532,4.82,2.373,6.985c0.832,2.164,1.712,3.897,2.698,5.065c0.212,0.339,0.509,0.524,0.739,0.78
		c0.231,0.258,0.475,0.46,0.735,0.598c0.251,0.164,0.487,0.317,0.705,0.46c0.245,0.09,0.472,0.174,0.682,0.25
		c0.417,0.202,0.796,0.251,1.101,0.286c0.304,0.048,0.534,0.095,0.686,0.133c0.305,0.077,0.286,0.126-0.069,0.128
		c-0.353-0.014-0.796,0.084-1.385,0.098c-0.574-0.077-1.347-0.064-2.202-0.489c-0.887-0.336-1.81-1.063-2.723-2.079
		c-0.858-1.051-1.731-2.405-2.424-4.1c-1.431-3.371-2.307-6.498-3.311-9.018c-0.512-1.237-0.988-2.388-1.564-3.216
		c-0.58-0.849-1.18-1.612-1.743-2.141c-0.538-0.574-0.916-0.892-1.249-1.204c-0.316-0.333-0.624-0.603-1.096-0.987
		c-0.226-0.207-0.505-0.422-0.873-0.642c-0.357-0.243-0.79-0.512-1.357-0.756c-1.113-0.517-2.732-1.078-5.124-1.147
		c-2.388-0.064-4.319,0.258-5.807,0.503c-1.497,0.26-2.556,0.444-3.243,0.565c-1.379,0.184-1.27-0.169,0.07-0.732
		c1.339-0.544,3.151-1.277,4.712-1.685c0.772-0.227,1.48-0.365,1.985-0.487C165.109,474.052,165.421,473.999,165.421,473.999z"/>
	<path d="M227.949,498.243c1.077,1.378,3.145,2.734,4.619,4.088c1.471,1.349,1.797,2.4,1.529,2.253
		c-0.252-0.162-1.235,0.195-2.525-0.761c-1.266-0.958-2.341-1.643-3.028-1.993c-0.677-0.36-0.202-0.413-1.782-1.962
		c-1.563-1.581-1.083-2.577-0.522-2.251C226.807,497.939,227.949,498.243,227.949,498.243z"/>
	<path d="M218.903,474.19c-0.802-2.283-2.096-4.963-2.836-8.093c-0.406-1.528-0.439-3.345-0.537-4.658
		c-0.068-0.639-0.237-1.123-0.55-1.661c-0.318-0.534-0.729-1.077-1.128-1.457c-0.848-0.818-1.92-1.335-2.808-1.972
		c-0.904-0.598-1.55-1.428-1.76-2.083c-0.233-0.658-0.181-1.096-0.147-1.295c0.035-0.202,0.089-0.188,0.137,0.024
		c0.079,0.419,0.446,1.085,1.306,1.614c0.427,0.269,0.979,0.498,1.687,0.785c0.7,0.291,1.597,0.644,2.533,1.378
		c0.929,0.791,1.586,1.635,2.09,2.608c0.518,0.991,0.601,2.072,0.667,2.877c0.112,1.631,0.405,2.837,0.726,3.747
		c0.33,0.896,0.358,1.168,0.518,1.914c0.164,0.746,0.47,1.959,1.618,4.725c1.161,2.772,1.531,4.606,1.5,5.48
		c-0.023,0.875-0.356,0.805-0.692,0.026C220.544,476.579,218.903,474.19,218.903,474.19z"/>
	<path d="M145.084,468.543c1.581-0.966,2.96-3.419,4.209-5.276c1.255-1.864,2.223-2.501,2.124-2.172
		c-0.128,0.312,0.376,1.318-0.503,2.942c-0.89,1.59-1.585,2.885-1.985,3.69c-0.443,0.775-0.373,0.334-2.321,2.133
		c-1.041,0.87-1.958,1.023-2.391,0.896c-0.434-0.112-0.45-0.427-0.187-0.649C144.604,469.67,145.084,468.543,145.084,468.543z"/>
	<path d="M348.006,231.52l0.139,0.398l0.012,0.083l0.002,0.093c-0.556,0.501,2.047-1.664,3.545-2.787
		c2.134-1.561,3.495-1.614,3.175-1.357c-0.317,0.252-0.41,1.357-1.922,2.641c-1.514,1.287-2.663,2.431-3.363,3.14
		c-0.937,0.787-1.192,0.737-3.131,1.557c0.006-0.307,0.015-0.713,0.025-1.209c-0.002-0.229-0.005-0.477-0.009-0.744
		c-0.036-0.227-0.072-0.462-0.153-0.682c-0.445-1.051-0.794-1.991-0.673-2.47c0.094-0.482,0.406-0.498,0.645-0.203
		C346.794,230.535,348.014,231.456,348.006,231.52z"/>
	<path d="M404.214,224.684c3.375,0.189,7.984-0.488,11.49-1.838c1.774-0.643,3.053-1.132,3.848-1.383
		c0.796-0.25,1.122-0.224,0.872-0.062c-0.509,0.283-1.002,1.768-3.848,3.016c-2.832,1.208-5.26,1.761-6.66,2.138
		c-1.404,0.315-0.854-0.019-5.075,0.108c-4.204,0.04-4.98-0.982-3.793-1.171C402.244,225.298,404.214,224.684,404.214,224.684z"/>
	<path d="M401.229,213.734c-0.332,1.266-0.359,3.025-0.785,4.307c-0.422,1.318-1.023,1.287-0.971,1.443
		c-0.092,0.093-1.023-0.567-0.804-1.671c0.188-1.085,0.185-1.938,0.081-2.458c-0.113-0.508,0.272-0.243,0.482-1.64
		c0.085-0.686,0.32-1.035,0.581-1.244c0.264-0.207,0.561-0.226,0.672-0.002C400.723,212.877,401.229,213.734,401.229,213.734z"/>
	<path d="M403.435,217.825c1.847,0.114,4.296,0.022,5.759-0.403c0.715-0.203,1.225-0.431,1.605-0.634
		c0.376-0.189,0.634-0.229,0.553-0.098c-0.085,0.121,0.006,0.42-0.09,0.87c-0.105,0.419-0.426,1.096-1.262,1.456
		c-1.632,0.674-2.936,0.767-3.668,0.999c-0.721,0.207-0.462-0.219-2.52-0.212c-1,0.028-1.536-0.1-1.875-0.27
		c-0.343-0.184-0.434-0.467-0.142-0.658C402.346,218.471,403.435,217.825,403.435,217.825z"/>
	<path d="M390.965,216.285c1.034-0.913,1.55-2.83,2.181-4.319c0.642-1.502,1.495-2.071,1.461-1.809
		c-0.057,0.246,0.654,0.928,0.277,2.239c-0.382,1.292-0.649,2.365-0.779,3.042c-0.165,0.66-0.279,0.286-1.423,1.876
		c-1.293,1.556-2.286,0.922-2.019,0.455C390.921,217.279,390.965,216.285,390.965,216.285z"/>
	<path d="M118.021,128.758c0.197-0.859,0.523-1.632,0.901-2.433c0.36-0.78,0.864-1.65,1.456-2.395
		c1.162-1.472,2.442-2.699,3.064-3.86c0.312-0.525,0.45-1.115,0.645-1.711c0.185-0.587,0.437-1.105,0.704-1.418
		c0.553-0.624,0.877-0.593,0.715-0.405c-0.153,0.209-0.19,0.651-0.138,1.254c0.002,0.597,0.304,1.448-0.222,2.854
		c-0.569,1.298-1.353,2.19-1.929,2.966c-0.595,0.765-1.031,1.391-1.278,1.869c-0.245,0.48-0.353,0.55-0.63,0.854
		c-0.242,0.302-0.787,0.886-1.238,2.352c-0.197,0.747-0.203,1.16-0.167,1.284c0.043,0.195,0.284,0.404,0.499,0.522
		c0.407,0.283,0.427,0.581-0.147,0.667c-0.277,0.024-0.658,0.035-1.061-0.155c-0.383-0.175-0.724-0.594-0.866-0.971
		C118.024,129.281,118.021,128.758,118.021,128.758z"/>
	<path d="M129.378,122.092c-0.823,1.272-1.315,3.072-0.926,4.892c0.331,1.829,1.322,3.634,2.266,5.292
		c1.946,3.309,2.385,5.029,1.994,4.562c-0.337-0.493-1.739-0.906-3.399-3.437c-1.671-2.507-2.706-4.843-3.075-6.376
		c-0.146-0.767-0.147-1.005-0.036-1.612c0.154-0.589,0.171-1.653,1.13-3.71c1.016-2.031,2.174-2.771,2.731-3.035
		c0.58-0.255,0.722,0.035,0.419,0.541c-0.316,0.502-0.654,1.217-0.831,1.825C129.425,121.618,129.378,122.092,129.378,122.092z"/>
</g>
</svg>
