<?xml version="1.0" encoding="iso-8859-1"?>
<!-- Generator: Adobe Illustrator 22.1.0, SVG Export Plug-In . SVG Version: 6.00 Build 0)  -->
<svg version="1.1" id="_x34_" xmlns="http://www.w3.org/2000/svg" xmlns:xlink="http://www.w3.org/1999/xlink" x="0px" y="0px"
	 viewBox="0 0 512 512" style="enable-background:new 0 0 512 512;" xml:space="preserve">
<g>
	<path d="M5.292,253.135c-0.075-2.947,0.979-5.9,2.337-8.713c0.721-1.388,1.506-2.785,2.397-4.124
		c0.436-0.682,0.89-1.337,1.372-2.01c0.522-0.662,1.047-1.329,1.574-1.999c2.241-2.593,5.245-4.684,8.485-5.88
		c3.241-1.222,6.6-1.643,9.707-1.72c6.231-0.063,10.41,0.736,12.891,1.113c2.475,0.421,3.222,0.718,2.314,0.672
		c-0.908-0.045-2.283,0.149-4.567,0.275c-2.281,0.156-5.473,0.146-9.939,0.25c-2.234,0.066-4.323,0.338-6.241,0.736
		c-1.881,0.5-3.629,1.035-5.057,1.87c-2.934,1.538-4.779,3.61-5.952,5.204c-1.146,1.61-1.54,2.106-2.508,3.396
		c-0.479,0.652-1.114,1.518-1.903,2.931c-0.756,1.408-1.819,3.39-2.245,6.277c-0.185,1.443-0.033,2.703,0.194,3.809
		c0.196,0.525,0.315,1.051,0.539,1.501c0.248,0.437,0.409,0.89,0.668,1.255c0.255,0.373,0.49,0.72,0.708,1.039
		c0.257,0.3,0.492,0.575,0.706,0.826c0.41,0.531,0.807,0.908,1.103,1.223c1.171,1.279,0.767,1.469-0.835,0.483
		c-1.554-0.994-3.536-2.714-4.542-4.697c-0.553-0.958-0.791-1.916-1.012-2.599C5.365,253.559,5.292,253.135,5.292,253.135z"/>
	<path d="M26.281,255.497c2.085,1.66,5.331,2.851,8.775,3.55c3.458,0.708,7.14,0.991,10.476,1.136
		c6.659,0.265,9.44,0.105,8.488,0.449c-0.953,0.213-2.855,1.839-8.148,1.896c-5.245,0.007-9.432-0.475-11.919-0.801
		c-1.245-0.162-1.577-0.333-2.489-0.711c-0.895-0.43-2.452-0.86-5.771-2.787c-1.643-1.009-2.773-2.173-3.427-3.212
		c-0.651-1.047-0.895-1.899-0.922-2.453c-0.054-1.105,0.409-0.996,0.885-0.153c0.523,0.851,1.504,1.741,2.403,2.27
		C25.52,255.229,26.281,255.497,26.281,255.497z"/>
	<g>
		<path style="fill:#968877;" d="M219.127,499.877c-8.386,4.506,7.068,8.889,12.874,5.201c-1.265,4.576,2.242,6.232,9.543,3.241
			c7.301-2.991,14.785-6.873,16.698-6.161c0,0,17.427,9.629,21.412,2.693c11.434,3.256,14.059-4.975,14.059-4.975
			s26.111,7.572,28.77,4.975c2.659-2.598-1.666-6.863-1.666-6.863s10.051-0.571,13.84,1.847c3.789,2.418,7.383,1.92,12.237,0
			c4.854-1.92,19.335,6.044,21.939,7.157c2.603,1.114-2.47-11.57-10.026-13.717c-7.555-2.148-9.644-0.869-13.688-1.444
			c-4.044-0.575-22.755-5.327-29.081-12.446c-6.326-7.118-9.442-12.975-9.746-23.787c-0.305-10.813,9.398-17.077,16.192-20.209
			c6.794-3.132,29.646-13.195,30.59-21.361c0.943-8.166,1.252-11.525,3.737-17.581c2.485-6.056,12.917-16.309,17.607-24.698
			c4.69-8.389,13.579-31.174,9.556-46.646c-4.023-15.472-7.005-65.066-6.844-70.865c0.161-5.799,0.839-10.791-2.66-16.705
			c-3.499-5.914-11.48-14.224-20.436-17.327s-16.335-4.526-14.854-8.375c0,0-3.262-2.149,2.505-5.291
			c5.767-3.142,15.55-12.568,15.55-12.568s6.716-14.522,5.937-23.926c-0.779-9.404-4.441,0.848-6.048,3.252
			c-1.606,2.404-11.735,16.677-17.944,18.246c-6.21,1.569-10.685,0.269-16.694-0.856c-6.009-1.125-11.527-4.24-18.64-10.146
			c-7.112-5.907-13.827-15.743-15.047-20.34c-1.22-4.597,8.214-12.59,8.214-12.59s2.014-9.809,6.833-13.012
			c4.819-3.203,18.546-11.129,24.866-20.844c6.321-9.715,0.375-28.844-1.51-33.479c-1.885-4.634-18.47,0.597-17.277,7.323
			c1.193,6.726,3.151,5.558-2.297,16.563c-5.447,11.005-9.017,16.302-15.844,21.622c-6.827,5.32-17.612,11.124-22.293,14.054
			c-4.681,2.93-12.592,8.165-14.216,13.21c-1.624,5.045-1.164,12.27-2.553,15.259c-1.388,2.989,2.883,31.548,0,34.456
			c-2.883,2.909-10.422,12.89-12.274,14.985c-1.851,2.095-12.447,17.236-15.634,19c-3.186,1.764-12.715,4.933-19.814,6.359
			c-7.099,1.426,0.337,4.564,7.642,5.797c7.304,1.233,15.348,1.382,19.36,0c4.012-1.382,19.446-21.437,19.446-21.437
			s5.863-7.222,12.963-9.464c7.099-2.242,7.461-4.245,17.742-0.254c10.282,3.991,32.71,14.276,36.255,19.783
			c3.545,5.506,12.202,13.741,10.302,28.12c-1.9,14.378,5.573,45.392,7.068,51.37c1.495,5.978,5.117,22.369,2.558,30.428
			c-2.558,8.059-8.433,18.921-14.276,24.139c-5.844,5.218-16.052,12.847-18.608,13.703c-2.556,0.856-13.685,7.208-13.685,7.208
			s-30.95,28.478-33.45,38.527c-2.5,10.048-11.161,31.216-13.369,35.765c-2.209,4.549-15.313,22.632-17.148,26.482
			C225.964,497.125,219.127,499.877,219.127,499.877z"/>
		<path style="fill:#4F722A;" d="M455.269,80.278c-0.842,7.858-7.374,13.777-17.721,14.722c-10.348,0.945-21.857-9.599-29.683-6.914
			c-7.826,2.685-10.527-0.374-19.577,3.866c-9.049,4.241-13.864,9.148-20.152,7.648c-6.289-1.5-12.666-4.243-18.045-5.872
			c-5.378-1.629-9.351-2.975-15.584-1.776c-6.233,1.198-17.481,2.912-22.471,0.7c-4.99-2.212-12.767-8.354-17.357-8.348
			c-4.588,0.006-21.856,7.822-27.429,5.773c-5.573-2.05-9.156-2.351-9.156-2.351s-6.097,6.856-14.206,5.813
			c-8.11-1.043-5.612-5.35-9.215-4.861c-3.605,0.488-5.284,2.828-14.318,1.399c-9.033-1.428-18.188-3.228-19.513-7.324
			c-1.325-4.096-1.223-9.557,4.673-12.098c5.896-2.54,14.886-4.483,14.886-4.483s1.166-10.326,9.747-10.483
			c8.583-0.157,17.032-1.455,22.614,0.116c5.582,1.571,10.272,5.416,12.47,1.696c2.197-3.72,5.026-7.609,3.738-12.175
			c-1.288-4.565-6.975-2.187-9.958-5.59c-2.981-3.402-4.76-6.773-2.422-9.915c2.34-3.142,7.303-1.132,14.37-1.994
			c7.069-0.863,19.14-0.863,21.297-3.449c2.155-2.587,6.937-9.225,9.935-11.942c3-2.716,7.638-1.001,12.195-1.854
			c4.558-0.853,6.958,5.941,13.324,3.402c6.366-2.54,5.899-7.237,22.381-8.292c16.482-1.055,20.631,2.995,22.786,6.745
			c2.156,3.751,7.573,9.258,12.934,10.016c5.363,0.758,14.658,8.393,17.246,10.98c2.587,2.587,17.235,15.52,17.235,15.52
			s3.451,6.419,10.137,6.443c6.687,0.024,15.6,7.116,19.296,10.777C453.422,69.833,455.269,80.278,455.269,80.278z"/>
		<path style="fill:#4F722A;" d="M196.465,237.534c6.348,3.387,17.075,4.214,17.937,11.372c0.862,7.158-3.719,10.202-8.888,9.441
			c-5.169-0.761-17.59-3.005-20.628-1.422c-3.04,1.583-9.459,9.211-14.932,11.097s-13.53,4.693-20.95,2.527
			c-7.42-2.166-22.565-13.164-26.57-12.012c0,0-20.776,7.561-26.937,7.098c-6.16-0.463-11.119-4.832-16.212-4.889
			c0,0-17.576-0.782-24.1,0c-6.525,0.782-10.587-1.092-10.587-1.092s-6.289,3.092-12.793,0c-6.504-3.093-11.865,2.379-17.944,0
			c-6.079-2.379-9.627-8.065-4.667-15.301c4.96-7.236,11.72-13.302,17.521-13.794c5.803-0.492,12.586-0.663,20.021,0.063
			c7.436,0.725,13.796,2.038,20.19-3.153c6.393-5.191,12.354-10.55,18.443-12.154c6.09-1.603,10.623,1.61,18.686,4.035
			c8.062,2.424,7.989,1.242,16.592,1.581c8.601,0.339,10.618,3.188,20.191,0c9.574-3.187,15.115-3.676,19.147-3.179
			c4.031,0.495,11.235,3.015,15.695,7.046C180.138,228.829,196.465,237.534,196.465,237.534z"/>
		<path style="fill:#4F722A;" d="M315.634,207.413c-7.457,3.417-17.333,1.832-23.573,1.482c-6.24-0.35-16.129-1.97-27.813,1.869
			c-11.684,3.839-29.649,5.387-38.124,1.338c-8.474-4.049-15.135-11.63-15.135-11.63s-7.952,8.368-15.87,4.875
			c-7.919-3.493-8.343-9.055-10.226-11.373c-1.883-2.318-8.376,0.976-14.185-4.666c0,0-8.392,1.248-18.836,0
			c-10.444-1.248-11.952-4.948-11.952-4.948s-1.021,4.219-12.787-4.895c-11.766-9.114-1.544-12.279,2.932-12.56
			c4.476-0.282,17.9,0.814,23.704,0c5.806-0.814,7.922-4.065,16.185-6.701c8.263-2.635,12.524-0.583,21.579-0.543
			c9.055,0.039,12.281-4.362,19.456-6.157c7.175-1.795,12.962,2.269,19.361,3.338c6.398,1.069,5.053,5.758,12.946,7.237
			c7.892,1.479,9.988-3.817,14.799,2.826c4.81,6.642,5.476,13.13,12.866,16.011c7.391,2.881,8.428,6.707,14.834,6.392
			c6.405-0.315,13.469-5.896,20.474-3.486c7.003,2.41,13.121,9.398,12.861,12.803C318.87,202.029,315.634,207.413,315.634,207.413z"
			/>
		<path style="fill:#4F722A;" d="M314.385,156.84c-8.015-6.046-7.446-9.383-2.35-14.187c5.097-4.803,6.712-5.625,16.873-2.812
			c10.161,2.812,21.331,0.832,24.801,0.491c3.47-0.341,5.136-4.07,14.423-8.864c9.287-4.793,9.518-7.347,17.391-4.472
			c7.875,2.875,10.537,6.323,17.994,8.594c7.457,2.271,9.049,0.822,16.774,4.742c7.727,3.919,10.754,8.604,16.781,10.462
			c6.026,1.858,4.356,5.549,8.57,7.492c4.213,1.944,6.055,4.519,12.59,7.493c6.535,2.973,12.904,0.745,10.156,7.712
			c-2.749,6.968-12.162,9.424-12.162,9.424s-12.342-4.848-16.281-4.712c-3.939,0.136-6.501,6.744-10.46,3.63
			c-3.957-3.114-14.867-9.995-18.288-8.342c-3.42,1.653-22.112,10.595-28.744,9.319c-6.633-1.277-18.767-6.562-23.353-9.511
			c-4.587-2.949-23.466-8.119-33.554-10.934C315.459,159.552,314.385,156.84,314.385,156.84z"/>
		<path style="fill:#4F722A;" d="M274.44,301.901c-2.773,3.204-19.5,14.715-32.029,11.889c-12.53-2.827-8.164-10.177-10.04-11.889
			c-1.875-1.713,0.588-5.767,4.375-7.94c3.787-2.172,6.877-4.458,15.984-4.647c9.108-0.189,22.77-5.514,24.994-7.645
			c2.222-2.131,7.807-8.389,14.335-11.917c6.53-3.529,8.247-6.797,16.443-4.098c8.196,2.7,10.557,1.029,13.904,0
			c3.347-1.029,10.947-12.882,20.462-12.548c9.516,0.334,16.855,2.643,21.441,6.549c4.585,3.905,11.69,5.004,11.69,5.004
			s14.047-5.008,17.321-2.521c3.272,2.487,6.481,4.189,14.198,9.197c7.715,5.008,10.144,5.019,17.105,3.149
			c6.96-1.87,7.826-1.618,12.106,2.174c4.28,3.792,4.859,6.701,11.182,8.252c6.322,1.552,11.121,1.353,16.69,6.756
			c5.568,5.403,15.358,15.144,13.821,20.575c-1.536,5.431-1.335,8.456-8.391,8.143c-7.056-0.313-20.207-1.947-24.389-0.688
			c-4.182,1.26-17.257,9.32-24.313,5.166c-7.056-4.154-5.976-5.977-7.634-11.004c-1.656-5.026-5.9,1.38-13.084,4.691
			c-7.182,3.31-16.974,7.302-24.612,1.989c-7.637-5.314-9.899-9.685-15.692-13.359c-5.794-3.673-23.859-0.161-26.841,0
			c0,0-9.201,6.844-16.713,2.916c-7.513-3.927-9.133-5.914-9.133-5.914s-2.135,4.57-11.446,2.491
			C286.865,304.593,274.44,301.901,274.44,301.901z"/>
		<path style="fill:#4F722A;" d="M364.311,387.609c4.679,7.961,7.814,12.255,18.009,11.648c10.196-0.606,18.181-4.152,20.096-3.283
			c1.917,0.87,6.177,2.448,12.544-0.814c6.369-3.262,9.83-8.114,13.29-4.285c3.461,3.829-4.958-0.449,12.446,4.285
			c17.402,4.735,23.551,4.414,29.336,0.002c5.784-4.412,6.177-7.981,12.724-9.868c6.545-1.887,13.206-1.468,19.579-5.112
			c6.375-3.645,0.826-13.712-6.349-13.869c0,0-17.557-2.184-22.748-2.036c-5.19,0.148-9.949,0.202-17.302-3.069
			c-7.354-3.271-4.301-2.273-12.1-1.907c-7.799,0.366-11.782,1.161-14.764,2.926c-2.984,1.765-8.174-2.739-12.067-4.164
			c-3.894-1.424-5.13,2.166-9.486-3.739c-4.356-5.905-4.227-5.086-8.184-7.442c-3.959-2.356-9.543-2.508-13.812-2.69
			c-4.267-0.183-4.601,3.66-4.601,3.66s1.732,1.565-2.072,11.448c-3.804,9.883-10.804,18.497-12.913,20.881
			C363.828,382.566,364.311,387.609,364.311,387.609z"/>
		<path d="M250.126,94.475c-2.04,0.641-4.387,0.835-6.732,0.351c-1.26-0.272-2.446-0.892-3.4-1.594
			c-0.971-0.694-1.804-1.435-2.64-2.003c-0.836-0.584-1.676-0.981-2.595-1.142c-0.813-0.19-1.777,0.002-2.846,0.28
			c-2.155,0.553-4.332,1.657-7.202,1.909c-2.706,0.055-5.099-0.314-7.589-0.732c-2.462-0.443-4.896-1.024-7.282-1.783
			c-2.382-0.77-4.726-1.687-6.921-3.057c-1.07-0.759-2.169-1.503-3.01-2.747l-0.32-0.442l-0.219-0.445l-0.424-0.891
			c-0.32-0.565-0.457-1.246-0.617-1.9c-0.323-1.308-0.217-2.714,0.145-3.933c0.149-0.624,0.497-1.142,0.744-1.689
			c0.29-0.518,0.671-0.939,0.998-1.39c1.451-1.652,3.078-2.65,4.544-3.468c2.991-1.525,5.506-2.192,7.369-2.621
			c1.867-0.419,3.11-0.528,3.703-0.556c0.595-0.026,0.551,0.05-0.117,0.196c-1.335,0.299-3.306,0.992-6.361,2.463
			c-1.508,0.753-3.334,1.673-5.21,3.131c-0.892,0.763-1.897,1.588-2.592,2.707c-0.71,1.085-1.279,2.401-1.071,3.881
			c-0.043,0.368,0.159,0.726,0.219,1.086c0.082,0.362,0.172,0.721,0.374,1.054l0.497,1.016c0.178,0.319,0.416,0.555,0.611,0.839
			c0.956,1.044,2.273,1.817,3.555,2.48c2.635,1.275,5.332,2.076,7.826,2.675c2.499,0.59,4.828,0.962,6.898,1.175
			c2.075,0.191,3.911,0.307,5.147-0.043c1.375-0.347,2.336-0.727,3.228-0.991c0.903-0.275,1.739-0.528,3.083-0.793
			c0.685-0.11,1.496-0.264,2.635-0.158c1.078,0.133,2.293,0.493,3.521,1.255c1.236,0.731,2.372,1.84,3.678,2.749
			c0.658,0.447,1.366,0.817,2.187,0.996c0.421,0.089,0.93,0.114,1.419,0.183c0.497,0.039,1.014-0.012,1.549-0.012
			c2.138-0.224,3.993-1.047,5.643-1.895c1.649-0.859,3.124-1.728,4.496-2.379c2.746-1.346,5.063-1.673,6.432-1.471
			c1.374,0.191,1.877,0.47,1.729,0.601c-0.074,0.074-0.313,0.131-0.693,0.166c-0.38,0.023-0.903,0.04-1.554,0.153
			c-1.303,0.172-2.762,0.684-4.126,1.47c-1.372,0.775-2.694,1.73-3.933,2.574c-1.22,0.862-2.41,1.568-3.289,2.05
			c-0.46,0.219-0.83,0.395-1.084,0.516C250.275,94.425,250.126,94.475,250.126,94.475z"/>
		<path d="M220.225,59.704c0.852-1.381,2.171-2.678,3.752-3.529c1.574-0.87,3.334-1.432,5.112-1.771
			c3.569-0.665,7.234-0.609,10.473-0.251c3.242,0.379,5.43,0.986,6.713,1.402c1.28,0.423,1.659,0.713,1.18,0.67
			c-0.951-0.062-2.997,0.696-7.747,0.29c-4.759-0.399-8.543,0.1-10.53,0.789c-0.997,0.336-1.286,0.351-2.076,0.509
			c-0.394,0.078-0.913,0.202-1.633,0.526c-0.711,0.325-1.672,0.846-2.536,1.976c-0.859,1.126-1.234,2.253-1.488,3.164
			c-0.259,0.911-0.421,1.612-0.576,2.062c-0.327,0.908-0.72,0.819-0.885-0.175c-0.172-0.978-0.325-2.356-0.192-3.542
			C219.881,60.638,220.225,59.704,220.225,59.704z"/>
		<path d="M265.525,53.889c0.982-1.009,1.639-2.489,2.205-4.134c0.102-0.398,0.205-0.799,0.308-1.204
			c0.043-0.386,0.082-0.776,0.106-1.153c-0.053-0.719-0.229-1.304-0.651-1.789c-0.948-0.984-2.911-1.566-4.899-2.279
			c-1.008-0.394-2.065-0.784-3.09-1.455c-0.525-0.279-0.994-0.736-1.481-1.121l-1.166-1.189c-1.495-1.643-3.044-3.43-3.754-5.996
			c-0.219-0.609-0.201-1.355-0.221-2.044c0.102-0.718,0.227-1.439,0.574-2.076c0.627-1.284,1.624-2.253,2.638-2.908
			c2.042-1.374,4.194-2.06,6.286-2.612c2.099-0.533,4.171-0.875,6.188-1.133c8.075-0.939,13.686-0.67,16.977-0.655
			c3.282,0.073,4.271,0.045,3.111,0.258c-1.174,0.176-2.955,0.562-5.933,0.995c-2.974,0.459-7.155,0.867-13.042,1.611
			c-2.934,0.399-5.702,0.928-8.161,1.724c-2.413,0.804-4.656,1.953-5.596,3.521c-0.437,0.775-0.485,1.589-0.351,2.397
			c0.218,0.815,0.581,1.597,1.054,2.298c0.909,1.422,2.092,2.515,3.054,3.423c0.245,0.25,0.46,0.422,0.647,0.546
			c0.198,0.136,0.343,0.287,0.532,0.389c0.379,0.204,0.652,0.42,0.999,0.571c0.647,0.339,1.26,0.639,2.263,1.049
			c0.518,0.212,1.117,0.459,1.848,0.761c0.741,0.31,1.69,0.723,2.767,1.556c0.535,0.435,1.083,1.045,1.461,1.84
			c0.37,0.807,0.518,1.732,0.48,2.651c-0.082,1.883-0.721,3.623-1.702,5.692c-1.017,2.089-2.786,3.629-4.562,4.357
			c-1.787,0.756-3.477,0.78-4.848,0.677c-2.757-0.309-4.495-1.103-5.539-1.647c-2.059-1.17-1.5-1.339,0.758-0.672
			c2.254,0.641,5.497,0.95,7.68,0.082C264.653,55.382,265.525,53.889,265.525,53.889z"/>
		<path d="M289.223,13.988c2.363-3.21,5.968-6.625,10.629-8.559c2.334-1,5.126-1.465,7.705-1.074c2.595,0.347,4.885,1.324,6.9,2.233
			c2.02,0.926,3.632,1.675,5.003,2.109c1.361,0.394,2.473,0.54,3.322,0.51c1.686-0.098,2.344-0.161,1.719,0.085
			c-0.313,0.1-0.672,0.305-1.167,0.556c-0.515,0.143-1.16,0.49-2.03,0.554c-1.726,0.286-4.304-0.136-7.34-1.479
			c-3.047-1.308-5.803-2.216-8.156-2.136c-2.357,0.055-4.114,0.791-5.4,1.511c-1.259,0.727-1.639,0.872-2.667,1.381
			c-0.509,0.262-1.174,0.627-2.112,1.318c-0.932,0.692-2.141,1.726-3.516,3.45c-2.664,3.515-3.598,6.04-4.289,7.131
			c-0.652,1.118-0.989,0.86-0.781-0.495c0.228-1.336,0.645-3.135,1.154-4.575c0.261-0.714,0.5-1.354,0.708-1.796
			C289.104,14.261,289.223,13.988,289.223,13.988z"/>
		<path d="M388.396,20.413c3.272,1.861,7.81,3.057,12.516,4.746c1.174,0.433,2.364,0.889,3.53,1.442
			c0.298,0.157,0.545,0.205,0.992,0.503l0.84,0.556c0.536,0.4,1.073,0.801,1.562,1.246c1.999,1.752,3.513,3.798,4.859,5.649
			c1.341,1.869,2.45,3.369,3.467,4.542c0.525,0.592,0.994,1.122,1.409,1.592c0.393,0.437,0.77,0.779,1.11,1.052
			c0.682,0.541,1.216,0.804,1.47,0.958c0.257,0.15,0.225,0.214-0.109,0.148c-1.227-0.116-4.628-0.858-8.921-6.496
			c-2.093-2.769-4.052-5.079-6.145-6.453c-0.248-0.188-0.521-0.329-0.769-0.489l-0.308-0.18l-0.39-0.161
			c-0.541-0.222-1.048-0.441-1.55-0.609c-0.985-0.363-1.884-0.626-2.644-0.847c-1.537-0.418-1.949-0.624-3.11-1.126
			c-0.585-0.252-1.356-0.571-2.565-1.038c-1.203-0.484-2.856-1.062-5.132-2.093c-4.592-2.088-6.637-4.598-7.307-5.773
			c-0.691-1.217-0.211-1.284,0.826-0.414c1.045,0.878,2.612,1.801,3.962,2.354C387.321,20.107,388.396,20.413,388.396,20.413z"/>
		<path d="M354.018,0.12c-4.528-0.34-9.581,0.052-13.842,1.075c-2.148,0.481-4.052,1.097-5.71,1.592
			c-1.676,0.528-3.035,1.097-4.002,1.463c-1.917,0.713-4.217,2.362-5.231,4.382c-0.518,0.979-0.708,1.959-0.578,2.66
			c0.141,0.715,0.529,1.115,1.18,1.208c1.081,0.12,1.91-0.845,2.952-1.827c1.017-1.014,2.337-2.195,3.215-3.08
			c0.42-0.45,1.536-1.278,3.205-2.112c1.696-0.812,3.906-1.721,6.27-2.41c2.379-0.674,4.944-1.086,7.29-1.278
			c2.347-0.119,4.471-0.062,5.972,0.189c3.013,0.424,6.237,1.23,9.085,2.407c2.868,1.141,5.288,2.721,6.954,4.096
			c0.414,0.348,0.839,0.627,1.257,0.846c0.393,0.248,0.779,0.438,1.144,0.566c0.731,0.257,1.381,0.284,1.754,0.079
			c0.374-0.205,0.467-0.647,0.077-1.341c-0.381-0.698-1.249-1.661-2.879-2.634c-3.255-1.92-5.717-2.872-8.329-3.812
			C361.18,1.287,358.316,0.527,354.018,0.12z"/>
		<path d="M431.666,49.183c1.735-0.067,3.843,0.033,5.892,0.828c2.042,0.793,3.87,2.131,5.414,3.676
			c3.057,3.063,5.605,6.535,7.78,9.789c4.237,6.56,5.132,9.659,4.482,8.718c-0.687-0.929-2.849-2.289-6.173-7.048
			c-3.327-4.749-6.448-8.221-8.475-9.802c-1.008-0.753-1.236-1.017-1.967-1.655c-0.371-0.306-0.867-0.715-1.725-1.128
			c-0.857-0.409-2.075-0.839-3.965-0.823c-1.887,0.021-3.5,0.231-4.756,0.272c-1.26,0.057-2.172,0.016-2.751-0.095
			c-1.159-0.215-1.002-0.628,0.129-0.902c1.134-0.277,2.617-0.773,3.857-1.17C430.641,49.441,431.666,49.183,431.666,49.183z"/>
		<path d="M420.45,88.683c1.576,0.675,3.164,1.319,4.72,2.017l1.17,0.498l1.087,0.421c0.717,0.298,1.504,0.462,2.253,0.695
			c3.08,0.744,6.293,0.948,9.327,0.737c3.035-0.214,5.912-0.862,8.352-1.898c2.45-1.032,4.412-2.466,5.823-4.104
			c0.328-0.426,0.654-0.775,0.909-1.09c0.211-0.34,0.404-0.616,0.581-0.833c0.351-0.435,0.628-0.639,0.824-0.639
			c0.396-0.001,0.482,0.835,0.277,2.272c-0.151,0.689-0.486,1.465-0.86,2.345c-0.245,0.391-0.515,0.801-0.802,1.219
			c-0.278,0.432-0.596,0.845-0.978,1.196l-1.13,1.107c-0.41,0.316-0.836,0.609-1.255,0.898c-0.823,0.619-1.718,0.953-2.493,1.31
			c-3.152,1.295-7.791,2.048-12.691,1.832c-2.45-0.115-4.968-0.49-7.411-1.126c-1.209-0.294-2.456-0.766-3.556-1.182
			c-1.052-0.406-2.076-0.834-3.076-1.191c-1.989-0.687-6.94-2.673-13.505-3.145c-3.275-0.213-6.938,0.055-10.715,0.996
			c-3.781,0.923-7.672,2.385-11.501,4.039c-1.972,0.819-3.675,1.648-5.463,2.703c-1.768,1.009-3.636,2.187-5.81,2.928
			c-2.168,0.759-4.485,0.941-6.53,0.74c-2.062-0.183-3.93-0.608-5.661-1.153c-3.463-1.106-6.143-2.574-8.237-3.494
			c-2.092-0.959-3.63-1.491-4.471-1.733c-0.842-0.249-2.357-0.731-4.575-0.983c-2.188-0.351-4.991-0.482-8.237-0.231
			c-3.251,0.216-6.925,0.891-11.019,1.401c-4.073,0.479-8.719,0.617-13.155-0.698c-2.194-0.67-4.335-1.546-6.293-2.675
			c-2.027-1.169-3.715-2.209-5.497-3.171c-3.579-1.858-7.364-2.763-10.898-2.764c-3.542-0.021-6.812,0.662-9.625,1.323
			c-2.858,0.693-5.213,1.264-6.888,1.67c-1.695,0.433-3.315,0.662-4.789,0.839c-1.487,0.107-2.836,0.161-4.031,0.085
			c-1.197-0.105-2.235-0.235-3.106-0.409c-0.869-0.229-1.572-0.468-2.106-0.701c-2.136-0.931-1.645-1.771,1.381-1.693
			c1.518,0.047,4.177-0.013,7.344-0.353c3.17-0.39,6.822-1.209,10.467-2.051c3.636-0.844,7.353-1.532,10.443-1.552
			c1.537-0.105,2.904,0.134,4,0.182c1.085,0.181,1.904,0.358,2.386,0.446c0.951,0.175,4.23,1.118,8.107,3.442
			c0.942,0.583,1.949,1.207,3.005,1.86c1.012,0.642,2.075,1.316,3.261,1.836c1.141,0.627,2.419,1.012,3.699,1.487
			c1.318,0.328,2.664,0.695,4.066,0.827c5.609,0.72,11.485-0.585,16.465-1.08c5.001-0.593,9.154-0.34,11.32-0.08
			c2.184,0.116,5.384,0.829,8.809,2.331c3.425,1.48,7.128,3.564,11.277,4.441c2.056,0.46,4.187,0.663,6.214,0.359
			c2.036-0.274,3.886-1.143,5.562-2.073c1.679-0.934,3.251-1.879,4.743-2.604c1.496-0.727,2.866-1.265,4.005-1.774
			c4.564-1.911,11.445-5.147,18.575-5.848c3.527-0.37,6.979-0.184,9.763,0.292C417.096,87.58,419.257,88.217,420.45,88.683z"/>
		<path d="M331.716,166.241c-5.943-1.573-14.459-3.48-20.849-7.428c-3.143-1.96-5.056-4.386-5.145-6.269
			c-0.055-0.434,0.039-0.818,0.076-1.085c0.102-0.273,0.191-0.458,0.259-0.571c0.138-0.224,0.194-0.175,0.154,0.098
			c-0.143,0.548,0.165,1.456,1.014,2.369c0.893,0.913,2.317,1.923,4.537,3.257c4.502,2.624,8.695,3.689,11.075,4.24
			c1.209,0.262,1.524,0.419,2.419,0.799c0.9,0.353,2.377,0.977,5.976,1.816c3.599,0.82,5.695,1.382,6.666,1.799
			c0.969,0.389,0.836,0.789-0.281,0.859C335.425,166.249,331.716,166.241,331.716,166.241z"/>
		<path d="M318.873,135.412c6.111-1.997,14.504-0.68,20.945,0.95c6.426,1.71,8.915,2.74,7.959,2.692
			c-0.965-0.09-3.172,0.741-8.118-0.33c-4.909-1.072-8.87-1.502-11.145-1.39c-1.14,0.01-1.441-0.006-2.323-0.153
			c-0.443-0.086-1.012-0.096-1.898-0.103c-0.447-0.021-0.961,0.01-1.559,0.106c-0.607,0.067-1.309,0.158-2.072,0.419
			c-3.086,0.915-4.57,2.161-5.469,2.591c-0.909,0.432-1.137,0.111-0.508-0.739c0.333-0.394,0.612-0.992,1.087-1.413
			c0.45-0.445,0.902-0.952,1.355-1.352C318.113,135.968,318.873,135.412,318.873,135.412z"/>
		<path d="M363.039,125.315c4.733-1.996,10.701-4.395,17.377-4.777c3.314-0.199,6.808,0.136,10.027,1.216
			c3.235,1.053,6.074,2.791,8.567,4.529c2.492,1.76,4.452,3.35,6.114,4.603c1.646,1.274,2.984,2.208,3.985,2.915
			c2.027,1.357,2.631,1.891,1.814,1.513c-0.81-0.379-2.145-0.703-4.224-1.643c-2.092-0.908-4.845-2.572-8.5-5.112
			c-3.652-2.535-7.225-4.25-10.457-4.904c-3.233-0.648-5.97-0.505-7.963-0.217c-1.987,0.323-2.555,0.351-4.132,0.551
			c-1.561,0.244-4.197,0.567-9.905,2.975c-5.661,2.515-9.083,4.093-10.791,4.531c-1.695,0.473-1.606-0.012-0.07-0.953
			C357.931,128.589,363.039,125.315,363.039,125.315z"/>
		<path d="M446.545,152.376c-0.928-0.073-1.818-0.15-2.456-0.427c-0.224-0.093-0.409-0.213-0.502-0.424
			c-0.09-0.247-0.079-0.32-0.036-0.822l0.08-0.769c0.019-0.374,0.026-0.754-0.069-1.112c-0.103-0.732-0.8-1.313-1.265-1.641
			c-0.763-0.595-1.527-1.163-2.283-1.69c-3.005-2.142-5.836-3.584-7.206-4.494c-2.79-1.842-7.34-3.227-7.855-0.896
			c-0.422,1.927,4.056,3.582,6.243,3.879c1.11,0.139,4.726,1.308,8.287,3.531c0.44,0.283,0.892,0.559,1.331,0.859
			c0.478,0.361,0.817,0.465,0.998,0.787c0.153,0.354,0.116,0.65,0.076,1.225c-0.04,0.49-0.083,1.235,0.166,1.817
			c0.254,0.596,0.804,0.964,1.339,1.199c0.5,0.212,0.987,0.326,1.437,0.396c0.903,0.143,1.686,0.178,2.304,0.282
			c0.596,0.096,1.212,0.23,1.569,0.508l0.85,0.604c0.32,0.168,0.632,0.372,0.965,0.508c1.315,0.607,2.726,0.858,3.747,1.333
			c0.498,0.247,0.853,0.559,1.111,0.93c0.214,0.414,0.383,0.87,0.433,1.386c0.152,1.006,0.017,2.053-0.085,2.926l-0.191,1.659
			l1.579-0.627c0.148-0.059,0.224-0.089,0.298-0.118c1.034-0.422,1.669-1.18,1.956-1.805c0.295-0.637,0.304-1.196,0.118-1.531
			c-0.188-0.338-0.589-0.442-1.157-0.222c-0.587,0.213-1.236,0.733-2.19,1.292l2.151,1.599l-0.002-0.042
			c-0.021-1.619-0.1-3.063-0.628-4.488c-0.248-0.705-0.723-1.398-1.305-1.905c-0.601-0.511-1.257-0.785-1.865-1.002
			c-1.213-0.396-2.308-0.581-3.382-1.055c-0.258-0.127-0.525-0.254-0.78-0.411c-0.28-0.182-0.394-0.287-0.985-0.64
			C448.346,152.49,447.427,152.462,446.545,152.376z"/>
		<path d="M370.207,177.94c2.82,1.282,6.006,2.501,9.479,3.115c3.46,0.621,7.201,0.67,10.87-0.197
			c1.863-0.423,3.599-0.953,5.298-1.802c1.706-0.819,3.371-1.832,5.096-2.838c1.726-1.002,3.53-1.998,5.496-2.705
			c1.957-0.713,4.094-1.083,6.147-0.949c2.156,0.121,3.823,0.777,5.365,1.319c1.529,0.574,2.863,1.202,4.053,1.807
			c2.375,1.219,4.148,2.379,5.383,3.376c1.239,0.985,1.924,1.83,2.141,2.332c0.222,0.478,0.126,0.453-0.215-0.009
			c-0.734-0.911-2.277-1.68-4.802-2.785c-1.273-0.54-2.815-1.149-4.689-1.821c-1.858-0.639-4.117-1.471-6.659-1.831
			c-2.575-0.269-5.044,0.383-7.189,1.396c-2.165,0.996-4.089,2.281-5.94,3.38c-1.842,1.121-3.632,2.085-5.345,2.765
			c-0.869,0.333-1.689,0.609-2.452,0.803c-0.768,0.204-1.468,0.455-2.142,0.564c-1.335,0.277-2.204,0.434-3.013,0.447
			c-0.806,0.038-1.538,0.078-2.609-0.017c-1.068-0.051-2.479-0.168-4.59-0.552c-2.111-0.368-4.927-1.075-8.616-2.544
			c-3.686-1.473-6.445-2.94-8.563-4.073c-2.111-1.146-3.563-2.014-4.462-2.604c-1.795-1.195-1.311-1.406,0.784-0.611
			c2.086,0.8,4.881,1.86,7.15,2.68C368.453,177.403,370.207,177.94,370.207,177.94z"/>
		<path d="M450.738,181.089c2.152,0.587,4.61,0.941,7.136,0.743c2.514-0.248,5.051-1.073,7.165-2.714
			c2.191-1.647,4.307-3.736,4.711-5.899c0.403-2.1-1.2-4.324-3.028-6.155c-1.842-1.854-3.659-3.343-5.087-4.659
			c-1.445-1.309-2.551-2.427-3.306-3.318c-1.507-1.799-1.702-2.542-1.156-1.915c0.563,0.619,1.632,1.31,3.375,2.417
			c1.722,1.147,4.238,2.559,7.396,5.402c1.54,1.453,2.978,3.005,3.803,4.938c0.401,0.962,0.604,2.018,0.553,3.034
			c-0.027,1.027-0.355,1.957-0.721,2.777c-0.79,1.626-1.852,2.8-2.806,3.789c-0.998,0.955-1.861,1.73-2.711,2.358
			c-0.437,0.305-0.796,0.556-1.11,0.775c-0.337,0.18-0.634,0.321-0.919,0.452c-0.565,0.281-1.114,0.439-1.917,0.654
			c-0.396,0.129-0.865,0.218-1.438,0.317c-0.569,0.128-1.245,0.21-2.063,0.28c-1.629,0.131-3.841,0.155-6.809-0.387
			c-2.967-0.548-5.189-1.447-6.828-2.243c-1.639-0.811-2.714-1.521-3.345-2.045c-1.259-1.049-0.812-1.258,0.701-0.627
			c1.526,0.616,3.632,1.236,5.355,1.574C449.411,180.992,450.738,181.089,450.738,181.089z"/>
		<path d="M155.918,159.337c3.855-2.158,8.698-4.644,14.175-5.934c5.443-1.411,11.288-1.577,16.432-1.231
			c5.155,0.391,8.676,1.105,10.748,1.586c2.069,0.495,2.678,0.815,1.916,0.741c-1.524-0.112-4.68,0.495-12.264,0.043
			c-3.792-0.191-7.199-0.07-10.051,0.292c-2.861,0.327-5.137,0.989-6.783,1.51c-1.637,0.564-2.113,0.672-3.44,0.989
			c-1.285,0.421-3.516,0.89-8.105,3.458c-1.338,0.826-2.558,1.475-3.579,2.119c-0.258,0.158-0.505,0.31-0.743,0.456l-0.353,0.212
			l-0.172,0.102l-0.066,0.029c-0.139,0.077-0.429,0.145-0.498,0.254c0.09,0.175,0.093,0.283,0.207,0.619
			c0.146,0.401,0.238,0.738,0.31,1.02c0.138,0.564,0.201,0.912,0.192,1.115c0.01,0.42-0.499,0.195-1.061-0.765
			c-0.115-0.186-0.235-0.38-0.354-0.574c-0.116-0.176-0.237-0.363-0.423-0.61c-0.368-0.462-0.853-0.906-1.161-1.159
			c1.45-1.236,2.762-2.354,3.712-3.164C155.397,159.76,155.918,159.337,155.918,159.337z"/>
		<path d="M221.399,147.051c-3.662-0.816-7.873-0.746-11.402-0.08c-3.532,0.665-6.441,1.66-7.998,2.084
			c-0.799,0.178-1.66,0.476-2.446,0.905c-0.789,0.42-1.571,0.857-2.126,1.427c-1.146,1.1-1.658,2.271-0.782,3.24
			c0.714,0.793,2,0.599,3.255,0.009c1.299-0.51,2.585-1.467,3.385-2.144c0.757-0.737,3.903-2.59,7.779-3.544
			c1.923-0.525,4.009-0.703,5.9-0.704c0.945-0.001,1.835,0.144,2.647,0.216c0.804,0.114,1.508,0.33,2.1,0.477
			c4.75,1.289,9.584,4.653,11.922,7.306c2.21,2.64,6.419,1.71,1.698-2.231c-1.246-0.893-2.262-1.68-3.309-2.285
			c-0.503-0.323-0.988-0.632-1.465-0.938c-0.499-0.272-0.992-0.54-1.491-0.812C227.083,148.891,224.877,147.819,221.399,147.051z"/>
		<path d="M260.707,161.816c2.314,0.791,4.823,2.551,6.63,4.843c1.841,2.272,3.133,4.838,4.281,7.032
			c1.108,2.219,1.904,3.631,2.425,4.528c0.542,0.856,0.648,1.294,0.358,1.042c-0.258-0.272-0.933-0.355-1.756-0.942
			c-0.88-0.531-1.913-1.546-2.922-3.222c-0.985-1.685-1.831-3.163-2.655-4.34c-0.819-1.172-1.571-2.058-2.201-2.595
			c-0.609-0.563-0.711-0.765-1.1-1.264c-0.188-0.257-0.434-0.608-0.928-0.999c-0.46-0.439-1.17-0.925-2.27-1.378
			c-1.104-0.455-2.06-0.625-2.796-0.893c-0.754-0.164-1.308-0.332-1.663-0.525c-0.717-0.376-0.637-0.763,0.152-0.875
			C257.775,161.846,260.69,161.721,260.707,161.816z"/>
		<path d="M297.938,185.234c1.792-0.123,3.811-0.48,6.065-0.689c2.222-0.177,4.891-0.193,7.32,0.928
			c4.779,2.025,8.303,6.709,9.036,11.515c0.384,2.403,0,4.537-0.651,6.104c-0.617,1.6-1.53,2.622-2.208,3.3
			c-1.486,1.254-2.059,1.379-1.592,0.923c0.229-0.24,0.473-0.587,0.766-1.032c0.254-0.476,0.536-1.08,0.822-1.818
			c0.568-1.487,1.017-3.642,0.619-6.655c-0.482-3.02-2.013-5.513-3.696-7.105c-1.676-1.635-3.451-2.439-4.737-2.827
			c-0.642-0.147-1.038-0.262-1.427-0.329c-0.373-0.105-0.724-0.188-1.258-0.28c-1.077-0.199-2.863-0.313-7.449,0.393
			c-2.303,0.326-4.268,0.326-5.754,0.077c-1.488-0.28-2.491-0.695-3.044-1.096c-1.118-0.764-0.698-1.032,0.525-0.748
			c1.258,0.253,2.955,0.186,4.296-0.077c0.672-0.125,1.262-0.269,1.688-0.391C297.68,185.317,297.938,185.234,297.938,185.234z"/>
		<path d="M244.885,216.82c1.019-0.053,2.047-0.157,3.078-0.301c1.037-0.114,2.078-0.26,3.116-0.46
			c2.078-0.314,4.211-0.838,6.243-1.478c4.086-1.281,7.859-3.033,11.452-4.02c1.794-0.503,3.54-0.822,5.201-0.966
			c1.655-0.163,3.228-0.08,4.729-0.009c2.969,0.175,5.41,0.506,7.067,0.82c3.314,0.624,7.493,1.249,10.841,1.327
			c3.347,0.086,5.808-0.415,5.573-1.729c-0.189-1.076-2.81-1.852-5.995-2.417c-3.186-0.564-6.974-0.857-9.4-0.759
			c-1.213,0.057-3.922-0.054-7.502-0.007c-1.769,0.036-3.826,0.056-5.995,0.402c-2.162,0.329-4.395,0.948-6.577,1.745
			c-4.362,1.605-8.61,3.706-12.762,4.721c-4.152,0.994-8.014,1.401-10.775,1.475c-5.519,0.083-11.627-0.548-16.784-2.718
			c-5.252-1.981-9.1-5.725-11.168-8.982c-2.075-3.248-3.665-5.846-4.653-6.01c-0.462-0.08-0.674,0.457-0.411,1.832
			c0.169,0.672,0.297,1.615,0.873,2.656c0.53,1.058,1.164,2.367,2.301,3.688c1.004,1.411,2.251,2.45,3.306,3.508
			c1.201,0.903,2.25,1.854,3.441,2.499c0.578,0.345,1.13,0.712,1.698,1.023c0.585,0.28,1.161,0.556,1.734,0.832
			c1.123,0.605,2.334,0.924,3.506,1.398c1.2,0.375,2.433,0.72,3.722,1.025c1.302,0.237,2.647,0.563,4.104,0.69
			C237.743,216.993,241.021,217.092,244.885,216.82z"/>
		<path d="M201.807,205.947c-2.469,0.771-5.565,1.159-8.695,0.518c-3.076-0.607-6.352-2.223-8.057-4.998
			c-0.844-1.361-1.177-2.715-1.253-3.795c-0.001-0.55,0.014-1.034,0.042-1.454c0.019-0.419,0.185-0.769,0.264-1.065
			c0.394-1.176,0.678-1.441,0.644-1.035c-0.019,0.413,0.129,1.08,0.387,2.046c0.376,0.958,0.687,2.242,1.721,3.76
			c1.014,1.528,2.458,2.519,3.784,3.062c0.662,0.274,1.315,0.427,1.872,0.579c0.581,0.07,1.093,0.132,1.527,0.184
			c0.88-0.017,1.107,0.079,1.779,0.248c0.658,0.058,1.848,0.419,4.382-0.275c2.49-0.746,3.779-1.606,4.58-1.855
			c0.807-0.253,1.032,0.064,0.489,0.743c-0.282,0.316-0.543,0.792-0.926,1.144c-0.381,0.38-0.77,0.768-1.12,1.116
			C202.427,205.478,201.807,205.947,201.807,205.947z"/>
		<path d="M162.812,192.281c-3.532,0.415-7.45,0.778-11.669,0.536c-2.108-0.138-4.3-0.425-6.511-1.174
			c-1.097-0.419-2.212-0.906-3.229-1.706c-1.009-0.792-1.896-1.878-2.404-3.15l-0.313-0.971c-0.05-0.188-0.037-0.194-0.059-0.298
			l-0.04-0.1l-0.393-0.131l-3.132-1.056c-2.1-0.72-4.204-1.484-6.269-2.361c-2.062-0.886-4.095-1.848-6.008-3.174
			c-0.949-0.677-1.893-1.423-2.673-2.541c-0.376-0.563-0.736-1.224-0.846-2.041c-0.033-0.695-0.066-1.347,0.047-1.989
			c0.518-2.612,2.172-4.265,3.613-5.445c1.49-1.198,2.991-1.972,4.372-2.575c2.767-1.199,5.084-1.703,6.821-1.926
			c1.742-0.207,2.901-0.134,3.447-0.003c0.541,0.106,0.475,0.17-0.148,0.166c-1.255,0.007-3.098,0.476-5.906,1.664
			c-1.401,0.599-3.045,1.405-4.866,2.569c-1.758,1.156-3.962,2.759-4.856,5.251c-0.056,0.314-0.179,0.619-0.199,0.931l0.004,0.933
			c0.065,0.483,0.363,0.998,0.774,1.469c0.834,0.948,1.996,1.705,3.133,2.358c2.311,1.297,4.686,2.222,6.875,3.02
			c2.198,0.791,4.243,1.422,6.088,1.991c0.232,0.072,0.46,0.143,0.685,0.212c0.321,0.106,0.638,0.211,0.949,0.313l0.586,0.201
			c0.166,0.088,0.486,0.077,0.437,0.301c0.057,0.35,0.113,0.694,0.168,1.032l0.085,0.507l0.086,0.245
			c0.055,0.146,0.107,0.29,0.159,0.43c0.119,0.273,0.295,0.499,0.417,0.737c0.644,0.869,1.328,1.247,1.897,1.642
			c0.618,0.354,1.196,0.698,2.169,1.039c0.964,0.349,2.311,0.744,4.501,0.972c2.184,0.229,5.206,0.303,9.429-0.159
			c8.442-0.999,13.393-2.268,15.7-2.671c2.283-0.513,2.122,0.021-0.198,0.997c-2.313,0.931-5.467,1.977-8.074,2.727
			C164.86,191.815,162.812,192.281,162.812,192.281z"/>
		<path d="M72.866,212.68c3.975-2.113,9.113-3.693,14.601-4.174c2.785-0.266,5.777,0.038,8.454,0.844
			c2.693,0.803,5.136,1.956,7.376,3.048c2.238,1.103,4.081,2.02,5.644,2.68c1.556,0.678,2.829,1.068,3.791,1.354
			c1.933,0.5,2.589,0.733,1.838,0.71c-0.371-0.024-0.837,0.019-1.455,0.075c-0.608-0.019-1.391,0.067-2.341-0.055
			c-1.916-0.148-4.587-0.839-7.996-2.424c-3.4-1.59-6.469-2.823-9.172-3.327c-2.723-0.501-4.888-0.303-6.58,0
			c-1.66,0.315-2.138,0.318-3.457,0.462c-0.66,0.072-1.528,0.191-2.833,0.499c-1.303,0.303-3.053,0.813-5.315,1.898
			c-4.494,2.248-6.484,4.486-7.565,5.413c-1.064,0.965-1.298,0.611-0.551-0.76c0.77-1.331,2.037-3.008,3.271-4.218
			c0.614-0.6,1.179-1.123,1.61-1.46C72.607,212.895,72.866,212.68,72.866,212.68z"/>
		<path d="M140.034,215.47c2.278-0.595,4.78-1.494,7.519-2.344c2.731-0.844,5.758-1.64,9.007-1.698
			c3.258-0.075,6.576,0.718,9.47,2.115c2.896,1.41,5.388,3.279,7.605,5.083c2.211,1.817,4.002,3.363,5.542,4.565
			c1.54,1.189,2.805,2.068,3.778,2.678c1.957,1.194,2.582,1.648,1.779,1.353c-0.789-0.306-2.085-0.498-4.091-1.349
			c-2.009-0.817-4.68-2.395-8.002-5.048c-1.673-1.308-3.279-2.494-4.849-3.473c-1.574-0.97-3.124-1.688-4.583-2.223
			c-2.964-0.998-5.51-1.04-7.344-0.827c-1.844,0.27-2.372,0.315-3.859,0.501c-1.5,0.192-3.881,0.737-9.586,2.658
			c-2.873,0.93-5.334,1.405-7.27,1.46c-0.975-0.002-1.798-0.021-2.486-0.179c-0.338-0.067-0.645-0.128-0.921-0.182
			c-0.268-0.085-0.502-0.183-0.703-0.266c-1.593-0.679-1.128-0.984,0.495-0.797c1.662,0.127,3.844-0.272,5.535-0.847
			C138.769,216.067,140.034,215.47,140.034,215.47z"/>
		<path d="M174.788,266.951c2.158-1.812,3.843-3.988,5.742-5.797c0.946-0.905,1.943-1.718,3.027-2.331
			c0.543-0.307,1.108-0.548,1.685-0.763c0.531-0.166,1.12-0.277,1.751-0.33c2.539-0.195,5.275,0.144,7.918,0.447
			c2.657,0.321,5.281,0.69,7.852,0.933c2.571,0.244,5.09,0.387,7.553,0.158c1.23-0.12,2.455-0.338,3.641-0.793
			c1.174-0.443,2.343-1.18,3.15-2.225c0.695-0.918,1.288-1.909,1.626-2.993c0.317-1.085,0.42-2.198,0.292-3.204
			c-0.26-2.022-1.111-3.481-1.784-4.563c-2.866-4.366-8.1-7.409-12.279-9.079c-4.22-1.68-7.647-1.835-7.508-0.453
			c0.075,1.088,3.18,2.602,6.788,4.63c3.62,1.97,7.606,4.504,9.568,6.453c0.493,0.473,1.283,1.312,1.809,2.529
			c0.543,1.202,0.642,2.803-0.407,4.521c-0.275,0.451-0.505,0.81-0.863,1.111c-0.331,0.329-0.79,0.582-1.275,0.827
			c-0.999,0.464-2.238,0.728-3.543,0.878c-2.631,0.291-5.556,0.137-8.533-0.113c-2.984-0.251-6.044-0.636-9.106-0.854
			c-1.533-0.104-3.07-0.167-4.61-0.06c-0.769,0.059-1.543,0.152-2.31,0.392c-0.751,0.245-1.442,0.544-2.098,0.913
			c-2.63,1.48-4.449,3.633-6.117,5.408c-1.649,1.808-3.22,3.299-4.744,4.18c-3.109,1.692-6.92,2.483-10.704,2.79
			c-3.817,0.272-7.717,0.278-11.377-0.221c-7.391-0.926-13.788-3.939-18.372-6.575c-4.59-2.655-8.391-4.203-9.318-3.807
			c-0.456,0.188-0.172,0.832,1.156,1.977c1.341,1.125,3.716,2.792,7.621,4.722c7.84,3.797,14.02,5.416,20.583,5.919
			c3.305,0.214,6.634,0.208,10.474-0.164c1.915-0.201,3.956-0.527,6.111-1.155c1.077-0.31,2.181-0.702,3.291-1.211
			C172.616,268.529,173.769,267.805,174.788,266.951z"/>
		<path d="M113.828,263.175c6.034-2.09,6.819-6.665-2.119-3.8c-4.522,1.432-7.72,2.911-11.39,4.083
			c-3.618,1.085-7.948,2.045-13.679,0.364c-0.715-0.191-1.412-0.427-2.089-0.716c-0.677-0.276-1.391-0.513-1.957-0.853
			c-1.191-0.688-2.263-1.675-3.44-2.582c-1.17-0.896-2.495-1.799-4.106-2.121c-0.776-0.156-1.607-0.211-2.443-0.046
			c-0.839,0.156-1.587,0.539-2.182,0.87c-1.209,0.699-2.072,1.003-3.229,1.022c-1.326,0.057-2.581,0.164-3.782,0.239
			c-2.395,0.157-4.62,0.205-6.402-0.147c-1.731-0.354-2.587-0.685-3.395-0.923c-0.738-0.252-1.498-0.248-1.597,0.626
			c-0.02,0.217-0.012,0.503,0.08,0.828c0.118,0.3,0.29,0.682,0.572,1.065c0.579,0.748,1.607,1.501,2.938,1.946
			c2.684,0.925,6.2,0.586,10.219-0.371c0.533-0.115,1.04-0.223,1.52-0.326c0.473-0.088,1.161-0.224,1.677-0.404
			c1.095-0.379,1.962-0.964,2.587-1.39c0.647-0.441,1.104-0.687,1.6-0.793c0.48-0.112,1.077-0.079,1.65,0.055
			c1.153,0.263,2.336,1.057,3.916,2.33c0.804,0.625,1.708,1.388,3.015,2.091c0.717,0.368,1.318,0.541,2.029,0.819
			c0.688,0.277,1.434,0.521,2.244,0.721c5.122,1.496,10.269,1.506,14.926,0.81C105.656,265.841,109.895,264.527,113.828,263.175z"/>
		<path d="M273.792,302.537c-1.739,0.901-3.359,1.951-5,3.005c-1.541,0.984-3.26,1.831-5.004,2.586
			c-3.501,1.496-7.14,2.645-10.576,3.361c-3.431,0.729-6.673,1.033-9.346,0.878c-2.678-0.139-4.757-0.726-5.965-1.381
			c-1.223-0.639-2.404-1.482-3.278-2.521c-0.888-1.029-1.481-2.278-1.937-3.506c-0.839-2.48-1.229-4.742-2.584-4.517
			c-0.968,0.161-2.017,2.866-1.117,6.391c0.384,1.735,1.415,3.582,2.793,4.871c1.367,1.3,2.931,2.098,4.157,2.425
			c1.217,0.366,3.937,1.101,7.384,1.005c3.45-0.011,7.579-0.726,11.737-1.888c4.16-1.174,8.361-2.792,11.988-4.685
			c1.84-0.933,3.428-2.076,4.878-2.964c1.461-0.911,2.809-1.66,3.976-2.087c1.166-0.443,2.37-0.656,3.6-0.484
			c1.233,0.161,2.501,0.62,3.775,1.08c2.556,0.94,5.129,1.974,7.731,2.779c2.592,0.81,5.213,1.364,7.691,1.521
			c2.476,0.189,4.757-0.024,6.687-0.272c3.879-0.542,6.414-2.177,6.601-3.029c0.093-0.439-0.406-0.716-1.636-0.667
			c-1.23,0.031-3.18,0.43-6.005,1.03c-5.644,1.163-9.76,0.348-13.997-0.941c-2.131-0.661-4.294-1.483-6.838-2.371
			c-1.283-0.419-2.693-0.923-4.456-1.017C277.259,301.013,275.418,301.702,273.792,302.537z"/>
		<path d="M257.444,286.14c-2.8-0.209-5.603,0.171-8.097,0.742c-1.239,0.286-2.406,0.62-3.364,0.964
			c-0.956,0.321-1.659,0.766-1.767,0.729c-0.216-0.107-0.505,0.332-0.879,0.478c-0.34,0.155-0.928,0.102-1.355-0.591
			c-0.222-0.348-0.29-0.878-0.175-1.445c0.129-0.564,0.42-1.081,0.777-1.533c0.713-0.859,1.573-1.376,2.277-1.624
			c2.822-0.956,7.496-1.46,11.086-1.859c0.893-0.105,3.109-0.324,5.897-0.702c1.392-0.191,2.929-0.43,4.479-0.771
			c1.541-0.335,3.127-0.801,4.342-1.454c0.3-0.159,0.565-0.337,0.779-0.51l0.317-0.277l0.409-0.442
			c0.555-0.57,1.061-1.196,1.558-1.797c0.974-1.243,1.857-2.476,2.64-3.633c1.548-2.301,2.842-4.117,3.329-4.752
			c0.513-0.624,1.825-2.413,4.149-4.408c1.137-1.015,2.6-1.977,4.214-2.84c1.645-0.818,3.456-1.487,5.347-1.928
			c3.801-0.853,7.806-0.68,11.012-0.066c3.239,0.564,5.768,1.383,7.215,1.665c5.751,1.303,6.227,5.404,3.725,4.767
			c-1.265-0.293-4.254-1.436-7.146-2.264c-2.888-0.886-5.689-1.295-6.419-1.366c-0.698-0.062-5.018-1.056-9.545,0.181
			c-2.253,0.543-4.453,1.598-6.1,2.829c-1.652,1.225-2.809,2.495-3.308,3.24c-1.035,1.484-3.011,4.32-5.028,7.216
			c-1.035,1.446-2.154,2.861-3.23,4.066c-0.584,0.571-1.037,1.159-1.62,1.601c-0.555,0.447-1.113,0.743-1.583,0.976
			C267.686,283.255,259.504,286.26,257.444,286.14z"/>
		<path d="M325.936,252.602c3.457-2.445,7.81-4.744,12.797-6.318c2.524-0.713,5.298-1.166,8.064-0.755
			c1.381,0.169,2.697,0.617,3.931,1.114c1.2,0.552,2.327,1.172,3.331,1.826c2.022,1.306,3.569,2.422,4.939,3.195
			c1.352,0.809,2.504,1.263,3.375,1.623c1.769,0.607,2.369,0.91,1.666,0.824c-0.347-0.049-0.787-0.045-1.374-0.029
			c-0.576-0.026-1.305-0.052-2.202-0.204c-1.805-0.26-4.254-1.293-7.211-3.159c-2.938-1.882-5.788-2.866-8.316-2.774
			c-2.511,0.039-4.564,0.696-6.009,1.262c-1.454,0.618-1.898,0.714-3.094,1.096c-0.598,0.189-1.381,0.463-2.545,0.972
			c-1.16,0.513-2.711,1.271-4.676,2.597c-3.953,2.675-5.385,4.923-5.884,6.069c-0.496,1.172-0.888,1.099-0.822-0.466
			c0.188-1.52,1.156-3.37,2.154-4.663c0.473-0.682,0.974-1.191,1.302-1.608C325.72,252.829,325.936,252.602,325.936,252.602z"/>
		<path d="M401.205,256.201c-3.509-1.668-7.701-1.76-11.086-1.737c-3.421,0.042-6.223-0.054-7.594-0.49
			c-1.389-0.397-2.979-0.742-4.277-0.824c-0.655-0.034-1.256,0.009-1.754,0.189c-0.503,0.196-0.923,0.56-1.13,1.173
			c-0.35,0.983,0.645,2.058,2.154,2.673c1.504,0.611,3.358,0.668,4.476,0.424c1.151-0.174,4.901-0.627,8.831-1.023
			c1.971-0.164,4.031-0.222,5.851,0.053c1.817,0.285,3.382,0.835,4.37,1.458c2.029,1.192,3.585,3.205,4.875,5.334
			c1.275,2.119,2.721,4.211,4.22,5.495c1.524,1.338,3.296,1.056,3.708,0.396c0.232-0.334,0.206-0.781-0.136-1.225
			c-0.356-0.438-0.998-0.868-2.017-1.52c-1.039-0.642-1.819-1.445-2.506-2.265c-0.69-0.808-1.28-1.672-1.91-2.553
			c-0.654-0.882-1.303-1.839-2.261-2.81C404.088,257.98,402.872,256.948,401.205,256.201z"/>
		<path d="M429.463,269.021c-1.847-0.85-3.811-1.282-5.576-1.241c-1.771,0.028-3.273,0.503-4.4,1.041
			c-2.248,1.155-3.094,2.465-3.038,2.992c0.036,0.28,0.323,0.418,0.846,0.404c0.515-0.029,1.283-0.184,2.31-0.379
			c2.068-0.363,5.145-0.752,9.254,1.677c4.188,2.508,7.476,5.988,11.134,8.893c1.835,1.46,3.76,2.886,6.138,3.863
			c1.276,0.488,2.326,0.722,3.474,0.982c1.131,0.255,2.28,0.445,3.411,0.611c2.291,0.33,4.367,0.545,6.332,1.513
			c1.997,0.934,3.887,2.44,5.864,4.163c1.973,1.713,3.996,3.595,5.993,5.757c1.967,2.161,4.043,4.602,5.413,7.582
			c0.641,1.454,0.922,3.136,1.098,4.746c0.143,1.612-0.01,3.243-0.697,4.57c-0.65,1.355-1.918,2.255-3.358,2.762
			c-1.447,0.513-3.045,0.657-4.624,0.687c-3.18,0.029-6.349-0.453-9.465-0.941c-1.56-0.247-3.111-0.51-4.673-0.728
			c-1.579-0.2-3.098-0.425-4.831-0.318c-3.268,0.368-6.089,1.319-8.913,2.098c-2.799,0.812-5.506,1.605-8.143,2.24
			c-2.634,0.628-5.205,1.129-7.65,1.308c-2.425,0.156-4.786,0.032-6.583-0.773c-1.796-0.714-2.769-1.965-3.478-3.187
			c-0.386-0.594-0.573-1.254-0.847-1.793c-0.181-0.583-0.381-1.091-0.555-1.529c-0.562-1.779-1.22-2.296-1.722-0.889
			c-0.258,0.703-0.493,1.896-0.267,3.68c0.107,0.887,0.366,1.938,0.938,3.065c0.526,1.151,1.524,2.306,2.829,3.264
			c2.721,1.916,6.487,2.329,10.29,1.93c3.85-0.416,7.968-1.608,12.446-3.213c4.765-1.697,8.505-3.198,11.716-3.718
			c1.467-0.202,3.177-0.002,4.77,0.173c1.62,0.196,3.242,0.449,4.944,0.696c1.705,0.247,3.49,0.499,5.464,0.668
			c1.974,0.161,4.145,0.272,6.646-0.089c1.246-0.21,2.597-0.547,3.942-1.305c1.333-0.738,2.634-2.038,3.27-3.685
			c0.648-1.632,0.77-3.41,0.612-5.146c-0.105-0.863-0.211-1.752-0.426-2.622c-0.169-0.837-0.459-1.887-0.879-2.761
			c-1.322-2.868-3.157-5.149-4.998-7.334c-1.865-2.16-3.811-4.163-5.787-6.069c-1.974-1.87-3.936-3.827-6.399-5.326
			c-1.22-0.749-2.582-1.344-3.939-1.733c-1.358-0.396-2.658-0.63-3.886-0.901c-1.232-0.267-2.416-0.564-3.579-0.918
			c-0.562-0.186-1.194-0.372-1.686-0.571c-0.489-0.186-0.976-0.429-1.457-0.707c-1.931-1.116-3.728-2.729-5.5-4.344
			C437.678,274.935,434.254,271.294,429.463,269.021z"/>
		<path d="M397.257,321.984c-0.86,0.371-1.755,0.745-2.744,1.015c-1.022,0.297-1.9,0.447-2.899,0.643
			c-1.953,0.363-4.031,0.634-6.21,0.632c-4.369,0.094-9.07-1.479-12.815-4.177c-1.904-1.31-3.655-2.872-5.264-4.453
			c-1.616-1.569-3.11-3.149-4.766-4.296c-3.22-2.384-7.456-2.888-11.346-2.633c-4.334,0.346-8.031,1.379-11.065,1.947
			c-3.038,0.613-5.42,0.906-7.069,0.946l-0.908,0.022l0.251-0.744c0.122-0.363,0.268-0.756,0.635-1.051
			c0.381-0.295,0.748-0.275,0.949-0.285c0.423,0.004,0.635-0.031,0.801-0.08c0.304-0.128,0.311,0.006-0.165,0.229
			c-0.251,0.111-0.568,0.121-0.955,0.247c-0.43,0.129-0.617,0.616-0.667,1.076l-0.02-0.022c1.464-0.331,3.41-0.91,6.115-1.782
			c2.72-0.815,6.18-2.118,11.042-2.751c3.192-0.385,6.317-0.208,9.149,0.586c1.411,0.419,2.744,0.99,3.922,1.714
			c1.171,0.728,2.199,1.548,3.127,2.362c1.827,1.645,3.332,3.192,4.785,4.396c1.435,1.219,2.795,2.147,3.992,2.83
			c2.403,1.328,3.084,1.65,5.057,2.424c1.004,0.326,2.351,0.738,4.527,0.878c2.139,0.129,5.254-0.092,9.265-1.17
			c1.91-0.609,3.592-1.546,5.117-2.356c1.524-0.827,2.903-1.574,4.167-2.139c2.509-1.179,4.61-1.483,5.87-1.362
			c1.273,0.123,1.729,0.448,1.59,0.564c-0.143,0.175-0.856,0.152-2.033,0.344c-2.39,0.4-5.142,2.217-7.346,3.754
			c-1.104,0.773-2.119,1.459-2.862,1.941C397.721,321.7,397.257,321.984,397.257,321.984z"/>
		<path d="M310.524,304.766c1.941,1.684,4.647,3.365,7.641,4.311c2.977,0.961,6.201,1.197,8.764,0.191
			c0.324-0.118,0.637-0.232,0.936-0.342c0.301-0.113,0.551-0.305,0.817-0.438c0.525-0.287,1.035-0.522,1.419-0.863
			c0.41-0.305,0.793-0.574,1.144-0.808c0.318-0.277,0.595-0.52,0.833-0.727c0.982-0.825,1.451-1.018,1.167-0.637
			c-0.288,0.374-0.475,1.096-1.028,2.223c-0.341,0.511-0.781,1.123-1.376,1.826c-0.718,0.549-1.5,1.369-2.726,1.805
			c-2.354,1.01-4.732,1.271-6.662,1.094c-0.981-0.02-1.838-0.231-2.638-0.309c-0.773-0.172-1.454-0.324-2.032-0.454
			c-1.137-0.32-1.424-0.526-2.222-0.984c-0.753-0.533-2.089-1.222-4.859-3.252c-2.756-2.068-3.916-3.828-4.286-4.732
			c-0.373-0.91,0.04-1.042,0.779-0.456c0.721,0.609,1.822,1.26,2.706,1.761C309.816,304.422,310.524,304.766,310.524,304.766z"/>
		<path d="M300.629,110.92c1.862-2.074,2.878-4.798,3.463-7.389c0.595-2.607,0.865-5.083,1.488-7.13
			c0.645-2.042,1.633-1.73,2.412-0.475c0.386,0.627,0.734,1.488,0.936,2.376c0.175,0.885,0.227,1.799,0.109,2.499
			c-0.277,1.398-0.731,3.35-1.389,5.411c-0.72,2.039-1.583,4.202-2.598,5.964c-0.446,0.909-1.745,3.065-3.725,5.574
			c-1.983,2.51-4.712,5.256-7.532,7.765c-2.83,2.499-5.619,4.892-8.233,6.72c-2.555,1.757-4.56,2.862-5.276,3.284
			c-0.723,0.413-2.71,1.468-5.345,2.8c-2.63,1.34-5.893,2.981-9.009,4.909c-3.12,1.915-6.029,4.211-7.948,6.568
			c-0.447,0.607-0.94,1.15-1.282,1.73c-0.327,0.586-0.632,1.136-0.913,1.642c-0.493,1.04-0.714,1.969-0.905,2.6
			c-0.112,0.661-0.189,1.267-0.361,1.793c-0.136,0.421-0.265,0.821-0.389,1.203l-0.135,0.38l-0.28,0.288
			c-0.179,0.178-0.377,0.381-0.526,0.505c-0.146,0.108-0.288,0.214-0.427,0.317l-0.373,0.252l-0.151,0.087l-0.331,0.158
			c-0.014,0.016-0.482,0.169-0.792,0.146l-0.268-0.021c-0.148-0.023-0.305-0.066-0.459-0.13c-0.294-0.111-0.608-0.373-0.724-0.522
			c-0.122-0.144-0.229-0.315-0.307-0.493l-0.095-0.267l-0.021-0.106l-0.037-0.402l0.045-0.328c0.037-0.156,0.074-0.229,0.11-0.308
			c0.072-0.146,0.139-0.229,0.206-0.317c0.264-0.316,0.506-0.48,0.728-0.586c0.212-0.114,0.456-0.117,0.638-0.232
			c0.195-0.115,0.254-0.365,0.44-0.45c0.185-0.113,0.549,0.084,0.71,0.416c0.174,0.322,0.222,0.704,0.192,1.091
			c-0.019,0.171-0.04,0.373-0.066,0.602l-0.001,0.098l0.001-0.001l-0.209-0.023l-0.39-0.033c-0.241-0.006-0.393,0.012-0.46,0.039
			c-0.062,0.057,0.012,0.002-0.07-0.146c-0.054-0.117-0.196-0.327-0.36-0.535l-0.133-0.153l-0.067-0.089l0.006-0.01l0.032-0.042
			l0.189-0.252l0.119-0.185l0.019-0.186c0.034-0.165,0.07-0.333,0.106-0.505c0.179-0.737,0.292-1.566,0.584-2.369
			c0.318-0.795,0.648-1.616,0.973-2.427c1.583-3.147,3.91-5.568,4.531-6.136c0.53-0.721,4.581-3.674,9.139-5.905
			c4.545-2.274,9.396-4.403,10.957-5.524c1.559-1.111,4.775-2.863,7.806-4.998c2.997-2.165,5.922-4.65,7.536-6.085
			c1.613-1.452,3.577-4.143,5.033-6.713C299.042,114.098,299.918,111.673,300.629,110.92z"/>
		<path d="M327.918,110.829c-1.918,3.804-4.861,7.94-8.406,11.734c-3.534,3.802-7.637,7.284-11.663,9.993
			c-4.031,2.71-7.165,4.091-9.035,4.81c-1.891,0.685-2.531,0.733-1.9,0.394c1.259-0.712,3.359-2.83,9.191-6.839
			c5.798-4.111,9.774-8.213,11.779-10.795c1.031-1.272,1.332-1.617,2.257-2.513c0.476-0.439,0.994-1.099,1.817-2.099
			c0.424-0.493,0.865-1.108,1.348-1.865c0.505-0.746,1.087-1.614,1.613-2.701c0.272-0.538,0.569-1.035,0.797-1.525
			c0.214-0.496,0.416-0.965,0.608-1.408c0.433-0.872,0.688-1.675,0.932-2.376c0.576-1.384,0.763-2.416,1.051-3.06
			c0.526-1.298,0.89-1.085,0.836,0.389c0.03,1.475-0.247,3.434-0.532,5.046c-0.192,0.794-0.36,1.498-0.482,2.002
			C328.014,110.528,327.918,110.829,327.918,110.829z"/>
		<path d="M291.093,153.436c-2.025,2.311-3.295,6.04-2.01,9.71c1.048,3.695,3.818,7.001,6.378,9.822
			c2.628,2.81,4.598,4.755,5.72,5.96c1.121,1.211,1.369,1.724,0.893,1.366c-0.473-0.362-1.348-0.677-2.694-1.389
			c-0.66-0.374-1.44-0.845-2.347-1.465c-0.86-0.679-1.908-1.439-2.959-2.539c-4.37-4.221-6.996-8.606-7.908-11.567
			c-0.301-0.712-0.313-1.23-0.361-1.685c-0.029-0.459-0.053-0.878-0.03-1.485c0.119-0.607,0.156-1.424,0.426-2.615
			c0.185-0.583,0.402-1.267,0.658-2.08c0.409-0.733,0.783-1.655,1.404-2.589c0.691-0.872,1.23-1.753,1.911-2.318
			c0.652-0.595,1.242-1.101,1.762-1.524c1.111-0.749,1.974-1.148,2.535-1.363c1.13-0.41,1.171,0.047,0.317,0.862
			c-0.43,0.409-0.913,0.9-1.394,1.403c-0.478,0.505-0.842,1.126-1.213,1.623c-0.347,0.518-0.693,0.938-0.827,1.311
			C291.19,153.223,291.093,153.436,291.093,153.436z"/>
		<path d="M324.005,191.763c1.313,0.775,3.251,0.959,5.297,0.479c2.048-0.443,4.18-1.356,6.236-2.505
			c4.124-2.317,8.014-5.457,11.374-8.455c3.364-3.01,5.566-5.285,6.871-6.639c1.289-1.365,1.778-1.768,1.428-1.171
			c-0.364,0.582-0.678,1.612-1.551,3.149c-0.869,1.531-2.261,3.608-4.799,6.039c-5.059,4.866-9.678,8.135-12.55,9.9
			c-1.441,0.88-1.928,1.014-3.206,1.412c-0.641,0.197-1.491,0.449-2.839,0.729c-1.329,0.24-3.246,0.695-5.988-0.039
			c-1.348-0.394-2.49-1.126-3.233-1.973c-0.41-0.399-0.708-0.826-0.952-1.248c-0.278-0.404-0.462-0.809-0.604-1.194
			c-0.619-1.524-0.677-2.654-0.65-3.355c0.06-1.404,0.505-1.196,0.919,0.086c0.429,1.278,1.29,2.899,2.33,3.728
			c0.522,0.402,0.971,0.718,1.346,0.841C323.778,191.716,323.998,191.774,324.005,191.763z"/>
		<path d="M359.833,188.847c-1.338,3.441-3.691,7.203-6.819,10.445c-3.103,3.259-6.921,6.032-10.767,7.795
			c-3.853,1.779-6.888,2.115-8.612,2.174c-1.754-0.001-2.27-0.18-1.669-0.28c1.22-0.262,3.507-1.363,8.884-3.826
			c5.37-2.645,8.854-6.076,10.499-8.244c0.833-1.088,1.097-1.363,1.881-2.108c0.66-0.813,2.05-2.049,3.709-5.768
			c0.797-1.863,1.246-3.413,1.539-4.629c0.4-1.207,0.437-2.102,0.675-2.669c0.387-1.145,0.771-1.002,0.872,0.255
			c0.022,0.62,0.198,1.367,0.152,2.117c-0.01,0.766-0.02,1.546-0.029,2.247C359.971,187.762,359.833,188.847,359.833,188.847z"/>
		<path d="M347.59,220.72c-4.092-1.112-7.118-2.844-8.659-4.705c-0.804-0.88-1.191-1.784-1.421-2.427
			c-0.161-0.706-0.149-1.195-0.03-1.509c0.241-0.623,0.912-0.579,1.617-0.174c0.69,0.434,1.577,1.114,2.689,2.114
			c1.128,1.008,2.579,1.759,4.089,2.353c1.51,0.605,3.093,1.06,4.671,1.477c3.143,0.825,6.29,1.551,9.01,2.807
			c2.75,1.298,5.205,2.96,7.397,5.027c2.169,2.061,3.982,4.486,5.291,7.083c1.376,2.594,2.611,6.668,3.159,9.244
			c0.578,2.579,0.528,3.784-1.154,0.721c-1.643-3.066-2.948-5.091-4.425-7.117c-1.526-1.98-3.064-4.079-5.864-6.651
			c-1.405-1.283-3.076-2.517-4.836-3.567c-1.705-1.001-3.622-1.78-5.358-2.428C350.191,221.668,347.59,220.72,347.59,220.72z"/>
		<path d="M282.587,216.882c5.357,1.794,11.678,4.369,17.764,7.976c6.078,3.577,11.939,8.212,16.099,13.543
			c1.034,1.329,1.841,2.683,2.64,3.868c0.682,1.268,1.236,2.466,1.751,3.531c0.477,1.085,0.727,2.14,1.021,3.026
			c0.132,0.448,0.257,0.868,0.371,1.258c0.077,0.401,0.115,0.782,0.163,1.126c0.348,2.762,0.27,3.572,0.047,2.62
			c-0.113-0.479-0.318-1.067-0.595-1.817c-0.272-0.752-0.582-1.675-1.203-2.736c-0.574-1.075-1.136-2.399-2.132-3.839
			c-0.489-0.721-0.883-1.578-1.524-2.385c-0.615-0.821-1.266-1.714-1.954-2.691c-2.999-3.752-6.323-6.584-9.258-8.808
			c-1.523-1.044-2.915-1.995-4.195-2.78c-1.313-0.733-2.469-1.377-3.451-1.924c-2.029-0.973-2.562-1.323-4.066-2.256
			c-1.563-0.797-4.036-2.388-10.422-4.601c-6.401-2.138-10.325-3.019-12.117-3.63c-1.795-0.628-1.45-0.971,0.523-0.811
			c1.977,0.101,4.6,0.43,6.752,0.706C280.94,216.608,282.587,216.882,282.587,216.882z"/>
		<path d="M265.109,219.965c2.562-0.122,4.557-0.599,4.978-1.634c0.192-0.497-0.056-1.075-0.982-1.645
			c-0.462-0.288-1.09-0.584-1.934-0.736c-0.42-0.085-0.887-0.179-1.405-0.227c-0.522-0.014-1.093-0.011-1.714,0.015
			c-2.534,0.2-4.709,1.032-6.507,2.109c-1.812,1.087-3.216,2.464-4.545,3.916c-2.618,2.959-4.739,6.449-8.207,10.913
			c-3.458,4.445-7.156,8.523-11.32,11.069c-4.137,2.594-8.507,3.472-12.208,3.461c-0.911-0.042-1.695,0.057-2.362,0.141
			c-0.668,0.07-1.213,0.218-1.623,0.418c-0.817,0.401-1.097,1.007-0.601,1.627c0.499,0.578,1.768,1.371,4.061,1.566
			c2.244,0.224,5.658-0.042,9.416-2.089c1.017-0.498,1.821-1.115,2.607-1.571c0.736-0.538,1.418-0.998,2.035-1.465
			c1.225-0.944,2.28-1.795,3.387-2.759c2.187-1.935,4.623-4.342,8.201-9.148c2.859-3.807,5.655-7.279,8.791-9.838
			C258.307,221.537,261.718,220.049,265.109,219.965z"/>
		<path d="M218.437,237.525c2.691-0.734,5.565-2.759,7.879-5.583c2.359-2.787,4.405-6.11,6.57-9.014
			c2.148-2.924,4.109-4.719,5.377-5.588c1.285-0.868,1.766-0.98,1.386-0.602c-0.78,0.799-1.619,2.889-4.631,7.234
			c-1.518,2.195-2.807,4.253-3.952,6.004c-0.588,0.873-1.124,1.672-1.604,2.384c-0.509,0.71-0.956,1.334-1.338,1.865
			c-0.84,1.024-1.115,1.286-1.964,1.905c-0.896,0.541-2.098,1.843-5.798,3.492c-0.951,0.33-1.822,0.594-2.604,0.783
			c-0.8,0.102-1.506,0.167-2.116,0.205c-1.223,0.033-2.079-0.207-2.604-0.346c-1.048-0.333-0.82-0.726,0.227-0.883
			c0.526-0.079,1.134-0.192,1.741-0.315c0.596-0.204,1.186-0.435,1.705-0.635c0.526-0.173,0.949-0.432,1.249-0.619
			C218.256,237.634,218.437,237.525,218.437,237.525z"/>
		<path d="M274.452,404.762c3.979-2.891,7.678-6.196,11.24-9.221c3.547-3.035,6.931-5.798,10.14-7.507
			c6.404-3.39,1.305,4.934-2.191,7.578c-3.547,2.65-9.781,7.594-14.271,11.798c-2.266,2.047-11.162,10.369-17.613,20.337
			c-3.273,4.947-5.879,10.201-7.652,14.604c-1.774,4.478-3.058,7.953-3.537,9.199c-0.479,1.251-1.805,4.638-3.65,9.156
			c-1.852,4.515-4.264,10.166-7.168,15.781c-2.883,5.621-6.326,11.165-9.749,15.568c-0.88,1.083-1.721,2.119-2.514,3.096
			c-0.837,0.941-1.624,1.824-2.347,2.636c-0.192,0.217-0.38,0.43-0.563,0.637c-0.368,0.349-0.536,0.458-0.751,0.651
			c-0.416,0.356-0.846,0.658-1.242,0.953c-0.82,0.561-1.571,1.024-2.244,1.361c-2.65,1.435-5.732,1.443-7.717,0.526
			c-2.03-0.881-2.962-2.244-3.315-3.158c-0.601-1.964,0.568-2.389,2.201-1.432c0.856,0.456,2.387,1.16,4.329,0.968
			c0.962-0.082,2.01-0.374,3.044-0.862c1.001-0.462,2.118-1.217,2.895-1.896c0.872-0.946,1.736-1.88,2.554-2.767
			c0.783-0.945,1.521-1.837,2.182-2.635c1.279-1.631,2.194-2.928,2.595-3.445c0.195-0.265,0.622-0.851,1.232-1.683
			c0.628-0.819,1.421-1.898,2.283-3.196c1.784-2.551,3.853-5.967,5.803-9.594c3.92-7.251,7.262-15.343,8.173-18.336
			c0.911-3.005,2.954-8.682,5.365-14.363c2.459-5.687,5.763-11.062,7.809-14.006c1.99-2.972,4.611-7.747,7.479-11.894
			C270.09,409.464,272.935,405.806,274.452,404.762z"/>
		<path d="M333.63,329.101c0.345-2.719-0.198-5.463-0.955-7.928c-0.751-2.476-1.607-4.703-1.834-6.737
			c-0.212-2.04,0.982-2.271,2.371-1.594c1.411,0.659,2.947,2.288,3.327,3.586c0.768,2.579,1.83,7.311,2.24,11.053
			c0.115,0.933,0.358,3.239,0.478,6.236c0.083,2.997-0.022,6.684-0.472,10.328c-0.433,3.648-1.212,7.221-2.032,10.07
			c-0.429,1.438-0.813,2.7-1.28,3.682c-0.411,0.992-0.73,1.716-0.933,2.073c-0.195,0.365-0.559,1.042-1.051,1.959
			c-0.579,0.86-1.212,2.014-2.121,3.192c-1.725,2.427-4.18,5.208-6.921,7.73c-5.474,5.089-11.866,9.23-13.96,11.246
			c-4.248,3.983-8.346,1.463-6.451-0.35c0.951-0.913,3.587-2.779,6.094-4.567c2.518-1.776,4.846-3.542,5.454-4.005
			c0.598-0.472,4.456-2.753,8.045-5.848c3.685-2.999,6.715-7.11,7.377-8.799c0.637-1.709,2.204-4.752,3.081-8.187
			c0.988-3.39,1.685-6.94,1.883-8.992c0.26-2.052-0.268-5.198-0.971-7.958C334.337,332.516,333.487,330.114,333.63,329.101z"/>
		<path d="M383.312,326.906c0.604,4.037,0.401,8.832,0.181,12.337c-0.06,0.875-0.222,3.37-0.579,6.711
			c-0.363,3.336-0.918,7.528-2.009,11.688c-1.044,4.142-2.75,8.298-4.616,11.293c-1.789,3.063-3.418,5.276-3.989,6.297
			c-1.184,2.002-2.756,3.977-4.838,6.355c-2.042,2.405-4.694,5.228-7.282,9.333c-0.469,0.739-0.912,1.55-1.442,2.359
			c-0.472,0.832-0.962,1.696-1.457,2.566c-0.432,0.9-0.867,1.805-1.292,2.69c-0.36,0.921-0.711,1.82-1.042,2.67
			c-0.51,1.756-1.022,3.326-1.203,4.501c-0.254,1.166-0.407,1.874-0.407,1.874c-0.355,0.12-0.962-4.015,0.059-8.846
			c0.456-2.417,1.432-4.906,2.476-7.051c1.097-2.119,2.274-3.869,3.11-4.948c1.682-2.151,4.213-4.97,6.538-7.583
			c2.331-2.611,4.377-5.099,5.364-6.444c1.001-1.296,4.415-6.072,6.079-11.354c1.722-5.29,2.164-10.823,2.154-12.01
			c0.036-2.387,0.215-8.184,0.185-14.09c-0.003-5.919,1.494-8.578,2.558-9.817C382.916,324.195,383.312,326.906,383.312,326.906z"/>
		<path d="M324.414,435.323c1.954-1.085,3.984-2.124,5.975-3.129c2.776-1.442,8.28-4.069,13.018-7.544
			c2.373-1.715,4.501-3.692,6.028-5.537c1.556-1.823,2.506-3.473,3.004-4.207c1.389-1.986,2.303-5.018,2.151-7.365
			c-0.042-0.585-0.119-1.127-0.235-1.602c-0.148-0.473-0.334-0.88-0.555-1.202c-0.442-0.645-1.029-0.941-1.788-0.8
			c-1.255,0.242-1.802,1.855-2.24,3.63c-0.414,1.79-0.862,3.78-1.081,5.166c-0.047,0.458-0.515,1.791-1.533,3.498
			c-1.022,1.701-2.701,3.7-4.769,5.548c-4.148,3.703-9.644,6.768-12.264,8.338c-2.784,1.639-5.469,3.118-7.328,4.078
			c-0.667,0.369-3.212,1.65-6.587,4.137c-0.84,0.634-1.692,1.372-2.572,2.176c-0.915,0.768-1.795,1.68-2.708,2.64
			c-1.795,1.941-3.639,4.208-5.018,6.935c-1.407,2.694-2.392,5.817-2.544,9.067c-0.168,3.243,0.483,6.55,1.766,9.472
			c2.564,5.904,7.016,10.293,10.916,13.317c3.874,2.995,7.272,4.821,10.014,6.133c2.76,1.28,4.871,2.086,6.508,2.638
			c3.276,1.104,4.592,1.395,5.86,1.75c2.607,0.63,4.717-0.209,5.048-1.111c0.176-0.456-0.06-0.947-0.817-1.333
			c-0.761-0.37-2.03-0.674-3.995-0.871c-1.894-0.247-3.315-0.376-6.326-1.279c-1.504-0.454-3.405-1.113-5.886-2.243
			c-2.472-1.134-5.545-2.746-9.083-5.41c-3.741-2.82-7.955-6.95-10.344-12.334c-1.2-2.666-1.818-5.636-1.69-8.563
			c0.112-2.931,0.975-5.783,2.268-8.304c2.595-5.081,6.733-8.763,9.898-11.33C320.816,437.226,323.525,435.858,324.414,435.323z"/>
		<path d="M299.479,481.914c1.074,2.405,3.367,4.715,6.277,6.418c2.881,1.757,6.322,3.021,9.324,4.783
			c1.503,0.863,2.711,1.814,3.606,2.709c0.473,0.404,0.79,0.917,1.101,1.303c0.301,0.401,0.555,0.748,0.695,1.108
			c0.628,1.364,0.629,1.812,0.337,1.407c-0.149-0.206-0.39-0.429-0.707-0.699c-0.158-0.132-0.333-0.28-0.529-0.445
			c-0.209-0.151-0.464-0.292-0.723-0.464c-0.255-0.171-0.533-0.36-0.84-0.567c-0.321-0.184-0.671-0.386-1.053-0.605
			c-0.366-0.234-0.771-0.475-1.239-0.71c-0.463-0.24-0.921-0.548-1.474-0.821c-2.143-1.175-4.254-2.001-6.038-2.792
			c-1.794-0.762-3.292-1.47-4.393-2.041c-1.124-0.527-1.341-0.881-2.066-1.532c-0.373-0.314-0.797-0.819-1.48-1.543
			c-0.172-0.179-0.358-0.375-0.562-0.587c-0.179-0.235-0.376-0.489-0.588-0.765c-0.41-0.561-0.962-1.157-1.398-1.993
			c-1.04-1.582-1.391-3.056-1.728-4.136c-0.173-1.13-0.197-1.936-0.146-2.45c0.106-1.026,0.536-0.911,0.909,0.009
			c0.367,0.93,0.918,2.129,1.58,2.967c0.304,0.431,0.558,0.809,0.761,1.065C299.339,481.771,299.479,481.914,299.479,481.914z"/>
		<path d="M269.22,486.789c-2.721,3.182-5.415,8.622-8.811,12.469c-1.69,1.916-3.134,3.01-4.032,3.563
			c-0.898,0.556-1.22,0.646-0.935,0.404c0.556-0.518,1.448-1.779,3.836-4.586c2.373-2.848,3.827-5.479,4.69-7.002
			c0.882-1.525,0.586-0.798,3.682-5.101c1.596-2.131,2.849-3.159,3.481-3.547c0.635-0.391,0.694-0.146,0.232,0.442
			C270.397,484.581,269.22,486.789,269.22,486.789z"/>
		<path d="M285.044,490.519c-0.272,1.532-0.06,3.483,0.962,4.884c0.981,1.438,2.697,2.246,4.449,2.739
			c1.758,0.472,3.144,0.779,3.976,1.011c0.835,0.25,1.124,0.496,0.816,0.512c-0.596-0.032-1.779,1.367-5.073,0.817
			c-3.268-0.547-5.701-2.398-6.763-3.798c-0.479-0.713-0.608-0.964-0.695-1.631c-0.086-0.658-0.393-1.735-0.317-4.094
			c0.13-2.364,0.925-3.564,1.405-4.043c0.5-0.48,0.842-0.247,0.81,0.368c-0.046,0.618,0.013,1.452,0.151,2.108
			C284.854,490.048,285.044,490.519,285.044,490.519z"/>
		<path d="M340.753,491.155c1.541-0.465,3.24-1.024,5.195-1.403c0.994-0.159,2.045-0.318,3.291-0.133
			c0.305,0.069,0.678,0.146,0.926,0.232l0.714,0.257c0.48,0.165,0.955,0.354,1.428,0.549c3.795,1.541,7.463,3.757,10.345,6.32
			c2.892,2.561,4.362,4.912,5.069,6.33c0.684,1.45,0.7,1.977,0.39,1.514c-0.313-0.466-0.997-1.021-2.07-1.916
			c-1.057-0.892-2.521-2.128-4.608-3.89c-4.178-3.532-8.315-5.208-10.699-5.915c-1.197-0.324-1.603-0.589-2.175-0.763
			c-0.708-0.175-2.274-0.296-5.904,0.92c-3.609,1.254-5.956,1.836-7.123,1.758c-1.171-0.083-1.014-0.508-0.017-0.912
			c1.011-0.43,2.303-1.189,3.359-1.817C339.935,491.647,340.753,491.155,340.753,491.155z"/>
		<path d="M399.96,354.035c3.357-0.759,7.466-1.281,11.746-1.022c4.263,0.244,8.718,1.302,12.299,3.361
			c0.86,0.574,1.668,1.081,2.354,1.623c0.658,0.589,1.243,1.135,1.761,1.635c0.898,1.154,1.637,2.01,1.953,2.818
			c0.728,1.528,0.771,2.037,0.436,1.566c-0.763-0.901-2.551-2.576-7.298-5.383c-4.954-2.66-9.657-2.93-12.222-2.807
			c-1.305,0.066-1.669,0.036-2.694-0.085c-1.012-0.02-2.74-0.234-6.58,0.573c-3.81,0.878-5.988,1.692-7.116,1.904
			c-1.138,0.2-1.197-0.209-0.211-0.883c0.956-0.716,2.329-1.54,3.477-2.213C399.048,354.509,399.96,354.035,399.96,354.035z"/>
		<path d="M439.335,354.8c2.938-0.672,6.599-1.432,10.504-1.261c1.924,0.057,4.022,0.475,5.84,1.151
			c1.848,0.665,3.511,1.53,5.024,2.35c2.998,1.681,4.994,2.71,6.293,3.254c1.282,0.533,1.715,0.817,1.199,0.756
			c-0.509-0.067-1.313,0.108-2.663-0.014c-1.341-0.104-3.225-0.57-5.557-1.741c-2.331-1.163-4.41-2.108-6.249-2.54
			c-1.824-0.462-3.348-0.454-4.509-0.375c-1.144,0.09-1.463,0.04-2.369-0.014c-0.9-0.018-2.413-0.135-5.853,0.695
			c-3.423,0.879-5.545,1.355-6.604,1.323c-1.055-0.011-1.024-0.435-0.085-0.901C436.179,356.484,439.335,354.8,439.335,354.8z"/>
		<path d="M480.512,388.112c1.752-1.356,3.76-2.374,5.969-2.942c2.175-0.587,4.69-0.794,7.112-1.214
			c2.443-0.403,4.904-0.865,7.292-1.756c1.189-0.455,2.372-1.023,3.44-1.881c1.07-0.827,1.992-2.112,2.264-3.559
			c0.295-1.439,0.016-2.81-0.403-3.949c-0.436-1.143-0.972-2.178-1.581-3.081c-1.255-1.846-2.806-3.443-4.441-4.456
			c-0.784-0.577-1.616-0.945-2.366-1.392c-0.783-0.34-1.52-0.696-2.222-0.973c-0.707-0.256-1.366-0.495-1.973-0.715
			c-0.611-0.19-1.169-0.363-1.669-0.518c-4.018-1.242-9.189-1.665-13.117-1.417c-3.943,0.244-6.685,0.986-6.299,2.265
			c0.318,1.068,3.531,1.559,7.252,1.827c3.731,0.26,7.965,0.51,10.63,0.739c1.309,0.138,4.372,0.501,7.81,2.227
			c1.689,0.914,3.312,2.233,4.624,4.138c1.265,1.863,2.36,4.315,1.131,6.193c-0.601,0.925-1.615,1.681-2.76,2.242
			c-1.141,0.574-2.396,1-3.669,1.345c-2.552,0.69-5.173,1.089-7.675,1.491c-2.498,0.355-4.965,0.946-6.987,1.918
			c-2.037,0.959-3.665,2.19-4.918,3.277c-2.525,2.172-4.82,4.723-7.741,6.275c-1.441,0.803-3.028,1.291-4.628,1.65
			c-0.812,0.143-1.629,0.237-2.445,0.34c-0.837,0.056-1.668,0.128-2.495,0.15c-6.618,0.282-12.814-0.514-17.341-1.658
			c-4.519-1.111-7.979-1.827-8.821-1.323c-0.404,0.254-0.1,0.839,1.278,1.701c1.378,0.835,3.868,1.87,7.72,2.521
			c3.844,0.657,7.145,0.858,10.199,0.958c3.057,0.082,5.874-0.01,8.768-0.257c2.891-0.26,6.102-0.838,9.175-2.679
			c1.539-0.905,2.971-2.112,4.392-3.433C477.441,390.849,478.841,389.394,480.512,388.112z"/>
		<path d="M417.208,395.648c-1.151,0.517-2.419,1.085-3.759,1.687c-0.688,0.294-1.404,0.588-2.218,0.835
			c-0.879,0.273-1.67,0.333-2.493,0.476c-1.66,0.176-3.509,0.115-5.229-0.5c-1.731-0.607-3.087-1.683-4.198-2.596
			c-1.111-0.938-1.971-1.674-2.73-2.269c-0.786-0.569-1.409-1.022-1.877-1.361c-0.985-0.632-1.276-1.004-0.863-0.867
			c0.407,0.145,1.11,0.05,2.234,0.28c1.111,0.212,2.684,0.822,4.422,2.174c1.715,1.356,3.263,2.245,4.724,2.465
			c1.45,0.241,2.714,0.005,3.618-0.229c0.456-0.129,0.748-0.184,1.022-0.209c0.244-0.031,0.466-0.058,0.793-0.099
			c0.694-0.116,1.921-0.398,4.614-1.729c5.37-2.742,7.02-2.176,5.59-1.127C419.45,393.617,417.208,395.648,417.208,395.648z"/>
		<path d="M374.669,394.921c2.703,1.967,6.677,3.29,10.944,3.066c4.258-0.098,8.669-1.235,12.707-2.278
			c8.092-2.177,11.68-2.199,10.45-1.814c-1.23,0.349-3.305,2.113-9.394,3.947c-6.087,1.847-11.212,2.86-14.35,3.02
			c-1.562,0.072-2.022-0.047-3.228-0.272c-1.163-0.4-3.285-0.51-7.436-2.755c-4.072-2.419-5.474-4.965-6.058-6.045
			c-0.556-1.143-0.095-1.214,0.84-0.381c0.469,0.419,1.03,0.889,1.6,1.354c0.618,0.414,1.266,0.797,1.831,1.143
			c0.551,0.368,1.087,0.607,1.478,0.756C374.437,394.824,374.669,394.921,374.669,394.921z"/>
		<path d="M390.962,339.35c2.753-0.016,6.108,0.415,9.27,1.727c3.177,1.255,6.131,3.22,8.395,5.373
			c2.276,2.153,3.493,3.976,4.119,5.104c0.624,1.135,0.677,1.584,0.374,1.246c-0.64-0.652-2.502-1.436-5.801-4.38
			c-3.337-2.96-6.629-4.389-8.556-4.858c-0.968-0.244-1.217-0.351-1.924-0.705c-0.723-0.24-1.924-0.871-4.915-0.928
			c-2.977-0.001-4.777,0.305-5.704,0.159c-0.925-0.121-0.922-0.525-0.063-0.893c0.429-0.195,0.929-0.424,1.441-0.657
			c0.532-0.209,1.074-0.422,1.561-0.613c0.492-0.21,0.949-0.303,1.275-0.415C390.762,339.41,390.962,339.35,390.962,339.35z"/>
		<path d="M227.087,297.723c-0.019-1.222,0.437-2.331,1.004-3.231c0.574-0.914,1.266-1.72,2.013-2.468
			c1.497-1.485,3.222-2.731,4.942-3.584c3.483-1.712,5.439-0.931,4.832-0.798c-0.568,0.175-1.204,1.445-3.504,2.737
			c-2.326,1.327-3.836,2.896-4.479,3.892c-0.323,0.5-0.473,0.569-0.837,0.84c-0.174,0.137-0.417,0.323-0.681,0.655
			c-0.264,0.32-0.605,0.827-0.682,1.426c-0.143,1.022,0.575,1.816,0.773,2.395c0.221,0.566-0.004,0.885-0.578,0.672
			c-0.548-0.211-1.381-0.534-1.969-1.176c-0.28-0.314-0.522-0.649-0.638-0.92C227.143,297.897,227.087,297.723,227.087,297.723z"/>
		<path d="M289.293,422.805c-0.639,1.246-1.322,2.136-1.954,2.612c-0.63,0.48-1.134,0.562-1.435,0.459
			c-0.602-0.234-0.512-1.088,0.231-1.842c0.761-0.789,1.31-1.84,1.857-2.839c0.581-1.064,1.177-1.959,1.819-2.725
			c1.273-1.475,2.968-3.016,5.206-3.362c0.833-0.15,2.014-0.006,2.837,0.369l-0.394,0.127c0.499-0.252,0.837-0.711,0.956-0.962
			l0.227-0.046c0.082,0.116,0.159,0.455,0.003,0.897c-0.129,0.351-0.277,0.604-0.453,0.844l-0.12,0.164l-0.389-0.001
			c-0.857-0.001-1.477,0.211-2.091,0.485c-0.615,0.287-1.232,0.65-2.102,1.29c-0.988,0.746-2.059,1.876-2.873,2.844
			c-0.423,0.484-0.73,0.86-0.953,1.181C289.433,422.617,289.293,422.805,289.293,422.805z"/>
		<path d="M275.549,457.353c-0.146,3.118-0.647,5.408-1.233,6.907c-0.591,1.504-1.187,2.229-1.557,2.43
			c-0.777,0.366-0.718-1.209-0.029-3.564c1.367-4.823,0.823-10.007,1.187-14.138c0.178-2.079,0.38-4.153,0.916-6.262
			c0.523-2.088,1.361-4.086,2.42-5.914c2.068-3.765,7.847-9.654,5.018-5.393c-1.364,2.157-2.158,3.757-2.914,5.476
			c-0.736,1.725-1.494,3.555-2.198,6.386c-0.667,2.835-0.949,6.393-1.169,9.192C275.784,455.28,275.549,457.353,275.549,457.353z"/>
		<path d="M361.702,345.597c0.847,2.094-0.888,2.291-0.939,1.373c-0.062-0.924-0.595-1.716-0.813-2.384
			c-0.219-0.674-0.462-1.323-0.627-2.014c-0.119-0.68-0.439-2.248,0.201-1.561c0.625,0.718,1.084,0.944,1.524,2.016
			C361.481,344.107,361.702,345.597,361.702,345.597z"/>
		<path d="M352.137,378.678c-1.325,2.855-2.222,4.994-2.992,6.426c-0.754,1.44-1.336,2.187-1.725,2.396
			c-0.771,0.42-0.781-1.298,0.328-3.762c2.182-4.901,4.279-10.081,7.463-13.39c0.784-0.814,1.62-1.589,2.532-2.275
			c0.47-0.326,0.909-0.694,1.414-0.969l0.698-0.414l-0.01,0.011l0.009-0.011l0.082-0.146c0.981-1.75,1.666-3.675,2.126-5.664
			c0.503-1.983,0.741-5.104,0.555-7.109c-0.066-0.999-0.165-1.713-0.067-1.87c0.069-0.15,0.367,0.254,0.744,1.58
			c0.7,2.663,0.856,4.637,0.786,6.739c-0.126,2.087-0.453,4.405-2.035,7.453l-0.206,0.382c-0.1,0.164-0.156,0.39-0.366,0.461
			l-0.731,0.441c-0.33,0.201-0.677,0.386-0.991,0.632c-0.661,0.441-1.279,0.961-1.891,1.482c-1.19,1.085-2.23,2.303-3.08,3.435
			C353.106,376.8,352.137,378.678,352.137,378.678z"/>
		<path d="M324.696,418.575c-5.168,4.072-8.289,4.732-9.086,4.565c-0.852-0.234,0.328-1.437,2.654-2.638
			c4.714-2.423,8.518-6.216,11.462-9.182c2.982-2.974,5.684-6.216,8.305-9.55c2.709-3.242,7.698-10.303,5.254-5.515
			c-1.252,2.387-2.129,4.072-3.15,5.835c-1.028,1.759-2.207,3.599-4.281,6.122c-2.081,2.523-4.789,5.231-7.073,7.176
			c-1.158,0.954-2.155,1.78-2.906,2.314C325.135,418.25,324.696,418.575,324.696,418.575z"/>
		<path d="M349.302,315.927c-0.416-1.257-0.615-2.328-0.707-3.178l0.195,0.437c-0.049-0.113-0.085-0.304-0.237-0.367l-0.202-0.019
			c-0.063-0.005-0.156,0.003-0.34,0.062c-0.657,0.133-0.909-0.165-0.925-0.377c-0.021-0.24,0.112-0.477,0.207-0.708
			c-0.03-0.026,0.37-0.528,0.731-0.73c0.371-0.25,0.968-0.243,1.422,0.095c0.33,0.228,0.592,0.556,0.837,0.864l0.158,0.197
			l0.029,0.218c0.373,2.919,1.658,5.548,2.518,7.717c0.926,2.354,2.012,4.695,2.805,7.191c0.859,2.507,1.551,7.723,0.284,4.749
			c-1.309-2.941-2.278-3.888-3.828-7.441c-0.783-1.777-1.613-3.929-2.142-5.67C349.566,317.23,349.302,315.927,349.302,315.927z"/>
		<path d="M335.143,223.361c2.22,1.151,5.142,2.108,8.18,3.139c3.024,1.049,6.241,2.178,8.82,4.053
			c1.276,0.941,2.209,2.001,2.761,3.006c0.551,1.007,0.773,1.903,0.807,2.56c0.067,1.315-0.125,1.68-0.138,1.229
			c-0.043-0.449-0.195-1.149-0.724-2.122c-0.516-0.974-1.442-2.183-3.202-3.468c-1.766-1.286-3.646-2.057-5.241-2.658
			c-1.607-0.594-2.975-0.996-3.989-1.283c-1.017-0.284-1.29-0.416-2.056-0.742c-0.76-0.346-2.038-0.795-4.99-2.065
			c-2.961-1.297-4.432-2.733-4.922-3.485c-0.5-0.759-0.218-0.776,0.457-0.214c0.701,0.549,1.752,1.105,2.64,1.468
			C334.432,223.15,335.143,223.361,335.143,223.361z"/>
		<path d="M322.485,233.52c-1.431-2.174-2.905-4.79-5.216-6.891c-2.218-2.199-4.822-4.078-7.489-5.154
			c-2.663-1.085-4.719-1.419-5.916-1.688c-1.209-0.221-1.584-0.381-1.136-0.358c0.449,0.026,1.127-0.099,2.27-0.111
			c1.133,0.008,2.77,0.088,4.953,0.865c4.363,1.637,7.102,4.279,8.705,5.653c1.488,1.465,1.039,0.908,4.489,6.152
			c1.709,2.619,2.783,4.065,3.434,4.421c0.307,0.191,0.508,0.255,0.475,0.353c-0.014,0.05-0.348,0.218-0.817,0.02
			c-0.946-0.349-1.829-1.265-2.542-1.967C322.991,234.094,322.485,233.52,322.485,233.52z"/>
		<path d="M276.737,167.739c-1.364-3.904-1.55-9.766-0.116-14.316c0.694-2.273,1.593-3.712,2.177-4.494
			c0.607-0.776,0.862-0.949,0.695-0.647c-0.314,0.63-0.627,2.027-1.589,5.259c-0.915,3.278-0.905,6.042-0.737,7.589
			c0.057,0.781,0.085,0.998,0.06,1.615c0.011,0.605-0.032,1.647,0.619,3.877c0.718,2.199,1.431,3.372,1.699,3.987
			c0.257,0.629,0.046,0.7-0.453,0.19c-0.526-0.482-1.127-1.23-1.596-1.873c-0.217-0.332-0.41-0.627-0.549-0.838
			C276.801,167.877,276.737,167.739,276.737,167.739z"/>
		<path d="M309.539,121.517c1.042-0.867,1.951-2.35,2.683-3.988c0.741-1.641,1.354-3.44,2.04-5.054
			c1.365-3.273,2.697-4.222,2.407-3.751c-0.249,0.48-0.248,1.616-1.164,4.038c-0.913,2.441-1.551,4.464-1.997,5.652
			c-0.201,0.601-0.347,0.739-0.621,1.154c-0.31,0.396-0.701,1.12-2.004,2.57c-1.379,1.432-2.667,1.696-3.193,1.679
			c-0.548,0.001-0.499-0.241-0.055-0.485c0.466-0.211,0.974-0.68,1.338-1.061C309.308,121.836,309.539,121.517,309.539,121.517z"/>
		<path d="M335.007,195.248c2.324-0.351,5.155-2.116,7.225-3.873c2.092-1.749,3.14-2.405,2.901-2.045
			c-0.284,0.307-0.34,1.392-1.95,2.887c-1.612,1.47-3.06,2.488-3.921,3.086c-0.433,0.297-0.591,0.321-0.979,0.449
			c-0.397,0.118-1.035,0.308-2.518,0.75c-1.501,0.396-2.449,0.292-2.875,0.152c-0.432-0.145-0.371-0.363,0.039-0.48
			C333.768,195.972,335.007,195.248,335.007,195.248z"/>
		<path d="M248.748,480.104c2.518-3.761,4.922-8.728,6.481-14.176c1.615-5.439,2.367-11.286,2.978-16.634
			c0.581-5.345,1.302-9.191,2.394-11.253c0.503-1.041,1.035-1.602,1.286-1.85c0.252-0.252,0.257-0.199,0.016,0.13
			c-0.505,0.647-1.004,1.802-1.374,3.77c-0.401,1.967-0.599,4.772-1.012,8.798c-0.406,4.029-0.835,7.67-1.381,10.748
			c-0.531,3.082-1.147,5.603-1.655,7.449c-0.506,1.848-0.74,2.352-1.322,3.738c-0.292,0.692-0.687,1.602-1.336,2.976
			c-0.655,1.369-1.55,3.215-3.034,5.668c-1.474,2.458-2.865,4.281-3.997,5.628c-1.134,1.351-2.019,2.225-2.608,2.743
			c-1.167,1.047-1.14,0.696-0.133-0.566c0.51-0.625,1.078-1.375,1.616-2.169c0.561-0.776,1.087-1.594,1.54-2.339
			c0.472-0.731,0.847-1.402,1.113-1.887C248.586,480.395,248.748,480.104,248.748,480.104z"/>
		<path d="M295.981,456.21c-0.12-1.18-0.317-2.522-0.262-3.987c0.009-0.728,0.119-1.488,0.262-2.235
			c0.158-0.711,0.317-1.433,0.477-2.162c0.681-2.908,1.534-5.905,2.714-8.507c0.591-1.299,1.206-2.365,1.854-3.191
			c0.506-0.675,1.045-1.115,1.457-1.164c0.202-0.048,0.443-0.029,0.609,0.122c0.165,0.136,0.212,0.327,0.259,0.49
			c0.106,0.74-0.123,1.285-0.191,1.457c-0.086,0.196-0.116,0.16-0.082-0.057c0.036-0.218,0.042-0.504-0.011-0.791
			c-0.033-0.141-0.072-0.286-0.179-0.402c-0.09-0.151-0.374-0.102-0.535,0.087c-0.171,0.167-0.301,0.364-0.404,0.548
			c-0.122,0.231-0.255,0.482-0.4,0.756c-0.334,0.655-0.697,1.444-1.108,2.387c-1.606,3.803-2.244,7.102-2.574,9.002
			c-0.158,0.953-0.251,1.227-0.46,1.943c-0.176,0.688-0.521,1.836-0.149,4.69c0.191,1.429,0.333,2.628,0.278,3.577
			c-0.036,0.949-0.258,1.614-0.439,1.997c-0.409,0.758-0.549,0.516-0.424-0.272c0.105-0.81-0.053-1.888-0.27-2.749
			C296.19,456.884,295.981,456.21,295.981,456.21z"/>
		<path d="M308.38,395.185c1.939-0.539,4.101-1.871,6.016-3.593c1.927-1.721,3.636-3.811,4.95-5.844
			c1.326-2.034,1.964-3.602,2.353-4.537c0.328-0.949,0.528-1.257,0.46-0.887c-0.145,0.682,0.314,2.455-1.596,5.861
			c-1.999,3.286-4.116,5.547-5.423,6.806c-0.644,0.644-0.9,0.746-1.493,1.142c-0.628,0.34-1.564,1.06-4.104,2.11
			c-2.602,0.979-4.388,0.669-5.071,0.376c-0.713-0.261-0.519-0.452,0.212-0.455c0.736,0.052,1.701-0.189,2.433-0.43
			C307.85,395.43,308.385,395.212,308.38,395.185z"/>
		<path d="M371.872,333.263c-0.34-3.674-0.713-5.165-0.506-5.728c0.106-0.271,0.343-0.251,0.642,0.065
			c0.315,0.31,0.618,0.934,0.766,1.747c0.518,3.23,0.716,6.389,0.635,8.928c-0.115,2.526-0.333,5.035-0.687,7.509
			c-0.023,0.154-0.047,0.318-0.072,0.489l-0.04,0.262l-0.054,0.448c-0.044,0.137,0.013,0.34-0.118,0.419l-0.439,0.197
			c-0.33,0.146-0.478,0.186-0.688,0.246c-0.803,0.232-1.632,0.268-2.238,0.176c-0.609-0.089-0.998-0.267-1.05-0.363
			c-0.053-0.111,0.222-0.105,0.958-0.153c0.736-0.061,1.333-0.27,1.845-0.523c0.695-0.396,0.51-0.197,0.499-0.743
			c-0.03-1.188-0.013-2.447,0.126-4.314c0.139-1.867,0.308-4.035,0.374-5.735C371.905,334.49,371.872,333.263,371.872,333.263z"/>
		<path d="M348.271,348.565c-0.693-1.601-1.412-2.187-1.318-2.726c0.016-0.468,0.771-0.552,1.448,0.247
			c1.376,1.533,1.743,3.823,1.266,5.343c-0.432,1.541-1.325,2.88-2.503,3.856c-0.575,0.509-1.613,1.035-2.311,1.18
			c-0.703,0.148-0.995,0.064-0.301-0.427c0.692-0.502,1.058-0.994,1.435-1.494c0.353-0.523,0.748-1.042,1.25-1.866
			c0.509-0.817,0.941-1.855,1.045-2.689c0.042-0.411,0.08-0.779,0.03-1.024C348.287,348.715,348.271,348.565,348.271,348.565z"/>
		<path d="M247.899,491.421c-1.354,0-2.828,0.342-4.091,1.265c-1.275,0.895-2.37,2.256-3.202,3.858
			c-0.423,0.876-0.85,1.76-1.278,2.645c-0.493,0.925-1.025,1.844-1.666,2.703c-1.255,1.732-2.926,3.215-4.694,4.159
			c-1.761,0.966-3.332,1.437-4.613,1.778c-1.288,0.334-2.311,0.508-3.08,0.614c-1.536,0.204-2.055,0.102-1.531-0.072
			c0.525-0.175,1.232-0.683,2.452-1.374c1.207-0.711,2.972-1.525,5.271-2.779c2.307-1.265,3.81-3.1,4.795-4.839
			c0.497-0.869,0.875-1.716,1.179-2.488c0.328-0.768,0.621-1.589,0.936-2.199c0.301-0.637,0.533-1.03,0.806-1.359
			c0.259-0.332,0.505-0.624,0.932-1.007c0.407-0.392,0.959-0.908,1.913-1.569c0.938-0.651,2.364-1.476,4.521-1.812
			c2.159-0.326,3.837,0.062,5.026,0.452c1.201,0.4,1.964,0.855,2.409,1.21c0.89,0.706,0.548,0.996-0.512,0.748
			c-1.067-0.244-2.526-0.382-3.656-0.27c-0.566,0.012-1.045,0.148-1.386,0.19C248.098,491.365,247.899,491.421,247.899,491.421z"/>
		<path d="M246.561,507.817c-1.801,1.207-4.029,2.357-6.499,3.16c-2.459,0.798-5.179,1.245-7.701,0.911
			c-2.538-0.308-4.175-1.528-4.831-2.358c-0.642-0.91-0.638-1.25-0.377-1.03c0.136,0.113,0.351,0.208,0.627,0.308
			c0.135,0.048,0.284,0.101,0.452,0.16c0.179,0.029,0.377,0.06,0.595,0.095c0.211,0.037,0.434,0.081,0.67,0.138
			c0.248,0.027,0.518,0.057,0.811,0.09c0.559,0.12,1.255,0.124,2.038,0.25c3.248,0.25,5.854-0.688,7.185-1.39
			c0.684-0.337,0.886-0.386,1.481-0.49c0.569-0.136,1.584-0.335,3.458-1.548c1.801-1.266,2.726-2.086,3.286-2.484
			c0.612-0.38,0.952-0.201,0.715,0.523c-0.105,0.363-0.238,0.794-0.452,1.189c-0.191,0.414-0.387,0.866-0.624,1.204
			c-0.228,0.367-0.43,0.692-0.575,0.926C246.659,507.686,246.561,507.817,246.561,507.817z"/>
	</g>
</g>
</svg>
